<?xml version="1.0" encoding="utf-8"?>
<!-- Generator: Adobe Illustrator 22.1.0, SVG Export Plug-In . SVG Version: 6.00 Build 0)  -->
<svg version="1.1" id="Layer_1" xmlns="http://www.w3.org/2000/svg" xmlns:xlink="http://www.w3.org/1999/xlink" x="0px" y="0px"
	 viewBox="0 0 256 256" style="enable-background:new 0 0 256 256;" xml:space="preserve">
<style type="text/css">
	.st0{fill:#464646;stroke:#464646;stroke-width:8;stroke-linecap:round;stroke-linejoin:round;stroke-miterlimit:10;}
	.st1{fill:#464646;stroke:#FFFFFF;stroke-width:8;stroke-linecap:round;stroke-linejoin:round;stroke-miterlimit:10;}
	.st2{opacity:0.15;fill:#464646;stroke:#FFFFFF;stroke-miterlimit:10;}
	.st3{fill:#464646;stroke:#FFFFFF;stroke-miterlimit:10;}
	.st4{fill:none;stroke:#464646;stroke-width:8;stroke-linecap:round;stroke-linejoin:round;stroke-miterlimit:10;}
	.st5{opacity:0.1;}
	.st6{opacity:0.3;fill:#464646;stroke:#FFFFFF;stroke-miterlimit:10;}
	.st7{fill:#FFFFFF;stroke:#464646;stroke-width:8;stroke-linecap:round;stroke-linejoin:round;stroke-miterlimit:10;}
	.st8{opacity:0.1;fill:#464646;stroke:#FFFFFF;stroke-miterlimit:10;}
	.st9{fill:none;stroke:#6D6E71;stroke-width:5;stroke-linecap:round;stroke-linejoin:round;stroke-miterlimit:10;}
	.st10{fill:none;stroke:#FFFFFF;stroke-width:8;stroke-linecap:round;stroke-linejoin:round;stroke-miterlimit:10;}
	.st11{opacity:0.15;}
	.st12{fill:#FFFFFF;}
	.st13{fill:#464646;stroke:#464646;stroke-width:10;stroke-linecap:round;stroke-linejoin:round;stroke-miterlimit:10;}
	.st14{fill:#464646;stroke:#464646;stroke-miterlimit:10;}
	.st15{fill:#464646;stroke:#FFFFFF;stroke-width:8;stroke-miterlimit:10;}
	.st16{opacity:0.2;fill:#464646;stroke:#FFFFFF;stroke-miterlimit:10;}
</style>
<g>
	<path class="st1" d="M195.1,18.4C205.7,29,214,41.1,220,53.9c8.5,18.3,12.4,38.2,11.6,58c-0.8,18.5-5.6,36.8-14.5,53.5
		c-5.7,10.7-13,20.7-22,29.6c-9,9-19,16.3-29.7,22c-16.7,8.9-35.1,13.7-53.5,14.5c-19.8,0.8-39.7-3-58-11.6
		c-12.9-6-24.9-14.3-35.5-24.9L195.1,18.4z"/>
	<path class="st1" d="M209.5,4.1c12.3,12.3,22,26.3,28.9,41.2c9.9,21.3,14.4,44.4,13.5,67.4c-0.9,21.5-6.5,42.8-16.9,62.2
		c-6.6,12.4-15.1,24-25.6,34.4c-10.4,10.4-22.1,18.9-34.5,25.5c-19.5,10.3-40.8,16-62.2,16.8c-23,0.9-46.2-3.5-67.5-13.5
		c-14.9-7-28.9-16.6-41.2-28.9L18.3,195c10.6,10.6,22.6,18.9,35.5,24.9c18.3,8.5,38.3,12.4,58,11.6c18.5-0.8,36.8-5.6,53.5-14.5
		c10.7-5.7,20.7-13,29.7-22c9-9,16.3-19,22-29.6c8.9-16.7,13.8-35,14.5-53.5c0.8-19.8-3-39.7-11.6-58c-6-12.8-14.3-24.9-24.9-35.5
		L209.5,4.1z"/>
	<path class="st1" d="M159.7,53.8c5.3,5.3,9.2,11.4,11.8,18.1c3.7,9.6,4.8,20.3,3.3,31.2c-1.4,10.2-5,20.4-10.7,30.1
		c-3.7,6.1-8.2,12-13.6,17.4c-5.4,5.4-11.3,9.9-17.4,13.6c-9.6,5.7-19.9,9.3-30.1,10.7c-10.9,1.5-21.6,0.4-31.2-3.3
		c-6.7-2.6-12.9-6.5-18.2-11.8L159.7,53.8z"/>
	<g>
		<g>
			<line class="st1" x1="88.8" y1="150.2" x2="88.8" y2="163.7"/>
			<line class="st1" x1="150.3" y1="88.9" x2="163.7" y2="88.9"/>
		</g>
		<g>
			<line class="st1" x1="104.1" y1="147.8" x2="108" y2="160.6"/>
			<line class="st1" x1="147.8" y1="104.1" x2="160.7" y2="108"/>
		</g>
		<g>
			<line class="st1" x1="119.4" y1="141.3" x2="125.8" y2="153.2"/>
			<line class="st1" x1="141.4" y1="119.4" x2="153.2" y2="125.8"/>
		</g>
		<line class="st1" x1="132.5" y1="132.4" x2="141.9" y2="141.9"/>
	</g>
	<g>
		<line class="st1" x1="100" y1="133" x2="100.4" y2="128.5"/>
		<line class="st1" x1="114.1" y1="125.6" x2="112.1" y2="121"/>
		<line class="st1" x1="133" y1="100.1" x2="128.5" y2="100.4"/>
		<line class="st1" x1="125.6" y1="114.1" x2="121" y2="112.1"/>
	</g>
</g>
</svg>
