<?xml version="1.0" encoding="utf-8"?>
<!-- Generator: Adobe Illustrator 22.1.0, SVG Export Plug-In . SVG Version: 6.00 Build 0)  -->
<svg version="1.1" id="Layer_1" xmlns="http://www.w3.org/2000/svg" xmlns:xlink="http://www.w3.org/1999/xlink" x="0px" y="0px"
	 viewBox="0 0 256 256" style="enable-background:new 0 0 256 256;" xml:space="preserve">
<style type="text/css">
	.st0{fill:#464646;stroke:#464646;stroke-width:8;stroke-linecap:round;stroke-linejoin:round;stroke-miterlimit:10;}
	.st1{fill:#464646;stroke:#FFFFFF;stroke-width:8;stroke-linecap:round;stroke-linejoin:round;stroke-miterlimit:10;}
	.st2{opacity:0.15;fill:#464646;stroke:#FFFFFF;stroke-miterlimit:10;}
	.st3{fill:#464646;stroke:#FFFFFF;stroke-miterlimit:10;}
	.st4{fill:none;stroke:#464646;stroke-width:8;stroke-linecap:round;stroke-linejoin:round;stroke-miterlimit:10;}
	.st5{opacity:0.1;}
	.st6{opacity:0.3;fill:#464646;stroke:#FFFFFF;stroke-miterlimit:10;}
	.st7{fill:#FFFFFF;stroke:#464646;stroke-width:8;stroke-linecap:round;stroke-linejoin:round;stroke-miterlimit:10;}
	.st8{opacity:0.1;fill:#464646;stroke:#FFFFFF;stroke-miterlimit:10;}
	.st9{fill:none;stroke:#6D6E71;stroke-width:5;stroke-linecap:round;stroke-linejoin:round;stroke-miterlimit:10;}
	.st10{fill:none;stroke:#FFFFFF;stroke-width:8;stroke-linecap:round;stroke-linejoin:round;stroke-miterlimit:10;}
	.st11{opacity:0.15;}
	.st12{fill:#FFFFFF;}
	.st13{fill:#464646;stroke:#464646;stroke-width:10;stroke-linecap:round;stroke-linejoin:round;stroke-miterlimit:10;}
	.st14{fill:#464646;stroke:#464646;stroke-miterlimit:10;}
	.st15{fill:#464646;stroke:#FFFFFF;stroke-width:8;stroke-miterlimit:10;}
	.st16{opacity:0.2;fill:#464646;stroke:#FFFFFF;stroke-miterlimit:10;}
</style>
<g>
	<path class="st1" d="M128,4C59.6,4,4.1,59.5,4.1,128S59.6,252,128,252s123.9-55.5,123.9-124S196.4,4,128,4z M193.7,193.8
		c-16.8,16.8-40,27.2-65.7,27.2s-48.9-10.4-65.7-27.2c-16.8-16.8-27.2-40.1-27.2-65.8s10.4-48.9,27.2-65.8
		C79.1,45.4,102.3,35,128,35s48.9,10.4,65.7,27.2c16.8,16.8,27.2,40.1,27.2,65.8S210.5,176.9,193.7,193.8z"/>
	<path class="st1" d="M220.9,128H128l65.7-65.8C210.5,79.1,220.9,102.3,220.9,128z"/>
	<path class="st1" d="M193.7,62.2L128,128V35C153.7,35,176.9,45.4,193.7,62.2z"/>
	<path class="st1" d="M128,35v93L62.3,62.2C79.1,45.4,102.3,35,128,35z"/>
	<path class="st1" d="M128,128H35.1c0-25.7,10.4-48.9,27.2-65.8L128,128z"/>
	<path class="st1" d="M128,128l-65.7,65.8c-16.8-16.8-27.2-40.1-27.2-65.8H128z"/>
	<path class="st1" d="M128,128v93c-25.7,0-48.9-10.4-65.7-27.2L128,128z"/>
	<path class="st1" d="M193.7,193.8c-16.8,16.8-40,27.2-65.7,27.2v-93L193.7,193.8z"/>
	<path class="st1" d="M220.9,128c0,25.7-10.4,48.9-27.2,65.8L128,128H220.9z"/>
</g>
</svg>
