<?xml version="1.0" encoding="utf-8"?>
<!-- Generator: Adobe Illustrator 22.1.0, SVG Export Plug-In . SVG Version: 6.00 Build 0)  -->
<svg version="1.1" id="Layer_1" xmlns="http://www.w3.org/2000/svg" xmlns:xlink="http://www.w3.org/1999/xlink" x="0px" y="0px"
	 viewBox="0 0 256 256" style="enable-background:new 0 0 256 256;" xml:space="preserve">
<style type="text/css">
	.st0{fill:#464646;stroke:#464646;stroke-width:8;stroke-linecap:round;stroke-linejoin:round;stroke-miterlimit:10;}
	.st1{fill:#464646;stroke:#FFFFFF;stroke-width:8;stroke-linecap:round;stroke-linejoin:round;stroke-miterlimit:10;}
	.st2{opacity:0.15;fill:#464646;stroke:#FFFFFF;stroke-miterlimit:10;}
	.st3{fill:#464646;stroke:#FFFFFF;stroke-miterlimit:10;}
	.st4{fill:none;stroke:#464646;stroke-width:8;stroke-linecap:round;stroke-linejoin:round;stroke-miterlimit:10;}
	.st5{opacity:0.1;}
	.st6{opacity:0.3;fill:#464646;stroke:#FFFFFF;stroke-miterlimit:10;}
	.st7{fill:#FFFFFF;stroke:#464646;stroke-width:8;stroke-linecap:round;stroke-linejoin:round;stroke-miterlimit:10;}
	.st8{opacity:0.1;fill:#464646;stroke:#FFFFFF;stroke-miterlimit:10;}
	.st9{fill:none;stroke:#6D6E71;stroke-width:5;stroke-linecap:round;stroke-linejoin:round;stroke-miterlimit:10;}
	.st10{fill:none;stroke:#FFFFFF;stroke-width:8;stroke-linecap:round;stroke-linejoin:round;stroke-miterlimit:10;}
	.st11{opacity:0.15;}
	.st12{fill:#FFFFFF;}
	.st13{fill:#464646;stroke:#464646;stroke-width:10;stroke-linecap:round;stroke-linejoin:round;stroke-miterlimit:10;}
	.st14{fill:#464646;stroke:#464646;stroke-miterlimit:10;}
	.st15{fill:#464646;stroke:#FFFFFF;stroke-width:8;stroke-miterlimit:10;}
	.st16{opacity:0.2;fill:#464646;stroke:#FFFFFF;stroke-miterlimit:10;}
</style>
<g>
	<path class="st1" d="M209.4,4c56.7,56.7,56.7,148.7,0,205.4s-148.6,56.7-205.2,0L209.4,4z"/>
	<g>
		<path class="st1" d="M120.9,108.8l70.9,71c20.3-18.5,30.8-41.9,28.4-71.8L120.9,108.8z"/>
		<path class="st1" d="M120.4,94.2h100.3c1.3-27.5-7.9-51.4-30.6-70.9L120.4,94.2z"/>
		<path class="st1" d="M96.3,119.8l-70.9,71c18.5,20.4,41.9,30.8,71.7,28.5L96.3,119.8z"/>
		<path class="st1" d="M110.9,119.4v100.4c27.4,1.3,51.4-7.9,70.8-30.6L110.9,119.4z"/>
	</g>
</g>
</svg>
