<?xml version="1.0" encoding="utf-8"?>
<!-- Generator: Adobe Illustrator 22.1.0, SVG Export Plug-In . SVG Version: 6.00 Build 0)  -->
<svg version="1.1" id="Layer_1" xmlns="http://www.w3.org/2000/svg" xmlns:xlink="http://www.w3.org/1999/xlink" x="0px" y="0px"
	 viewBox="0 0 256 256" style="enable-background:new 0 0 256 256;" xml:space="preserve">
<style type="text/css">
	.st0{fill:#464646;stroke:#464646;stroke-width:8;stroke-linecap:round;stroke-linejoin:round;stroke-miterlimit:10;}
	.st1{fill:#464646;stroke:#FFFFFF;stroke-width:8;stroke-linecap:round;stroke-linejoin:round;stroke-miterlimit:10;}
	.st2{opacity:0.15;fill:#464646;stroke:#FFFFFF;stroke-miterlimit:10;}
	.st3{fill:#464646;stroke:#FFFFFF;stroke-miterlimit:10;}
	.st4{fill:none;stroke:#464646;stroke-width:8;stroke-linecap:round;stroke-linejoin:round;stroke-miterlimit:10;}
	.st5{opacity:0.1;}
	.st6{opacity:0.3;fill:#464646;stroke:#FFFFFF;stroke-miterlimit:10;}
	.st7{fill:#FFFFFF;stroke:#464646;stroke-width:8;stroke-linecap:round;stroke-linejoin:round;stroke-miterlimit:10;}
	.st8{opacity:0.1;fill:#464646;stroke:#FFFFFF;stroke-miterlimit:10;}
	.st9{fill:none;stroke:#6D6E71;stroke-width:5;stroke-linecap:round;stroke-linejoin:round;stroke-miterlimit:10;}
	.st10{fill:none;stroke:#FFFFFF;stroke-width:8;stroke-linecap:round;stroke-linejoin:round;stroke-miterlimit:10;}
	.st11{opacity:0.15;}
	.st12{fill:#FFFFFF;}
	.st13{fill:#464646;stroke:#464646;stroke-width:10;stroke-linecap:round;stroke-linejoin:round;stroke-miterlimit:10;}
	.st14{fill:#464646;stroke:#464646;stroke-miterlimit:10;}
	.st15{fill:#464646;stroke:#FFFFFF;stroke-width:8;stroke-miterlimit:10;}
	.st16{opacity:0.2;fill:#464646;stroke:#FFFFFF;stroke-miterlimit:10;}
</style>
<g>
	<g>
		<path class="st1" d="M207.6,95.8l-4.1,4.1l-52.2,52.3v73.9c-18.9,0-37.8-7.2-52.2-21.6l-17.4,17.4c14.4,14.4,32.1,23.4,50.6,27
			c-6.4,1.2-13,1.8-19.7,1.8C53.9,250.7,6.3,203,6.3,144.1c0-47.3,30.8-87.4,73.4-101.3c4.5-1.5,9.2-2.7,13.9-3.5
			c23.4,14.9,47.2,19.2,71.2,11.9C183.1,61.4,198.1,77,207.6,95.8z"/>
		<path class="st4" d="M73.3,22.1c-2.3-4.3-5.3-8.7-9-13.6"/>
		<path class="st4" d="M74.8,25c2.6,5.5,4.1,11,4.9,17.7c0.5,5,0.6,10.6,0.3,17.3"/>
		<path class="st1" d="M227.4,5.3c-21,24.5-41.9,39.5-62.6,45.8c-24,7.4-47.8,3-71.2-11.9c-6.3-4-12.5-8.7-18.8-14.2
			c-0.5-1-0.9-2-1.5-2.9c15.4-8.9,31.2-18.4,59-16.3C160.7,7.9,180.9,11.4,227.4,5.3z"/>
		<path class="st1" d="M31.3,159.1c2.1,17.7,12.9,39.1,30.6,50.8"/>
	</g>
	<path class="st8" d="M137.3,249c-7,3.8-14.9,5.4-24.7,3.5c-1.5-0.3-2.9-0.6-4.3-0.9c1.7,0.1,3.5,0.1,5.3,0.1
		C121.7,251.7,129.7,250.7,137.3,249z"/>
	<path class="st8" d="M219.6,144.3c-0.1-20.4-6-39.5-16-55.6C220.2,106.7,224.1,125.4,219.6,144.3z"/>
	<path class="st1" d="M220.9,221.9c-24,24.1-57.4,33.1-88.5,27c-18.6-3.6-36.3-12.6-50.6-27l17.4-17.4
		c14.4,14.4,33.3,21.6,52.2,21.6c15.3,0,30.7-4.8,43.6-14.3c0,0,0,0,0,0c3-2.2,5.8-4.6,8.5-7.4c14.4-14.4,21.6-33.3,21.6-52.3
		c0-12.8-3.3-25.6-9.9-37.1c-3.1-5.4-7-10.5-11.7-15.2l4.1-4.1l13.3-13.3C259.3,121,259.3,183.4,220.9,221.9z"/>
	<g>
		<path class="st1" d="M151.3,152.2v73.9c-18.9,0-37.8-7.2-52.2-21.6L151.3,152.2z"/>
		<path class="st1" d="M203.5,204.4c-2.7,2.7-5.6,5.2-8.5,7.4c0,0,0,0,0,0c-12.9,9.5-28.3,14.3-43.6,14.3v-73.9l50.4,50.4
			L203.5,204.4z"/>
		<path class="st1" d="M225.1,152.2c0,18.9-7.2,37.8-21.6,52.3l-1.8-1.8l-50.4-50.4H225.1z"/>
		<path class="st1" d="M225.1,152.2h-73.8l52.2-52.3c4.6,4.6,8.5,9.8,11.7,15.2C221.8,126.5,225.1,139.4,225.1,152.2z"/>
	</g>
</g>
</svg>
