<?xml version="1.0" encoding="utf-8"?>
<!-- Generator: Adobe Illustrator 22.1.0, SVG Export Plug-In . SVG Version: 6.00 Build 0)  -->
<svg version="1.1" id="Layer_1" xmlns="http://www.w3.org/2000/svg" xmlns:xlink="http://www.w3.org/1999/xlink" x="0px" y="0px"
	 viewBox="0 0 256 256" style="enable-background:new 0 0 256 256;" xml:space="preserve">
<style type="text/css">
	.st0{fill:#464646;stroke:#464646;stroke-width:8;stroke-linecap:round;stroke-linejoin:round;stroke-miterlimit:10;}
	.st1{fill:#464646;stroke:#FFFFFF;stroke-width:8;stroke-linecap:round;stroke-linejoin:round;stroke-miterlimit:10;}
	.st2{opacity:0.15;fill:#464646;stroke:#FFFFFF;stroke-miterlimit:10;}
	.st3{fill:#464646;stroke:#FFFFFF;stroke-miterlimit:10;}
	.st4{fill:none;stroke:#464646;stroke-width:8;stroke-linecap:round;stroke-linejoin:round;stroke-miterlimit:10;}
	.st5{opacity:0.1;}
	.st6{opacity:0.3;fill:#464646;stroke:#FFFFFF;stroke-miterlimit:10;}
	.st7{fill:#FFFFFF;stroke:#464646;stroke-width:8;stroke-linecap:round;stroke-linejoin:round;stroke-miterlimit:10;}
	.st8{opacity:0.1;fill:#464646;stroke:#FFFFFF;stroke-miterlimit:10;}
	.st9{fill:none;stroke:#6D6E71;stroke-width:5;stroke-linecap:round;stroke-linejoin:round;stroke-miterlimit:10;}
	.st10{fill:none;stroke:#FFFFFF;stroke-width:8;stroke-linecap:round;stroke-linejoin:round;stroke-miterlimit:10;}
	.st11{opacity:0.15;}
	.st12{fill:#FFFFFF;}
	.st13{fill:#464646;stroke:#464646;stroke-width:10;stroke-linecap:round;stroke-linejoin:round;stroke-miterlimit:10;}
	.st14{fill:#464646;stroke:#464646;stroke-miterlimit:10;}
	.st15{fill:#464646;stroke:#FFFFFF;stroke-width:8;stroke-miterlimit:10;}
	.st16{opacity:0.2;fill:#464646;stroke:#FFFFFF;stroke-miterlimit:10;}
</style>
<g>
	<path class="st1" d="M209.4,4c12.3,12.3,21.9,26.3,28.9,41.2c9.9,21.3,14.4,44.5,13.5,67.5c-0.9,21.5-6.5,42.8-16.9,62.2
		c-6.6,12.4-15.1,24-25.5,34.5c-10.4,10.4-22.1,19-34.5,25.6c-19.4,10.4-40.7,16-62.2,16.9c-23,0.9-46.1-3.5-67.4-13.5
		c-14.9-7-28.9-16.6-41.2-28.9l23.1-23.2c9.5,9.5,20.4,17,31.9,22.4c16.5,7.7,34.4,11.2,52.2,10.4c16.6-0.7,33.1-5,48.2-13.1
		c9.6-5.1,18.6-11.7,26.7-19.8c8.1-8.1,14.7-17.1,19.8-26.7c8-15.1,12.4-31.6,13.1-48.2c0.7-17.8-2.7-35.8-10.4-52.3
		c-5.4-11.6-12.9-22.4-22.4-32L209.4,4z"/>
	<path class="st1" d="M186.2,27.2c9.5,9.5,17,20.4,22.4,32c7.7,16.5,11.2,34.4,10.4,52.3c-0.7,16.6-5,33.1-13.1,48.2
		c-5.1,9.6-11.7,18.6-19.8,26.7c-8.1,8.1-17.1,14.7-26.7,19.8c-15,8-31.5,12.4-48.2,13.1c-17.8,0.7-35.7-2.7-52.2-10.4
		c-11.6-5.4-22.4-12.9-31.9-22.4L186.2,27.2z"/>
	<g>
		<line class="st1" x1="78.7" y1="169.2" x2="78.7" y2="182.7"/>
		<line class="st1" x1="107.6" y1="168.8" x2="111.5" y2="181.7"/>
		<line class="st1" x1="135.4" y1="156.4" x2="143.5" y2="167.1"/>
		<line class="st1" x1="169.2" y1="78.7" x2="182.6" y2="78.7"/>
		<line class="st1" x1="168.8" y1="107.6" x2="181.6" y2="111.5"/>
		<line class="st1" x1="156.3" y1="135.4" x2="167" y2="143.5"/>
	</g>
	<g>
		<line class="st1" x1="96" y1="152" x2="96.5" y2="144.3"/>
		<line class="st1" x1="119.8" y1="139.3" x2="116.4" y2="131.5"/>
		<line class="st1" x1="152" y1="95.9" x2="144.3" y2="96.5"/>
		<line class="st1" x1="139.3" y1="119.8" x2="131.5" y2="116.4"/>
	</g>
</g>
</svg>
