<?xml version="1.0" encoding="utf-8"?>
<!-- Generator: Adobe Illustrator 22.1.0, SVG Export Plug-In . SVG Version: 6.00 Build 0)  -->
<svg version="1.1" id="Layer_1" xmlns="http://www.w3.org/2000/svg" xmlns:xlink="http://www.w3.org/1999/xlink" x="0px" y="0px"
	 viewBox="0 0 256 256" style="enable-background:new 0 0 256 256;" xml:space="preserve">
<style type="text/css">
	.st0{fill:#464646;stroke:#464646;stroke-width:8;stroke-linecap:round;stroke-linejoin:round;stroke-miterlimit:10;}
	.st1{fill:#464646;stroke:#FFFFFF;stroke-width:8;stroke-linecap:round;stroke-linejoin:round;stroke-miterlimit:10;}
	.st2{opacity:0.15;fill:#464646;stroke:#FFFFFF;stroke-miterlimit:10;}
	.st3{fill:#464646;stroke:#FFFFFF;stroke-miterlimit:10;}
	.st4{fill:none;stroke:#464646;stroke-width:8;stroke-linecap:round;stroke-linejoin:round;stroke-miterlimit:10;}
	.st5{opacity:0.1;}
	.st6{opacity:0.3;fill:#464646;stroke:#FFFFFF;stroke-miterlimit:10;}
	.st7{fill:#FFFFFF;stroke:#464646;stroke-width:8;stroke-linecap:round;stroke-linejoin:round;stroke-miterlimit:10;}
	.st8{opacity:0.1;fill:#464646;stroke:#FFFFFF;stroke-miterlimit:10;}
	.st9{fill:none;stroke:#6D6E71;stroke-width:5;stroke-linecap:round;stroke-linejoin:round;stroke-miterlimit:10;}
	.st10{fill:none;stroke:#FFFFFF;stroke-width:8;stroke-linecap:round;stroke-linejoin:round;stroke-miterlimit:10;}
	.st11{opacity:0.15;}
	.st12{fill:#FFFFFF;}
	.st13{fill:#464646;stroke:#464646;stroke-width:10;stroke-linecap:round;stroke-linejoin:round;stroke-miterlimit:10;}
	.st14{fill:#464646;stroke:#464646;stroke-miterlimit:10;}
	.st15{fill:#464646;stroke:#FFFFFF;stroke-width:8;stroke-miterlimit:10;}
	.st16{opacity:0.2;fill:#464646;stroke:#FFFFFF;stroke-miterlimit:10;}
</style>
<g>
	<path class="st0" d="M4,214.5c22.3,4.8,16.9-59.2,25.5-78.3C55,55.1,99.3,42.1,149.9,47.1c0,0,25.2,3.8,43.3,25.5
		s26.1,91-36.3,141.9S4,251.5,4,214.5z"/>
	<path class="st1" d="M58.5,112.4c8.4-17.7,21-31.8,37.8-42.5"/>
	<path class="st0" d="M170,54.2c13.5-20.5,29.7-35.8,48.5-45.9"/>
	<path class="st0" d="M197.5,22.9c2.3-3.8,21.8,0.1,29.8,14.5s18.5,26,23.3,42.2c9.2,37.4-29.8,68.2-29.8,68.2s14.6-38.8,5.9-67.9
		c-8.7-29.1-17.1-27.4-22.2-35.6S195.3,26.7,197.5,22.9z"/>
</g>
</svg>
