<?xml version="1.0" encoding="utf-8"?>
<!-- Generator: Adobe Illustrator 22.1.0, SVG Export Plug-In . SVG Version: 6.00 Build 0)  -->
<svg version="1.1" id="Layer_1" xmlns="http://www.w3.org/2000/svg" xmlns:xlink="http://www.w3.org/1999/xlink" x="0px" y="0px"
	 viewBox="0 0 256 256" style="enable-background:new 0 0 256 256;" xml:space="preserve">
<style type="text/css">
	.st0{fill:#464646;stroke:#464646;stroke-width:8;stroke-linecap:round;stroke-linejoin:round;stroke-miterlimit:10;}
	.st1{fill:#464646;stroke:#FFFFFF;stroke-width:8;stroke-linecap:round;stroke-linejoin:round;stroke-miterlimit:10;}
	.st2{opacity:0.15;fill:#464646;stroke:#FFFFFF;stroke-miterlimit:10;}
	.st3{fill:#464646;stroke:#FFFFFF;stroke-miterlimit:10;}
	.st4{fill:none;stroke:#464646;stroke-width:8;stroke-linecap:round;stroke-linejoin:round;stroke-miterlimit:10;}
	.st5{opacity:0.1;}
	.st6{opacity:0.3;fill:#464646;stroke:#FFFFFF;stroke-miterlimit:10;}
	.st7{fill:#FFFFFF;stroke:#464646;stroke-width:8;stroke-linecap:round;stroke-linejoin:round;stroke-miterlimit:10;}
	.st8{opacity:0.1;fill:#464646;stroke:#FFFFFF;stroke-miterlimit:10;}
	.st9{fill:none;stroke:#6D6E71;stroke-width:5;stroke-linecap:round;stroke-linejoin:round;stroke-miterlimit:10;}
	.st10{fill:none;stroke:#FFFFFF;stroke-width:8;stroke-linecap:round;stroke-linejoin:round;stroke-miterlimit:10;}
	.st11{opacity:0.15;}
	.st12{fill:#FFFFFF;}
	.st13{fill:#464646;stroke:#464646;stroke-width:10;stroke-linecap:round;stroke-linejoin:round;stroke-miterlimit:10;}
	.st14{fill:#464646;stroke:#464646;stroke-miterlimit:10;}
	.st15{fill:#464646;stroke:#FFFFFF;stroke-width:8;stroke-miterlimit:10;}
	.st16{opacity:0.2;fill:#464646;stroke:#FFFFFF;stroke-miterlimit:10;}
</style>
<g>
	<path class="st1" d="M102.8,237.4c-0.7,0.5-1.3,0.9-2,1.3c-9.1,5.9-18.5,10.2-27.4,12.2c-10.1,2.2-19.5,1.3-27.1-3.8
		c-1.6-1.1-3.1-2.3-4.6-3.7l-29.9-29.9c-1-1-2-2.1-2.8-3.3C3.3,202.6,2,193,4,182.8c1.7-8.8,5.8-18.2,11.5-27.2
		c1-1.7,2.1-3.3,3.3-4.9c5.7-8,12.5-15.7,20-22.4c2.4-2.1,4.8-4.1,7.3-6.1c8.8-6.8,18.1-12.1,27.2-15.2c9.7-3.3,19.2-4,27.4-1.1
		c4.1,1.4,7.9,3.8,11.3,7.2l29.9,29.9c0.4,0.4,0.9,0.9,1.3,1.3c3,3.4,5.1,7.2,6.3,11.3c2.5,8.2,1.5,17.6-1.9,27.2
		c-3.3,9.2-8.8,18.6-15.8,27.4c-1.3,1.6-2.6,3.2-3.9,4.7l0,0C120.5,223.4,111.8,231.2,102.8,237.4z"/>
	<polyline class="st1" points="4,182.8 18.8,182.8 46.2,182.8 73.3,182.8 100.7,182.8 127.9,182.8 147.6,182.8 	"/>
	<polyline class="st1" points="8.9,210.2 18.8,210.2 46.2,210.2 73.3,210.2 100.7,210.2 127.9,210.2 131.8,210.2 	"/>
	<polyline class="st1" points="35.6,237.4 46.2,237.4 73.3,237.4 100.7,237.4 102.8,237.4 	"/>
	<polyline class="st1" points="15.6,155.6 18.8,155.6 46.2,155.6 73.3,155.6 100.7,155.6 127.9,155.6 149.5,155.6 	"/>
	<polyline class="st1" points="38.9,128.2 46.2,128.2 73.3,128.2 100.7,128.2 127.2,128.2 	"/>
	<polyline class="st1" points="73.3,250.9 73.3,237.4 73.3,210.2 73.3,182.8 73.3,155.6 73.3,128.2 73.3,107 	"/>
	<polyline class="st1" points="100.7,238.7 100.7,237.4 100.7,210.2 100.7,182.8 100.7,155.6 100.7,128.2 100.7,105.9 	"/>
	<polyline class="st1" points="127.9,214.9 127.9,214.9 127.9,210.2 127.9,182.8 127.9,155.6 127.9,128.9 	"/>
	<polyline class="st1" points="46.2,247.1 46.2,237.4 46.2,210.2 46.2,182.8 46.2,155.6 46.2,128.2 46.2,122.2 	"/>
	<polyline class="st1" points="18.8,220.6 18.8,210.2 18.8,182.8 18.8,155.6 18.8,150.6 	"/>
	<polygon class="st1" points="220,4 198.6,58.3 168.1,70.3 170.3,59.2 	"/>
	<polygon class="st1" points="252.9,36.9 197.7,86.7 186.6,88.8 163.7,93.3 168.1,70.3 198.6,58.3 	"/>
	<polygon class="st1" points="179.3,12.8 170.3,59.2 168.1,70.3 163.7,93.3 138.3,98.2 138.5,94.5 139,86.4 142.2,80.5 	"/>
	<polygon class="st1" points="244.1,77.6 176.4,114.8 170.5,118 162.5,118.5 158.7,118.7 137.1,119.9 138.3,98.2 163.7,93.3 
		186.6,88.8 197.7,86.7 	"/>
	<polygon class="st1" points="136.1,137.2 130.1,131.2 129.5,127.5 128.3,120.4 126.5,109.2 126.3,108.1 125.1,100.8 124.1,94.8 
		125.9,86.9 142.9,16.3 139.3,81.7 139,86.4 138.5,94.5 138.3,98.2 137.1,119.9 136.6,128.7 136.1,136.9 	"/>
	<polygon class="st1" points="240.6,114 170,131.1 162.2,132.9 156.2,131.9 148.9,130.7 147.7,130.5 136.6,128.7 137.1,119.9 
		158.7,118.7 162.5,118.5 170.5,118 175.2,117.7 	"/>
	<path class="st1" d="M213.2,141.5l-48,1.8l0,0l-22,1c-0.4-0.5-0.8-0.9-1.3-1.3l-5.8-5.8l0-0.3l0.5-8.2l11.1,1.9l1.1,0.2l7.3,1.2
		l6,1l6.6,1.1L213.2,141.5z"/>
	<polygon class="st1" points="130.1,131.2 112.9,113.9 113.7,91.8 113.7,91.8 115.5,43.7 122.9,88.1 124.1,94.8 125.1,100.8 
		126.3,108.1 126.5,109.2 128.3,120.4 129.5,127.5 	"/>
</g>
</svg>
