<?xml version="1.0" encoding="utf-8"?>
<!-- Generator: Adobe Illustrator 22.1.0, SVG Export Plug-In . SVG Version: 6.00 Build 0)  -->
<svg version="1.1" id="Layer_1" xmlns="http://www.w3.org/2000/svg" xmlns:xlink="http://www.w3.org/1999/xlink" x="0px" y="0px"
	 viewBox="0 0 256 256" style="enable-background:new 0 0 256 256;" xml:space="preserve">
<style type="text/css">
	.st0{fill:#F5B31F;}
	.st1{fill:none;stroke:#464646;stroke-width:8;stroke-linecap:round;stroke-linejoin:round;stroke-miterlimit:10;}
	.st2{opacity:0.15;fill:#464646;}
	.st3{fill:#AC6535;}
	.st4{fill:#EB573B;}
	.st5{fill:#90C056;}
	.st6{opacity:0.35;fill:#FFFFFF;}
	.st7{opacity:0.2;fill:#FFFFFF;}
	.st8{fill:#F6D67A;}
	.st9{opacity:0.15;fill:#FFFFFF;}
	.st10{opacity:0.3;fill:#FFFFFF;}
	.st11{fill:#AC6535;stroke:#464646;stroke-width:8;stroke-linecap:round;stroke-linejoin:round;stroke-miterlimit:10;}
	.st12{fill:#EB573B;stroke:#464646;stroke-width:8;stroke-miterlimit:10;}
	.st13{opacity:0.15;}
	.st14{fill:#464646;}
	.st15{fill:#FFA755;}
	.st16{fill:#8FAE3C;}
	.st17{fill:#BE6BB2;}
	.st18{fill:#B7C536;}
	.st19{opacity:0.1;}
	.st20{fill:#9D5A96;}
	.st21{fill:#EA615D;}
	.st22{opacity:0.4;fill:#FFFFFF;}
	.st23{opacity:7.000000e-02;}
	.st24{fill:#F79932;}
	.st25{fill:#FFEC97;}
	.st26{fill:#FFD11D;}
	.st27{opacity:0.2;}
	.st28{fill:#FFFFFF;}
	.st29{fill:#F7F2D5;}
	.st30{fill:#F6AF72;}
	.st31{fill:#BA6C45;}
	.st32{opacity:0.5;fill:#FFFFFF;}
	.st33{fill:#E4C074;}
	.st34{fill:none;stroke:#656566;stroke-width:8;stroke-linecap:round;stroke-linejoin:round;stroke-miterlimit:10;}
	.st35{fill:#FFA755;stroke:#464646;stroke-width:8;stroke-linecap:round;stroke-linejoin:round;stroke-miterlimit:10;}
	.st36{fill:#FFD11D;stroke:#464646;stroke-width:8;stroke-linecap:round;stroke-linejoin:round;stroke-miterlimit:10;}
	.st37{fill:#FACD1F;}
	.st38{fill:#FFDF66;}
	.st39{fill:#FFEC97;stroke:#464646;stroke-width:8;stroke-linecap:round;stroke-linejoin:round;stroke-miterlimit:10;}
	.st40{fill:#FFDF66;stroke:#464646;stroke-width:8;stroke-linecap:round;stroke-linejoin:round;stroke-miterlimit:10;}
	.st41{opacity:0.2;fill:#464646;}
	.st42{fill:#FFFFFF;stroke:#464646;stroke-width:8;stroke-linecap:round;stroke-linejoin:round;stroke-miterlimit:10;}
	.st43{fill:#6D6E71;stroke:#464646;stroke-width:8;stroke-linecap:round;stroke-linejoin:round;stroke-miterlimit:10;}
	.st44{opacity:0.1;fill:#464646;}
	.st45{fill:#E77CAE;}
	.st46{fill:#FFE5C4;}
	.st47{fill:#F68455;stroke:#464646;stroke-width:8;stroke-linecap:round;stroke-linejoin:round;stroke-miterlimit:10;}
	.st48{opacity:0.7;}
	.st49{fill:#ADEDFF;}
	.st50{fill:#EC754B;}
	.st51{fill:#4AA5BA;}
	.st52{opacity:0.5;}
	.st53{opacity:0.8;}
	.st54{fill:#F68455;}
	.st55{fill:#92A5AC;}
	.st56{fill:#6D6E71;}
	.st57{fill:#D06E3C;}
	.st58{fill:#DA4F4B;}
	.st59{fill:#BDF3FF;}
	.st60{fill:#F18BB4;}
	.st61{fill:#F9D97A;}
	.st62{fill:none;}
	.st63{fill:#AF6535;}
	.st64{fill:#B93226;}
	.st65{fill:#FF6050;}
	.st66{fill:#D06E3C;stroke:#464646;stroke-miterlimit:10;}
	.st67{fill:#EA7CB1;}
	.st68{fill:none;stroke:#6D6E71;stroke-width:10;stroke-linecap:round;stroke-linejoin:round;stroke-miterlimit:10;}
	.st69{fill:#00B0E0;}
	.st70{fill:#EA7DAE;}
	.st71{opacity:0.1;fill:#FFFFFF;}
	.st72{fill:#BC7532;}
	.st73{fill:#876C6C;}
	.st74{fill:#F9F6CD;}
	.st75{fill:#FFE37B;}
	.st76{fill:#1DDCFF;}
	.st77{fill:#60ACF7;}
	.st78{fill:#C3755A;}
	.st79{fill:#96557A;}
	.st80{fill:#66625D;}
	.st81{fill:#D68032;}
	.st82{opacity:0.8;fill:#FFFFFF;}
	.st83{fill:#F2A355;}
	.st84{fill:#7E9E6A;}
	.st85{opacity:0.3;}
	.st86{fill:#965A85;}
	.st87{opacity:0.7;fill:#FFFFFF;}
	.st88{fill:#90CAD3;}
	.st89{fill:#94B57F;}
	.st90{fill:#B2E2E7;}
	.st91{fill:#FFDF8F;}
	.st92{fill:#FFFAEB;}
	.st93{fill:#F88916;}
	.st94{fill:#FFC86E;}
	.st95{fill:#AFA51D;}
	.st96{fill:#968A1C;}
	.st97{fill:#C3556D;}
</style>
<g>
	<path class="st24" d="M220.5,145.3c0,59.5-48.2,107.7-107.6,107.7C53.5,253,5.3,204.8,5.3,145.3c0-47.8,31.1-88.4,74.2-102.4
		c4.6-1.5,9.2-2.7,14.1-3.6c23.7,15,47.7,19.4,71.9,12C198.3,69.8,220.5,104.9,220.5,145.3z"/>
	<path class="st19" d="M182.1,41.3c-21.3,24.7,5.3,16.3-15.7,22.7c-24.3,7.4-48.3,3-71.9-12c-6.3-4-6.7-15.6-6.7-15.6l-4.6-5.2
		l50.5-13C133.7,18.3,135.2,47.6,182.1,41.3z"/>
	<path class="st16" d="M229.8,5c-21.3,24.7-42.4,39.9-63.3,46.3c-24.3,7.4-48.3,3-71.9-12c-6.3-4-12.7-8.8-19-14.4c-0.5-1-1-2-1.5-3
		c15.5-9,31.5-18.5,59.6-16.5C162.4,7.6,182.8,11.2,229.8,5z"/>
	<path class="st10" d="M133.7,5.5C105.6,3.5,89.6,13,74.1,22c0.5,1,1,2,1.5,3c6.3,5.5,12.6,10.3,19,14.4
		C91.2,24.9,107.2,14.2,133.7,5.5z"/>
	<g>
		<path class="st1" d="M208.4,95.5l-4.2,4.2l-52.7,52.8l0,74.7c-19.1,0-38.2-7.3-52.7-21.9l-17.6,17.6
			c14.5,14.6,32.4,23.7,51.2,27.3c-6.4,1.2-13.1,1.8-19.9,1.8c-59.4,0-107.6-48.2-107.6-107.7C4.9,96.5,36,56,79.1,41.9
			c4.6-1.5,9.2-2.7,14.1-3.6c23.7,15,47.7,19.4,71.9,12C183.6,60.8,198.7,76.5,208.4,95.5z"/>
		<path class="st1" d="M72.7,21c-2.3-4.3-5.3-8.7-9.1-13.8"/>
		<path class="st1" d="M74.2,24c2.6,5.5,4.2,11.1,4.9,17.9c0.5,5,0.6,10.7,0.3,17.5"/>
		<path class="st1" d="M228.4,4.1C207.1,28.8,186,44,165.1,50.4c-24.3,7.4-48.3,3-71.9-12c-6.3-4-12.7-8.8-19-14.4c-0.5-1-1-2-1.5-3
			c15.5-9,31.5-18.5,59.6-16.5C161,6.7,181.4,10.3,228.4,4.1z"/>
		<path class="st1" d="M30.2,159.4c2.1,17.9,13.1,39.6,31,51.3"/>
	</g>
	<path class="st19" d="M220.5,145.3c0,51.2-35.5,94-83.1,105c-7.7,1.8-15.8,2.7-24.1,2.7c-1.8,0-3.6,0-5.3-0.1
		c-38.8-1.9-72.2-24.5-89.4-57.1c15.7,12.7,32.1,20.9,48.2,25.2l11.9-12l105.5-105.6l4-4c-4-15.4-11.3-31.5-22.5-48
		c15.7,8.9,29,21.6,38.6,37c10.1,16.3,16.1,35.6,16.2,56.2C220.5,144.8,220.5,145,220.5,145.3z"/>
	<path class="st19" d="M137.3,250.3c-7.1,3.9-15.1,5.5-25,3.6c-1.5-0.3-2.9-0.6-4.4-1c1.8,0.1,3.5,0.1,5.3,0.1
		C121.5,253,129.6,252.1,137.3,250.3z"/>
	<path class="st19" d="M220.5,144.5c-0.1-20.6-6.1-39.9-16.2-56.2C221.1,106.5,225.1,125.5,220.5,144.5z"/>
	<path class="st26" d="M221.8,222.9c-24.3,24.3-58,33.4-89.4,27.3c-18.7-3.7-36.7-12.8-51.2-27.3l17.6-17.6
		c14.6,14.6,33.6,21.9,52.7,21.9c15.5,0,31-4.8,44.1-14.4c0,0,0,0,0,0c3-2.2,5.9-4.7,8.6-7.4c14.6-14.6,21.8-33.7,21.8-52.8
		c0-13-3.3-25.9-10-37.5c-3.2-5.5-7.1-10.6-11.8-15.3l4.2-4.2l13.4-13.4C260.6,121,260.6,184,221.8,222.9z"/>
	<g>
		<path class="st15" d="M151.5,152.5l0,74.7c-19.1,0-38.2-7.3-52.7-21.9L151.5,152.5z"/>
		<path class="st15" d="M204.2,205.3c-2.7,2.7-5.6,5.2-8.6,7.4c0,0,0,0,0,0c-13.1,9.6-28.6,14.4-44.1,14.4l0-74.7l50.9,51
			L204.2,205.3z"/>
		<path class="st15" d="M226.1,152.5c0,19.1-7.3,38.2-21.8,52.8l-1.8-1.8l-50.9-51L226.1,152.5z"/>
		<path class="st15" d="M226.1,152.5l-74.6,0l52.7-52.8c4.7,4.7,8.6,9.9,11.8,15.3C222.7,126.6,226.1,139.5,226.1,152.5z"/>
	</g>
	<path class="st1" d="M221.8,222.9c-24.3,24.3-58,33.4-89.4,27.3c-18.7-3.7-36.7-12.8-51.2-27.3l17.6-17.6
		c14.6,14.6,33.6,21.9,52.7,21.9c15.5,0,31-4.8,44.1-14.4c0,0,0,0,0,0c3-2.2,5.9-4.7,8.6-7.4c14.6-14.6,21.8-33.7,21.8-52.8
		c0-13-3.3-25.9-10-37.5c-3.2-5.5-7.1-10.6-11.8-15.3l4.2-4.2l13.4-13.4C260.6,121,260.6,184,221.8,222.9z"/>
	<g>
		<path class="st1" d="M151.5,152.5l0,74.7c-19.1,0-38.2-7.3-52.7-21.9L151.5,152.5z"/>
		<path class="st1" d="M204.2,205.3c-2.7,2.7-5.6,5.2-8.6,7.4c0,0,0,0,0,0c-13.1,9.6-28.6,14.4-44.1,14.4l0-74.7l50.9,51
			L204.2,205.3z"/>
		<path class="st1" d="M226.1,152.5c0,19.1-7.3,38.2-21.8,52.8l-1.8-1.8l-50.9-51L226.1,152.5z"/>
		<path class="st1" d="M226.1,152.5l-74.6,0l52.7-52.8c4.7,4.7,8.6,9.9,11.8,15.3C222.7,126.6,226.1,139.5,226.1,152.5z"/>
	</g>
</g>
</svg>
