<?xml version="1.0" encoding="utf-8"?>
<!-- Generator: Adobe Illustrator 22.1.0, SVG Export Plug-In . SVG Version: 6.00 Build 0)  -->
<svg version="1.1" id="Layer_1" xmlns="http://www.w3.org/2000/svg" xmlns:xlink="http://www.w3.org/1999/xlink" x="0px" y="0px"
	 viewBox="0 0 256 256" style="enable-background:new 0 0 256 256;" xml:space="preserve">
<style type="text/css">
	.st0{fill:#F5B31F;}
	.st1{fill:none;stroke:#464646;stroke-width:8;stroke-linecap:round;stroke-linejoin:round;stroke-miterlimit:10;}
	.st2{opacity:0.15;fill:#464646;}
	.st3{fill:#AC6535;}
	.st4{fill:#EB573B;}
	.st5{fill:#90C056;}
	.st6{opacity:0.35;fill:#FFFFFF;}
	.st7{opacity:0.2;fill:#FFFFFF;}
	.st8{fill:#F6D67A;}
	.st9{opacity:0.15;fill:#FFFFFF;}
	.st10{opacity:0.3;fill:#FFFFFF;}
	.st11{fill:#AC6535;stroke:#464646;stroke-width:8;stroke-linecap:round;stroke-linejoin:round;stroke-miterlimit:10;}
	.st12{fill:#EB573B;stroke:#464646;stroke-width:8;stroke-miterlimit:10;}
	.st13{opacity:0.15;}
	.st14{fill:#464646;}
	.st15{fill:#FFA755;}
	.st16{fill:#8FAE3C;}
	.st17{fill:#BE6BB2;}
	.st18{fill:#B7C536;}
	.st19{opacity:0.1;}
	.st20{fill:#9D5A96;}
	.st21{fill:#EA615D;}
	.st22{opacity:0.4;fill:#FFFFFF;}
	.st23{opacity:7.000000e-02;}
	.st24{fill:#F79932;}
	.st25{fill:#FFEC97;}
	.st26{fill:#FFD11D;}
	.st27{opacity:0.2;}
	.st28{fill:#FFFFFF;}
	.st29{fill:#F7F2D5;}
	.st30{fill:#F6AF72;}
	.st31{fill:#BA6C45;}
	.st32{opacity:0.5;fill:#FFFFFF;}
	.st33{fill:#E4C074;}
	.st34{fill:none;stroke:#656566;stroke-width:8;stroke-linecap:round;stroke-linejoin:round;stroke-miterlimit:10;}
	.st35{fill:#FFA755;stroke:#464646;stroke-width:8;stroke-linecap:round;stroke-linejoin:round;stroke-miterlimit:10;}
	.st36{fill:#FFD11D;stroke:#464646;stroke-width:8;stroke-linecap:round;stroke-linejoin:round;stroke-miterlimit:10;}
	.st37{fill:#FACD1F;}
	.st38{fill:#FFDF66;}
	.st39{fill:#FFEC97;stroke:#464646;stroke-width:8;stroke-linecap:round;stroke-linejoin:round;stroke-miterlimit:10;}
	.st40{fill:#FFDF66;stroke:#464646;stroke-width:8;stroke-linecap:round;stroke-linejoin:round;stroke-miterlimit:10;}
	.st41{opacity:0.2;fill:#464646;}
	.st42{fill:#FFFFFF;stroke:#464646;stroke-width:8;stroke-linecap:round;stroke-linejoin:round;stroke-miterlimit:10;}
	.st43{fill:#6D6E71;stroke:#464646;stroke-width:8;stroke-linecap:round;stroke-linejoin:round;stroke-miterlimit:10;}
	.st44{opacity:0.1;fill:#464646;}
	.st45{fill:#E77CAE;}
	.st46{fill:#FFE5C4;}
	.st47{fill:#F68455;stroke:#464646;stroke-width:8;stroke-linecap:round;stroke-linejoin:round;stroke-miterlimit:10;}
	.st48{opacity:0.7;}
	.st49{fill:#ADEDFF;}
	.st50{fill:#EC754B;}
	.st51{fill:#4AA5BA;}
	.st52{opacity:0.5;}
	.st53{opacity:0.8;}
	.st54{fill:#F68455;}
	.st55{fill:#92A5AC;}
	.st56{fill:#6D6E71;}
	.st57{fill:#D06E3C;}
	.st58{fill:#DA4F4B;}
	.st59{fill:#BDF3FF;}
	.st60{fill:#F18BB4;}
	.st61{fill:#F9D97A;}
	.st62{fill:none;}
	.st63{fill:#AF6535;}
	.st64{fill:#B93226;}
	.st65{fill:#FF6050;}
	.st66{fill:#D06E3C;stroke:#464646;stroke-miterlimit:10;}
	.st67{fill:#EA7CB1;}
	.st68{fill:none;stroke:#6D6E71;stroke-width:10;stroke-linecap:round;stroke-linejoin:round;stroke-miterlimit:10;}
	.st69{fill:#00B0E0;}
	.st70{fill:#EA7DAE;}
	.st71{opacity:0.1;fill:#FFFFFF;}
	.st72{fill:#BC7532;}
	.st73{fill:#876C6C;}
	.st74{fill:#F9F6CD;}
	.st75{fill:#FFE37B;}
	.st76{fill:#1DDCFF;}
	.st77{fill:#60ACF7;}
	.st78{fill:#C3755A;}
	.st79{fill:#96557A;}
	.st80{fill:#66625D;}
	.st81{fill:#D68032;}
	.st82{opacity:0.8;fill:#FFFFFF;}
	.st83{fill:#F2A355;}
	.st84{fill:#7E9E6A;}
	.st85{opacity:0.3;}
	.st86{fill:#965A85;}
	.st87{opacity:0.7;fill:#FFFFFF;}
	.st88{fill:#90CAD3;}
	.st89{fill:#94B57F;}
	.st90{fill:#B2E2E7;}
	.st91{fill:#FFDF8F;}
	.st92{fill:#FFFAEB;}
	.st93{fill:#F88916;}
	.st94{fill:#FFC86E;}
	.st95{fill:#AFA51D;}
	.st96{fill:#968A1C;}
	.st97{fill:#C3556D;}
</style>
<g>
	<path class="st25" d="M195.1,18.6C205.7,29.1,214,41.2,220,54c8.5,18.3,12.4,38.2,11.6,58c-0.8,18.5-5.6,36.8-14.5,53.5
		c-5.7,10.7-13,20.7-22,29.6c-9,9-19,16.3-29.7,22c-16.7,8.9-35.1,13.7-53.5,14.5c-19.8,0.8-39.7-3-58-11.6
		c-12.9-6-24.9-14.3-35.5-24.9L195.1,18.6z"/>
	<path class="st0" d="M159.6,53.9c5.3,5.3,9.2,11.4,11.8,18.1c3.7,9.6,4.8,20.3,3.3,31.2c-1.4,10.2-5,20.4-10.7,30.1
		c-3.7,6.1-8.2,12-13.6,17.4c-5.4,5.4-11.3,9.9-17.4,13.6c-9.6,5.7-19.9,9.3-30.1,10.7c-10.9,1.5-21.6,0.4-31.2-3.3
		c-6.7-2.6-12.9-6.5-18.2-11.8L159.6,53.9z"/>
	<path class="st1" d="M195.1,18.6C205.7,29.1,214,41.2,220,54c8.5,18.3,12.4,38.2,11.6,58c-0.8,18.5-5.6,36.8-14.5,53.5
		c-5.7,10.7-13,20.7-22,29.6c-9,9-19,16.3-29.7,22c-16.7,8.9-35.1,13.7-53.5,14.5c-19.8,0.8-39.7-3-58-11.6
		c-12.9-6-24.9-14.3-35.5-24.9L195.1,18.6z"/>
	<path class="st26" d="M209.4,4.2c12.3,12.3,22,26.3,28.9,41.2c9.9,21.3,14.4,44.4,13.5,67.4c-0.9,21.5-6.5,42.8-16.9,62.2
		c-6.6,12.4-15.1,24-25.6,34.4s-22.1,18.9-34.5,25.5c-19.5,10.3-40.8,16-62.2,16.8c-23,0.9-46.2-3.5-67.5-13.5
		c-14.9-7-28.9-16.6-41.2-28.9l14.3-14.3C28.9,205.7,40.9,214,53.8,220c18.3,8.5,38.3,12.4,58,11.6c18.5-0.8,36.8-5.6,53.5-14.5
		c10.7-5.7,20.7-13,29.7-22c9-9,16.3-19,22-29.6c8.9-16.7,13.8-35,14.5-53.5c0.8-19.8-3-39.7-11.6-58c-6-12.8-14.3-24.9-24.9-35.5
		L209.4,4.2z"/>
	<path class="st1" d="M209.4,4.2c12.3,12.3,22,26.3,28.9,41.2c9.9,21.3,14.4,44.4,13.5,67.4c-0.9,21.5-6.5,42.8-16.9,62.2
		c-6.6,12.4-15.1,24-25.6,34.4s-22.1,18.9-34.5,25.5c-19.5,10.3-40.8,16-62.2,16.8c-23,0.9-46.2-3.5-67.5-13.5
		c-14.9-7-28.9-16.6-41.2-28.9l14.3-14.3C28.9,205.7,40.9,214,53.8,220c18.3,8.5,38.3,12.4,58,11.6c18.5-0.8,36.8-5.6,53.5-14.5
		c10.7-5.7,20.7-13,29.7-22c9-9,16.3-19,22-29.6c8.9-16.7,13.8-35,14.5-53.5c0.8-19.8-3-39.7-11.6-58c-6-12.8-14.3-24.9-24.9-35.5
		L209.4,4.2z"/>
	<path class="st1" d="M159.6,53.9c5.3,5.3,9.2,11.4,11.8,18.1c3.7,9.6,4.8,20.3,3.3,31.2c-1.4,10.2-5,20.4-10.7,30.1
		c-3.7,6.1-8.2,12-13.6,17.4c-5.4,5.4-11.3,9.9-17.4,13.6c-9.6,5.7-19.9,9.3-30.1,10.7c-10.9,1.5-21.6,0.4-31.2-3.3
		c-6.7-2.6-12.9-6.5-18.2-11.8L159.6,53.9z"/>
	<g>
		<g>
			<line class="st1" x1="88.8" y1="150.3" x2="88.8" y2="163.8"/>
			<line class="st1" x1="150.2" y1="89" x2="163.6" y2="89"/>
		</g>
		<g>
			<line class="st1" x1="104" y1="147.9" x2="107.9" y2="160.7"/>
			<line class="st1" x1="147.7" y1="104.2" x2="160.6" y2="108.2"/>
		</g>
		<g>
			<line class="st1" x1="119.3" y1="141.5" x2="125.7" y2="153.3"/>
			<line class="st1" x1="141.3" y1="119.5" x2="153.1" y2="125.9"/>
		</g>
		<line class="st1" x1="132.4" y1="132.5" x2="141.8" y2="142.1"/>
	</g>
	<g>
		<line class="st1" x1="100" y1="133.1" x2="100.3" y2="128.6"/>
		<line class="st1" x1="114" y1="125.7" x2="112" y2="121.1"/>
		<line class="st1" x1="133" y1="100.2" x2="128.5" y2="100.5"/>
		<line class="st1" x1="125.5" y1="114.2" x2="120.9" y2="112.2"/>
	</g>
</g>
</svg>
