<?xml version="1.0" encoding="utf-8"?>
<!-- Generator: Adobe Illustrator 22.1.0, SVG Export Plug-In . SVG Version: 6.00 Build 0)  -->
<svg version="1.1" id="Layer_1" xmlns="http://www.w3.org/2000/svg" xmlns:xlink="http://www.w3.org/1999/xlink" x="0px" y="0px"
	 viewBox="0 0 256 256" style="enable-background:new 0 0 256 256;" xml:space="preserve">
<style type="text/css">
	.st0{fill:#F5B31F;}
	.st1{fill:none;stroke:#464646;stroke-width:8;stroke-linecap:round;stroke-linejoin:round;stroke-miterlimit:10;}
	.st2{opacity:0.15;fill:#464646;}
	.st3{fill:#AC6535;}
	.st4{fill:#EB573B;}
	.st5{fill:#90C056;}
	.st6{opacity:0.35;fill:#FFFFFF;}
	.st7{opacity:0.2;fill:#FFFFFF;}
	.st8{fill:#F6D67A;}
	.st9{opacity:0.15;fill:#FFFFFF;}
	.st10{opacity:0.3;fill:#FFFFFF;}
	.st11{fill:#AC6535;stroke:#464646;stroke-width:8;stroke-linecap:round;stroke-linejoin:round;stroke-miterlimit:10;}
	.st12{fill:#EB573B;stroke:#464646;stroke-width:8;stroke-miterlimit:10;}
	.st13{opacity:0.15;}
	.st14{fill:#464646;}
	.st15{fill:#FFA755;}
	.st16{fill:#8FAE3C;}
	.st17{fill:#BE6BB2;}
	.st18{fill:#B7C536;}
	.st19{opacity:0.1;}
	.st20{fill:#9D5A96;}
	.st21{fill:#EA615D;}
	.st22{opacity:0.4;fill:#FFFFFF;}
	.st23{opacity:7.000000e-02;}
	.st24{fill:#F79932;}
	.st25{fill:#FFEC97;}
	.st26{fill:#FFD11D;}
	.st27{opacity:0.2;}
	.st28{fill:#FFFFFF;}
	.st29{fill:#F7F2D5;}
	.st30{fill:#F6AF72;}
	.st31{fill:#BA6C45;}
	.st32{opacity:0.5;fill:#FFFFFF;}
	.st33{fill:#E4C074;}
	.st34{fill:none;stroke:#656566;stroke-width:8;stroke-linecap:round;stroke-linejoin:round;stroke-miterlimit:10;}
	.st35{fill:#FFA755;stroke:#464646;stroke-width:8;stroke-linecap:round;stroke-linejoin:round;stroke-miterlimit:10;}
	.st36{fill:#FFD11D;stroke:#464646;stroke-width:8;stroke-linecap:round;stroke-linejoin:round;stroke-miterlimit:10;}
	.st37{fill:#FACD1F;}
	.st38{fill:#FFDF66;}
	.st39{fill:#FFEC97;stroke:#464646;stroke-width:8;stroke-linecap:round;stroke-linejoin:round;stroke-miterlimit:10;}
	.st40{fill:#FFDF66;stroke:#464646;stroke-width:8;stroke-linecap:round;stroke-linejoin:round;stroke-miterlimit:10;}
	.st41{opacity:0.2;fill:#464646;}
	.st42{fill:#FFFFFF;stroke:#464646;stroke-width:8;stroke-linecap:round;stroke-linejoin:round;stroke-miterlimit:10;}
	.st43{fill:#6D6E71;stroke:#464646;stroke-width:8;stroke-linecap:round;stroke-linejoin:round;stroke-miterlimit:10;}
	.st44{opacity:0.1;fill:#464646;}
	.st45{fill:#E77CAE;}
	.st46{fill:#FFE5C4;}
	.st47{fill:#F68455;stroke:#464646;stroke-width:8;stroke-linecap:round;stroke-linejoin:round;stroke-miterlimit:10;}
	.st48{opacity:0.7;}
	.st49{fill:#ADEDFF;}
	.st50{fill:#EC754B;}
	.st51{fill:#4AA5BA;}
	.st52{opacity:0.5;}
	.st53{opacity:0.8;}
	.st54{fill:#F68455;}
	.st55{fill:#92A5AC;}
	.st56{fill:#6D6E71;}
	.st57{fill:#D06E3C;}
	.st58{fill:#DA4F4B;}
	.st59{fill:#BDF3FF;}
	.st60{fill:#F18BB4;}
	.st61{fill:#F9D97A;}
	.st62{fill:none;}
	.st63{fill:#AF6535;}
	.st64{fill:#B93226;}
	.st65{fill:#FF6050;}
	.st66{fill:#D06E3C;stroke:#464646;stroke-miterlimit:10;}
	.st67{fill:#EA7CB1;}
	.st68{fill:none;stroke:#6D6E71;stroke-width:10;stroke-linecap:round;stroke-linejoin:round;stroke-miterlimit:10;}
	.st69{fill:#00B0E0;}
	.st70{fill:#EA7DAE;}
	.st71{opacity:0.1;fill:#FFFFFF;}
	.st72{fill:#BC7532;}
	.st73{fill:#876C6C;}
	.st74{fill:#F9F6CD;}
	.st75{fill:#FFE37B;}
	.st76{fill:#1DDCFF;}
	.st77{fill:#60ACF7;}
	.st78{fill:#C3755A;}
	.st79{fill:#96557A;}
	.st80{fill:#66625D;}
	.st81{fill:#D68032;}
	.st82{opacity:0.8;fill:#FFFFFF;}
	.st83{fill:#F2A355;}
	.st84{fill:#7E9E6A;}
	.st85{opacity:0.3;}
	.st86{fill:#965A85;}
	.st87{opacity:0.7;fill:#FFFFFF;}
	.st88{fill:#90CAD3;}
	.st89{fill:#94B57F;}
	.st90{fill:#B2E2E7;}
	.st91{fill:#FFDF8F;}
	.st92{fill:#FFFAEB;}
	.st93{fill:#F88916;}
	.st94{fill:#FFC86E;}
	.st95{fill:#AFA51D;}
	.st96{fill:#968A1C;}
	.st97{fill:#C3556D;}
</style>
<g>
	<path class="st16" d="M78.4,80.2c-1.6-0.4-3.1-0.9-4.7-1.3c-22.3-6.9-38.8-18.3-40.6-34.3c12.9,5.4,25.4,10.2,37.4,14
		c1.3,6.2,3.6,12.7,6.8,19.5C77.7,78.9,78,79.6,78.4,80.2z"/>
	<path class="st19" d="M66.2,76.8c3.3,1.2,3.5,1.1,7,2.1c1.7,0.5,3.4,0.9,5.1,1.3c-0.4-0.7-0.7-1.4-1.1-2.1
		c-3.5-6.8-6.1-13.3-7.4-19.5c-3.3-1-6.6-2-9.9-3L66.2,76.8z"/>
	<path class="st16" d="M180,79.9l-9.6-15.7c14.3-4,28.9-10.3,44-19.5C216.6,61.5,201.9,73.2,180,79.9z"/>
	<polygon class="st19" points="172.9,64.2 180,62.8 187.9,74.9 180,77.6 	"/>
	<path class="st16" d="M133.2,86.5c-8.4,0.1-16.9-0.2-25.2-1c-0.7-0.1-1.4-0.1-2-0.2c-3.7-0.4-7.3-0.9-10.9-1.5
		c-5.8-0.9-11.4-2.1-16.7-3.6h0c-0.3-0.7-0.7-1.4-1-2.1c-3.2-6.8-5.5-13.3-6.8-19.5c-2.4-11.9-1-22.7,5.2-32.1l40.2,42h0l6.5,6.8
		l1.3,1.4l1.4,1.5L133.2,86.5z"/>
	<path class="st10" d="M83.3,34.4l-7.5-7.8c-6.3,9.3-7.7,20.1-5.2,32.1c1.3,6.2,3.6,12.7,6.8,19.5c0,0,0.1-25.8,1-32.8
		C79.2,38.3,83.3,34.4,83.3,34.4z"/>
	<path class="st16" d="M180,79.9c-0.5,0.2-1,0.3-1.6,0.5c-8.1,2.4-17.2,4-26.7,5.1c-3.8,0.4-7.6,0.7-11.5,0.9
		c-2.3,0.1-4.7,0.2-7,0.2l-7.9-8.3l-1.4-1.5c-0.1-0.7-0.2-1.5-0.2-2.2c2-1.7,4-3.4,5.8-5.1h0c10.9-10.3,18.6-21.9,22.7-34.9
		l18.2,29.7h0L180,79.9z"/>
	<polygon class="st19" points="130.9,71.3 143.3,83.1 130.9,83.8 124.9,73.4 	"/>
	<path class="st21" d="M89.7,154.9c-0.7,0.6-1.4,1.1-2.1,1.6C88.3,155.9,89,155.4,89.7,154.9z"/>
	<path class="st21" d="M89.7,154.9c-0.7,0.6-1.4,1.1-2.1,1.6C88.3,155.9,89,155.4,89.7,154.9z"/>
	<path class="st4" d="M145.6,101c0,8.7-4.9,16.3-12.1,20.2c-3.2,1.7-6.9,2.7-10.8,2.7c-6.3,0-12.1-2.6-16.2-6.8
		c-2.2-2.2-4-4.9-5.1-7.9c-1-2.6-1.5-5.4-1.5-8.3s0.5-5.7,1.5-8.3c0.6-1.7,1.5-3.3,2.5-4.7c0.7-1,1.4-1.9,2.2-2.7
		c0.7,0.1,1.4,0.1,2,0.2c8.3,0.8,16.8,1.1,25.2,1c2.4,0,4.7-0.1,7-0.2C143.6,90.3,145.6,95.4,145.6,101z"/>
	<path class="st19" d="M140.2,86.3c3.3,4,5.4,9.1,5.4,14.7c0,8.7-4.9,16.3-12.1,20.2c-3.2,1.7-6.9,2.7-10.8,2.7
		c-6.3,0-12.1-2.6-16.2-6.8c0,0,13.6,2.3,24.4-6.1S140.2,86.3,140.2,86.3z"/>
	<path class="st21" d="M191.4,101c0,4.2-1.1,8.1-3.1,11.5c-2.7,4.7-7.1,8.4-12.3,10.2c-2.4,0.8-4.9,1.3-7.6,1.3
		c-7,0-13.3-3.2-17.5-8.2c-3.4-4-5.4-9.1-5.4-14.8c0-6,2.3-11.5,6.1-15.6c9.5-1,18.6-2.7,26.7-5.1c1,0.5,1.9,1,2.8,1.6
		c2.9,2,5.3,4.6,7.1,7.6C190.3,92.9,191.4,96.8,191.4,101z"/>
	<path class="st4" d="M191.4,101c0,4.2-1.1,8.1-3.1,11.5c-2.7,4.7-7.1,8.4-12.3,10.2c-2.4,0.8-4.9,1.3-7.6,1.3
		c-7,0-13.3-3.2-17.5-8.2c-3.4-4-5.4-9.1-5.4-14.8c0-6,2.3-11.5,6.1-15.6c9.5-1,18.6-2.7,26.7-5.1c1,0.5,1.9,1,2.8,1.6
		c2.9,2,5.3,4.6,7.1,7.6C190.3,92.9,191.4,96.8,191.4,101z"/>
	<path class="st19" d="M188.4,89.6c1.9,3.4,3.1,7.3,3.1,11.4s-1.1,8.1-3.1,11.5c-2.7,4.7-7.1,8.4-12.3,10.2
		c-2.4,0.8-4.9,1.3-7.6,1.3c-7,0-13.3-3.2-17.5-8.2c0,0,15.6,4.1,25.9-3.3C187.2,105.1,188.4,89.6,188.4,89.6z"/>
	<path class="st4" d="M231.1,101c0,8.3-4.5,15.6-11.1,19.7c-3.5,2.1-7.5,3.3-11.8,3.3c-6.1,0-11.6-2.4-15.7-6.2
		c-1.6-1.5-3.1-3.3-4.2-5.3c1.9-3.4,3.1-7.3,3.1-11.5s-1.1-8.1-3.1-11.4c4-6.9,11.4-11.5,19.9-11.5C220.9,78.1,231.1,88.3,231.1,101
		z"/>
	<path class="st19" d="M224.2,84.5c4.3,4.2,7,10,7,16.5c0,8.3-4.5,15.6-11.1,19.7c-3.5,2.1-7.5,3.3-11.8,3.3
		c-6.1,0-11.6-2.4-15.7-6.2c-1.6-1.5-3.1-3.3-4.2-5.3c0,0,13.8,7.9,28.2,0C230.9,104.6,224.2,84.5,224.2,84.5z"/>
	<path class="st4" d="M99.7,101c0,2.9,0.5,5.7,1.5,8.3c-1.9,5-5.6,9.2-10.2,11.8c-3.3,1.8-7.1,2.9-11.1,2.9
		c-5.2,0-10.1-1.8-13.9-4.7c-0.8-0.6-1.5-1.2-2.1-1.9c-4.2-4.2-6.8-10-6.8-16.4c0-7.4,3.5-14,9-18.2c2.3-1.8,4.9-3.1,7.7-3.9
		c1.5,0.5,3.1,0.9,4.7,1.3h0c5.3,1.4,10.9,2.6,16.7,3.6c2,1.8,3.7,3.9,5,6.3c0.5,0.8,0.9,1.7,1.2,2.6C100.3,95.3,99.7,98.1,99.7,101
		z"/>
	<path class="st19" d="M100,90.1c0.5,0.8,0.9,1.7,1.2,2.6c-1,2.6-1.5,5.4-1.5,8.3s0.5,5.7,1.5,8.3c-1.9,5-5.6,9.2-10.2,11.8
		c-3.3,1.8-7.1,2.9-11.1,2.9c-5.2,0-10.1-1.8-13.9-4.7c-0.8-0.6-1.5-1.2-2.1-1.9c0,0,17,0.6,24.2-4.9C95.3,107,100,90.1,100,90.1z"
		/>
	<path class="st4" d="M63.8,117.3c0.7,0.7,1.4,1.3,2.1,1.9c-0.8,0.6-1.6,1.1-2.4,1.6c-2.1,1.2-4.4,2.1-6.8,2.6
		c-1.5,0.3-3.1,0.5-4.7,0.5c-6.1,0-11.7-2.4-15.8-6.4c-4.4-4.2-7.1-10.1-7.1-16.6C29.1,88.3,39.4,78,52,78c5.2,0,10.1,1.8,13.9,4.7
		c-5.5,4.2-9,10.8-9,18.2C57,107.4,59.6,113.2,63.8,117.3z"/>
	<path class="st19" d="M57,101c0,6.4,2.6,12.2,6.8,16.4c0.7,0.7,1.4,1.3,2.1,1.9c-0.8,0.6-1.6,1.1-2.4,1.6c-2.1,1.2-4.4,2.1-6.8,2.6
		c-1.5,0.3-3.1,0.5-4.7,0.5c-6.1,0-11.7-2.4-15.8-6.4c0,0,7.2,0.1,16.2-1.9C61.4,113.7,57,101,57,101z"/>
	<path class="st4" d="M61.3,155.9c-3.8,2.8-8.5,4.5-13.6,4.5c-1.3,0-2.5-0.1-3.7-0.3c-10.9-1.8-19.2-11.2-19.2-22.7
		c0-8.5,4.6-15.9,11.4-19.8c4.1,3.9,9.7,6.4,15.8,6.4c1.6,0,3.2-0.2,4.7-0.5c-3,3.9-4.7,8.7-4.7,14c0,5.4,1.9,10.4,5,14.3
		C58.3,153.3,59.7,154.7,61.3,155.9z"/>
	<path class="st19" d="M55.6,148.8c1.2,1.6,2.7,3,4.3,4.2c-3.8,2.8-8.5,4.5-13.6,4.5c-1.3,0-2.5-0.1-3.7-0.3
		c-4.7-0.8-8.9-2.9-12.1-6.1C41.6,152.8,51.6,153.4,55.6,148.8z"/>
	<path class="st4" d="M80.7,181.2c0.4,1.3,1,2.6,1.6,3.8c-3.5,6.4-10,11-17.6,11.8c-0.8,0.1-1.7,0.1-2.5,0.1
		c-12.7,0-22.9-10.3-22.9-22.9c0-5.3,1.8-10.1,4.8-14c1.2,0.2,2.4,0.3,3.7,0.3c5.1,0,9.8-1.7,13.6-4.5h0c3.8,2.8,8.5,4.5,13.6,4.5
		c1.8,0,3.5-0.2,5.2-0.6c0.8,1,1.6,2.1,2.2,3.3c-1.8,3.3-2.8,7-2.8,11C79.5,176.5,79.9,178.9,80.7,181.2z"/>
	<path class="st19" d="M79.5,174c0,2.5,0.4,4.9,1.1,7.2c0.4,1.3,1,2.6,1.6,3.8c-3.5,6.4-10,11-17.6,11.8c-0.8,0.1-1.7,0.1-2.5,0.1
		c-8.9,0-16.6-5.1-20.4-12.5C59.9,191.1,73.1,188.7,79.5,174z"/>
	<path class="st4" d="M109.6,203.3c0,1-0.1,1.9-0.2,2.8c-1.4,11.3-10.9,20-22.6,20.1l-0.2,0c-12.7,0-22.9-10.3-22.9-23
		c0-2.3,0.3-4.4,0.9-6.5c7.6-0.8,14.1-5.4,17.6-11.8c3.9,7.1,11.4,12,20.1,12c2.1,0,4.1-0.3,6-0.8
		C109.2,198.4,109.6,200.8,109.6,203.3z"/>
	<path class="st19" d="M108.5,196.2c0.7,2.3,1.1,4.7,1.1,7.2c0,1-0.1,1.9-0.2,2.8c-1.4,11.3-10.9,20-22.6,20.1l-0.2,0
		c-8.7,0-16.2-4.8-20.1-12C85,222.4,99.7,218.8,108.5,196.2z"/>
	<path class="st4" d="M158.5,203.3c0,1.3-0.1,2.5-0.3,3.7c-0.2,1.5-0.6,3-1.2,4.4c-3.3,8.7-11.6,14.9-21.4,14.9
		c-1.1,0-2.2-0.1-3.3-0.2c-1-0.1-1.9-0.3-2.9-0.6c-8.7-2.4-15.3-9.9-16.6-19c-0.1-1-0.2-2-0.2-3.1c0-3.6,0.8-7.1,2.4-10.2
		c3.4-2.2,6.1-5.3,7.9-9l0,0c0.7-0.5,1.5-0.9,2.3-1.3c3.5,8.3,11.6,14.1,21.2,14.1c3.7,0,7.2-0.9,10.3-2.4c0.1,0.2,0.2,0.5,0.3,0.7
		C158,197.8,158.5,200.5,158.5,203.3z"/>
	<path class="st19" d="M156.8,194.5c0.1,0.2,0.2,0.5,0.3,0.7c1,2.5,1.5,5.2,1.5,8.1c0,1.3-0.1,2.5-0.3,3.7c-0.2,1.5-0.6,3-1.2,4.4
		c-3.3,8.7-11.6,14.9-21.4,14.9c-1.1,0-2.2-0.1-3.3-0.2c-1-0.1-1.9-0.3-2.9-0.6c-5.4-1.5-9.9-4.9-13-9.4
		C138.8,222.1,151.8,214.3,156.8,194.5z"/>
	<path class="st4" d="M201.4,203.3c0,12.7-10.3,22.9-22.9,22.9c-1.3,0-2.5-0.1-3.7-0.3c-8.2-1.3-14.9-7-17.7-14.5
		c0.5-1.4,0.9-2.9,1.2-4.4c0.2-1.2,0.3-2.4,0.3-3.7c0-2.9-0.5-5.6-1.5-8.1c0.1-0.4,0.3-0.7,0.5-1.1c4.4-2.4,7.9-6.3,10-10.9v0
		c0.8-0.4,1.6-0.8,2.5-1.2c3.2,8.7,11.6,14.9,21.5,14.9c3,0,5.9-0.6,8.6-1.7C200.9,197.8,201.4,200.5,201.4,203.3z"/>
	<path class="st19" d="M200,195.3c0.9,2.5,1.4,5.2,1.4,8c0,12.7-10.3,22.9-22.9,22.9c-1.3,0-2.5-0.1-3.7-0.3
		c-8.2-1.3-14.9-7-17.7-14.5C177.4,222.7,193.1,218.8,200,195.3z"/>
	<path class="st4" d="M175,229.1c0,12.7-10.3,22.9-22.9,22.9c-9.6,0-17.8-5.9-21.2-14.3v0c1.1-2.7,1.7-5.6,1.7-8.6
		c0-1-0.1-2.1-0.2-3.1c1.1,0.2,2.2,0.2,3.3,0.2c9.8,0,18.2-6.2,21.4-14.9c2.8,7.6,9.6,13.2,17.7,14.5C174.9,227,175,228.1,175,229.1
		z"/>
	<path class="st19" d="M174.8,226c0.1,1,0.2,2.1,0.2,3.1c0,12.7-10.3,22.9-22.9,22.9c-9.6,0-17.8-5.9-21.2-14.3l0,0
		C150.7,248.4,165.4,244.9,174.8,226z"/>
	<path class="st21" d="M132.5,229.1c0,3.1-0.6,6-1.7,8.6v0c-3.4,8.4-11.6,14.3-21.2,14.3c-12.7,0-22.9-10.3-22.9-22.9
		c0-1,0.1-1.9,0.2-2.8c11.6-0.1,21.2-8.8,22.6-20.1l0.2,0c1.1,0,2.2,0.1,3.3,0.2c1.2,9.2,7.9,16.6,16.6,19c0.9,0.3,1.9,0.5,2.9,0.6
		C132.5,227.1,132.5,228.1,132.5,229.1z"/>
	<path class="st4" d="M132.5,230.1c0,3.1-0.6,6-1.7,8.6v0c-3.4,8.4-11.6,14.3-21.2,14.3c-12.7,0-22.9-10.3-22.9-22.9
		c0-1,0.1-1.9,0.2-2.8c11.6-0.1,21.2-8.8,22.6-20.1l0.2,0c1.1,0,2.2,0.1,3.3,0.2c1.2,9.2,7.9,16.6,16.6,19c0.9,0.3,1.9,0.5,2.9,0.6
		C132.5,228,132.5,229,132.5,230.1z"/>
	<path class="st19" d="M132.3,226c0.1,1,0.2,2,0.2,3.1c0,3.1-0.6,6-1.7,8.6v0c-3.4,8.4-11.6,14.3-21.2,14.3
		c-8.1,0-15.2-4.2-19.3-10.5C108.9,248.1,123.6,244.7,132.3,226z"/>
	<path class="st21" d="M123.6,174c0,2.2,0.3,4.4,0.9,6.4c-0.4,1.3-0.9,2.6-1.5,3.8l0,0c-1.8,3.7-4.5,6.8-7.9,9c-2,1.3-4.2,2.3-6.6,3
		c-1.9,0.5-4,0.8-6,0.8c-8.7,0-16.2-4.8-20.1-12c-0.7-1.2-1.2-2.5-1.6-3.8c-0.7-2.3-1.1-4.7-1.1-7.2c0-4,1-7.7,2.8-11
		c1.4-2.5,3.2-4.7,5.3-6.5h0c0.7-0.5,1.4-1,2.1-1.6l0,0c2.7-1.8,5.9-3.1,9.3-3.6c4.2,5.5,10.8,9,18.2,9c1.1,0,2.3-0.1,3.4-0.3
		c1.7,2.2,3,4.8,3.8,7.6C123.9,169.7,123.6,171.8,123.6,174z"/>
	<path class="st4" d="M124.5,174c0,2.2,0.3,4.4,0.9,6.4c-0.4,1.3-0.9,2.6-1.5,3.8v0c-1.8,3.7-4.5,6.8-7.9,9c-2,1.3-4.2,2.3-6.6,3
		c-1.9,0.5-4,0.8-6,0.8c-8.7,0-16.2-4.8-20.1-12c-0.7-1.2-1.2-2.5-1.6-3.8c-0.7-2.3-1.1-4.7-1.1-7.2c0-4,1-7.7,2.8-11
		c1.4-2.5,3.2-4.7,5.3-6.5l0,0c0.7-0.5,1.4-1,2.1-1.6l0,0c2.7-1.8,5.9-3.1,9.3-3.6c4.2,5.5,10.8,9,18.2,9c1.1,0,2.3-0.1,3.4-0.3
		c1.7,2.2,3,4.8,3.8,7.6C124.8,169.7,124.5,171.8,124.5,174z"/>
	<path class="st19" d="M120.6,160.1c1.7,2.2,3,4.8,3.8,7.6c-0.6,2-0.9,4.2-0.9,6.4c0,2.2,0.3,4.4,0.9,6.4c-0.4,1.3-0.9,2.6-1.5,3.8
		l0,0c-1.8,3.7-4.5,6.8-7.9,9c-2,1.3-4.2,2.3-6.6,3c-1.9,0.5-4,0.8-6,0.8c-8.7,0-16.2-4.8-20.1-12
		C104.1,193.3,117.9,186.8,120.6,160.1z"/>
	<path class="st21" d="M89.7,154.9c-0.7,0.6-1.4,1.1-2.1,1.6C88.3,155.9,89,155.4,89.7,154.9z"/>
	<path class="st4" d="M169.4,174c0,1.6-0.2,3.1-0.5,4.5c-0.3,1.6-0.8,3.2-1.5,4.7v0c-2,4.6-5.5,8.5-10,10.9
		c-0.2,0.1-0.5,0.3-0.7,0.4c-3.1,1.6-6.6,2.4-10.3,2.4c-9.5,0-17.7-5.8-21.2-14.1c-0.3-0.8-0.6-1.6-0.8-2.4c-0.6-2-0.9-4.2-0.9-6.4
		c0-2.2,0.3-4.4,0.9-6.4c2.2-7.7,8.4-13.8,16.2-15.8c4.2,5.2,10.6,8.5,17.8,8.5c2,0,3.9-0.3,5.8-0.7c2.3,2.8,3.9,6.2,4.6,9.9
		C169.2,171,169.4,172.5,169.4,174z"/>
	<path class="st19" d="M164.3,159.6c2.3,2.8,3.9,6.2,4.6,9.9c0.3,1.5,0.5,3,0.5,4.5c0,1.6-0.2,3.1-0.5,4.5c-0.3,1.6-0.8,3.2-1.5,4.7
		v0c-2,4.6-5.5,8.5-10,10.9c-0.2,0.1-0.5,0.3-0.7,0.4c-3.1,1.6-6.6,2.4-10.3,2.4c-9.5,0-17.7-5.8-21.2-14.1
		C148.9,193.1,163.9,188.8,164.3,159.6z"/>
	<path class="st21" d="M214.3,174c0,9.6-5.9,17.9-14.3,21.3c-2.7,1.1-5.5,1.7-8.6,1.7c-9.8,0-18.2-6.2-21.5-14.9
		c-0.4-1.1-0.8-2.3-1-3.5c0.3-1.5,0.5-3,0.5-4.5c0-1.6-0.2-3.1-0.5-4.5c1.8-8.9,8.7-15.9,17.5-17.9c4.2,5.3,10.7,8.7,18,8.7
		c1.7,0,3.4-0.2,5-0.6C212.5,163.7,214.3,168.7,214.3,174z"/>
	<path class="st4" d="M214.3,174c0,9.6-5.9,17.9-14.3,21.3c-2.7,1.1-5.5,1.7-8.6,1.7c-9.8,0-18.2-6.2-21.5-14.9
		c-0.4-1.1-0.8-2.3-1-3.5c0.3-1.5,0.5-3,0.5-4.5c0-1.6-0.2-3.1-0.5-4.5c1.8-8.9,8.7-15.9,17.5-17.9c4.2,5.3,10.7,8.7,18,8.7
		c1.7,0,3.4-0.2,5-0.6C212.5,163.7,214.3,168.7,214.3,174z"/>
	<path class="st19" d="M209.4,159.8c3.1,3.9,4.9,8.9,4.9,14.2c0,9.6-5.9,17.9-14.3,21.3c-2.7,1.1-5.5,1.7-8.6,1.7
		c-9.8,0-18.2-6.2-21.5-14.9C193.9,193.1,208.4,188.1,209.4,159.8z"/>
	<path class="st4" d="M94.3,137.4c0,3.1,0.6,6.1,1.8,8.8c-1.4,3.4-3.6,6.4-6.4,8.7l0,0c-0.7,0.5-1.4,1-2.1,1.6h0
		c-2.3,1.5-4.8,2.6-7.5,3.2c-1.7,0.4-3.4,0.6-5.2,0.6c-5.1,0-9.8-1.7-13.6-4.5h0c-1.6-1.2-3.1-2.6-4.3-4.2c-3.1-3.9-5-8.9-5-14.3
		c0-5.3,1.8-10.1,4.7-14c2.4-0.5,4.7-1.4,6.8-2.6c0.8-0.5,1.6-1,2.4-1.6c3.9,3,8.7,4.7,13.9,4.7c4,0,7.8-1,11.1-2.9
		c2.2,2.1,3.9,4.7,5.1,7.5C95,131.3,94.3,134.3,94.3,137.4z"/>
	<path class="st19" d="M96.1,128.6c-1.1,2.7-1.8,5.7-1.8,8.8c0,3.1,0.6,6.1,1.8,8.8c-1.4,3.4-3.6,6.4-6.4,8.7l0,0
		c-0.7,0.5-1.4,1-2.1,1.6h0c-2.3,1.5-4.8,2.6-7.5,3.2c-1.7,0.4-3.4,0.6-5.2,0.6c-5.1,0-9.8-1.7-13.6-4.5h0c-1.6-1.2-3.1-2.6-4.3-4.2
		C78.1,156.7,91.3,149.3,96.1,128.6z"/>
	<path class="st21" d="M89.7,154.9c-0.7,0.6-1.4,1.1-2.1,1.6C88.3,155.9,89,155.4,89.7,154.9z"/>
	<path class="st4" d="M140.2,137.4c0,3.6-0.8,7-2.3,10c-3.2,6.7-9.6,11.6-17.3,12.7c-1.1,0.2-2.2,0.3-3.4,0.3c-7.4,0-14-3.5-18.2-9
		c-1.2-1.6-2.2-3.3-2.9-5.1c-1.1-2.7-1.8-5.7-1.8-8.8c0-3.1,0.6-6.1,1.8-8.8c2-4.9,5.7-8.9,10.3-11.4c4.2,4.2,9.9,6.8,16.2,6.8
		c3.9,0,7.6-1,10.8-2.7c1.8,1.8,3.3,3.9,4.4,6.2C139.4,130.4,140.2,133.8,140.2,137.4z"/>
	<path class="st19" d="M137.9,127.4c1.5,3,2.3,6.4,2.3,10c0,3.6-0.8,7-2.3,10c-3.2,6.7-9.6,11.6-17.3,12.7c-1.1,0.2-2.2,0.3-3.4,0.3
		c-7.4,0-14-3.5-18.2-9C120.4,154.7,134.7,148.6,137.9,127.4z"/>
	<path class="st4" d="M181.5,137.4c0,10.7-7.3,19.7-17.2,22.2c-1.8,0.5-3.8,0.7-5.8,0.7c-7.2,0-13.6-3.3-17.8-8.5
		c-1.1-1.4-2-2.8-2.8-4.4c1.5-3,2.3-6.4,2.3-10c0-3.6-0.8-7-2.3-10c2.6-5.4,7.3-9.6,13.1-11.7c4.2,5,10.5,8.2,17.5,8.2
		c2.7,0,5.2-0.5,7.6-1.3C179.4,126.6,181.5,131.8,181.5,137.4z"/>
	<path class="st19" d="M176.1,122.7c3.4,4,5.4,9.1,5.4,14.7c0,10.7-7.3,19.7-17.2,22.2c-1.8,0.5-3.8,0.7-5.8,0.7
		c-7.2,0-13.6-3.3-17.8-8.5c-1.1-1.4-2-2.8-2.8-4.4C161.8,157.3,175.8,151.2,176.1,122.7z"/>
	<path class="st4" d="M227.3,137.4c0,11-7.7,20.1-17.9,22.4c-1.6,0.4-3.3,0.6-5,0.6c-7.3,0-13.8-3.4-18-8.7c-3.1-3.9-5-8.9-5-14.2
		c0-8.3,4.4-15.6,11.1-19.7c4.1,3.8,9.6,6.2,15.7,6.2c4.3,0,8.4-1.2,11.8-3.3C224.5,124.8,227.3,130.8,227.3,137.4z"/>
	<path class="st19" d="M220,120.7c4.5,4.2,7.3,10.1,7.3,16.7c0,11-7.7,20.1-17.9,22.4c-1.6,0.4-3.3,0.6-5,0.6
		c-7.3,0-13.8-3.4-18-8.7C211.7,157.1,223.5,147.4,220,120.7z"/>
	<path class="st21" d="M106,85.3c-0.8,0.8-1.5,1.8-2.2,2.7c-1,1.5-1.8,3-2.5,4.7c-0.4-0.9-0.8-1.8-1.2-2.6c-1.3-2.4-3-4.5-5-6.3
		C98.7,84.4,102.3,84.9,106,85.3z"/>
	<path class="st21" d="M89.7,154.9c-0.7,0.6-1.4,1.1-2.1,1.6C88.3,155.9,89,155.4,89.7,154.9z"/>
	<path class="st21" d="M89.7,154.9c-0.7,0.6-1.4,1.1-2.1,1.6C88.3,155.9,89,155.4,89.7,154.9z"/>
	<path class="st1" d="M145.6,101c0,8.7-4.9,16.3-12.1,20.2c-3.2,1.7-6.9,2.7-10.8,2.7c-6.3,0-12.1-2.6-16.2-6.8
		c-2.2-2.2-4-4.9-5.1-7.9c-1-2.6-1.5-5.4-1.5-8.3s0.5-5.7,1.5-8.3c0.6-1.7,1.5-3.3,2.5-4.7c0.7-1,1.4-1.9,2.2-2.7
		c0.7,0.1,1.4,0.1,2,0.2c8.3,0.8,16.8,1.1,25.2,1c2.4,0,4.7-0.1,7-0.2C143.6,90.3,145.6,95.4,145.6,101z"/>
	<path class="st1" d="M191.4,101c0,4.2-1.1,8.1-3.1,11.5c-2.7,4.7-7.1,8.4-12.3,10.2c-2.4,0.8-4.9,1.3-7.6,1.3
		c-7,0-13.3-3.2-17.5-8.2c-3.4-4-5.4-9.1-5.4-14.8c0-6,2.3-11.5,6.1-15.6c9.5-1,18.6-2.7,26.7-5.1c1,0.5,1.9,1,2.8,1.6
		c2.9,2,5.3,4.6,7.1,7.6C190.3,92.9,191.4,96.8,191.4,101z"/>
	<path class="st1" d="M231.1,101c0,8.3-4.5,15.6-11.1,19.7c-3.5,2.1-7.5,3.3-11.8,3.3c-6.1,0-11.6-2.4-15.7-6.2
		c-1.6-1.5-3.1-3.3-4.2-5.3c1.9-3.4,3.1-7.3,3.1-11.5s-1.1-8.1-3.1-11.4c4-6.9,11.4-11.5,19.9-11.5C220.9,78.1,231.1,88.3,231.1,101
		z"/>
	<path class="st1" d="M99.7,101c0,2.9,0.5,5.7,1.5,8.3c-1.9,5-5.6,9.2-10.2,11.8c-3.3,1.8-7.1,2.9-11.1,2.9
		c-5.2,0-10.1-1.8-13.9-4.7c-0.8-0.6-1.5-1.2-2.1-1.9c-4.2-4.2-6.8-10-6.8-16.4c0-7.4,3.5-14,9-18.2c2.3-1.8,4.9-3.1,7.7-3.9
		c1.5,0.5,3.1,0.9,4.7,1.3h0c5.3,1.4,10.9,2.6,16.7,3.6c2,1.8,3.7,3.9,5,6.3c0.5,0.8,0.9,1.7,1.2,2.6C100.3,95.3,99.7,98.1,99.7,101
		z"/>
	<path class="st1" d="M63.8,117.3c0.7,0.7,1.4,1.3,2.1,1.9c-0.8,0.6-1.6,1.1-2.4,1.6c-2.1,1.2-4.4,2.1-6.8,2.6
		c-1.5,0.3-3.1,0.5-4.7,0.5c-6.1,0-11.7-2.4-15.8-6.4c-4.4-4.2-7.1-10.1-7.1-16.6C29.1,88.3,39.4,78,52,78c5.2,0,10.1,1.8,13.9,4.7
		c-5.5,4.2-9,10.8-9,18.2C57,107.4,59.6,113.2,63.8,117.3z"/>
	<path class="st1" d="M61.3,155.9c-3.8,2.8-8.5,4.5-13.6,4.5c-1.3,0-2.5-0.1-3.7-0.3c-10.9-1.8-19.2-11.2-19.2-22.7
		c0-8.5,4.6-15.9,11.4-19.8c4.1,3.9,9.7,6.4,15.8,6.4c1.6,0,3.2-0.2,4.7-0.5c-3,3.9-4.7,8.7-4.7,14c0,5.4,1.9,10.4,5,14.3
		C58.3,153.3,59.7,154.7,61.3,155.9z"/>
	<path class="st1" d="M80.7,181.2c0.4,1.3,1,2.6,1.6,3.8c-3.5,6.4-10,11-17.6,11.8c-0.8,0.1-1.7,0.1-2.5,0.1
		c-12.7,0-22.9-10.3-22.9-22.9c0-5.3,1.8-10.1,4.8-14c1.2,0.2,2.4,0.3,3.7,0.3c5.1,0,9.8-1.7,13.6-4.5h0c3.8,2.8,8.5,4.5,13.6,4.5
		c1.8,0,3.5-0.2,5.2-0.6c0.8,1,1.6,2.1,2.2,3.3c-1.8,3.3-2.8,7-2.8,11C79.5,176.5,79.9,178.9,80.7,181.2z"/>
	<path class="st1" d="M109.6,203.3c0,1-0.1,1.9-0.2,2.8c-1.4,11.3-10.9,20-22.6,20.1l-0.2,0c-12.7,0-22.9-10.3-22.9-23
		c0-2.3,0.3-4.4,0.9-6.5c7.6-0.8,14.1-5.4,17.6-11.8c3.9,7.1,11.4,12,20.1,12c2.1,0,4.1-0.3,6-0.8
		C109.2,198.4,109.6,200.8,109.6,203.3z"/>
	<path class="st1" d="M158.5,203.3c0,1.3-0.1,2.5-0.3,3.7c-0.2,1.5-0.6,3-1.2,4.4c-3.3,8.7-11.6,14.9-21.4,14.9
		c-1.1,0-2.2-0.1-3.3-0.2c-1-0.1-1.9-0.3-2.9-0.6c-8.7-2.4-15.3-9.9-16.6-19c-0.1-1-0.2-2-0.2-3.1c0-3.6,0.8-7.1,2.4-10.2
		c3.4-2.2,6.1-5.3,7.9-9l0,0c0.7-0.5,1.5-0.9,2.3-1.3c3.5,8.3,11.6,14.1,21.2,14.1c3.7,0,7.2-0.9,10.3-2.4c0.1,0.2,0.2,0.5,0.3,0.7
		C158,197.8,158.5,200.5,158.5,203.3z"/>
	<path class="st1" d="M201.4,203.3c0,12.7-10.3,22.9-22.9,22.9c-1.3,0-2.5-0.1-3.7-0.3c-8.2-1.3-14.9-7-17.7-14.5
		c0.5-1.4,0.9-2.9,1.2-4.4c0.2-1.2,0.3-2.4,0.3-3.7c0-2.9-0.5-5.6-1.5-8.1c0.1-0.4,0.3-0.7,0.5-1.1c4.4-2.4,7.9-6.3,10-10.9v0
		c0.8-0.4,1.6-0.8,2.5-1.2c3.2,8.7,11.6,14.9,21.5,14.9c3,0,5.9-0.6,8.6-1.7C200.9,197.8,201.4,200.5,201.4,203.3z"/>
	<path class="st1" d="M175,229.1c0,12.7-10.3,22.9-22.9,22.9c-9.6,0-17.8-5.9-21.2-14.3v0c1.1-2.7,1.7-5.6,1.7-8.6
		c0-1-0.1-2.1-0.2-3.1c1.1,0.2,2.2,0.2,3.3,0.2c9.8,0,18.2-6.2,21.4-14.9c2.8,7.6,9.6,13.2,17.7,14.5C174.9,227,175,228.1,175,229.1
		z"/>
	<path class="st1" d="M132.5,229.1c0,3.1-0.6,6-1.7,8.6v0c-3.4,8.4-11.6,14.3-21.2,14.3c-12.7,0-22.9-10.3-22.9-22.9
		c0-1,0.1-1.9,0.2-2.8c11.6-0.1,21.2-8.8,22.6-20.1l0.2,0c1.1,0,2.2,0.1,3.3,0.2c1.2,9.2,7.9,16.6,16.6,19c0.9,0.3,1.9,0.5,2.9,0.6
		C132.5,227.1,132.5,228.1,132.5,229.1z"/>
	<path class="st1" d="M123.6,174c0,2.2,0.3,4.4,0.9,6.4c-0.4,1.3-0.9,2.6-1.5,3.8l0,0c-1.8,3.7-4.5,6.8-7.9,9c-2,1.3-4.2,2.3-6.6,3
		c-1.9,0.5-4,0.8-6,0.8c-8.7,0-16.2-4.8-20.1-12c-0.7-1.2-1.2-2.5-1.6-3.8c-0.7-2.3-1.1-4.7-1.1-7.2c0-4,1-7.7,2.8-11
		c1.4-2.5,3.2-4.7,5.3-6.5h0c0.7-0.5,1.4-1,2.1-1.6l0,0c2.7-1.8,5.9-3.1,9.3-3.6c4.2,5.5,10.8,9,18.2,9c1.1,0,2.3-0.1,3.4-0.3
		c1.7,2.2,3,4.8,3.8,7.6C123.9,169.7,123.6,171.8,123.6,174z"/>
	<path class="st1" d="M89.7,154.9c-0.7,0.6-1.4,1.1-2.1,1.6C88.3,155.9,89,155.4,89.7,154.9z"/>
	<path class="st1" d="M169.4,174c0,1.6-0.2,3.1-0.5,4.5c-0.3,1.6-0.8,3.2-1.5,4.7v0c-2,4.6-5.5,8.5-10,10.9
		c-0.2,0.1-0.5,0.3-0.7,0.4c-3.1,1.6-6.6,2.4-10.3,2.4c-9.5,0-17.7-5.8-21.2-14.1c-0.3-0.8-0.6-1.6-0.8-2.4c-0.6-2-0.9-4.2-0.9-6.4
		c0-2.2,0.3-4.4,0.9-6.4c2.2-7.7,8.4-13.8,16.2-15.8c4.2,5.2,10.6,8.5,17.8,8.5c2,0,3.9-0.3,5.8-0.7c2.3,2.8,3.9,6.2,4.6,9.9
		C169.2,171,169.4,172.5,169.4,174z"/>
	<path class="st1" d="M214.3,174c0,9.6-5.9,17.9-14.3,21.3c-2.7,1.1-5.5,1.7-8.6,1.7c-9.8,0-18.2-6.2-21.5-14.9
		c-0.4-1.1-0.8-2.3-1-3.5c0.3-1.5,0.5-3,0.5-4.5c0-1.6-0.2-3.1-0.5-4.5c1.8-8.9,8.7-15.9,17.5-17.9c4.2,5.3,10.7,8.7,18,8.7
		c1.7,0,3.4-0.2,5-0.6C212.5,163.7,214.3,168.7,214.3,174z"/>
	<path class="st1" d="M94.3,137.4c0,3.1,0.6,6.1,1.8,8.8c-1.4,3.4-3.6,6.4-6.4,8.7l0,0c-0.7,0.5-1.4,1-2.1,1.6h0
		c-2.3,1.5-4.8,2.6-7.5,3.2c-1.7,0.4-3.4,0.6-5.2,0.6c-5.1,0-9.8-1.7-13.6-4.5h0c-1.6-1.2-3.1-2.6-4.3-4.2c-3.1-3.9-5-8.9-5-14.3
		c0-5.3,1.8-10.1,4.7-14c2.4-0.5,4.7-1.4,6.8-2.6c0.8-0.5,1.6-1,2.4-1.6c3.9,3,8.7,4.7,13.9,4.7c4,0,7.8-1,11.1-2.9
		c2.2,2.1,3.9,4.7,5.1,7.5C95,131.3,94.3,134.3,94.3,137.4z"/>
	<path class="st1" d="M89.7,154.9c-0.7,0.6-1.4,1.1-2.1,1.6C88.3,155.9,89,155.4,89.7,154.9z"/>
	<path class="st1" d="M140.2,137.4c0,3.6-0.8,7-2.3,10c-3.2,6.7-9.6,11.6-17.3,12.7c-1.1,0.2-2.2,0.3-3.4,0.3c-7.4,0-14-3.5-18.2-9
		c-1.2-1.6-2.2-3.3-2.9-5.1c-1.1-2.7-1.8-5.7-1.8-8.8c0-3.1,0.6-6.1,1.8-8.8c2-4.9,5.7-8.9,10.3-11.4c4.2,4.2,9.9,6.8,16.2,6.8
		c3.9,0,7.6-1,10.8-2.7c1.8,1.8,3.3,3.9,4.4,6.2C139.4,130.4,140.2,133.8,140.2,137.4z"/>
	<path class="st1" d="M181.5,137.4c0,10.7-7.3,19.7-17.2,22.2c-1.8,0.5-3.8,0.7-5.8,0.7c-7.2,0-13.6-3.3-17.8-8.5
		c-1.1-1.4-2-2.8-2.8-4.4c1.5-3,2.3-6.4,2.3-10c0-3.6-0.8-7-2.3-10c2.6-5.4,7.3-9.6,13.1-11.7c4.2,5,10.5,8.2,17.5,8.2
		c2.7,0,5.2-0.5,7.6-1.3C179.4,126.6,181.5,131.8,181.5,137.4z"/>
	<path class="st1" d="M227.3,137.4c0,11-7.7,20.1-17.9,22.4c-1.6,0.4-3.3,0.6-5,0.6c-7.3,0-13.8-3.4-18-8.7c-3.1-3.9-5-8.9-5-14.2
		c0-8.3,4.4-15.6,11.1-19.7c4.1,3.8,9.6,6.2,15.7,6.2c4.3,0,8.4-1.2,11.8-3.3C224.5,124.8,227.3,130.8,227.3,137.4z"/>
	<path class="st1" d="M78.4,80.2c-1.6-0.4-3.1-0.9-4.7-1.3c-22.3-6.9-38.8-18.3-40.6-34.3c12.9,5.4,25.4,10.2,37.4,14
		c1.3,6.2,3.6,12.7,6.8,19.5C77.7,78.9,78,79.6,78.4,80.2z"/>
	<path class="st1" d="M123.8,76.7l-1.3-1.4c0.4-0.3,0.7-0.6,1.1-0.9C123.6,75.2,123.7,75.9,123.8,76.7z"/>
	<path class="st1" d="M180,79.9l-9.6-15.7c14.3-4,28.9-10.3,44-19.5C216.6,61.5,201.9,73.2,180,79.9z"/>
	<path class="st1" d="M133.2,86.5c-8.4,0.1-16.9-0.2-25.2-1c-0.7-0.1-1.4-0.1-2-0.2c-3.7-0.4-7.3-0.9-10.9-1.5
		c-5.8-0.9-11.4-2.1-16.7-3.6h0c-0.3-0.7-0.7-1.4-1-2.1c-3.2-6.8-5.5-13.3-6.8-19.5c-2.4-11.9-1-22.7,5.2-32.1l40.2,42h0l6.5,6.8
		l1.3,1.4l1.4,1.5L133.2,86.5z"/>
	<path class="st1" d="M180,79.9c-0.5,0.2-1,0.3-1.6,0.5c-8.1,2.4-17.2,4-26.7,5.1c-3.8,0.4-7.6,0.7-11.5,0.9c-2.3,0.1-4.7,0.2-7,0.2
		l-7.9-8.3l-1.4-1.5c-0.1-0.7-0.2-1.5-0.2-2.2c2-1.7,4-3.4,5.8-5.1h0c10.9-10.3,18.6-21.9,22.7-34.9l18.2,29.7h0L180,79.9z"/>
	<path class="st1" d="M106,85.3c-0.8,0.8-1.5,1.8-2.2,2.7c-1,1.5-1.8,3-2.5,4.7c-0.4-0.9-0.8-1.8-1.2-2.6c-1.3-2.4-3-4.5-5-6.3
		C98.7,84.4,102.3,84.9,106,85.3z"/>
	<path class="st1" d="M123.6,74.5c-0.4,0.3-0.7,0.6-1.1,0.9"/>
	<path class="st1" d="M150.3,4c-19.3,14-28.7,35.4-27.1,65.1c0.1,1.8,0.2,3.5,0.4,5.3"/>
</g>
</svg>
