<?xml version="1.0" encoding="utf-8"?>
<!-- Generator: Adobe Illustrator 22.1.0, SVG Export Plug-In . SVG Version: 6.00 Build 0)  -->
<svg version="1.1" id="Layer_1" xmlns="http://www.w3.org/2000/svg" xmlns:xlink="http://www.w3.org/1999/xlink" x="0px" y="0px"
	 viewBox="0 0 256 256" style="enable-background:new 0 0 256 256;" xml:space="preserve">
<style type="text/css">
	.st0{fill:#F5B31F;}
	.st1{fill:none;stroke:#464646;stroke-width:8;stroke-linecap:round;stroke-linejoin:round;stroke-miterlimit:10;}
	.st2{opacity:0.15;fill:#464646;}
	.st3{fill:#AC6535;}
	.st4{fill:#EB573B;}
	.st5{fill:#90C056;}
	.st6{opacity:0.35;fill:#FFFFFF;}
	.st7{opacity:0.2;fill:#FFFFFF;}
	.st8{fill:#F6D67A;}
	.st9{opacity:0.15;fill:#FFFFFF;}
	.st10{opacity:0.3;fill:#FFFFFF;}
	.st11{fill:#AC6535;stroke:#464646;stroke-width:8;stroke-linecap:round;stroke-linejoin:round;stroke-miterlimit:10;}
	.st12{fill:#EB573B;stroke:#464646;stroke-width:8;stroke-miterlimit:10;}
	.st13{opacity:0.15;}
	.st14{fill:#464646;}
	.st15{fill:#FFA755;}
	.st16{fill:#8FAE3C;}
	.st17{fill:#BE6BB2;}
	.st18{fill:#B7C536;}
	.st19{opacity:0.1;}
	.st20{fill:#9D5A96;}
	.st21{fill:#EA615D;}
	.st22{opacity:0.4;fill:#FFFFFF;}
	.st23{opacity:7.000000e-02;}
	.st24{fill:#F79932;}
	.st25{fill:#FFEC97;}
	.st26{fill:#FFD11D;}
	.st27{opacity:0.2;}
	.st28{fill:#FFFFFF;}
	.st29{fill:#F7F2D5;}
	.st30{fill:#F6AF72;}
	.st31{fill:#BA6C45;}
	.st32{opacity:0.5;fill:#FFFFFF;}
	.st33{fill:#E4C074;}
	.st34{fill:none;stroke:#656566;stroke-width:8;stroke-linecap:round;stroke-linejoin:round;stroke-miterlimit:10;}
	.st35{fill:#FFA755;stroke:#464646;stroke-width:8;stroke-linecap:round;stroke-linejoin:round;stroke-miterlimit:10;}
	.st36{fill:#FFD11D;stroke:#464646;stroke-width:8;stroke-linecap:round;stroke-linejoin:round;stroke-miterlimit:10;}
	.st37{fill:#FACD1F;}
	.st38{fill:#FFDF66;}
	.st39{fill:#FFEC97;stroke:#464646;stroke-width:8;stroke-linecap:round;stroke-linejoin:round;stroke-miterlimit:10;}
	.st40{fill:#FFDF66;stroke:#464646;stroke-width:8;stroke-linecap:round;stroke-linejoin:round;stroke-miterlimit:10;}
	.st41{opacity:0.2;fill:#464646;}
	.st42{fill:#FFFFFF;stroke:#464646;stroke-width:8;stroke-linecap:round;stroke-linejoin:round;stroke-miterlimit:10;}
	.st43{fill:#6D6E71;stroke:#464646;stroke-width:8;stroke-linecap:round;stroke-linejoin:round;stroke-miterlimit:10;}
	.st44{opacity:0.1;fill:#464646;}
	.st45{fill:#E77CAE;}
	.st46{fill:#FFE5C4;}
	.st47{fill:#F68455;stroke:#464646;stroke-width:8;stroke-linecap:round;stroke-linejoin:round;stroke-miterlimit:10;}
	.st48{opacity:0.7;}
	.st49{fill:#ADEDFF;}
	.st50{fill:#EC754B;}
	.st51{fill:#4AA5BA;}
	.st52{opacity:0.5;}
	.st53{opacity:0.8;}
	.st54{fill:#F68455;}
	.st55{fill:#92A5AC;}
	.st56{fill:#6D6E71;}
	.st57{fill:#D06E3C;}
	.st58{fill:#DA4F4B;}
	.st59{fill:#BDF3FF;}
	.st60{fill:#F18BB4;}
	.st61{fill:#F9D97A;}
	.st62{fill:none;}
	.st63{fill:#AF6535;}
	.st64{fill:#B93226;}
	.st65{fill:#FF6050;}
	.st66{fill:#D06E3C;stroke:#464646;stroke-miterlimit:10;}
	.st67{fill:#EA7CB1;}
	.st68{fill:none;stroke:#6D6E71;stroke-width:10;stroke-linecap:round;stroke-linejoin:round;stroke-miterlimit:10;}
	.st69{fill:#00B0E0;}
	.st70{fill:#EA7DAE;}
	.st71{opacity:0.1;fill:#FFFFFF;}
	.st72{fill:#BC7532;}
	.st73{fill:#876C6C;}
	.st74{fill:#F9F6CD;}
	.st75{fill:#FFE37B;}
	.st76{fill:#1DDCFF;}
	.st77{fill:#60ACF7;}
	.st78{fill:#C3755A;}
	.st79{fill:#96557A;}
	.st80{fill:#66625D;}
	.st81{fill:#D68032;}
	.st82{opacity:0.8;fill:#FFFFFF;}
	.st83{fill:#F2A355;}
	.st84{fill:#7E9E6A;}
	.st85{opacity:0.3;}
	.st86{fill:#965A85;}
	.st87{opacity:0.7;fill:#FFFFFF;}
	.st88{fill:#90CAD3;}
	.st89{fill:#94B57F;}
	.st90{fill:#B2E2E7;}
	.st91{fill:#FFDF8F;}
	.st92{fill:#FFFAEB;}
	.st93{fill:#F88916;}
	.st94{fill:#FFC86E;}
	.st95{fill:#AFA51D;}
	.st96{fill:#968A1C;}
	.st97{fill:#C3556D;}
</style>
<g>
	<g>
		<path class="st26" d="M246.4,142.7c-11.6-30.1-40.8-51.4-74.9-51.4c-44.4,0-80.3,36-80.3,80.4c0,34.1,21.3,63.3,51.3,75
			c-37.9,12.1-70.5,2.3-85.9-13.1c0,0-26.1,12-37.2,0.8c-11.1-11.1,0.9-37.2,0.9-37.2c-23.6-23.6-26.8-95,27.5-149.4
			S173.4-3.2,197,20.4c0,0,26.1-12,37.2-0.8c11.1,11.1-0.8,37.2-0.8,37.2C248.7,72.2,258.4,104.8,246.4,142.7z"/>
		<path class="st37" d="M31.2,164.7c-5.9-20.4-4.1-40.7,5.5-61.1"/>
	</g>
	<path class="st19" d="M250.8,121c-3.4,25.4-16.4,54.7-45,83.3c-30.1,30.1-60.9,43-87.2,45.5c-27.4,2.6-50-6-62-18
		c13.6-0.7,26.5-2.3,38.6-4.7c-11.3-15.5-17.9-34.7-17.9-55.3c0-52.1,42.2-94.3,94.2-94.3c20.7,0,39.9,6.7,55.5,18.1
		c2.9-12.7,5.1-26.2,6.4-40.6C245.9,67.5,254.7,91.8,250.8,121z"/>
	<g>
		<path class="st1" d="M231.7,171.8l-60.2,0l0,60.3c-16.6,0-31.7-6.8-42.6-17.7c-10.9-10.9-17.6-26-17.6-42.6
			c0-16.7,6.7-31.7,17.6-42.6c10.9-10.9,26-17.7,42.6-17.7s31.7,6.8,42.6,17.7C225,140,231.7,155.1,231.7,171.8z"/>
		<path class="st1" d="M246.4,142.7c-11.6-30.1-40.8-51.4-74.9-51.4c-44.4,0-80.3,36-80.3,80.4c0,34.1,21.3,63.3,51.3,75
			c-37.9,12.1-70.5,2.3-85.9-13.1c0,0-26.1,12-37.2,0.8c-11.1-11.1,0.9-37.2,0.9-37.2c-23.6-23.6-26.8-95,27.5-149.4
			S173.4-3.2,197,20.4c0,0,26.1-12,37.2-0.8c11.1,11.1-0.8,37.2-0.8,37.2C248.7,72.2,258.4,104.8,246.4,142.7z"/>
		<path class="st1" d="M31.2,164.7c-5.9-20.4-4.1-40.7,5.5-61.1"/>
	</g>
	<g>
		<path class="st1" d="M246.4,142.7c-11.6-30.1-40.8-51.4-74.9-51.4c-44.4,0-80.3,36-80.3,80.4c0,34.1,21.3,63.3,51.3,75
			c9,3.5,18.8,5.4,29,5.4c44.4,0,80.3-36,80.3-80.4C251.8,161.5,249.8,151.7,246.4,142.7z M231.6,174.1
			c-0.6,15.7-7.2,29.9-17.6,40.3c-10.4,10.4-24.5,17-40.3,17.6c-0.8,0-1.6,0-2.3,0c-16.6,0-31.7-6.8-42.6-17.7
			c-10.9-10.9-17.6-26-17.6-42.6c0-16.7,6.7-31.7,17.6-42.6c10.9-10.9,26-17.7,42.6-17.7s31.7,6.8,42.6,17.7v0
			c10.9,10.9,17.6,26,17.6,42.6C231.7,172.6,231.7,173.3,231.6,174.1z"/>
		<path class="st39" d="M246.4,142.7c-11.6-30.1-40.8-51.4-74.9-51.4c-44.4,0-80.3,36-80.3,80.4c0,34.1,21.3,63.3,51.3,75
			c9,3.5,18.8,5.4,29,5.4c44.4,0,80.3-36,80.3-80.4C251.8,161.5,249.8,151.7,246.4,142.7z M231.6,174.1
			c-0.6,15.7-7.2,29.9-17.6,40.3c-10.4,10.4-24.5,17-40.3,17.6c-0.8,0-1.6,0-2.3,0c-16.6,0-31.7-6.8-42.6-17.7
			c-10.9-10.9-17.6-26-17.6-42.6c0-16.7,6.7-31.7,17.6-42.6c10.9-10.9,26-17.7,42.6-17.7s31.7,6.8,42.6,17.7v0
			c10.9,10.9,17.6,26,17.6,42.6C231.7,172.6,231.7,173.3,231.6,174.1z"/>
		<path class="st40" d="M231.7,171.8l-60.2,0l42.6-42.6C224.9,140,231.7,155.1,231.7,171.8z"/>
		<path class="st40" d="M214,214.4c-10.4,10.4-24.5,17-40.3,17.6c-0.8,0-1.6,0-2.3,0l0-60.3L214,214.4z"/>
		<path class="st40" d="M231.7,171.8c0,0.8,0,1.6,0,2.3c-0.6,15.7-7.2,29.9-17.6,40.3l-42.6-42.6L231.7,171.8z"/>
		<path class="st40" d="M214,129.1L214,129.1l-42.6,42.6l0-60.3C188.1,111.5,203.1,118.2,214,129.1z"/>
		<path class="st40" d="M171.5,111.5l0,60.3l-42.6-42.6C139.8,118.2,154.8,111.5,171.5,111.5z"/>
		<path class="st40" d="M171.4,171.8l-60.2,0c0-16.7,6.7-31.7,17.6-42.6L171.4,171.8z"/>
		<path class="st40" d="M171.4,171.8l-42.6,42.6c-10.9-10.9-17.6-26-17.6-42.6L171.4,171.8z"/>
		<path class="st40" d="M171.4,171.8l0,60.3c-16.6,0-31.7-6.8-42.6-17.7L171.4,171.8z"/>
		<path class="st40" d="M231.7,171.8l-60.2,0l42.6-42.6C224.9,140,231.7,155.1,231.7,171.8z"/>
		<line class="st40" x1="214.1" y1="129.1" x2="214" y2="129.1"/>
	</g>
</g>
</svg>
