<?xml version="1.0" encoding="utf-8"?>
<!-- Generator: Adobe Illustrator 22.1.0, SVG Export Plug-In . SVG Version: 6.00 Build 0)  -->
<svg version="1.1" id="Layer_1" xmlns="http://www.w3.org/2000/svg" xmlns:xlink="http://www.w3.org/1999/xlink" x="0px" y="0px"
	 viewBox="0 0 256 256" style="enable-background:new 0 0 256 256;" xml:space="preserve">
<style type="text/css">
	.st0{fill:#464646;stroke:#464646;stroke-width:8;stroke-linecap:round;stroke-linejoin:round;stroke-miterlimit:10;}
	.st1{fill:#464646;stroke:#FFFFFF;stroke-width:8;stroke-linecap:round;stroke-linejoin:round;stroke-miterlimit:10;}
	.st2{opacity:0.15;fill:#464646;stroke:#FFFFFF;stroke-miterlimit:10;}
	.st3{fill:#464646;stroke:#FFFFFF;stroke-miterlimit:10;}
	.st4{fill:none;stroke:#464646;stroke-width:8;stroke-linecap:round;stroke-linejoin:round;stroke-miterlimit:10;}
	.st5{opacity:0.1;}
	.st6{opacity:0.3;fill:#464646;stroke:#FFFFFF;stroke-miterlimit:10;}
	.st7{fill:#FFFFFF;stroke:#464646;stroke-width:8;stroke-linecap:round;stroke-linejoin:round;stroke-miterlimit:10;}
	.st8{opacity:0.1;fill:#464646;stroke:#FFFFFF;stroke-miterlimit:10;}
	.st9{fill:none;stroke:#6D6E71;stroke-width:5;stroke-linecap:round;stroke-linejoin:round;stroke-miterlimit:10;}
	.st10{fill:none;stroke:#FFFFFF;stroke-width:8;stroke-linecap:round;stroke-linejoin:round;stroke-miterlimit:10;}
	.st11{opacity:0.15;}
	.st12{fill:#FFFFFF;}
	.st13{fill:#464646;stroke:#464646;stroke-width:10;stroke-linecap:round;stroke-linejoin:round;stroke-miterlimit:10;}
	.st14{fill:#464646;stroke:#464646;stroke-miterlimit:10;}
	.st15{fill:#464646;stroke:#FFFFFF;stroke-width:8;stroke-miterlimit:10;}
	.st16{opacity:0.2;fill:#464646;stroke:#FFFFFF;stroke-miterlimit:10;}
</style>
<g>
	<path class="st1" d="M200,178.2c-55.4,54.5-140.2,87.4-173,68.4c2.7-7.7,11.9-17.4,8.4-24.3c-3.1-6.1-8.3-10.9-12.3-13.8
		c19.7-19.8,68.4-36.5,100.3-63.1c46.2-38.4,40.6-47.2,45.5-65c4.9-17.8,10.7-25,13.2-36.9c2.5-11.9-17.3-25.6-14.3-30.4
		c3-4.7,13.8-10.6,20.1-8.7c6.2,1.9,9.1,31.9,14.6,34.7C254.4,56.8,255.5,123.7,200,178.2z"/>
	<path class="st1" d="M27.1,246.6c-3.6-2.1-6.5-4.9-8.7-8.4c-1.4-2.3-2.4-4.5-3-6.7c-2.5-8.5,0.9-16,7.9-23.1
		c3.9,3,9.2,7.7,12.3,13.8C39,229.2,29.8,238.9,27.1,246.6z"/>
	<path class="st10" d="M35.5,222.2c82.1-38.3,156.8-84,161.6-156.5"/>
</g>
</svg>
