<?xml version="1.0" encoding="utf-8"?>
<!-- Generator: Adobe Illustrator 22.1.0, SVG Export Plug-In . SVG Version: 6.00 Build 0)  -->
<svg version="1.1" id="Layer_1" xmlns="http://www.w3.org/2000/svg" xmlns:xlink="http://www.w3.org/1999/xlink" x="0px" y="0px"
	 viewBox="0 0 256 256" style="enable-background:new 0 0 256 256;" xml:space="preserve">
<style type="text/css">
	.st0{fill:#464646;stroke:#464646;stroke-width:8;stroke-linecap:round;stroke-linejoin:round;stroke-miterlimit:10;}
	.st1{fill:#464646;stroke:#FFFFFF;stroke-width:8;stroke-linecap:round;stroke-linejoin:round;stroke-miterlimit:10;}
	.st2{opacity:0.15;fill:#464646;stroke:#FFFFFF;stroke-miterlimit:10;}
	.st3{fill:#464646;stroke:#FFFFFF;stroke-miterlimit:10;}
	.st4{fill:none;stroke:#464646;stroke-width:8;stroke-linecap:round;stroke-linejoin:round;stroke-miterlimit:10;}
	.st5{opacity:0.1;}
	.st6{opacity:0.3;fill:#464646;stroke:#FFFFFF;stroke-miterlimit:10;}
	.st7{fill:#FFFFFF;stroke:#464646;stroke-width:8;stroke-linecap:round;stroke-linejoin:round;stroke-miterlimit:10;}
	.st8{opacity:0.1;fill:#464646;stroke:#FFFFFF;stroke-miterlimit:10;}
	.st9{fill:none;stroke:#6D6E71;stroke-width:5;stroke-linecap:round;stroke-linejoin:round;stroke-miterlimit:10;}
	.st10{fill:none;stroke:#FFFFFF;stroke-width:8;stroke-linecap:round;stroke-linejoin:round;stroke-miterlimit:10;}
	.st11{opacity:0.15;}
	.st12{fill:#FFFFFF;}
	.st13{fill:#464646;stroke:#464646;stroke-width:10;stroke-linecap:round;stroke-linejoin:round;stroke-miterlimit:10;}
	.st14{fill:#464646;stroke:#464646;stroke-miterlimit:10;}
	.st15{fill:#464646;stroke:#FFFFFF;stroke-width:8;stroke-miterlimit:10;}
	.st16{opacity:0.2;fill:#464646;stroke:#FFFFFF;stroke-miterlimit:10;}
</style>
<g>
	<path class="st0" d="M19.3,238.6C-8.3,211,8.7,89.2,52.9,53.6c21.3-17.1,44-20.3,65.6-15.2c7.2,18.1,30.6,29.9,62.4,38.5
		c12.4,27.2,24.6,56.6,39,64.9c4.3,20.9,0.7,42.7-15.8,63.2C168.5,249.2,46.9,266.2,19.3,238.6z"/>
	<g>
		<line class="st1" x1="116.7" y1="68.2" x2="111.7" y2="73.1"/>
		<line class="st1" x1="182.3" y1="133.8" x2="177.3" y2="138.8"/>
		<line class="st1" x1="73.2" y1="78.9" x2="68.2" y2="83.8"/>
		<line class="st1" x1="106" y1="111.7" x2="101" y2="116.7"/>
		<line class="st1" x1="171.6" y1="177.4" x2="166.6" y2="182.3"/>
		<line class="st1" x1="138.8" y1="144.5" x2="133.8" y2="149.5"/>
		<line class="st1" x1="62.5" y1="122.4" x2="57.5" y2="127.4"/>
		<line class="st1" x1="95.3" y1="155.2" x2="90.3" y2="160.2"/>
		<line class="st1" x1="128.1" y1="188.1" x2="123.1" y2="193"/>
		<line class="st1" x1="51.8" y1="165.9" x2="46.8" y2="170.9"/>
		<line class="st1" x1="84.6" y1="198.8" x2="79.6" y2="203.7"/>
		<line class="st1" x1="41.1" y1="209.4" x2="36.2" y2="214.4"/>
		<line class="st1" x1="149.5" y1="101" x2="144.5" y2="106"/>
	</g>
	<path class="st1" d="M219.9,141.8C219.9,141.8,219.9,141.8,219.9,141.8c-14.4-8.3-26.6-37.8-39-65c-31.7-8.6-55.1-20.4-62.4-38.5
		c-0.8-2.1-1.5-4.3-1.9-6.5c16.1-5.9,34.4,3.7,53.7,20.1c-4.8-15.3-0.4-31.4,9.9-48c22.1,20.3,21,40,13.8,59.6
		c0,0,60.5-2.9,55.7,18.2c-11.7,8.1-44.1,3.3-44.1,3.3C221.1,110.5,225,128.9,219.9,141.8z"/>
	<path class="st4" d="M189.1,68.7c18.6-17.2,37-26.9,54.9-21.2"/>
</g>
</svg>
