<svg width="96" height="96" viewBox="0 0 96 96" fill="none" xmlns="http://www.w3.org/2000/svg">
<path d="M42.9312 54.4375C42.9312 52.2284 44.722 50.4375 46.9312 50.4375H48.8062C51.0153 50.4375 52.8062 52.2284 52.8062 54.4375V77.6875C52.8062 79.8966 51.0153 81.6875 48.8062 81.6875H46.9312C44.722 81.6875 42.9312 79.8966 42.9312 77.6875V54.4375Z" fill="#5D9829"/>
<path fill-rule="evenodd" clip-rule="evenodd" d="M46.9312 48.4375H48.8062C52.1199 48.4375 54.8062 51.1238 54.8062 54.4375V77.6875C54.8062 81.0012 52.1199 83.6875 48.8062 83.6875H46.9312C43.6174 83.6875 40.9312 81.0012 40.9312 77.6875V54.4375C40.9312 51.1238 43.6174 48.4375 46.9312 48.4375ZM46.9312 50.4375C44.722 50.4375 42.9312 52.2284 42.9312 54.4375V77.6875C42.9312 79.8966 44.722 81.6875 46.9312 81.6875H48.8062C51.0153 81.6875 52.8062 79.8966 52.8062 77.6875V54.4375C52.8062 52.2284 51.0153 50.4375 48.8062 50.4375H46.9312Z" fill="#345B11"/>
<path fill-rule="evenodd" clip-rule="evenodd" d="M46.8687 81.687C46.8894 81.6873 46.9103 81.6875 46.9312 81.6875H48.8062C51.0153 81.6875 52.8062 79.8966 52.8062 77.6875V54.4375C52.8062 52.2284 51.0153 50.4375 48.8062 50.4375H46.9312C46.9103 50.4375 46.8894 50.4377 46.8687 50.438C49.049 50.4714 50.8062 52.2492 50.8062 54.4375V77.6875C50.8062 79.8758 49.049 81.6536 46.8687 81.687Z" fill="#4B801D"/>
<path fill-rule="evenodd" clip-rule="evenodd" d="M46.9312 50.4375C44.722 50.4375 42.9312 52.2284 42.9312 54.4375V77.6875C42.9312 79.8966 44.722 81.6875 46.9312 81.6875H48.8062C48.827 81.6875 48.8479 81.6873 48.8687 81.687C46.6883 81.6536 44.9312 79.8758 44.9312 77.6875V54.4375C44.9312 52.2492 46.6883 50.4714 48.8687 50.438C48.8479 50.4377 48.827 50.4375 48.8062 50.4375H46.9312Z" fill="#71B635"/>
<path d="M60.4937 29.5625C60.4937 37.9848 54.7853 44.8125 47.7437 44.8125C40.702 44.8125 34.9937 37.9848 34.9937 29.5625C34.9937 21.1402 40.702 14.3125 47.7437 14.3125C54.7853 14.3125 60.4937 21.1402 60.4937 29.5625Z" fill="#A3F956"/>
<path fill-rule="evenodd" clip-rule="evenodd" d="M62.4937 29.5625C62.4937 38.7391 56.2103 46.8125 47.7437 46.8125C39.277 46.8125 32.9937 38.7391 32.9937 29.5625C32.9937 20.3859 39.277 12.3125 47.7437 12.3125C56.2103 12.3125 62.4937 20.3859 62.4937 29.5625ZM47.7437 44.8125C54.7853 44.8125 60.4937 37.9848 60.4937 29.5625C60.4937 21.1402 54.7853 14.3125 47.7437 14.3125C40.702 14.3125 34.9937 21.1402 34.9937 29.5625C34.9937 37.9848 40.702 44.8125 47.7437 44.8125Z" fill="#2C7E12"/>
<path fill-rule="evenodd" clip-rule="evenodd" d="M52.6478 43.6436C52.0266 43.7549 51.3908 43.8125 50.7437 43.8125C43.702 43.8125 37.9937 36.9849 37.9937 28.5625C37.9937 22.2188 41.2321 16.7797 45.8395 14.4814C39.7011 15.5809 34.9937 21.9142 34.9937 29.5625C34.9937 37.9849 40.702 44.8125 47.7437 44.8125C49.4815 44.8125 51.1381 44.3967 52.6478 43.6436Z" fill="#C9FF99"/>
<path d="M31.9937 25.625C37.7742 25.563 39.956 28.4411 40.6809 30.7649C42.1962 24.8781 45.8956 22.4253 47.5559 21.9347C51.9333 22.8022 54.1489 28.2426 54.5464 31.3409C57.0719 24.8965 61.6009 24.8981 64.0563 24.5625C64.7866 32.652 63.4291 45.5001 47.5559 45.5001C32.6005 45.5001 31.1325 33.4947 31.9937 25.625Z" fill="#8AD746"/>
<path fill-rule="evenodd" clip-rule="evenodd" d="M31.9937 25.625C35.8046 25.5841 38.0514 26.8211 39.3478 28.3346C40.0178 29.1169 40.434 29.9731 40.681 30.7649C40.9381 29.7659 41.2581 28.8659 41.6204 28.0575C43.393 24.1021 46.1773 22.342 47.5559 21.9347C50.706 22.559 52.7365 25.5513 53.7757 28.3348C54.1806 29.4193 54.435 30.4722 54.5464 31.3409C54.9726 30.2534 55.4559 29.3494 55.9766 28.5964C57.8283 25.9187 60.1538 25.1503 62.0718 24.8249C62.5546 24.743 63.0117 24.6892 63.4288 24.6401C63.6499 24.6141 63.8597 24.5894 64.0563 24.5625C64.1141 25.2025 64.1588 25.8723 64.1843 26.5632C64.4809 34.6046 62.1733 45.5001 47.5559 45.5001C32.6005 45.5001 31.1325 33.4947 31.9937 25.625ZM55.1399 26.4151C56.156 25.2442 57.2863 24.4255 58.4582 23.8598C60.2671 22.9866 62.1189 22.7749 63.2627 22.6441C63.4591 22.6216 63.6346 22.6015 63.7854 22.5809C64.3267 22.5069 64.8747 22.6576 65.3021 22.9979C65.7295 23.3382 65.9991 23.8386 66.0482 24.3827C66.4247 28.5536 66.3056 34.2602 63.8006 38.9994C62.5273 41.4084 60.6372 43.5656 57.9195 45.1061C55.2115 46.641 51.7948 47.5001 47.5559 47.5001C43.5491 47.5001 40.3009 46.6948 37.716 45.2459C35.1209 43.7912 33.3044 41.7489 32.0795 39.456C29.6703 34.9459 29.5583 29.495 30.0056 25.4074C30.1157 24.4013 30.9602 23.636 31.9723 23.6251C35.206 23.5905 37.6452 24.3812 39.4205 25.6908C39.709 25.9037 39.9755 26.1269 40.2214 26.3578C42.228 22.4919 45.1502 20.56 46.9892 20.0167C47.2994 19.925 47.6273 19.91 47.9447 19.9728C50.8873 20.556 52.9365 22.6397 54.2434 24.7473C54.5793 25.289 54.8778 25.8499 55.1399 26.4151Z" fill="#2C7E12"/>
<path fill-rule="evenodd" clip-rule="evenodd" d="M47.0622 45.4956C47.2251 45.4986 47.3896 45.5001 47.5557 45.5001C63.429 45.5001 64.7864 32.652 64.0561 24.5625C63.8596 24.5894 63.6497 24.6141 63.4287 24.6401C63.3111 24.6539 63.1904 24.6682 63.0669 24.6833C63.765 32.6918 62.3807 45.226 47.0622 45.4956ZM54.2431 29.8105C53.4348 26.7121 51.276 22.672 47.5557 21.9347C47.4292 21.9721 47.2909 22.0208 47.1426 22.0817C51.132 23.2947 53.1669 28.3843 53.5463 31.3409C53.7645 30.7841 53.9977 30.2754 54.2431 29.8105ZM40.0912 29.3972C38.9913 27.449 36.6702 25.5749 31.9936 25.625C31.9929 25.6315 31.9922 25.6381 31.9915 25.6446C37.0296 25.9049 38.9992 28.5799 39.6808 30.7649C39.804 30.2866 39.9415 29.8309 40.0912 29.3972Z" fill="#7BC539"/>
<path d="M36.6751 31.1923C37.2339 33.264 36.8747 35.1626 35.8726 35.4329C34.8706 35.7033 33.6052 34.2429 33.0463 32.1712C32.4875 30.0995 32.8467 28.2009 33.8488 27.9306C34.8508 27.6603 36.1162 29.1206 36.6751 31.1923Z" fill="#B4FC73"/>
<path d="M27.9988 34.438C34.8819 34.3656 38.3291 39.773 39.1922 42.4857C40.9965 35.6135 45.4015 32.7501 47.3785 32.1774C52.5909 33.1901 55.229 39.5412 55.7024 43.1582C58.7096 35.6349 64.9204 34.1064 67.8441 33.7146C68.7137 43.1582 66.2794 59.6875 47.3785 59.6875C29.5705 59.6875 26.9733 43.625 27.9988 34.438Z" fill="#8ED74D"/>
<path fill-rule="evenodd" clip-rule="evenodd" d="M27.9989 34.438C33.0332 34.3851 36.2295 37.2636 37.921 39.8751C38.5422 40.8341 38.9604 41.7571 39.1923 42.4857C39.458 41.4738 39.78 40.5488 40.1424 39.7052C42.2412 34.8199 45.6927 32.6657 47.3785 32.1774C51.3028 32.9398 53.7679 36.7281 54.9487 40.0974C55.3363 41.2034 55.5855 42.2643 55.7024 43.1582C56.122 42.1086 56.6039 41.1757 57.1305 40.3463C59.6626 36.3582 63.2289 34.7627 65.87 34.0934C66.6168 33.9041 67.2896 33.7889 67.8441 33.7146C67.9028 34.3519 67.9465 35.0214 67.971 35.716C68.3102 45.3138 65.0039 59.6875 47.3785 59.6875C29.5706 59.6875 26.9734 43.625 27.9989 34.438ZM56.2915 38.0509C59.954 33.2581 65.0045 32.0773 67.5785 31.7323C68.1184 31.6599 68.6646 31.811 69.0906 32.1505C69.5167 32.49 69.7858 32.9887 69.8357 33.5312C70.2889 38.4532 69.9092 45.3943 66.786 51.191C65.2075 54.1206 62.9192 56.7711 59.6897 58.6792C56.4613 60.5866 52.4018 61.6875 47.3785 61.6875C37.7281 61.6875 31.9515 57.2577 28.8604 51.4472C25.8587 45.8044 25.4722 39.045 26.0112 34.2161C26.1233 33.2117 26.9672 32.4487 27.9778 32.4381C33.2195 32.383 36.7439 35.0209 38.8534 37.7456C41.2069 33.1272 44.7067 30.8691 46.822 30.2563C47.1269 30.168 47.4484 30.1535 47.76 30.2141C51.1089 30.8648 53.475 33.1984 55.0079 35.6221C55.5047 36.4076 55.9318 37.2289 56.2915 38.0509Z" fill="#2C7E12"/>
<path fill-rule="evenodd" clip-rule="evenodd" d="M36.8539 57.1297C39.5619 58.7223 43.0132 59.6875 47.3786 59.6875C66.2795 59.6875 68.7138 43.1582 67.8442 33.7146C67.3077 33.7865 66.6605 33.8966 65.9428 34.0751C66.4519 43.6592 63.4009 58.6875 45.3786 58.6875C42.0227 58.6875 39.207 58.1171 36.8539 57.1297ZM54.846 39.8121C53.7261 36.7825 51.5765 33.4956 48.2726 32.4101C51.585 34.6878 53.3266 39.2854 53.7025 42.1582C54.0453 41.3007 54.4297 40.5211 54.846 39.8121ZM37.7687 39.6451C36.6012 37.9237 34.7821 36.1277 32.2173 35.1597C35.0591 36.9626 36.6451 39.7657 37.1924 41.4857C37.3627 40.8369 37.5562 40.2238 37.7687 39.6451Z" fill="#7ABE3D"/>
<path d="M34.2299 40.6004C35.3837 42.9665 35.3244 45.3696 34.0975 45.9679C32.8706 46.5662 30.9407 45.1331 29.7869 42.767C28.6331 40.4009 28.6924 37.9978 29.9193 37.3995C31.1462 36.8012 33.0761 38.2343 34.2299 40.6004Z" fill="#A7EC68"/>
<path d="M23.5685 43.4114C32.0285 43.3292 36.2653 49.4688 37.3262 52.5489C39.5438 44.7461 44.958 41.4949 47.3878 40.8446C53.7943 41.9945 57.0368 49.2057 57.6187 53.3125C61.3147 44.7704 68.9484 43.0349 72.5418 42.59C73.2605 51.4538 70.6187 67.5386 47.3878 67.5386C25.5003 67.5386 22.4049 50.9062 23.5685 43.4114Z" fill="#84C44A"/>
<path fill-rule="evenodd" clip-rule="evenodd" d="M23.5686 43.4114C30.0621 43.3483 34.0676 46.9508 36.0586 50.0218C36.6615 50.9518 37.0797 51.833 37.3262 52.5489C37.6011 51.5818 37.9251 50.6846 38.2864 49.8536C40.8401 43.9801 45.2592 41.4143 47.3878 40.8446C52.4227 41.7483 55.5034 46.3957 56.8741 50.3377C57.2476 51.4117 57.4941 52.4332 57.6187 53.3125C58.0491 52.3177 58.533 51.4151 59.0577 50.5962C62.3244 45.4976 67.1729 43.64 70.5616 42.9205C71.3019 42.7633 71.9726 42.6605 72.5419 42.59C72.5933 43.2238 72.6275 43.8946 72.6382 44.5938C72.7774 53.672 68.9574 67.5386 47.3878 67.5386C25.5003 67.5386 22.405 50.9062 23.5686 43.4114ZM58.224 48.2904C62.68 42.3783 69.1199 40.9984 72.2961 40.6051C72.8371 40.5382 73.382 40.6949 73.8047 41.0391C74.2274 41.3832 74.4913 41.885 74.5353 42.4284C74.9127 47.0827 74.4368 53.8484 70.6018 59.5099C66.6771 65.3037 59.5142 69.5386 47.3878 69.5386C35.8644 69.5386 28.9476 65.116 25.1651 59.3876C21.4706 53.7928 20.9513 47.2328 21.5922 43.1045C21.7424 42.1374 22.5704 41.4209 23.5491 41.4114C30.1743 41.3471 34.5291 44.6546 36.9984 47.8933C39.8574 42.2478 44.3386 39.5902 46.8708 38.9126C47.1547 38.8366 47.4519 38.8241 47.7412 38.8761C51.6419 39.5762 54.4653 42.1049 56.3378 44.8399C57.0983 45.9507 57.7254 47.1274 58.224 48.2904Z" fill="#2C7E12"/>
<path fill-rule="evenodd" clip-rule="evenodd" d="M30.6522 62.5013C34.3329 65.4875 39.7017 67.5386 47.3879 67.5386C70.6188 67.5386 73.2606 51.4537 72.5419 42.59C71.7449 42.6886 70.7492 42.8508 69.6418 43.1366C69.6198 52.2138 65.5319 65.5386 44.3879 65.5386C38.5744 65.5386 34.0866 64.3652 30.6522 62.5013ZM56.1237 48.494C54.8097 45.6902 52.6597 42.8748 49.5931 41.5198C52.6009 44.3015 54.2236 48.5231 54.6187 51.3125C55.0672 50.2761 55.5736 49.3399 56.1237 48.494ZM34.989 48.5749C33.8476 47.2118 32.3116 45.871 30.342 44.8972C32.5186 46.7862 33.8053 49.0364 34.3263 50.5489C34.5234 49.8554 34.7458 49.1978 34.989 48.5749Z" fill="#6FB033"/>
<path d="M69.8911 52.9821C69.4518 53.5977 68.5967 53.7407 67.9811 53.3014C67.3655 52.8622 67.2225 52.0071 67.6617 51.3915C68.101 50.7759 68.9561 50.6329 69.5717 51.0721C70.1873 51.5113 70.3303 52.3665 69.8911 52.9821Z" fill="#5C9A25"/>
<path d="M66.633 58.352C66.1938 58.9676 65.3387 59.1106 64.723 58.6713C64.1074 58.2321 63.9644 57.377 64.4037 56.7613C64.8429 56.1457 65.698 56.0027 66.3136 56.442C66.9293 56.8812 67.0723 57.7363 66.633 58.352Z" fill="#5C9A25"/>
<path d="M66.1148 54.2158C65.7854 54.6775 65.1441 54.7847 64.6824 54.4553C64.2206 54.1259 64.1134 53.4845 64.4428 53.0228C64.7723 52.5611 65.4136 52.4539 65.8753 52.7833C66.337 53.1127 66.4443 53.7541 66.1148 54.2158Z" fill="#5C9A25"/>
<path d="M71.0448 48.8871C70.7153 49.3488 70.074 49.4561 69.6123 49.1266C69.1506 48.7972 69.0433 48.1559 69.3728 47.6942C69.7022 47.2324 70.3435 47.1252 70.8052 47.4546C71.267 47.7841 71.3742 48.4254 71.0448 48.8871Z" fill="#5C9A25"/>
<path d="M63.2336 61.9525C62.7944 62.5682 61.9392 62.7111 61.3236 62.2719C60.708 61.8327 60.565 60.9775 61.0043 60.3619C61.4435 59.7463 62.2986 59.6033 62.9142 60.0426C63.5299 60.4818 63.6728 61.3369 63.2336 61.9525Z" fill="#5C9A25"/>
<path d="M61.8513 57.5246C61.412 58.1402 60.5569 58.2832 59.9413 57.844C59.3257 57.4048 59.1827 56.5496 59.6219 55.934C60.0612 55.3184 60.9163 55.1754 61.5319 55.6146C62.1475 56.0539 62.2905 56.909 61.8513 57.5246Z" fill="#5C9A25"/>
<path d="M58.1616 64.0687C57.7223 64.6843 56.8672 64.8273 56.2516 64.3881C55.636 63.9488 55.493 63.0937 55.9322 62.4781C56.3715 61.8625 57.2266 61.7195 57.8422 62.1587C58.4578 62.5979 58.6008 63.4531 58.1616 64.0687Z" fill="#5C9A25"/>
<path d="M57.5622 59.7646C57.123 60.3802 56.2679 60.5232 55.6522 60.084C55.0366 59.6447 54.8936 58.7896 55.3329 58.174C55.7721 57.5584 56.6272 57.4154 57.2428 57.8546C57.8585 58.2939 58.0015 59.149 57.5622 59.7646Z" fill="#5C9A25"/>
<path d="M52.8233 64.8811C52.4939 65.3429 51.8526 65.4501 51.3909 65.1207C50.9291 64.7912 50.8219 64.1499 51.1513 63.6882C51.4808 63.2265 52.1221 63.1192 52.5838 63.4487C53.0455 63.7781 53.1528 64.4194 52.8233 64.8811Z" fill="#5C9A25"/>
<path d="M31.4655 49.6281C33.1735 52.2986 33.4356 55.1814 32.0508 56.0671C30.666 56.9528 28.1588 55.5059 26.4508 52.8354C24.7428 50.1649 24.4807 47.282 25.8655 46.3963C27.2503 45.5107 29.7575 46.9576 31.4655 49.6281Z" fill="#A7EC68"/>
<path d="M48.6829 43.3242C49.2016 44.1352 48.4995 45.5107 47.1147 46.3963C45.73 47.282 44.1869 47.3426 43.6682 46.5316C43.1495 45.7206 43.8516 44.3451 45.2363 43.4594C46.6211 42.5738 48.1642 42.5132 48.6829 43.3242Z" fill="#A7EC68"/>
<path d="M48.6106 34.0786C48.9532 34.6142 48.4895 35.5226 47.575 36.1076C46.6604 36.6925 45.6413 36.7325 45.2987 36.1969C44.9562 35.6612 45.4199 34.7529 46.3344 34.1679C47.2489 33.583 48.268 33.543 48.6106 34.0786Z" fill="#A7EC68"/>
<path d="M48.2483 25.3532C48.5909 25.8888 48.1272 26.7972 47.2126 27.3821C46.2981 27.967 45.279 28.007 44.9364 27.4714C44.5939 26.9358 45.0575 26.0274 45.9721 25.4425C46.8866 24.8575 47.9057 24.8176 48.2483 25.3532Z" fill="#B4FC73"/>
<path fill-rule="evenodd" clip-rule="evenodd" d="M26.6594 47.4234C27.2022 47.3216 27.7248 47.6791 27.8266 48.222C27.9697 48.9852 28.4564 49.8548 29.1445 50.5429C29.5351 50.9334 29.5351 51.5666 29.1445 51.9571C28.754 52.3476 28.1209 52.3476 27.7303 51.9571C26.8184 51.0452 26.0927 49.8273 25.8608 48.5905C25.759 48.0477 26.1166 47.5252 26.6594 47.4234Z" fill="white"/>
</svg>
