<svg width="96" height="96" viewBox="0 0 96 96" fill="none" xmlns="http://www.w3.org/2000/svg">
<path d="M37.5996 27.8835C41.0005 30.442 38.5356 45.328 41.6451 51.3918C40.4025 54.4729 35.9971 52.1799 34.5488 51.5207C32.7581 38.176 36.0911 26.7487 37.5996 27.8835Z" fill="#24B517"/>
<path fill-rule="evenodd" clip-rule="evenodd" d="M37.6837 28.7202C37.6837 28.7201 37.6819 28.7214 37.6784 28.7244C37.6819 28.7219 37.6837 28.7203 37.6837 28.7202ZM37.3908 29.1364C37.3184 29.266 37.2371 29.4279 37.1489 29.6267C36.6969 30.6463 36.2126 32.2999 35.8209 34.4514C35.0619 38.6202 34.6808 44.4911 35.4698 50.8449C36.2533 51.2072 37.3186 51.6803 38.359 51.8761C38.9958 51.9959 39.5134 51.9873 39.8931 51.8579C40.1321 51.7765 40.3502 51.6376 40.5298 51.3756C39.8129 49.7608 39.4243 47.7378 39.1858 45.6328C38.9405 43.4685 38.8447 41.116 38.7536 38.8816C38.7466 38.7084 38.7396 38.5359 38.7325 38.3643C38.6332 35.9518 38.5265 33.7226 38.2417 31.9411C38.0997 31.0525 37.9194 30.3175 37.6932 29.7492C37.5942 29.5006 37.4924 29.2988 37.3908 29.1364ZM33.8532 34.0932C33.0378 38.5719 32.6475 44.8704 33.5577 51.6537L33.6313 52.2017L34.1346 52.4308C34.2144 52.4671 34.3077 52.5108 34.4128 52.5599C35.1841 52.9205 36.5917 53.5786 37.9891 53.8416C38.79 53.9923 39.6972 54.0376 40.5383 53.751C41.4288 53.4476 42.155 52.801 42.5725 51.7658L42.7434 51.3421L42.5349 50.9355C41.8432 49.5866 41.4293 47.6684 41.1731 45.4076C40.9363 43.3186 40.8432 41.036 40.7513 38.784C40.7445 38.6164 40.7377 38.4491 40.7308 38.282C40.6325 35.8952 40.5234 33.5441 40.2167 31.6254C40.0629 30.6639 39.8536 29.7689 39.5514 29.0097C39.2524 28.2583 38.8303 27.558 38.2007 27.0844C37.8825 26.8449 37.4812 26.7467 37.0725 26.8409C36.7137 26.9235 36.4428 27.1326 36.258 27.3157C35.891 27.6795 35.5833 28.2234 35.3205 28.8162C34.7793 30.0371 34.2595 31.8616 33.8532 34.0932Z" fill="#07872B"/>
<path d="M53.7068 28.027C50.6255 30.9626 54.7999 45.4624 52.4146 51.8459C54.0061 54.7621 58.1159 51.9737 59.4779 51.151C59.7091 37.6886 55.0735 26.725 53.7068 28.027Z" fill="#24B517"/>
<path fill-rule="evenodd" clip-rule="evenodd" d="M53.7203 28.8678C53.7203 28.8677 53.7222 28.8688 53.726 28.8714C53.7222 28.8693 53.7203 28.868 53.7203 28.8678ZM54.0594 29.2473C54.1463 29.3677 54.2459 29.519 54.3566 29.7063C54.9237 30.6665 55.5966 32.2528 56.2351 34.3444C57.4724 38.3971 58.5316 44.1842 58.4847 50.5865C57.7485 51.0373 56.7453 51.6308 55.7347 51.9458C55.116 52.1387 54.6009 52.1902 54.2087 52.1057C53.9619 52.0525 53.7292 51.9399 53.5205 51.7004C54.0453 50.0134 54.1966 47.959 54.1895 45.8406C54.1821 43.6624 54.0045 41.3147 53.8358 39.0848C53.8228 38.9119 53.8097 38.7398 53.7969 38.5685C53.6158 36.1608 53.4632 33.9342 53.5395 32.1318C53.5775 31.2327 53.6714 30.4817 53.8301 29.891C53.8996 29.6326 53.9774 29.4204 54.0594 29.2473ZM58.148 33.7604C59.4772 38.1144 60.5952 44.3251 60.4777 51.1682L60.4682 51.7211L59.9949 52.007C59.9198 52.0523 59.8322 52.1064 59.7336 52.1674C59.0093 52.6151 57.6874 53.432 56.3299 53.8552C55.552 54.0977 54.6561 54.248 53.7875 54.0608C52.8678 53.8627 52.0715 53.3047 51.5368 52.3249L51.3179 51.9239L51.4779 51.4959C52.0085 50.0758 52.1972 48.1226 52.1895 45.8473C52.1824 43.7449 52.0102 41.467 51.8403 39.2195C51.8277 39.0523 51.815 38.8853 51.8025 38.7185C51.6233 36.3364 51.4591 33.9885 51.5413 32.0472C51.5824 31.0744 51.6866 30.1611 51.8987 29.372C52.1086 28.591 52.4466 27.8464 53.017 27.303C53.3054 27.0283 53.6926 26.8842 54.1094 26.9303C54.4754 26.9708 54.7687 27.1471 54.9734 27.3075C55.3802 27.6263 55.7489 28.1309 56.0786 28.6892C56.7578 29.8391 57.4857 31.591 58.148 33.7604Z" fill="#07872B"/>
<path d="M46.2189 11.2092C42.5498 14.3925 42.3247 32.2212 42.0073 40.5841C43.3779 44.4422 48.1383 41.5953 49.704 40.7777C51.5463 24.1005 47.8463 9.79727 46.2189 11.2092Z" fill="#38D02B"/>
<path fill-rule="evenodd" clip-rule="evenodd" d="M46.1259 12.0152C46.1259 12.0151 46.128 12.0167 46.1323 12.0208C46.128 12.0174 46.1259 12.0154 46.1259 12.0152ZM46.4336 12.4801C46.5351 12.6739 46.6513 12.928 46.7774 13.2516C47.2888 14.5633 47.8323 16.6639 48.2757 19.3716C49.1414 24.6574 49.6007 32.1015 48.7662 40.1431C47.9124 40.5974 46.729 41.2102 45.5742 41.4561C44.8914 41.6016 44.3421 41.588 43.9363 41.4272C43.6065 41.2965 43.2687 41.0293 43.0142 40.4174C43.0417 39.6784 43.0686 38.8724 43.0972 38.0144C43.2318 33.983 43.4047 28.8051 43.8518 24.0479C44.1274 21.1161 44.5041 18.3821 45.0298 16.2002C45.2926 15.1092 45.5868 14.1815 45.9119 13.4471C46.0872 13.0513 46.2627 12.7318 46.4336 12.4801ZM50.2494 19.0483C51.1612 24.6156 51.6298 32.4522 50.6979 40.8874L50.6394 41.4173L50.1669 41.6641C50.0809 41.7089 49.9804 41.7629 49.867 41.8238C49.0344 42.2705 47.5098 43.0887 45.9908 43.4123C45.1165 43.5985 44.1208 43.6515 43.1996 43.2866C42.2312 42.9029 41.4901 42.1155 41.065 40.9188L41.0007 40.7379L41.008 40.5461C41.0376 39.7674 41.0664 38.9031 41.0974 37.9736C41.2318 33.9426 41.4071 28.6852 41.8606 23.8607C42.1396 20.8921 42.527 18.0493 43.0854 15.7317C43.3646 14.5729 43.6924 13.5201 44.0831 12.6375C44.4683 11.7676 44.9462 10.9895 45.5636 10.4538C45.8907 10.17 46.3378 10.0334 46.8067 10.1598C47.1983 10.2653 47.4802 10.5224 47.663 10.7305C48.0357 11.1551 48.3574 11.7981 48.6408 12.5251C49.2233 14.0193 49.7948 16.2721 50.2494 19.0483Z" fill="#07872B"/>
<path d="M50.3841 19.4492C56.0794 23.1383 53.194 36.6914 56.9385 42.3849C56.0351 45.5819 51.4083 43.7768 49.8975 43.2775C49.3682 30.8978 48.9319 18.5085 50.3841 19.4492Z" fill="#48E839"/>
<path fill-rule="evenodd" clip-rule="evenodd" d="M50.8434 20.0936C50.8433 20.0932 50.8405 20.0976 50.8356 20.1078C50.841 20.0991 50.8435 20.094 50.8434 20.0936ZM50.6413 20.9528C50.6318 21.018 50.6223 21.0871 50.613 21.1604C50.4664 22.3164 50.4009 24.11 50.3977 26.3696C50.3917 30.7047 50.6143 36.5873 50.8674 42.549C51.6711 42.8177 52.722 43.142 53.7237 43.2204C54.3698 43.2709 54.8835 43.2066 55.247 43.037C55.4762 42.9301 55.6785 42.7682 55.8288 42.4874C54.9501 40.9516 54.4677 39.0474 54.1485 37.078C53.8849 35.4522 53.7213 33.6939 53.5609 31.972C53.5074 31.397 53.4542 30.826 53.3979 30.2654C53.1688 27.9874 52.8857 25.8596 52.3302 24.0877C51.9148 22.7627 51.3693 21.71 50.6413 20.9528ZM48.3977 26.3668C48.3914 30.92 48.6339 37.1348 48.8984 43.3202L48.9279 44.0102L49.5837 44.2269C49.6669 44.2545 49.7644 44.2878 49.8741 44.3253C50.6798 44.6007 52.1502 45.1034 53.5678 45.2143C54.3802 45.2778 55.287 45.2252 56.0923 44.8496C56.945 44.452 57.5973 43.731 57.9008 42.6569L58.0251 42.2172L57.774 41.8354C56.9571 40.5933 56.4619 38.8505 56.1227 36.758C55.871 35.2053 55.7165 33.5462 55.5579 31.8433C55.5031 31.255 55.4478 30.6615 55.3878 30.0653C55.1583 27.7822 54.8609 25.4742 54.2386 23.4894C53.6163 21.5047 52.6294 19.7121 50.9278 18.6099C50.6018 18.3987 50.1208 18.2912 49.6512 18.5498C49.2906 18.7483 49.1074 19.0794 49.0167 19.276C48.8211 19.6996 48.7076 20.2884 48.6289 20.9088C48.4654 22.1981 48.4009 24.0992 48.3977 26.3668Z" fill="#07872B"/>
<path d="M43.1316 19.2992C44.1106 19.7482 41.9675 36.9074 44.881 43.0678C43.5402 46.1074 39.2106 43.6744 37.7843 42.9691C36.4222 29.5739 40.6841 18.1769 43.1316 19.2992Z" fill="#48E839"/>
<path fill-rule="evenodd" clip-rule="evenodd" d="M42.8034 20.2215C42.8035 20.2212 42.8009 20.2216 42.7951 20.2236C42.8004 20.2229 42.8033 20.2219 42.8034 20.2215ZM42.3886 20.5518C42.2494 20.7028 42.0888 20.909 41.9123 21.1826C41.2671 22.1828 40.5807 23.8125 39.9938 25.9544C38.8573 30.1017 38.1505 35.9591 38.7268 42.3234C39.4982 42.7106 40.5476 43.2175 41.581 43.4465C42.2137 43.5867 42.7313 43.5947 43.115 43.4775C43.3565 43.4038 43.5791 43.2719 43.7669 43.0156C43.0947 41.3574 42.726 39.187 42.5202 36.9081C42.2917 34.3766 42.2562 31.6013 42.2809 29.0321C42.2933 27.7456 42.3208 26.5053 42.3474 25.3693C42.35 25.2567 42.3527 25.1451 42.3552 25.0346C42.3789 24.0282 42.4004 23.1151 42.4083 22.3261C42.4155 21.6024 42.411 21.0059 42.3886 20.5518ZM42.308 19.8067C42.3074 19.8047 42.3071 19.8037 42.3071 19.8037C42.3071 19.8038 42.3074 19.8048 42.308 19.8067ZM38.0649 25.4258C36.8314 29.9272 36.0958 36.2491 36.7894 43.0703L36.8453 43.6204L37.341 43.8655C37.4196 43.9044 37.5115 43.951 37.6149 44.0035C38.3743 44.3886 39.7601 45.0915 41.1484 45.3991C41.944 45.5754 42.8493 45.6498 43.6991 45.3903C44.5989 45.1155 45.3454 44.4926 45.7959 43.4714L45.9803 43.0533L45.7849 42.6403C45.1354 41.2668 44.734 39.1864 44.5121 36.7283C44.2925 34.2958 44.2563 31.5981 44.2808 29.0513C44.293 27.7798 44.3203 26.5514 44.3468 25.4161C44.3495 25.3031 44.3521 25.191 44.3547 25.0798C44.3783 24.0769 44.4001 23.1496 44.4082 22.3462C44.4171 21.4603 44.4098 20.6909 44.3653 20.1192C44.3435 19.8385 44.3096 19.5606 44.2494 19.325C44.2197 19.2085 44.1732 19.0603 44.0944 18.9143C44.0233 18.7826 43.8628 18.5344 43.5484 18.3903C42.8335 18.0624 42.1284 18.2553 41.5914 18.6108C41.0784 18.9502 40.627 19.4856 40.2317 20.0984C39.432 21.3381 38.6791 23.1844 38.0649 25.4258Z" fill="#07872B"/>
<path d="M32.6558 52.3469C29.5623 57.9422 28.393 58.3689 28.393 66.7609C28.393 76.8732 37.4175 84.3334 47.4315 84.3334C57.4455 84.3334 66.47 77.6615 66.47 67.5492C66.47 59.1572 64.9807 58.3688 61.6038 52.6158C57.8608 46.239 57.6452 37.0327 47.0683 37.0327C35.5848 37.0327 36.2965 45.7618 32.6558 52.3469Z" fill="#FFEFF7"/>
<path fill-rule="evenodd" clip-rule="evenodd" d="M29.626 53.6165C30.0104 52.9584 30.4221 52.2535 30.9055 51.3792C31.7246 49.8976 32.3122 48.2711 32.9459 46.5017C32.9566 46.4719 32.9672 46.4421 32.9779 46.4122C33.5813 44.7271 34.2416 42.8827 35.1833 41.2302C36.1653 39.507 37.4954 37.9087 39.4881 36.7649C41.4703 35.6272 43.9449 35.0327 47.0683 35.0327C50.0147 35.0327 52.3885 35.678 54.3226 36.867C56.2467 38.0498 57.588 39.6801 58.6175 41.4102C59.6211 43.0968 60.3792 44.971 61.0739 46.6887L61.095 46.7408C61.8178 48.5277 62.4802 50.158 63.3286 51.6033C63.864 52.5156 64.3303 53.2668 64.7676 53.9715C65.0185 54.3756 65.2598 54.7644 65.4992 55.1596C66.1312 56.2026 66.6997 57.2109 67.1574 58.3433C68.0924 60.6562 68.47 63.2492 68.47 67.5492C68.47 79.087 58.1991 86.3334 47.4315 86.3334C36.534 86.3334 26.393 78.1865 26.393 66.7609C26.393 62.5031 26.6832 60.0115 27.4862 57.8177C27.8825 56.7349 28.3826 55.782 28.946 54.791C29.1692 54.3984 29.3925 54.0161 29.626 53.6165ZM31.3296 54.6655C31.7255 53.9873 32.1666 53.2317 32.6558 52.3469C33.5677 50.6974 34.2066 48.9135 34.8324 47.1659C36.7051 41.9365 38.4612 37.0327 47.0683 37.0327C55.0108 37.0327 57.1106 42.224 59.2488 47.5102C59.958 49.2636 60.6715 51.0275 61.6038 52.6158C62.148 53.5429 62.6432 54.3411 63.091 55.063C65.422 58.8204 66.47 60.5097 66.47 67.5492C66.47 77.6615 57.4455 84.3334 47.4315 84.3334C37.4175 84.3334 28.393 76.8732 28.393 66.7609C28.393 59.6959 29.2217 58.2763 31.3296 54.6655Z" fill="#EE38A5"/>
<path d="M58.4774 64.1364C58.2745 64.8966 57.4938 65.3484 56.7336 65.1455C55.9734 64.9426 55.5216 64.1618 55.7245 63.4016C55.9274 62.6414 56.7081 62.1896 57.4683 62.3925C58.2285 62.5954 58.6803 63.3762 58.4774 64.1364Z" fill="#ECC9DB"/>
<path d="M61.8721 67.9914C61.6692 68.7516 60.8884 69.2034 60.1282 69.0005C59.368 68.7976 58.9162 68.0169 59.1191 67.2567C59.322 66.4965 60.1028 66.0447 60.863 66.2476C61.6232 66.4505 62.075 67.2312 61.8721 67.9914Z" fill="#ECC9DB"/>
<path d="M62.3778 63.3342C62.2256 63.9044 61.6401 64.2432 61.0699 64.091C60.4997 63.9389 60.1609 63.3533 60.3131 62.7831C60.4652 62.213 61.0508 61.8742 61.621 62.0263C62.1911 62.1785 62.53 62.7641 62.3778 63.3342Z" fill="#ECC9DB"/>
<path d="M60.5863 72.809C60.3834 73.5692 59.6026 74.021 58.8424 73.8181C58.0822 73.6152 57.6304 72.8345 57.8333 72.0743C58.0362 71.3141 58.817 70.8623 59.5772 71.0652C60.3374 71.2681 60.7892 72.0488 60.5863 72.809Z" fill="#ECC9DB"/>
<path d="M57.1916 68.9541C56.9887 69.7143 56.208 70.1661 55.4478 69.9632C54.6876 69.7603 54.2358 68.9796 54.4387 68.2194C54.6416 67.4592 55.4223 67.0074 56.1825 67.2103C56.9427 67.4132 57.3945 68.1939 57.1916 68.9541Z" fill="#ECC9DB"/>
<path d="M56.7312 76.2037C56.5283 76.9639 55.7476 77.4157 54.9874 77.2128C54.2272 77.0099 53.7754 76.2292 53.9783 75.469C54.1812 74.7088 54.9619 74.257 55.7221 74.4599C56.4823 74.6628 56.9341 75.4435 56.7312 76.2037Z" fill="#ECC9DB"/>
<path d="M53.1529 73.037C52.95 73.7972 52.1693 74.249 51.4091 74.0461C50.6489 73.8432 50.1971 73.0625 50.4 72.3022C50.6029 71.542 51.3836 71.0903 52.1438 71.2932C52.904 71.496 53.3558 72.2768 53.1529 73.037Z" fill="#ECC9DB"/>
<path d="M52.4635 78.3824C52.3113 78.9525 51.7258 79.2914 51.1556 79.1392C50.5855 78.987 50.2466 78.4015 50.3988 77.8313C50.551 77.2611 51.1365 76.9223 51.7067 77.0745C52.2768 77.2266 52.6157 77.8122 52.4635 78.3824Z" fill="#ECC9DB"/>
<path fill-rule="evenodd" clip-rule="evenodd" d="M31.3296 54.6655C31.7255 53.9873 32.1666 53.2317 32.6558 52.3469C33.5677 50.6974 34.2066 48.9135 34.8324 47.1659C36.7051 41.9365 38.4612 37.0327 47.0683 37.0327C55.0108 37.0327 57.1106 42.224 59.2488 47.5102C59.958 49.2636 60.6715 51.0275 61.6038 52.6158C62.148 53.5429 62.6432 54.3411 63.091 55.063C65.422 58.8204 66.47 60.5097 66.47 67.5492C66.47 77.6615 57.4454 84.3334 47.4315 84.3334C37.4175 84.3334 28.393 76.8732 28.393 66.7609C28.393 59.6959 29.2217 58.2763 31.3296 54.6655ZM33.5452 57.3594C33.8883 56.8146 34.2706 56.2076 34.6946 55.4967C35.4849 54.1716 36.0386 52.7384 36.581 51.3344C38.204 47.1333 39.7259 43.1937 47.1854 43.1937C54.0688 43.1937 55.8887 47.3643 57.7418 51.6111C58.3564 53.0197 58.9748 54.4367 59.7828 55.7127C60.2544 56.4576 60.6836 57.0988 61.0717 57.6788C63.0919 60.6973 64.0001 62.0544 64.0001 67.7099C64.0001 75.8338 56.1789 81.1937 47.5001 81.1937C38.8214 81.1937 31.0001 75.2004 31.0001 67.0765C31.0001 61.4007 31.7184 60.2602 33.5452 57.3594Z" fill="#F9CCA4"/>
<path d="M72.3059 65.5589C71.6847 70.1429 68.5696 72.7389 67.0897 73.464C67.1392 72.5049 67.261 68.2799 69.0727 62.988C70.8844 57.6962 74.6117 58.1448 76.0339 58.5388C75.0748 58.4893 73.0823 59.829 72.3059 65.5589Z" fill="#CC2288"/>
<path fill-rule="evenodd" clip-rule="evenodd" d="M72.3488 57.6947C73.9642 57.0901 75.4902 57.3505 76.3009 57.5751C76.7924 57.7112 77.1027 58.1955 77.021 58.699C76.9393 59.2024 76.4918 59.5637 75.9824 59.5375C75.9825 59.5375 75.9823 59.5375 75.9818 59.5375C75.9623 59.5393 75.5202 59.579 74.9267 60.4463C74.3311 61.3167 73.6732 62.916 73.2968 65.6932C72.622 70.6732 69.2444 73.5219 67.5297 74.362C67.2115 74.5179 66.8346 74.4938 66.5389 74.2986C66.2431 74.1034 66.0728 73.7663 66.0911 73.4125C66.0935 73.3659 66.096 73.3118 66.0989 73.2502C66.1573 72.0204 66.356 67.836 68.1266 62.6641C69.1103 59.7909 70.6818 58.3186 72.3488 57.6947ZM73.0499 59.5678C72.0448 59.944 70.8468 60.8933 70.0188 63.3119C68.8785 66.6426 68.4261 69.5367 68.2356 71.4217C69.5048 70.2419 70.9315 68.2543 71.315 65.4247C71.6916 62.645 72.3576 60.7667 73.1306 59.5387C73.1037 59.548 73.0768 59.5577 73.0499 59.5678Z" fill="#EE38A5"/>
<path d="M22.7354 65.5589C23.3566 70.1429 26.4717 72.7389 27.9516 73.464C27.9021 72.5049 27.7803 68.2799 25.9686 62.988C24.1569 57.6962 20.4295 58.1448 19.0074 58.5388C19.9665 58.4893 21.9589 59.829 22.7354 65.5589Z" fill="#CC2288"/>
<path fill-rule="evenodd" clip-rule="evenodd" d="M22.6924 57.6947C21.0771 57.0901 19.5511 57.3505 18.7404 57.5751C18.2489 57.7112 17.9386 58.1955 18.0203 58.699C18.102 59.2024 18.5495 59.5637 19.0589 59.5375C19.0588 59.5375 19.059 59.5375 19.0595 59.5375C19.079 59.5393 19.5211 59.579 20.1146 60.4463C20.7102 61.3167 21.3681 62.916 21.7444 65.6932C22.4193 70.6732 25.7968 73.5219 27.5116 74.362C27.8298 74.5179 28.2067 74.4938 28.5024 74.2986C28.7981 74.1034 28.9685 73.7663 28.9502 73.4125C28.9478 73.3659 28.9453 73.3118 28.9423 73.2502C28.884 72.0204 28.6853 67.836 26.9147 62.6641C25.931 59.7909 24.3595 58.3186 22.6924 57.6947ZM21.9914 59.5678C22.9965 59.944 24.1945 60.8933 25.0225 63.3119C26.1628 66.6426 26.6152 69.5367 26.8056 71.4217C25.5365 70.2419 24.1098 68.2543 23.7263 65.4247C23.3497 62.645 22.6837 60.7667 21.9107 59.5387C21.9376 59.548 21.9645 59.5577 21.9914 59.5678Z" fill="#EE38A5"/>
<path d="M64.6021 45.7447C65.1195 49.7628 64.5868 52.7438 63.5001 53.6937C63.3238 52.8713 60.1717 50.0813 60.5001 45.1937C60.8285 40.3062 64.8657 38.95 66.1581 38.9596C65.3357 39.1359 63.9554 40.7222 64.6021 45.7447Z" fill="#CC2288"/>
<path fill-rule="evenodd" clip-rule="evenodd" d="M62.3511 39.4528C63.7239 38.3781 65.2726 37.953 66.1655 37.9596C66.6756 37.9634 67.101 38.3505 67.1529 38.8579C67.2047 39.3653 66.8664 39.8305 66.3677 39.9374C66.3726 39.9363 66.375 39.9358 66.3751 39.9361C66.3764 39.9396 66.0547 40.062 65.7728 40.8658C65.4758 41.7126 65.2819 43.1935 65.5939 45.617C65.8613 47.6935 65.8628 49.5389 65.6417 51.0177C65.4293 52.4373 64.9815 53.727 64.1582 54.4466C63.8915 54.6798 63.5212 54.7544 63.185 54.6427C62.8653 54.5365 62.6218 54.2771 62.5347 53.9542C62.528 53.9413 62.507 53.8997 62.4582 53.8212C62.3729 53.6842 62.2549 53.5144 62.093 53.2815L62.0896 53.2765C61.7736 52.8217 61.3456 52.2043 60.9328 51.4466C60.1016 49.9213 59.3219 47.8121 59.5024 45.1267C59.6869 42.3806 60.931 40.5647 62.3511 39.4528ZM63.584 41.0276C62.5804 41.8134 61.6418 43.1193 61.4979 45.2608C61.3499 47.4629 61.9821 49.1925 62.6889 50.4896C62.944 50.9576 63.2074 51.3672 63.4518 51.7281C63.5324 51.4456 63.6053 51.1118 63.6637 50.7219C63.8512 49.4682 63.8603 47.814 63.6103 45.8725C63.338 43.7574 63.4017 42.156 63.6704 40.9614C63.6416 40.983 63.6128 41.0051 63.584 41.0276Z" fill="#EE38A5"/>
<path d="M28.5619 46.7447C28.0445 50.7628 28.5772 54.2439 29.6639 55.1937C29.8402 54.3713 32.9923 51.0813 32.6639 46.1937C32.3355 41.3062 28.2983 39.95 27.0059 39.9596C27.8283 40.1359 29.2086 41.7222 28.5619 46.7447Z" fill="#CC2288"/>
<path fill-rule="evenodd" clip-rule="evenodd" d="M30.8129 40.4528C29.4401 39.3781 27.8914 38.953 26.9985 38.9596C26.4884 38.9634 26.063 39.3505 26.0111 39.8579C25.9593 40.3653 26.2976 40.8304 26.7963 40.9374C26.7914 40.9363 26.789 40.9358 26.7889 40.9361C26.7876 40.9396 27.1093 41.062 27.3912 41.8658C27.6882 42.7126 27.8821 44.1935 27.5701 46.617C27.302 48.699 27.3024 50.6635 27.5206 52.2556C27.6296 53.0508 27.796 53.7764 28.0234 54.3869C28.2441 54.9796 28.5546 55.5523 29.0058 55.9467C29.2725 56.1798 29.6428 56.2544 29.979 56.1428C30.3033 56.0351 30.5492 55.7697 30.633 55.4403C30.6354 55.4372 30.6563 55.3873 30.7239 55.2697C30.8079 55.1234 30.9208 54.9443 31.0687 54.7094L31.0994 54.6607C31.4162 54.1577 31.8393 53.4811 32.2474 52.6658C33.065 51.0325 33.8417 48.8067 33.6616 46.1267C33.4771 43.3806 32.233 41.5647 30.8129 40.4528ZM29.58 42.0276C30.5836 42.8134 31.5223 44.1193 31.6661 46.2608C31.8145 48.4683 31.1794 50.3313 30.4589 51.7705C30.2102 52.2675 29.9535 52.7096 29.7154 53.0994C29.6317 52.7738 29.5592 52.4008 29.5021 51.9841C29.3116 50.5936 29.3044 48.8085 29.5537 46.8725C29.826 44.7574 29.7623 43.156 29.4936 41.9614C29.5224 41.983 29.5512 42.0051 29.58 42.0276Z" fill="#EE38A5"/>
<path d="M40.4152 54.1878C42.3851 55.3188 42.4687 58.8716 40.6019 62.1232C38.7351 65.3748 35.6248 67.094 33.6548 65.963C31.6849 64.832 31.6013 61.2792 33.4681 58.0276C35.3349 54.7759 38.4452 53.0568 40.4152 54.1878Z" fill="#FFFBFD"/>
<path d="M46.6815 45.6489C47.1934 46.4525 46.3201 47.9245 44.731 48.9366C43.1419 49.9487 41.4388 50.1177 40.9269 49.314C40.4151 48.5104 41.2884 47.0384 42.8774 46.0263C44.4665 45.0142 46.1697 44.8452 46.6815 45.6489Z" fill="#FFFBFD"/>
<path d="M43.48 39.3771C43.8232 39.9159 43.2377 40.9029 42.1722 41.5815C41.1067 42.2601 39.9647 42.3734 39.6215 41.8346C39.2783 41.2957 39.8639 40.3088 40.9294 39.6302C41.9949 38.9515 43.1368 38.8382 43.48 39.3771Z" fill="#FFE6CF"/>
<path d="M45.0001 52.6937C45.0001 53.5222 44.3286 54.1937 43.5001 54.1937C42.6717 54.1937 42.0001 53.5222 42.0001 52.6937C42.0001 51.8653 42.6717 51.1937 43.5001 51.1937C44.3286 51.1937 45.0001 51.8653 45.0001 52.6937Z" fill="#305B74"/>
<path d="M51.0001 54.6937C51.0001 55.5222 50.3286 56.1937 49.5001 56.1937C48.6717 56.1937 48.0001 55.5222 48.0001 54.6937C48.0001 53.8653 48.6717 53.1937 49.5001 53.1937C50.3286 53.1937 51.0001 53.8653 51.0001 54.6937Z" fill="#305B74"/>
<path d="M44.7876 57.158C44.7876 57.7102 44.3399 58.158 43.7876 58.158C43.2353 58.158 42.7876 57.7102 42.7876 57.158C42.7876 56.6057 43.2353 56.158 43.7876 56.158C44.3399 56.158 44.7876 56.6057 44.7876 57.158Z" fill="#305B74"/>
<path d="M50.0001 60.6937C50.0001 61.5222 49.3286 62.1937 48.5001 62.1937C47.6717 62.1937 47.0001 61.5222 47.0001 60.6937C47.0001 59.8653 47.6717 59.1937 48.5001 59.1937C49.3286 59.1937 50.0001 59.8653 50.0001 60.6937Z" fill="#305B74"/>
<path d="M38.5224 67.3392C38.5224 67.8915 38.0746 68.3392 37.5224 68.3392C36.9701 68.3392 36.5224 67.8915 36.5224 67.3392C36.5224 66.7869 36.9701 66.3392 37.5224 66.3392C38.0746 66.3392 38.5224 66.7869 38.5224 67.3392Z" fill="#305B74"/>
<path d="M44.0045 72.8214C44.0045 73.3737 43.5568 73.8214 43.0045 73.8214C42.4522 73.8214 42.0045 73.3737 42.0045 72.8214C42.0045 72.2691 42.4522 71.8214 43.0045 71.8214C43.5568 71.8214 44.0045 72.2691 44.0045 72.8214Z" fill="#305B74"/>
<path d="M43.0001 67.6937C43.0001 68.5222 42.3286 69.1937 41.5001 69.1937C40.6717 69.1937 40.0001 68.5222 40.0001 67.6937C40.0001 66.8653 40.6717 66.1937 41.5001 66.1937C42.3286 66.1937 43.0001 66.8653 43.0001 67.6937Z" fill="#305B74"/>
<path d="M49.0001 69.1937C49.0001 70.2983 48.1047 71.1937 47.0001 71.1937C45.8956 71.1937 45.0001 70.2983 45.0001 69.1937C45.0001 68.0892 45.8956 67.1937 47.0001 67.1937C48.1047 67.1937 49.0001 68.0892 49.0001 69.1937Z" fill="#305B74"/>
<path d="M46.0001 63.1937C46.0001 64.2983 45.1047 65.1937 44.0001 65.1937C42.8956 65.1937 42.0001 64.2983 42.0001 63.1937C42.0001 62.0892 42.8956 61.1937 44.0001 61.1937C45.1047 61.1937 46.0001 62.0892 46.0001 63.1937Z" fill="#305B74"/>
<path d="M51.0531 66.556C51.0531 67.1083 50.6053 67.556 50.0531 67.556C49.5008 67.556 49.0531 67.1083 49.0531 66.556C49.0531 66.0037 49.5008 65.556 50.0531 65.556C50.6053 65.556 51.0531 66.0037 51.0531 66.556Z" fill="#305B74"/>
<path d="M55.0001 73.6937C55.0001 74.5222 54.3286 75.1937 53.5001 75.1937C52.6717 75.1937 52.0001 74.5222 52.0001 73.6937C52.0001 72.8653 52.6717 72.1937 53.5001 72.1937C54.3286 72.1937 55.0001 72.8653 55.0001 73.6937Z" fill="#305B74"/>
<path d="M48.7035 74.3877C48.7035 74.94 48.2558 75.3877 47.7035 75.3877C47.1512 75.3877 46.7035 74.94 46.7035 74.3877C46.7035 73.8354 47.1512 73.3877 47.7035 73.3877C48.2558 73.3877 48.7035 73.8354 48.7035 74.3877Z" fill="#305B74"/>
<path d="M40.8718 60.2906C40.8718 60.8429 40.4241 61.2906 39.8718 61.2906C39.3196 61.2906 38.8718 60.8429 38.8718 60.2906C38.8718 59.7384 39.3196 59.2906 39.8718 59.2906C40.4241 59.2906 40.8718 59.7384 40.8718 60.2906Z" fill="#305B74"/>
<path d="M40.0886 53.2422C40.0886 53.7945 39.6409 54.2422 39.0886 54.2422C38.5364 54.2422 38.0886 53.7945 38.0886 53.2422C38.0886 52.6899 38.5364 52.2422 39.0886 52.2422C39.6409 52.2422 40.0886 52.6899 40.0886 53.2422Z" fill="#305B74"/>
<path d="M42.4381 49.3263C42.4381 49.8786 41.9904 50.3263 41.4381 50.3263C40.8858 50.3263 40.4381 49.8786 40.4381 49.3263C40.4381 48.774 40.8858 48.3263 41.4381 48.3263C41.9904 48.3263 42.4381 48.774 42.4381 49.3263Z" fill="#305B74"/>
<path d="M47.9203 46.1937C47.9203 46.746 47.4726 47.1937 46.9203 47.1937C46.368 47.1937 45.9203 46.746 45.9203 46.1937C45.9203 45.6414 46.368 45.1937 46.9203 45.1937C47.4726 45.1937 47.9203 45.6414 47.9203 46.1937Z" fill="#305B74"/>
<path d="M50.2699 50.1095C50.2699 50.6618 49.8221 51.1095 49.2699 51.1095C48.7176 51.1095 48.2699 50.6618 48.2699 50.1095C48.2699 49.5572 48.7176 49.1095 49.2699 49.1095C49.8221 49.1095 50.2699 49.5572 50.2699 50.1095Z" fill="#305B74"/>
<path d="M55.752 51.6758C55.752 52.2281 55.3043 52.6758 54.752 52.6758C54.1997 52.6758 53.752 52.2281 53.752 51.6758C53.752 51.1235 54.1997 50.6758 54.752 50.6758C55.3043 50.6758 55.752 51.1235 55.752 51.6758Z" fill="#305B74"/>
<path d="M54.9689 57.9412C54.9689 58.4934 54.5212 58.9412 53.9689 58.9412C53.4166 58.9412 52.9689 58.4934 52.9689 57.9412C52.9689 57.3889 53.4166 56.9412 53.9689 56.9412C54.5212 56.9412 54.9689 57.3889 54.9689 57.9412Z" fill="#305B74"/>
<path d="M58.1015 59.5076C58.1015 60.0599 57.6538 60.5076 57.1015 60.5076C56.5492 60.5076 56.1015 60.0599 56.1015 59.5076C56.1015 58.9553 56.5492 58.5076 57.1015 58.5076C57.6538 58.5076 58.1015 58.9553 58.1015 59.5076Z" fill="#305B74"/>
<path d="M59.6678 65.7727C59.6678 66.325 59.2201 66.7727 58.6678 66.7727C58.1155 66.7727 57.6678 66.325 57.6678 65.7727C57.6678 65.2204 58.1155 64.7727 58.6678 64.7727C59.2201 64.7727 59.6678 65.2204 59.6678 65.7727Z" fill="#305B74"/>
<path d="M56.0001 63.1937C56.0001 64.2983 55.1047 65.1937 54.0001 65.1937C52.8956 65.1937 52.0001 64.2983 52.0001 63.1937C52.0001 62.0892 52.8956 61.1937 54.0001 61.1937C55.1047 61.1937 56.0001 62.0892 56.0001 63.1937Z" fill="#305B74"/>
<path d="M57.3183 69.6887C57.3183 70.241 56.8706 70.6887 56.3183 70.6887C55.766 70.6887 55.3183 70.241 55.3183 69.6887C55.3183 69.1364 55.766 68.6887 56.3183 68.6887C56.8706 68.6887 57.3183 69.1364 57.3183 69.6887Z" fill="#305B74"/>
<path d="M37.7392 72.0382C37.7392 72.5905 37.2914 73.0382 36.7392 73.0382C36.1869 73.0382 35.7392 72.5905 35.7392 72.0382C35.7392 71.4859 36.1869 71.0382 36.7392 71.0382C37.2914 71.0382 37.7392 71.4859 37.7392 72.0382Z" fill="#305B74"/>
</svg>
