<svg width="96" height="96" viewBox="0 0 96 96" fill="none" xmlns="http://www.w3.org/2000/svg">
<path d="M63.7904 60.1048C67.3322 71.1352 60.6407 79.1942 56.2117 82.6938C43.8223 81.8538 38.3598 77.7854 38.1101 75.3676C41.4059 66.494 55.1249 60.0088 63.7904 60.1048Z" fill="#599B04"/>
<path fill-rule="evenodd" clip-rule="evenodd" d="M56.8463 84.7415L56.0764 84.6893C49.6999 84.2569 44.9719 82.9868 41.7378 81.4229C40.1235 80.6423 38.8308 79.7639 37.8934 78.8344C36.9894 77.9382 36.25 76.8252 36.1207 75.5731L36.0728 75.1088L36.2353 74.6713C38.1225 69.5901 42.8542 65.4456 47.9701 62.6217C53.1138 59.7824 59.0498 58.0522 63.8125 58.1049L65.2539 58.1209L65.6946 59.4934C69.616 71.7058 62.1437 80.5556 57.4517 84.2631L56.8463 84.7415ZM56.2117 82.6938C60.6407 79.1942 67.3322 71.1352 63.7904 60.1048C55.1249 60.0088 41.4059 66.494 38.1101 75.3676C38.3598 77.7854 43.8223 81.8538 56.2117 82.6938Z" fill="#326D03"/>
<path d="M51.9119 65.6929C52.5369 75.3677 54.6619 80.1304 56.2118 82.6939C43.8224 81.8539 38.3598 77.7855 38.1102 75.3677C41.406 66.4941 43.2464 65.5969 51.9119 65.6929Z" fill="#68B00B"/>
<path d="M58.3304 66C58.1283 73.3878 52.3594 76.7182 48.9315 77.8251C41.6049 74.5624 39.1616 70.9116 39.5249 69.4096C43.4102 64.8354 53.1013 64.0121 58.3304 66Z" fill="#9FD336"/>
<path fill-rule="evenodd" clip-rule="evenodd" d="M48.8175 79.9636L48.118 79.6521C44.2912 77.948 41.619 76.091 39.9176 74.3584C39.0691 73.4945 38.4223 72.6209 38.0108 71.7704C37.6213 70.9653 37.3357 69.9535 37.5811 68.9393L37.6929 68.4772L38.0006 68.1149C40.3964 65.2942 44.3559 63.8263 48.1299 63.2657C51.9403 62.6997 56.0309 62.9861 59.0412 64.1305L60.3685 64.6352L60.3297 66.0547C60.0931 74.7077 53.2932 78.5184 49.5461 79.7283L48.8175 79.9636ZM48.9316 77.8251C52.3595 76.7182 58.1284 73.3878 58.3305 66C53.1014 64.0121 43.4102 64.8354 39.525 69.4096C39.1617 70.9116 41.6049 74.5624 48.9316 77.8251Z" fill="#779A06"/>
<path d="M43.6477 72.9379C40.4779 79.5042 33.9397 80.1679 30.4075 79.7775C25.1341 73.8784 24.412 69.605 25.3465 68.4004C30.6926 65.8556 39.7462 69.0342 43.6477 72.9379Z" fill="#70B715"/>
<path fill-rule="evenodd" clip-rule="evenodd" d="M29.4267 81.6813L28.9164 81.1104C26.1604 78.0274 24.5048 75.2728 23.673 73.0217C23.2582 71.8992 23.0287 70.8485 23.0023 69.9131C22.9773 69.0281 23.1299 67.9949 23.7662 67.1745L24.0576 66.7989L24.4869 66.5945C27.792 65.0213 31.9562 65.3034 35.5818 66.3261C39.2428 67.3587 42.8123 69.2728 45.0623 71.5241L46.0661 72.5286L45.4488 73.8074C41.7288 81.5135 34.0535 82.1926 30.1878 81.7654L29.4267 81.6813ZM30.4075 79.7775C33.9397 80.1679 40.478 79.5042 43.6477 72.9379C39.7463 69.0342 30.6926 65.8556 25.3465 68.4004C24.412 69.605 25.1341 73.8784 30.4075 79.7775Z" fill="#367703"/>
<path d="M48.8137 18.9531C52.7537 12.8181 59.3242 12.9494 62.7834 13.7637C67.3052 20.2569 67.5056 24.5862 66.4324 25.6691C60.8179 27.5492 52.2148 23.2997 48.8137 18.9531Z" fill="#70B715"/>
<path fill-rule="evenodd" clip-rule="evenodd" d="M63.987 11.9924L64.4246 12.6208C66.7878 16.0142 68.0984 18.9487 68.6521 21.2838C68.9282 22.4483 69.0291 23.519 68.9422 24.4507C68.8601 25.3323 68.5838 26.3395 67.853 27.0769L67.5183 27.4146L67.0675 27.5656C63.5965 28.7279 59.4968 27.9446 56.0214 26.4913C52.5121 25.0237 49.2 22.6923 47.2386 20.1856L46.3635 19.0672L47.1308 17.8724C51.7548 10.6723 59.456 10.9257 63.2417 11.8169L63.987 11.9924ZM62.7834 13.7637C59.3242 12.9494 52.7537 12.8181 48.8137 18.9531C52.2148 23.2997 60.8179 27.5492 66.4324 25.6691C67.5056 24.5862 67.3052 20.2569 62.7834 13.7637Z" fill="#367703"/>
<path d="M73.8632 33.3908C81.0558 35.0899 83.1443 41.4153 83.5315 44.9966C78.848 51.5073 74.7769 53.1577 73.3801 52.4967C69.6908 47.763 70.8541 38.1068 73.8632 33.3908Z" fill="#70B715"/>
<path fill-rule="evenodd" clip-rule="evenodd" d="M85.6023 45.5429L85.1552 46.1645C82.7089 49.5651 80.3477 51.8041 78.3055 53.118C77.2871 53.7732 76.3003 54.229 75.384 54.4591C74.5165 54.6768 73.4678 54.7508 72.5247 54.3045L72.0949 54.1012L71.8027 53.7262C69.5278 50.8072 68.8951 46.632 69.1131 42.8228C69.3333 38.9769 70.445 35.0299 72.1773 32.315L72.9411 31.1179L74.3231 31.4444C82.7475 33.4345 85.0968 40.8668 85.52 44.7816L85.6023 45.5429ZM83.5316 44.9966C83.1444 41.4153 81.0558 35.0899 73.8633 33.3908C70.8542 38.1068 69.6909 47.763 73.3802 52.4967C74.777 53.1577 78.8481 51.5073 83.5316 44.9966Z" fill="#367703"/>
<path d="M32.4743 66.0471C23.6692 70.4234 14.6791 64.7477 11.2847 61.3629C10.6438 50.611 14.4575 46.91 16.4445 46.4035C24.1929 48.1655 30.3595 60.2334 32.4743 66.0471Z" fill="#9FD336"/>
<path fill-rule="evenodd" clip-rule="evenodd" d="M9.33351 62.2417L9.28822 61.4819C8.95382 55.8715 9.76774 51.8965 11.0768 49.1744C12.3651 46.4954 14.2099 44.9092 15.9505 44.4655L16.4178 44.3464L16.888 44.4533C21.5299 45.5089 25.3799 49.5149 28.2105 53.5591C31.104 57.6929 33.249 62.3261 34.3538 65.3634L34.9647 67.0427L33.3645 67.838C28.3589 70.3259 23.3316 69.9249 19.2012 68.5071C15.1034 67.1004 11.754 64.6554 9.87246 62.7791L9.33351 62.2417ZM32.4743 66.0471C30.3595 60.2334 24.1929 48.1656 16.4446 46.4035C14.4576 46.91 10.6438 50.611 11.2847 61.3629C14.6791 64.7477 23.6692 70.4234 32.4743 66.0471Z" fill="#779A06"/>
<path fill-rule="evenodd" clip-rule="evenodd" d="M30.1463 66.9782C30.9211 66.7402 31.6984 66.4326 32.4742 66.047C30.3594 60.2334 24.1928 48.1655 16.4444 46.4035C14.578 46.8793 11.0996 50.1738 11.2157 59.4836C12.7121 51.245 16.3948 48.7675 18.2256 48.5973C24.374 51.0565 28.319 60.4134 30.1463 66.9782Z" fill="#BFF84B"/>
<path d="M73.4247 44.5342C82.0326 52.0579 80.3159 62.2182 78.2563 67.3958C67.1442 72.9137 60.3835 72.2274 58.9511 70.3136C57.3281 61.1728 65.9001 48.8082 73.4247 44.5342Z" fill="#68B00B"/>
<path fill-rule="evenodd" clip-rule="evenodd" d="M79.8317 68.8466L79.1458 69.1871C73.4295 72.0256 68.7159 73.3285 65.1445 73.6343C63.362 73.7869 61.8076 73.6959 60.5332 73.3836C59.3079 73.0833 58.1018 72.5165 57.35 71.512L57.0651 71.1314L56.982 70.6632C56.0481 65.4036 58.0543 59.516 61.0458 54.5646C64.0563 49.5818 68.3066 45.1413 72.4371 42.7952L73.6718 42.0938L74.741 43.0284C84.302 51.385 82.2983 62.6458 80.1147 68.1351L79.8317 68.8466ZM78.2563 67.3958C80.316 62.2182 82.0327 52.0579 73.4248 44.5342C65.9002 48.8082 57.3282 61.1728 58.9512 70.3136C60.3836 72.2274 67.1443 72.9137 78.2563 67.3958Z" fill="#326D03"/>
<path d="M73.4247 44.5342C82.0326 52.0579 80.3159 62.2182 78.2563 67.3958C70.7869 58.7554 65.5318 57.2317 64.0994 55.3179C64.8494 50.5054 71.0994 46.3804 73.4247 44.5342Z" fill="#599B04"/>
<path d="M74.0087 42.9272C80.0364 47.2035 79.5962 53.8503 78.6098 57.3148C71.8238 61.5896 67.4309 61.59 66.3846 60.4528C64.7435 54.68 69.4485 46.1677 74.0087 42.9272Z" fill="#9FD336"/>
<path fill-rule="evenodd" clip-rule="evenodd" d="M80.3238 58.5988L79.6759 59.007C76.1315 61.2398 73.1021 62.4279 70.716 62.8786C69.5261 63.1033 68.4404 63.155 67.5047 63.0241C66.619 62.9001 65.6192 62.5747 64.9128 61.8069L64.5909 61.457L64.4609 60.9997C63.4489 57.44 64.4308 53.3328 66.0636 49.8845C67.7122 46.4029 70.225 43.1624 72.8502 41.2969L74.0078 40.4744L75.166 41.296C82.226 46.3047 81.6117 54.0753 80.5335 57.8624L80.3238 58.5988ZM78.6099 57.3147C79.5962 53.8503 80.0364 47.2035 74.0087 42.9272C69.4486 46.1677 64.7436 54.68 66.3847 60.4528C67.4309 61.59 71.8239 61.5896 78.6099 57.3147Z" fill="#779A06"/>
<path d="M18.554 41.4623C12.8926 33.4231 17.1387 23.676 19.9694 19.8073C30.4996 17.5428 34.7363 20.7509 35.5384 22.638C34.9722 30.5641 23.9796 38.4901 18.554 41.4623Z" fill="#9FD336"/>
<path fill-rule="evenodd" clip-rule="evenodd" d="M18.8048 18.0121L19.549 17.852C25.0437 16.6704 29.0962 16.8718 31.9853 17.7527C34.8287 18.6197 36.6764 20.2025 37.3791 21.8557L37.5677 22.2995L37.5334 22.7805C37.1942 27.5288 33.8186 31.942 30.2507 35.3534C26.6036 38.8405 22.3495 41.6635 19.515 43.2164L17.9478 44.0749L16.9189 42.6139C13.7004 38.0437 13.3341 33.0138 14.1089 28.716C14.8776 24.4523 16.7863 20.7707 18.3554 18.6263L18.8048 18.0121ZM18.5541 41.4623C23.9796 38.4901 34.9723 30.564 35.5384 22.638C34.7364 20.7509 30.4997 17.5428 19.9694 19.8073C17.1387 23.676 12.8927 33.4231 18.5541 41.4623Z" fill="#779A06"/>
<path fill-rule="evenodd" clip-rule="evenodd" d="M34.7743 25.8462C33.8787 28.1119 32.2923 30.3215 30.402 32.3553C32.1978 30.3138 33.7704 28.0985 34.7743 25.8462ZM19.521 20.4528C16.7265 24.6783 13.185 33.8383 18.554 41.4623C19.032 41.2004 19.5532 40.9001 20.1066 40.5648C14.8062 33.6938 17.1793 24.9687 19.521 20.4528Z" fill="#BFF84B"/>
<path d="M72.0882 45.1776C72.0882 59.8146 59.8666 71.6802 44.7904 71.6802C29.7143 71.6802 17.4927 59.8146 17.4927 45.1776C17.4927 30.5407 29.7143 18.675 44.7904 18.675C59.8666 18.675 72.0882 30.5407 72.0882 45.1776Z" fill="#B4A75B"/>
<path fill-rule="evenodd" clip-rule="evenodd" d="M74.0882 45.1776C74.0882 60.9745 60.915 73.6802 44.7904 73.6802C28.6659 73.6802 15.4927 60.9745 15.4927 45.1776C15.4927 29.3808 28.6659 16.675 44.7904 16.675C60.915 16.675 74.0882 29.3808 74.0882 45.1776ZM44.7904 71.6802C59.8666 71.6802 72.0882 59.8146 72.0882 45.1776C72.0882 30.5407 59.8666 18.675 44.7904 18.675C29.7143 18.675 17.4927 30.5407 17.4927 45.1776C17.4927 59.8146 29.7143 71.6802 44.7904 71.6802Z" fill="#A29338"/>
<path d="M68.2313 29.8947C68.2313 34.2129 64.7306 37.7136 60.4124 37.7136C56.0941 37.7136 52.5935 34.2129 52.5935 29.8947C52.5935 25.5764 56.0941 22.0758 60.4124 22.0758C64.7306 22.0758 68.2313 25.5764 68.2313 29.8947Z" fill="#F3E9BE"/>
<path fill-rule="evenodd" clip-rule="evenodd" d="M70.2313 29.8947C70.2313 35.3175 65.8352 39.7136 60.4124 39.7136C54.9896 39.7136 50.5935 35.3175 50.5935 29.8947C50.5935 24.4719 54.9896 20.0758 60.4124 20.0758C65.8352 20.0758 70.2313 24.4719 70.2313 29.8947ZM60.4124 37.7136C64.7306 37.7136 68.2313 34.2129 68.2313 29.8947C68.2313 25.5764 64.7306 22.0758 60.4124 22.0758C56.0941 22.0758 52.5935 25.5764 52.5935 29.8947C52.5935 34.2129 56.0941 37.7136 60.4124 37.7136Z" fill="#C2B66C"/>
<path d="M49.8335 23.4185C49.8335 27.1705 46.7919 30.2122 43.0398 30.2122C39.2877 30.2122 36.2461 27.1705 36.2461 23.4185C36.2461 19.6664 39.2877 16.6248 43.0398 16.6248C46.7919 16.6248 49.8335 19.6664 49.8335 23.4185Z" fill="#E3D596"/>
<path fill-rule="evenodd" clip-rule="evenodd" d="M51.8335 23.4185C51.8335 28.2751 47.8965 32.2122 43.0398 32.2122C38.1832 32.2122 34.2461 28.2751 34.2461 23.4185C34.2461 18.5618 38.1832 14.6248 43.0398 14.6248C47.8965 14.6248 51.8335 18.5618 51.8335 23.4185ZM43.0398 30.2122C46.7919 30.2122 49.8335 27.1705 49.8335 23.4185C49.8335 19.6664 46.7919 16.6248 43.0398 16.6248C39.2877 16.6248 36.2461 19.6664 36.2461 23.4185C36.2461 27.1705 39.2877 30.2122 43.0398 30.2122Z" fill="#C2B66C"/>
<path d="M34.9015 43.4439C34.9015 49.0329 30.3707 53.5637 24.7817 53.5637C19.1927 53.5637 14.6619 49.0329 14.6619 43.4439C14.6619 37.8549 19.1927 33.3241 24.7817 33.3241C30.3707 33.3241 34.9015 37.8549 34.9015 43.4439Z" fill="#F8F2D8"/>
<path fill-rule="evenodd" clip-rule="evenodd" d="M36.9015 43.4439C36.9015 50.1375 31.4753 55.5637 24.7817 55.5637C18.0881 55.5637 12.6619 50.1375 12.6619 43.4439C12.6619 36.7503 18.0881 31.3241 24.7817 31.3241C31.4753 31.3241 36.9015 36.7503 36.9015 43.4439ZM24.7817 53.5637C30.3707 53.5637 34.9015 49.0329 34.9015 43.4439C34.9015 37.8549 30.3707 33.3241 24.7817 33.3241C19.1927 33.3241 14.6619 37.8549 14.6619 43.4439C14.6619 49.0329 19.1927 53.5637 24.7817 53.5637Z" fill="#D9CD8C"/>
<path d="M74.5203 35.7342C74.5203 40.5444 70.6209 44.4438 65.8107 44.4438C61.0005 44.4438 57.1011 40.5444 57.1011 35.7342C57.1011 30.924 61.0005 27.0245 65.8107 27.0245C70.6209 27.0245 74.5203 30.924 74.5203 35.7342Z" fill="#F8F2D8"/>
<path fill-rule="evenodd" clip-rule="evenodd" d="M76.5203 35.7342C76.5203 41.6489 71.7255 46.4438 65.8107 46.4438C59.8959 46.4438 55.1011 41.6489 55.1011 35.7342C55.1011 29.8194 59.8959 25.0245 65.8107 25.0245C71.7255 25.0245 76.5203 29.8194 76.5203 35.7342ZM65.8107 44.4438C70.6209 44.4438 74.5203 40.5444 74.5203 35.7342C74.5203 30.924 70.6209 27.0245 65.8107 27.0245C61.0005 27.0245 57.1011 30.924 57.1011 35.7342C57.1011 40.5444 61.0005 44.4438 65.8107 44.4438Z" fill="#D9CD8C"/>
<path d="M42.6951 27.2381C42.6951 30.9901 39.6535 34.0318 35.9014 34.0318C32.1493 34.0318 29.1077 30.9901 29.1077 27.2381C29.1077 23.486 32.1493 20.4443 35.9014 20.4443C39.6535 20.4443 42.6951 23.486 42.6951 27.2381Z" fill="#F8F2D8"/>
<path fill-rule="evenodd" clip-rule="evenodd" d="M44.6951 27.2381C44.6951 32.0947 40.758 36.0318 35.9014 36.0318C31.0447 36.0318 27.1077 32.0947 27.1077 27.2381C27.1077 22.3814 31.0447 18.4443 35.9014 18.4443C40.758 18.4443 44.6951 22.3814 44.6951 27.2381ZM35.9014 34.0318C39.6535 34.0318 42.6951 30.9901 42.6951 27.2381C42.6951 23.486 39.6535 20.4443 35.9014 20.4443C32.1493 20.4443 29.1077 23.486 29.1077 27.2381C29.1077 30.9901 32.1493 34.0318 35.9014 34.0318Z" fill="#D9CD8C"/>
<path d="M71.522 56.128C71.522 59.3422 68.9164 61.9477 65.7023 61.9477C62.4881 61.9477 59.8826 59.3422 59.8826 56.128C59.8826 52.9139 62.4881 50.3083 65.7023 50.3083C68.9164 50.3083 71.522 52.9139 71.522 56.128Z" fill="#F3E9BE"/>
<path fill-rule="evenodd" clip-rule="evenodd" d="M73.522 56.128C73.522 60.4467 70.021 63.9477 65.7023 63.9477C61.3836 63.9477 57.8826 60.4467 57.8826 56.128C57.8826 51.8093 61.3836 48.3083 65.7023 48.3083C70.021 48.3083 73.522 51.8093 73.522 56.128ZM65.7023 61.9477C68.9164 61.9477 71.522 59.3422 71.522 56.128C71.522 52.9139 68.9164 50.3083 65.7023 50.3083C62.4881 50.3083 59.8826 52.9139 59.8826 56.128C59.8826 59.3422 62.4881 61.9477 65.7023 61.9477Z" fill="#C2B66C"/>
<path d="M30.514 57.1021C30.514 60.8541 27.4723 63.8958 23.7202 63.8958C19.9682 63.8958 16.9265 60.8541 16.9265 57.1021C16.9265 53.35 19.9682 50.3083 23.7202 50.3083C27.4723 50.3083 30.514 53.35 30.514 57.1021Z" fill="#F8F2D8"/>
<path fill-rule="evenodd" clip-rule="evenodd" d="M32.514 57.1021C32.514 61.9587 28.5769 65.8958 23.7202 65.8958C18.8636 65.8958 14.9265 61.9587 14.9265 57.1021C14.9265 52.2454 18.8636 48.3083 23.7202 48.3083C28.5769 48.3083 32.514 52.2454 32.514 57.1021ZM23.7202 63.8958C27.4723 63.8958 30.514 60.8541 30.514 57.1021C30.514 53.35 27.4723 50.3083 23.7202 50.3083C19.9682 50.3083 16.9265 53.35 16.9265 57.1021C16.9265 60.8541 19.9682 63.8958 23.7202 63.8958Z" fill="#D9CD8C"/>
<path d="M53.4427 67.7173C53.4427 71.4694 50.401 74.511 46.6489 74.511C42.8969 74.511 39.8552 71.4694 39.8552 67.7173C39.8552 63.9652 42.8969 60.9236 46.6489 60.9236C50.401 60.9236 53.4427 63.9652 53.4427 67.7173Z" fill="#F3E9BE"/>
<path fill-rule="evenodd" clip-rule="evenodd" d="M55.4427 67.7173C55.4427 72.5739 51.5056 76.511 46.6489 76.511C41.7923 76.511 37.8552 72.5739 37.8552 67.7173C37.8552 62.8607 41.7923 58.9236 46.6489 58.9236C51.5056 58.9236 55.4427 62.8607 55.4427 67.7173ZM46.6489 74.511C50.401 74.511 53.4427 71.4694 53.4427 67.7173C53.4427 63.9652 50.401 60.9236 46.6489 60.9236C42.8969 60.9236 39.8552 63.9652 39.8552 67.7173C39.8552 71.4694 42.8969 74.511 46.6489 74.511Z" fill="#C2B66C"/>
<path d="M66.1809 65.4527C66.1809 69.2047 63.1393 72.2464 59.3872 72.2464C55.6352 72.2464 52.5935 69.2047 52.5935 65.4527C52.5935 61.7006 55.6352 58.6589 59.3872 58.6589C63.1393 58.6589 66.1809 61.7006 66.1809 65.4527Z" fill="#F8F2D8"/>
<path fill-rule="evenodd" clip-rule="evenodd" d="M68.181 65.4527C68.181 70.3093 64.2439 74.2464 59.3872 74.2464C54.5306 74.2464 50.5935 70.3093 50.5935 65.4527C50.5935 60.596 54.5306 56.6589 59.3872 56.6589C64.2439 56.6589 68.181 60.596 68.181 65.4527ZM59.3872 72.2464C63.1393 72.2464 66.1809 69.2047 66.1809 65.4527C66.1809 61.7006 63.1393 58.6589 59.3872 58.6589C55.6352 58.6589 52.5935 61.7006 52.5935 65.4527C52.5935 69.2047 55.6352 72.2464 59.3872 72.2464Z" fill="#D9CD8C"/>
<path d="M58.4433 70.3397C58.4433 70.8489 58.0305 71.2617 57.5213 71.2617C57.0121 71.2617 56.5994 70.8489 56.5994 70.3397C56.5994 69.8306 57.0121 69.4178 57.5213 69.4178C58.0305 69.4178 58.4433 69.8306 58.4433 70.3397Z" fill="#EADEAA"/>
<path d="M62.0142 69.6976C62.0142 70.3385 61.4946 70.858 60.8538 70.858C60.2129 70.858 59.6934 70.3385 59.6934 69.6976C59.6934 69.0567 60.2129 68.5372 60.8538 68.5372C61.4946 68.5372 62.0142 69.0567 62.0142 69.6976Z" fill="#EADEAA"/>
<path d="M63.9912 67.7596C63.9912 68.1433 63.6801 68.4544 63.2963 68.4544C62.9125 68.4544 62.6014 68.1433 62.6014 67.7596C62.6014 67.3758 62.9125 67.0647 63.2963 67.0647C63.6801 67.0647 63.9912 67.3758 63.9912 67.7596Z" fill="#EADEAA"/>
<path d="M65.0969 64.6114C65.0969 64.9952 64.7858 65.3063 64.402 65.3063C64.0183 65.3063 63.7072 64.9952 63.7072 64.6114C63.7072 64.2277 64.0183 63.9166 64.402 63.9166C64.7858 63.9166 65.0969 64.2277 65.0969 64.6114Z" fill="#EADEAA"/>
<path d="M62.0142 67.0647C62.0142 67.4485 61.7031 67.7596 61.3194 67.7596C60.9356 67.7596 60.6245 67.4485 60.6245 67.0647C60.6245 66.681 60.9356 66.3699 61.3194 66.3699C61.7031 66.3699 62.0142 66.681 62.0142 67.0647Z" fill="#EADEAA"/>
<path d="M77.7869 44.5072C77.7869 48.2593 74.7453 51.3009 70.9932 51.3009C67.2411 51.3009 64.1995 48.2593 64.1995 44.5072C64.1995 40.7552 67.2411 37.7135 70.9932 37.7135C74.7453 37.7135 77.7869 40.7552 77.7869 44.5072Z" fill="#F8F2D8"/>
<path fill-rule="evenodd" clip-rule="evenodd" d="M79.7869 44.5072C79.7869 49.3639 75.8498 53.3009 70.9932 53.3009C66.1365 53.3009 62.1995 49.3639 62.1995 44.5072C62.1995 39.6506 66.1365 35.7135 70.9932 35.7135C75.8498 35.7135 79.7869 39.6506 79.7869 44.5072ZM70.9932 51.3009C74.7453 51.3009 77.7869 48.2593 77.7869 44.5072C77.7869 40.7552 74.7453 37.7135 70.9932 37.7135C67.2411 37.7135 64.1995 40.7552 64.1995 44.5072C64.1995 48.2593 67.2411 51.3009 70.9932 51.3009Z" fill="#D9CD8C"/>
<path d="M70.5712 49.2454C70.5712 49.7472 70.1644 50.1539 69.6627 50.1539C69.1609 50.1539 68.7542 49.7472 68.7542 49.2454C68.7542 48.7437 69.1609 48.3369 69.6627 48.3369C70.1644 48.3369 70.5712 48.7437 70.5712 49.2454Z" fill="#EADEAA"/>
<path d="M74.0899 48.6126C74.0899 49.2441 73.578 49.7561 72.9465 49.7561C72.3149 49.7561 71.803 49.2441 71.803 48.6126C71.803 47.9811 72.3149 47.4691 72.9465 47.4691C73.578 47.4691 74.0899 47.9811 74.0899 48.6126Z" fill="#EADEAA"/>
<path d="M76.0379 46.703C76.0379 47.0811 75.7313 47.3877 75.3532 47.3877C74.975 47.3877 74.6685 47.0811 74.6685 46.703C74.6685 46.3248 74.975 46.0182 75.3532 46.0182C75.7313 46.0182 76.0379 46.3248 76.0379 46.703Z" fill="#EADEAA"/>
<path d="M77.1275 43.6007C77.1275 43.9789 76.8209 44.2855 76.4428 44.2855C76.0646 44.2855 75.7581 43.9789 75.7581 43.6007C75.7581 43.2226 76.0646 42.916 76.4428 42.916C76.8209 42.916 77.1275 43.2226 77.1275 43.6007Z" fill="#EADEAA"/>
<path d="M74.0899 46.0182C74.0899 46.3964 73.7833 46.7029 73.4052 46.7029C73.027 46.7029 72.7205 46.3964 72.7205 46.0182C72.7205 45.6401 73.027 45.3335 73.4052 45.3335C73.7833 45.3335 74.0899 45.6401 74.0899 46.0182Z" fill="#EADEAA"/>
<path d="M61.4744 46.7252C61.4744 51.22 57.8306 54.8638 53.3358 54.8638C48.841 54.8638 45.1973 51.22 45.1973 46.7252C45.1973 42.2304 48.841 38.5867 53.3358 38.5867C57.8306 38.5867 61.4744 42.2304 61.4744 46.7252Z" fill="#EDE3BA"/>
<path fill-rule="evenodd" clip-rule="evenodd" d="M63.4744 46.7252C63.4744 52.3246 58.9352 56.8638 53.3358 56.8638C47.7364 56.8638 43.1973 52.3246 43.1973 46.7252C43.1973 41.1259 47.7364 36.5867 53.3358 36.5867C58.9352 36.5867 63.4744 41.1259 63.4744 46.7252ZM53.3358 54.8638C57.8306 54.8638 61.4744 51.22 61.4744 46.7252C61.4744 42.2304 57.8306 38.5867 53.3358 38.5867C48.841 38.5867 45.1973 42.2304 45.1973 46.7252C45.1973 51.22 48.841 54.8638 53.3358 54.8638Z" fill="#C2B66C"/>
<path d="M52.7026 52.2101C52.7026 52.7909 52.2318 53.2617 51.651 53.2617C51.0702 53.2617 50.5994 52.7909 50.5994 52.2101C50.5994 51.6293 51.0702 51.1584 51.651 51.1584C52.2318 51.1584 52.7026 51.6293 52.7026 52.2101Z" fill="#DACC92"/>
<path d="M56.7758 51.4776C56.7758 52.2086 56.1832 52.8012 55.4522 52.8012C54.7211 52.8012 54.1285 52.2086 54.1285 51.4776C54.1285 50.7466 54.7211 50.154 55.4522 50.154C56.1832 50.154 56.7758 50.7466 56.7758 51.4776Z" fill="#DACC92"/>
<path d="M59.0309 49.267C59.0309 49.7048 58.676 50.0596 58.2383 50.0596C57.8005 50.0596 57.4457 49.7048 57.4457 49.267C57.4457 48.8293 57.8005 48.4744 58.2383 48.4744C58.676 48.4744 59.0309 48.8293 59.0309 49.267Z" fill="#DACC92"/>
<path d="M60.2921 45.6761C60.2921 46.1139 59.9372 46.4687 59.4995 46.4687C59.0618 46.4687 58.7069 46.1139 58.7069 45.6761C58.7069 45.2384 59.0618 44.8835 59.4995 44.8835C59.9372 44.8835 60.2921 45.2384 60.2921 45.6761Z" fill="#DACC92"/>
<path d="M56.7757 48.4745C56.7757 48.9122 56.4209 49.2671 55.9831 49.2671C55.5454 49.2671 55.1906 48.9122 55.1906 48.4745C55.1906 48.0367 55.5454 47.6819 55.9831 47.6819C56.4209 47.6819 56.7757 48.0367 56.7757 48.4745Z" fill="#DACC92"/>
<path d="M59.5897 24.6168C59.5897 28.6397 56.3285 31.901 52.3055 31.901C48.2825 31.901 45.0212 28.6397 45.0212 24.6168C45.0212 20.5938 48.2825 17.3325 52.3055 17.3325C56.3285 17.3325 59.5897 20.5938 59.5897 24.6168Z" fill="#F8F2D8"/>
<path fill-rule="evenodd" clip-rule="evenodd" d="M61.5897 24.6168C61.5897 29.7443 57.433 33.901 52.3055 33.901C47.1779 33.901 43.0212 29.7443 43.0212 24.6168C43.0212 19.4892 47.1779 15.3325 52.3055 15.3325C57.433 15.3325 61.5897 19.4892 61.5897 24.6168ZM52.3055 31.901C56.3285 31.901 59.5897 28.6397 59.5897 24.6168C59.5897 20.5938 56.3285 17.3325 52.3055 17.3325C48.2825 17.3325 45.0212 20.5938 45.0212 24.6168C45.0212 28.6397 48.2825 31.901 52.3055 31.901Z" fill="#D9CD8C"/>
<path d="M55.2415 33.025C55.2415 38.9179 50.4644 43.6949 44.5715 43.6949C38.6787 43.6949 33.9016 38.9179 33.9016 33.025C33.9016 27.1322 38.6787 22.3551 44.5715 22.3551C50.4644 22.3551 55.2415 27.1322 55.2415 33.025Z" fill="#F8F2D8"/>
<path fill-rule="evenodd" clip-rule="evenodd" d="M57.2415 33.025C57.2415 40.0224 51.5689 45.6949 44.5715 45.6949C37.5741 45.6949 31.9016 40.0224 31.9016 33.025C31.9016 26.0276 37.5741 20.3551 44.5715 20.3551C51.5689 20.3551 57.2415 26.0276 57.2415 33.025ZM44.5715 43.6949C50.4644 43.6949 55.2415 38.9179 55.2415 33.025C55.2415 27.1322 50.4644 22.3551 44.5715 22.3551C38.6787 22.3551 33.9016 27.1322 33.9016 33.025C33.9016 38.9179 38.6787 43.6949 44.5715 43.6949Z" fill="#D9CD8C"/>
<path d="M44.3557 41.8835C44.3557 42.6447 43.7387 43.2617 42.9775 43.2617C42.2164 43.2617 41.5994 42.6447 41.5994 41.8835C41.5994 41.1224 42.2164 40.5054 42.9775 40.5054C43.7387 40.5054 44.3557 41.1224 44.3557 41.8835Z" fill="#EADEAA"/>
<path d="M49.6936 40.9236C49.6936 41.8816 48.917 42.6582 47.959 42.6582C47.001 42.6582 46.2244 41.8816 46.2244 40.9236C46.2244 39.9656 47.001 39.189 47.959 39.189C48.917 39.189 49.6936 39.9656 49.6936 40.9236Z" fill="#EADEAA"/>
<path d="M52.6489 38.0266C52.6489 38.6003 52.1839 39.0653 51.6102 39.0653C51.0366 39.0653 50.5715 38.6003 50.5715 38.0266C50.5715 37.453 51.0366 36.9879 51.6102 36.9879C52.1839 36.9879 52.6489 37.453 52.6489 38.0266Z" fill="#EADEAA"/>
<path d="M54.3018 33.3207C54.3018 33.8944 53.8367 34.3594 53.2631 34.3594C52.6894 34.3594 52.2244 33.8944 52.2244 33.3207C52.2244 32.747 52.6894 32.282 53.2631 32.282C53.8367 32.282 54.3018 32.747 54.3018 33.3207Z" fill="#EADEAA"/>
<path d="M49.6936 36.9879C49.6936 37.5616 49.2286 38.0266 48.6549 38.0266C48.0813 38.0266 47.6162 37.5616 47.6162 36.9879C47.6162 36.4143 48.0813 35.9492 48.6549 35.9492C49.2286 35.9492 49.6936 36.4143 49.6936 36.9879Z" fill="#EADEAA"/>
<path d="M49.8655 54.5739C49.8655 60.5821 44.9948 65.4528 38.9866 65.4528C32.9783 65.4528 28.1077 60.5821 28.1077 54.5739C28.1077 48.5656 32.9783 43.6949 38.9866 43.6949C44.9948 43.6949 49.8655 48.5656 49.8655 54.5739Z" fill="#F8F2D8"/>
<path fill-rule="evenodd" clip-rule="evenodd" d="M51.8655 54.5739C51.8655 61.6867 46.0994 67.4528 38.9866 67.4528C31.8737 67.4528 26.1077 61.6867 26.1077 54.5739C26.1077 47.461 31.8737 41.6949 38.9866 41.6949C46.0994 41.6949 51.8655 47.461 51.8655 54.5739ZM38.9866 65.4528C44.9948 65.4528 49.8655 60.5821 49.8655 54.5739C49.8655 48.5656 44.9948 43.6949 38.9866 43.6949C32.9783 43.6949 28.1077 48.5656 28.1077 54.5739C28.1077 60.5821 32.9783 65.4528 38.9866 65.4528Z" fill="#D9CD8C"/>
<path d="M35.9723 37.0317C35.9723 41.7608 32.1385 45.5946 27.4094 45.5946C22.6802 45.5946 18.8464 41.7608 18.8464 37.0317C18.8464 32.3025 22.6802 28.4688 27.4094 28.4688C32.1385 28.4688 35.9723 32.3025 35.9723 37.0317Z" fill="#F8F2D8"/>
<path fill-rule="evenodd" clip-rule="evenodd" d="M37.9723 37.0317C37.9723 42.8654 33.2431 47.5946 27.4094 47.5946C21.5756 47.5946 16.8464 42.8654 16.8464 37.0317C16.8464 31.1979 21.5756 26.4688 27.4094 26.4688C33.2431 26.4688 37.9723 31.1979 37.9723 37.0317ZM27.4094 45.5946C32.1385 45.5946 35.9723 41.7608 35.9723 37.0317C35.9723 32.3025 32.1385 28.4688 27.4094 28.4688C22.6802 28.4688 18.8464 32.3025 18.8464 37.0317C18.8464 41.7608 22.6802 45.5946 27.4094 45.5946Z" fill="#D9CD8C"/>
<path d="M48.9136 31.0957C48.9136 33.5971 46.8858 35.6249 44.3844 35.6249C41.883 35.6249 39.8552 33.5971 39.8552 31.0957C39.8552 28.5943 41.883 26.5665 44.3844 26.5665C46.8858 26.5665 48.9136 28.5943 48.9136 31.0957Z" fill="#FFFEF8"/>
<path d="M39.8552 54.3412C39.8552 56.4132 38.1755 58.0929 36.1035 58.0929C34.0315 58.0929 32.3518 56.4132 32.3518 54.3412C32.3518 52.2692 34.0315 50.5895 36.1035 50.5895C38.1755 50.5895 39.8552 52.2692 39.8552 54.3412Z" fill="#FFFEF8"/>
<path d="M28.1077 33.9716C28.1077 35.686 26.7178 37.0758 25.0034 37.0758C23.289 37.0758 21.8992 35.686 21.8992 33.9716C21.8992 32.2571 23.289 30.8673 25.0034 30.8673C26.7178 30.8673 28.1077 32.2571 28.1077 33.9716Z" fill="#FFFEF8"/>
<path d="M70.807 42.5151C70.807 43.6488 69.8879 44.5679 68.7542 44.5679C67.6205 44.5679 66.7014 43.6488 66.7014 42.5151C66.7014 41.3813 67.6205 40.4623 68.7542 40.4623C69.8879 40.4623 70.807 41.3813 70.807 42.5151Z" fill="#FFFEF8"/>
<path d="M67.819 32.1105C67.819 33.1383 66.9858 33.9716 65.9579 33.9716C64.9301 33.9716 64.0969 33.1383 64.0969 32.1105C64.0969 31.0827 64.9301 30.2495 65.9579 30.2495C66.9858 30.2495 67.819 31.0827 67.819 32.1105Z" fill="#FFFEF8"/>
<path d="M40.1313 65.3157C40.1313 66.0768 39.5143 66.6938 38.7532 66.6938C37.992 66.6938 37.375 66.0768 37.375 65.3157C37.375 64.5545 37.992 63.9375 38.7532 63.9375C39.5143 63.9375 40.1313 64.5545 40.1313 65.3157Z" fill="#EADEAA"/>
<path d="M45.4692 64.3557C45.4692 65.3137 44.6926 66.0903 43.7346 66.0903C42.7766 66.0903 42 65.3137 42 64.3557C42 63.3977 42.7766 62.6211 43.7346 62.6211C44.6926 62.6211 45.4692 63.3977 45.4692 64.3557Z" fill="#EADEAA"/>
<path d="M48.4246 61.4588C48.4246 62.0324 47.9595 62.4975 47.3859 62.4975C46.8122 62.4975 46.3472 62.0324 46.3472 61.4588C46.3472 60.8851 46.8122 60.42 47.3859 60.42C47.9595 60.42 48.4246 60.8851 48.4246 61.4588Z" fill="#EADEAA"/>
<path d="M50.0774 56.7528C50.0774 57.3265 49.6124 57.7915 49.0387 57.7915C48.465 57.7915 48 57.3265 48 56.7528C48 56.1792 48.465 55.7141 49.0387 55.7141C49.6124 55.7141 50.0774 56.1792 50.0774 56.7528Z" fill="#EADEAA"/>
<path d="M45.4693 60.4201C45.4693 60.9937 45.0042 61.4588 44.4306 61.4588C43.8569 61.4588 43.3918 60.9937 43.3918 60.4201C43.3918 59.8464 43.8569 59.3813 44.4306 59.3813C45.0042 59.3813 45.4693 59.8464 45.4693 60.4201Z" fill="#EADEAA"/>
</svg>
