<svg width="96" height="96" viewBox="0 0 96 96" fill="none" xmlns="http://www.w3.org/2000/svg">
<path d="M64 28C64 31.3137 61.3137 34 58 34C54.6863 34 52 31.3137 52 28C52 24.6863 54.6863 22 58 22C61.3137 22 64 24.6863 64 28Z" fill="#C80D5C"/>
<path fill-rule="evenodd" clip-rule="evenodd" d="M66 28C66 32.4183 62.4183 36 58 36C53.5817 36 50 32.4183 50 28C50 23.5817 53.5817 20 58 20C62.4183 20 66 23.5817 66 28ZM58 34C61.3137 34 64 31.3137 64 28C64 24.6863 61.3137 22 58 22C54.6863 22 52 24.6863 52 28C52 31.3137 54.6863 34 58 34Z" fill="#830339"/>
<path fill-rule="evenodd" clip-rule="evenodd" d="M56 32C59.3137 32 62 29.3137 62 26C62 24.8556 61.6797 23.7861 61.1238 22.8762C62.8487 23.9301 64 25.8306 64 28C64 31.3137 61.3137 34 58 34C55.8306 34 53.9302 32.8486 52.8763 31.1237C53.7862 31.6796 54.8557 32 56 32Z" fill="#B71358"/>
<path d="M46 28C46 31.3137 43.3137 34 40 34C36.6863 34 34 31.3137 34 28C34 24.6863 36.6863 22 40 22C43.3137 22 46 24.6863 46 28Z" fill="#C80D5C"/>
<path fill-rule="evenodd" clip-rule="evenodd" d="M48 28C48 32.4183 44.4183 36 40 36C35.5817 36 32 32.4183 32 28C32 23.5817 35.5817 20 40 20C44.4183 20 48 23.5817 48 28ZM40 34C43.3137 34 46 31.3137 46 28C46 24.6863 43.3137 22 40 22C36.6863 22 34 24.6863 34 28C34 31.3137 36.6863 34 40 34Z" fill="#830339"/>
<path fill-rule="evenodd" clip-rule="evenodd" d="M38 32C41.3137 32 44 29.3137 44 26C44 24.8556 43.6797 23.7861 43.1238 22.8762C44.8487 23.9301 46 25.8306 46 28C46 31.3137 43.3137 34 40 34C37.8306 34 35.9302 32.8486 34.8763 31.1237C35.7862 31.6796 36.8557 32 38 32Z" fill="#B71358"/>
<path d="M54 33C54 36.3137 51.3137 39 48 39C44.6863 39 42 36.3137 42 33C42 29.6863 44.6863 27 48 27C51.3137 27 54 29.6863 54 33Z" fill="#C80D5C"/>
<path fill-rule="evenodd" clip-rule="evenodd" d="M56 33C56 37.4183 52.4183 41 48 41C43.5817 41 40 37.4183 40 33C40 28.5817 43.5817 25 48 25C52.4183 25 56 28.5817 56 33ZM48 39C51.3137 39 54 36.3137 54 33C54 29.6863 51.3137 27 48 27C44.6863 27 42 29.6863 42 33C42 36.3137 44.6863 39 48 39Z" fill="#830339"/>
<path fill-rule="evenodd" clip-rule="evenodd" d="M46 37C49.3137 37 52 34.3137 52 31C52 29.8556 51.6797 28.7861 51.1238 27.8762C52.8487 28.9301 54 30.8306 54 33C54 36.3137 51.3137 39 48 39C45.8306 39 43.9302 37.8486 42.8763 36.1237C43.7862 36.6796 44.8557 37 46 37Z" fill="#B71358"/>
<path d="M72 32C72 35.3137 69.3137 38 66 38C62.6863 38 60 35.3137 60 32C60 28.6863 62.6863 26 66 26C69.3137 26 72 28.6863 72 32Z" fill="#F42E81"/>
<path fill-rule="evenodd" clip-rule="evenodd" d="M74 32C74 36.4183 70.4183 40 66 40C61.5817 40 58 36.4183 58 32C58 27.5817 61.5817 24 66 24C70.4183 24 74 27.5817 74 32ZM66 38C69.3137 38 72 35.3137 72 32C72 28.6863 69.3137 26 66 26C62.6863 26 60 28.6863 60 32C60 35.3137 62.6863 38 66 38Z" fill="#A40146"/>
<path d="M37 32C37 35.3137 34.3137 38 31 38C27.6863 38 25 35.3137 25 32C25 28.6863 27.6863 26 31 26C34.3137 26 37 28.6863 37 32Z" fill="#F42E81"/>
<path fill-rule="evenodd" clip-rule="evenodd" d="M39 32C39 36.4183 35.4183 40 31 40C26.5817 40 23 36.4183 23 32C23 27.5817 26.5817 24 31 24C35.4183 24 39 27.5817 39 32ZM31 38C34.3137 38 37 35.3137 37 32C37 28.6863 34.3137 26 31 26C27.6863 26 25 28.6863 25 32C25 35.3137 27.6863 38 31 38Z" fill="#A40146"/>
<path d="M54 68C54 71.3137 51.3137 74 48 74C44.6863 74 42 71.3137 42 68C42 64.6863 44.6863 62 48 62C51.3137 62 54 64.6863 54 68Z" fill="#D21B68"/>
<path fill-rule="evenodd" clip-rule="evenodd" d="M56 68C56 72.4183 52.4183 76 48 76C43.5817 76 40 72.4183 40 68C40 63.5817 43.5817 60 48 60C52.4183 60 56 63.5817 56 68ZM48 74C51.3137 74 54 71.3137 54 68C54 64.6863 51.3137 62 48 62C44.6863 62 42 64.6863 42 68C42 71.3137 44.6863 74 48 74Z" fill="#830339"/>
<path fill-rule="evenodd" clip-rule="evenodd" d="M46 72C49.3137 72 52 69.3137 52 66C52 64.8556 51.6797 63.7861 51.1238 62.8762C52.8487 63.9301 54 65.8306 54 68C54 71.3137 51.3137 74 48 74C45.8306 74 43.9302 72.8486 42.8763 71.1237C43.7862 71.6796 44.8557 72 46 72Z" fill="#B71358"/>
<path d="M33 38C33 41.3137 30.3137 44 27 44C23.6863 44 21 41.3137 21 38C21 34.6863 23.6863 32 27 32C30.3137 32 33 34.6863 33 38Z" fill="#F42E81"/>
<path fill-rule="evenodd" clip-rule="evenodd" d="M35 38C35 42.4183 31.4183 46 27 46C22.5817 46 19 42.4183 19 38C19 33.5817 22.5817 30 27 30C31.4183 30 35 33.5817 35 38ZM27 44C30.3137 44 33 41.3137 33 38C33 34.6863 30.3137 32 27 32C23.6863 32 21 34.6863 21 38C21 41.3137 23.6863 44 27 44Z" fill="#A40146"/>
<path fill-rule="evenodd" clip-rule="evenodd" d="M25 42C28.3137 42 31 39.3137 31 36C31 34.8556 30.6797 33.7861 30.1238 32.8762C31.8487 33.9301 33 35.8306 33 38C33 41.3137 30.3137 44 27 44C24.8306 44 22.9302 42.8486 21.8763 41.1237C22.7862 41.6796 23.8557 42 25 42Z" fill="#E32675"/>
<path d="M47 38C47 41.3137 44.3137 44 41 44C37.6863 44 35 41.3137 35 38C35 34.6863 37.6863 32 41 32C44.3137 32 47 34.6863 47 38Z" fill="#F42E81"/>
<path fill-rule="evenodd" clip-rule="evenodd" d="M49 38C49 42.4183 45.4183 46 41 46C36.5817 46 33 42.4183 33 38C33 33.5817 36.5817 30 41 30C45.4183 30 49 33.5817 49 38ZM41 44C44.3137 44 47 41.3137 47 38C47 34.6863 44.3137 32 41 32C37.6863 32 35 34.6863 35 38C35 41.3137 37.6863 44 41 44Z" fill="#A40146"/>
<path fill-rule="evenodd" clip-rule="evenodd" d="M39 42C42.3137 42 45 39.3137 45 36C45 34.8556 44.6797 33.7861 44.1238 32.8762C45.8487 33.9301 47 35.8306 47 38C47 41.3137 44.3137 44 41 44C38.8306 44 36.9302 42.8486 35.8763 41.1237C36.7862 41.6796 37.8557 42 39 42Z" fill="#E32675"/>
<path d="M75 39C75 42.3137 72.3137 45 69 45C65.6863 45 63 42.3137 63 39C63 35.6863 65.6863 33 69 33C72.3137 33 75 35.6863 75 39Z" fill="#D21B68"/>
<path fill-rule="evenodd" clip-rule="evenodd" d="M77 39C77 43.4183 73.4183 47 69 47C64.5817 47 61 43.4183 61 39C61 34.5817 64.5817 31 69 31C73.4183 31 77 34.5817 77 39ZM69 45C72.3137 45 75 42.3137 75 39C75 35.6863 72.3137 33 69 33C65.6863 33 63 35.6863 63 39C63 42.3137 65.6863 45 69 45Z" fill="#830339"/>
<path fill-rule="evenodd" clip-rule="evenodd" d="M67 43C70.3137 43 73 40.3137 73 37C73 35.8556 72.6797 34.7861 72.1238 33.8762C73.8487 34.9301 75 36.8306 75 39C75 42.3137 72.3137 45 69 45C66.8306 45 64.9302 43.8486 63.8763 42.1237C64.7862 42.6796 65.8557 43 67 43Z" fill="#B71358"/>
<path d="M61 38C61 41.3137 58.3137 44 55 44C51.6863 44 49 41.3137 49 38C49 34.6863 51.6863 32 55 32C58.3137 32 61 34.6863 61 38Z" fill="#F42E81"/>
<path fill-rule="evenodd" clip-rule="evenodd" d="M63 38C63 42.4183 59.4183 46 55 46C50.5817 46 47 42.4183 47 38C47 33.5817 50.5817 30 55 30C59.4183 30 63 33.5817 63 38ZM55 44C58.3137 44 61 41.3137 61 38C61 34.6863 58.3137 32 55 32C51.6863 32 49 34.6863 49 38C49 41.3137 51.6863 44 55 44Z" fill="#A40146"/>
<path d="M55.6942 41.9642C55.4589 42.3145 54.9843 42.4077 54.6341 42.1724C54.2839 41.9372 54.1907 41.4626 54.4259 41.1124C54.6612 40.7622 55.1358 40.669 55.486 40.9042C55.8362 41.1394 55.9294 41.614 55.6942 41.9642Z" fill="#BF195F"/>
<path d="M59.5327 39.4053C59.2975 39.7555 58.8229 39.8487 58.4727 39.6135C58.1224 39.3783 58.0292 38.9037 58.2645 38.5534C58.4997 38.2032 58.9743 38.11 59.3245 38.3452C59.6747 38.5805 59.7679 39.0551 59.5327 39.4053Z" fill="#BF195F"/>
<path d="M57.1041 39.9795C56.9396 40.2244 56.6077 40.2896 56.3627 40.1251C56.1178 39.9606 56.0526 39.6287 56.2171 39.3838C56.3816 39.1389 56.7135 39.0737 56.9585 39.2382C57.2034 39.4027 57.2686 39.7346 57.1041 39.9795Z" fill="#BF195F"/>
<path d="M58.3835 40.8777C58.219 41.1226 57.8871 41.1878 57.6422 41.0233C57.3973 40.8588 57.3321 40.5269 57.4966 40.282C57.6611 40.037 57.993 39.9719 58.2379 40.1364C58.4829 40.3009 58.548 40.6328 58.3835 40.8777Z" fill="#BF195F"/>
<path d="M59.6631 37.0392C59.4985 37.2841 59.1666 37.3493 58.9217 37.1848C58.6768 37.0203 58.6116 36.6884 58.7761 36.4435C58.9406 36.1985 59.2725 36.1334 59.5175 36.2979C59.7624 36.4624 59.8276 36.7943 59.6631 37.0392Z" fill="#BF195F"/>
<path d="M34 47C34 50.3137 31.3137 53 28 53C24.6863 53 22 50.3137 22 47C22 43.6863 24.6863 41 28 41C31.3137 41 34 43.6863 34 47Z" fill="#F42E81"/>
<path fill-rule="evenodd" clip-rule="evenodd" d="M36 47C36 51.4183 32.4183 55 28 55C23.5817 55 20 51.4183 20 47C20 42.5817 23.5817 39 28 39C32.4183 39 36 42.5817 36 47ZM28 53C31.3137 53 34 50.3137 34 47C34 43.6863 31.3137 41 28 41C24.6863 41 22 43.6863 22 47C22 50.3137 24.6863 53 28 53Z" fill="#A40146"/>
<path d="M37 56C37 59.3137 34.3137 62 31 62C27.6863 62 25 59.3137 25 56C25 52.6863 27.6863 50 31 50C34.3137 50 37 52.6863 37 56Z" fill="#F42E81"/>
<path fill-rule="evenodd" clip-rule="evenodd" d="M39 56C39 60.4183 35.4183 64 31 64C26.5817 64 23 60.4183 23 56C23 51.5817 26.5817 48 31 48C35.4183 48 39 51.5817 39 56ZM31 62C34.3137 62 37 59.3137 37 56C37 52.6863 34.3137 50 31 50C27.6863 50 25 52.6863 25 56C25 59.3137 27.6863 62 31 62Z" fill="#A40146"/>
<path fill-rule="evenodd" clip-rule="evenodd" d="M29 60C32.3137 60 35 57.3137 35 54C35 52.8556 34.6797 51.7861 34.1238 50.8762C35.8487 51.9301 37 53.8306 37 56C37 59.3137 34.3137 62 31 62C28.8306 62 26.9302 60.8486 25.8763 59.1237C26.7862 59.6796 27.8557 60 29 60Z" fill="#E32675"/>
<path d="M44 64C44 67.3137 41.3137 70 38 70C34.6863 70 32 67.3137 32 64C32 60.6863 34.6863 58 38 58C41.3137 58 44 60.6863 44 64Z" fill="#F42E81"/>
<path fill-rule="evenodd" clip-rule="evenodd" d="M46 64C46 68.4183 42.4183 72 38 72C33.5817 72 30 68.4183 30 64C30 59.5817 33.5817 56 38 56C42.4183 56 46 59.5817 46 64ZM38 70C41.3137 70 44 67.3137 44 64C44 60.6863 41.3137 58 38 58C34.6863 58 32 60.6863 32 64C32 67.3137 34.6863 70 38 70Z" fill="#A40146"/>
<path fill-rule="evenodd" clip-rule="evenodd" d="M36 68C39.3137 68 42 65.3137 42 62C42 60.8556 41.6797 59.7861 41.1238 58.8762C42.8487 59.9301 44 61.8306 44 64C44 67.3137 41.3137 70 38 70C35.8306 70 33.9302 68.8486 32.8763 67.1237C33.7862 67.6796 34.8557 68 36 68Z" fill="#E32675"/>
<path d="M38.6944 67.9642C38.4592 68.3145 37.9846 68.4077 37.6343 68.1724C37.2841 67.9372 37.1909 67.4626 37.4261 67.1124C37.6614 66.7622 38.136 66.669 38.4862 66.9042C38.8364 67.1394 38.9296 67.614 38.6944 67.9642Z" fill="#BF195F"/>
<path d="M42.5329 65.4053C42.2977 65.7555 41.8231 65.8487 41.4728 65.6135C41.1226 65.3783 41.0294 64.9037 41.2646 64.5534C41.4999 64.2032 41.9745 64.11 42.3247 64.3452C42.6749 64.5805 42.7681 65.0551 42.5329 65.4053Z" fill="#BF195F"/>
<path d="M40.1043 65.9795C39.9398 66.2244 39.6079 66.2896 39.363 66.1251C39.118 65.9606 39.0528 65.6287 39.2173 65.3838C39.3819 65.1389 39.7138 65.0737 39.9587 65.2382C40.2036 65.4027 40.2688 65.7346 40.1043 65.9795Z" fill="#BF195F"/>
<path d="M41.3838 66.8777C41.2193 67.1226 40.8873 67.1878 40.6424 67.0233C40.3975 66.8588 40.3323 66.5269 40.4968 66.282C40.6613 66.037 40.9932 65.9719 41.2382 66.1364C41.4831 66.3009 41.5483 66.6328 41.3838 66.8777Z" fill="#BF195F"/>
<path d="M42.6632 63.0392C42.4987 63.2841 42.1668 63.3493 41.9219 63.1848C41.677 63.0203 41.6118 62.6884 41.7763 62.4435C41.9408 62.1985 42.2727 62.1334 42.5176 62.2979C42.7626 62.4624 42.8277 62.7943 42.6632 63.0392Z" fill="#BF195F"/>
<path d="M74 47C74 50.3137 71.3137 53 68 53C64.6863 53 62 50.3137 62 47C62 43.6863 64.6863 41 68 41C71.3137 41 74 43.6863 74 47Z" fill="#D21B68"/>
<path fill-rule="evenodd" clip-rule="evenodd" d="M76 47C76 51.4183 72.4183 55 68 55C63.5817 55 60 51.4183 60 47C60 42.5817 63.5817 39 68 39C72.4183 39 76 42.5817 76 47ZM68 53C71.3137 53 74 50.3137 74 47C74 43.6863 71.3137 41 68 41C64.6863 41 62 43.6863 62 47C62 50.3137 64.6863 53 68 53Z" fill="#830339"/>
<path fill-rule="evenodd" clip-rule="evenodd" d="M66 51C69.3137 51 72 48.3137 72 45C72 43.8556 71.6797 42.7861 71.1238 41.8762C72.8487 42.9301 74 44.8306 74 47C74 50.3137 71.3137 53 68 53C65.8306 53 63.9302 51.8486 62.8763 50.1237C63.7862 50.6796 64.8557 51 66 51Z" fill="#B71358"/>
<path d="M68.6942 50.9642C68.4589 51.3145 67.9843 51.4077 67.6341 51.1724C67.2839 50.9372 67.1907 50.4626 67.4259 50.1124C67.6612 49.7622 68.1358 49.669 68.486 49.9042C68.8362 50.1394 68.9294 50.614 68.6942 50.9642Z" fill="#9E0C49"/>
<path d="M72.5327 48.4053C72.2975 48.7555 71.8229 48.8487 71.4727 48.6135C71.1224 48.3783 71.0292 47.9037 71.2645 47.5534C71.4997 47.2032 71.9743 47.11 72.3245 47.3452C72.6747 47.5805 72.7679 48.0551 72.5327 48.4053Z" fill="#9E0C49"/>
<path d="M70.1041 48.9795C69.9396 49.2244 69.6077 49.2896 69.3627 49.1251C69.1178 48.9606 69.0526 48.6287 69.2171 48.3838C69.3816 48.1389 69.7135 48.0737 69.9585 48.2382C70.2034 48.4027 70.2686 48.7346 70.1041 48.9795Z" fill="#9E0C49"/>
<path d="M71.3835 49.8777C71.219 50.1226 70.8871 50.1878 70.6422 50.0233C70.3973 49.8588 70.3321 49.5269 70.4966 49.282C70.6611 49.037 70.993 48.9719 71.2379 49.1364C71.4829 49.3009 71.548 49.6328 71.3835 49.8777Z" fill="#9E0C49"/>
<path d="M72.6631 46.0392C72.4985 46.2841 72.1666 46.3493 71.9217 46.1848C71.6768 46.0203 71.6116 45.6884 71.7761 45.4435C71.9406 45.1985 72.2725 45.1334 72.5175 45.2979C72.7624 45.4624 72.8276 45.7943 72.6631 46.0392Z" fill="#9E0C49"/>
<path d="M71 56C71 59.3137 68.3137 62 65 62C61.6863 62 59 59.3137 59 56C59 52.6863 61.6863 50 65 50C68.3137 50 71 52.6863 71 56Z" fill="#D21B68"/>
<path fill-rule="evenodd" clip-rule="evenodd" d="M73 56C73 60.4183 69.4183 64 65 64C60.5817 64 57 60.4183 57 56C57 51.5817 60.5817 48 65 48C69.4183 48 73 51.5817 73 56ZM65 62C68.3137 62 71 59.3137 71 56C71 52.6863 68.3137 50 65 50C61.6863 50 59 52.6863 59 56C59 59.3137 61.6863 62 65 62Z" fill="#830339"/>
<path fill-rule="evenodd" clip-rule="evenodd" d="M63 60C66.3137 60 69 57.3137 69 54C69 52.8556 68.6797 51.7861 68.1238 50.8762C69.8487 51.9301 71 53.8306 71 56C71 59.3137 68.3137 62 65 62C62.8306 62 60.9302 60.8486 59.8763 59.1237C60.7862 59.6796 61.8557 60 63 60Z" fill="#B71358"/>
<path d="M64 64C64 67.3137 61.3137 70 58 70C54.6863 70 52 67.3137 52 64C52 60.6863 54.6863 58 58 58C61.3137 58 64 60.6863 64 64Z" fill="#F42E81"/>
<path fill-rule="evenodd" clip-rule="evenodd" d="M66 64C66 68.4183 62.4183 72 58 72C53.5817 72 50 68.4183 50 64C50 59.5817 53.5817 56 58 56C62.4183 56 66 59.5817 66 64ZM58 70C61.3137 70 64 67.3137 64 64C64 60.6863 61.3137 58 58 58C54.6863 58 52 60.6863 52 64C52 67.3137 54.6863 70 58 70Z" fill="#A40146"/>
<path fill-rule="evenodd" clip-rule="evenodd" d="M56 68C59.3137 68 62 65.3137 62 62C62 60.8556 61.6797 59.7861 61.1238 58.8762C62.8487 59.9301 64 61.8306 64 64C64 67.3137 61.3137 70 58 70C55.8306 70 53.9302 68.8486 52.8763 67.1237C53.7862 67.6796 54.8557 68 56 68Z" fill="#E32675"/>
<path d="M57.9511 68.8682C57.6803 69.2715 57.1337 69.3788 56.7304 69.1079C56.3271 68.837 56.2198 68.2905 56.4907 67.8872C56.7616 67.4839 57.3081 67.3766 57.7114 67.6475C58.1147 67.9183 58.222 68.4649 57.9511 68.8682Z" fill="#BF195F"/>
<path d="M62.3714 65.9214C62.1005 66.3247 61.554 66.432 61.1507 66.1611C60.7474 65.8903 60.64 65.3437 60.9109 64.9404C61.1818 64.5371 61.7283 64.4298 62.1316 64.7007C62.5349 64.9716 62.6422 65.5181 62.3714 65.9214Z" fill="#BF195F"/>
<path d="M59.5747 66.5825C59.3852 66.8646 59.003 66.9397 58.721 66.7502C58.439 66.5608 58.3639 66.1786 58.5533 65.8965C58.7428 65.6145 59.125 65.5394 59.407 65.7289C59.6891 65.9183 59.7641 66.3005 59.5747 66.5825Z" fill="#BF195F"/>
<path d="M61.0481 67.617C60.8586 67.899 60.4764 67.9741 60.1944 67.7846C59.9124 67.5952 59.8373 67.213 60.0267 66.931C60.2162 66.6489 60.5984 66.5739 60.8804 66.7633C61.1624 66.9527 61.2375 67.3349 61.0481 67.617Z" fill="#BF195F"/>
<path d="M62.5215 63.1967C62.332 63.4787 61.9498 63.5538 61.6678 63.3643C61.3857 63.1749 61.3107 62.7927 61.5001 62.5107C61.6896 62.2286 62.0718 62.1536 62.3538 62.343C62.6358 62.5324 62.7109 62.9146 62.5215 63.1967Z" fill="#BF195F"/>
<path d="M45 50C45 53.3137 42.3137 56 39 56C35.6863 56 33 53.3137 33 50C33 46.6863 35.6863 44 39 44C42.3137 44 45 46.6863 45 50Z" fill="#F42E81"/>
<path fill-rule="evenodd" clip-rule="evenodd" d="M47 50C47 54.4183 43.4183 58 39 58C34.5817 58 31 54.4183 31 50C31 45.5817 34.5817 42 39 42C43.4183 42 47 45.5817 47 50ZM39 56C42.3137 56 45 53.3137 45 50C45 46.6863 42.3137 44 39 44C35.6863 44 33 46.6863 33 50C33 53.3137 35.6863 56 39 56Z" fill="#A40146"/>
<path fill-rule="evenodd" clip-rule="evenodd" d="M37 54C40.3137 54 43 51.3137 43 48C43 46.8556 42.6797 45.7861 42.1238 44.8762C43.8487 45.9301 45 47.8306 45 50C45 53.3137 42.3137 56 39 56C36.8306 56 34.9302 54.8486 33.8763 53.1237C34.7862 53.6796 35.8557 54 37 54Z" fill="#E32675"/>
<path d="M63 50C63 53.3137 60.3137 56 57 56C53.6863 56 51 53.3137 51 50C51 46.6863 53.6863 44 57 44C60.3137 44 63 46.6863 63 50Z" fill="#F42E81"/>
<path fill-rule="evenodd" clip-rule="evenodd" d="M65 50C65 54.4183 61.4183 58 57 58C52.5817 58 49 54.4183 49 50C49 45.5817 52.5817 42 57 42C61.4183 42 65 45.5817 65 50ZM57 56C60.3137 56 63 53.3137 63 50C63 46.6863 60.3137 44 57 44C53.6863 44 51 46.6863 51 50C51 53.3137 53.6863 56 57 56Z" fill="#A40146"/>
<path fill-rule="evenodd" clip-rule="evenodd" d="M55 54C58.3137 54 61 51.3137 61 48C61 46.8556 60.6797 45.7861 60.1238 44.8762C61.8487 45.9301 63 47.8306 63 50C63 53.3137 60.3137 56 57 56C54.8306 56 52.9302 54.8486 51.8763 53.1237C52.7862 53.6796 53.8557 54 55 54Z" fill="#E32675"/>
<path d="M57.6942 54.9642C57.4589 55.3145 56.9843 55.4077 56.6341 55.1724C56.2839 54.9372 56.1907 54.4626 56.4259 54.1124C56.6612 53.7622 57.1358 53.669 57.486 53.9042C57.8362 54.1394 57.9294 54.614 57.6942 54.9642Z" fill="#BF195F"/>
<path d="M61.5327 52.4053C61.2975 52.7555 60.8229 52.8487 60.4727 52.6135C60.1224 52.3783 60.0292 51.9037 60.2645 51.5534C60.4997 51.2032 60.9743 51.11 61.3245 51.3452C61.6747 51.5805 61.7679 52.0551 61.5327 52.4053Z" fill="#BF195F"/>
<path d="M59.1041 52.9795C58.9396 53.2244 58.6077 53.2896 58.3627 53.1251C58.1178 52.9606 58.0526 52.6287 58.2171 52.3838C58.3816 52.1389 58.7135 52.0737 58.9585 52.2382C59.2034 52.4027 59.2686 52.7346 59.1041 52.9795Z" fill="#BF195F"/>
<path d="M60.3835 53.8777C60.219 54.1226 59.8871 54.1878 59.6422 54.0233C59.3973 53.8588 59.3321 53.5269 59.4966 53.282C59.6611 53.037 59.993 52.9719 60.2379 53.1364C60.4829 53.3009 60.548 53.6328 60.3835 53.8777Z" fill="#BF195F"/>
<path d="M61.6631 50.0392C61.4985 50.2841 61.1666 50.3493 60.9217 50.1848C60.6768 50.0203 60.6116 49.6884 60.7761 49.4435C60.9406 49.1985 61.2725 49.1334 61.5175 49.2979C61.7624 49.4624 61.8276 49.7943 61.6631 50.0392Z" fill="#BF195F"/>
<path d="M54 58C54 61.3137 51.3137 64 48 64C44.6863 64 42 61.3137 42 58C42 54.6863 44.6863 52 48 52C51.3137 52 54 54.6863 54 58Z" fill="#F42E81"/>
<path fill-rule="evenodd" clip-rule="evenodd" d="M56 58C56 62.4183 52.4183 66 48 66C43.5817 66 40 62.4183 40 58C40 53.5817 43.5817 50 48 50C52.4183 50 56 53.5817 56 58ZM48 64C51.3137 64 54 61.3137 54 58C54 54.6863 51.3137 52 48 52C44.6863 52 42 54.6863 42 58C42 61.3137 44.6863 64 48 64Z" fill="#A40146"/>
<path fill-rule="evenodd" clip-rule="evenodd" d="M46 62C49.3137 62 52 59.3137 52 56C52 54.8556 51.6796 53.7861 51.1237 52.8762C52.8487 53.9301 54 55.8306 54 58C54 61.3137 51.3137 64 48 64C45.8306 64 43.9301 62.8486 42.8763 61.1237C43.7862 61.6796 44.8557 62 46 62Z" fill="#E32675"/>
<path d="M54 45C54 48.3137 51.3137 51 48 51C44.6863 51 42 48.3137 42 45C42 41.6863 44.6863 39 48 39C51.3137 39 54 41.6863 54 45Z" fill="#F42E81"/>
<path fill-rule="evenodd" clip-rule="evenodd" d="M56 45C56 49.4183 52.4183 53 48 53C43.5817 53 40 49.4183 40 45C40 40.5817 43.5817 37 48 37C52.4183 37 56 40.5817 56 45ZM48 51C51.3137 51 54 48.3137 54 45C54 41.6863 51.3137 39 48 39C44.6863 39 42 41.6863 42 45C42 48.3137 44.6863 51 48 51Z" fill="#A40146"/>
<path fill-rule="evenodd" clip-rule="evenodd" d="M46 49C49.3137 49 52 46.3137 52 43C52 41.8556 51.6797 40.7861 51.1238 39.8762C52.8487 40.9301 54 42.8306 54 45C54 48.3137 51.3137 51 48 51C45.8306 51 43.9302 49.8486 42.8763 48.1237C43.7862 48.6796 44.8557 49 46 49Z" fill="#E32675"/>
<path d="M50 43C50 44.6569 48.6569 46 47 46C45.3431 46 44 44.6569 44 43C44 41.3431 45.3431 40 47 40C48.6569 40 50 41.3431 50 43Z" fill="#FF89B4"/>
<path d="M48 56C48 57.1046 47.1046 58 46 58C44.8954 58 44 57.1046 44 56C44 54.8954 44.8954 54 46 54C47.1046 54 48 54.8954 48 56Z" fill="#FF89B4"/>
<path d="M38 48C38 49.1046 37.1046 50 36 50C34.8954 50 34 49.1046 34 48C34 46.8954 34.8954 46 36 46C37.1046 46 38 46.8954 38 48Z" fill="#FF89B4"/>
<path d="M56 35C56 36.1046 55.1046 37 54 37C52.8954 37 52 36.1046 52 35C52 33.8954 52.8954 33 54 33C55.1046 33 56 33.8954 56 35Z" fill="#FF89B4"/>
<path d="M38 62C38 63.1046 37.1046 64 36 64C34.8954 64 34 63.1046 34 62C34 60.8954 34.8954 60 36 60C37.1046 60 38 60.8954 38 62Z" fill="#FF89B4"/>
<path d="M41 35C41 36.1046 40.1046 37 39 37C37.8954 37 37 36.1046 37 35C37 33.8954 37.8954 33 39 33C40.1046 33 41 33.8954 41 35Z" fill="#FF89B4"/>
<path d="M28 45C28 46.1046 27.1046 47 26 47C24.8954 47 24 46.1046 24 45C24 43.8954 24.8954 43 26 43C27.1046 43 28 43.8954 28 45Z" fill="#FF89B4"/>
<path fill-rule="evenodd" clip-rule="evenodd" d="M47.3944 40.5528C47.6414 41.0467 47.4412 41.6474 46.9472 41.8944C46.62 42.058 46.3517 42.3174 46.1559 42.5622C46.0608 42.681 45.9903 42.787 45.9454 42.86C45.9231 42.8962 45.9076 42.9235 45.899 42.9391L45.8915 42.953C45.6427 43.4427 45.0448 43.6404 44.5528 43.3944C44.0588 43.1474 43.8586 42.5467 44.1056 42.0528L45 42.5C44.1056 42.0528 44.1054 42.053 44.1056 42.0528L44.1067 42.0505L44.1081 42.0478L44.1114 42.0414L44.1203 42.0241C44.1274 42.0107 44.1365 41.9935 44.1479 41.973C44.1705 41.9319 44.2019 41.8772 44.2421 41.8118C44.3222 41.6817 44.4392 41.5065 44.5941 41.3128C44.8983 40.9325 45.38 40.4419 46.0528 40.1055C46.5468 39.8586 47.1474 40.0588 47.3944 40.5528Z" fill="white"/>
<path d="M48.6942 49.9642C48.4589 50.3145 47.9843 50.4077 47.6341 50.1724C47.2839 49.9372 47.1907 49.4626 47.4259 49.1124C47.6612 48.7622 48.1358 48.669 48.486 48.9042C48.8362 49.1394 48.9294 49.614 48.6942 49.9642Z" fill="#BF195F"/>
<path d="M52.5327 47.4053C52.2975 47.7555 51.8229 47.8487 51.4727 47.6135C51.1224 47.3783 51.0292 46.9037 51.2645 46.5534C51.4997 46.2032 51.9743 46.11 52.3245 46.3452C52.6747 46.5805 52.7679 47.0551 52.5327 47.4053Z" fill="#BF195F"/>
<path d="M50.1041 47.9795C49.9396 48.2244 49.6077 48.2896 49.3627 48.1251C49.1178 47.9606 49.0526 47.6287 49.2171 47.3838C49.3816 47.1389 49.7135 47.0737 49.9585 47.2382C50.2034 47.4027 50.2686 47.7346 50.1041 47.9795Z" fill="#BF195F"/>
<path d="M51.3835 48.8777C51.219 49.1226 50.8871 49.1878 50.6422 49.0233C50.3973 48.8588 50.3321 48.5269 50.4966 48.282C50.6611 48.037 50.993 47.9719 51.2379 48.1364C51.4829 48.3009 51.548 48.6328 51.3835 48.8777Z" fill="#BF195F"/>
<path d="M52.6631 45.0392C52.4985 45.2841 52.1666 45.3493 51.9217 45.1848C51.6768 45.0203 51.6116 44.6884 51.7761 44.4435C51.9406 44.1985 52.2725 44.1334 52.5175 44.2979C52.7624 44.4624 52.8276 44.7943 52.6631 45.0392Z" fill="#BF195F"/>
<path d="M48.6942 62.9642C48.4589 63.3145 47.9843 63.4077 47.6341 63.1724C47.2839 62.9372 47.1907 62.4626 47.4259 62.1124C47.6612 61.7622 48.1358 61.669 48.486 61.9042C48.8362 62.1394 48.9294 62.614 48.6942 62.9642Z" fill="#BF195F"/>
<path d="M52.5327 60.4053C52.2975 60.7555 51.8229 60.8487 51.4727 60.6135C51.1224 60.3783 51.0292 59.9037 51.2645 59.5534C51.4997 59.2032 51.9743 59.11 52.3245 59.3452C52.6747 59.5805 52.7679 60.0551 52.5327 60.4053Z" fill="#BF195F"/>
<path d="M50.1041 60.9795C49.9396 61.2244 49.6077 61.2896 49.3627 61.1251C49.1178 60.9606 49.0526 60.6287 49.2171 60.3838C49.3816 60.1389 49.7135 60.0737 49.9585 60.2382C50.2034 60.4027 50.2686 60.7346 50.1041 60.9795Z" fill="#BF195F"/>
<path d="M51.3835 61.8777C51.219 62.1226 50.8871 62.1878 50.6422 62.0233C50.3973 61.8588 50.3321 61.5269 50.4966 61.282C50.6611 61.037 50.993 60.9719 51.2379 61.1364C51.4829 61.3009 51.548 61.6328 51.3835 61.8777Z" fill="#BF195F"/>
<path d="M52.6631 58.0392C52.4985 58.2841 52.1666 58.3493 51.9217 58.1848C51.6768 58.0203 51.6116 57.6884 51.7761 57.4435C51.9406 57.1985 52.2725 57.1334 52.5175 57.2979C52.7624 57.4624 52.8276 57.7943 52.6631 58.0392Z" fill="#BF195F"/>
</svg>
