<svg width="96" height="96" viewBox="0 0 96 96" fill="none" xmlns="http://www.w3.org/2000/svg">
<path d="M44.3098 54.175C34.6281 60.9335 27.7528 67.4109 26.5714 69.6068C26.9181 72.7265 29.9626 75.1751 32.5102 75.0271C38.7436 66.8337 54.8462 52.5 59.9943 47.2599C64.1127 43.0678 71.4429 33.4721 74.5932 29.1983C74.8303 26.6655 72.7542 26.0985 71.6866 26.1316C68.7451 27.9854 65.993 31.986 64.9847 33.7546C62.127 37.7454 53.9914 47.4165 44.3098 54.175Z" fill="#419804"/>
<path fill-rule="evenodd" clip-rule="evenodd" d="M24.5838 69.8277C24.539 69.4243 24.618 69.0167 24.8103 68.6592C25.2398 67.861 26.0511 66.8819 27.0241 65.8485C28.0371 64.7726 29.3548 63.5042 30.9235 62.1079C34.0628 59.3135 38.2644 55.9561 43.1652 52.535C52.5394 45.9911 60.4769 36.5918 63.3011 32.6705C63.8673 31.6912 64.8454 30.2056 66.0593 28.7131C67.2966 27.1918 68.8812 25.5357 70.6204 24.4396C70.9219 24.2496 71.2686 24.1436 71.6248 24.1326C72.4622 24.1066 73.7262 24.298 74.8078 25.0868C76.0325 25.9798 76.7652 27.4566 76.5847 29.3847C76.5508 29.7466 76.4189 30.0924 76.2033 30.3849C73.0675 34.6392 65.6555 44.3515 61.4211 48.6615C59.9342 50.175 57.523 52.4587 54.7216 55.1118C52.6397 57.0835 50.3424 59.2592 48.0489 61.4745C42.5858 66.7514 37.1121 72.2817 34.1022 76.238C33.7486 76.7028 33.2095 76.9898 32.6264 77.0237C30.7013 77.1355 28.808 76.282 27.3978 75.0468C25.9676 73.794 24.8216 71.9677 24.5838 69.8277ZM64.9849 33.7546C62.1272 37.7454 53.9916 47.4165 44.31 54.175C34.6284 60.9335 27.753 67.4109 26.5716 69.6068C26.9183 72.7265 29.9628 75.1751 32.5104 75.0271C36.9652 69.1715 46.4608 60.1797 53.396 53.6124C56.1649 50.9905 58.5256 48.755 59.9945 47.2599C64.1129 43.0678 71.4431 33.4721 74.5934 29.1983C74.8305 26.6655 72.7544 26.0985 71.6868 26.1316C68.7453 27.9854 65.9932 31.986 64.9849 33.7546Z" fill="#275B03"/>
<path fill-rule="evenodd" clip-rule="evenodd" d="M30.0442 74.4488C30.8485 74.8608 31.7043 75.0739 32.5103 75.0271C36.9651 69.1715 46.4606 60.1797 53.3958 53.6125C56.1647 50.9905 58.5254 48.7551 59.9943 47.2599C64.1128 43.0678 71.4429 33.4721 74.5932 29.1983C74.8303 26.6655 72.7543 26.0985 71.6866 26.1317C71.4135 26.3038 71.1419 26.4945 70.8733 26.7001C71.96 26.9004 73.3394 27.6813 73.0925 29.7788C69.8412 33.9764 62.2845 43.3947 58.0673 47.4874C56.5632 48.9471 54.1499 51.1257 51.3194 53.6809C44.2882 60.0282 34.6826 68.6995 30.0442 74.4488Z" fill="#347A04"/>
<path d="M35.5021 68.8615C35.6374 69.5405 35.1966 70.2007 34.5176 70.336C33.8385 70.4713 33.1784 70.0305 33.0431 69.3514C32.9078 68.6724 33.3486 68.0123 34.0276 67.877C34.7066 67.7417 35.3668 68.1825 35.5021 68.8615Z" fill="#2A6600"/>
<path d="M37.035 63.7236C37.1703 64.4026 36.7295 65.0627 36.0505 65.198C35.3715 65.3333 34.7113 64.8925 34.576 64.2135C34.4407 63.5345 34.8815 62.8743 35.5606 62.739C36.2396 62.6037 36.8997 63.0445 37.035 63.7236Z" fill="#2A6600"/>
<path d="M41.1527 62.2021C41.288 62.8811 40.8472 63.5413 40.1682 63.6765C39.4892 63.8118 38.829 63.3711 38.6937 62.692C38.5584 62.013 38.9992 61.3528 39.6782 61.2175C40.3573 61.0823 41.0174 61.523 41.1527 62.2021Z" fill="#2A6600"/>
<path d="M43.2062 58.0967C43.3415 58.7757 42.9007 59.4358 42.2217 59.5711C41.5426 59.7064 40.8825 59.2657 40.7472 58.5866C40.6119 57.9076 41.0527 57.2474 41.7317 57.1121C42.4107 56.9768 43.0709 57.4176 43.2062 58.0967Z" fill="#2A6600"/>
<path d="M47.4357 55.9756C47.571 56.6547 47.1302 57.3148 46.4511 57.4501C45.7721 57.5854 45.112 57.1446 44.9767 56.4656C44.8414 55.7866 45.2822 55.1264 45.9612 54.9911C46.6402 54.8558 47.3004 55.2966 47.4357 55.9756Z" fill="#2A6600"/>
<path d="M49.2062 47.6487C49.4418 46.5687 51.4621 45.2881 52.3195 44.5925C52.312 45.6993 52.6033 47.0758 52.2318 48.1245C51.7676 49.4354 50.4183 49.7763 50.0136 49.5935C49.6089 49.4108 48.9117 48.9987 49.2062 47.6487Z" fill="#86CC0E"/>
<path fill-rule="evenodd" clip-rule="evenodd" d="M53.1858 42.7899C53.8831 43.125 54.3246 43.8323 54.3194 44.606C54.3175 44.8957 54.3344 45.1189 54.3559 45.4031C54.3736 45.6365 54.3944 45.9111 54.4104 46.2974C54.438 46.9622 54.4367 47.8898 54.1171 48.7922C53.6882 50.003 52.8368 50.7808 52.0053 51.2027C51.5956 51.4106 51.1634 51.5471 50.7435 51.606C50.3913 51.6554 49.7905 51.6872 49.1905 51.4163C48.8818 51.2769 48.1684 50.9284 47.6619 50.1351C47.1211 49.2879 47.0224 48.2754 47.2521 47.2224L49.2062 47.6487C48.9116 48.9987 49.6089 49.4108 50.0136 49.5935C50.4183 49.7763 51.7676 49.4354 52.2318 48.1245C52.3515 47.7867 52.4024 47.4148 52.4166 47.0289C52.4331 46.5814 52.4004 46.115 52.3685 45.6609C52.3426 45.291 52.3172 44.9293 52.3195 44.5926C52.1483 44.7314 51.9307 44.8937 51.6902 45.073C51.2851 45.375 50.815 45.7255 50.3921 46.0945C49.8089 46.6035 49.3155 47.1477 49.2062 47.6487L47.2521 47.2224C47.4114 46.4927 47.8165 45.9149 48.1357 45.5322C48.477 45.1231 48.8762 44.7551 49.239 44.4487C49.6074 44.1374 49.9872 43.8491 50.3061 43.6104C50.3807 43.5546 50.4502 43.5027 50.5151 43.4544C50.7492 43.2797 50.923 43.1501 51.0594 43.0394C51.6603 42.5519 52.4884 42.4548 53.1858 42.7899Z" fill="#387B03"/>
<path d="M47.7979 58.0681C48.7135 57.463 51.0376 57.951 52.1292 58.05C51.3575 58.8321 50.6114 60.0131 49.6209 60.5019C48.3829 61.113 47.1869 60.4211 47.0255 60.0108C46.8642 59.6006 46.6535 58.8246 47.7979 58.0681Z" fill="#86CC0E"/>
<path fill-rule="evenodd" clip-rule="evenodd" d="M54.0075 57.3625C54.2734 58.0891 54.0964 58.9038 53.553 59.4546C53.3512 59.6591 53.2093 59.8289 53.0282 60.0455C52.8792 60.2237 52.7038 60.4336 52.4469 60.7204C52.0059 61.2127 51.361 61.8734 50.5062 62.2954C49.3588 62.8616 48.2106 62.8252 47.3239 62.5486C46.887 62.4123 46.4836 62.2094 46.1427 61.9595C45.857 61.7501 45.4051 61.3547 45.1644 60.7428C45.041 60.429 44.7736 59.6839 44.9635 58.7645C45.1664 57.7828 45.8003 56.9911 46.6953 56.3996L47.7981 58.0681C46.6536 58.8245 46.8643 59.6005 47.0256 60.0108C47.187 60.4211 48.383 61.1129 49.621 60.5019C49.9349 60.347 50.2243 60.1225 50.4977 59.8633C50.8245 59.5535 51.1285 59.1939 51.4244 58.8439C51.6621 58.5628 51.8945 58.2879 52.1293 58.0499C51.9113 58.0302 51.6442 57.9949 51.3489 57.9559C50.8462 57.8895 50.2619 57.8124 49.7 57.7827C48.9393 57.7426 48.2195 57.7896 47.7981 58.0681L46.6953 56.3996C47.3167 55.9889 48.0077 55.858 48.5008 55.8068C49.0281 55.752 49.5678 55.7667 50.0385 55.7999C50.5166 55.8337 50.9868 55.8916 51.379 55.9427C51.4709 55.9546 51.5563 55.9659 51.6359 55.9764C51.9234 56.0143 52.1364 56.0424 52.3098 56.0581C53.0804 56.1279 53.7415 56.6359 54.0075 57.3625Z" fill="#387B03"/>
<path d="M36.6063 57.6767C36.7769 56.5926 38.7045 55.2055 39.5136 54.4661C39.5708 55.5634 39.9397 56.9108 39.6328 57.9718C39.2491 59.298 37.9318 59.7146 37.52 59.5571C37.1082 59.3996 36.3932 59.0319 36.6063 57.6767Z" fill="#86CC0E"/>
<path fill-rule="evenodd" clip-rule="evenodd" d="M40.2726 52.6157C40.9884 52.9093 41.4708 53.5894 41.511 54.362C41.526 54.6489 41.5556 54.8683 41.5935 55.1481C41.6246 55.3782 41.6613 55.6493 41.6998 56.0324C41.766 56.6901 41.819 57.6118 41.5541 58.5275C41.1986 59.7567 40.3974 60.58 39.5952 61.0482C39.1999 61.2788 38.7781 61.44 38.3637 61.5232C38.0164 61.5929 37.4197 61.66 36.8056 61.4251C36.4906 61.3046 35.7601 60.9996 35.2093 60.2394C34.6211 59.4275 34.464 58.4257 34.6307 57.3659L36.6064 57.6767C36.3933 59.0318 37.1083 59.3996 37.5201 59.5571C37.9319 59.7146 39.2492 59.298 39.6329 57.9717C39.7302 57.6355 39.7596 57.2705 39.7525 56.8938C39.7441 56.4435 39.6836 55.9766 39.6247 55.5221C39.5774 55.157 39.5311 54.8 39.5137 54.4661C39.3521 54.6138 39.146 54.7872 38.9181 54.979C38.53 55.3054 38.0791 55.6849 37.6782 56.0798C37.1357 56.6145 36.6849 57.1777 36.6064 57.6767L34.6307 57.3659C34.7465 56.6301 35.1158 56.0315 35.4105 55.6329C35.7256 55.2065 36.1004 54.8179 36.4424 54.4928C36.7897 54.1625 37.1495 53.8544 37.4517 53.5992C37.5225 53.5394 37.5884 53.4839 37.6499 53.4322C37.8717 53.2455 38.0361 53.1071 38.1646 52.9897C38.7358 52.4677 39.5568 52.3221 40.2726 52.6157Z" fill="#387B03"/>
<path d="M59.9789 45.8337C60.96 45.0625 63.6394 45.3988 64.8856 45.409C64.084 46.3674 63.3487 47.7754 62.2718 48.4218C60.9258 49.2297 59.5059 48.5573 59.2848 48.1074C59.0636 47.6575 58.7525 46.7977 59.9789 45.8337Z" fill="#86CC0E"/>
<path fill-rule="evenodd" clip-rule="evenodd" d="M66.701 44.5698C67.0257 45.2721 66.9161 46.0987 66.4198 46.6922C66.2063 46.9474 66.0516 47.1664 65.8593 47.4386C65.7054 47.6564 65.5275 47.9083 65.2761 48.2402C64.8265 48.8336 64.1834 49.607 63.3011 50.1366C62.1229 50.8438 60.8922 50.9058 59.9194 50.6879C59.4396 50.5805 58.9919 50.3993 58.6094 50.1645C58.2851 49.9655 57.7866 49.5933 57.4899 48.9896C57.3278 48.6599 56.9841 47.8997 57.1038 46.9207C57.2312 45.8783 57.8255 44.9824 58.7429 44.2613C59.3581 43.7778 60.0784 43.5757 60.6149 43.475C61.1852 43.3678 61.7805 43.3346 62.3095 43.3285C62.8459 43.3222 63.3774 43.3436 63.8257 43.3649C63.9288 43.3697 64.0253 43.3745 64.1158 43.3789C64.4466 43.3951 64.698 43.4074 64.9021 43.4091C65.6758 43.4155 66.3764 43.8675 66.701 44.5698ZM62.4494 45.3275C61.4601 45.3309 60.4895 45.4323 59.9789 45.8337C58.7525 46.7977 59.0636 47.6575 59.2848 48.1074C59.5059 48.5573 60.9258 49.2297 62.2718 48.4218C62.7049 48.1618 63.0828 47.7786 63.432 47.3511C63.6868 47.039 63.9263 46.7033 64.1608 46.3746C64.4039 46.0339 64.6417 45.7007 64.8856 45.409C64.6367 45.407 64.3307 45.3919 63.9925 45.3753C63.5185 45.352 62.9812 45.3256 62.4494 45.3275Z" fill="#387B03"/>
<path d="M73.6236 26.3139C74.4226 25.0236 77.6237 24.2898 79.0517 23.7815C78.5359 25.2108 78.2833 27.126 77.3228 28.3137C76.1222 29.7983 74.2197 29.6225 73.7793 29.2009C73.339 28.7792 72.6248 27.9268 73.6236 26.3139Z" fill="#86CC0E"/>
<path d="M69.0465 29.1783C68.8735 27.8353 70.6765 25.5257 71.3791 24.3702C71.8264 25.65 72.7294 27.118 72.7329 28.4808C72.7373 30.1842 71.3213 31.1333 70.7791 31.0892C70.2369 31.0451 69.2628 30.857 69.0465 29.1783Z" fill="#86CC0E"/>
<path fill-rule="evenodd" clip-rule="evenodd" d="M71.5887 22.3812C72.3581 22.4623 73.0118 22.98 73.2671 23.7103C73.3874 24.0547 73.5096 24.3303 73.6592 24.6678C73.7771 24.9336 73.912 25.2378 74.0764 25.6443C74.3778 26.3892 74.7301 27.3932 74.7329 28.4756C74.7366 29.9165 74.1316 31.0571 73.413 31.8157C73.0584 32.1901 72.6555 32.4948 72.2414 32.7116C71.888 32.8967 71.298 33.138 70.617 33.0826L70.7791 31.0892C71.3213 31.1333 72.7373 30.1842 72.7329 28.4808C72.7313 27.8687 72.5483 27.2353 72.3065 26.6073C72.1738 26.2626 72.0235 25.9195 71.8758 25.5824C71.6935 25.1665 71.5152 24.7596 71.3791 24.3702C71.2388 24.601 71.0546 24.8778 70.851 25.1837C70.6002 25.5606 70.3199 25.9818 70.0561 26.4156C69.4617 27.3927 68.9506 28.434 69.0465 29.1783C69.2629 30.857 70.2369 31.0451 70.7791 31.0892L70.617 33.0826C70.2295 33.0511 69.3709 32.9522 68.565 32.3272C67.7087 31.6631 67.2205 30.657 67.0629 29.4339C66.9595 28.6315 67.1615 27.8784 67.362 27.3328C67.5745 26.755 67.8691 26.1915 68.1552 25.6992C68.4449 25.2005 68.7581 24.7206 69.0268 24.3152C69.088 24.2229 69.1456 24.1363 69.1998 24.0548C69.3993 23.755 69.5531 23.5237 69.6701 23.3312C70.072 22.6701 70.8192 22.3001 71.5887 22.3812Z" fill="#387B03"/>
<path d="M72.1685 30.7591C73.4921 29.9602 76.6867 30.7901 78.1978 30.9959C77.0599 32.0534 75.9252 33.6755 74.5069 34.3055C72.734 35.0931 71.1261 34.0439 70.935 33.4549C70.7439 32.8659 70.5141 31.7576 72.1685 30.7591Z" fill="#86CC0E"/>
<path fill-rule="evenodd" clip-rule="evenodd" d="M80.1045 30.3921C80.3379 31.1291 80.1257 31.9346 79.5594 32.4609C79.2478 32.7505 79.0001 33.0202 78.7039 33.3428C78.4769 33.5899 78.2214 33.868 77.8871 34.2098C77.2497 34.8611 76.392 35.6566 75.3189 36.1333C73.8932 36.7667 72.5038 36.6646 71.4392 36.2741C70.9146 36.0817 70.4415 35.8104 70.054 35.4917C69.7181 35.2154 69.2501 34.7423 69.0327 34.0721C68.9001 33.6634 68.652 32.7886 68.926 31.7503C69.2148 30.6554 69.9786 29.7448 71.1351 29.0468C71.8679 28.6045 72.6907 28.4734 73.3338 28.4339C74.0093 28.3923 74.7105 28.4409 75.3427 28.514C75.9821 28.5879 76.6137 28.6949 77.1529 28.7903C77.2741 28.8118 77.3885 28.8322 77.4965 28.8515C77.8972 28.9232 78.2112 28.9793 78.4678 29.0142C79.2338 29.1186 79.8711 29.655 80.1045 30.3921ZM76.5253 32.7415C75.9021 33.3849 75.2427 33.9787 74.507 34.3055C72.7341 35.0931 71.1262 34.0439 70.9351 33.4549C70.744 32.8659 70.5142 31.7576 72.1686 30.7591C72.9615 30.2805 74.4258 30.3865 75.7975 30.5926C76.2583 30.6618 76.7086 30.7424 77.1195 30.8159C77.5272 30.8888 77.8961 30.9548 78.1978 30.9959C77.8516 31.3177 77.5057 31.6917 77.152 32.0742C76.9462 32.2966 76.7379 32.5219 76.5253 32.7415Z" fill="#387B03"/>
<path d="M64.4163 33.449C64.5632 32.103 66.8578 30.2809 67.8118 29.3224C67.9464 30.6714 68.4798 32.3104 68.1635 33.6359C67.7681 35.2928 66.1689 35.8832 65.6522 35.7131C65.1355 35.543 64.2328 35.1316 64.4163 33.449Z" fill="#86CC0E"/>
<path fill-rule="evenodd" clip-rule="evenodd" d="M68.4823 27.4381C69.2113 27.6975 69.7252 28.354 69.802 29.1239C69.8382 29.4869 69.8923 29.7834 69.9586 30.1467C70.0108 30.4327 70.0706 30.76 70.1351 31.1938C70.2532 31.9886 70.3602 33.0472 70.1089 34.1001C69.7745 35.5017 68.9187 36.4685 68.0422 37.0373C67.6096 37.318 67.1465 37.5197 66.6932 37.6333C66.3062 37.7303 65.676 37.8265 65.027 37.6129L65.6523 35.7131C66.169 35.8832 67.7682 35.2928 68.1636 33.6359C68.3056 33.0405 68.2763 32.3819 68.1886 31.7147C68.1405 31.3485 68.0749 30.9797 68.0103 30.6173C67.9307 30.1702 67.8529 29.7329 67.8119 29.3224C67.6214 29.5138 67.3774 29.7397 67.1078 29.9893C66.7755 30.2968 66.4043 30.6405 66.046 31.0003C65.239 31.8107 64.4978 32.703 64.4164 33.449C64.2329 35.1316 65.1356 35.543 65.6523 35.7131L65.027 37.6129C64.6578 37.4913 63.8463 37.1937 63.2095 36.397C62.5329 35.5506 62.2945 34.458 62.4282 33.2321C62.516 32.4279 62.889 31.7431 63.2119 31.2599C63.554 30.748 63.9726 30.2694 64.3662 29.8579C64.7648 29.4411 65.1819 29.0481 65.5382 28.717C65.6193 28.6417 65.6956 28.571 65.7675 28.5045C66.0317 28.2598 66.2355 28.0711 66.3944 27.9115C66.9402 27.3631 67.7534 27.1788 68.4823 27.4381Z" fill="#387B03"/>
<path d="M67.4333 35.376C68.4436 34.4745 71.368 34.6573 72.7183 34.5841C71.9151 35.6762 71.214 37.2507 70.0916 38.0236C68.6886 38.9896 67.1054 38.3575 66.8355 37.8852C66.5656 37.413 66.1704 36.5029 67.4333 35.376Z" fill="#86CC0E"/>
<path fill-rule="evenodd" clip-rule="evenodd" d="M74.4776 33.6333C74.8455 34.314 74.7877 35.1458 74.3293 35.7691C74.1131 36.063 73.9548 36.3194 73.7608 36.6336C73.6081 36.881 73.4333 37.1642 73.1908 37.5296C72.7465 38.1991 72.1171 39.057 71.2256 39.6709C70.0388 40.488 68.7559 40.6332 67.7239 40.4689C67.2147 40.3878 66.7356 40.2276 66.3228 40.0084C65.9705 39.8214 65.438 39.4709 65.0989 38.8777L66.8353 37.8852C67.1052 38.3575 68.6884 38.9896 70.0914 38.0236C70.5955 37.6764 71.0147 37.1676 71.3963 36.6133C71.6057 36.3091 71.8039 35.9912 71.9985 35.6788C72.2388 35.2934 72.4737 34.9164 72.7181 34.5841C72.4484 34.5987 72.116 34.6031 71.7486 34.608C71.2959 34.614 70.79 34.6207 70.283 34.6481C69.141 34.7098 67.9931 34.8764 67.4331 35.376C66.1702 36.503 66.5653 37.413 66.8353 37.8852L65.0989 38.8777C64.906 38.5402 64.5025 37.7759 64.5629 36.7578C64.627 35.676 65.1814 34.7048 66.1015 33.8838C66.7051 33.3451 67.4407 33.0862 68.0041 32.9435C68.6009 32.7923 69.2323 32.7171 69.8001 32.6749C70.3753 32.6323 70.9482 32.6195 71.4345 32.6122C71.5452 32.6105 71.6492 32.6091 71.7471 32.6078C72.1072 32.603 72.3849 32.5992 72.6098 32.587C73.3824 32.5452 74.1098 32.9526 74.4776 33.6333Z" fill="#387B03"/>
<path d="M25.5798 60.0477C17.6023 68.7523 14.2581 75.7295 13.5832 78.1301C14.6009 81.0994 17.3546 82.5932 18.6043 82.9689C21.1842 73.8271 35.4986 56.1184 39.382 49.883C42.4888 44.8947 47.5534 33.933 49.6974 29.0757C49.3773 26.5521 47.2276 26.4508 46.1927 26.7156C43.7256 29.1655 41.9107 33.6694 41.3117 35.6151C39.3917 40.1324 33.5573 51.3431 25.5798 60.0477Z" fill="#6CD225"/>
<path fill-rule="evenodd" clip-rule="evenodd" d="M11.6914 78.7785C11.5598 78.3945 11.5481 77.9796 11.658 77.5888C12.4457 74.787 15.9995 67.5411 24.1055 58.6964C31.8297 50.2682 37.5299 39.3659 39.4324 34.9237C39.7718 33.8446 40.4028 32.1817 41.2626 30.4606C42.139 28.7064 43.3248 26.745 44.7837 25.2965C45.0365 25.0454 45.3519 24.8664 45.6971 24.7781C46.5088 24.5704 47.7841 24.482 49.0115 25.0162C50.4012 25.6212 51.438 26.903 51.6817 28.8241C51.7274 29.1846 51.674 29.5508 51.5272 29.8833C49.3931 34.7184 44.274 45.8117 41.0798 50.9404C39.9675 52.7263 37.9829 55.4834 35.6932 58.6641C33.9394 61.1004 32.0066 63.7854 30.1499 66.4729C27.9695 69.6289 25.8506 72.8454 24.1232 75.823C22.3795 78.8286 21.1043 81.4743 20.5292 83.5121C20.3836 84.0282 20.0367 84.4643 19.5665 84.7223C19.0963 84.9803 18.5422 85.0386 18.0286 84.8842C16.4183 84.4001 12.992 82.5732 11.6914 78.7785ZM41.3118 35.6151C39.3918 40.1324 33.5574 51.3431 25.5799 60.0477C17.6024 68.7523 14.2582 75.7295 13.5834 78.1301C14.2273 80.0089 15.5663 81.297 16.7795 82.0848C17.4837 82.5421 18.1455 82.8309 18.6044 82.9689C18.6524 82.7988 18.7045 82.6257 18.7604 82.4499C20.8699 75.8222 28.544 65.1673 34.1454 57.3903C36.3852 54.2806 38.2935 51.631 39.3822 49.883C42.4889 44.8947 47.5536 33.933 49.6975 29.0757C49.3774 26.5521 47.2277 26.4508 46.1929 26.7157C43.7257 29.1655 41.9109 33.6694 41.3118 35.6151Z" fill="#347904"/>
<path fill-rule="evenodd" clip-rule="evenodd" d="M13.5833 78.13C14.2582 75.7295 17.6024 68.7522 25.5799 60.0476C33.5574 51.343 39.3918 40.1323 41.3118 35.6151C41.9108 33.6693 43.7257 29.1654 46.1929 26.7156C47.2277 26.4508 49.3774 26.5521 49.6975 29.0757C49.5338 29.4466 49.3531 29.8531 49.1575 30.2898C48.3487 29.5135 47.1501 29.5262 46.4549 29.7041C43.9877 32.154 42.1728 36.6579 41.5738 38.6036C39.6538 43.1209 33.8194 54.3316 25.8419 63.0362C19.0888 70.4048 15.6559 76.5355 14.3518 79.7001C14.0457 79.231 13.7816 78.7085 13.5833 78.13Z" fill="#84EF3A"/>
<path fill-rule="evenodd" clip-rule="evenodd" d="M22.0625 66.7346C22.2781 66.9071 22.313 67.2218 22.1405 67.4374C21.873 67.7717 21.4491 68.3162 21.0496 68.8595C20.6425 69.4132 20.2855 69.9326 20.1312 70.2302C20.0041 70.4753 19.7024 70.571 19.4572 70.4439C19.2121 70.3168 19.1164 70.015 19.2435 69.7699C19.4391 69.3925 19.8426 68.8129 20.244 68.2671C20.6529 67.7109 21.0854 67.1555 21.3597 66.8126C21.5322 66.597 21.8469 66.5621 22.0625 66.7346Z" fill="white"/>
<path d="M25.9226 56.5152C25.8739 55.0118 28.1131 52.6494 29.0126 51.4463C29.3713 52.909 30.2139 54.6282 30.0731 56.1355C29.897 58.0196 28.2304 58.9187 27.6355 58.8124C27.0407 58.706 25.9836 58.3945 25.9226 56.5152Z" fill="#9EEB1A"/>
<path fill-rule="evenodd" clip-rule="evenodd" d="M29.4114 49.4865C30.1696 49.6408 30.7708 50.2185 30.9551 50.9699C31.0528 51.3684 31.1628 51.6994 31.2954 52.098C31.3978 52.4059 31.5135 52.754 31.6474 53.2048C31.8999 54.0551 32.1721 55.1686 32.0644 56.3216C31.9216 57.8503 31.1642 58.9972 30.3252 59.7283C29.9108 60.0893 29.4537 60.3703 28.9966 60.5563C28.6029 60.7166 27.971 60.904 27.2835 60.7811C26.8712 60.7074 25.9847 60.5164 25.2077 59.7846C24.3842 59.0092 23.9667 57.9063 23.9237 56.58C23.8963 55.7339 24.1823 54.9606 24.4558 54.3917C24.7442 53.7918 25.1217 53.2117 25.4867 52.7027C25.8561 52.1876 26.2499 51.6944 26.5897 51.2752C26.666 51.181 26.7382 51.0922 26.8065 51.0083C27.0596 50.6971 27.258 50.453 27.4108 50.2487C27.8741 49.629 28.6533 49.3322 29.4114 49.4865ZM29.7256 53.7588C29.9658 54.5649 30.1439 55.377 30.0731 56.1355C29.897 58.0196 28.2304 58.9187 27.6355 58.8124C27.0407 58.706 25.9835 58.3945 25.9226 56.5152C25.8937 55.6228 26.671 54.4276 27.4957 53.352C27.7828 52.9775 28.0757 52.6174 28.3423 52.2897C28.5999 51.9731 28.833 51.6866 29.0126 51.4463C29.1218 51.8914 29.2757 52.3602 29.4331 52.8395C29.5327 53.1428 29.6337 53.4504 29.7256 53.7588Z" fill="#5C8F02"/>
<path d="M38.2218 49.1661C39.2356 48.0549 42.4879 47.9239 43.9717 47.6893C43.2084 48.9876 42.613 50.8073 41.4607 51.7891C40.0203 53.0163 38.1989 52.498 37.8469 52.0069C37.4948 51.5158 36.9546 50.5552 38.2218 49.1661Z" fill="#9EEB1A"/>
<path fill-rule="evenodd" clip-rule="evenodd" d="M45.6244 46.5632C46.0601 47.2026 46.0878 48.0359 45.6957 48.7029C45.4878 49.0566 45.3358 49.3705 45.1528 49.7486C45.0114 50.0406 44.8515 50.3708 44.6329 50.7872C44.2208 51.5726 43.6391 52.5604 42.7577 53.3114C41.589 54.3072 40.2463 54.6008 39.1352 54.5393C38.5864 54.509 38.0629 54.3915 37.6056 54.206C37.2117 54.0462 36.6281 53.7397 36.2213 53.1721C35.9772 52.8317 35.4753 52.0765 35.4289 51.0101C35.3798 49.8801 35.8498 48.7986 36.7442 47.8182C37.3147 47.1928 38.0591 46.8382 38.6519 46.6213C39.277 46.3926 39.9521 46.2403 40.5688 46.1301C41.1927 46.0187 41.8189 45.94 42.3548 45.8766C42.4752 45.8624 42.5889 45.8491 42.6963 45.8366C43.0947 45.7901 43.4072 45.7537 43.6592 45.7138C44.4234 45.593 45.1888 45.9238 45.6244 46.5632ZM42.8695 49.8436C42.4793 50.5888 42.0404 51.295 41.4606 51.7891C40.0202 53.0163 38.1988 52.498 37.8468 52.0069C37.4947 51.5158 36.9545 50.5552 38.2217 49.1661C38.8235 48.5064 40.2141 48.1922 41.5554 47.9967C42.0224 47.9286 42.4834 47.875 42.903 47.8261C43.3084 47.7789 43.6753 47.7361 43.9716 47.6893C43.7394 48.0843 43.5227 48.5276 43.3011 48.9809C43.1609 49.2677 43.0187 49.5585 42.8695 49.8436Z" fill="#5C8F02"/>
<path d="M36.9687 40.2524C36.7609 38.7626 38.7372 36.1763 39.5042 34.8846C40.0158 36.3011 41.0358 37.9213 41.0555 39.4351C41.0801 41.3272 39.518 42.3978 38.9153 42.3551C38.3125 42.3124 37.2283 42.1146 36.9687 40.2524Z" fill="#9EEB1A"/>
<path fill-rule="evenodd" clip-rule="evenodd" d="M39.6932 32.8936C40.4634 32.9666 41.1224 33.4774 41.3853 34.2051C41.5247 34.591 41.6692 34.9085 41.8432 35.2908C41.9776 35.5861 42.1297 35.92 42.3105 36.3541C42.6517 37.1728 43.0404 38.2512 43.0554 39.4091C43.0753 40.9443 42.4438 42.1651 41.6869 42.9809C41.3131 43.3838 40.8884 43.7116 40.4536 43.945C40.0791 44.1461 39.4705 44.3995 38.7739 44.3501C38.3561 44.3205 37.4544 44.2245 36.6042 43.5791C35.7032 42.8953 35.1712 41.8429 34.9879 40.5286C34.871 39.6902 35.0735 38.8909 35.2852 38.2962C35.5084 37.6691 35.8223 37.0523 36.1313 36.5075C36.444 35.9562 36.7834 35.4241 37.0768 34.9712C37.1428 34.8694 37.2052 34.7735 37.2641 34.6828C37.4828 34.3465 37.6543 34.0828 37.7846 33.8634C38.1796 33.1982 38.9229 32.8205 39.6932 32.8936ZM40.4582 37.1085C40.7825 37.8847 41.0457 38.6734 41.0556 39.4351C41.0801 41.3272 39.5181 42.3978 38.9154 42.3551C38.3126 42.3124 37.2284 42.1146 36.9687 40.2524C36.8454 39.368 37.4917 38.0973 38.1978 36.9403C38.4436 36.5374 38.6967 36.1484 38.9271 35.7943C39.1497 35.4521 39.3511 35.1426 39.5042 34.8846C39.6599 35.3156 39.8627 35.7655 40.07 36.2254C40.2012 36.5165 40.3342 36.8116 40.4582 37.1085Z" fill="#5C8F02"/>
<path d="M52.0132 17.4002C52.523 15.7932 55.7715 14.1326 57.1715 13.197C57.0044 14.8768 57.2529 17.0083 56.5412 18.5487C55.6517 20.4741 53.5546 20.8019 52.9657 20.4674C52.3768 20.1329 51.3759 19.409 52.0132 17.4002Z" fill="#9EEB1A"/>
<path fill-rule="evenodd" clip-rule="evenodd" d="M58.2004 11.482C58.8638 11.88 59.2382 12.625 59.1616 13.395C59.1155 13.8581 59.1078 14.2646 59.0986 14.7459C59.0917 15.1109 59.0839 15.5188 59.058 16.027C59.0076 17.0136 58.8809 18.2532 58.3568 19.3875C57.6649 20.885 56.4883 21.7749 55.3772 22.215C54.8279 22.4325 54.2662 22.5526 53.7416 22.5773C53.2854 22.5987 52.601 22.5604 51.9779 22.2065C51.5819 21.9816 50.7669 21.4776 50.2517 20.4777C49.7073 19.4211 49.6712 18.1685 50.1068 16.7954C50.3766 15.9451 50.9361 15.2677 51.4264 14.7796C51.9411 14.2673 52.5439 13.8043 53.1143 13.4064C53.6908 13.0043 54.2861 12.6333 54.801 12.3175C54.9154 12.2474 55.0239 12.1811 55.1268 12.1183C55.5114 11.8833 55.8178 11.6961 56.0601 11.5342C56.7034 11.1043 57.5369 11.0839 58.2004 11.482ZM57.074 15.6161C57.0354 16.6568 56.9362 17.6938 56.5412 18.5486C55.6517 20.4741 53.5546 20.8019 52.9657 20.4674C52.3767 20.1329 51.3758 19.409 52.0132 17.4002C52.3353 16.3847 53.7511 15.3479 55.1029 14.486C55.4631 14.2564 55.8189 14.0391 56.1481 13.838C56.5386 13.5996 56.8919 13.3838 57.1714 13.197C57.1206 13.7081 57.1082 14.261 57.0956 14.8264C57.0898 15.0879 57.0838 15.3521 57.074 15.6161Z" fill="#5C8F02"/>
<path d="M47.862 21.7297C47.3105 20.3302 48.6248 17.3524 49.0674 15.9168C49.8971 17.1737 51.2688 18.5094 51.643 19.9763C52.1108 21.8099 50.8436 23.2171 50.2476 23.3169C49.6517 23.4168 48.5513 23.479 47.862 21.7297Z" fill="#9EEB1A"/>
<path fill-rule="evenodd" clip-rule="evenodd" d="M48.7838 13.937C49.5497 13.8273 50.3101 14.1692 50.7364 14.8149C50.9624 15.1574 51.1774 15.4321 51.4362 15.7628C51.6362 16.0183 51.8623 16.3073 52.14 16.6868C52.6637 17.4026 53.2946 18.3598 53.5808 19.4818C53.9604 20.9695 53.6329 22.3044 53.0885 23.275C52.8197 23.7544 52.4837 24.1727 52.1158 24.5016C51.799 24.7849 51.2668 25.174 50.5781 25.2894C50.165 25.3586 49.2659 25.4769 48.2881 25.049C47.2518 24.5956 46.4877 23.6975 46.0012 22.4629C45.6908 21.6752 45.7002 20.8508 45.7664 20.223C45.8362 19.5611 45.9966 18.8878 46.1692 18.2857C46.3439 17.6764 46.5489 17.0795 46.7279 16.5705C46.7681 16.456 46.8063 16.3481 46.8423 16.2462C46.976 15.868 47.0809 15.5714 47.156 15.3276C47.384 14.5882 48.0179 14.0466 48.7838 13.937ZM50.5164 17.8548C51.0137 18.5332 51.4546 19.2381 51.6429 19.9763C52.1107 21.8098 50.8435 23.217 50.2475 23.3169C49.6516 23.4168 48.5512 23.4789 47.8619 21.7296C47.5345 20.8989 47.8646 19.5119 48.2796 18.2216C48.424 17.7723 48.5788 17.3348 48.7196 16.9365C48.8557 16.5516 48.9789 16.2035 49.0673 15.9168C49.3197 16.2992 49.6224 16.6889 49.9318 17.0874C50.1276 17.3396 50.3261 17.5953 50.5164 17.8548Z" fill="#5C8F02"/>
<path d="M51.6544 22.5838C52.8628 21.3636 56.5294 21.389 58.2129 21.1999C57.2748 22.6483 56.4935 24.7038 55.1371 25.768C53.4416 27.0983 51.4245 26.4053 51.0586 25.8228C50.6927 25.2403 50.1438 24.109 51.6544 22.5838Z" fill="#9EEB1A"/>
<path fill-rule="evenodd" clip-rule="evenodd" d="M59.9137 20.1478C60.3204 20.8053 60.3117 21.6383 59.8914 22.2872C59.6318 22.6879 59.4313 23.0584 59.1952 23.4946C59.0173 23.8234 58.819 24.1896 58.56 24.6344C58.0533 25.5046 57.363 26.5636 56.3715 27.3415C55.0595 28.3709 53.5947 28.6278 52.3909 28.5018C51.7972 28.4396 51.2382 28.2824 50.7578 28.0555C50.3379 27.8573 49.7489 27.4978 49.365 26.8867C49.1182 26.4938 48.6407 25.6636 48.6528 24.5353C48.6656 23.3485 49.2073 22.2123 50.2332 21.1764C50.8657 20.5378 51.6768 20.1867 52.3446 19.9738C53.0433 19.7511 53.7974 19.6148 54.492 19.5226C55.1938 19.4293 55.8977 19.3732 56.5037 19.3295C56.6384 19.3198 56.7661 19.3108 56.8871 19.3022C57.3391 19.2704 57.6987 19.2451 57.9896 19.2124C58.7578 19.1261 59.507 19.4903 59.9137 20.1478ZM57.0173 23.3031C56.4861 24.249 55.9033 25.1667 55.137 25.768C53.4415 27.0983 51.4244 26.4052 51.0585 25.8228C50.6926 25.2403 50.1437 24.109 51.6543 22.5837C52.4204 21.8102 54.1744 21.5372 55.7848 21.3929C56.2074 21.355 56.62 21.326 57.0023 21.2991C57.4613 21.2669 57.8766 21.2377 58.2128 21.1999C57.9273 21.6406 57.6564 22.1375 57.3794 22.6456C57.2604 22.8639 57.1402 23.0842 57.0173 23.3031Z" fill="#5C8F02"/>
<path d="M44.0355 27.5883C43.8278 26.0986 45.804 23.5122 46.5711 22.2205C47.0827 23.637 48.1027 25.2573 48.1224 26.771C48.147 28.6632 46.5849 29.7338 45.9822 29.691C45.3794 29.6483 44.2952 29.4506 44.0355 27.5883Z" fill="#9EEB1A"/>
<path fill-rule="evenodd" clip-rule="evenodd" d="M46.7601 20.2295C47.5303 20.3026 48.1893 20.8134 48.4522 21.5411C48.5916 21.927 48.7361 22.2444 48.9101 22.6267C49.0445 22.922 49.1966 23.256 49.3774 23.69C49.7186 24.5087 50.1073 25.5872 50.1223 26.7451C50.1422 28.2803 49.5107 29.501 48.7538 30.3168C48.38 30.7198 47.9553 31.0475 47.5205 31.281C47.146 31.4821 46.5374 31.7354 45.8408 31.686C45.423 31.6564 44.5213 31.5604 43.6711 30.9151C42.7701 30.2312 42.2381 29.1789 42.0548 27.8646C41.9379 27.0261 42.1404 26.2269 42.3521 25.6322C42.5753 25.0051 42.8892 24.3883 43.1982 23.8434C43.5109 23.2921 43.8503 22.76 44.1437 22.3071C44.2097 22.2054 44.2721 22.1094 44.331 22.0187C44.5497 21.6825 44.7212 21.4188 44.8515 21.1994C45.2465 20.5341 45.9898 20.1564 46.7601 20.2295ZM47.5251 24.4445C47.8494 25.2206 48.1126 26.0093 48.1225 26.771C48.147 28.6632 46.585 29.7338 45.9823 29.691C45.3795 29.6483 44.2953 29.4506 44.0356 27.5884C43.9123 26.704 44.5586 25.4332 45.2647 24.2762C45.5105 23.8734 45.7636 23.4844 45.994 23.1302C46.2166 22.7881 46.418 22.4785 46.5711 22.2205C46.7268 22.6515 46.9296 23.1014 47.1369 23.5614C47.2681 23.8524 47.4011 24.1475 47.5251 24.4445Z" fill="#5C8F02"/>
<path d="M47.809 28.8438C48.6521 27.5981 51.8517 27.0001 53.2862 26.5542C52.7179 27.9489 52.3908 29.8354 51.3919 30.9729C50.1433 32.3948 48.2663 32.1443 47.8472 31.709C47.428 31.2737 46.7551 30.4009 47.809 28.8438Z" fill="#9EEB1A"/>
<path fill-rule="evenodd" clip-rule="evenodd" d="M54.7594 25.2017C55.2826 25.7717 55.4302 26.5923 55.1382 27.3088C54.9834 27.6888 54.8782 28.0214 54.7515 28.4218C54.6537 28.7312 54.543 29.081 54.3867 29.5246C54.092 30.3611 53.6587 31.4224 52.8946 32.2925C51.8816 33.4462 50.5951 33.9301 49.4867 34.0294C48.9393 34.0784 48.4044 34.0375 47.9251 33.9198C47.5123 33.8185 46.8907 33.5992 46.4063 33.0962C46.1158 32.7944 45.5103 32.1194 45.3108 31.0708C45.0994 29.9596 45.4088 28.8217 46.1526 27.7228C46.6271 27.0217 47.3126 26.5636 47.868 26.2636C48.4536 25.9472 49.0998 25.6992 49.6941 25.5014C50.2955 25.3013 50.9038 25.1332 51.425 24.9933C51.5421 24.9618 51.6527 24.9323 51.7572 24.9045C52.1448 24.8011 52.4487 24.7201 52.6924 24.6443C53.4312 24.4146 54.2362 24.6317 54.7594 25.2017ZM52.5057 28.8448C52.2269 29.6384 51.8944 30.4005 51.3918 30.9729C50.1432 32.3948 48.2661 32.1443 47.847 31.709C47.4279 31.2737 46.755 30.4009 47.8088 28.8438C48.3093 28.1043 49.6402 27.5931 50.9393 27.2064C51.3916 27.0718 51.8401 26.9523 52.2483 26.8435C52.6427 26.7383 52.9996 26.6432 53.2861 26.5542C53.1131 26.9785 52.9626 27.4484 52.8086 27.9289C52.7112 28.2329 52.6124 28.5412 52.5057 28.8448Z" fill="#5C8F02"/>
<path d="M50.8164 64.1688C40.3095 69.5555 32.6211 75.0433 31.1535 77.0593C31.075 80.1972 33.7603 83.0351 36.3045 83.2331C43.5889 75.9583 61.4825 63.9345 67.2921 59.439C71.9398 55.8426 80.5007 47.3267 84.2001 43.5183C84.7777 41.0409 82.7974 40.1983 81.7351 40.0866C78.5699 41.5254 75.3019 45.117 74.0636 46.7329C70.6924 50.3005 61.3232 58.7821 50.8164 64.1688Z" fill="#63C122"/>
<path fill-rule="evenodd" clip-rule="evenodd" d="M29.1542 77.0092C29.1644 76.6034 29.2978 76.2103 29.5367 75.8821C30.0702 75.1493 31.0065 74.2889 32.1103 73.3967C33.2596 72.4677 34.7367 71.3893 36.4799 70.218C39.9684 67.8739 44.5855 65.1158 49.904 62.389C60.0773 57.1734 69.2133 48.9342 72.5421 45.431C73.2355 44.5373 74.4056 43.1977 75.8102 41.8831C77.242 40.5432 79.0359 39.1167 80.9075 38.2659C81.2319 38.1184 81.5898 38.0603 81.9442 38.0975C82.7774 38.1851 84.0039 38.5457 84.9689 39.4735C86.0614 40.5241 86.5877 42.0864 86.148 43.9723C86.0655 44.3263 85.8881 44.6511 85.6348 44.9118C81.9523 48.7027 73.2946 57.3231 68.5162 61.0207C66.8382 62.3192 64.1402 64.2556 61.0057 66.5054C58.6762 68.1773 56.1057 70.0223 53.5336 71.907C47.4069 76.3964 41.2354 81.1353 37.7179 84.6482C37.3047 85.0609 36.7317 85.2723 36.1495 85.227C34.2269 85.0774 32.4665 83.9756 31.2364 82.561C29.9888 81.1263 29.1003 79.1617 29.1542 77.0092ZM74.0637 46.7329C70.6925 50.3004 61.3233 58.7821 50.8165 64.1688C40.3096 69.5555 32.6212 75.0433 31.1536 77.0592C31.0751 80.1972 33.7604 83.035 36.3046 83.233C41.5106 78.0339 52.1353 70.4093 59.8951 64.8405C62.9932 62.6173 65.6346 60.7217 67.2922 59.439C71.9399 55.8426 80.5008 47.3266 84.2002 43.5182C84.7778 41.0408 82.7975 40.1982 81.7352 40.0866C78.57 41.5254 75.302 45.117 74.0637 46.7329Z" fill="#347904"/>
<path d="M37.5221 79.9707C37.5405 80.6628 36.9944 81.2389 36.3023 81.2574C35.6102 81.2758 35.0341 80.7297 35.0156 80.0376C34.9972 79.3454 35.5433 78.7694 36.2354 78.7509C36.9275 78.7324 37.5036 79.2786 37.5221 79.9707Z" fill="#4DA510"/>
<path d="M39.9022 75.1661C39.9207 75.8583 39.3746 76.4343 38.6824 76.4528C37.9903 76.4713 37.4142 75.9252 37.3958 75.233C37.3773 74.5409 37.9234 73.9648 38.6155 73.9464C39.3077 73.9279 39.8837 74.474 39.9022 75.1661Z" fill="#4DA510"/>
<path d="M44.2179 74.3631C44.2363 75.0553 43.6902 75.6313 42.9981 75.6498C42.306 75.6683 41.7299 75.1222 41.7114 74.43C41.693 73.7379 42.2391 73.1618 42.9312 73.1434C43.6233 73.1249 44.1994 73.671 44.2179 74.3631Z" fill="#4DA510"/>
<path d="M46.9361 70.6644C46.9546 71.3565 46.4085 71.9326 45.7164 71.951C45.0242 71.9695 44.4482 71.4234 44.4297 70.7313C44.4112 70.0391 44.9573 69.4631 45.6495 69.4446C46.3416 69.4261 46.9177 69.9722 46.9361 70.6644Z" fill="#4DA510"/>
<path d="M51.4635 69.2894C51.4819 69.9816 50.9358 70.5576 50.2437 70.5761C49.5516 70.5946 48.9755 70.0484 48.957 69.3563C48.9386 68.6642 49.4847 68.0881 50.1768 68.0696C50.8689 68.0512 51.445 68.5973 51.4635 69.2894Z" fill="#4DA510"/>
<path d="M49.5241 63.8242C49.9578 62.3839 52.8339 60.8598 54.0704 60.0067C53.9435 61.5074 54.1932 63.4056 53.5787 64.7891C52.8104 66.5185 50.944 66.8386 50.4142 66.5479C49.8844 66.2572 48.982 65.6246 49.5241 63.8242Z" fill="#9EEB1A"/>
<path fill-rule="evenodd" clip-rule="evenodd" d="M55.0738 58.2767C55.7431 58.6649 56.1284 59.4043 56.0632 60.1753C56.0286 60.5841 56.0272 60.9329 56.0256 61.3529C56.0244 61.6774 56.023 62.0443 56.0059 62.5143C55.9738 63.4006 55.8764 64.5428 55.4063 65.6011C54.783 67.0042 53.6991 67.8494 52.6706 68.2744C52.1627 68.4843 51.6399 68.6047 51.1473 68.6351C50.723 68.6613 50.0643 68.6373 49.452 68.3013C49.0848 68.0999 48.3057 67.6359 47.8029 66.6944C47.27 65.6966 47.2263 64.5182 47.6089 63.2476C47.853 62.437 48.3709 61.7954 48.8117 61.3436C49.2765 60.8671 49.8194 60.4378 50.3278 60.0719C50.8422 59.7017 51.3729 59.36 51.8287 59.0712C51.9311 59.0063 52.0279 58.9452 52.1194 58.8874C52.4585 58.6733 52.7245 58.5054 52.9346 58.3605C53.5714 57.9211 54.4046 57.8885 55.0738 58.2767ZM54.0078 62.4258C53.9782 63.2664 53.8878 64.093 53.5785 64.7891C52.8103 66.5185 50.9438 66.8386 50.414 66.5479C49.8843 66.2573 48.9819 65.6246 49.524 63.8242C49.7814 62.9692 50.8995 62.0847 52.0245 61.3285C52.4161 61.0652 52.8086 60.8175 53.1658 60.5921C53.511 60.3742 53.8233 60.1771 54.0703 60.0067C54.0317 60.4633 54.0279 60.9567 54.0241 61.4613C54.0216 61.7805 54.0192 62.1042 54.0078 62.4258Z" fill="#5C8F02"/>
<path d="M44.7466 75.07C46.062 74.3404 49.186 75.2544 50.6671 75.5057C49.5294 76.4925 48.3842 78.0269 46.9788 78.5895C45.2221 79.2928 43.6614 78.2203 43.4845 77.6425C43.3077 77.0647 43.1023 75.9819 44.7466 75.07Z" fill="#9EEB1A"/>
<path fill-rule="evenodd" clip-rule="evenodd" d="M52.593 74.9661C52.8017 75.7111 52.5621 76.5097 51.9776 77.0166C51.6676 77.2855 51.4233 77.5345 51.1292 77.8343C50.902 78.0659 50.645 78.3279 50.3051 78.6527C49.6638 79.2654 48.7972 80.0159 47.7222 80.4463C46.2968 81.0169 44.9307 80.8666 43.8972 80.4537C43.3868 80.2498 42.9283 79.9713 42.5541 79.6496C42.2318 79.3724 41.7766 78.8957 41.5722 78.2279C41.4496 77.8274 41.2149 76.9515 41.5113 75.9261C41.8255 74.8395 42.6161 73.9646 43.7766 73.321C44.5169 72.9104 45.3355 72.812 45.9666 72.7956C46.632 72.7784 47.3204 72.8495 47.94 72.942C48.5668 73.0355 49.1854 73.1608 49.7135 73.2718C49.8322 73.2967 49.9441 73.3205 50.0499 73.3429C50.4423 73.426 50.7501 73.4912 51.0016 73.5339C51.7644 73.6633 52.3842 74.2211 52.593 74.9661ZM48.935 77.1956C48.3274 77.7772 47.6861 78.3064 46.9789 78.5896C45.2221 79.2929 43.6614 78.2203 43.4846 77.6425C43.3077 77.0647 43.1024 75.9819 44.7466 75.07C45.5275 74.6369 46.9457 74.783 48.2792 75.0258C48.7435 75.1104 49.1975 75.2067 49.6108 75.2943C50.0101 75.3789 50.3714 75.4556 50.6671 75.5057C50.321 75.806 49.9741 76.1569 49.6194 76.5158C49.395 76.7428 49.1675 76.973 48.935 77.1956Z" fill="#5C8F02"/>
<path d="M65.0952 60.0337C66.5513 59.6564 69.3473 61.3228 70.7185 61.9366C69.3701 62.6074 67.8775 63.8066 66.376 63.9998C64.4992 64.2412 63.2564 62.8124 63.2297 62.2087C63.203 61.605 63.2751 60.5053 65.0952 60.0337Z" fill="#9EEB1A"/>
<path fill-rule="evenodd" clip-rule="evenodd" d="M72.7181 61.8959C72.7339 62.6695 72.3021 63.3827 71.6093 63.7273C71.242 63.9101 70.9432 64.09 70.5834 64.3068C70.3055 64.4742 69.9912 64.6635 69.5807 64.893C68.8066 65.3258 67.7798 65.8357 66.6313 65.9834C65.1085 66.1794 63.8234 65.692 62.9261 65.0338C62.483 64.7087 62.1086 64.3244 61.8268 63.9192C61.5841 63.5702 61.2626 62.9948 61.2317 62.2971C61.2132 61.8787 61.2052 60.9719 61.7487 60.0533C62.3247 59.0798 63.309 58.4305 64.5936 58.0977C65.4131 57.8853 66.2303 57.9948 66.8454 58.1368C67.4939 58.2866 68.1427 58.5277 68.7194 58.7722C69.3029 59.0196 69.8705 59.2956 70.354 59.5352C70.4627 59.589 70.5652 59.64 70.662 59.6882C71.0211 59.8668 71.3028 60.0069 71.5357 60.1112C72.2418 60.4273 72.7024 61.1224 72.7181 61.8959ZM68.6187 63.1395C67.8849 63.5506 67.1316 63.9026 66.3761 63.9998C64.4993 64.2413 63.2565 62.8124 63.2298 62.2087C63.2031 61.6051 63.2751 60.5053 65.0953 60.0337C65.9596 59.8097 67.2962 60.306 68.5266 60.8747C68.9549 61.0727 69.3704 61.2794 69.7486 61.4677C70.1141 61.6495 70.4447 61.8141 70.7185 61.9366C70.3082 62.1407 69.8846 62.3938 69.4515 62.6525C69.1774 62.8162 68.8995 62.9822 68.6187 63.1395Z" fill="#5C8F02"/>
<path d="M80.9846 40.7618C81.9807 39.4016 85.5893 38.8648 87.2147 38.425C86.5202 39.9635 86.0753 42.0629 84.9092 43.2955C83.4516 44.8363 81.3596 44.4776 80.9083 43.9726C80.4569 43.4677 79.7394 42.4621 80.9846 40.7618Z" fill="#9EEB1A"/>
<path fill-rule="evenodd" clip-rule="evenodd" d="M88.7372 37.1281C89.2389 37.7171 89.3559 38.5426 89.0375 39.2478C88.8461 39.672 88.7089 40.0548 88.5466 40.508C88.4235 40.8517 88.286 41.2358 88.0992 41.7091C87.7366 42.628 87.2208 43.7623 86.3621 44.67C85.2284 45.8684 83.8292 46.3361 82.6358 46.3985C82.0458 46.4294 81.4751 46.3639 80.9701 46.2198C80.5309 46.0945 79.8946 45.8398 79.4171 45.3055C79.1136 44.9659 78.502 44.2282 78.3329 43.1161C78.1543 41.941 78.5198 40.7424 79.371 39.5802C79.898 38.8605 80.6446 38.3971 81.265 38.091C81.9163 37.7698 82.6353 37.5235 83.3029 37.3285C83.9776 37.1314 84.6602 36.9698 85.249 36.8349C85.3797 36.8049 85.5037 36.7768 85.6213 36.75C86.0607 36.6501 86.4109 36.5705 86.6922 36.4944C87.4391 36.2923 88.2355 36.5391 88.7372 37.1281ZM86.3502 40.6865C85.9814 41.6604 85.5564 42.6115 84.9092 43.2955C83.4516 44.8363 81.3596 44.4776 80.9082 43.9727C80.4569 43.4677 79.7394 42.4621 80.9846 40.7619C81.614 39.9023 83.2867 39.3716 84.8428 38.9863C85.2576 38.8837 85.664 38.7913 86.0403 38.7059C86.4864 38.6045 86.8901 38.5128 87.2147 38.425C87.0033 38.8931 86.8151 39.4132 86.6227 39.9449C86.5337 40.1909 86.4437 40.4394 86.3502 40.6865Z" fill="#5C8F02"/>
<path d="M75.6687 43.5398C75.5927 42.0376 77.7887 39.635 78.6664 38.4158C79.0515 39.8717 79.9251 41.5755 79.8115 43.085C79.6696 44.972 78.0195 45.9011 77.4228 45.8055C76.8262 45.71 75.7636 45.4177 75.6687 43.5398Z" fill="#9EEB1A"/>
<path fill-rule="evenodd" clip-rule="evenodd" d="M79.0298 36.449C79.7906 36.5896 80.4021 37.1564 80.6 37.9043C80.7049 38.301 80.8209 38.6299 80.9606 39.026C81.0686 39.332 81.1907 39.678 81.3327 40.1263C81.6005 40.9719 81.8928 42.0803 81.806 43.235C81.6908 44.7661 80.9544 45.9265 80.1287 46.6726C79.7209 47.0411 79.269 47.3303 78.8154 47.5246C78.4246 47.692 77.7962 47.8908 77.1066 47.7804C76.693 47.7141 75.8032 47.5392 75.0131 46.8216C74.1757 46.0612 73.7383 44.9661 73.6713 43.6408C73.6285 42.7953 73.9006 42.017 74.1637 41.4432C74.4412 40.8381 74.8081 40.2513 75.1639 39.7357C75.5238 39.2141 75.9087 38.7139 76.2408 38.2886C76.3155 38.193 76.3861 38.1029 76.4528 38.0178C76.7002 37.702 76.8942 37.4544 77.0433 37.2473C77.4953 36.6194 78.2689 36.3085 79.0298 36.449ZM79.4212 40.715C79.6759 41.5166 79.8687 42.3254 79.8116 43.085C79.6697 44.972 78.0196 45.9011 77.4229 45.8055C76.8262 45.71 75.7636 45.4177 75.6687 43.5398C75.6237 42.648 76.3792 41.439 77.1843 40.3486C77.4646 39.9689 77.7509 39.6037 78.0115 39.2712C78.2634 38.9499 78.4912 38.6592 78.6665 38.4158C78.7836 38.8588 78.946 39.3247 79.1121 39.8012C79.2172 40.1026 79.3237 40.4083 79.4212 40.715Z" fill="#5C8F02"/>
<path d="M78.99 45.5597C80.5247 44.7891 83.9913 45.9835 85.6471 46.3417C84.2957 47.4148 82.8992 49.1135 81.2741 49.6891C79.2427 50.4085 77.5523 49.1079 77.3915 48.4391C77.2306 47.7703 77.0716 46.523 78.99 45.5597Z" fill="#9EEB1A"/>
<path fill-rule="evenodd" clip-rule="evenodd" d="M87.5947 45.8876C87.7703 46.6405 87.4962 47.4271 86.8908 47.9079C86.5168 48.2048 86.2086 48.4919 85.8456 48.83C85.572 49.0848 85.2673 49.3686 84.8798 49.7074C84.1219 50.3703 83.1296 51.1536 81.9417 51.5743C80.3698 52.1311 78.8996 51.907 77.799 51.4033C77.2561 51.1549 76.7766 50.8275 76.3937 50.4591C76.0591 50.1372 75.6156 49.6086 75.4468 48.9069C75.3383 48.4558 75.1509 47.5165 75.5225 46.4512C75.9134 45.3305 76.7894 44.4267 78.0924 43.7724C78.8955 43.3691 79.7763 43.2953 80.4771 43.3067C81.2104 43.3186 81.9685 43.4302 82.6562 43.5645C83.3511 43.7001 84.036 43.8716 84.6243 44.0236C84.7551 44.0574 84.879 44.0896 84.9964 44.1202C85.4349 44.2342 85.7838 44.325 86.0698 44.3869C86.8255 44.5504 87.4192 45.1347 87.5947 45.8876ZM83.8428 47.9533C83.0374 48.6801 82.1922 49.3639 81.274 49.6891C79.2426 50.4086 77.5522 49.108 77.3914 48.4391C77.2305 47.7703 77.0715 46.523 78.9899 45.5597C79.9628 45.0712 81.7122 45.3724 83.2844 45.7496C83.697 45.8486 84.0973 45.9528 84.4682 46.0494C84.9135 46.1653 85.3163 46.2702 85.647 46.3417C85.2358 46.6682 84.8205 47.0526 84.3957 47.4457C84.2133 47.6146 84.0291 47.7851 83.8428 47.9533Z" fill="#5C8F02"/>
<path d="M70.1723 47.8707C70.451 46.3925 73.1494 44.5722 74.2886 43.5929C74.3213 45.0986 74.7708 46.9597 74.3063 48.4006C73.7256 50.2016 71.9036 50.7176 71.346 50.4847C70.7884 50.2518 69.824 49.7183 70.1723 47.8707Z" fill="#9EEB1A"/>
<path fill-rule="evenodd" clip-rule="evenodd" d="M75.1031 41.7664C75.8097 42.0815 76.2712 42.776 76.288 43.5495C76.2969 43.9597 76.3326 44.3067 76.3754 44.7245C76.4086 45.0472 76.4461 45.4123 76.4789 45.8814C76.5409 46.7661 76.565 47.9122 76.2097 49.0143C75.7385 50.4756 74.7504 51.4309 73.7727 51.9625C73.2898 52.225 72.7827 52.4001 72.2961 52.4825C71.877 52.5535 71.2195 52.5994 70.5751 52.3302C70.1885 52.1688 69.3647 51.79 68.7649 50.9071C68.1293 49.9714 67.961 48.8042 68.2068 47.5002C68.3637 46.6683 68.8107 45.9755 69.2011 45.4795C69.6128 44.9564 70.1072 44.4721 70.574 44.0544C71.0463 43.6317 71.5377 43.2358 71.9604 42.9002C72.0554 42.8248 72.1451 42.7538 72.2299 42.6867C72.5445 42.4378 72.7912 42.2427 72.9847 42.0763C73.5714 41.572 74.3964 41.4513 75.1031 41.7664ZM74.4827 46.0051C74.5423 46.8441 74.5399 47.6756 74.3062 48.4006C73.7255 50.2016 71.9035 50.7176 71.3459 50.4847C70.7883 50.2519 69.8239 49.7184 70.1722 47.8707C70.3376 46.9932 71.3557 45.9952 72.3942 45.1241C72.7558 44.8208 73.1198 44.5329 73.4511 44.2709C73.7713 44.0177 74.061 43.7886 74.2885 43.593C74.2984 44.0511 74.347 44.5422 74.3966 45.0443C74.428 45.362 74.4599 45.6841 74.4827 46.0051Z" fill="#5C8F02"/>
<path d="M73.3477 50.2649C74.5443 49.3535 77.7673 49.808 79.2692 49.8433C78.2854 50.9837 77.3733 52.6671 76.0636 53.4263C74.4264 54.3753 72.7275 53.5387 72.4693 52.9924C72.211 52.4461 71.8519 51.4042 73.3477 50.2649Z" fill="#9EEB1A"/>
<path fill-rule="evenodd" clip-rule="evenodd" d="M81.097 49.0319C81.4109 49.7391 81.2888 50.5639 80.7834 51.1497C80.5154 51.4604 80.3095 51.742 80.0617 52.081C79.8702 52.343 79.6536 52.6392 79.364 53.0097C78.8177 53.7083 78.0682 54.5758 77.0664 55.1566C75.7381 55.9266 74.3645 55.9746 73.2824 55.7148C72.748 55.5866 72.254 55.3771 71.8374 55.1125C71.4786 54.8847 70.9594 54.4785 70.661 53.8472C70.4819 53.4685 70.1236 52.6355 70.2692 51.5781C70.4236 50.4576 71.08 49.4779 72.1356 48.6738C72.8091 48.1609 73.605 47.9456 74.2271 47.8385C74.8831 47.7256 75.5746 47.6969 76.201 47.6991C76.8348 47.7014 77.4649 47.7363 78.0035 47.7701C78.1245 47.7776 78.2388 47.785 78.3467 47.7919C78.747 47.8177 79.0609 47.8379 79.316 47.8439C80.0895 47.8621 80.7831 48.3247 81.097 49.0319ZM77.7983 51.7651C77.2808 52.4282 76.7224 53.0442 76.0634 53.4263C74.4263 54.3753 72.7274 53.5387 72.4691 52.9924C72.2108 52.4461 71.8517 51.4042 73.3475 50.2649C74.0578 49.7239 75.4823 49.6642 76.8368 49.7124C77.3084 49.7292 77.7716 49.759 78.1932 49.7862C78.6005 49.8125 78.9691 49.8363 79.269 49.8433C78.9697 50.1903 78.677 50.5875 78.3777 50.9937C78.1883 51.2508 77.9963 51.5113 77.7983 51.7651Z" fill="#5C8F02"/>
<path d="M55.5344 22.7189C55.5344 23.1331 55.2126 23.4689 54.8157 23.4689C54.4187 23.4689 54.0969 23.1331 54.0969 22.7189C54.0969 22.3046 54.4187 21.9688 54.8157 21.9688C55.2126 21.9688 55.5344 22.3046 55.5344 22.7189Z" fill="white"/>
<path d="M49.9719 18.6564C49.9719 19.0706 49.6501 19.4064 49.2532 19.4064C48.8562 19.4064 48.5344 19.0706 48.5344 18.6564C48.5344 18.2421 48.8562 17.9063 49.2532 17.9063C49.6501 17.9063 49.9719 18.2421 49.9719 18.6564Z" fill="white"/>
<path d="M49.6445 30.064C49.6445 30.4782 49.3227 30.814 48.9258 30.814C48.5288 30.814 48.207 30.4782 48.207 30.064C48.207 29.6497 48.5288 29.3139 48.9258 29.3139C49.3227 29.3139 49.6445 29.6497 49.6445 30.064Z" fill="white"/>
<path d="M39.4258 50.439C39.4258 50.8532 39.104 51.189 38.707 51.189C38.3101 51.189 37.9883 50.8532 37.9883 50.439C37.9883 50.0247 38.3101 49.6889 38.707 49.6889C39.104 49.6889 39.4258 50.0247 39.4258 50.439Z" fill="white"/>
<path d="M28.197 55.6582C28.197 56.0725 27.8752 56.4083 27.4783 56.4083C27.0813 56.4083 26.7595 56.0725 26.7595 55.6582C26.7595 55.244 27.0813 54.9081 27.4783 54.9081C27.8752 54.9081 28.197 55.244 28.197 55.6582Z" fill="white"/>
</svg>
