<svg width="96" height="96" viewBox="0 0 96 96" fill="none" xmlns="http://www.w3.org/2000/svg">
<path d="M68.9966 27.2887C59.8743 30.662 54.4907 40.9444 52.9391 45.664L46.3321 47.9573C50.1803 31.6991 63.0452 27.404 68.9966 27.2887Z" fill="#528608"/>
<path fill-rule="evenodd" clip-rule="evenodd" d="M54.8391 46.2886C54.6443 46.8811 54.1842 47.3489 53.595 47.5534L46.9879 49.8467C46.2984 50.086 45.5332 49.9307 44.9916 49.4415C44.4499 48.9523 44.2178 48.2069 44.3859 47.4966C48.4937 30.1418 62.3274 25.4175 68.9578 25.2891C69.9336 25.2702 70.7806 25.9584 70.9618 26.9174C71.143 27.8764 70.6056 28.8261 69.6902 29.1646C65.6189 30.6701 62.2778 33.7645 59.7302 37.1696C57.1871 40.5688 55.5509 44.1235 54.8391 46.2886ZM68.9966 27.2887C67.2949 27.3217 65.028 27.6964 62.5683 28.5947C56.8535 30.6819 50.0979 35.5958 46.9716 45.6183C46.7374 46.369 46.5236 47.1483 46.3321 47.9573L52.9392 45.664C54.1512 41.977 57.7019 34.8951 63.5468 30.3644C65.1838 29.0955 67.0007 28.0268 68.9966 27.2887Z" fill="#344E02"/>
<path d="M26.3731 29.7169C35.6524 32.6306 41.5425 42.6316 43.3276 47.2678L50.0409 49.2285C45.386 33.1827 32.3228 29.535 26.3731 29.7169Z" fill="#528608"/>
<path fill-rule="evenodd" clip-rule="evenodd" d="M41.4612 47.9865C41.6853 48.5686 42.1682 49.0128 42.7669 49.1877L49.4802 51.1483C50.1808 51.353 50.9372 51.1597 51.4538 50.644C51.9704 50.1284 52.165 49.3723 51.9617 48.6713C46.9928 31.5432 32.9406 27.5152 26.312 27.7179C25.3365 27.7477 24.5249 28.4773 24.3918 29.4441C24.2586 30.411 24.8428 31.3327 25.7739 31.6251C29.9154 32.9255 33.4067 35.8493 36.121 39.123C38.8307 42.391 40.6423 45.8597 41.4612 47.9865ZM26.3731 29.717C28.0743 29.6649 30.3571 29.926 32.8586 30.7005C38.6704 32.4999 45.6629 37.0705 49.2855 46.9244C49.5568 47.6624 49.8093 48.4301 50.0409 49.2285L43.3276 47.2679C41.933 43.646 38.0333 36.7501 31.9696 32.5168C30.2713 31.3312 28.4033 30.3545 26.3731 29.717Z" fill="#344E02"/>
<path d="M53.637 42.4639C53.3107 33.4664 58.748 22.4582 61.5075 18.0789C45.6381 26.2356 46.3464 41.994 48.6842 48.8536L53.637 42.4639Z" fill="#76BB13"/>
<path fill-rule="evenodd" clip-rule="evenodd" d="M62.9822 16.7278C63.5911 17.3925 63.6802 18.3824 63.1996 19.1451C61.889 21.225 59.9011 24.9509 58.2871 29.2435C56.6637 33.561 55.4864 38.275 55.6357 42.3915C55.6526 42.8596 55.5047 43.3189 55.2177 43.6892L50.2649 50.0789C49.8141 50.6604 49.0805 50.9475 48.3547 50.8263C47.629 50.7051 47.0284 50.1953 46.7911 49.4988C45.5148 45.7538 44.7058 39.6973 46.3327 33.4488C47.9805 27.1196 52.118 20.6563 60.5932 16.3001C61.3949 15.888 62.3733 16.0632 62.9822 16.7278ZM59.5349 21.554C60.2569 20.1647 60.939 18.9811 61.5075 18.0789C60.2323 18.7343 59.0641 19.4389 57.9952 20.184C47.1471 27.7456 46.5261 39.4814 48.0239 46.4408C48.2151 47.3291 48.4408 48.1396 48.6842 48.8536L53.637 42.4639C53.3779 35.3201 56.7523 26.9086 59.5349 21.554Z" fill="#344E02"/>
<path fill-rule="evenodd" clip-rule="evenodd" d="M57.5702 20.4861C54.781 25.8373 51.3768 34.2898 51.637 41.4639L47.9718 46.1924C48.1735 47.1784 48.4183 48.0736 48.6842 48.8536L53.637 42.4639C53.3107 33.4664 58.748 22.4582 61.5075 18.0789C60.0611 18.8223 58.7525 19.6288 57.5702 20.4861Z" fill="#578C0A"/>
<path d="M41.3487 41.8393C41.4159 33.8795 36.3609 24.3013 33.8249 20.5071C47.9923 27.2791 47.7542 41.2238 45.8643 47.3497L41.3487 41.8393Z" fill="#76BB13"/>
<path fill-rule="evenodd" clip-rule="evenodd" d="M32.3131 19.1978C31.7235 19.8787 31.6616 20.8697 32.1622 21.6185C33.3579 23.4076 35.1911 26.6313 36.7105 30.365C38.2398 34.123 39.3791 38.2238 39.3487 41.8225C39.3448 42.2905 39.5051 42.745 39.8017 43.107L44.3173 48.6174C44.7842 49.1871 45.5264 49.4541 46.2491 49.3123C46.9719 49.1706 47.5583 48.6431 47.7754 47.9393C48.8179 44.5602 49.3862 39.1409 47.7873 33.6148C46.1652 28.0087 42.3227 22.3524 34.6875 18.7027C33.8748 18.3143 32.9028 18.5169 32.3131 19.1978ZM35.8792 23.9488C35.1233 22.5561 34.4076 21.3789 33.8249 20.5072C35.1362 21.1339 36.324 21.8221 37.3986 22.5599C46.5731 28.859 47.4892 38.7706 46.4403 44.8972C46.2847 45.8061 46.0858 46.6316 45.8643 47.3497L41.3487 41.8394C41.4004 35.7085 38.4134 28.6174 35.8792 23.9488Z" fill="#344E02"/>
<path fill-rule="evenodd" clip-rule="evenodd" d="M41.3487 41.5278C41.3496 41.6319 41.3495 41.7358 41.3487 41.8394L43.4085 44.353L41.3487 41.5278ZM45.1611 46.4917L45.8643 47.3497C46.7281 44.5498 47.2468 40.1166 46.2028 35.4813C46.8009 39.8263 46.1028 43.8646 45.1611 46.4917ZM35.8983 21.6069C35.2441 21.2227 34.5536 20.8554 33.825 20.5071C35.7973 23.4581 39.2935 29.908 40.7184 36.374C40.0108 30.9333 37.7462 25.2973 35.8983 21.6069Z" fill="#A4F331"/>
<path d="M47.3135 13.2154C46.8781 14.7561 43.0798 31.6175 43.9794 38.5406C45.2913 42.6516 48.3313 41.608 49.6872 40.5724C52.3229 24.6852 47.7489 11.6747 47.3135 13.2154Z" fill="#90EB3A"/>
<path fill-rule="evenodd" clip-rule="evenodd" d="M42.0193 38.977L41.9961 38.7983C41.5017 34.9939 42.2895 28.7564 43.1738 23.5262C44.0709 18.2199 45.1433 13.5403 45.3889 12.6715C45.4426 12.4815 45.5884 12.0398 45.9956 11.6566C46.5249 11.1585 47.2574 10.9827 47.937 11.1567C48.4609 11.2909 48.7954 11.5908 48.9327 11.7249C49.099 11.8872 49.2223 12.0536 49.3062 12.1778C49.6152 12.6355 49.8872 13.2779 50.1213 13.9305C50.6187 15.3173 51.1745 17.4131 51.623 20.0192C52.5218 25.2412 53.0214 32.6949 51.6603 40.8997L51.5306 41.6811L50.9012 42.1619C50.0049 42.8464 48.3967 43.6777 46.5923 43.4738C45.6341 43.3656 44.6796 42.9665 43.8597 42.191C43.0604 41.4351 42.4747 40.4042 42.074 39.1487L42.0193 38.977ZM48.6987 16.0592C49.9901 20.6224 51.4487 29.955 49.6872 40.5724C48.3313 41.608 45.2913 42.6516 43.9794 38.5406C43.2753 33.1222 45.449 21.6158 46.6358 16.1316C46.7239 15.7244 46.8066 15.3504 46.8823 15.0145C47.0896 14.0944 47.2442 13.4607 47.3135 13.2154C47.3691 13.0185 47.4923 13.0592 47.6594 13.3131C47.8408 13.5888 48.074 14.1159 48.3286 14.8631C48.4483 15.2143 48.5727 15.614 48.6987 16.0592Z" fill="#375B14"/>
<path fill-rule="evenodd" clip-rule="evenodd" d="M45.0703 40.5718C46.1297 40.6533 47.1817 40.1498 47.8386 39.6481C49.5987 29.0387 48.1436 19.7121 46.8529 15.1452C47.075 14.1544 47.2409 13.4721 47.3135 13.2154C47.7489 11.6747 52.3229 24.6851 49.6872 40.5724C48.632 41.3783 46.5571 42.189 45.0703 40.5718Z" fill="#80D330"/>
<path d="M29.4651 49.0454C30.9556 41.9788 37.5201 37.3759 44.7377 37.6294L48.3291 37.7556C54.8876 37.986 60.6982 42.1867 62.3804 48.53C63.4003 52.3755 64.3363 56.6513 64.6046 60.1686C64.7801 62.4691 64.8614 65.1212 64.8864 67.7707C64.9639 75.9708 58.3807 82.5381 50.1923 82.9831L46.2049 83.1998L42.7386 83.0114C34.3331 82.5546 27.6961 75.6622 27.7877 67.2448C27.8163 64.6152 27.8673 61.9902 27.9529 59.6998C28.0729 56.4873 28.7066 52.6413 29.4651 49.0454Z" fill="#F9B800"/>
<path fill-rule="evenodd" clip-rule="evenodd" d="M46.2049 85.2028L42.63 85.0085C33.1864 84.4952 25.6842 76.742 25.7878 67.223C25.8166 64.5842 25.8678 61.9399 25.9543 59.6252C26.0807 56.2431 26.7415 52.2671 27.5081 48.6326C29.2211 40.5113 36.7289 35.3468 44.8079 35.6306L48.3994 35.7568C55.7461 36.0149 62.3827 40.7364 64.3136 48.0173C65.3423 51.8962 66.3164 56.3134 66.5988 60.0165C66.779 62.3788 66.8611 65.0798 66.8863 67.7518C66.9746 77.0953 59.4822 84.4812 50.3008 84.9802L46.2049 85.2028ZM46.2049 83.1998L42.7386 83.0114C34.3331 82.5546 27.6961 75.6622 27.7877 67.2448C27.8163 64.6152 27.8673 61.9902 27.9529 59.6998C28.0729 56.4873 28.7066 52.6412 29.4651 49.0453C30.9556 41.9788 37.5201 37.3758 44.7377 37.6294L48.3292 37.7556C54.8877 37.986 60.6982 42.1867 62.3804 48.53C63.4003 52.3755 64.3363 56.6513 64.6046 60.1686C64.7801 62.4691 64.8614 65.1212 64.8864 67.7706C64.9639 75.9708 58.3808 82.5381 50.1923 82.9831L46.2049 83.1998Z" fill="#BE6610"/>
<path fill-rule="evenodd" clip-rule="evenodd" d="M30.5268 76.2086C33.2195 80.1056 37.6557 82.7352 42.7385 83.0114L46.2049 83.1998L50.1923 82.9831C58.3807 82.5381 64.9639 75.9708 64.8864 67.7706C64.8613 65.1212 64.78 62.4691 64.6046 60.1686C64.3363 56.6513 63.4002 52.3755 62.3804 48.53C61.4651 45.0786 59.3275 42.2614 56.5123 40.373C57.3402 41.6196 57.9782 43.0136 58.3804 44.53C59.4002 48.3755 60.3363 52.6513 60.6046 56.1686C60.78 58.4691 60.8613 61.1212 60.8864 63.7706C60.9639 71.9708 54.3807 78.5381 46.1923 78.9831L42.2049 79.1998L38.7385 79.0114C35.6897 78.8457 32.8736 77.8333 30.5268 76.2086Z" fill="#EA9B03"/>
<path d="M59.6698 62.6522C59.4128 63.4401 58.5659 63.8705 57.778 63.6135C56.9901 63.3566 56.5597 62.5096 56.8166 61.7217C57.0735 60.9339 57.9205 60.5035 58.7084 60.7604C59.4963 61.0173 59.9267 61.8643 59.6698 62.6522Z" fill="#C78302"/>
<path d="M62.9045 67.6425C62.6476 68.4304 61.8006 68.8608 61.0127 68.6039C60.2248 68.347 59.7944 67.5 60.0513 66.7121C60.3083 65.9242 61.1552 65.4938 61.9431 65.7507C62.731 66.0077 63.1614 66.8547 62.9045 67.6425Z" fill="#C78302"/>
<path d="M63.8177 62.0322C63.625 62.6231 62.9898 62.9459 62.3989 62.7532C61.808 62.5605 61.4852 61.9252 61.6779 61.3343C61.8706 60.7434 62.5058 60.4206 63.0967 60.6133C63.6876 60.806 64.0104 61.4413 63.8177 62.0322Z" fill="#C78302"/>
<path d="M63.3841 56.9676C63.1914 57.5586 62.5561 57.8814 61.9652 57.6887C61.3743 57.496 61.0515 56.8607 61.2442 56.2698C61.4369 55.6789 62.0721 55.3561 62.663 55.5488C63.254 55.7415 63.5768 56.3767 63.3841 56.9676Z" fill="#C78302"/>
<path d="M62.7175 73.9608C62.3597 75.0581 61.18 75.6576 60.0826 75.2998C58.9853 74.9419 58.3858 73.7622 58.7436 72.6649C59.1015 71.5675 60.2812 70.968 61.3786 71.3259C62.4759 71.6837 63.0754 72.8634 62.7175 73.9608Z" fill="#C78302"/>
<path d="M57.3 67.5308C57.0431 68.3187 56.1961 68.7491 55.4082 68.4921C54.6203 68.2352 54.1899 67.3882 54.4469 66.6003C54.7038 65.8125 55.5508 65.3821 56.3387 65.639C57.1265 65.8959 57.557 66.7429 57.3 67.5308Z" fill="#C78302"/>
<path d="M57.0974 77.6862C56.8404 78.4741 55.9934 78.9045 55.2056 78.6475C54.4177 78.3906 53.9873 77.5436 54.2442 76.7557C54.5011 75.9679 55.3481 75.5374 56.136 75.7944C56.9239 76.0513 57.3543 76.8983 57.0974 77.6862Z" fill="#C78302"/>
<path d="M55.9285 72.6784C55.6715 73.4662 54.8246 73.8967 54.0367 73.6397C53.2488 73.3828 52.8184 72.5358 53.0753 71.7479C53.3322 70.9601 54.1792 70.5296 54.9671 70.7866C55.755 71.0435 56.1854 71.8905 55.9285 72.6784Z" fill="#C78302"/>
<path d="M53.5837 80.4422C53.391 81.0331 52.7557 81.3559 52.1648 81.1632C51.5739 80.9705 51.2511 80.3353 51.4438 79.7444C51.6365 79.1535 52.2718 78.8307 52.8627 79.0234C53.4536 79.216 53.7764 79.8513 53.5837 80.4422Z" fill="#C78302"/>
<path d="M40.7231 40.7617C43.0273 42.1082 43.1814 46.1324 41.0674 49.75C38.9533 53.3675 35.3716 55.2086 33.0674 53.862C30.7632 52.5154 30.609 48.4912 32.7231 44.8737C34.8371 41.2561 38.4189 39.4151 40.7231 40.7617Z" fill="#FFD766"/>
<path fill-rule="evenodd" clip-rule="evenodd" d="M33.4251 65.2197C32.7962 65.3377 32.1733 66.0192 31.8072 66.8329C31.5806 67.3366 30.9886 67.5612 30.485 67.3346C29.9813 67.108 29.7567 66.516 29.9833 66.0124C30.433 65.0127 31.4417 63.5569 33.0562 63.254C34.5325 62.9769 36.0204 63.7278 37.4646 65.5411C38.2931 64.6383 39.4134 63.7604 40.7089 63.4243C41.6677 63.1756 42.7169 63.228 43.7474 63.7786C44.4581 64.1584 45.1173 64.752 45.7222 65.5691C46.6291 64.7124 47.8473 63.8902 49.2375 63.5812C50.2381 63.3588 51.3299 63.4039 52.4185 63.9C53.1623 64.239 53.8681 64.7718 54.5268 65.5148C55.2219 64.6873 56.1597 63.8848 57.277 63.5273C58.1508 63.2476 59.1256 63.2462 60.1073 63.7086C61.0653 64.1599 61.9437 65.0117 62.7414 66.2783C63.0357 66.7457 62.8955 67.3631 62.4282 67.6574C61.9608 67.9517 61.3434 67.8115 61.0491 67.3442C60.3784 66.2793 59.7578 65.7548 59.255 65.5179C58.7759 65.2923 58.3281 65.2908 57.8865 65.4321C56.9162 65.7427 55.9776 66.7541 55.4142 67.7082C55.2386 68.0056 54.922 68.1914 54.5768 68.1995C54.2315 68.2077 53.9065 68.0371 53.717 67.7484C52.9769 66.6202 52.243 66.018 51.589 65.7199C50.9441 65.426 50.3024 65.3933 49.6714 65.5336C48.3534 65.8266 47.1067 66.8764 46.3652 67.8184C46.1581 68.0814 45.8333 68.2233 45.4997 68.1966C45.1661 68.1699 44.8679 67.9781 44.7053 67.6856C44.0301 66.4704 43.3677 65.8433 42.8049 65.5426C42.2641 65.2537 41.7378 65.2236 41.2112 65.3602C40.0718 65.6558 38.9426 66.7401 38.2488 67.7617C38.0603 68.0391 37.7454 68.2036 37.41 68.1997C37.0746 68.1959 36.7635 68.0241 36.5816 67.7424C35.0084 65.307 33.9189 65.127 33.4251 65.2197Z" fill="#B08304"/>
<path fill-rule="evenodd" clip-rule="evenodd" d="M33.3648 57.2168C32.599 57.3126 32.0144 57.8109 31.7242 58.2411C31.4152 58.6989 30.7937 58.8196 30.3359 58.5107C29.8781 58.2017 29.7574 57.5802 30.0663 57.1224C30.5919 56.3436 31.6389 55.4171 33.1165 55.2323C34.4454 55.066 35.9227 55.5221 37.4552 56.8536C38.3119 56.2006 39.4768 55.5698 40.7896 55.3428C42.385 55.0668 44.1392 55.4036 45.6969 56.8667C46.6277 56.2501 47.8922 55.6588 49.3079 55.449C50.9692 55.2028 52.8315 55.4885 54.5307 56.836C55.2559 56.2309 56.2363 55.651 57.3731 55.4085C59.0336 55.0542 60.9167 55.4488 62.6222 57.2541C63.0014 57.6555 62.9834 58.2885 62.582 58.6677C62.1805 59.047 61.5476 59.029 61.1683 58.6275C59.937 57.3241 58.7608 57.1574 57.7904 57.3644C56.7395 57.5886 55.8148 58.2835 55.3017 58.8629C55.118 59.0703 54.8564 59.1922 54.5794 59.1995C54.3024 59.2068 54.0347 59.0988 53.8404 58.9013C52.4616 57.5001 50.9595 57.2261 49.601 57.4274C48.1923 57.6362 46.9321 58.3647 46.2257 58.963C46.0223 59.1352 45.7585 59.2192 45.4929 59.1961C45.2274 59.173 44.982 59.0449 44.8113 58.8401C43.5816 57.3648 42.2794 57.1148 41.1305 57.3135C39.9004 57.5262 38.7708 58.2768 38.122 58.9135C37.932 59.1001 37.6753 59.2031 37.409 59.1998C37.1427 59.1964 36.8887 59.087 36.7034 58.8957C35.2163 57.3609 34.0823 57.127 33.3648 57.2168Z" fill="#B08304"/>
<path fill-rule="evenodd" clip-rule="evenodd" d="M34.1509 50.2151C33.5288 50.3012 33.0184 50.7605 32.7492 51.2022C32.4617 51.6738 31.8464 51.8231 31.3748 51.5356C30.9032 51.2482 30.7539 50.6329 31.0414 50.1613C31.509 49.3941 32.4722 48.4285 33.8765 48.234C35.1239 48.0612 36.4669 48.5274 37.8269 49.7986C38.5987 49.1694 39.6303 48.5696 40.798 48.346C41.6272 48.1872 42.5343 48.2177 43.4449 48.5768C44.0919 48.8319 44.7081 49.2402 45.2814 49.8151C46.1212 49.2198 47.2408 48.6575 48.4965 48.4514C50.0225 48.2011 51.7107 48.4888 53.2408 49.7812C53.893 49.2013 54.7602 48.6516 55.7693 48.4132C56.5258 48.2345 57.3638 48.2319 58.2238 48.531C59.0809 48.829 59.8997 49.4054 60.656 50.2917C61.0144 50.7118 60.9645 51.343 60.5444 51.7015C60.1242 52.06 59.493 52.01 59.1346 51.5899C58.5645 50.9218 58.0293 50.5808 57.567 50.42C57.1076 50.2603 56.6607 50.2577 56.2291 50.3597C55.3274 50.5727 54.5095 51.2433 54.0446 51.8245C53.8605 52.0547 53.5842 52.1919 53.2896 52.1995C52.995 52.2072 52.712 52.0845 52.5162 51.8642C51.2865 50.4807 49.9804 50.2347 48.8203 50.425C47.5912 50.6267 46.4755 51.3358 45.8424 51.9294C45.6352 52.1236 45.3553 52.2206 45.0724 52.1961C44.7895 52.1717 44.5303 52.0282 44.3595 51.8013C43.7874 51.0414 43.2207 50.6383 42.7111 50.4373C42.2024 50.2367 41.6866 50.2122 41.1741 50.3103C40.1108 50.5139 39.1111 51.241 38.5258 51.877C38.3336 52.086 38.0615 52.2033 37.7775 52.1998C37.4936 52.1962 37.2245 52.0721 37.0375 51.8584C35.6925 50.3216 34.7113 50.1374 34.1509 50.2151Z" fill="#B08304"/>
<path fill-rule="evenodd" clip-rule="evenodd" d="M44.9235 43.2535C43.8657 43.4489 42.8768 44.1451 42.3018 44.7481C42.1101 44.9491 41.8434 45.0613 41.5656 45.0578C41.2878 45.0544 41.024 44.9355 40.8374 44.7297C39.6556 43.4268 38.2962 43.2331 37.1124 43.4701C36.5047 43.5918 35.9485 43.8287 35.511 44.0936C35.0503 44.3725 34.8068 44.6293 34.7407 44.7338C34.4458 45.2008 33.8281 45.3402 33.3612 45.0453C32.8943 44.7503 32.7548 44.1327 33.0498 43.6658C33.3484 43.193 33.8829 42.7413 34.4753 42.3827C35.0908 42.01 35.8627 41.6806 36.7198 41.509C38.2295 41.2068 40.0169 41.3998 41.5952 42.6949C42.3636 42.0851 43.3946 41.5021 44.5601 41.2868C45.3769 41.1359 46.2702 41.1647 47.1683 41.5064C47.809 41.7502 48.4215 42.1417 48.9925 42.6953C49.8258 42.1237 50.9365 41.5845 52.1802 41.3876C53.9377 41.1094 55.9244 41.528 57.6307 43.3804C58.0049 43.7866 57.979 44.4192 57.5728 44.7934C57.1665 45.1676 56.5339 45.1416 56.1597 44.7354C54.9486 43.4206 53.653 43.1794 52.4929 43.363C51.271 43.5565 50.1663 44.2355 49.5429 44.7995C49.3368 44.9859 49.0625 45.0782 48.7857 45.0542C48.5089 45.0302 48.2545 44.8921 48.0836 44.6731C47.5216 43.9528 46.9634 43.5683 46.457 43.3756C45.9502 43.1828 45.4349 43.159 44.9235 43.2535Z" fill="#B08304"/>
<path fill-rule="evenodd" clip-rule="evenodd" d="M35.4982 74.6765C35.0287 74.9073 34.7928 75.1377 34.7286 75.2345C34.4232 75.6947 33.8027 75.8203 33.3424 75.515C32.8822 75.2097 32.7566 74.5891 33.0619 74.1289C33.3987 73.6212 33.982 73.1932 34.616 72.8816C35.2747 72.5578 36.087 72.3102 36.981 72.2286C38.5668 72.0839 40.4109 72.4647 42.0764 73.853C42.9195 73.2008 44.0655 72.5707 45.3584 72.3432C46.9338 72.0661 48.6606 72.4045 50.1915 73.8585C51.1066 73.2452 52.3459 72.6586 53.7336 72.4494C55.6172 72.1654 57.7583 72.5864 59.614 74.5045C59.998 74.9014 59.9875 75.5345 59.5906 75.9185C59.1936 76.3025 58.5606 76.292 58.1765 75.8951C56.8241 74.4972 55.3562 74.2274 54.0317 74.427C52.654 74.6347 51.4192 75.3602 50.7257 75.9575C50.5215 76.1333 50.255 76.2194 49.9866 76.1961C49.7181 76.1727 49.4704 76.0421 49.2996 75.8336C48.0922 74.3603 46.8209 74.1167 45.7049 74.313C44.5037 74.5243 43.3969 75.2711 42.7594 75.9075C42.5689 76.0977 42.3096 76.2031 42.0404 76.1997C41.7711 76.1963 41.5146 76.0845 41.3288 75.8895C39.9555 74.4478 38.4269 74.105 37.1627 74.2203C36.5184 74.2791 35.943 74.4578 35.4982 74.6765Z" fill="#B08304"/>
<path fill-rule="evenodd" clip-rule="evenodd" d="M37.5354 44.2081C38.0458 44.8607 37.9304 45.8034 37.2778 46.3138C36.743 46.732 36.3446 47.214 36.0623 47.7635C35.6836 48.5003 34.7793 48.7906 34.0425 48.412C33.3057 48.0333 33.0153 47.129 33.394 46.3922C33.8843 45.4383 34.5697 44.6232 35.4298 43.9505C36.0824 43.4402 37.0251 43.5556 37.5354 44.2081Z" fill="white"/>
<path d="M49 79C49 79.5523 48.5523 80 48 80C47.4477 80 47 79.5523 47 79C47 78.4477 47.4477 78 48 78C48.5523 78 49 78.4477 49 79Z" fill="#FFDC7A"/>
<path d="M41 78C41 78.5523 40.5523 79 40 79C39.4477 79 39 78.5523 39 78C39 77.4477 39.4477 77 40 77C40.5523 77 41 77.4477 41 78Z" fill="#FFDC7A"/>
<path d="M54 69C54 69.5523 53.5523 70 53 70C52.4477 70 52 69.5523 52 69C52 68.4477 52.4477 68 53 68C53.5523 68 54 68.4477 54 69Z" fill="#FFDC7A"/>
<path d="M36 70C36 70.5523 35.5523 71 35 71C34.4477 71 34 70.5523 34 70C34 69.4477 34.4477 69 35 69C35.5523 69 36 69.4477 36 70Z" fill="#FFDC7A"/>
<path d="M36 61C36 61.5523 35.5523 62 35 62C34.4477 62 34 61.5523 34 61C34 60.4477 34.4477 60 35 60C35.5523 60 36 60.4477 36 61Z" fill="#FFDC7A"/>
<path d="M45 61C45 61.5523 44.5523 62 44 62C43.4477 62 43 61.5523 43 61C43 60.4477 43.4477 60 44 60C44.5523 60 45 60.4477 45 61Z" fill="#FFDC7A"/>
<path d="M52 54C52 54.5523 51.5523 55 51 55C50.4477 55 50 54.5523 50 54C50 53.4477 50.4477 53 51 53C51.5523 53 52 53.4477 52 54Z" fill="#FFDC7A"/>
<path d="M44 54C44 54.5523 43.5523 55 43 55C42.4477 55 42 54.5523 42 54C42 53.4477 42.4477 53 43 53C43.5523 53 44 53.4477 44 54Z" fill="#FFDC7A"/>
<path d="M48 47C48 47.5523 47.5523 48 47 48C46.4477 48 46 47.5523 46 47C46 46.4477 46.4477 46 47 46C47.5523 46 48 46.4477 48 47Z" fill="#FFDC7A"/>
<path d="M45 41C45 41.5523 44.5523 42 44 42C43.4477 42 43 41.5523 43 41C43 40.4477 43.4477 40 44 40C44.5523 40 45 40.4477 45 41Z" fill="#FFDC7A"/>
<path d="M45 69C45 69.5523 44.5523 70 44 70C43.4477 70 43 69.5523 43 69C43 68.4477 43.4477 68 44 68C44.5523 68 45 68.4477 45 69Z" fill="#FFDC7A"/>
</svg>
