<svg width="96" height="96" viewBox="0 0 96 96" fill="none" xmlns="http://www.w3.org/2000/svg">
<path d="M17.5383 45.3345C20.8478 41.3029 34.8249 34.6339 44.3858 34.6339C53.2112 34.6339 51.7403 60.0449 49.534 69.4518C41.0762 74.2164 19.7002 73.3856 16.4385 66.5198C13.861 61.0942 15.4914 60.2712 15.6996 56.6961C15.9167 52.97 15.2097 48.1711 17.5383 45.3345Z" fill="#A3A90D"/>
<path fill-rule="evenodd" clip-rule="evenodd" d="M51.4811 69.9085C51.3533 70.4533 51.0031 70.9197 50.5156 71.1943C45.7897 73.8566 37.8691 74.8239 30.8999 74.3425C27.3704 74.0986 23.9257 73.4745 21.0967 72.4181C18.3477 71.3916 15.7866 69.8085 14.632 67.378C13.2513 64.4716 12.8807 62.5468 13.0314 60.7471C13.0921 60.0214 13.2384 59.3463 13.361 58.7806C13.3774 58.7047 13.3935 58.6307 13.4088 58.5589C13.5442 57.9243 13.6599 57.3202 13.703 56.5798C13.7501 55.7704 13.7505 54.8977 13.7509 53.9322C13.7509 53.8707 13.751 53.8088 13.751 53.7466C13.7516 52.733 13.7558 51.6303 13.832 50.542C13.9812 48.4117 14.4217 45.9788 15.9924 44.0655C17.0311 42.8001 18.7498 41.4888 20.7319 40.2613C22.7554 39.0083 25.2038 37.7514 27.8347 36.632C33.0515 34.4124 39.2213 32.6339 44.3858 32.6339C47.8015 32.6339 49.8804 35.167 51.066 37.9729C52.2659 40.8126 52.8584 44.5491 53.0931 48.3934C53.5644 56.1131 52.6294 65.0126 51.4811 69.9085ZM49.534 69.4518C51.7403 60.0449 53.2112 34.6339 44.3858 34.6339C34.8249 34.6339 20.8478 41.3029 17.5382 45.3345C15.7532 47.509 15.752 50.8368 15.7509 53.9504C15.7506 54.8983 15.7503 55.8264 15.6996 56.6961C15.6414 57.6947 15.4723 58.4786 15.3149 59.2081C14.9088 61.0901 14.581 62.6097 16.4385 66.5198C19.7002 73.3856 41.0762 74.2164 49.534 69.4518Z" fill="#767907"/>
<path fill-rule="evenodd" clip-rule="evenodd" d="M15.0496 60.6632C14.8871 62.0513 15.068 63.6349 16.4385 66.5198C19.7002 73.3857 41.0762 74.2164 49.534 69.4519C51.0766 62.8748 52.2597 48.4745 49.8156 40.4055C50.8129 48.5011 49.7932 59.083 48.534 64.4519C40.0762 69.2164 18.7002 68.3857 15.4385 61.5198C15.2964 61.2207 15.1671 60.9356 15.0496 60.6632Z" fill="#848909"/>
<path d="M25.6519 56.8231C25.72 59.6341 23.8659 61.9592 21.5105 62.0163C19.1552 62.0733 17.1906 59.8408 17.1225 57.0297C17.0544 54.2186 18.9086 51.8936 21.2639 51.8365C23.6193 51.7795 25.5838 54.012 25.6519 56.8231Z" fill="#B0831A"/>
<path fill-rule="evenodd" clip-rule="evenodd" d="M22.1445 58.5819C22.4333 58.2198 22.6706 57.6318 22.6528 56.8957C22.635 56.1596 22.3695 55.5839 22.0635 55.2361C21.763 54.8946 21.4956 54.8318 21.3366 54.8356C21.1776 54.8395 20.9135 54.9152 20.6299 55.2708C20.3411 55.633 20.1038 56.2209 20.1216 56.957C20.1395 57.6932 20.4049 58.2689 20.711 58.6167C21.0115 58.9582 21.2788 59.021 21.4379 59.0171C21.5969 59.0133 21.8609 58.9376 22.1445 58.5819ZM21.5105 62.0163C23.8659 61.9592 25.72 59.6341 25.6519 56.8231C25.5838 54.012 23.6193 51.7795 21.2639 51.8365C18.9086 51.8936 17.0544 54.2186 17.1225 57.0297C17.1906 59.8408 19.1552 62.0733 21.5105 62.0163Z" fill="#351900"/>
<path d="M33.9138 37.0484C23.8533 41.8897 23.1094 52.739 23.8533 57.9744C26.085 64.0152 59.8757 46.238 67.3148 41.808C66.1246 29.2431 56.6521 28.2497 52.0647 29.3236C47.8988 29.6458 36.1455 35.9745 33.9138 37.0484Z" fill="#D2D92D"/>
<path fill-rule="evenodd" clip-rule="evenodd" d="M21.9772 58.6675C21.928 58.5343 21.8931 58.3963 21.8731 58.2558C21.0904 52.747 21.7719 40.6717 33.0466 35.2463C33.3144 35.1174 33.8377 34.8509 34.5363 34.4952C36.197 33.6496 38.8483 32.2995 41.4133 31.0941C43.3032 30.2059 45.2839 29.3273 47.0737 28.6463C48.7375 28.0133 50.4206 27.4773 51.7516 27.3438C54.3913 26.7579 58.3566 26.7521 61.921 28.6953C65.6829 30.7461 68.6582 34.7815 69.3059 41.6194C69.3788 42.3887 69.002 43.1311 68.3381 43.5264C64.5511 45.7816 54.1707 51.3714 44.4358 55.6488C39.5816 57.7817 34.7884 59.633 31.0179 60.5618C29.1545 61.0209 27.3795 61.2968 25.912 61.1906C24.5054 61.0888 22.6732 60.5515 21.9772 58.6675ZM52.0647 29.3237C48.5575 29.5949 39.6728 34.1232 35.6191 36.1894C34.8577 36.5774 34.2667 36.8786 33.9138 37.0485C23.8532 41.8897 23.1093 52.739 23.8533 57.9744C26.085 64.0153 59.8757 46.238 67.3148 41.8081C66.1246 29.2431 56.6521 28.2497 52.0647 29.3237Z" fill="#767907"/>
<path d="M58.4616 70.0471C72.3714 65.1229 74.5584 53.5478 70.9404 45.4207C65.7089 38.5795 23.0522 51.4565 22.6497 59.9075C22.267 67.9467 35.4217 75.8149 40.3858 75.0546C44.8816 74.8952 56.0364 70.8654 58.4616 70.0471Z" fill="#BDC41D"/>
<path fill-rule="evenodd" clip-rule="evenodd" d="M72.5291 44.2058C72.624 44.3299 72.704 44.4646 72.7675 44.6073C74.7727 49.1115 75.1866 54.6036 73.1276 59.686C71.0502 64.8139 66.5453 69.3071 59.129 71.9325L59.101 71.9422C58.8509 72.0266 58.4961 72.1493 58.0566 72.3014C56.4428 72.8598 53.6878 73.8131 50.7909 74.7087C47.2414 75.8062 43.1368 76.93 40.5675 77.0489C38.8226 77.2793 36.7197 76.7802 34.7352 76.0007C32.6338 75.1752 30.3813 73.9221 28.3178 72.3847C26.2584 70.8503 24.3193 68.982 22.9054 66.8941C21.4954 64.8119 20.5293 62.3899 20.652 59.8125C20.7401 57.9633 21.927 56.3758 23.2525 55.124C24.6382 53.8155 26.5183 52.552 28.6611 51.3666C32.9605 48.9882 38.6361 46.751 44.4079 45.0144C50.18 43.2777 56.1607 42.0079 61.0859 41.616C63.5412 41.4207 65.8218 41.4359 67.7181 41.7612C69.5369 42.0732 71.4069 42.7383 72.5291 44.2058ZM40.3858 75.0547C44.3923 74.9126 53.6872 71.6967 57.3794 70.4193C57.8303 70.2633 58.1976 70.1362 58.4616 70.0471C72.3714 65.123 74.5585 53.5478 70.9404 45.4207C65.7089 38.5795 23.0522 51.4565 22.6498 59.9076C22.267 67.9467 35.4217 75.8149 40.3858 75.0547Z" fill="#767907"/>
<path fill-rule="evenodd" clip-rule="evenodd" d="M66.7568 43.64C69.0826 51.534 66.147 61.5564 53.4616 66.0471C53.1976 66.1362 52.8303 66.2633 52.3793 66.4193C48.6872 67.6967 39.3923 70.9126 35.3858 71.0546C33.3142 71.3719 29.8163 70.1865 26.4711 68.1132C30.6614 72.4863 37.205 75.5418 40.3858 75.0546C44.3923 74.9126 53.6872 71.6967 57.3794 70.4193C57.8303 70.2633 58.1976 70.1362 58.4616 70.0471C72.3714 65.1229 74.5585 53.5478 70.9404 45.4207C70.2074 44.4622 68.7399 43.8908 66.7568 43.64Z" fill="#A5AB0C"/>
<path d="M53.3844 63.6958C52.5965 64.2451 51.5124 64.0518 50.9631 63.2639C50.4137 62.4761 50.607 61.392 51.3949 60.8426C52.1827 60.2933 53.2668 60.4866 53.8162 61.2745C54.3656 62.0623 54.1722 63.1464 53.3844 63.6958Z" fill="#919611"/>
<path d="M53.5154 68.9649C52.7275 69.5143 51.6435 69.321 51.0941 68.5331C50.5447 67.7452 50.7381 66.6612 51.5259 66.1118C52.3138 65.5624 53.3978 65.7558 53.9472 66.5436C54.4966 67.3315 54.3033 68.4155 53.5154 68.9649Z" fill="#919611"/>
<path d="M59.6544 67.0187C59.0635 67.4307 58.2505 67.2857 57.8384 66.6948C57.4264 66.1039 57.5714 65.2909 58.1623 64.8789C58.7532 64.4668 59.5662 64.6118 59.9783 65.2027C60.3903 65.7936 60.2453 66.6067 59.6544 67.0187Z" fill="#919611"/>
<path d="M47.5225 71.4465C46.7346 71.9959 45.6506 71.8025 45.1012 71.0147C44.5518 70.2268 44.7451 69.1427 45.533 68.5934C46.3209 68.044 47.4049 68.2373 47.9543 69.0252C48.5037 69.8131 48.3103 70.8971 47.5225 71.4465Z" fill="#919611"/>
<path d="M47.3913 65.1774C46.6035 65.7268 45.5194 65.5335 44.97 64.7456C44.4207 63.9578 44.614 62.8737 45.4019 62.3243C46.1897 61.7749 47.2738 61.9683 47.8232 62.7561C48.3725 63.544 48.1792 64.6281 47.3913 65.1774Z" fill="#919611"/>
<path d="M41.2533 71.5777C40.4654 72.1271 39.3814 71.9338 38.832 71.1459C38.2826 70.358 38.476 69.274 39.2638 68.7246C40.0517 68.1752 41.1358 68.3686 41.6851 69.1564C42.2345 69.9443 42.0412 71.0283 41.2533 71.5777Z" fill="#919611"/>
<path d="M40.409 65.8059C39.6211 66.3552 38.537 66.1619 37.9877 65.374C37.4383 64.5862 37.6316 63.5021 38.4195 62.9527C39.2073 62.4034 40.2914 62.5967 40.8408 63.3846C41.3902 64.1724 41.1968 65.2565 40.409 65.8059Z" fill="#919611"/>
<path d="M35.5567 70.2494C34.9658 70.6615 34.1528 70.5165 33.7407 69.9256C33.3287 69.3347 33.4737 68.5216 34.0646 68.1096C34.6555 67.6975 35.4685 67.8425 35.8806 68.4334C36.2926 69.0243 36.1476 69.8374 35.5567 70.2494Z" fill="#919611"/>
<path d="M59.9117 47.5949C61.5176 45.5807 62.1103 43.0257 62.2059 42C66.3353 44.238 69.2794 49.8328 70.2353 52.3505C74.3647 50.3364 81.1323 51.3248 84 52.0708C81.9353 52.2946 81.2279 54.9615 81.1323 56.267C80.9029 59.8477 77.5956 62.7943 75.9706 63.8201C77.6911 65.7783 78.5514 70.2542 78.2647 71.6529C78.0353 72.7719 79.3161 75.6626 79.9853 76.968C74.25 77.4156 68.6103 73.0516 66.5073 70.8137C64.4426 74.3944 56.8529 76.4086 53.3161 76.968C54.4632 75.6253 55.3235 69.8812 55.6103 67.177C48.9573 65.6104 45.7647 59.2509 45 56.267C46.5294 56.1737 49.9323 55.6515 51.3088 54.3087C52.6853 52.966 56.2794 53.7493 57.9044 54.3087C57.9044 52.91 58.3059 49.609 59.9117 47.5949Z" fill="#F9E34D"/>
<path fill-rule="evenodd" clip-rule="evenodd" d="M61.2635 40.2359C61.8562 39.9193 62.5681 39.9215 63.1588 40.2416C65.6222 41.5767 67.6066 43.8273 69.0582 45.9365C69.9842 47.2822 70.7432 48.6434 71.3107 49.8165C73.3764 49.23 75.6422 49.1072 77.6598 49.1768C80.3863 49.2709 82.9411 49.7288 84.5035 50.1352C85.4379 50.3783 86.0653 51.2543 85.9946 52.2172C85.9239 53.1801 85.1754 53.9551 84.2155 54.0591C84.1226 54.0692 83.8939 54.126 83.6015 54.6872C83.3124 55.2422 83.162 55.9499 83.1275 56.4057C82.9737 58.7586 81.8293 60.7723 80.6315 62.2573C79.9969 63.0441 79.3083 63.7313 78.6551 64.2963C79.176 65.3255 79.5518 66.451 79.8078 67.4498C80.027 68.3052 80.1802 69.1541 80.2585 69.9076C80.3289 70.5857 80.3563 71.3412 80.2382 71.9814C80.2405 72.0048 80.2464 72.116 80.2964 72.344C80.3682 72.6721 80.4955 73.0865 80.6663 73.5535C81.0069 74.4846 81.4583 75.4572 81.7651 76.0558C82.0703 76.6512 82.0575 77.3597 81.7311 77.9438C81.4047 78.5278 80.8079 78.9099 80.1409 78.962C76.7366 79.2276 73.493 78.0658 70.9201 76.6502C69.2704 75.7426 67.8184 74.688 66.6757 73.7159C66.2067 74.1446 65.6978 74.5292 65.1779 74.874C63.9667 75.6773 62.5768 76.3422 61.1954 76.8852C58.4371 77.9694 55.5105 78.6458 53.6287 78.9435C52.8014 79.0743 51.9802 78.6759 51.571 77.945C51.1619 77.2142 51.2515 76.3058 51.7955 75.669C51.791 75.6742 51.7888 75.6769 51.7887 75.6768C51.7881 75.6764 51.8352 75.611 51.9155 75.4366C52.005 75.242 52.1059 74.9779 52.2135 74.642C52.4288 73.9695 52.636 73.1197 52.8258 72.1851C53.0696 70.9845 53.2718 69.7083 53.4219 68.6027C50.4266 67.4947 48.1621 65.5383 46.5347 63.5022C44.6222 61.1092 43.5111 58.5134 43.0626 56.7635C42.9145 56.1855 43.0321 55.5717 43.3834 55.0895C43.7346 54.6072 44.2828 54.307 44.8783 54.2707C45.5367 54.2305 46.6429 54.0929 47.7168 53.8186C48.8793 53.5217 49.6254 53.157 49.9122 52.8771C50.6357 52.1714 51.537 51.8486 52.3147 51.6994C53.1036 51.5481 53.9238 51.5442 54.6667 51.6013C55.1653 51.6396 55.663 51.7082 56.1394 51.7946C56.1995 51.4447 56.2729 51.0825 56.3613 50.7149C56.6957 49.3249 57.2877 47.6779 58.348 46.3481C59.6424 44.7245 60.1433 42.5787 60.2145 41.8144C60.2768 41.1454 60.6709 40.5525 61.2635 40.2359ZM58.0882 52.2663C57.954 53.0899 57.9044 53.8169 57.9044 54.3087C57.3934 54.1328 56.6875 53.9347 55.9172 53.7876C54.2381 53.4669 52.2524 53.3883 51.3088 54.3087C50.3902 55.2048 48.5692 55.7355 47.0048 56.0171C46.2249 56.1574 45.5088 56.2359 45 56.267C45.1415 56.8192 45.3662 57.487 45.6805 58.2187C47.0649 61.4406 50.1886 65.9003 55.6103 67.177C55.4099 69.0669 54.9293 72.4415 54.2666 74.7609C53.981 75.7602 53.6616 76.5637 53.3162 76.968C54.0155 76.8574 54.8733 76.6899 55.8155 76.4647C58.9095 75.725 62.9137 74.3628 65.2063 72.3473C65.7464 71.8724 66.1915 71.3614 66.5073 70.8137C66.8913 71.2223 67.3932 71.7018 67.9921 72.21C70.2417 74.1188 73.8594 76.4319 77.735 76.9107C78.4782 77.0025 79.2309 77.0269 79.9853 76.968C79.7335 76.4768 79.395 75.761 79.0831 74.9996C78.566 73.7378 78.1216 72.3508 78.2647 71.6529C78.4887 70.5605 78.0129 67.591 76.9741 65.4099C76.6829 64.7984 76.3474 64.2489 75.9706 63.8201C76.4084 63.5437 76.9683 63.1279 77.5573 62.5978C79.1543 61.1605 80.9647 58.8829 81.1323 56.267C81.1822 55.5866 81.3981 54.5366 81.8857 53.6552C82.3338 52.8454 83.0113 52.178 84 52.0708C83.2374 51.8724 82.1989 51.6569 81.0076 51.4852C78.2485 51.0877 74.6695 50.9256 71.7983 51.7571C71.2477 51.9166 70.7231 52.1126 70.2353 52.3505C70.0438 51.8463 69.7727 51.2187 69.4282 50.5193C68.318 48.2653 66.4465 45.2661 64.0296 43.2519C63.4519 42.7705 62.843 42.3453 62.2059 42C62.164 42.4491 62.0269 43.1913 61.7512 44.0529C61.3971 45.1593 60.8146 46.4625 59.9117 47.5949C58.8705 48.9008 58.3356 50.7477 58.0882 52.2663Z" fill="#A68D03"/>
<path fill-rule="evenodd" clip-rule="evenodd" d="M62.2059 42C62.1103 43.0257 61.5176 45.5807 59.9117 47.5949C58.3059 49.609 57.9044 52.91 57.9044 54.3087C56.2794 53.7493 52.6853 52.966 51.3088 54.3087C49.9323 55.6515 46.5294 56.1737 45 56.267C45.7647 59.2509 48.9573 65.6104 55.6103 67.177C55.3235 69.8812 54.4632 75.6253 53.3161 76.968C56.8529 76.4086 64.4426 74.3944 66.5073 70.8137C68.6103 73.0516 74.25 77.4156 79.9853 76.968C79.3161 75.6626 78.0353 72.7719 78.2647 71.6529C78.5514 70.2542 77.6911 65.7783 75.9706 63.8201C77.5956 62.7943 80.9029 59.8477 81.1323 56.267C81.2279 54.9615 81.9353 52.2946 84 52.0708C81.1323 51.3248 74.3647 50.3364 70.2353 52.3505C69.2794 49.8328 66.3353 44.238 62.2059 42ZM63.1176 46C63.0392 46.8499 62.5529 48.9669 61.2353 50.6358C59.9176 52.3046 59.5882 55.0397 59.5882 56.1987C58.2549 55.7351 55.3059 55.0861 54.1764 56.1987C53.047 57.3113 50.2549 57.7439 49 57.8212C49.6274 60.2936 52.247 65.5629 57.7059 66.8609C57.4706 69.1016 56.7647 73.8609 55.8235 74.9735C58.7255 74.5099 64.9529 72.8411 66.647 69.8742C68.3725 71.7285 73 75.3444 77.7059 74.9735C77.1568 73.8918 76.1059 71.4967 76.2941 70.5695C76.5294 69.4106 75.8235 65.702 74.4117 64.0795C75.7451 63.2296 78.4588 60.7881 78.647 57.8212C78.7255 56.7395 79.3059 54.5298 81 54.3444C78.647 53.7263 73.0941 52.9073 69.7059 54.5762C68.9215 52.4901 66.5059 47.8543 63.1176 46Z" fill="#F3CA38"/>
<path d="M63.5 55.3978C64.2 54.5346 64.4583 53.4396 64.5 53C66.3 53.9591 67.5833 56.3569 68 57.4359C69.8 56.5727 72.75 56.9963 74 57.3161C73.1 57.412 72.7916 58.5549 72.75 59.1144C72.65 60.649 71.2083 61.9119 70.5 62.3515C71.25 63.1907 71.625 65.1089 71.5 65.7084C71.4 66.1879 71.9583 67.4268 72.25 67.9863C69.75 68.1781 67.2916 66.3078 66.375 65.3487C65.475 66.8833 62.1666 67.7465 60.625 67.9863C61.125 67.4108 61.5 64.9491 61.625 63.7901C58.725 63.1188 57.3333 60.3932 57 59.1144C57.6666 59.0744 59.15 58.8507 59.75 58.2752C60.35 57.6997 61.9166 58.0354 62.625 58.2752C62.625 57.6757 62.8 56.261 63.5 55.3978Z" fill="#FFF191"/>
<path d="M64.7015 64.7997C64.2028 65.4612 63.6197 65.8627 63.3992 65.6965C63.1787 65.5303 63.4043 64.8593 63.903 64.1978C64.4017 63.5363 64.9847 63.1348 65.2052 63.301C65.4257 63.4672 65.2002 64.1382 64.7015 64.7997Z" fill="#795D32"/>
<path d="M67.9794 63.8806C67.3467 63.3459 66.9783 62.7414 67.1566 62.5305C67.3349 62.3196 67.9923 62.5821 68.625 63.1169C69.2577 63.6517 69.6261 64.2562 69.4478 64.4671C69.2695 64.678 68.6121 64.4154 67.9794 63.8806Z" fill="#795D32"/>
<path d="M68.7935 60.5855C68.0613 60.973 67.3631 61.0893 67.2339 60.8452C67.1047 60.6012 67.5936 60.0892 68.3258 59.7017C69.058 59.3141 69.7563 59.1979 69.8854 59.4419C70.0146 59.686 69.5257 60.198 68.7935 60.5855Z" fill="#795D32"/>
<path d="M66.0494 58.0427C66.2165 58.854 66.1327 59.557 65.8623 59.6127C65.5918 59.6684 65.2371 59.0558 65.0699 58.2444C64.9028 57.433 64.9865 56.7301 65.257 56.6744C65.5275 56.6187 65.8822 57.2313 66.0494 58.0427Z" fill="#795D32"/>
<path d="M62.8224 60.0709C63.6494 60.1208 64.3062 60.3846 64.2896 60.6603C64.273 60.9359 63.5892 61.119 62.7623 61.0691C61.9353 61.0193 61.2785 60.7554 61.2951 60.4798C61.3117 60.2041 61.9955 60.0211 62.8224 60.0709Z" fill="#795D32"/>
<path d="M43.0375 39.2594C43.742 41.0594 40.1286 41.1884 35.5 43.0001C30.8714 44.8118 28.2045 48.8001 27.5 47.0001C26.7955 45.2001 29.3713 39.8119 34 38.0002C38.6286 36.1885 42.3329 37.4594 43.0375 39.2594Z" fill="#F5FB60"/>
<path fill-rule="evenodd" clip-rule="evenodd" d="M34.9284 39.6288C35.1336 40.1415 34.8841 40.7235 34.3714 40.9286C34.0199 41.0692 33.4449 41.3562 32.9256 41.7339C32.3763 42.1334 32.0472 42.5206 31.9486 42.8164C31.774 43.3403 31.2077 43.6235 30.6837 43.4488C30.1598 43.2742 29.8766 42.7079 30.0513 42.1839C30.3527 41.2797 31.107 40.5835 31.7493 40.1164C32.4217 39.6274 33.1467 39.2644 33.6286 39.0717C34.1414 38.8666 34.7233 39.116 34.9284 39.6288Z" fill="white"/>
</svg>
