<svg width="96" height="96" viewBox="0 0 96 96" fill="none" xmlns="http://www.w3.org/2000/svg">
<path d="M73.5215 39.1865C79.3204 49.2307 76.8484 61.5144 68 66.6231C59.1516 71.7317 47.2775 67.7307 41.4785 57.6865C35.6795 47.6424 38.1516 35.3586 47 30.25C55.8484 25.1414 67.7225 29.1424 73.5215 39.1865Z" fill="#F4802D"/>
<path fill-rule="evenodd" clip-rule="evenodd" d="M75.2535 38.1865C81.4819 48.9744 79.0048 62.5788 69 68.3551C58.9952 74.1314 45.9749 69.4744 39.7465 58.6865C33.5181 47.8986 35.9952 34.2942 46 28.5179C56.0048 22.7417 69.0251 27.3986 75.2535 38.1865ZM68 66.6231C76.8484 61.5144 79.3204 49.2307 73.5215 39.1865C67.7225 29.1424 55.8484 25.1414 47 30.25C38.1516 35.3586 35.6795 47.6424 41.4785 57.6865C47.2775 67.7307 59.1516 71.7317 68 66.6231Z" fill="#964207"/>
<path fill-rule="evenodd" clip-rule="evenodd" d="M63 64.623C71.8484 59.5144 74.3204 47.2307 68.5214 37.1865C66.3468 33.42 63.3179 30.5032 59.9146 28.598C65.2801 29.9478 70.3241 33.6486 73.5214 39.1865C79.3204 49.2307 76.8484 61.5144 68 66.623C62.4697 69.8159 55.7575 69.4504 50.0853 66.275C54.4513 67.3734 59.0301 66.915 63 64.623Z" fill="#D96918"/>
<path d="M69.9939 52.0911C69.756 52.8143 68.9769 53.2078 68.2536 52.9699C67.5304 52.7321 67.1369 51.9529 67.3747 51.2297C67.6126 50.5064 68.3917 50.1129 69.115 50.3508C69.8383 50.5887 70.2317 51.3678 69.9939 52.0911Z" fill="#C85A0C"/>
<path d="M73.0612 56.0023C72.8234 56.7256 72.0442 57.1191 71.321 56.8812C70.5977 56.6433 70.2042 55.8642 70.4421 55.1409C70.6799 54.4177 71.4591 54.0242 72.1823 54.262C72.9056 54.4999 73.2991 55.279 73.0612 56.0023Z" fill="#C85A0C"/>
<path d="M73.8062 51.5308C73.6278 52.0732 73.0434 52.3684 72.501 52.19C71.9585 52.0116 71.6634 51.4272 71.8418 50.8848C72.0202 50.3423 72.6046 50.0472 73.147 50.2256C73.6895 50.404 73.9846 50.9884 73.8062 51.5308Z" fill="#C85A0C"/>
<path d="M71.5539 60.5859C71.316 61.3091 70.5368 61.7026 69.8136 61.4648C69.0903 61.2269 68.6968 60.4478 68.9347 59.7245C69.1726 59.0012 69.9517 58.6077 70.675 58.8456C71.3982 59.0835 71.7917 59.8626 71.5539 60.5859Z" fill="#C85A0C"/>
<path d="M68.4865 56.6747C68.2486 57.398 67.4695 57.7915 66.7462 57.5536C66.023 57.3158 65.6295 56.5366 65.8673 55.8134C66.1052 55.0901 66.8843 54.6966 67.6076 54.9345C68.3308 55.1723 68.7243 55.9515 68.4865 56.6747Z" fill="#C85A0C"/>
<path d="M67.6427 63.6533C67.4048 64.3766 66.6257 64.7701 65.9024 64.5322C65.1791 64.2943 64.7856 63.5152 65.0235 62.7919C65.2614 62.0687 66.0405 61.6752 66.7638 61.913C67.487 62.1509 67.8805 62.9301 67.6427 63.6533Z" fill="#C85A0C"/>
<path d="M64.3599 60.3968C64.1221 61.12 63.3429 61.5135 62.6196 61.2757C61.8964 61.0378 61.5029 60.2587 61.7408 59.5354C61.9786 58.8121 62.7578 58.4187 63.481 58.6565C64.2043 58.8944 64.5978 59.6735 64.3599 60.3968Z" fill="#C85A0C"/>
<path d="M63.3997 65.5231C63.2213 66.0656 62.6369 66.3607 62.0945 66.1823C61.552 66.0039 61.2569 65.4195 61.4353 64.8771C61.6137 64.3346 62.198 64.0395 62.7405 64.2179C63.2829 64.3963 63.578 64.9807 63.3997 65.5231Z" fill="#C85A0C"/>
<path d="M58 48.9365C58 60.8106 49.4934 70.4365 39 70.4365C28.5066 70.4365 20 60.8106 20 48.9365C20 37.0624 28.5066 27.4365 39 27.4365C49.4934 27.4365 58 37.0624 58 48.9365Z" fill="#FFB52B"/>
<path fill-rule="evenodd" clip-rule="evenodd" d="M60 48.9365C60 61.6757 50.8232 72.4365 39 72.4365C27.1768 72.4365 18 61.6757 18 48.9365C18 36.1973 27.1768 25.4365 39 25.4365C50.8232 25.4365 60 36.1973 60 48.9365ZM39 70.4365C49.4934 70.4365 58 60.8106 58 48.9365C58 37.0624 49.4934 27.4365 39 27.4365C28.5066 27.4365 20 37.0624 20 48.9365C20 60.8106 28.5066 70.4365 39 70.4365Z" fill="#D16304"/>
<path fill-rule="evenodd" clip-rule="evenodd" d="M39 70.4365C49.4934 70.4365 58 60.8106 58 48.9365C58 37.0624 49.4934 27.4365 39 27.4365C28.5066 27.4365 20 37.0624 20 48.9365C20 60.8106 28.5066 70.4365 39 70.4365ZM39 69C48.9411 69 57 60.0457 57 49C57 37.9543 48.9411 29 39 29C29.0589 29 21 37.9543 21 49C21 60.0457 29.0589 69 39 69Z" fill="#EA9E10"/>
<path d="M56.2194 55.5254C55.9737 56.2726 55.1688 56.6791 54.4217 56.4334C53.6745 56.1876 53.268 55.3828 53.5137 54.6356C53.7594 53.8885 54.5643 53.482 55.3115 53.7277C56.0586 53.9734 56.4651 54.7783 56.2194 55.5254Z" fill="#DD9611"/>
<path d="M56.989 50.9062C56.8047 51.4666 56.201 51.7715 55.6406 51.5872C55.0803 51.4029 54.7754 50.7992 54.9597 50.2389C55.144 49.6785 55.7476 49.3736 56.308 49.5579C56.8684 49.7422 57.1732 50.3459 56.989 50.9062Z" fill="#DD9611"/>
<path d="M52.3209 61.7881C52.1366 62.3485 51.5329 62.6534 50.9726 62.4691C50.4122 62.2848 50.1073 61.6811 50.2916 61.1208C50.4759 60.5604 51.0796 60.2555 51.6399 60.4398C52.2003 60.6241 52.5052 61.2278 52.3209 61.7881Z" fill="#DD9611"/>
<path d="M49.7186 62.9C49.5761 63.3332 49.1095 63.5689 48.6763 63.4264C48.2431 63.2839 48.0074 62.8173 48.1498 62.3841C48.2923 61.9508 48.759 61.7152 49.1922 61.8576C49.6254 62.0001 49.8611 62.4668 49.7186 62.9Z" fill="#DD9611"/>
<path d="M49.2475 64.9211C49.1727 65.1485 48.9277 65.2723 48.7002 65.1975C48.4728 65.1227 48.349 64.8776 48.4238 64.6502C48.4986 64.4227 48.7437 64.299 48.9711 64.3738C49.1986 64.4486 49.3223 64.6936 49.2475 64.9211Z" fill="#DD9611"/>
<path d="M53.5596 58.2862C53.3139 59.0333 52.509 59.4398 51.7619 59.1941C51.0147 58.9484 50.6082 58.1435 50.8539 57.3964C51.0997 56.6492 51.9045 56.2427 52.6517 56.4884C53.3988 56.7341 53.8053 57.539 53.5596 58.2862Z" fill="#DD9611"/>
<path d="M48 48.4365C48 55.0639 43.9706 60.4365 39 60.4365C34.0294 60.4365 30 55.0639 30 48.4365C30 41.8091 34.0294 36.4365 39 36.4365C43.9706 36.4365 48 41.8091 48 48.4365Z" fill="#632913"/>
<path fill-rule="evenodd" clip-rule="evenodd" d="M46.964 58.1218C45.0511 60.6722 42.2559 62.4365 39 62.4365C35.7441 62.4365 32.9489 60.6722 31.036 58.1218C29.1237 55.572 28 52.1411 28 48.4365C28 44.7319 29.1237 41.3011 31.036 38.7512C32.9489 36.2008 35.7441 34.4365 39 34.4365C42.2559 34.4365 45.0511 36.2008 46.964 38.7512C48.8763 41.3011 50 44.7319 50 48.4365C50 52.1411 48.8763 55.572 46.964 58.1218ZM39 60.4365C43.9706 60.4365 48 55.0639 48 48.4365C48 41.8091 43.9706 36.4365 39 36.4365C34.0294 36.4365 30 41.8091 30 48.4365C30 55.0639 34.0294 60.4365 39 60.4365Z" fill="#311105"/>
<path d="M38.525 45.2634C37.9242 48.0521 36.0807 50.0204 34.4075 49.6599C32.7343 49.2994 31.865 46.7465 32.4659 43.9578C33.0668 41.1692 34.9103 39.2008 36.5835 39.5614C38.2566 39.9219 39.1259 42.4748 38.525 45.2634Z" fill="#8C4022"/>
<path d="M28.6744 38.9822C27.4026 41.5357 25.4078 43.1256 24.2188 42.5334C23.0299 41.9413 23.097 39.3912 24.3688 36.8378C25.6406 34.2843 27.6355 32.6944 28.8244 33.2866C30.0134 33.8788 29.9462 36.4288 28.6744 38.9822Z" fill="#FFDD9E"/>
<path fill-rule="evenodd" clip-rule="evenodd" d="M34 41.4365C34.5523 41.4365 35 41.8842 35 42.4365V44.4365C35 44.9888 34.5523 45.4365 34 45.4365C33.4477 45.4365 33 44.9888 33 44.4365V42.4365C33 41.8842 33.4477 41.4365 34 41.4365Z" fill="white"/>
</svg>
