<svg width="96" height="96" viewBox="0 0 96 96" fill="none" xmlns="http://www.w3.org/2000/svg">
<path fill-rule="evenodd" clip-rule="evenodd" d="M44.7295 15.3161C45.1073 15.719 45.0868 16.3518 44.6839 16.7295C43.4132 17.9209 41.4187 20.1787 39.6485 23.0167C37.8753 25.8596 36.3712 29.2142 35.9939 32.6104C35.9329 33.1593 35.4385 33.5549 34.8896 33.4939C34.3407 33.4329 33.9451 32.9385 34.0061 32.3896C34.4288 28.5858 36.0914 24.9405 37.9515 21.9583C39.8146 18.9713 41.9202 16.5791 43.3161 15.2705C43.719 14.8927 44.3518 14.9131 44.7295 15.3161Z" fill="#A88147"/>
<path d="M55 51C55 62.8741 46.4934 72.5 36 72.5C25.5066 72.5 17 62.8741 17 51C17 39.1259 25.5066 29.5 36 29.5C46.4934 29.5 55 39.1259 55 51Z" fill="#A02F49"/>
<path fill-rule="evenodd" clip-rule="evenodd" d="M57 51C57 63.7392 47.8232 74.5 36 74.5C24.1768 74.5 15 63.7392 15 51C15 38.2608 24.1768 27.5 36 27.5C47.8232 27.5 57 38.2608 57 51ZM36 72.5C46.4934 72.5 55 62.8741 55 51C55 39.1259 46.4934 29.5 36 29.5C25.5066 29.5 17 39.1259 17 51C17 62.8741 25.5066 72.5 36 72.5Z" fill="#6B182B"/>
<path fill-rule="evenodd" clip-rule="evenodd" d="M29 66.5C39.4934 66.5 48 56.8742 48 45C48 39.8018 46.3697 35.0344 43.6561 31.3169C50.3365 34.649 55 42.2083 55 51C55 62.8742 46.4934 72.5 36 72.5C30.1004 72.5 24.8288 69.4574 21.3439 64.6832C23.686 65.8514 26.276 66.5 29 66.5Z" fill="#91253D"/>
<path d="M53.2194 57.589C52.9737 58.3361 52.1688 58.7426 51.4216 58.4969C50.6745 58.2512 50.268 57.4463 50.5137 56.6992C50.7594 55.952 51.5643 55.5455 52.3115 55.7912C53.0586 56.0369 53.4651 56.8418 53.2194 57.589Z" fill="#DD9611"/>
<path d="M53.9889 52.9697C53.8047 53.5301 53.201 53.835 52.6406 53.6507C52.0803 53.4664 51.7754 52.8627 51.9597 52.3023C52.144 51.742 52.7476 51.4371 53.308 51.6214C53.8684 51.8057 54.1732 52.4094 53.9889 52.9697Z" fill="#DD9611"/>
<path d="M49.3208 63.8517C49.1366 64.412 48.5329 64.7169 47.9725 64.5326C47.4122 64.3483 47.1073 63.7447 47.2916 63.1843C47.4759 62.6239 48.0795 62.3191 48.6399 62.5034C49.2003 62.6877 49.5051 63.2913 49.3208 63.8517Z" fill="#DD9611"/>
<path d="M46.7186 64.9635C46.5761 65.3967 46.1094 65.6324 45.6762 65.4899C45.243 65.3475 45.0073 64.8808 45.1498 64.4476C45.2923 64.0144 45.759 63.7787 46.1922 63.9212C46.6254 64.0636 46.861 64.5303 46.7186 64.9635Z" fill="#DD9611"/>
<path d="M46.2475 66.9845C46.1727 67.2119 45.9276 67.3357 45.7002 67.2609C45.4727 67.1861 45.349 66.9411 45.4238 66.7136C45.4986 66.4861 45.7436 66.3624 45.9711 66.4372C46.1985 66.512 46.3223 66.757 46.2475 66.9845Z" fill="#DD9611"/>
<path d="M50.5596 68.3497C50.3139 69.0969 49.509 69.5034 48.7618 69.2576C48.0147 69.0119 47.6082 68.207 47.8539 67.4599C48.0996 66.7127 48.9045 66.3062 49.6517 66.552C50.3988 66.7977 50.8053 67.6026 50.5596 68.3497Z" fill="#DD9611"/>
<path d="M28.6197 43.2402C26.7476 46.9989 23.8112 49.3393 22.0611 48.4676C20.3109 47.5959 20.4098 43.8423 22.2819 40.0836C24.154 36.3249 27.0904 33.9845 28.8405 34.8562C30.5907 35.7279 30.4918 39.4815 28.6197 43.2402Z" fill="#C74462"/>
<path d="M77.3465 59.5643C77.3465 70.2443 68.6887 78.9021 58.0087 78.9021C47.3288 78.9021 38.671 70.2443 38.671 59.5643C38.671 48.8844 47.3288 40.2266 58.0087 40.2266C68.6887 40.2266 77.3465 48.8844 77.3465 59.5643Z" fill="#FADB5D"/>
<path fill-rule="evenodd" clip-rule="evenodd" d="M79.3465 59.5643C79.3465 71.3488 69.7932 80.9021 58.0087 80.9021C46.2242 80.9021 36.671 71.3488 36.671 59.5643C36.671 47.7798 46.2242 38.2266 58.0087 38.2266C69.7932 38.2266 79.3465 47.7798 79.3465 59.5643ZM58.0087 78.9021C68.6887 78.9021 77.3465 70.2443 77.3465 59.5643C77.3465 48.8844 68.6887 40.2266 58.0087 40.2266C47.3288 40.2266 38.671 48.8844 38.671 59.5643C38.671 70.2443 47.3288 78.9021 58.0087 78.9021Z" fill="#C74462"/>
<path fill-rule="evenodd" clip-rule="evenodd" d="M58.0087 78.9021C68.6887 78.9021 77.3465 70.2443 77.3465 59.5643C77.3465 48.8844 68.6887 40.2266 58.0087 40.2266C47.3288 40.2266 38.671 48.8844 38.671 59.5643C38.671 70.2443 47.3288 78.9021 58.0087 78.9021ZM58 74.5C66.2843 74.5 73 67.7843 73 59.5C73 51.2157 66.2843 44.5 58 44.5C49.7157 44.5 43 51.2157 43 59.5C43 67.7843 49.7157 74.5 58 74.5Z" fill="#EAC73B"/>
<path fill-rule="evenodd" clip-rule="evenodd" d="M58.0087 78.9021C68.6887 78.9021 77.3465 70.2443 77.3465 59.5643C77.3465 48.8844 68.6887 40.2266 58.0087 40.2266C47.3288 40.2266 38.671 48.8844 38.671 59.5643C38.671 70.2443 47.3288 78.9021 58.0087 78.9021ZM58.0087 76.4848C67.3537 76.4848 74.9293 68.9092 74.9293 59.5643C74.9293 50.2193 67.3537 42.6438 58.0087 42.6438C48.6638 42.6438 41.0882 50.2193 41.0882 59.5643C41.0882 68.9092 48.6638 76.4848 58.0087 76.4848Z" fill="#FFF7C4"/>
<path d="M66 58.9643C66 62.2188 61.2188 67 57.9643 67C54.7098 67 51 63.2902 51 60.0357C51 56.7812 53.6383 52 56.8929 52C60.1474 52 66 55.7098 66 58.9643Z" fill="#F49A46"/>
<path d="M60.1095 56.0894C61.5169 57.1053 62.092 60.6654 61.0761 62.0728C60.0601 63.4802 57.2979 63.9264 55.8905 62.9105C54.4831 61.8946 53.2391 59.2612 54.255 57.8538C55.2709 56.4464 58.7021 55.0735 60.1095 56.0894Z" fill="#D77923"/>
<path d="M56.3867 59.9128C56.5674 58.9356 58.2685 57.7656 59.2457 57.9463C60.2229 58.127 61.1307 59.4469 60.95 60.424C60.7693 61.4012 59.7116 62.6903 58.7344 62.5096C57.7573 62.3288 56.206 60.89 56.3867 59.9128Z" fill="#9E5C1F"/>
<path d="M49.553 67.5665C49.1317 68.1938 48.2815 68.3608 47.6542 67.9394C47.0269 67.5181 46.8599 66.668 47.2813 66.0407C47.7026 65.4133 48.5528 65.2464 49.1801 65.6677C49.8074 66.0891 49.9744 66.9392 49.553 67.5665Z" fill="#2DB68E"/>
<path fill-rule="evenodd" clip-rule="evenodd" d="M50.3831 68.1241C49.6539 69.2099 48.1824 69.4989 47.0966 68.7696C46.0109 68.0403 45.7219 66.5689 46.4512 65.4831C47.1805 64.3973 48.6519 64.1083 49.7377 64.8376C50.8234 65.5669 51.1124 67.0383 50.3831 68.1241ZM47.6542 67.9395C48.2815 68.3608 49.1317 68.1938 49.553 67.5665C49.9744 66.9392 49.8074 66.0891 49.1801 65.6677C48.5528 65.2464 47.7026 65.4133 47.2813 66.0407C46.8599 66.668 47.0269 67.5181 47.6542 67.9395Z" fill="white"/>
<path d="M51.6865 62.4778C51.2152 63.1796 50.2641 63.3663 49.5624 62.895C48.8606 62.4236 48.6738 61.4726 49.1452 60.7708C49.6165 60.069 50.5676 59.8822 51.2693 60.3536C51.9711 60.825 52.1579 61.776 51.6865 62.4778Z" fill="#2DB68E"/>
<path fill-rule="evenodd" clip-rule="evenodd" d="M52.5167 63.0354C51.7374 64.1956 50.165 64.5044 49.0048 63.7251C47.8445 62.9458 47.5357 61.3735 48.315 60.2132C49.0944 59.053 50.6667 58.7442 51.8269 59.5235C52.9872 60.3028 53.296 61.8751 52.5167 63.0354ZM49.5624 62.895C50.2641 63.3663 51.2152 63.1796 51.6865 62.4778C52.1579 61.776 51.9711 60.825 51.2693 60.3536C50.5676 59.8822 49.6165 60.069 49.1452 60.7708C48.6738 61.4726 48.8606 62.4236 49.5624 62.895Z" fill="white"/>
<path d="M56.3452 68.4341C55.8807 69.1257 54.9436 69.3097 54.252 68.8452C53.5605 68.3808 53.3765 67.4436 53.8409 66.7521C54.3054 66.0606 55.2425 65.8765 55.9341 66.341C56.6256 66.8055 56.8096 67.7426 56.3452 68.4341Z" fill="#2DB68E"/>
<path fill-rule="evenodd" clip-rule="evenodd" d="M57.1753 68.9917C56.4029 70.1417 54.8444 70.4478 53.6945 69.6754C52.5445 68.903 52.2384 67.3445 53.0108 66.1945C53.7832 65.0446 55.3416 64.7385 56.4916 65.5109C57.6416 66.2833 57.9477 67.8417 57.1753 68.9917ZM54.252 68.8452C54.9436 69.3097 55.8807 69.1257 56.3452 68.4341C56.8096 67.7426 56.6256 66.8055 55.9341 66.341C55.2425 65.8765 54.3054 66.0606 53.8409 66.7521C53.3765 67.4436 53.5605 68.3808 54.252 68.8452Z" fill="white"/>
<path d="M60.2178 71.8972C59.8141 72.4982 58.9997 72.6582 58.3986 72.2545C57.7976 71.8508 57.6376 71.0363 58.0413 70.4353C58.445 69.8343 59.2595 69.6743 59.8605 70.078C60.4615 70.4817 60.6215 71.2962 60.2178 71.8972Z" fill="#2DB68E"/>
<path fill-rule="evenodd" clip-rule="evenodd" d="M61.0479 72.4548C60.3363 73.5142 58.9005 73.7962 57.8411 73.0846C56.7816 72.373 56.4996 70.9372 57.2112 69.8777C57.9228 68.8182 59.3586 68.5362 60.4181 69.2479C61.4776 69.9595 61.7596 71.3953 61.0479 72.4548ZM58.3986 72.2545C58.9997 72.6582 59.8141 72.4982 60.2178 71.8972C60.6215 71.2962 60.4615 70.4817 59.8605 70.078C59.2595 69.6743 58.445 69.8343 58.0413 70.4353C57.6376 71.0363 57.7976 71.8508 58.3986 72.2545Z" fill="white"/>
<path d="M66.3714 64.9216C65.988 65.4923 65.2146 65.6442 64.6439 65.2609C64.0732 64.8775 63.9213 64.1041 64.3046 63.5334C64.688 62.9627 65.4614 62.8108 66.0321 63.1941C66.6028 63.5774 66.7547 64.3509 66.3714 64.9216Z" fill="#2DB68E"/>
<path fill-rule="evenodd" clip-rule="evenodd" d="M67.2015 65.4792C66.5102 66.5083 65.1155 66.7823 64.0863 66.091C63.0571 65.3997 62.7832 64.005 63.4745 62.9758C64.1658 61.9466 65.5605 61.6727 66.5897 62.364C67.6189 63.0553 67.8928 64.45 67.2015 65.4792ZM64.6439 65.2609C65.2146 65.6442 65.988 65.4923 66.3714 64.9216C66.7547 64.3509 66.6028 63.5774 66.0321 63.1941C65.4614 62.8108 64.688 62.9627 64.3046 63.5334C63.9213 64.1041 64.0732 64.8775 64.6439 65.2609Z" fill="white"/>
<path d="M72.3811 59.4214C71.9116 60.1204 70.9645 60.3064 70.2656 59.8369C69.5666 59.3675 69.3806 58.4204 69.8501 57.7214C70.3195 57.0225 71.2667 56.8365 71.9656 57.3059C72.6645 57.7754 72.8505 58.7225 72.3811 59.4214Z" fill="#2DB68E"/>
<path fill-rule="evenodd" clip-rule="evenodd" d="M73.2112 59.979C72.4338 61.1364 70.8654 61.4445 69.708 60.6671C68.5506 59.8897 68.2426 58.3213 69.0199 57.1639C69.7973 56.0065 71.3658 55.6984 72.5232 56.4758C73.6805 57.2532 73.9886 58.8216 73.2112 59.979ZM70.2656 59.837C70.9645 60.3064 71.9116 60.1204 72.3811 59.4215C72.8505 58.7225 72.6645 57.7754 71.9656 57.3059C71.2667 56.8365 70.3195 57.0225 69.8501 57.7214C69.3806 58.4204 69.5666 59.3675 70.2656 59.837Z" fill="white"/>
<path d="M64.3811 53.4214C63.9117 54.1203 62.9645 54.3063 62.2656 53.8369C61.5667 53.3674 61.3806 52.4203 61.8501 51.7213C62.3195 51.0224 63.2667 50.8364 63.9656 51.3058C64.6645 51.7753 64.8506 52.7224 64.3811 53.4214Z" fill="#2DB68E"/>
<path fill-rule="evenodd" clip-rule="evenodd" d="M65.2112 53.9789C64.4339 55.1363 62.8654 55.4444 61.708 54.667C60.5506 53.8896 60.2426 52.3211 61.02 51.1638C61.7974 50.0064 63.3658 49.6983 64.5232 50.4757C65.6806 51.2531 65.9886 52.8215 65.2112 53.9789ZM62.2656 53.8369C62.9645 54.3063 63.9117 54.1203 64.3811 53.4214C64.8506 52.7224 64.6645 51.7753 63.9656 51.3058C63.2667 50.8364 62.3195 51.0224 61.8501 51.7213C61.3806 52.4203 61.5667 53.3674 62.2656 53.8369Z" fill="white"/>
<path d="M60.2178 47.8973C59.8141 48.4983 58.9996 48.6583 58.3986 48.2546C57.7976 47.8509 57.6376 47.0364 58.0413 46.4354C58.445 45.8344 59.2595 45.6744 59.8605 46.0781C60.4615 46.4818 60.6215 47.2963 60.2178 47.8973Z" fill="#2DB68E"/>
<path fill-rule="evenodd" clip-rule="evenodd" d="M61.0479 48.4549C60.3363 49.5144 58.9005 49.7963 57.841 49.0847C56.7815 48.3731 56.4996 46.9373 57.2112 45.8778C57.9228 44.8184 59.3586 44.5364 60.4181 45.248C61.4775 45.9596 61.7595 47.3954 61.0479 48.4549ZM58.3986 48.2546C58.9996 48.6583 59.8141 48.4983 60.2178 47.8973C60.6215 47.2963 60.4615 46.4818 59.8605 46.0781C59.2595 45.6744 58.445 45.8344 58.0413 46.4354C57.6376 47.0364 57.7976 47.8509 58.3986 48.2546Z" fill="white"/>
<path d="M55.2178 51.8972C54.8141 52.4982 53.9997 52.6582 53.3986 52.2545C52.7976 51.8508 52.6376 51.0363 53.0413 50.4353C53.445 49.8343 54.2595 49.6743 54.8605 50.078C55.4615 50.4817 55.6215 51.2962 55.2178 51.8972Z" fill="#2DB68E"/>
<path fill-rule="evenodd" clip-rule="evenodd" d="M56.0479 52.4548C55.3363 53.5142 53.9005 53.7962 52.8411 53.0846C51.7816 52.373 51.4996 50.9372 52.2112 49.8777C52.9228 48.8182 54.3586 48.5362 55.4181 49.2479C56.4776 49.9595 56.7596 51.3953 56.0479 52.4548ZM53.3986 52.2545C53.9997 52.6582 54.8141 52.4982 55.2178 51.8972C55.6215 51.2962 55.4615 50.4817 54.8605 50.078C54.2595 49.6743 53.445 49.8343 53.0413 50.4353C52.6376 51.0363 52.7976 51.8508 53.3986 52.2545Z" fill="white"/>
<path d="M48.7119 52.6504C48.2847 53.2865 47.4228 53.4558 46.7867 53.0286C46.1507 52.6013 45.9814 51.7394 46.4086 51.1033C46.8358 50.4673 47.6977 50.298 48.3338 50.7252C48.9699 51.1524 49.1391 52.0144 48.7119 52.6504Z" fill="#2DB68E"/>
<path fill-rule="evenodd" clip-rule="evenodd" d="M49.5421 53.208C48.8069 54.3025 47.3236 54.5938 46.2291 53.8587C45.1346 53.1235 44.8433 51.6403 45.5785 50.5458C46.3136 49.4512 47.7969 49.1599 48.8914 49.8951C49.9859 50.6302 50.2772 52.1135 49.5421 53.208ZM46.7867 53.0286C47.4228 53.4558 48.2847 53.2865 48.7119 52.6504C49.1391 52.0144 48.9699 51.1524 48.3338 50.7252C47.6977 50.298 46.8358 50.4673 46.4086 51.1033C45.9814 51.7394 46.1507 52.6013 46.7867 53.0286Z" fill="white"/>
<path d="M47.7119 59.6505C47.2847 60.2865 46.4228 60.4558 45.7868 60.0286C45.1508 59.6014 44.9815 58.7394 45.4087 58.1034C45.8359 57.4674 46.6978 57.2981 47.3338 57.7253C47.9698 58.1525 48.1391 59.0144 47.7119 59.6505Z" fill="#2DB68E"/>
<path fill-rule="evenodd" clip-rule="evenodd" d="M48.5421 60.2079C47.8069 61.3024 46.3237 61.5937 45.2292 60.8586C44.1347 60.1234 43.8434 58.6402 44.5785 57.5457C45.3137 56.4512 46.7969 56.1599 47.8914 56.8951C48.9859 57.6302 49.2772 59.1134 48.5421 60.2079ZM45.7868 60.0284C46.4228 60.4556 47.2847 60.2864 47.7119 59.6503C48.1391 59.0143 47.9698 58.1524 47.3338 57.7252C46.6978 57.298 45.8359 57.4673 45.4087 58.1033C44.9815 58.7393 45.1508 59.6012 45.7868 60.0284Z" fill="white"/>
<path d="M69.6628 68.002C69.3637 68.4474 68.7602 68.5659 68.3149 68.2668C67.8695 67.9677 67.751 67.3642 68.0501 66.9189C68.3492 66.4736 68.9527 66.355 69.398 66.6541C69.8433 66.9532 69.9619 67.5567 69.6628 68.002Z" fill="#2B9375"/>
<path fill-rule="evenodd" clip-rule="evenodd" d="M70.4929 68.5596C69.8858 69.4634 68.6611 69.704 67.7573 69.0969C66.8535 68.4899 66.6129 67.2651 67.22 66.3613C67.827 65.4575 69.0518 65.217 69.9556 65.824C70.8594 66.4311 71.0999 67.6558 70.4929 68.5596ZM68.3149 68.2668C68.7602 68.5659 69.3637 68.4474 69.6628 68.002C69.9619 67.5567 69.8433 66.9532 69.398 66.6541C68.9527 66.355 68.3492 66.4736 68.0501 66.9189C67.751 67.3642 67.8695 67.9677 68.3149 68.2668Z" fill="#F99D31"/>
<path d="M46.4358 65.143C45.962 65.8485 45.006 66.0362 44.3005 65.5624C43.595 65.0885 43.4072 64.1325 43.8811 63.427C44.3549 62.7216 45.311 62.5338 46.0164 63.0076C46.7219 63.4815 46.9097 64.4375 46.4358 65.143Z" fill="#2B9375"/>
<path fill-rule="evenodd" clip-rule="evenodd" d="M47.266 65.7004C46.4842 66.8644 44.9069 67.1742 43.7429 66.3924C42.579 65.6106 42.2692 64.0333 43.051 62.8693C43.8328 61.7054 45.4101 61.3956 46.574 62.1774C47.738 62.9592 48.0478 64.5365 47.266 65.7004ZM44.3005 65.5623C45.006 66.0361 45.962 65.8483 46.4358 65.1429C46.9097 64.4374 46.7219 63.4814 46.0164 63.0075C45.311 62.5337 44.3549 62.7214 43.8811 63.4269C43.4072 64.1324 43.595 65.0884 44.3005 65.5623Z" fill="#F99D31"/>
<path d="M50.302 58.6994C49.8281 59.4049 48.8721 59.5926 48.1666 59.1188C47.4611 58.6449 47.2734 57.6889 47.7472 56.9834C48.2211 56.278 49.1771 56.0902 49.8826 56.564C50.588 57.0379 50.7758 57.9939 50.302 58.6994Z" fill="#2B9375"/>
<path fill-rule="evenodd" clip-rule="evenodd" d="M51.1321 59.257C50.3503 60.4209 48.773 60.7307 47.609 59.9489C46.4451 59.1671 46.1353 57.5898 46.9171 56.4259C47.6989 55.2619 49.2762 54.9521 50.4401 55.7339C51.6041 56.5157 51.9139 58.093 51.1321 59.257ZM48.1666 59.1188C48.8721 59.5926 49.8281 59.4049 50.302 58.6994C50.7758 57.9939 50.588 57.0379 49.8826 56.564C49.1771 56.0902 48.2211 56.278 47.7472 56.9834C47.2734 57.6889 47.4611 58.6449 48.1666 59.1188Z" fill="#F99D31"/>
<path d="M51.5907 49.6784C51.1168 50.3839 50.1608 50.5716 49.4553 50.0978C48.7499 49.6239 48.5621 48.6679 49.0359 47.9624C49.5098 47.257 50.4658 47.0692 51.1713 47.543C51.8768 48.0169 52.0645 48.9729 51.5907 49.6784Z" fill="#2B9375"/>
<path fill-rule="evenodd" clip-rule="evenodd" d="M52.4208 50.236C51.639 51.3999 50.0617 51.7097 48.8978 50.9279C47.7338 50.1461 47.424 48.5688 48.2058 47.4049C48.9876 46.2409 50.5649 45.9311 51.7289 46.7129C52.8928 47.4947 53.2026 49.072 52.4208 50.236ZM49.4553 50.0978C50.1608 50.5716 51.1168 50.3839 51.5907 49.6784C52.0645 48.9729 51.8768 48.0169 51.1713 47.543C50.4658 47.0692 49.5098 47.257 49.0359 47.9624C48.5621 48.6679 48.7499 49.6239 49.4553 50.0978Z" fill="#F99D31"/>
<path d="M60.6117 50.9671C60.1378 51.6726 59.1818 51.8603 58.4763 51.3865C57.7708 50.9126 57.5831 49.9566 58.0569 49.2511C58.5308 48.5457 59.4868 48.3579 60.1923 48.8317C60.8977 49.3056 61.0855 50.2616 60.6117 50.9671Z" fill="#2B9375"/>
<path fill-rule="evenodd" clip-rule="evenodd" d="M61.4418 51.5247C60.66 52.6886 59.0827 52.9984 57.9187 52.2166C56.7548 51.4348 56.445 49.8575 57.2268 48.6936C58.0086 47.5296 59.5859 47.2198 60.7498 48.0016C61.9138 48.7834 62.2236 50.3607 61.4418 51.5247ZM58.4763 51.3865C59.1818 51.8603 60.1378 51.6726 60.6117 50.9671C61.0855 50.2616 60.8977 49.3056 60.1923 48.8317C59.4868 48.3579 58.5308 48.5457 58.0569 49.2511C57.5831 49.9566 57.7708 50.9126 58.4763 51.3865Z" fill="#F99D31"/>
<path d="M68.4127 50.4933C67.9389 51.1988 66.9828 51.3866 66.2774 50.9127C65.5719 50.4389 65.3841 49.4828 65.858 48.7774C66.3318 48.0719 67.2878 47.8841 67.9933 48.358C68.6988 48.8318 68.8866 49.7879 68.4127 50.4933Z" fill="#2B9375"/>
<path fill-rule="evenodd" clip-rule="evenodd" d="M69.2428 51.0509C68.461 52.2149 66.8837 52.5246 65.7198 51.7429C64.5558 50.9611 64.246 49.3837 65.0278 48.2198C65.8096 47.0559 67.387 46.7461 68.5509 47.5279C69.7148 48.3096 70.0246 49.887 69.2428 51.0509ZM66.2774 50.9127C66.9828 51.3866 67.9389 51.1988 68.4127 50.4933C68.8866 49.7879 68.6988 48.8318 67.9933 48.358C67.2878 47.8841 66.3318 48.0719 65.858 48.7774C65.3841 49.4829 65.5719 50.4389 66.2774 50.9127Z" fill="#F99D31"/>
<path d="M69.4127 61.4933C68.9389 62.1988 67.9829 62.3866 67.2774 61.9127C66.5719 61.4389 66.3841 60.4828 66.858 59.7774C67.3318 59.0719 68.2879 58.8841 68.9933 59.358C69.6988 59.8318 69.8866 60.7879 69.4127 61.4933Z" fill="#2B9375"/>
<path fill-rule="evenodd" clip-rule="evenodd" d="M70.2429 62.0509C69.4611 63.2149 67.8838 63.5246 66.7198 62.7429C65.5559 61.9611 65.2461 60.3837 66.0279 59.2198C66.8097 58.0559 68.387 57.7461 69.5509 58.5279C70.7149 59.3096 71.0247 60.887 70.2429 62.0509ZM67.2774 61.9127C67.9829 62.3866 68.9389 62.1988 69.4127 61.4933C69.8866 60.7879 69.6988 59.8318 68.9933 59.358C68.2879 58.8841 67.3318 59.0719 66.858 59.7774C66.3841 60.4829 66.5719 61.4389 67.2774 61.9127Z" fill="#F99D31"/>
<path d="M64.4127 72.4933C63.9388 73.1988 62.9828 73.3866 62.2773 72.9127C61.5719 72.4389 61.3841 71.4828 61.8579 70.7774C62.3318 70.0719 63.2878 69.8841 63.9933 70.358C64.6988 70.8318 64.8865 71.7879 64.4127 72.4933Z" fill="#2B9375"/>
<path fill-rule="evenodd" clip-rule="evenodd" d="M65.2428 73.0509C64.461 74.2149 62.8837 74.5246 61.7198 73.7429C60.5558 72.9611 60.246 71.3837 61.0278 70.2198C61.8096 69.0559 63.3869 68.7461 64.5509 69.5279C65.7148 70.3096 66.0246 71.887 65.2428 73.0509ZM62.2773 72.9127C62.9828 73.3866 63.9388 73.1988 64.4127 72.4933C64.8865 71.7879 64.6988 70.8318 63.9933 70.358C63.2878 69.8841 62.3318 70.0719 61.8579 70.7774C61.3841 71.4829 61.5719 72.4389 62.2773 72.9127Z" fill="#F99D31"/>
<path d="M54.4127 72.4933C53.9389 73.1988 52.9829 73.3866 52.2774 72.9127C51.5719 72.4389 51.3841 71.4828 51.858 70.7774C52.3318 70.0719 53.2879 69.8841 53.9933 70.358C54.6988 70.8318 54.8866 71.7879 54.4127 72.4933Z" fill="#2B9375"/>
<path fill-rule="evenodd" clip-rule="evenodd" d="M55.2429 73.0509C54.4611 74.2149 52.8838 74.5246 51.7198 73.7429C50.5559 72.9611 50.2461 71.3837 51.0279 70.2198C51.8097 69.0559 53.387 68.7461 54.5509 69.5279C55.7149 70.3096 56.0247 71.887 55.2429 73.0509ZM52.2774 72.9127C52.9829 73.3866 53.9389 73.1988 54.4127 72.4933C54.8866 71.7879 54.6988 70.8318 53.9933 70.358C53.2879 69.8841 52.3318 70.0719 51.858 70.7774C51.3841 71.4829 51.5719 72.4389 52.2774 72.9127Z" fill="#F99D31"/>
<path d="M69.5596 55.745C69.2042 56.2741 68.4872 56.4149 67.958 56.0595C67.4289 55.7042 67.2881 54.9871 67.6435 54.458C67.9989 53.9289 68.7159 53.7881 69.245 54.1435C69.7741 54.4989 69.9149 55.2159 69.5596 55.745Z" fill="#2B9375"/>
<path fill-rule="evenodd" clip-rule="evenodd" d="M70.3897 56.3026C69.7264 57.2902 68.388 57.553 67.4005 56.8897C66.4129 56.2264 66.15 54.888 66.8134 53.9005C67.4767 52.9129 68.815 52.65 69.8026 53.3134C70.7902 53.9767 71.053 55.315 70.3897 56.3026ZM67.958 56.0596C68.4872 56.4149 69.2042 56.2741 69.5596 55.745C69.9149 55.2159 69.7741 54.4989 69.245 54.1435C68.7159 53.7881 67.9989 53.9289 67.6435 54.458C67.2881 54.9871 67.4289 55.7042 67.958 56.0596Z" fill="#F99D31"/>
</svg>
