<svg width="96" height="96" viewBox="0 0 96 96" fill="none" xmlns="http://www.w3.org/2000/svg">
<path d="M40.2331 62.1434C38.0272 68.9793 31.0501 71.0744 27.7403 71.5678C26.5693 73.9143 28.6343 76.8509 29.7775 76.6937C30.6921 76.568 34.1169 73.9499 35.715 72.6566C43.7085 67.5316 41.8599 68.0745 48.0001 67.0001C54.1403 65.9257 58.0781 64.9597 60.0001 61.5001C62.5001 57.0001 63.5974 58.7754 68.3272 55.2494C73.0569 51.7234 71.0252 47.5479 70.5643 46.001C70.1035 44.4541 70.2492 41.0263 72.4989 38.8766C74.2986 37.1568 73.3084 32.964 72.9028 31.7929C71.9075 25.0284 66.2884 25.4348 64.3071 27.9497C61.8811 31.0291 60.7183 32.3791 58.4984 33.2915C56.0649 34.2918 53.9151 35.088 53.347 38.2027C52.6369 42.0961 53.1684 43.5559 50.0983 44.0931C47.6423 44.5228 46.9019 49.0176 46.8496 49.9834C46.1763 55.712 45.4178 53.9489 42.5136 55.6135C40.1902 56.9452 40.8932 60.0979 40.2331 62.1434Z" fill="#6FAB06"/>
<path fill-rule="evenodd" clip-rule="evenodd" d="M25.9509 70.6747C26.2423 70.0909 26.8001 69.6859 27.4455 69.5897C30.5972 69.1198 36.4974 67.2079 38.3299 61.5292C38.426 61.2314 38.4903 60.8303 38.5522 60.2392C38.5651 60.1161 38.5781 59.9804 38.5921 59.8359C38.6371 59.3682 38.691 58.809 38.7757 58.2892C39.0051 56.8814 39.5644 54.9987 41.5191 53.8783C42.4243 53.3595 43.1703 53.1073 43.7069 52.934C44.0631 52.8189 44.2137 52.7647 44.2746 52.7417C44.3004 52.6904 44.3407 52.5971 44.39 52.4415C44.5387 51.9723 44.6936 51.1809 44.8571 49.8034C44.9053 49.1008 45.1436 47.5832 45.7056 46.1201C45.9992 45.3557 46.4198 44.5028 47.0279 43.7758C47.6442 43.0389 48.5386 42.3356 49.7537 42.123C50.3895 42.0117 50.6073 41.8879 50.6597 41.8514C50.6662 41.8469 50.6698 41.8439 50.6714 41.8426C50.6715 41.8425 50.6715 41.8424 50.6716 41.8423C50.6734 41.8399 50.6968 41.8076 50.7318 41.7129C50.8175 41.4813 50.8911 41.1186 50.9914 40.4099C51.0105 40.2745 51.0304 40.1289 51.0516 39.9738C51.1322 39.383 51.2314 38.656 51.3796 37.8438C51.7516 35.8043 52.6929 34.3936 53.9916 33.3785C55.0802 32.5275 56.3969 31.9897 57.4779 31.5482C57.5664 31.5121 57.6532 31.4766 57.7382 31.4417C59.4067 30.7559 60.2767 29.8339 62.7362 26.712C64.2065 24.8458 66.9015 23.8326 69.4448 24.4475C72.169 25.1061 74.2343 27.46 74.854 31.3226C75.1049 32.1059 75.4471 33.522 75.5252 35.0251C75.6029 36.5195 75.462 38.8115 73.8807 40.3225C73.1281 41.0417 72.6802 42.0232 72.4775 43.0516C72.2694 44.1071 72.3581 45.0167 72.4812 45.4299C72.5035 45.5047 72.5407 45.612 72.5876 45.7475C72.8504 46.5057 73.4192 48.1464 73.3921 49.9136C73.3569 52.2157 72.3825 54.7208 69.5226 56.8528C67.4393 58.406 65.8971 59.0703 64.8462 59.523C64.599 59.6295 64.379 59.7242 64.1855 59.8161C63.7244 60.0351 63.4148 60.2294 63.0958 60.5443C62.7516 60.884 62.3216 61.4398 61.7485 62.4714C60.5077 64.7049 58.6231 66.0691 56.3339 66.9978C54.1164 67.8975 51.3943 68.4366 48.3449 68.9702C48.0374 69.024 47.7527 69.0735 47.4886 69.1194C44.9805 69.5556 44.3204 69.6704 43.4327 70.1054C42.9082 70.3623 42.2962 70.7415 41.2404 71.4341C40.9762 71.6074 40.687 71.7983 40.3693 72.0082C39.4681 72.6034 38.3364 73.3508 36.8869 74.2811C36.0638 74.9445 34.8208 75.91 33.6488 76.7431C33.0446 77.1726 32.4318 77.5865 31.8916 77.909C31.6225 78.0697 31.3443 78.2239 31.0767 78.349C30.8481 78.4559 30.4722 78.617 30.0501 78.675C28.9032 78.8328 27.9877 78.2189 27.5061 77.8035C26.9433 77.3181 26.4634 76.6739 26.1087 75.9766C25.4152 74.6137 24.9915 72.5972 25.9509 70.6747ZM35.7151 72.6566C40.373 69.6702 41.689 68.6083 43.1912 68.0296C44.2668 67.6151 45.438 67.4484 48.0002 67.0001C54.1404 65.9257 58.0782 64.9597 60.0002 61.5001C61.508 58.7861 62.5056 58.3547 64.0975 57.6662C65.1451 57.2131 66.4501 56.6488 68.3273 55.2494C72.6121 52.0551 71.3477 48.3277 70.7292 46.5045C70.665 46.3152 70.6078 46.1465 70.5644 46.001C70.1036 44.454 70.2493 41.0262 72.499 38.8765C74.2987 37.1568 73.3085 32.964 72.9029 31.7928C71.9076 25.0284 66.2885 25.4348 64.3072 27.9497C61.8812 31.0291 60.7184 32.3791 58.4985 33.2915C58.4286 33.3202 58.359 33.3488 58.2896 33.3772C55.9428 34.3394 53.8989 35.1774 53.3471 38.2027C53.2079 38.9661 53.1164 39.636 53.0361 40.2236C52.707 42.6331 52.5665 43.6612 50.0984 44.093C47.6424 44.5228 46.902 49.0176 46.8497 49.9833C46.3561 54.1829 45.8167 54.3563 44.4198 54.8055C43.9112 54.9691 43.2889 55.1692 42.5137 55.6135C40.9213 56.5262 40.7505 58.2943 40.5882 59.975C40.5137 60.7466 40.4409 61.4998 40.2332 62.1434C38.0273 68.9793 31.0502 71.0743 27.7404 71.5678C26.5694 73.9143 28.6344 76.8509 29.7776 76.6937C30.6922 76.5679 34.117 73.9499 35.7151 72.6566ZM44.2434 52.7948C44.2433 52.7944 44.246 52.79 44.252 52.7827C44.2465 52.7916 44.2435 52.7952 44.2434 52.7948Z" fill="#35700D"/>
<path d="M45.3515 71.3629C38.4156 73.2307 35.9807 80.0966 35.3254 83.3782C32.9243 84.4326 30.0925 82.226 30.3057 81.0919C30.4761 80.1846 33.2591 76.8924 34.6293 75.3597C40.1404 67.6273 38.2752 67.816 40.1006 61.8558C41.2815 58.0001 43.4377 52.8439 45.7966 51.002C48.9159 48.5663 48.6873 46.8833 53.6158 43.641C56.0627 42.0314 59.844 41.6251 62.9629 41.8604C64.5725 41.9819 67.5772 41.9927 70.1737 40.2778C72.2502 38.9064 74.7145 38.6355 77.2687 40.222C79.9065 41.8604 81.844 46.8751 80.6854 48.9959C78.8059 52.4363 76.3904 51.7133 75.065 54.5355C73.9465 56.917 73.6993 57.7261 70.8439 59.0939C68.4997 60.2169 66.3439 59.0939 63.8642 62.3954C62.3668 64.3891 59.3469 64.9387 57.8216 65.3512C53.6877 66.4689 53.8752 67.4064 51.9854 69.4057C50.1459 71.3519 47.427 70.804 45.3515 71.3629Z" fill="#81BE15"/>
<path fill-rule="evenodd" clip-rule="evenodd" d="M37.2866 83.7698C37.1588 84.4097 36.7269 84.947 36.1295 85.2094C34.1623 86.0733 32.169 85.5511 30.8418 84.7916C30.1628 84.4031 29.5428 83.8922 29.0856 83.3063C28.6943 82.8049 28.1262 81.8604 28.34 80.7226C28.4187 80.3038 28.5981 79.9363 28.7161 79.7132C28.8541 79.452 29.0218 79.1818 29.1955 78.9209C29.5441 78.3971 29.9876 77.8054 30.4462 77.223C31.3356 76.0936 32.3606 74.8998 33.0636 74.1103C35.7273 70.3637 36.4629 68.7261 36.8166 67.4203C36.9659 66.869 37.0518 66.3694 37.1661 65.7044C37.2011 65.501 37.2387 65.2821 37.2817 65.0415C37.4591 64.0471 37.7017 62.8588 38.1882 61.2701C38.8015 59.2676 39.6722 56.9114 40.7112 54.793C41.7141 52.748 43.0066 50.643 44.5657 49.4256C45.6667 48.5658 46.2393 47.8668 46.9695 46.9752C47.1343 46.774 47.3071 46.5631 47.4958 46.3382C48.5547 45.0765 49.8721 43.7098 52.5166 41.9702L53.6158 43.641C50.7231 45.544 49.607 46.9098 48.5478 48.2059C47.8023 49.1181 47.0851 49.9958 45.7966 51.0019C43.4377 52.8438 41.2814 58.0001 40.1006 61.8558C39.5445 63.6712 39.3309 64.9162 39.147 65.9883C38.727 68.4359 38.4617 69.9825 34.6292 75.3597C33.2591 76.8924 30.4761 80.1846 30.3056 81.0919C30.0925 82.226 32.9242 84.4326 35.3253 83.3782C35.9806 80.0966 38.4155 73.2307 45.3515 71.3629C45.9985 71.1887 46.7081 71.122 47.4341 71.0538C49.0368 70.9032 50.7194 70.7451 51.9854 69.4057C52.4127 68.9536 52.7338 68.5558 53.0226 68.198C54.0113 66.9732 54.6224 66.2162 57.8215 65.3512C57.9983 65.3033 58.1952 65.2537 58.4075 65.2002C60.0265 64.7919 62.5403 64.158 63.8641 62.3954C65.5099 60.2042 67.013 59.962 68.5232 59.7185C69.2884 59.5952 70.0555 59.4716 70.8439 59.0939C73.5409 57.8019 73.911 57.0084 74.8862 54.9176C74.9435 54.7948 75.0029 54.6676 75.0649 54.5355C75.7057 53.171 76.6014 52.6352 77.5681 52.0569C78.6008 51.4392 79.7146 50.7729 80.6853 48.9959C81.8439 46.8751 79.9064 41.8604 77.2686 40.222C74.7144 38.6355 72.2502 38.9063 70.1736 40.2778L69.0714 38.6089C71.7453 36.8429 75.0528 36.4913 78.3239 38.5231C80.1474 39.6557 81.509 41.7573 82.265 43.7041C82.6556 44.7101 82.9279 45.7814 83.0055 46.8101C83.0807 47.8066 82.987 48.9544 82.4405 49.9548C81.2467 52.1401 79.8099 53.045 78.6956 53.7129C77.6817 54.3206 77.2535 54.5802 76.8752 55.3857C76.8159 55.512 76.757 55.6388 76.6981 55.7659C76.2605 56.7093 75.8178 57.6635 75.1428 58.4744C74.3135 59.4706 73.2359 60.1657 71.7079 60.8976C70.8923 61.2883 70.121 61.4682 69.4724 61.5867C69.1784 61.6404 68.9464 61.6772 68.7414 61.7098C68.4293 61.7593 68.1797 61.799 67.8687 61.8731C67.1515 62.0442 66.4058 62.3417 65.4633 63.5965C64.3892 65.0267 62.8572 65.8355 61.5748 66.3316C60.5747 66.7184 59.5254 66.9822 58.821 67.1593C58.6355 67.2059 58.474 67.2466 58.3436 67.2818C56.4013 67.807 55.7574 68.2185 55.3863 68.5465C55.1711 68.7367 54.98 68.9583 54.6679 69.344C54.6388 69.3799 54.6088 69.4171 54.578 69.4554C54.29 69.8123 53.9225 70.2678 53.4389 70.7795C52.0735 72.224 50.4128 72.6776 49.0549 72.8822C48.5536 72.9577 48.0285 73.007 47.5803 73.049C47.4473 73.0615 47.3211 73.0733 47.2042 73.085C46.6439 73.1412 46.2226 73.1996 45.8715 73.2941C40.1098 74.8457 37.9106 80.645 37.2866 83.7698ZM70.1736 40.2778C67.5772 41.9926 64.5724 41.9819 62.9628 41.8604C59.8439 41.6251 56.0627 42.0313 53.6158 43.641L52.5166 41.9702C55.5134 39.9987 59.8331 39.6186 63.1133 39.8661C64.6079 39.9789 67.0478 39.9454 69.0714 38.6089L70.1736 40.2778Z" fill="#488B18"/>
<path fill-rule="evenodd" clip-rule="evenodd" d="M76.0471 45.3322C76.0591 45.6081 75.8451 45.8414 75.5693 45.8534C72.9981 45.9652 67.8306 47.6677 60.8863 52.5553C53.9594 57.4307 45.3047 65.4478 35.7618 78.1148C35.5956 78.3354 35.2822 78.3795 35.0616 78.2133C34.841 78.0472 34.7969 77.7337 34.9631 77.5131C44.5575 64.7777 53.2848 56.6827 60.3108 51.7375C67.3195 46.8046 72.6759 44.9783 75.5258 44.8544C75.8017 44.8424 76.0351 45.0563 76.0471 45.3322Z" fill="#9BDB28"/>
<path fill-rule="evenodd" clip-rule="evenodd" d="M58.7382 45.1568C58.9968 45.2538 59.1278 45.542 59.0308 45.8006C58.729 46.6053 58.3162 47.992 58.0719 49.5047C57.83 51.0022 57.7629 52.5666 58.0899 53.8033C58.6132 54.6544 60.5375 56.4849 64.1446 56.6254C64.4205 56.6361 64.6355 56.8685 64.6247 57.1445C64.614 57.4204 64.3816 57.6354 64.1057 57.6246C60.0886 57.4681 57.8422 55.3817 57.1916 54.2491C57.1708 54.2128 57.1546 54.1741 57.1434 54.1338C56.7396 52.6801 56.8306 50.9181 57.0847 49.3453C57.3403 47.7622 57.7712 46.3114 58.0945 45.4495C58.1914 45.1909 58.4796 45.0599 58.7382 45.1568Z" fill="#9BDB28"/>
<path fill-rule="evenodd" clip-rule="evenodd" d="M69.3798 42.9885C69.5933 43.1636 69.6244 43.4787 69.4492 43.6922C69.1409 44.0679 68.6701 44.7575 68.291 45.572C67.9186 46.3717 67.6568 47.2446 67.6842 48.0365C67.9765 48.8985 69.3836 50.8478 72.9145 51.1266C73.1898 51.1483 73.3953 51.3891 73.3736 51.6644C73.3518 51.9397 73.1111 52.1452 72.8358 52.1235C68.8441 51.8083 67.0845 49.5211 66.7088 48.2687C66.6974 48.2307 66.6905 48.1916 66.6884 48.152C66.6321 47.11 66.9706 46.0388 67.3844 45.1499C67.801 44.255 68.3178 43.4946 68.6761 43.0579C68.8513 42.8444 69.1663 42.8133 69.3798 42.9885Z" fill="#9BDB28"/>
<path fill-rule="evenodd" clip-rule="evenodd" d="M47.2859 53.1516C47.5474 53.2405 47.6873 53.5245 47.5984 53.786C47.2558 54.7936 46.8176 56.534 46.632 58.4422C46.4483 60.3307 46.5177 62.3278 47.1258 63.9342C47.1393 63.9413 47.1582 63.9502 47.1837 63.9604C47.3036 64.0082 47.5197 64.0621 47.8702 64.0872C48.5693 64.1374 49.7226 64.068 51.5244 63.6977C51.7949 63.6422 52.0592 63.8164 52.1148 64.0869C52.1704 64.3574 51.9961 64.6217 51.7257 64.6773C49.8774 65.0571 48.6245 65.1439 47.7986 65.0847C47.3866 65.0551 47.0605 64.9879 46.8132 64.8892C46.589 64.7998 46.3319 64.6449 46.2233 64.3732L46.2218 64.3697L46.2219 64.3697C45.5051 62.5381 45.444 60.3268 45.6367 58.3454C45.8303 56.3556 46.2859 54.5397 46.6516 53.4641C46.7405 53.2026 47.0245 53.0627 47.2859 53.1516ZM47.0963 63.9161C47.0963 63.9161 47.0974 63.9168 47.0992 63.9185C47.0971 63.917 47.0962 63.9161 47.0963 63.9161Z" fill="#9BDB28"/>
<path d="M36.9013 61.8601C36.1641 68.4971 29.6917 72.4483 26.5477 73.5943C25.8701 76.1277 28.481 78.5916 29.5697 78.2087C30.4405 77.9024 33.2721 74.6519 34.5789 73.0648C41.3849 66.4436 45.0541 67.0858 50.8549 64.8042C56.6558 62.5225 57.714 60.7008 57.6305 56.7441C57.5469 52.7874 56.4431 52.4508 60.3714 48.0495C64.2997 43.6482 62.4195 41.1688 61.6583 39.7454C60.8972 38.322 59.7554 36.187 61.5292 33.6305C62.9483 31.5853 62.0395 28.9415 61.4077 27.8752C59.0786 21.4468 53.5899 21.2029 52.2271 25.9099C51.1368 29.6755 49.6361 30.163 49.022 29.9361C48.0425 29.7169 46.1003 30.0697 46.1671 33.2351C46.2507 37.1919 45.6186 41.8835 42.7182 43.0243C40.3979 43.937 40.1019 46.0784 40.2439 47.035C40.7309 52.7826 39.6119 51.7266 37.0996 53.9389C35.0898 55.7086 36.13 59.9571 36.9013 61.8601Z" fill="#A5E238"/>
<path fill-rule="evenodd" clip-rule="evenodd" d="M26.5477 73.5943C29.6917 72.4483 36.1641 68.4971 36.9013 61.86C36.13 59.957 35.0898 55.7086 37.0996 53.9388C37.6748 53.4324 38.1769 53.0972 38.6034 52.8125C40.0401 51.8535 40.6194 51.4668 40.2439 47.035C40.1019 46.0784 40.3979 43.9369 42.7182 43.0243C45.6186 41.8834 46.2507 37.1919 46.1672 33.2351C46.1003 30.0697 48.0426 29.7168 49.022 29.9361C49.6361 30.163 51.1368 29.6755 52.2271 25.9099C53.59 21.2028 59.0786 21.4468 61.4077 27.8752C62.0395 28.9414 62.9483 31.5852 61.5292 33.6304C59.7554 36.1869 60.8972 38.322 61.6583 39.7454C61.7124 39.8465 61.7721 39.9529 61.835 40.065C62.6573 41.5307 64.0207 43.9608 60.3714 48.0495C57.2255 51.5742 57.3069 52.492 57.507 54.75C57.5567 55.3116 57.6139 55.956 57.6305 56.7441C57.714 60.7008 56.6558 62.5225 50.855 64.8041C49.309 65.4122 47.9144 65.8126 46.5715 66.1982C42.8756 67.2594 39.5711 68.2082 34.579 73.0648C33.2721 74.6518 30.4406 77.9024 29.5697 78.2087C28.4811 78.5915 25.8701 76.1277 26.5477 73.5943ZM36.0512 74.423C35.3776 75.2378 34.3535 76.4319 33.3724 77.4822C32.8664 78.024 32.3489 78.5522 31.8841 78.9763C31.6526 79.1875 31.4109 79.3943 31.1738 79.5705C30.9712 79.721 30.6351 79.9541 30.2332 80.0954C29.1411 80.4795 28.1212 80.0614 27.5662 79.7508C26.9177 79.3878 26.3186 78.8526 25.8314 78.2405C24.8792 77.0439 24.0605 75.1531 24.6156 73.0775C24.7842 72.4472 25.2498 71.9387 25.8628 71.7152C27.2096 71.2243 29.3759 70.0828 31.2633 68.3234C33.0353 66.6716 34.4452 64.5888 34.8512 62.095C34.4617 61.008 34.0677 59.5101 33.9623 57.9875C33.8467 56.3161 34.0389 53.9692 35.7779 52.4378C36.4573 51.8396 37.0609 51.4371 37.4893 51.1515C37.5298 51.1245 37.5687 51.0985 37.606 51.0736C38.0801 50.7559 38.15 50.6761 38.1804 50.6345C38.185 50.6281 38.2033 50.6038 38.2282 50.529C38.2563 50.4448 38.2946 50.2908 38.3216 50.0249C38.3773 49.4775 38.3703 48.6293 38.2554 47.2546C38.0561 45.7089 38.5554 42.5125 41.9861 41.1631C42.5582 40.9381 43.1855 40.2439 43.6367 38.6431C44.0703 37.1044 44.2075 35.1653 44.1676 33.2773C44.1256 31.2876 44.7223 29.6907 45.9908 28.725C47.0366 27.9288 48.2296 27.8044 49.1143 27.9231C49.3677 27.6511 49.8456 26.9437 50.306 25.3536C51.2075 22.2402 53.7322 20.2841 56.7529 20.7391C59.5318 21.1576 61.9059 23.5091 63.2271 27.0285C63.6397 27.7769 64.0689 28.8891 64.2227 30.1422C64.3907 31.5119 64.2453 33.2243 63.1724 34.7706C62.5878 35.6132 62.5363 36.2657 62.6198 36.8083C62.7194 37.4548 63.025 38.0599 63.422 38.8023C63.4556 38.8652 63.4998 38.9422 63.5515 39.0326C63.921 39.6781 64.6786 41.0015 64.7704 42.6708C64.8822 44.7029 64.0605 46.9197 61.8635 49.3812C59.9102 51.5698 59.5606 52.3899 59.4645 52.9202C59.412 53.2098 59.4124 53.5376 59.4644 54.1718C59.4739 54.2879 59.4851 54.4137 59.4971 54.5488C59.5473 55.1131 59.6118 55.8393 59.6301 56.7019C59.6752 58.8406 59.4304 60.8614 58.0166 62.6447C56.6867 64.3223 54.5357 65.5055 51.587 66.6653C49.7991 67.3686 48.2893 67.8015 46.8994 68.2C43.3731 69.2111 40.6184 70.0009 36.0512 74.423Z" fill="#519E1B"/>
<path d="M28.5365 78.0021C29.6901 76.9212 31.6233 74.4444 32.6143 73.1074C37.352 68.0023 40.6038 66.8862 44.2408 65.6377C45.5623 65.1841 46.9346 64.7131 48.4475 64.0269C54.1244 61.4522 55.0883 59.5789 54.8029 55.6316C54.7461 54.8454 54.6561 54.2047 54.5778 53.6464C54.2627 51.4016 54.1346 50.4891 57.0966 46.8084C60.5324 42.5388 59.0468 40.1815 58.1507 38.7597C58.0822 38.6509 58.0172 38.5477 57.958 38.4495C57.1252 37.0668 55.8759 34.9928 57.517 32.3491C58.8299 30.2341 57.7873 27.6402 57.1019 26.6075C56.4109 24.967 55.5274 23.756 54.5786 22.9463C56.7924 21.9991 59.8272 23.5137 61.4075 27.8753C62.0393 28.9416 62.9481 31.5854 61.5291 33.6306C59.7552 36.1871 60.897 38.3222 61.6582 39.7456C61.7122 39.8467 61.7719 39.9531 61.8348 40.0651C62.6571 41.5308 64.0205 43.9609 60.3713 48.0496C57.2254 51.5743 57.3067 52.4922 57.5068 54.7501C57.5566 55.3117 57.6137 55.9562 57.6303 56.7442C57.7139 60.701 56.6556 62.5226 50.8548 64.8043C49.3088 65.4124 47.9143 65.8128 46.5714 66.1983C42.8754 67.2595 39.5709 68.2083 34.5788 73.065C33.2719 74.652 30.4404 77.9026 29.5695 78.2088C29.2959 78.3051 28.9261 78.2215 28.5365 78.0021Z" fill="#93D124"/>
<path d="M29.2431 61.5534C29.8903 68.1998 24.3717 73.4007 21.5315 75.1704C21.3908 77.789 24.4537 79.6616 25.44 79.0625C26.229 78.5832 28.3295 74.8186 29.281 72.9963C34.5754 65.1139 38.2982 64.9858 43.504 61.5571C48.7097 58.1283 49.3696 56.1276 48.472 52.2731C47.5744 48.4186 46.4249 48.3169 49.3612 43.2002C52.2975 38.0835 49.9465 36.0451 48.9082 34.8092C47.8699 33.5734 46.3124 31.7196 47.521 28.8523C48.4879 26.5584 47.0535 24.1588 46.2154 23.2458C42.6108 17.4358 37.1898 18.3288 36.8268 23.2157C36.5364 27.1252 35.1685 27.9117 34.5208 27.8162C33.5172 27.8037 31.6895 28.5494 32.4075 31.633C33.3052 35.4875 33.654 40.2086 31.0512 41.923C28.9689 43.2945 29.1208 45.4509 29.4571 46.3577C31.1186 51.8814 29.806 51.0788 27.8039 53.7615C26.2022 55.9077 28.096 59.8503 29.2431 61.5534Z" fill="#B8ED5A"/>
<path fill-rule="evenodd" clip-rule="evenodd" d="M21.5316 75.1704C24.3718 73.4007 29.8903 68.1998 29.2432 61.5534C28.0961 59.8503 26.2022 55.9077 27.8039 53.7615C28.2623 53.1474 28.6845 52.7159 29.0431 52.3493C30.2512 51.1147 30.7383 50.6169 29.4571 46.3577C29.1209 45.4509 28.9689 43.2945 31.0512 41.923C33.6541 40.2086 33.3052 35.4875 32.4076 31.633C31.6895 28.5494 33.5172 27.8036 34.5209 27.8162C35.1685 27.9116 36.5365 27.1252 36.8269 23.2157C37.1899 18.3288 42.6109 17.4358 46.2154 23.2458C47.0535 24.1588 48.4879 26.5584 47.5211 28.8523C46.3125 31.7196 47.87 33.5734 48.9083 34.8092C48.982 34.897 49.0624 34.9888 49.147 35.0855C50.2539 36.3502 52.089 38.4469 49.3613 43.2002C47.0097 47.2978 47.2786 48.1792 47.94 50.3474C48.1045 50.8866 48.2932 51.5054 48.472 52.2731C49.3696 56.1276 48.7097 58.1283 43.504 61.5571C42.1167 62.4709 40.8346 63.1502 39.6001 63.8044C36.2024 65.6049 33.1645 67.2146 29.2811 72.9963C28.3295 74.8186 26.2291 78.5832 25.4401 79.0625C24.4538 79.6616 21.3909 77.789 21.5316 75.1704ZM31.0018 74.0217C30.5106 74.9578 29.7547 76.3375 29.0113 77.5675C28.6278 78.202 28.2304 78.8255 27.863 79.3364C27.6801 79.5908 27.4862 79.843 27.2905 80.0642C27.1233 80.2533 26.8425 80.5507 26.4784 80.7718C25.4889 81.3729 24.4048 81.174 23.7976 80.9845C23.0882 80.7631 22.3916 80.3629 21.7887 79.8644C20.6102 78.8899 19.4192 77.2085 19.5345 75.0631C19.5695 74.4115 19.9201 73.818 20.474 73.4729C21.6906 72.7148 23.575 71.1512 25.059 69.0404C26.4523 67.0587 27.4025 64.73 27.2855 62.206C26.6803 61.2227 25.9859 59.8383 25.5688 58.3701C25.1111 56.7584 24.8152 54.4223 26.2011 52.5653C26.7425 51.8398 27.2501 51.3216 27.6104 50.9538C27.6445 50.919 27.6772 50.8855 27.7086 50.8534C28.107 50.4448 28.1589 50.3524 28.1801 50.3053L28.1803 50.3049C28.1838 50.2971 28.1963 50.2692 28.2052 50.1923C28.2153 50.1041 28.221 49.9454 28.1926 49.6798C28.1342 49.1326 27.9524 48.3041 27.5565 46.9826C27.0429 45.5112 26.8724 42.2805 29.9511 40.2527C30.4645 39.9146 30.9352 39.106 31.0466 37.4466C31.1536 35.8515 30.888 33.9258 30.4597 32.0866C30.0083 30.1483 30.2629 28.4627 31.305 27.2562C32.1642 26.2615 33.3059 25.8937 34.1961 25.8275C34.3879 25.509 34.7097 24.7183 34.8324 23.0675C35.0725 19.8351 37.1396 17.4005 40.1892 17.2228C42.9947 17.0593 45.8026 18.8708 47.8212 22.0422C48.3792 22.6894 49.0286 23.6892 49.4374 24.8836C49.8842 26.1893 50.095 27.8949 49.364 29.6291C48.9657 30.5741 49.0498 31.2233 49.2435 31.737C49.4742 32.3491 49.898 32.8781 50.4396 33.5227C50.4854 33.5773 50.5445 33.6436 50.6138 33.7214C51.1085 34.2768 52.1226 35.4155 52.5567 37.0301C53.0851 38.9954 52.7381 41.334 51.0959 44.1957C49.6358 46.7399 49.4628 47.6145 49.4781 48.1533C49.4864 48.4475 49.5545 48.7682 49.7361 49.378C49.7694 49.4897 49.8063 49.6104 49.8459 49.7401C50.0113 50.282 50.2242 50.9792 50.4199 51.8195C50.9051 53.903 51.0822 55.9308 50.0665 57.9673C49.1111 59.8832 47.2503 61.4844 44.6041 63.2273C42.9996 64.2841 41.6116 65.019 40.3337 65.6956C37.0917 67.412 34.559 68.7529 31.0018 74.0217Z" fill="#519E1B"/>
<path d="M22.8776 78.1613C23.8489 76.908 25.3646 74.1731 26.1325 72.7026C30.0159 66.921 33.0537 65.3112 36.4515 63.5107C37.686 62.8566 38.968 62.1772 40.3554 61.2634C45.5611 57.8347 46.221 55.834 45.3234 51.9795C45.1446 51.2118 44.9558 50.593 44.7914 50.0537C44.13 47.8855 43.8611 47.0042 46.2126 42.9065C48.9404 38.1532 47.1053 36.0565 45.9984 34.7919C45.9138 34.6952 45.8334 34.6034 45.7596 34.5156C44.7213 33.2797 43.1638 31.426 44.3724 28.5586C45.3393 26.2648 43.9049 23.8652 43.0668 22.9521C41.9456 21.1449 40.6486 19.9862 39.3827 19.3945C41.3598 18.7352 44.1003 19.8364 46.2154 23.2457C47.0535 24.1587 48.4879 26.5583 47.5211 28.8522C46.3125 31.7195 47.8699 33.5733 48.9083 34.8091C48.982 34.8969 49.0624 34.9887 49.147 35.0854C50.2539 36.35 52.089 38.4468 49.3613 43.2001C47.0097 47.2977 47.2786 48.1791 47.94 50.3472C48.1045 50.8865 48.2932 51.5053 48.472 52.273C49.3696 56.1275 48.7097 58.1282 43.504 61.557C42.1166 62.4707 40.8346 63.1501 39.6001 63.8043C36.2024 65.6047 33.1645 67.2145 29.2811 72.9961C28.3295 74.8185 26.2291 78.5831 25.4401 79.0624C24.9115 79.3835 23.7863 78.9945 22.8776 78.1613Z" fill="#9CD833"/>
<path fill-rule="evenodd" clip-rule="evenodd" d="M41.0194 24.65C41.2944 24.6243 41.5381 24.8263 41.5638 25.1012C42.6057 36.2392 41.2898 43.4849 37.8086 53.391C33.4697 65.738 27.9692 73.2731 23.9297 76.325C23.7094 76.4914 23.3958 76.4478 23.2294 76.2274C23.0629 76.0071 23.1066 75.6935 23.3269 75.5271C27.1457 72.642 32.5586 65.3144 36.8652 53.0595C40.3077 43.2634 41.5942 36.1635 40.5682 25.1944C40.5424 24.9194 40.7445 24.6757 41.0194 24.65Z" fill="#EFFFBA"/>
<path fill-rule="evenodd" clip-rule="evenodd" d="M42.6716 54.3203C42.8479 54.5329 42.8185 54.8481 42.6059 55.0244C41.4456 55.9868 38.3229 58.4016 35.0636 60.4023C34.8283 60.5467 34.5204 60.4731 34.3759 60.2377C34.2315 60.0024 34.3051 59.6945 34.5405 59.55C37.7493 57.5803 40.8331 55.1956 41.9675 54.2547C42.1801 54.0784 42.4953 54.1078 42.6716 54.3203Z" fill="#EFFFBA"/>
<path fill-rule="evenodd" clip-rule="evenodd" d="M31.8961 44.3111C32.0851 44.1098 32.4016 44.0998 32.6029 44.2889C33.303 44.9463 34.5838 46.4964 35.6224 48.42C36.6573 50.3369 37.496 52.7062 37.1991 54.9779C37.1633 55.2517 36.9123 55.4446 36.6385 55.4088C36.3647 55.3731 36.1718 55.1221 36.2075 54.8483C36.4643 52.8839 35.7388 50.7405 34.7424 48.895C33.7497 47.0563 32.5324 45.5945 31.9183 45.0178C31.717 44.8288 31.7071 44.5123 31.8961 44.3111Z" fill="#EFFFBA"/>
<path fill-rule="evenodd" clip-rule="evenodd" d="M36.4196 32.4231C36.6494 32.27 36.9598 32.3322 37.1129 32.5621C37.9329 33.7932 39.7867 37.2899 40.7993 41.6381C40.8619 41.907 40.6946 42.1758 40.4257 42.2384C40.1567 42.3011 39.8879 42.1338 39.8253 41.8649C38.842 37.6424 37.0394 34.2556 36.2806 33.1164C36.1275 32.8866 36.1897 32.5762 36.4196 32.4231Z" fill="#EFFFBA"/>
<path fill-rule="evenodd" clip-rule="evenodd" d="M45.0875 38.3218C45.2795 38.5202 45.2744 38.8367 45.076 39.0288C44.3971 39.6862 43.3107 40.8722 42.2821 42.2729C41.2493 43.6795 40.3014 45.2669 39.864 46.731C39.7849 46.9956 39.5063 47.146 39.2417 47.0669C38.9772 46.9879 38.8268 46.7093 38.9058 46.4447C39.3916 44.8189 40.4172 43.1231 41.4761 41.681C42.5393 40.2331 43.663 39.005 44.3804 38.3104C44.5788 38.1183 44.8954 38.1234 45.0875 38.3218Z" fill="#EFFFBA"/>
<path fill-rule="evenodd" clip-rule="evenodd" d="M29.6967 54.5556C29.9014 54.3703 30.2176 54.3859 30.403 54.5906C31.0387 55.2926 31.9221 56.8281 32.5486 58.5812C33.1746 60.3328 33.584 62.4104 33.1603 64.1816C33.096 64.4502 32.8262 64.6158 32.5576 64.5516C32.2891 64.4873 32.1235 64.2175 32.1877 63.9489C32.5444 62.4581 32.2089 60.6021 31.607 58.9177C31.0055 57.2348 30.1779 55.8318 29.6618 55.2619C29.4764 55.0572 29.4921 54.741 29.6967 54.5556Z" fill="#EFFFBA"/>
</svg>
