<?xml version="1.0" encoding="utf-8"?>
<!-- Generator: Adobe Illustrator 22.1.0, SVG Export Plug-In . SVG Version: 6.00 Build 0)  -->
<svg version="1.1" id="Layer_1" xmlns="http://www.w3.org/2000/svg" xmlns:xlink="http://www.w3.org/1999/xlink" x="0px" y="0px"
	 viewBox="0 0 256 256" style="enable-background:new 0 0 256 256;" xml:space="preserve">
<style type="text/css">
	.st0{fill:#F5B31F;}
	.st1{fill:none;stroke:#464646;stroke-width:8;stroke-linecap:round;stroke-linejoin:round;stroke-miterlimit:10;}
	.st2{opacity:0.15;fill:#464646;}
	.st3{fill:#AC6535;}
	.st4{fill:#EB573B;}
	.st5{fill:#90C056;}
	.st6{opacity:0.35;fill:#FFFFFF;}
	.st7{opacity:0.2;fill:#FFFFFF;}
	.st8{fill:#F6D67A;}
	.st9{opacity:0.15;fill:#FFFFFF;}
	.st10{opacity:0.3;fill:#FFFFFF;}
	.st11{fill:#AC6535;stroke:#464646;stroke-width:8;stroke-linecap:round;stroke-linejoin:round;stroke-miterlimit:10;}
	.st12{fill:#EB573B;stroke:#464646;stroke-width:8;stroke-miterlimit:10;}
	.st13{opacity:0.15;}
	.st14{fill:#464646;}
	.st15{fill:#FFA755;}
	.st16{fill:#8FAE3C;}
	.st17{fill:#BE6BB2;}
	.st18{fill:#B7C536;}
	.st19{opacity:0.1;}
	.st20{fill:#9D5A96;}
	.st21{fill:#EA615D;}
	.st22{opacity:0.4;fill:#FFFFFF;}
	.st23{opacity:7.000000e-02;}
	.st24{fill:#F79932;}
	.st25{fill:#FFEC97;}
	.st26{fill:#FFD11D;}
	.st27{opacity:0.2;}
	.st28{fill:#FFFFFF;}
	.st29{fill:#F7F2D5;}
	.st30{fill:#F6AF72;}
	.st31{fill:#BA6C45;}
	.st32{opacity:0.5;fill:#FFFFFF;}
	.st33{fill:#E4C074;}
	.st34{fill:none;stroke:#656566;stroke-width:8;stroke-linecap:round;stroke-linejoin:round;stroke-miterlimit:10;}
	.st35{fill:#FFA755;stroke:#464646;stroke-width:8;stroke-linecap:round;stroke-linejoin:round;stroke-miterlimit:10;}
	.st36{fill:#FFD11D;stroke:#464646;stroke-width:8;stroke-linecap:round;stroke-linejoin:round;stroke-miterlimit:10;}
	.st37{fill:#FACD1F;}
	.st38{fill:#FFDF66;}
	.st39{fill:#FFEC97;stroke:#464646;stroke-width:8;stroke-linecap:round;stroke-linejoin:round;stroke-miterlimit:10;}
	.st40{fill:#FFDF66;stroke:#464646;stroke-width:8;stroke-linecap:round;stroke-linejoin:round;stroke-miterlimit:10;}
	.st41{opacity:0.2;fill:#464646;}
	.st42{fill:#FFFFFF;stroke:#464646;stroke-width:8;stroke-linecap:round;stroke-linejoin:round;stroke-miterlimit:10;}
	.st43{fill:#6D6E71;stroke:#464646;stroke-width:8;stroke-linecap:round;stroke-linejoin:round;stroke-miterlimit:10;}
	.st44{opacity:0.1;fill:#464646;}
	.st45{fill:#E77CAE;}
	.st46{fill:#FFE5C4;}
	.st47{fill:#F68455;stroke:#464646;stroke-width:8;stroke-linecap:round;stroke-linejoin:round;stroke-miterlimit:10;}
	.st48{opacity:0.7;}
	.st49{fill:#ADEDFF;}
	.st50{fill:#EC754B;}
	.st51{fill:#4AA5BA;}
	.st52{opacity:0.5;}
	.st53{opacity:0.8;}
	.st54{fill:#F68455;}
	.st55{fill:#92A5AC;}
	.st56{fill:#6D6E71;}
	.st57{fill:#D06E3C;}
	.st58{fill:#DA4F4B;}
	.st59{fill:#BDF3FF;}
	.st60{fill:#F18BB4;}
	.st61{fill:#F9D97A;}
	.st62{fill:none;}
	.st63{fill:#AF6535;}
	.st64{fill:#B93226;}
	.st65{fill:#FF6050;}
	.st66{fill:#D06E3C;stroke:#464646;stroke-miterlimit:10;}
	.st67{fill:#EA7CB1;}
	.st68{fill:none;stroke:#6D6E71;stroke-width:10;stroke-linecap:round;stroke-linejoin:round;stroke-miterlimit:10;}
	.st69{fill:#00B0E0;}
	.st70{fill:#EA7DAE;}
	.st71{opacity:0.1;fill:#FFFFFF;}
	.st72{fill:#BC7532;}
	.st73{fill:#876C6C;}
	.st74{fill:#F9F6CD;}
	.st75{fill:#FFE37B;}
	.st76{fill:#1DDCFF;}
	.st77{fill:#60ACF7;}
	.st78{fill:#C3755A;}
	.st79{fill:#96557A;}
	.st80{fill:#66625D;}
	.st81{fill:#D68032;}
	.st82{opacity:0.8;fill:#FFFFFF;}
	.st83{fill:#F2A355;}
	.st84{fill:#7E9E6A;}
	.st85{opacity:0.3;}
	.st86{fill:#965A85;}
	.st87{opacity:0.7;fill:#FFFFFF;}
	.st88{fill:#90CAD3;}
	.st89{fill:#94B57F;}
	.st90{fill:#B2E2E7;}
	.st91{fill:#FFDF8F;}
	.st92{fill:#FFFAEB;}
	.st93{fill:#F88916;}
	.st94{fill:#FFC86E;}
	.st95{fill:#AFA51D;}
	.st96{fill:#968A1C;}
	.st97{fill:#C3556D;}
</style>
<g>
	<path class="st17" d="M54.4,66.8c4.3,0.8,8.4-2.1,9.2-6.4c0.8-4.3-2.1-8.4-6.4-9.2c-4.3-0.8-8.4,2.1-9.2,6.4
		C47.2,61.9,50,66,54.4,66.8z"/>
	<path class="st17" d="M8.5,94.1c2.6,12.2,8.4,23.3,16.7,32.3c24.5-23.4,63.1-25.4,90-3.8c0.4,0.3,0.7,0.6,1.1,0.9
		c2.3,1.9,4.5,4,6.5,6.1c10.2-9.6,17.5-22.5,20.2-37.4c1.1-5.9,1.4-11.8,0.9-17.6c-0.6-8.2-2.7-16-6-23.2
		c-4.6-10.1-11.7-19-20.5-25.8C109,19.2,99,14.6,87.9,12.6c-37.2-6.8-73,17.9-79.8,55.1C6.5,76.7,6.7,85.6,8.5,94.1z M27.3,51
		c11.8,0.2,19.2-5.6,21.4-18.4c7.7,8,16.2,9.4,25.4,4.6C71,49.7,74,58.8,82.7,65c-10.3,1.7-17.1,9.1-20.9,22
		C54.4,77.2,44.3,73.7,33.5,77C37.4,66.6,36.1,57,27.3,51z"/>
	<path class="st20" d="M33.5,77c10.7-3.4,20.8,0.2,28.3,10.1c3.7-12.9,10.6-20.4,20.9-22C74,58.8,71,49.7,74.1,37.3
		c-9.2,4.8-17.7,3.4-25.4-4.6C46.5,45.4,39.1,51.2,27.3,51C36.1,57,37.4,66.6,33.5,77z M48,57.6c0.8-4.3,4.9-7.2,9.2-6.4
		c4.3,0.8,7.2,4.9,6.4,9.2c-0.8,4.3-4.9,7.2-9.2,6.4C50,66,47.2,61.9,48,57.6z"/>
	<path class="st17" d="M54.4,66.8c4.3,0.8,8.4-2.1,9.2-6.4c0.8-4.3-2.1-8.4-6.4-9.2c-4.3-0.8-8.4,2.1-9.2,6.4
		C47.2,61.9,50,66,54.4,66.8z"/>
	<path class="st17" d="M54.4,66.8c4.3,0.8,8.4-2.1,9.2-6.4c0.8-4.3-2.1-8.4-6.4-9.2c-4.3-0.8-8.4,2.1-9.2,6.4
		C47.2,61.9,50,66,54.4,66.8z"/>
	<g>
		<path class="st1" d="M54.4,66.8c4.3,0.8,8.4-2.1,9.2-6.4c0.8-4.3-2.1-8.4-6.4-9.2c-4.3-0.8-8.4,2.1-9.2,6.4
			C47.2,61.9,50,66,54.4,66.8z"/>
		<path class="st1" d="M8.5,94.1c2.6,12.2,8.4,23.3,16.7,32.3c24.5-23.4,63.1-25.4,90-3.8c0.4,0.3,0.7,0.6,1.1,0.9
			c2.3,1.9,4.5,4,6.5,6.1c10.2-9.6,17.5-22.5,20.2-37.4c1.1-5.9,1.4-11.8,0.9-17.6c-0.6-8.2-2.7-16-6-23.2
			c-4.6-10.1-11.7-19-20.5-25.8C109,19.2,99,14.6,87.9,12.6c-37.2-6.8-73,17.9-79.8,55.1C6.5,76.7,6.7,85.6,8.5,94.1z M27.3,51
			c11.8,0.2,19.2-5.6,21.4-18.4c7.7,8,16.2,9.4,25.4,4.6C71,49.7,74,58.8,82.7,65c-10.3,1.7-17.1,9.1-20.9,22
			C54.4,77.2,44.3,73.7,33.5,77C37.4,66.6,36.1,57,27.3,51z"/>
		<path class="st1" d="M33.5,77c10.7-3.4,20.8,0.2,28.3,10.1c3.7-12.9,10.6-20.4,20.9-22C74,58.8,71,49.7,74.1,37.3
			c-9.2,4.8-17.7,3.4-25.4-4.6C46.5,45.4,39.1,51.2,27.3,51C36.1,57,37.4,66.6,33.5,77z M48,57.6c0.8-4.3,4.9-7.2,9.2-6.4
			c4.3,0.8,7.2,4.9,6.4,9.2c-0.8,4.3-4.9,7.2-9.2,6.4C50,66,47.2,61.9,48,57.6z"/>
		<path class="st1" d="M54.4,66.8c4.3,0.8,8.4-2.1,9.2-6.4c0.8-4.3-2.1-8.4-6.4-9.2c-4.3-0.8-8.4,2.1-9.2,6.4
			C47.2,61.9,50,66,54.4,66.8z"/>
		<path class="st1" d="M54.4,66.8c4.3,0.8,8.4-2.1,9.2-6.4c0.8-4.3-2.1-8.4-6.4-9.2c-4.3-0.8-8.4,2.1-9.2,6.4
			C47.2,61.9,50,66,54.4,66.8z"/>
	</g>
	<g class="st19">
		<path d="M135,112.5c-2.1,3.8-4.6,7.5-7.5,10.9c-1.7,2-3.4,3.9-5.3,5.6c0.2,0.2,0.3,0.3,0.5,0.5c5.1-4.8,9.5-10.4,12.9-16.7
			C135.5,112.8,135.2,112.7,135,112.5z"/>
		<path d="M143,87.8c-1,8.5-3.7,16.9-8,24.7c-2.1,3.8-4.6,7.5-7.5,10.9c-1.7,2-3.4,3.9-5.3,5.6c-1.9-2-3.8-3.9-6-5.6
			c-0.4-0.3-0.7-0.6-1.1-0.9c-2-1.6-4-3-6-4.3c-26.4-16.8-61.2-13.5-84,8.2c-3.4-3.7-6.4-7.8-9-12.2c31.9-24,66.6-24.5,103.3-9.1
			c9.5-18,8.8-44.5-1.8-79.1c0.4,0.3,0.7,0.6,1.1,0.9c2.3,1.9,4.5,4,6.5,6.1C139.3,48.2,145.3,68.3,143,87.8z"/>
	</g>
	<path class="st17" d="M140.5,184.3c11.7,9.4,26.6,15,42.8,15c37.9,0,68.6-30.7,68.6-68.5s-30.7-68.5-68.6-68.5
		c-14.6,0-28.2,4.6-39.4,12.4c0.4,5.7,0.1,11.6-0.9,17.6c-2.7,14.9-10,27.7-20.2,37.4C136.8,144.7,142.8,164.8,140.5,184.3z
		 M173.8,118.6c8.4-9.1,10.1-19.7,4.8-29.6c10.9,1.9,20.1-1.1,24.5-10.8c1.9,11.6,9,17.8,22,17.7c-6.5,9-6.4,17.6,0,25.8
		c-12.8-0.8-21.3,3.8-25.8,13.5C195.8,125.3,187.2,119.9,173.8,118.6z"/>
	<path class="st20" d="M173.8,118.6c13.4,1.3,22,6.8,25.4,16.5c4.6-9.6,13-14.3,25.8-13.5c-6.4-8.2-6.5-16.8,0-25.8
		c-13,0.1-20-6.1-22-17.7c-4.3,9.7-13.6,12.7-24.5,10.8C183.9,98.9,182.2,109.5,173.8,118.6z M192.5,107.6c0-4.4,3.6-7.9,7.9-7.9
		c4.4,0,7.9,3.6,7.9,7.9s-3.5,7.9-7.9,7.9S192.5,111.9,192.5,107.6z"/>
	<path class="st17" d="M192.5,107.6c0,4.4,3.6,7.9,7.9,7.9s7.9-3.5,7.9-7.9s-3.5-7.9-7.9-7.9C196,99.7,192.5,103.2,192.5,107.6z"/>
	<path class="st17" d="M28.5,228.7c29.1,24.2,72.3,20.3,96.6-8.8c8.8-10.5,13.9-23,15.4-35.6c2.3-19.5-3.7-39.6-17.7-54.7
		c-2-2.2-4.2-4.2-6.5-6.1c-0.4-0.3-0.7-0.6-1.1-0.9c-27-21.6-65.5-19.5-90,3.8c-1.9,1.8-3.7,3.7-5.4,5.8c-1.8,2.2-3.5,4.5-5,6.8
		c-5.1,7.9-8.4,16.6-9.9,25.6C0.9,187.9,9.1,212.5,28.5,228.7z M52.6,214c8.8-9.3,10.7-18.8,6.2-28.4c9.8,3.6,19.4,0.5,29-8.9
		c1.6,12.3,8.7,20.3,19.7,22.7c-8.5,7.2-12.1,16.2-7.4,25.7c-10.2-5.9-19.5-4.5-27.7,5.5C69.7,219.7,63,214.3,52.6,214z"/>
	<path class="st19" d="M28.5,228.7c29.1,24.2,72.3,20.3,96.6-8.8c8.8-10.5,13.9-23,15.4-35.6c2.3-19.5-3.7-39.6-17.7-54.7
		c-2-2.2-4.2-4.2-6.5-6.1c-0.4-0.3-0.7-0.6-1.1-0.9C139.5,201.8,111.9,238.3,28.5,228.7z"/>
	<g class="st19">
		<path d="M250.3,139c-1.5,12.7-6.6,25.1-15.4,35.6c-24.2,29.1-67.5,33-96.6,8.8c0.8,0.1,1.5,0.2,2.3,0.3c2.1-19.3-3.9-39.1-17.8-54
			c10.2-9.6,17.5-22.5,20.2-37.4c1.1-5.9,1.4-11.8,0.9-17.5c4.5-3.2,9.4-5.8,14.6-7.8C155.7,90,144,119,142.7,130.8
			c-1.2,10.5,8.1,32.6,10,53.8c72.1,3.9,95.1-32.8,72.3-107.3c0.4,0.3,0.7,0.6,1.1,0.9c2.3,1.9,4.5,4,6.5,6.1
			C246.6,99.4,252.6,119.5,250.3,139z"/>
	</g>
	<path class="st20" d="M52.6,214c10.4,0.4,17.1,5.8,19.8,16.5c8.2-10,17.5-11.4,27.7-5.5c-4.7-9.5-1.1-18.5,7.4-25.7
		c-11-2.4-18.1-10.4-19.7-22.7c-9.6,9.4-19.2,12.5-29,8.9C63.3,195.2,61.5,204.7,52.6,214z M73.2,199c2.8-3.4,7.8-3.8,11.2-1
		c3.4,2.8,3.8,7.8,1,11.2c-2.8,3.4-7.8,3.8-11.2,1C70.9,207.3,70.4,202.3,73.2,199z"/>
	<path class="st17" d="M74.2,210.1c3.4,2.8,8.4,2.3,11.2-1c2.8-3.4,2.4-8.4-1-11.2c-3.4-2.8-8.4-2.3-11.2,1
		C70.4,202.3,70.9,207.3,74.2,210.1z"/>
	<g>
		<path class="st1" d="M140.5,184.3c11.7,9.4,26.6,15,42.8,15c37.9,0,68.6-30.7,68.6-68.5s-30.7-68.5-68.6-68.5
			c-14.6,0-28.2,4.6-39.4,12.4c0.4,5.7,0.1,11.6-0.9,17.6c-2.7,14.9-10,27.7-20.2,37.4C136.8,144.7,142.8,164.8,140.5,184.3z
			 M173.8,118.6c8.4-9.1,10.1-19.7,4.8-29.6c10.9,1.9,20.1-1.1,24.5-10.8c1.9,11.6,9,17.8,22,17.7c-6.5,9-6.4,17.6,0,25.8
			c-12.8-0.8-21.3,3.8-25.8,13.5C195.8,125.3,187.2,119.9,173.8,118.6z"/>
		<path class="st1" d="M173.8,118.6c13.4,1.3,22,6.8,25.4,16.5c4.6-9.6,13-14.3,25.8-13.5c-6.4-8.2-6.5-16.8,0-25.8
			c-13,0.1-20-6.1-22-17.7c-4.3,9.7-13.6,12.7-24.5,10.8C183.9,98.9,182.2,109.5,173.8,118.6z M192.5,107.6c0-4.4,3.6-7.9,7.9-7.9
			c4.4,0,7.9,3.6,7.9,7.9s-3.5,7.9-7.9,7.9S192.5,111.9,192.5,107.6z"/>
		<path class="st1" d="M192.5,107.6c0,4.4,3.6,7.9,7.9,7.9s7.9-3.5,7.9-7.9s-3.5-7.9-7.9-7.9C196,99.7,192.5,103.2,192.5,107.6z"/>
	</g>
	<g>
		<path class="st1" d="M28.5,228.7c29.1,24.2,72.3,20.3,96.6-8.8c8.8-10.5,13.9-23,15.4-35.6c2.3-19.5-3.7-39.6-17.7-54.7
			c-2-2.2-4.2-4.2-6.5-6.1c-0.4-0.3-0.7-0.6-1.1-0.9c-27-21.6-65.5-19.5-90,3.8c-1.9,1.8-3.7,3.7-5.4,5.8c-1.8,2.2-3.5,4.5-5,6.8
			c-5.1,7.9-8.4,16.6-9.9,25.6C0.9,187.9,9.1,212.5,28.5,228.7z M52.6,214c8.8-9.3,10.7-18.8,6.2-28.4c9.8,3.6,19.4,0.5,29-8.9
			c1.6,12.3,8.7,20.3,19.7,22.7c-8.5,7.2-12.1,16.2-7.4,25.7c-10.2-5.9-19.5-4.5-27.7,5.5C69.7,219.7,63,214.3,52.6,214z"/>
		<path class="st1" d="M52.6,214c10.4,0.4,17.1,5.8,19.8,16.5c8.2-10,17.5-11.4,27.7-5.5c-4.7-9.5-1.1-18.5,7.4-25.7
			c-11-2.4-18.1-10.4-19.7-22.7c-9.6,9.4-19.2,12.5-29,8.9C63.3,195.2,61.5,204.7,52.6,214z M73.2,199c2.8-3.4,7.8-3.8,11.2-1
			c3.4,2.8,3.8,7.8,1,11.2c-2.8,3.4-7.8,3.8-11.2,1C70.9,207.3,70.4,202.3,73.2,199z"/>
		<path class="st1" d="M74.2,210.1c3.4,2.8,8.4,2.3,11.2-1c2.8-3.4,2.4-8.4-1-11.2c-3.4-2.8-8.4-2.3-11.2,1
			C70.4,202.3,70.9,207.3,74.2,210.1z"/>
	</g>
</g>
</svg>
