<?xml version="1.0" encoding="utf-8"?>
<!-- Generator: Adobe Illustrator 22.1.0, SVG Export Plug-In . SVG Version: 6.00 Build 0)  -->
<svg version="1.1" id="Layer_1" xmlns="http://www.w3.org/2000/svg" xmlns:xlink="http://www.w3.org/1999/xlink" x="0px" y="0px"
	 viewBox="0 0 256 256" style="enable-background:new 0 0 256 256;" xml:space="preserve">
<style type="text/css">
	.st0{fill:#F5B31F;}
	.st1{fill:none;stroke:#464646;stroke-width:8;stroke-linecap:round;stroke-linejoin:round;stroke-miterlimit:10;}
	.st2{opacity:0.15;fill:#464646;}
	.st3{fill:#AC6535;}
	.st4{fill:#EB573B;}
	.st5{fill:#90C056;}
	.st6{opacity:0.35;fill:#FFFFFF;}
	.st7{opacity:0.2;fill:#FFFFFF;}
	.st8{fill:#F6D67A;}
	.st9{opacity:0.15;fill:#FFFFFF;}
	.st10{opacity:0.3;fill:#FFFFFF;}
	.st11{fill:#AC6535;stroke:#464646;stroke-width:8;stroke-linecap:round;stroke-linejoin:round;stroke-miterlimit:10;}
	.st12{fill:#EB573B;stroke:#464646;stroke-width:8;stroke-miterlimit:10;}
	.st13{opacity:0.15;}
	.st14{fill:#464646;}
	.st15{fill:#FFA755;}
	.st16{fill:#8FAE3C;}
	.st17{fill:#BE6BB2;}
	.st18{fill:#B7C536;}
	.st19{opacity:0.1;}
	.st20{fill:#9D5A96;}
	.st21{fill:#EA615D;}
	.st22{opacity:0.4;fill:#FFFFFF;}
	.st23{opacity:7.000000e-02;}
	.st24{fill:#F79932;}
	.st25{fill:#FFEC97;}
	.st26{fill:#FFD11D;}
	.st27{opacity:0.2;}
	.st28{fill:#FFFFFF;}
	.st29{fill:#F7F2D5;}
	.st30{fill:#F6AF72;}
	.st31{fill:#BA6C45;}
	.st32{opacity:0.5;fill:#FFFFFF;}
	.st33{fill:#E4C074;}
	.st34{fill:none;stroke:#656566;stroke-width:8;stroke-linecap:round;stroke-linejoin:round;stroke-miterlimit:10;}
	.st35{fill:#FFA755;stroke:#464646;stroke-width:8;stroke-linecap:round;stroke-linejoin:round;stroke-miterlimit:10;}
	.st36{fill:#FFD11D;stroke:#464646;stroke-width:8;stroke-linecap:round;stroke-linejoin:round;stroke-miterlimit:10;}
	.st37{fill:#FACD1F;}
	.st38{fill:#FFDF66;}
	.st39{fill:#FFEC97;stroke:#464646;stroke-width:8;stroke-linecap:round;stroke-linejoin:round;stroke-miterlimit:10;}
	.st40{fill:#FFDF66;stroke:#464646;stroke-width:8;stroke-linecap:round;stroke-linejoin:round;stroke-miterlimit:10;}
	.st41{opacity:0.2;fill:#464646;}
	.st42{fill:#FFFFFF;stroke:#464646;stroke-width:8;stroke-linecap:round;stroke-linejoin:round;stroke-miterlimit:10;}
	.st43{fill:#6D6E71;stroke:#464646;stroke-width:8;stroke-linecap:round;stroke-linejoin:round;stroke-miterlimit:10;}
	.st44{opacity:0.1;fill:#464646;}
	.st45{fill:#E77CAE;}
	.st46{fill:#FFE5C4;}
	.st47{fill:#F68455;stroke:#464646;stroke-width:8;stroke-linecap:round;stroke-linejoin:round;stroke-miterlimit:10;}
	.st48{opacity:0.7;}
	.st49{fill:#ADEDFF;}
	.st50{fill:#EC754B;}
	.st51{fill:#4AA5BA;}
	.st52{opacity:0.5;}
	.st53{opacity:0.8;}
	.st54{fill:#F68455;}
	.st55{fill:#92A5AC;}
	.st56{fill:#6D6E71;}
	.st57{fill:#D06E3C;}
	.st58{fill:#DA4F4B;}
	.st59{fill:#BDF3FF;}
	.st60{fill:#F18BB4;}
	.st61{fill:#F9D97A;}
	.st62{fill:none;}
	.st63{fill:#AF6535;}
	.st64{fill:#B93226;}
	.st65{fill:#FF6050;}
	.st66{fill:#D06E3C;stroke:#464646;stroke-miterlimit:10;}
	.st67{fill:#EA7CB1;}
	.st68{fill:none;stroke:#6D6E71;stroke-width:10;stroke-linecap:round;stroke-linejoin:round;stroke-miterlimit:10;}
	.st69{fill:#00B0E0;}
	.st70{fill:#EA7DAE;}
	.st71{opacity:0.1;fill:#FFFFFF;}
	.st72{fill:#BC7532;}
	.st73{fill:#876C6C;}
	.st74{fill:#F9F6CD;}
	.st75{fill:#FFE37B;}
	.st76{fill:#1DDCFF;}
	.st77{fill:#60ACF7;}
	.st78{fill:#C3755A;}
	.st79{fill:#96557A;}
	.st80{fill:#66625D;}
	.st81{fill:#D68032;}
	.st82{opacity:0.8;fill:#FFFFFF;}
	.st83{fill:#F2A355;}
	.st84{fill:#7E9E6A;}
	.st85{opacity:0.3;}
	.st86{fill:#965A85;}
	.st87{opacity:0.7;fill:#FFFFFF;}
	.st88{fill:#90CAD3;}
	.st89{fill:#94B57F;}
	.st90{fill:#B2E2E7;}
	.st91{fill:#FFDF8F;}
	.st92{fill:#FFFAEB;}
	.st93{fill:#F88916;}
	.st94{fill:#FFC86E;}
	.st95{fill:#AFA51D;}
	.st96{fill:#968A1C;}
	.st97{fill:#C3556D;}
</style>
<g>
	<path class="st31" d="M159.3,174.8c0,18.6-13.6,36-31.3,36c-17.6,0-31.3-17.4-31.3-36c0-18.6,15.6-45.2,31.3-45.2
		S159.3,156.2,159.3,174.8z"/>
	<path class="st10" d="M144.5,138.7c-5-5.5-10.7-9-16.4-9c-15.6,0-31.3,26.6-31.3,45.2c0,8.7,3,17.2,8,23.7c0,0-1.2-27.3,10.4-43.2
		S144.5,138.7,144.5,138.7z"/>
	<path class="st23" d="M151.3,148c4.9,8.5,8,18.4,8,26.8c0,18.6-13.6,36-31.3,36c-7.1,0-13.5-2.8-18.7-7.4c0,0,18.7,2.9,32.2-9.7
		C155.1,181.3,151.3,148,151.3,148z"/>
	<path class="st16" d="M102.8,15.7c-26.5-5.3-36.7,12.8-37.5,44.6C96.5,54.7,110.3,40.5,102.8,15.7z"/>
	<path class="st10" d="M102.8,15.7c-26.5-5.3-36.7,12.8-37.5,44.6c0,0,8.2-22.1,15-29.9S102.8,15.7,102.8,15.7z"/>
	<path class="st25" d="M197.9,173.6c-6.4-35.2-16.8-33.2-27-75c-10.2-41.7-30.4-52.5-42.8-52.5c-2.5,0-5.3,0.4-8.2,1.5
		c-11.8,4.1-26.4,17.6-34.6,51c-10.2,41.7-20.6,39.8-27,75C51.8,208.8,80,252,128,252C176.1,252,204.3,208.8,197.9,173.6z
		 M128,210.9c-17.6,0-31.3-17.4-31.3-36c0-18.6,15.6-45.2,31.3-45.2s31.3,26.6,31.3,45.2C159.3,193.5,145.7,210.9,128,210.9z"/>
	<path class="st32" d="M128,46.1c-2.5,0-5.3,0.4-8.2,1.5c-11.8,4.1-26.4,17.6-34.6,51c-10.2,41.7-20.6,39.8-27,75
		c-2.4,13.2,0,27.5,6.6,40.3c0,0-5.8-17.2,0.5-41c6.3-23.8,12.1-27.4,21.8-45.2s5.6-35.8,15.7-53S128,46.1,128,46.1z"/>
	<path class="st19" d="M78.6,232.4c12.1,11.7,29,19.6,49.5,19.6c48,0,76.3-43.1,69.8-78.4c-4.8-26.4-11.9-31.9-19.4-50.6
		c0,0,20.2,60.2-13.3,96.4S78.6,232.4,78.6,232.4z"/>
	<path class="st1" d="M197.9,173.6c-6.4-35.2-16.8-33.2-27-75c-10.2-41.7-30.4-52.5-42.8-52.5c-2.5,0-5.3,0.4-8.2,1.5
		c-11.8,4.1-26.4,17.6-34.6,51c-10.2,41.7-20.6,39.8-27,75C51.8,208.8,80,252,128,252C176.1,252,204.3,208.8,197.9,173.6z
		 M128,210.9c-17.6,0-31.3-17.4-31.3-36c0-18.6,15.6-45.2,31.3-45.2s31.3,26.6,31.3,45.2C159.3,193.5,145.7,210.9,128,210.9z"/>
	<path class="st1" d="M159.3,174.8c0,18.6-13.6,36-31.3,36c-17.6,0-31.3-17.4-31.3-36c0-18.6,15.6-45.2,31.3-45.2
		S159.3,156.2,159.3,174.8z"/>
	<path class="st1" d="M102.8,15.7c-26.5-5.3-36.7,12.8-37.5,44.6C96.5,54.7,110.3,40.5,102.8,15.7z"/>
	<path class="st1" d="M102.8,15.7c6.4-1.3,11-4.9,12.9-11.7c-4.9,14.5-3.5,29.1,4.2,43.6"/>
</g>
</svg>
