<?xml version="1.0" encoding="utf-8"?>
<!-- Generator: Adobe Illustrator 22.1.0, SVG Export Plug-In . SVG Version: 6.00 Build 0)  -->
<svg version="1.1" id="Layer_1" xmlns="http://www.w3.org/2000/svg" xmlns:xlink="http://www.w3.org/1999/xlink" x="0px" y="0px"
	 viewBox="0 0 256 256" style="enable-background:new 0 0 256 256;" xml:space="preserve">
<style type="text/css">
	.st0{fill:#F5B31F;}
	.st1{fill:none;stroke:#464646;stroke-width:8;stroke-linecap:round;stroke-linejoin:round;stroke-miterlimit:10;}
	.st2{opacity:0.15;fill:#464646;}
	.st3{fill:#AC6535;}
	.st4{fill:#EB573B;}
	.st5{fill:#90C056;}
	.st6{opacity:0.35;fill:#FFFFFF;}
	.st7{opacity:0.2;fill:#FFFFFF;}
	.st8{fill:#F6D67A;}
	.st9{opacity:0.15;fill:#FFFFFF;}
	.st10{opacity:0.3;fill:#FFFFFF;}
	.st11{fill:#AC6535;stroke:#464646;stroke-width:8;stroke-linecap:round;stroke-linejoin:round;stroke-miterlimit:10;}
	.st12{fill:#EB573B;stroke:#464646;stroke-width:8;stroke-miterlimit:10;}
	.st13{opacity:0.15;}
	.st14{fill:#464646;}
	.st15{fill:#FFA755;}
	.st16{fill:#8FAE3C;}
	.st17{fill:#BE6BB2;}
	.st18{fill:#B7C536;}
	.st19{opacity:0.1;}
	.st20{fill:#9D5A96;}
	.st21{fill:#EA615D;}
	.st22{opacity:0.4;fill:#FFFFFF;}
	.st23{opacity:7.000000e-02;}
	.st24{fill:#F79932;}
	.st25{fill:#FFEC97;}
	.st26{fill:#FFD11D;}
	.st27{opacity:0.2;}
	.st28{fill:#FFFFFF;}
	.st29{fill:#F7F2D5;}
	.st30{fill:#F6AF72;}
	.st31{fill:#BA6C45;}
	.st32{opacity:0.5;fill:#FFFFFF;}
	.st33{fill:#E4C074;}
	.st34{fill:none;stroke:#656566;stroke-width:8;stroke-linecap:round;stroke-linejoin:round;stroke-miterlimit:10;}
	.st35{fill:#FFA755;stroke:#464646;stroke-width:8;stroke-linecap:round;stroke-linejoin:round;stroke-miterlimit:10;}
	.st36{fill:#FFD11D;stroke:#464646;stroke-width:8;stroke-linecap:round;stroke-linejoin:round;stroke-miterlimit:10;}
	.st37{fill:#FACD1F;}
	.st38{fill:#FFDF66;}
	.st39{fill:#FFEC97;stroke:#464646;stroke-width:8;stroke-linecap:round;stroke-linejoin:round;stroke-miterlimit:10;}
	.st40{fill:#FFDF66;stroke:#464646;stroke-width:8;stroke-linecap:round;stroke-linejoin:round;stroke-miterlimit:10;}
	.st41{opacity:0.2;fill:#464646;}
	.st42{fill:#FFFFFF;stroke:#464646;stroke-width:8;stroke-linecap:round;stroke-linejoin:round;stroke-miterlimit:10;}
	.st43{fill:#6D6E71;stroke:#464646;stroke-width:8;stroke-linecap:round;stroke-linejoin:round;stroke-miterlimit:10;}
	.st44{opacity:0.1;fill:#464646;}
	.st45{fill:#E77CAE;}
	.st46{fill:#FFE5C4;}
	.st47{fill:#F68455;stroke:#464646;stroke-width:8;stroke-linecap:round;stroke-linejoin:round;stroke-miterlimit:10;}
	.st48{opacity:0.7;}
	.st49{fill:#ADEDFF;}
	.st50{fill:#EC754B;}
	.st51{fill:#4AA5BA;}
	.st52{opacity:0.5;}
	.st53{opacity:0.8;}
	.st54{fill:#F68455;}
	.st55{fill:#92A5AC;}
	.st56{fill:#6D6E71;}
	.st57{fill:#D06E3C;}
	.st58{fill:#DA4F4B;}
	.st59{fill:#BDF3FF;}
	.st60{fill:#F18BB4;}
	.st61{fill:#F9D97A;}
	.st62{fill:none;}
	.st63{fill:#AF6535;}
	.st64{fill:#B93226;}
	.st65{fill:#FF6050;}
	.st66{fill:#D06E3C;stroke:#464646;stroke-miterlimit:10;}
	.st67{fill:#EA7CB1;}
	.st68{fill:none;stroke:#6D6E71;stroke-width:10;stroke-linecap:round;stroke-linejoin:round;stroke-miterlimit:10;}
	.st69{fill:#00B0E0;}
	.st70{fill:#EA7DAE;}
	.st71{opacity:0.1;fill:#FFFFFF;}
	.st72{fill:#BC7532;}
	.st73{fill:#876C6C;}
	.st74{fill:#F9F6CD;}
	.st75{fill:#FFE37B;}
	.st76{fill:#1DDCFF;}
	.st77{fill:#60ACF7;}
	.st78{fill:#C3755A;}
	.st79{fill:#96557A;}
	.st80{fill:#66625D;}
	.st81{fill:#D68032;}
	.st82{opacity:0.8;fill:#FFFFFF;}
	.st83{fill:#F2A355;}
	.st84{fill:#7E9E6A;}
	.st85{opacity:0.3;}
	.st86{fill:#965A85;}
	.st87{opacity:0.7;fill:#FFFFFF;}
	.st88{fill:#90CAD3;}
	.st89{fill:#94B57F;}
	.st90{fill:#B2E2E7;}
	.st91{fill:#FFDF8F;}
	.st92{fill:#FFFAEB;}
	.st93{fill:#F88916;}
	.st94{fill:#FFC86E;}
	.st95{fill:#AFA51D;}
	.st96{fill:#968A1C;}
	.st97{fill:#C3556D;}
</style>
<g>
	<path class="st4" d="M186.1,27.2c9.5,9.5,17,20.4,22.4,32c7.7,16.5,11.2,34.4,10.4,52.3c-0.7,16.6-5,33.1-13.1,48.2
		c-5.1,9.6-11.7,18.6-19.8,26.7c-8.1,8.1-17.1,14.7-26.7,19.8c-15,8-31.5,12.4-48.2,13.1c-17.8,0.7-35.7-2.7-52.2-10.4
		c-11.6-5.4-22.4-12.9-31.9-22.4L186.1,27.2z"/>
	<path class="st10" d="M186.1,27.2l-159,159.1c9.5,9.5,20.4,17,31.9,22.4C61.5,164.2,121.8,96.5,186.1,27.2z"/>
	<path class="st16" d="M209.2,4.1c12.3,12.3,21.9,26.3,28.9,41.2c9.9,21.3,14.4,44.5,13.5,67.5c-0.9,21.5-6.5,42.8-16.9,62.2
		c-6.6,12.4-15.1,24-25.5,34.5c-10.4,10.4-22.1,19-34.5,25.6c-19.4,10.4-40.7,16-62.2,16.9c-23,0.9-46.1-3.6-67.4-13.5
		c-14.9-7-28.9-16.6-41.2-29l23.1-23.2c9.5,9.5,20.4,17,31.9,22.4c16.5,7.7,34.4,11.2,52.2,10.4c16.6-0.7,33.1-5,48.2-13.1
		c9.6-5.1,18.6-11.7,26.7-19.8c8.1-8.1,14.7-17.1,19.8-26.7c8-15.1,12.4-31.6,13.1-48.2c0.7-17.8-2.7-35.8-10.4-52.3
		c-5.4-11.6-12.9-22.4-22.4-32L209.2,4.1z"/>
	<path class="st16" d="M209.2,4.1c12.3,12.3,21.9,26.3,28.9,41.2c9.9,21.3,14.4,44.5,13.5,67.5c-0.9,21.5-6.5,42.8-16.9,62.2
		c-6.6,12.4-15.1,24-25.5,34.5c-10.4,10.4-22.1,19-34.5,25.6c-19.4,10.4-40.7,16-62.2,16.9c-23,0.9-46.1-3.6-67.4-13.5
		c-14.9-7-28.9-16.6-41.2-29l23.1-23.2c9.5,9.5,20.4,17,31.9,22.4c16.5,7.7,34.4,11.2,52.2,10.4c16.6-0.7,33.1-5,48.2-13.1
		c9.6-5.1,18.6-11.7,26.7-19.8c8.1-8.1,14.7-17.1,19.8-26.7c8-15.1,12.4-31.6,13.1-48.2c0.7-17.8-2.7-35.8-10.4-52.3
		c-5.4-11.6-12.9-22.4-22.4-32L209.2,4.1z"/>
	<path class="st19" d="M209.2,4.1c12.3,12.3,21.9,26.3,28.9,41.2c9.9,21.3,14.4,44.5,13.5,67.5c-0.9,21.5-6.5,42.8-16.9,62.2
		c-6.6,12.4-15.1,24-25.5,34.5c-10.4,10.4-22.1,19-34.5,25.6C243.4,165.6,257,88.9,209.2,4.1z"/>
	<path class="st10" d="M65.2,246c-6.8-2-13.5-4.5-20-7.6c-14.9-7-28.9-16.6-41.2-29l23.1-23.2c9.5,9.5,20.4,17,31.9,22.4
		C59.5,222.7,61.2,235.5,65.2,246z"/>
	<path class="st1" d="M209.2,4.1c12.3,12.3,21.9,26.3,28.9,41.2c9.9,21.3,14.4,44.5,13.5,67.5c-0.9,21.5-6.5,42.8-16.9,62.2
		c-6.6,12.4-15.1,24-25.5,34.5c-10.4,10.4-22.1,19-34.5,25.6c-19.4,10.4-40.7,16-62.2,16.9c-23,0.9-46.1-3.6-67.4-13.5
		c-14.9-7-28.9-16.6-41.2-29l23.1-23.2c9.5,9.5,20.4,17,31.9,22.4c16.5,7.7,34.4,11.2,52.2,10.4c16.6-0.7,33.1-5,48.2-13.1
		c9.6-5.1,18.6-11.7,26.7-19.8c8.1-8.1,14.7-17.1,19.8-26.7c8-15.1,12.4-31.6,13.1-48.2c0.7-17.8-2.7-35.8-10.4-52.3
		c-5.4-11.6-12.9-22.4-22.4-32L209.2,4.1z"/>
	<path class="st1" d="M186.1,27.2c9.5,9.5,17,20.4,22.4,32c7.7,16.5,11.2,34.4,10.4,52.3c-0.7,16.6-5,33.1-13.1,48.2
		c-5.1,9.6-11.7,18.6-19.8,26.7c-8.1,8.1-17.1,14.7-26.7,19.8c-15,8-31.5,12.4-48.2,13.1c-17.8,0.7-35.7-2.7-52.2-10.4
		c-11.6-5.4-22.4-12.9-31.9-22.4L186.1,27.2z"/>
	<g>
		<line class="st1" x1="78.6" y1="169.3" x2="78.6" y2="182.7"/>
		<line class="st1" x1="107.5" y1="168.9" x2="111.4" y2="181.8"/>
		<line class="st1" x1="135.2" y1="156.4" x2="143.4" y2="167.1"/>
		<line class="st1" x1="169.1" y1="78.8" x2="182.5" y2="78.8"/>
		<line class="st1" x1="168.7" y1="107.7" x2="181.5" y2="111.6"/>
		<line class="st1" x1="156.2" y1="135.4" x2="166.9" y2="143.6"/>
	</g>
	<g>
		<line class="st1" x1="95.8" y1="152.1" x2="96.4" y2="144.4"/>
		<line class="st1" x1="119.7" y1="139.4" x2="116.3" y2="131.6"/>
		<line class="st1" x1="151.8" y1="96" x2="144.2" y2="96.6"/>
		<line class="st1" x1="139.2" y1="119.9" x2="131.4" y2="116.5"/>
	</g>
</g>
</svg>
