<svg width="96" height="96" viewBox="0 0 96 96" fill="none" xmlns="http://www.w3.org/2000/svg">
<path d="M56.5001 23.5C66 22.0597 72.8546 30.3006 69.2823 44.0106C63.7095 65.3987 55.7429 75.7039 46.9077 76.8848C45.9177 77.0172 45.0656 76.2543 44.938 75.2636C41.6413 49.6667 45.0655 34.7797 46.8326 28.7445C47.0352 28.0528 47.5793 27.452 48.1448 27.0052L48.1854 26.9731C49.4138 26.0021 51.6486 24.2355 56.5001 23.5Z" fill="#D02E13"/>
<path fill-rule="evenodd" clip-rule="evenodd" d="M69.4448 26.946C66.5163 22.6582 61.6361 20.6985 56.2003 21.5226C50.8789 22.3294 48.3246 24.3137 46.9452 25.404M46.9451 25.4041L46.9048 25.436C46.9047 25.436 46.9046 25.4361 46.9046 25.4362C46.2034 25.9902 45.2855 26.9109 44.9132 28.1825C43.0747 34.4615 39.6196 49.6269 42.9543 75.5191C43.2005 77.4303 44.9136 79.1692 47.1726 78.8672C52.3275 78.1782 56.9662 74.8514 60.9548 69.1753C64.9376 63.5072 68.3995 55.3308 71.2177 44.5149C73.0984 37.297 72.3248 31.1629 69.4448 26.946M48.1854 26.9731L48.1447 27.0052C47.5793 27.452 47.0351 28.0528 46.8326 28.7445C45.0655 34.7797 41.6412 49.6667 44.9379 75.2636C45.0655 76.2543 45.9176 77.0172 46.9077 76.8848C55.7428 75.7039 63.7095 65.3987 69.2823 44.0106C72.8545 30.3007 66 22.0597 56.5001 23.5C51.6485 24.2356 49.4137 26.0021 48.1854 26.9731Z" fill="#8C0404"/>
<path d="M41 23.4999C30.5057 22.4082 23.1455 29.3006 26.7177 43.0105C32.6537 65.7925 50.8303 85.5245 50.8303 75.9999C50.8303 52.8733 49.3815 34.6847 47.8682 27.9165C47.6771 27.0616 46.8765 26.4898 46.1055 26.0739C44.6676 25.2984 43.0777 23.7161 41 23.4999Z" fill="#D02E13"/>
<path fill-rule="evenodd" clip-rule="evenodd" d="M27.0372 26.4367C30.2892 22.4693 35.5053 20.9175 41.2069 21.5106C42.6904 21.6649 43.9137 22.2982 44.8475 22.8779C45.235 23.1185 45.6108 23.375 45.9332 23.5952C45.9968 23.6386 46.0584 23.6806 46.1175 23.7208C46.5017 23.9819 46.7951 24.1735 47.0549 24.3136C47.8277 24.7304 49.4155 25.6707 49.8201 27.48C51.3858 34.483 52.8303 52.8662 52.8303 75.9999C52.8303 77.3417 52.5357 79.0217 51.1205 79.933C49.6893 80.8545 48.0788 80.3751 47.0288 79.8687C44.803 78.7954 42.1111 76.2017 39.4399 72.8716C33.9988 66.0882 27.8296 55.2097 24.7824 43.5148C22.8994 36.2879 23.788 30.4005 27.0372 26.4367ZM26.7178 43.0105C23.1455 29.3006 30.5057 22.4082 41 23.4999C42.4696 23.6528 43.6951 24.4891 44.7954 25.24C45.2507 25.5508 45.6846 25.8469 46.1055 26.0739C46.8765 26.4897 47.6771 27.0615 47.8683 27.9164C49.3815 34.6847 50.8303 52.8732 50.8303 75.9999C50.8303 85.5245 32.6537 65.7924 26.7178 43.0105Z" fill="#8C0404"/>
<path d="M46 20.5C47.5742 17.4855 48.7294 13.3694 50 12.5C51.4444 12.0185 53 12.4999 53 14.0001C51.9877 15.4858 51 16.5 51 20.5C51 25.5 57.5 28 60 30C52 32.5 39 32 35.5 30C38.5 27 43.5093 25.2698 46 20.5Z" fill="#B7BA23"/>
<path fill-rule="evenodd" clip-rule="evenodd" d="M52.4405 11.5899C53.3525 11.9866 54 12.828 54 14.0001C54 14.201 53.9395 14.3972 53.8264 14.5632C53.7214 14.7173 53.6215 14.8603 53.5266 14.9964C53.1247 15.572 52.8092 16.0239 52.5496 16.6767C52.2373 17.4621 52 18.5806 52 20.5C52 22.5195 53.3037 24.1357 55.1747 25.5843C56.0969 26.2982 57.1024 26.9297 58.0647 27.5243C58.1382 27.5697 58.2118 27.6151 58.2853 27.6604C59.1456 28.1912 59.9939 28.7145 60.6247 29.2191C60.9134 29.4501 61.0511 29.8215 60.9828 30.1849C60.9144 30.5482 60.6512 30.8442 60.2983 30.9545C56.1611 32.2473 50.796 32.7507 46.0492 32.6874C43.6684 32.6557 41.4166 32.4811 39.5242 32.1831C37.6642 31.8903 36.0443 31.4628 35.0039 30.8682C34.7333 30.7136 34.5502 30.4416 34.5089 30.1327C34.4675 29.8238 34.5725 29.5133 34.7929 29.2929C35.9342 28.1516 37.3825 27.1594 38.7897 26.1953C39.3236 25.8296 39.8515 25.4679 40.3545 25.1037C42.25 23.7312 43.9756 22.2164 45.1136 20.0371C45.6812 18.9501 46.1872 17.7264 46.6834 16.5264C46.854 16.114 47.0234 15.7043 47.1937 15.304C47.5182 14.5414 47.8485 13.809 48.1883 13.2035C48.5108 12.6287 48.9146 12.031 49.4353 11.6747C49.512 11.6222 49.5956 11.5807 49.6838 11.5513C50.5804 11.2525 51.5931 11.2213 52.4405 11.5899ZM50.4757 13.401C50.3519 13.523 50.1678 13.7629 49.9324 14.1822C49.6491 14.6871 49.354 15.3352 49.034 16.0871C48.8816 16.4452 48.7239 16.8269 48.5605 17.222C48.0563 18.4419 47.4994 19.7891 46.8864 20.9629C45.5337 23.5533 43.5093 25.2886 41.5275 26.7236C40.9187 27.1644 40.3279 27.5691 39.7606 27.9576C38.9036 28.5446 38.1004 29.0947 37.3708 29.6767C38.0394 29.874 38.8667 30.055 39.8352 30.2075C41.6147 30.4876 43.7691 30.6568 46.0758 30.6876C49.9144 30.7388 54.1015 30.4059 57.6223 29.6021C57.4841 29.5164 57.3415 29.4283 57.1946 29.3376C57.1349 29.3007 57.0745 29.2634 57.0134 29.2257C56.0538 28.6328 54.9656 27.9517 53.9503 27.1657C51.9464 25.6142 50 23.4805 50 20.5C50 18.4194 50.2565 17.0308 50.6911 15.9377C51.0443 15.0496 51.5126 14.3823 51.9261 13.7931C51.9383 13.7756 51.9506 13.7582 51.9627 13.7409C51.9462 13.6921 51.926 13.6549 51.9065 13.626C51.859 13.5559 51.779 13.4832 51.6428 13.4239C51.38 13.3096 50.9579 13.2731 50.4757 13.401Z" fill="#647307"/>
<path d="M56.9455 32.0984C67.4078 31.1602 76.7846 36.9637 74.7098 47.8624C70.2933 71.062 60.8712 77.6533 51.8663 78.3557C50.8868 78.4321 50.0467 77.7021 49.8998 76.7307C46.6017 54.9282 48.2847 40.7981 49.8188 35.3613C50.0114 34.6787 50.5859 34.1653 51.2411 33.8935C52.6376 33.3141 54.8757 32.284 56.9455 32.0984Z" fill="#FF3A1A"/>
<path fill-rule="evenodd" clip-rule="evenodd" d="M71.7734 33.9758C67.8836 30.8848 62.3741 29.6037 56.7669 30.1065C54.5828 30.3023 52.2923 31.2754 50.9324 31.8531C50.7651 31.9242 50.6119 31.9893 50.4746 32.0462C49.4379 32.4764 48.3002 33.3784 47.8939 34.8182C46.2597 40.6101 44.5964 55.0437 47.9222 77.0299C48.2113 78.9404 49.9015 80.5151 52.0218 80.3497C57.0076 79.9608 62.1148 77.9187 66.5176 72.8583C70.8685 67.8576 74.4296 60.0291 76.6746 48.2364C77.8472 42.0766 75.7636 37.1466 71.7734 33.9758ZM74.7098 47.8624C76.7846 36.9637 67.4078 31.1603 56.9455 32.0985C55.1026 32.2637 53.1262 33.0985 51.7293 33.6885C51.5573 33.7611 51.3941 33.83 51.2411 33.8935C50.5859 34.1654 50.0114 34.6787 49.8188 35.3614C48.2847 40.7981 46.6017 54.9282 49.8998 76.7307C50.0467 77.7021 50.8868 78.4321 51.8663 78.3557C60.8712 77.6533 70.2933 71.0621 74.7098 47.8624Z" fill="#A20505"/>
<path fill-rule="evenodd" clip-rule="evenodd" d="M50.3872 77.7597C50.7545 78.1631 51.2859 78.4009 51.8663 78.3557C60.8712 77.6533 70.2933 71.062 74.7098 47.8624C76.7846 36.9637 67.4078 31.1602 56.9455 32.0984C56.8381 32.1081 56.7301 32.12 56.6219 32.134C65.0027 33.0498 71.4681 38.6266 69.7098 47.8624C65.8674 68.0463 58.2362 75.659 50.3872 77.7597Z" fill="#CD2B10"/>
<path d="M39.0272 32.0825C28.5328 31.144 18.1456 38.2759 21.7178 50.0617C27.2984 68.4735 35.2795 77.3315 44.1293 78.3262C45.1053 78.4359 45.947 77.7025 46.0943 76.7315C49.4029 54.9192 47.7142 40.7833 46.1754 35.3454C45.9823 34.6631 45.4077 34.1506 44.7525 33.8796C43.352 33.3003 41.105 32.2683 39.0272 32.0825Z" fill="#FF3A1A"/>
<path fill-rule="evenodd" clip-rule="evenodd" d="M23.7541 34.8188C27.6947 31.2461 33.4955 29.5798 39.2053 30.0905C41.3944 30.2862 43.6909 31.2592 45.0552 31.8372C45.2241 31.9088 45.3786 31.9743 45.517 32.0315C46.5542 32.4605 47.6925 33.3614 48.0998 34.8008C49.7394 40.5948 51.4082 55.035 48.0716 77.0315C47.7849 78.922 46.0877 80.5589 43.9059 80.3137C33.7483 79.172 25.4153 69.1558 19.8038 50.6418C17.795 44.0144 19.7154 38.4806 23.7541 34.8188ZM21.7178 50.0617C18.1456 38.276 28.5328 31.144 39.0271 32.0825C40.8757 32.2478 42.8582 33.0829 44.2594 33.6731C44.4331 33.7463 44.598 33.8157 44.7525 33.8796C45.4077 34.1506 45.9823 34.6632 46.1754 35.3454C47.7142 40.7834 49.4029 54.9193 46.0943 76.7315C45.947 77.7025 45.1053 78.4359 44.1293 78.3262C35.2794 77.3315 27.2984 68.4736 21.7178 50.0617Z" fill="#A20505"/>
<path d="M59 54.7175C59 69.7635 53.1405 81 48 81C42.8595 81 37 68.2828 37 53.2368C37 38.1909 39.1154 33.2473 48 32.8771C58.1424 32.4546 59 39.6716 59 54.7175Z" fill="#FF3A1A"/>
<path fill-rule="evenodd" clip-rule="evenodd" d="M53.3106 80.4143C51.8419 81.9018 50.0303 83 48 83C45.8789 83 44.0487 81.7119 42.6196 80.1086C41.1511 78.461 39.8323 76.1858 38.726 73.5296C36.5077 68.2032 35 60.998 35 53.2368C35 45.7606 35.4988 40.2868 37.3926 36.6332C38.3856 34.7175 39.7673 33.2798 41.6125 32.3231C43.4142 31.389 45.533 30.9782 47.9167 30.8789C50.6704 30.7641 53.0379 31.1549 54.9823 32.2548C56.9644 33.376 58.2844 35.1073 59.1551 37.241C60.0081 39.3311 60.4546 41.8631 60.7002 44.7271C60.947 47.6049 61 50.9509 61 54.7175C61 62.4806 59.4915 69.337 57.252 74.3207C56.1347 76.8071 54.8003 78.9055 53.3106 80.4143ZM48 81C53.1405 81 59 69.7634 59 54.7175C59 39.6716 58.1424 32.4545 48 32.8771C39.1154 33.2473 37 38.1909 37 53.2368C37 68.2827 42.8595 81 48 81Z" fill="#A20505"/>
<path d="M53.3012 58.22C53.3079 58.9786 52.6983 59.599 51.9397 59.6056C51.181 59.6123 50.5607 59.0027 50.554 58.244C50.5474 57.4854 51.157 56.865 51.9156 56.8584C52.6742 56.8518 53.2946 57.4614 53.3012 58.22Z" fill="#C5270E"/>
<path d="M55.7638 62.5347C55.7704 63.2934 55.1608 63.9137 54.4022 63.9204C53.6436 63.927 53.0232 63.3174 53.0165 62.5588C53.0099 61.8002 53.6195 61.1798 54.3781 61.1732C55.1368 61.1665 55.7571 61.7761 55.7638 62.5347Z" fill="#C5270E"/>
<path d="M56.2844 54.8357C56.2894 55.4047 55.8322 55.87 55.2632 55.8749C54.6942 55.8799 54.229 55.4227 54.224 54.8538C54.219 54.2848 54.6762 53.8195 55.2452 53.8145C55.8141 53.8095 56.2794 54.2667 56.2844 54.8357Z" fill="#C5270E"/>
<path d="M55.1289 67.4614C55.1355 68.22 54.5259 68.8404 53.7673 68.847C53.0087 68.8537 52.3883 68.2441 52.3817 67.4854C52.375 66.7268 52.9846 66.1064 53.7432 66.0998C54.5019 66.0931 55.1222 66.7028 55.1289 67.4614Z" fill="#C5270E"/>
<path d="M52.3954 63.6835C52.402 64.4421 51.7924 65.0625 51.0338 65.0691C50.2752 65.0758 49.6548 64.4662 49.6481 63.7075C49.6415 62.9489 50.2511 62.3285 51.0097 62.3219C51.7683 62.3153 52.3887 62.9249 52.3954 63.6835Z" fill="#C5270E"/>
<path d="M56.759 50.3735C56.7657 51.1322 56.1561 51.7525 55.3974 51.7592C54.6388 51.7658 54.0184 51.1562 54.0118 50.3976C54.0051 49.639 54.6147 49.0186 55.3734 49.012C56.132 49.0053 56.7524 49.6149 56.759 50.3735Z" fill="#C5270E"/>
<path d="M56.7635 46.8659C56.7677 47.3527 56.3766 47.7507 55.8899 47.7549C55.4032 47.7592 55.0051 47.3681 55.0009 46.8814C54.9966 46.3946 55.3877 45.9966 55.8745 45.9923C56.3612 45.9881 56.7592 46.3792 56.7635 46.8659Z" fill="#C5270E"/>
<path d="M56.7635 58.8812C56.7677 59.3679 56.3766 59.7659 55.8899 59.7702C55.4032 59.7745 55.0051 59.3833 55.0009 58.8966C54.9966 58.4099 55.3877 58.0119 55.8745 58.0076C56.3612 58.0033 56.7592 58.3945 56.7635 58.8812Z" fill="#C5270E"/>
<path d="M53.2611 72.1701C53.2677 72.9287 52.6581 73.5491 51.8995 73.5557C51.1409 73.5623 50.5205 72.9527 50.5139 72.1941C50.5072 71.4355 51.1168 70.8151 51.8754 70.8085C52.6341 70.8018 53.2544 71.4114 53.2611 72.1701Z" fill="#C5270E"/>
<path d="M51.2362 69.0308C51.2428 69.7895 50.6332 70.4098 49.8746 70.4165C49.116 70.4231 48.4956 69.8135 48.489 69.0549C48.4823 68.2963 49.0919 67.6759 49.8505 67.6692C50.6092 67.6626 51.2295 68.2722 51.2362 69.0308Z" fill="#C5270E"/>
<path d="M50.4082 76.9777C50.4132 77.5467 49.956 78.012 49.387 78.017C48.818 78.022 48.3527 77.5648 48.3478 76.9958C48.3428 76.4268 48.8 75.9615 49.369 75.9566C49.9379 75.9516 50.4032 76.4088 50.4082 76.9777Z" fill="#C5270E"/>
<path d="M44.7563 35.0874C47.2369 35.3682 44.4015 38.1502 43.5 44.035C42.5985 49.9198 42.5 53.6043 41.5 53.4911C40 53.3213 38.3601 49.6227 38.6323 45.2343C39 39.307 42.2756 34.8065 44.7563 35.0874Z" fill="#FF8470"/>
<path d="M30.0882 35.9471C32.5689 36.2279 29.9999 38.4473 28.832 43.1755C27.9305 49.0603 27.8319 52.7448 26.8319 52.6316C25.3319 52.4618 23.6922 48.7632 23.9643 44.3747C24.2786 39.307 28.0001 35.7107 30.0882 35.9471Z" fill="#FF8470"/>
<path fill-rule="evenodd" clip-rule="evenodd" d="M43.0902 38.2291C43.5676 38.5553 43.6863 39.1502 43.3553 39.5578C42.8129 40.2259 42.4747 40.926 42.3218 41.661C42.2166 42.1668 41.6682 42.4718 41.0969 42.3422C40.5255 42.2127 40.1477 41.6977 40.2529 41.192C40.4641 40.1761 40.9282 39.2367 41.6264 38.3767C41.9574 37.969 42.6127 37.903 43.0902 38.2291Z" fill="white"/>
</svg>
