<svg width="96" height="96" viewBox="0 0 96 96" fill="none" xmlns="http://www.w3.org/2000/svg">
<path d="M70.6786 28.197C70.6786 28.197 73.8151 37.1824 72.9033 44.2058C72.1334 50.1353 64.9338 52.7962 64.9338 52.7962C64.9338 52.7962 59.539 47.082 62.0416 41.3004C65.0035 34.4578 70.6786 28.197 70.6786 28.197Z" fill="#64AC1D"/>
<path fill-rule="evenodd" clip-rule="evenodd" d="M72.5668 27.5378L70.6786 28.197L69.1967 26.8538C69.6706 26.331 70.3849 26.0966 71.0764 26.2369C71.7679 26.3773 72.3343 26.8716 72.5668 27.5378ZM69.1547 30.0026C70.0732 28.8648 70.6786 28.197 70.6786 28.197C70.6786 28.197 70.9797 29.0596 71.3682 30.4593C72.2336 33.5769 73.5326 39.3586 72.9033 44.2058C72.1334 50.1353 64.9338 52.7962 64.9338 52.7962C64.9338 52.7962 59.539 47.082 62.0416 41.3003C64.0362 36.6926 67.261 32.3486 69.1547 30.0026ZM64.9338 52.7962L65.6272 54.6722C64.8752 54.9501 64.0299 54.7522 63.4795 54.1692L64.9338 52.7962ZM64.9338 52.7962C63.4795 54.1692 63.479 54.1687 63.4785 54.1681L63.4773 54.1668L63.4746 54.1639L63.4677 54.1565L63.448 54.1354C63.4324 54.1184 63.4118 54.0959 63.3867 54.0679C63.3364 54.0119 63.2677 53.9341 63.184 53.8358C63.0169 53.6395 62.7886 53.3599 62.5265 53.0083C62.0052 52.3091 61.3346 51.3039 60.7473 50.0841C59.5904 47.6815 58.6268 44.1547 60.2062 40.5059C61.7729 36.8865 64.031 33.4719 65.8624 30.9939C66.7841 29.747 67.6107 28.7197 68.2092 28.0016C68.5087 27.6423 68.7517 27.3597 68.9216 27.1648C69.0066 27.0673 69.0734 26.9918 69.12 26.9395L69.1743 26.8787L69.1896 26.8617L69.1942 26.8566L69.1967 26.8538C69.197 26.8535 69.1967 26.8538 70.6786 28.197C72.5668 27.5378 72.5667 27.5375 72.5668 27.5378L72.5708 27.5493L72.5793 27.5739L72.6089 27.661C72.634 27.7357 72.6698 27.8432 72.7143 27.9808C72.8034 28.2558 72.9278 28.6517 73.0733 29.1468C73.3639 30.1357 73.7407 31.5275 74.0884 33.1481C74.7743 36.3459 75.3865 40.6128 74.8866 44.4633C74.4003 48.2089 71.9078 50.7834 69.8213 52.3309C68.7557 53.1213 67.7251 53.6983 66.9623 54.0781C66.579 54.269 66.258 54.4127 66.0272 54.5109C65.9117 54.56 65.8184 54.5978 65.7506 54.6246C65.7168 54.638 65.6893 54.6487 65.6686 54.6566L65.6426 54.6664L65.6336 54.6698L65.63 54.6711L65.6285 54.6717C65.6278 54.672 65.6272 54.6722 64.9338 52.7962Z" fill="#156319"/>
<path d="M82.5333 36.0528C82.5333 36.0528 79.3553 43.3945 75.5815 52.1127C72.816 58.5013 62.4544 55.828 62.4544 55.828C62.4544 55.828 60.6257 47.5649 67.0756 44.0721C74.9038 39.833 82.5333 36.0528 82.5333 36.0528Z" fill="#7CD623"/>
<path fill-rule="evenodd" clip-rule="evenodd" d="M84.3688 36.8473L82.5333 36.0528L81.6454 34.2607C82.3974 33.8881 83.3021 34.0247 83.9107 34.6027C84.5192 35.1807 84.7022 36.0771 84.3688 36.8473ZM62.4544 55.828C61.9548 57.7646 61.9554 57.7648 61.9561 57.765L61.9577 57.7654L61.9616 57.7664L61.9722 57.7691L62.0046 57.7772C62.0312 57.7837 62.0676 57.7926 62.1133 57.8033C62.2045 57.8248 62.3329 57.8539 62.4941 57.8878C62.816 57.9553 63.2708 58.0422 63.8226 58.1242C64.9182 58.287 66.4345 58.4367 68.0695 58.3642C71.2098 58.2249 75.5576 57.2025 77.4169 52.9073L84.3688 36.8473L82.5333 36.0528C81.6454 34.2608 81.6455 34.2607 81.6454 34.2607L81.2978 34.4337C81.0723 34.5461 80.7419 34.7112 80.3213 34.9225C79.4802 35.3449 78.2776 35.952 76.8298 36.692C73.9355 38.1712 70.056 40.1838 66.1233 42.3135C62.1458 44.4674 60.7667 48.1074 60.3655 50.9836C60.165 52.4206 60.1971 53.7182 60.2767 54.6522C60.3167 55.1221 60.3695 55.5081 60.4138 55.7835C60.4359 55.9214 60.4561 56.0322 60.4715 56.1126C60.4793 56.1528 60.4859 56.1855 60.491 56.2102L60.4976 56.2413L60.4999 56.2523L60.5009 56.2566L60.5013 56.2585C60.5015 56.2594 60.5017 56.2602 62.4544 55.828ZM62.4544 55.828L61.9548 57.7646C61.2259 57.5766 60.6643 56.9952 60.5017 56.2602L62.4544 55.828ZM75.5815 52.1128C72.816 58.5014 62.4544 55.828 62.4544 55.828C62.4544 55.828 60.6257 47.5649 67.0756 44.0722C71.9919 41.4099 76.8298 38.9287 79.7487 37.4511C81.4776 36.5759 82.5333 36.0528 82.5333 36.0528L75.5815 52.1128Z" fill="#156319"/>
<path d="M72.4991 53.6497C75.64 51.0163 76.8355 43.4346 76.8355 43.4346C68.9509 46.9076 65.2486 52.9344 64.1105 55.196C64.1105 55.196 69.3581 56.2832 72.4991 53.6497Z" fill="#60B110"/>
<path d="M18.7286 56.3826C23.6584 52.77 26.5438 52.0977 28.8548 51.6854C31.1659 51.2731 35.2263 49.2346 36.9057 48.7837C38.5852 48.3327 47.0317 45.3826 49.2286 50.8826C51.8623 57.4762 44.0944 61.1344 40.2324 63.01C37.1427 64.5105 35.6798 66.996 32.1489 68.3623C26.2629 70.6399 17.7286 70.3827 15.9881 68.4346C14.7089 67.0028 12.5663 60.8984 18.7286 56.3826Z" fill="#982617"/>
<path fill-rule="evenodd" clip-rule="evenodd" d="M17.5464 54.7694C22.7505 50.9558 25.9283 50.1759 28.5036 49.7165C29.4136 49.5541 30.8071 49.0313 32.3617 48.3972C32.6231 48.2906 32.8929 48.179 33.1654 48.0664C34.3452 47.5786 35.5748 47.0702 36.3871 46.8521C36.4792 46.8274 36.61 46.7889 36.7744 46.7406C37.8353 46.4287 40.2949 45.7055 42.7912 45.6032C45.6363 45.4866 49.4971 46.1632 51.0859 50.1407C51.907 52.1966 51.9498 54.1406 51.3809 55.9082C50.8263 57.6315 49.7389 59.0403 48.5375 60.1716C46.2713 62.3056 43.2244 63.7823 41.333 64.699C41.2554 64.7367 41.1797 64.7733 41.1061 64.8091C39.9365 65.3771 39.0541 66.1046 37.9586 67.0078C37.8497 67.0976 37.7388 67.189 37.6252 67.2823C36.3979 68.2899 34.9466 69.4242 32.8706 70.2275C29.641 71.4772 25.7756 72.0076 22.499 71.983C20.8541 71.9707 19.2873 71.8184 17.9698 71.5142C16.7585 71.2345 15.3683 70.7427 14.4967 69.7672C13.4714 68.6196 12.4794 66.2146 12.5688 63.4993C12.6636 60.6222 13.9648 57.394 17.5464 54.7694ZM28.8548 51.6854C26.5438 52.0977 23.6584 52.77 18.7286 56.3826C12.5663 60.8984 14.7089 67.0028 15.9881 68.4346C17.7286 70.3827 26.2629 70.6399 32.1489 68.3623C34.0851 67.6131 35.3995 66.5273 36.7012 65.452C37.7734 64.5663 38.837 63.6877 40.2324 63.01C40.2861 62.9839 40.3406 62.9575 40.3959 62.9307C44.3087 61.032 51.8256 57.3844 49.2286 50.8826C47.1932 45.7871 39.7939 47.9445 37.381 48.648C37.1894 48.7038 37.0293 48.7505 36.9057 48.7837C36.2326 48.9644 35.1771 49.4002 34.0051 49.884C32.2526 50.6074 30.2397 51.4384 28.8548 51.6854Z" fill="#470F07"/>
<path fill-rule="evenodd" clip-rule="evenodd" d="M15.6021 67.8956C15.7333 68.115 15.8647 68.2966 15.9881 68.4347C17.7286 70.3827 26.2629 70.6399 32.1489 68.3623C34.0851 67.6131 35.3995 66.5273 36.7012 65.452C37.7734 64.5663 38.837 63.6877 40.2324 63.01C40.2861 62.9839 40.3406 62.9575 40.3959 62.9307C44.3087 61.032 51.8256 57.3845 49.2285 50.8826C48.217 48.3502 45.8806 47.6093 43.4898 47.5909C43.7807 47.9579 44.0301 48.3858 44.2286 48.8826C46.8256 55.3845 39.3087 59.032 35.3959 60.9307C35.3406 60.9575 35.2861 60.9839 35.2324 61.01C33.837 61.6877 32.7734 62.5663 31.7012 63.452C30.3995 64.5273 29.0851 65.6131 27.1489 66.3623C23.5716 67.7465 19.0161 68.1945 15.6021 67.8956Z" fill="#7D1F0A"/>
<path d="M53.3092 40.734C58.6598 43.6878 59.7772 44.4805 61.1229 46.4039C62.4687 48.3274 66.0256 51.1542 67.1409 52.4884C68.2562 53.8226 73.7821 57.2757 68.9071 62.4377C64.0321 67.5998 58.9578 64.204 55.6321 61.4886C52.9716 59.3162 50.1013 59.034 47.377 56.4049C42.8357 52.0222 40.5161 43.6927 40.5161 41.7726C40.5161 36.3826 46.6209 37.0417 53.3092 40.734Z" fill="#892112"/>
<path fill-rule="evenodd" clip-rule="evenodd" d="M54.2758 38.9831C59.5822 41.9125 61.1129 42.9008 62.7617 45.2574C63.2916 46.0148 64.3519 47.0593 65.5809 48.2031C65.7876 48.3955 66.0022 48.5933 66.2189 48.7931C67.1576 49.6585 68.1359 50.5604 68.6753 51.2057C68.7223 51.2619 68.8377 51.3784 69.1029 51.6264C69.1448 51.6656 69.1896 51.7072 69.2367 51.7511C69.4502 51.9499 69.7127 52.1943 69.9792 52.4578C70.6295 53.1008 71.4333 53.9803 72.0272 55.0718C72.6346 56.1883 73.0486 57.5773 72.8252 59.1707C72.6032 60.7544 71.7846 62.3037 70.3612 63.811C68.9439 65.3117 67.4221 66.2821 65.8203 66.7642C64.217 67.2467 62.6587 67.2022 61.2278 66.8634C58.4512 66.2059 56.0443 64.4071 54.3672 63.0378C53.3601 62.2155 52.329 61.7208 51.0488 61.1066C50.9216 61.0455 50.792 60.9833 50.6596 60.9195C49.2293 60.2296 47.5899 59.3899 45.9882 57.8441C43.425 55.3705 41.5807 51.8949 40.3865 48.9078C39.7812 47.3938 39.3226 45.9543 39.0128 44.7517C38.7173 43.6049 38.5161 42.5193 38.5161 41.7727C38.5161 40.0464 39.0148 38.4824 40.2021 37.3624C41.3621 36.2681 42.8852 35.8776 44.3644 35.8479C47.2564 35.7898 50.8306 37.0812 54.2758 38.9831ZM61.1229 46.4039C59.7772 44.4805 58.6598 43.6878 53.3092 40.734C46.6209 37.0418 40.5161 36.3826 40.5161 41.7727C40.5161 43.6927 42.8357 52.0223 47.377 56.4049C48.8709 57.8466 50.4087 58.5826 51.9317 59.3116C53.1861 59.9119 54.4305 60.5075 55.6321 61.4886C58.9578 64.204 64.0321 67.5998 68.9071 62.4378C73.0578 58.0427 69.6687 54.8864 67.8816 53.2221C67.5697 52.9317 67.3066 52.6866 67.1409 52.4884C66.6939 51.9537 65.8547 51.1793 64.9229 50.3193C63.5297 49.0335 61.9294 47.5565 61.1229 46.4039Z" fill="#470F07"/>
<path fill-rule="evenodd" clip-rule="evenodd" d="M56.501 46.8978C55.334 44.861 54.2925 43.9709 49.2296 40.5473C47.545 39.4081 45.8822 38.4866 44.3398 37.849C46.7081 37.7801 49.9344 38.8709 53.3092 40.734C58.6598 43.6878 59.7771 44.4805 61.1229 46.4039C61.9293 47.5565 63.5297 49.0335 64.9229 50.3193C65.8547 51.1792 66.6939 51.9537 67.1409 52.4884C67.3066 52.6866 67.5697 52.9316 67.8815 53.2221C69.6686 54.8864 73.0577 58.0426 68.9071 62.4377C66.2809 65.2186 63.5968 65.5159 61.1595 64.7739C61.7024 64.4581 62.2529 64.0596 62.8097 63.5675C67.3393 59.564 64.2482 56.1154 62.6182 54.2969C62.3338 53.9796 62.0938 53.7119 61.9466 53.4995C61.5496 52.9267 60.7836 52.0798 59.933 51.1394C58.6612 49.7334 57.2004 48.1183 56.501 46.8978Z" fill="#731609"/>
<path d="M63.2739 58.6592C64.4962 59.153 65.0867 60.5442 64.5929 61.7665C64.0991 62.9888 62.7079 63.5794 61.4856 63.0855C60.2633 62.5917 59.6727 61.2005 60.1666 59.9782C60.6604 58.7559 62.0516 58.1653 63.2739 58.6592Z" fill="#5B0F03"/>
<path d="M61.8981 52.1464C62.7129 52.4756 63.1066 53.4031 62.7774 54.2179C62.4482 55.0328 61.5207 55.4265 60.7059 55.0973C59.891 54.768 59.4973 53.8406 59.8265 53.0257C60.1557 52.2109 61.0832 51.8172 61.8981 52.1464Z" fill="#5B0F03"/>
<path d="M58.8057 49.1807C59.2131 49.3453 59.41 49.8091 59.2454 50.2165C59.0808 50.6239 58.617 50.8208 58.2096 50.6562C57.8022 50.4915 57.6053 50.0278 57.7699 49.6204C57.9345 49.2129 58.3983 49.0161 58.8057 49.1807Z" fill="#5B0F03"/>
<path d="M65.774 54.4205C66.4208 54.6818 66.7332 55.418 66.4719 56.0647C66.2106 56.7115 65.4745 57.0239 64.8278 56.7626C64.181 56.5013 63.8685 55.7652 64.1298 55.1184C64.3911 54.4717 65.1273 54.1592 65.774 54.4205Z" fill="#5B0F03"/>
<path d="M68.1521 58.4242C68.8924 58.7233 69.2501 59.5659 68.951 60.3062C68.6519 61.0465 67.8093 61.4041 67.069 61.105C66.3287 60.8059 65.971 59.9633 66.2701 59.223C66.5692 58.4827 67.4118 58.1251 68.1521 58.4242Z" fill="#5B0F03"/>
<path d="M48.784 49.1116C47.336 49.9168 44.9458 48.3823 43.4454 45.6841C41.9449 42.9859 41.9024 40.1458 43.3504 39.3406C44.7985 38.5353 47.1887 40.0699 48.6891 42.7681C50.1896 45.4663 50.232 48.3064 48.784 49.1116Z" fill="#B73D2D"/>
<path d="M38.8794 60.3403C44.3344 57.584 45.8129 57.928 50.0901 58.047C54.3674 58.166 58.2523 58.1106 59.9804 58.3039C61.7086 58.4972 69.4806 57.6276 70.7049 63.754C72.0963 70.7165 64.2902 71.8842 59.5489 73.1275C56.2265 73.9987 51.223 74.0667 47.4369 74.0496C41.1258 74.021 34.3228 70.6063 33.3323 68.9614C32.3418 67.3165 32.1214 63.755 38.8794 60.3403Z" fill="#A8371F"/>
<path fill-rule="evenodd" clip-rule="evenodd" d="M49.1258 56.0143C49.4582 56.0261 49.7975 56.0381 50.1457 56.0478C51.7549 56.0925 53.3026 56.1123 54.7153 56.1303C55.1648 56.1361 55.6007 56.1416 56.0205 56.1478C57.712 56.1725 59.2222 56.2066 60.2028 56.3163C60.3059 56.3278 60.5129 56.3354 60.9224 56.3426C60.9689 56.3434 61.0172 56.3442 61.0671 56.3451C61.4132 56.3509 61.8372 56.3581 62.2965 56.3772C63.3464 56.4211 64.6694 56.5301 66.0124 56.8627C68.7207 57.5334 71.8416 59.236 72.6662 63.3621C73.0915 65.4906 72.8397 67.3622 71.9674 68.9459C71.1158 70.4921 69.7829 71.5638 68.3984 72.3335C66.2084 73.551 63.4283 74.2308 61.3131 74.748C60.8594 74.8589 60.4364 74.9624 60.0562 75.0621C56.4341 76.0119 51.1573 76.0665 47.4279 76.0496C43.9468 76.0338 40.4106 75.0927 37.6359 73.9642C36.2408 73.3969 34.9922 72.7636 34.0001 72.1383C33.101 71.5717 32.1287 70.8397 31.619 69.9931C30.8252 68.6749 30.4153 66.6914 31.3677 64.5133C32.2918 62.3999 34.3782 60.3739 37.9775 58.5553C40.7891 57.1346 42.7381 56.4281 44.6227 56.1386C46.1244 55.9079 47.5479 55.9584 49.1258 56.0143ZM48.9934 58.0117C45.5129 57.8912 43.8411 57.8333 38.8794 60.3403C32.1214 63.755 32.3418 67.3165 33.3323 68.9614C34.3228 70.6063 41.1258 74.021 47.4369 74.0496C51.223 74.0667 56.2265 73.9987 59.5489 73.1275C59.9914 73.0114 60.4606 72.8961 60.9466 72.7766C65.6672 71.6157 71.9665 70.0667 70.7049 63.754C69.6531 58.4905 63.7682 58.391 61.0353 58.3448C60.5872 58.3373 60.2239 58.3311 59.9804 58.3039C58.9091 58.184 57.009 58.1598 54.7003 58.1303C53.2848 58.1122 51.7158 58.0922 50.0901 58.047C49.7033 58.0362 49.3394 58.0236 48.9934 58.0117Z" fill="#470F07"/>
<path fill-rule="evenodd" clip-rule="evenodd" d="M33.5958 69.3015C35.201 71.0339 41.5341 74.0228 47.4369 74.0496C51.223 74.0667 56.2265 73.9987 59.5489 73.1275C59.9914 73.0114 60.4607 72.8961 60.9466 72.7766C65.6672 71.6157 71.9665 70.0667 70.7049 63.754C70.178 61.1171 68.4381 59.7763 66.4891 59.0889C67.0562 59.7837 67.4856 60.6566 67.7049 61.754C68.9665 68.0667 62.6672 69.6157 57.9466 70.7766C57.4607 70.8961 56.9914 71.0114 56.5489 71.1275C53.2265 71.9987 48.223 72.0667 44.4369 72.0496C40.5064 72.0318 36.385 70.7006 33.5958 69.3015Z" fill="#7D1F0A"/>
<path d="M53.0631 63.7529C47.5694 63.9124 43.7557 65.0414 42.5355 65.5859C40.5627 66.9639 48.1572 67.5113 52.2011 67.6128C60.2474 68.4504 61.9224 66.542 61.7542 65.4831C61.1245 63.6424 59.9301 63.5536 53.0631 63.7529Z" fill="#E1723F"/>
<path fill-rule="evenodd" clip-rule="evenodd" d="M41.5465 63.8372L41.7204 63.7596C43.228 63.0868 47.3094 61.9191 53.0051 61.7538C56.338 61.6571 58.6137 61.6108 60.1096 61.8861C60.9158 62.0344 61.7216 62.3096 62.3984 62.8902C63.0852 63.4794 63.4306 64.2046 63.6465 64.8357L63.7023 64.9989L63.7294 65.1692C64.0402 67.1251 62.4933 68.5087 60.7349 69.1411C58.9253 69.7919 56.1653 70.0296 52.0726 69.6101C50.0227 69.5565 47.0655 69.3915 44.817 69.0562C43.7513 68.8973 42.5695 68.6646 41.7567 68.2617C41.5335 68.1511 41.2472 67.9847 40.9816 67.7361C40.7162 67.4877 40.3661 67.0557 40.2509 66.4225C39.9948 65.015 41.0503 64.1838 41.3903 63.9463L41.5465 63.8372ZM52.2011 67.6128C60.2474 68.4504 61.9224 66.542 61.7542 65.4831C61.1245 63.6425 59.9301 63.5536 53.0631 63.753C49.3231 63.8615 46.3618 64.4194 44.4672 64.9363C44.2814 64.987 44.1059 65.0373 43.9409 65.0868C43.3169 65.2738 42.8436 65.4485 42.5356 65.586C41.9423 66.0003 42.2142 66.3396 42.9945 66.6142C43.0968 66.6502 43.2079 66.6851 43.3269 66.719C43.5242 66.775 43.7432 66.828 43.9804 66.8782C44.1632 66.9169 44.3568 66.9538 44.5595 66.9891C46.749 67.3704 50.0007 67.5576 52.2011 67.6128ZM43.5329 64.6777C43.5263 64.6744 43.5272 64.6745 43.5343 64.6784C43.5338 64.6782 43.5334 64.678 43.5329 64.6777Z" fill="#712300"/>
<path d="M48.5263 64.5161C46.1832 64.7778 44.593 65.3971 44.0908 65.674C43.2965 66.3355 46.5631 66.3037 48.2956 66.2051C51.7657 66.2821 52.4137 65.4032 52.3039 64.954C51.9689 64.1852 51.4551 64.189 48.5263 64.5161Z" fill="#FFBA9B"/>
<path d="M47.3008 65.1008C46.5071 65.1695 45.9795 65.4307 45.8149 65.5527C45.5602 65.8544 46.675 65.9205 47.2642 65.9158C47.7286 65.9634 48.7286 65.8828 48.6019 65.408C48.5086 65.0581 48.2929 65.015 47.3008 65.1008Z" fill="white"/>
<path d="M27.2031 55.068C28.144 56.4317 26.5115 59.1899 23.5567 61.2287C20.602 63.2674 17.4439 63.8146 16.5029 62.4508C15.562 61.0871 17.1945 58.3289 20.1493 56.2901C23.104 54.2514 26.2621 53.7042 27.2031 55.068Z" fill="#CC4836"/>
<path fill-rule="evenodd" clip-rule="evenodd" d="M23.123 56.4354C23.37 56.9294 23.1697 57.53 22.6758 57.777C22.3842 57.9228 21.9079 58.1948 21.4675 58.5157C20.9895 58.8641 20.7072 59.1614 20.623 59.3298C20.376 59.8238 19.7753 60.024 19.2813 59.777C18.7874 59.53 18.5871 58.9294 18.8341 58.4354C19.1499 57.8038 19.7842 57.2678 20.2896 56.8995C20.8326 56.5037 21.4063 56.1757 21.7813 55.9882C22.2753 55.7412 22.876 55.9414 23.123 56.4354Z" fill="white"/>
</svg>
