<svg width="96" height="96" viewBox="0 0 96 96" fill="none" xmlns="http://www.w3.org/2000/svg">
<path d="M69.8896 51.8406C70.5219 61.0487 63.4962 70.0836 52.8764 72.9472C42.2945 75.8005 31.7207 71.562 27.6114 63.3408C25.8159 63.8022 23.9853 62.7571 23.5095 60.9906C23.0337 59.2241 24.0916 57.4002 25.8757 56.8963C25.2999 47.7223 32.3133 38.7415 42.8953 35.8882C53.5151 33.0246 64.1266 37.3038 68.2041 45.5828C69.7259 45.5444 71.1271 46.5281 71.5345 48.0409C71.942 49.5538 71.2246 51.1088 69.8896 51.8406Z" fill="#C5EC1A"/>
<path fill-rule="evenodd" clip-rule="evenodd" d="M71.9285 52.8168C72.0264 62.7381 64.3457 71.926 53.3971 74.8782C42.5849 77.7937 31.4754 73.8495 26.4818 65.4426C24.2333 65.3283 22.1991 63.8158 21.5783 61.5107C20.9575 59.2058 21.9566 56.8757 23.8432 55.6469C23.9384 45.8682 31.5621 36.8726 42.3746 33.9571C53.3231 31.0049 64.5784 35.0868 69.4767 43.7142C71.3427 44.1353 72.9306 45.5339 73.4657 47.5208C74.0009 49.5077 73.3303 51.5149 71.9285 52.8168ZM69.8896 51.8406C70.5219 61.0487 63.4962 70.0836 52.8764 72.9472C42.2945 75.8005 31.7207 71.562 27.6114 63.3408C25.8159 63.8021 23.9853 62.7571 23.5095 60.9906C23.0337 59.2241 24.0916 57.4002 25.8757 56.8963C25.2999 47.7223 32.3133 38.7415 42.8953 35.8882C53.5151 33.0246 64.1266 37.3038 68.2041 45.5828C69.7259 45.5444 71.1271 46.5281 71.5345 48.0409C71.942 49.5538 71.2246 51.1088 69.8896 51.8406Z" fill="#6D7D0A"/>
<path d="M48.7692 42.7817C50.1959 45.9092 47.5495 50.1793 42.8583 52.3194C38.1671 54.4594 33.2076 53.6589 31.7809 50.5315C30.3542 47.404 33.0006 43.1339 37.6918 40.9938C42.383 38.8538 47.3425 39.6543 48.7692 42.7817Z" fill="#D4F73F"/>
<path fill-rule="evenodd" clip-rule="evenodd" d="M47.127 68.1066C58.9822 64.9099 66.3584 54.0226 63.6022 43.789C62.9983 41.5469 61.9582 39.5223 60.5773 37.761C63.8885 39.5917 66.5707 42.2665 68.2042 45.5832C69.726 45.5447 71.1271 46.5284 71.5346 48.0413C71.942 49.5541 71.2246 51.1091 69.8896 51.841C70.5219 61.049 63.4963 70.0839 52.8765 72.9475C43.6186 75.4438 34.3671 72.512 29.4451 66.2341C34.3992 68.9732 40.7617 69.823 47.127 68.1066ZM25.1917 63.0701C24.6188 62.5037 24.0855 61.9014 23.5964 61.2654C23.8887 62.0672 24.4701 62.6968 25.1917 63.0701Z" fill="#A9D61B"/>
<path d="M65.7152 61.2707C65.1354 62.0697 64.0177 62.2472 63.2188 61.6674C62.4199 61.0876 62.2423 59.9699 62.8222 59.171C63.402 58.3721 64.5197 58.1945 65.3186 58.7743C66.1175 59.3542 66.2951 60.4718 65.7152 61.2707Z" fill="#98C018"/>
<path d="M67.349 56.4353C66.9141 57.0345 66.0758 57.1677 65.4766 56.7328C64.8774 56.2979 64.7443 55.4597 65.1791 54.8605C65.614 54.2613 66.4523 54.1281 67.0515 54.563C67.6506 54.9979 67.7838 55.8361 67.349 56.4353Z" fill="#98C018"/>
<path d="M62.0406 66.3337C61.4608 67.1326 60.3431 67.3102 59.5442 66.7303C58.7453 66.1505 58.5677 65.0328 59.1475 64.2339C59.7274 63.435 60.8451 63.2574 61.644 63.8372C62.4429 64.4171 62.6205 65.5348 62.0406 66.3337Z" fill="#98C018"/>
<path d="M60.8007 60.2909C60.2209 61.0898 59.1032 61.2674 58.3043 60.6875C57.5054 60.1077 57.3278 58.99 57.9077 58.1911C58.4875 57.3922 59.6052 57.2146 60.4041 57.7945C61.203 58.3743 61.3806 59.492 60.8007 60.2909Z" fill="#98C018"/>
<path d="M56.9979 68.5735C56.418 69.3724 55.3003 69.55 54.5014 68.9702C53.7025 68.3904 53.5249 67.2727 54.1048 66.4738C54.6846 65.6749 55.8023 65.4973 56.6012 66.0771C57.4001 66.6569 57.5777 67.7746 56.9979 68.5735Z" fill="#98C018"/>
<path d="M55.2331 63.2542C54.6532 64.0531 53.5355 64.2307 52.7366 63.6509C51.9377 63.071 51.7602 61.9533 52.34 61.1544C52.9198 60.3555 54.0375 60.1779 54.8364 60.7578C55.6353 61.3376 55.8129 62.4553 55.2331 63.2542Z" fill="#98C018"/>
<path d="M51.2176 70.4517C50.7827 71.0509 49.9444 71.1841 49.3452 70.7492C48.7461 70.3143 48.6129 69.4761 49.0478 68.8769C49.4826 68.2777 50.3209 68.1445 50.9201 68.5794C51.5193 69.0143 51.6525 69.8526 51.2176 70.4517Z" fill="#98C018"/>
<path d="M47.0869 71.1027C46.7093 71.623 45.9813 71.7387 45.461 71.3611C44.9407 70.9834 44.8251 70.2555 45.2027 69.7352C45.5803 69.2149 46.3083 69.0992 46.8286 69.4769C47.3489 69.8545 47.4645 70.5824 47.0869 71.1027Z" fill="#98C018"/>
<path d="M52.0869 66.8171C51.7093 67.3374 50.9814 67.4531 50.4611 67.0754C49.9407 66.6978 49.8251 65.9699 50.2027 65.4495C50.5804 64.9292 51.3083 64.8136 51.8286 65.1912C52.3489 65.5689 52.4646 66.2968 52.0869 66.8171Z" fill="#98C018"/>
<path fill-rule="evenodd" clip-rule="evenodd" d="M39.804 44.5234C40.298 45.5113 39.8976 46.7127 38.9096 47.2067C38.1185 47.6022 37.4857 48.1142 36.9835 48.7419C36.2935 49.6044 35.0349 49.7443 34.1724 49.0543C33.3099 48.3642 33.17 47.1056 33.8601 46.2431C34.741 45.1419 35.8372 44.2707 37.1208 43.6289C38.1087 43.135 39.3101 43.5354 39.804 44.5234Z" fill="white"/>
<path d="M28 58.5C28 59.3284 27.3284 60 26.5 60C25.6716 60 25 59.3284 25 58.5C25 57.6716 25.6716 57 26.5 57C27.3284 57 28 57.6716 28 58.5Z" fill="#D4F63F"/>
<path fill-rule="evenodd" clip-rule="evenodd" d="M67.7547 50.7871C69.4294 50.7871 70.7871 49.4294 70.7871 47.7547C70.7871 47.2292 70.6534 46.735 70.4182 46.3041C71.3607 46.8184 72 47.8184 72 48.9676C72 50.6424 70.6424 52 68.9676 52C67.8184 52 66.8184 51.3607 66.3041 50.4182C66.735 50.6534 67.2292 50.7871 67.7547 50.7871Z" fill="#89B00E"/>
</svg>
