<svg width="96" height="96" viewBox="0 0 96 96" fill="none" xmlns="http://www.w3.org/2000/svg">
<path d="M62.1672 60.358C63.1367 58.0806 66.589 48.1512 68.1939 43.4712L71.989 44.4153C71.0452 48.4622 70.2431 59.5335 70.1722 62.3494C70.1014 65.1652 68.2459 68.5467 64.897 67.8413C61.6827 67.1642 60.9553 63.2048 62.1672 60.358Z" fill="#D9B59A"/>
<path fill-rule="evenodd" clip-rule="evenodd" d="M66.8971 41.0877L74.3843 42.9502L73.9367 44.8695C73.5014 46.7362 73.0743 50.3794 72.7452 54.0239C72.4193 57.6338 72.2054 61.0558 72.1716 62.3997C72.1272 64.1687 71.5336 66.1621 70.3229 67.6687C69.0446 69.2594 67.0205 70.3325 64.4848 69.7984C62.0108 69.2772 60.5522 67.4593 59.9578 65.4918C59.3805 63.5811 59.5509 61.3978 60.327 59.5747C61.2601 57.3827 64.6812 47.5491 66.3021 42.8225L66.8971 41.0877ZM71.989 44.4153C71.0453 48.4622 70.2431 59.5336 70.1723 62.3494C70.1015 65.1653 68.2459 68.5467 64.897 67.8413C61.6827 67.1642 60.9553 63.2049 62.1672 60.3581C63.1367 58.0806 66.589 48.1512 68.194 43.4713L71.989 44.4153Z" fill="#9A7E6F"/>
<path fill-rule="evenodd" clip-rule="evenodd" d="M70.3474 59.0149C69.4657 59.0486 68.469 58.9546 67.3552 58.7014C65.7609 58.339 64.4562 57.745 63.4381 57.0171C64.8937 53.0222 67.0297 46.8659 68.1939 43.4713L71.9889 44.4154C71.2765 47.4701 70.6448 54.5272 70.3474 59.0149Z" fill="#9A7E6F"/>
<path d="M81.7463 47.8889C80.6339 53.1702 77.1556 54.6582 68.199 52.7717C58.0976 50.6439 56.6599 48.1204 57.7724 42.8391C58.8848 37.5578 65.9928 34.1969 71.8516 35.431C77.037 36.5232 82.8587 42.6076 81.7463 47.8889Z" fill="#D28E2E"/>
<path fill-rule="evenodd" clip-rule="evenodd" d="M78.6151 54.8914C75.9127 55.9026 72.3105 55.6816 67.7868 54.7287C62.7549 53.6688 59.2876 52.4202 57.3323 50.3674C55.1391 48.0647 55.2239 45.2345 55.8153 42.4269C56.5347 39.0116 59.1292 36.4321 62.1259 34.9089C65.1392 33.3772 68.8441 32.7536 72.2638 33.4739C75.3767 34.1296 78.4969 36.2127 80.6863 38.7959C82.8571 41.3569 84.438 44.8137 83.7034 48.3011C83.0595 51.3577 81.5947 53.7765 78.6151 54.8914ZM68.199 52.7717C77.1556 54.6583 80.6339 53.1702 81.7463 47.8889C82.8588 42.6076 77.037 36.5232 71.8516 35.431C65.9928 34.1969 58.8848 37.5578 57.7724 42.8391C56.66 48.1204 58.0977 50.644 68.199 52.7717Z" fill="#8D590F"/>
<path fill-rule="evenodd" clip-rule="evenodd" d="M65.668 48.0669C74.338 51.0013 77.9088 50.1108 79.492 45.4332C80.1189 43.581 79.6839 41.4667 78.6179 39.4829C80.9019 41.8992 82.3521 45.0131 81.7464 47.8889C80.6339 53.1702 77.1556 54.6582 68.1991 52.7717C58.9878 50.8314 56.9806 48.5621 57.5419 44.1726C59.0602 45.4729 61.6325 46.701 65.668 48.0669Z" fill="#B6771E"/>
<path d="M77.5087 48.622C77.0336 48.8482 76.4652 48.6464 76.2391 48.1714C76.0129 47.6964 76.2147 47.128 76.6897 46.9018C77.1647 46.6757 77.7331 46.8774 77.9593 47.3525C78.1854 47.8275 77.9837 48.3959 77.5087 48.622Z" fill="#985C08"/>
<path d="M77.359 52.1051C76.884 52.3313 76.3156 52.1295 76.0894 51.6545C75.8633 51.1795 76.065 50.6111 76.54 50.3849C77.0151 50.1588 77.5835 50.3605 77.8096 50.8356C78.0358 51.3106 77.834 51.879 77.359 52.1051Z" fill="#985C08"/>
<path d="M79.8804 49.7998C79.5241 49.9694 79.0978 49.8181 78.9282 49.4619C78.7586 49.1056 78.9099 48.6793 79.2662 48.5097C79.6224 48.3401 80.0488 48.4914 80.2184 48.8476C80.388 49.2039 80.2367 49.6302 79.8804 49.7998Z" fill="#985C08"/>
<path d="M74.0758 53.1474C73.6008 53.3735 73.0324 53.1718 72.8062 52.6967C72.5801 52.2217 72.7818 51.6533 73.2568 51.4272C73.7319 51.201 74.3003 51.4028 74.5264 51.8778C74.7526 52.3528 74.5508 52.9212 74.0758 53.1474Z" fill="#985C08"/>
<path d="M74.7298 49.9873C74.2548 50.2134 73.6864 50.0117 73.4603 49.5366C73.2341 49.0616 73.4359 48.4932 73.9109 48.2671C74.3859 48.0409 74.9543 48.2427 75.1805 48.7177C75.4066 49.1927 75.2049 49.7611 74.7298 49.9873Z" fill="#985C08"/>
<path d="M70.2762 52.722C69.8012 52.9482 69.2328 52.7464 69.0067 52.2714C68.7805 51.7964 68.9823 51.228 69.4573 51.0018C69.9323 50.7757 70.5007 50.9774 70.7269 51.4524C70.953 51.9275 70.7512 52.4959 70.2762 52.722Z" fill="#985C08"/>
<path d="M71.3647 49.9018C70.8897 50.1279 70.3213 49.9262 70.0952 49.4511C69.869 48.9761 70.0708 48.4077 70.5458 48.1816C71.0208 47.9554 71.5892 48.1572 71.8154 48.6322C72.0415 49.1072 71.8397 49.6756 71.3647 49.9018Z" fill="#985C08"/>
<path d="M66.7548 51.4139C66.3985 51.5835 65.9722 51.4322 65.8026 51.0759C65.633 50.7197 65.7843 50.2934 66.1406 50.1238C66.4968 49.9541 66.9231 50.1055 67.0927 50.4617C67.2624 50.818 67.111 51.2443 66.7548 51.4139Z" fill="#985C08"/>
<path d="M73.7424 41.41C73.4433 43.205 70.9525 44.2855 68.1789 43.8234C65.4053 43.3613 63.3993 41.5315 63.6984 39.7365C63.9974 37.9415 66.4883 36.861 69.2619 37.3231C72.0355 37.7852 74.0415 39.615 73.7424 41.41Z" fill="#EBB161"/>
<path d="M37.9558 69.052C37.941 63.7757 36.6786 41.3264 36.0493 30.7613L42.5461 29.9445C43.7772 38.7625 49.8974 61.6127 51.66 67.329C53.4226 73.0453 52.801 81.1771 47.1528 82.1547C41.7316 83.0931 37.9742 75.6473 37.9558 69.052Z" fill="#E5DDDA"/>
<path fill-rule="evenodd" clip-rule="evenodd" d="M33.9412 29.0106L44.2541 27.714L44.5275 29.6722C45.735 38.3216 51.8138 61.0429 53.5716 66.7437C54.5349 69.8676 54.8687 73.6874 54.1379 76.9584C53.4072 80.2292 51.4487 83.4411 47.4982 84.1249C43.6382 84.793 40.6611 82.3863 38.8363 79.4918C36.9928 76.5676 35.9654 72.6799 35.9552 69.0534C35.9407 63.8501 34.6839 41.4798 34.0523 30.876L33.9412 29.0106ZM42.5461 29.9445C43.7772 38.7625 49.8973 61.6127 51.6599 67.329C53.4225 73.0453 52.801 81.177 47.1528 82.1547C41.7316 83.0931 37.9742 75.6473 37.9558 69.052C37.941 63.7757 36.6786 41.3264 36.0493 30.7613L42.5461 29.9445Z" fill="#B5A7A3"/>
<path fill-rule="evenodd" clip-rule="evenodd" d="M36.0934 31.5043L40.5461 30.9445C41.7772 39.7625 47.8974 62.6127 49.66 68.329C51.1158 73.0505 50.9451 79.4199 47.6589 82.0447C52.8369 80.6801 53.3684 72.8698 51.66 67.329C49.8974 61.6127 43.7772 38.7625 42.5461 29.9445L36.0493 30.7613C36.0637 31.0029 36.0784 31.2507 36.0934 31.5043Z" fill="#CEC0BA"/>
<path fill-rule="evenodd" clip-rule="evenodd" d="M48.0416 54.2269C46.3492 55.0677 44.2901 55.7112 41.8276 56.0758C40.2846 56.3043 38.8257 56.3747 37.4582 56.3092C37.0311 47.6949 36.4265 37.0935 36.0493 30.7613L42.5461 29.9445C43.2844 35.2327 45.781 45.5675 48.0416 54.2269Z" fill="#B5A7A2"/>
<path d="M61.6708 29.5505C63.3847 40.0132 58.2467 45.1805 41.0216 48.0021C21.5948 51.1844 17.2784 47.5659 15.5644 37.1032C13.8505 26.6405 24.1265 15.4944 35.3941 13.6486C45.3665 12.015 59.9568 19.0878 61.6708 29.5505Z" fill="#C5752B"/>
<path fill-rule="evenodd" clip-rule="evenodd" d="M59.7992 43.1166C56.1137 46.4922 50.0076 48.5568 41.3449 49.9758C31.6473 51.5644 25.1246 51.5885 20.7741 49.4672C16.1334 47.2044 14.4724 42.8088 13.5908 37.4265C12.6098 31.4382 15.0774 25.4578 19.1024 20.8317C23.1359 16.196 28.9259 12.6815 35.0708 11.6749C40.5986 10.7694 47.1968 12.2771 52.6095 15.32C58.0054 18.3535 62.6517 23.1671 63.6445 29.2272C64.5663 34.8547 63.693 39.5501 59.7992 43.1166ZM41.0216 48.0021C58.2467 45.1805 63.3847 40.0132 61.6708 29.5505C59.9569 19.0877 45.3665 12.015 35.3941 13.6486C24.1266 15.4944 13.8505 26.6405 15.5645 37.1032C17.2784 47.5659 21.5948 51.1844 41.0216 48.0021Z" fill="#81460F"/>
<path d="M21.5019 36.7492C21.9743 37.6002 21.6132 38.7031 20.6955 39.2124C19.7777 39.7217 18.6508 39.4447 18.1785 38.5937C17.7062 37.7426 18.0672 36.6398 18.985 36.1304C19.9027 35.6211 21.0296 35.8981 21.5019 36.7492Z" fill="#AB621D"/>
<path d="M25.1894 43.4846C25.6618 44.3356 25.3007 45.4385 24.383 45.9478C23.4652 46.4572 22.3383 46.1801 21.866 45.3291C21.3937 44.478 21.7547 43.3752 22.6725 42.8658C23.5902 42.3565 24.7171 42.6335 25.1894 43.4846Z" fill="#AB621D"/>
<path d="M28.1894 37.5049C28.6618 38.356 28.3007 39.4588 27.383 39.9681C26.4652 40.4775 25.3383 40.2005 24.866 39.3494C24.3937 38.4983 24.7547 37.3955 25.6725 36.8862C26.5902 36.3768 27.7171 36.6538 28.1894 37.5049Z" fill="#AB621D"/>
<path d="M33.2234 45.5187C33.6957 46.3698 33.3346 47.4726 32.4169 47.982C31.4992 48.4913 30.3723 48.2143 29.8999 47.3633C29.4276 46.5122 29.7887 45.4094 30.7064 44.9C31.6241 44.3907 32.751 44.6677 33.2234 45.5187Z" fill="#AB621D"/>
<path d="M38.1438 39.0931C38.6161 39.9442 38.255 41.047 37.3373 41.5564C36.4196 42.0657 35.2927 41.7887 34.8203 40.9377C34.348 40.0866 34.7091 38.9838 35.6268 38.4744C36.5445 37.9651 37.6714 38.2421 38.1438 39.0931Z" fill="#AB621D"/>
<path d="M44.2278 41.7363C44.7001 42.5874 44.339 43.6902 43.4213 44.1996C42.5036 44.7089 41.3767 44.4319 40.9043 43.5808C40.432 42.7298 40.793 41.6269 41.7108 41.1176C42.6285 40.6083 43.7554 40.8853 44.2278 41.7363Z" fill="#AB621D"/>
<path d="M52.021 32.5219C52.4933 33.373 52.1322 34.4758 51.2145 34.9852C50.2968 35.4945 49.1699 35.2175 48.6975 34.3664C48.2252 33.5154 48.5863 32.4125 49.504 31.9032C50.4217 31.3938 51.5486 31.6709 52.021 32.5219Z" fill="#AB621D"/>
<path d="M43.4961 33.1407C43.9684 33.9918 43.6073 35.0946 42.6896 35.6039C41.7719 36.1133 40.645 35.8363 40.1726 34.9852C39.7003 34.1341 40.0614 33.0313 40.9791 32.522C41.8968 32.0126 43.0237 32.2896 43.4961 33.1407Z" fill="#AB621D"/>
<path d="M46.2087 25.4076C46.6811 26.2587 46.32 27.3615 45.4022 27.8708C44.4845 28.3802 43.3576 28.1032 42.8853 27.2521C42.4129 26.401 42.774 25.2982 43.6917 24.7889C44.6095 24.2795 45.7364 24.5565 46.2087 25.4076Z" fill="#AB621D"/>
<path d="M46.2087 18.0883C46.6811 18.9394 46.32 20.0422 45.4022 20.5516C44.4845 21.0609 43.3576 20.7839 42.8853 19.9328C42.4129 19.0818 42.774 17.9789 43.6917 17.4696C44.6095 16.9602 45.7364 17.2373 46.2087 18.0883Z" fill="#AB621D"/>
<path d="M53.5168 23.7139C53.9892 24.5649 53.6281 25.6678 52.7104 26.1771C51.7926 26.6865 50.6657 26.4095 50.1934 25.5584C49.721 24.7073 50.0821 23.6045 50.9998 23.0951C51.9176 22.5858 53.0445 22.8628 53.5168 23.7139Z" fill="#AB621D"/>
<path d="M59.0515 28.4896C59.5238 29.3407 59.1628 30.4435 58.245 30.9529C57.3273 31.4622 56.2004 31.1852 55.7281 30.3341C55.2557 29.4831 55.6168 28.3802 56.5345 27.8709C57.4523 27.3615 58.5791 27.6386 59.0515 28.4896Z" fill="#AB621D"/>
<path d="M59.3559 38.7111C59.8283 39.5622 59.4672 40.665 58.5495 41.1744C57.6317 41.6837 56.5048 41.4067 56.0325 40.5556C55.5602 39.7046 55.9212 38.6017 56.839 38.0924C57.7567 37.583 58.8836 37.8601 59.3559 38.7111Z" fill="#AB621D"/>
<path d="M52.415 42.1752C52.8874 43.0262 52.5263 44.1291 51.6085 44.6384C50.6908 45.1478 49.5639 44.8708 49.0916 44.0197C48.6192 43.1686 48.9803 42.0658 49.898 41.5564C50.8158 41.0471 51.9427 41.3241 52.415 42.1752Z" fill="#AB621D"/>
<path fill-rule="evenodd" clip-rule="evenodd" d="M37.0216 45.0021C54.2467 42.1805 59.3847 37.0132 57.6707 26.5505C57.1094 23.1237 55.1668 20.0606 52.4576 17.5479C57.1738 20.4171 60.8606 24.6051 61.6707 29.5505C63.3847 40.0132 58.2467 45.1805 41.0216 48.0021C27.7523 50.1758 21.5327 49.1766 18.3768 44.9907C22.1312 46.4912 27.9169 46.4936 37.0216 45.0021Z" fill="#AB621D"/>
<path d="M55.8207 33.6475C55.2089 34.2577 54.2183 34.2564 53.6081 33.6446C52.9979 33.0328 52.9993 32.0421 53.6111 31.432C54.2229 30.8218 55.2135 30.8231 55.8237 31.4349C56.4339 32.0468 56.4325 33.0374 55.8207 33.6475Z" fill="#985210"/>
<path d="M57.4953 39.1231C56.8834 39.7333 55.8928 39.732 55.2827 39.1202C54.6725 38.5083 54.6738 37.5177 55.2856 36.9075C55.8975 36.2974 56.8881 36.2987 57.4982 36.9105C58.1084 37.5223 58.1071 38.513 57.4953 39.1231Z" fill="#985210"/>
<path d="M60.138 34.1733C59.6792 34.631 58.9362 34.63 58.4786 34.1711C58.0209 33.7122 58.0219 32.9693 58.4808 32.5117C58.9397 32.054 59.6826 32.055 60.1403 32.5139C60.5979 32.9728 60.5969 33.7157 60.138 34.1733Z" fill="#985210"/>
<path d="M52.9814 42.534C52.3695 43.1442 51.3789 43.1429 50.7687 42.531C50.1586 41.9192 50.1599 40.9286 50.7717 40.3184C51.3835 39.7083 52.3742 39.7096 52.9843 40.3214C53.5945 40.9332 53.5932 41.9239 52.9814 42.534Z" fill="#985210"/>
<path d="M52.2648 37.2825C51.653 37.8927 50.6624 37.8913 50.0522 37.2795C49.442 36.6677 49.4434 35.6771 50.0552 35.0669C50.667 34.4567 51.6576 34.4581 52.2678 35.0699C52.8779 35.6817 52.8766 36.6723 52.2648 37.2825Z" fill="#985210"/>
<path d="M46.8649 43.9549C46.2531 44.565 45.2625 44.5637 44.6523 43.9519C44.0421 43.3401 44.0435 42.3494 44.6553 41.7393C45.2671 41.1291 46.2577 41.1304 46.8679 41.7423C47.478 42.3541 47.4767 43.3447 46.8649 43.9549Z" fill="#985210"/>
<path d="M47.007 38.9917C46.3952 39.6019 45.4045 39.6006 44.7944 38.9887C44.1842 38.3769 44.1855 37.3863 44.7974 36.7761C45.4092 36.166 46.3998 36.1673 47.01 36.7791C47.6201 37.3909 47.6188 38.3816 47.007 38.9917Z" fill="#985210"/>
<path d="M40.6959 43.8563C40.237 44.314 39.4941 44.313 39.0364 43.8541C38.5788 43.3952 38.5798 42.6523 39.0387 42.1946C39.4975 41.737 40.2405 41.738 40.6981 42.1969C41.1557 42.6557 41.1547 43.3987 40.6959 43.8563Z" fill="#985210"/>
<path d="M38.7875 20.2722C40.5798 23.5016 38.014 28.35 33.0566 31.1013C28.0992 33.8527 22.6274 33.4652 20.8351 30.2359C19.0428 27.0065 21.6086 22.1581 26.566 19.4067C31.5235 16.6554 36.9952 17.0429 38.7875 20.2722Z" fill="#E6872F"/>
<path fill-rule="evenodd" clip-rule="evenodd" d="M30.4094 22.4546C30.5097 23.2769 29.9244 24.0248 29.102 24.1251C28.845 24.1565 28.3041 24.2849 27.7268 24.5733C27.1542 24.8594 26.6375 25.2567 26.2995 25.7716C25.845 26.4642 24.9151 26.6572 24.2225 26.2027C23.5299 25.7482 23.3369 24.8183 23.7914 24.1257C24.5035 23.0406 25.4972 22.3337 26.386 21.8896C27.2702 21.4478 28.1418 21.22 28.7389 21.1472C29.5612 21.0469 30.3091 21.6322 30.4094 22.4546Z" fill="white"/>
<path d="M45.5826 69.6851C46.3096 74.5673 45.5428 78.727 43.8699 78.9762C42.197 79.2253 40.2514 75.4694 39.5244 70.5872C38.7974 65.705 39.5642 61.5452 41.2371 61.2961C42.91 61.047 44.8556 64.8029 45.5826 69.6851Z" fill="#F2EDEB"/>
</svg>
