<svg width="96" height="96" viewBox="0 0 96 96" fill="none" xmlns="http://www.w3.org/2000/svg">
<path fill-rule="evenodd" clip-rule="evenodd" d="M80.4097 37.6344C80.962 37.6344 81.4097 38.0821 81.4097 38.6344C81.4097 40.8078 80.2099 42.67 78.8805 44.0525C77.5388 45.4479 75.9412 46.4867 74.8569 47.0288C74.3629 47.2758 73.7622 47.0756 73.5153 46.5816C73.2683 46.0876 73.4685 45.487 73.9625 45.24C74.8782 44.7821 76.2806 43.8709 77.4388 42.6663C78.6095 41.4488 79.4097 40.061 79.4097 38.6344C79.4097 38.0821 79.8574 37.6344 80.4097 37.6344Z" fill="#967804"/>
<path d="M49.6378 77.1286C33.6576 80.3024 18.6098 72.3359 16.0277 59.335C13.4456 46.3341 24.307 33.2219 40.2873 30.0481C56.2676 26.8743 71.3154 34.8408 73.8974 47.8417C76.4795 60.8426 65.6181 73.9548 49.6378 77.1286Z" fill="#F9C701"/>
<path fill-rule="evenodd" clip-rule="evenodd" d="M50.0275 79.0902C33.3614 82.4002 16.9346 74.1678 14.066 59.7246C11.1975 45.2814 23.2317 31.3964 39.8977 28.0864C56.5637 24.7764 72.9906 33.0088 75.8591 47.452C78.7276 61.8952 66.6935 75.7802 50.0275 79.0902ZM16.0277 59.335C18.6098 72.3359 33.6576 80.3024 49.6378 77.1285C65.6181 73.9547 76.4795 60.8426 73.8974 47.8416C71.3153 34.8407 56.2676 26.8743 40.2873 30.0481C24.307 33.2219 13.4456 46.3341 16.0277 59.335Z" fill="#967804"/>
<path fill-rule="evenodd" clip-rule="evenodd" d="M20.5892 68.6105C26.7684 75.8142 37.9538 79.4491 49.6378 77.1286C65.6181 73.9547 76.4795 60.8426 73.8974 47.8417C73.0829 43.7406 71.028 40.1405 68.0947 37.233C68.633 38.5098 69.0471 39.8488 69.324 41.2432C72.0239 54.8372 60.667 68.5475 43.9577 71.8661C35.3633 73.573 27.0268 72.1983 20.5892 68.6105Z" fill="#D5AB09"/>
<path d="M37.3391 36.7968C38.7919 39.0949 36.3252 43.2618 31.8297 46.1037C27.3342 48.9457 22.5121 49.3865 21.0593 47.0884C19.6065 44.7903 22.0732 40.6235 26.5687 37.7816C31.0642 34.9396 35.8863 34.4987 37.3391 36.7968Z" fill="#FFE26F"/>
<path fill-rule="evenodd" clip-rule="evenodd" d="M19.0197 55.8736C18.4907 55.7149 18.1905 55.1574 18.3492 54.6284C18.8146 53.077 20.7799 50.2272 24.9141 50.4362C27.1684 50.5502 28.7702 50.5963 29.9999 50.3482C31.1432 50.1176 31.9115 49.6428 32.5346 48.6656C33.0374 47.877 33.8202 47.2136 34.68 46.6732C35.55 46.1263 36.5585 45.6681 37.5834 45.3135C39.5918 44.6186 41.8547 44.2579 43.411 44.5516C44.7798 44.81 46.199 44.424 47.4663 43.6945C48.737 42.9631 49.7519 41.9434 50.2812 41.1134C51.2554 39.5856 52.7724 38.8276 54.3197 38.5522C55.8536 38.2792 57.4758 38.4648 58.8302 38.8687C61.1433 39.5587 63.3525 38.3831 64.5303 37.1138C64.906 36.7089 65.5387 36.6852 65.9435 37.0609C66.3484 37.4365 66.372 38.0693 65.9964 38.4741C64.5069 40.0794 61.5528 41.7679 58.2585 40.7853C57.1347 40.4501 55.8334 40.3142 54.6702 40.5213C53.5203 40.726 52.5664 41.2495 51.9675 42.1887C51.2532 43.3089 49.9941 44.5471 48.464 45.4278C46.9305 46.3106 45.0221 46.891 43.0401 46.5169C41.9799 46.3168 40.1054 46.5572 38.2373 47.2035C37.324 47.5195 36.4594 47.9169 35.7443 48.3664C35.0191 48.8223 34.5046 49.296 34.2209 49.7409C33.271 51.2306 32.0046 51.9841 30.3954 52.3087C28.8725 52.616 27.0039 52.5444 24.8131 52.4337C21.8353 52.2831 20.5405 54.2841 20.2648 55.2031C20.1062 55.7321 19.5487 56.0323 19.0197 55.8736Z" fill="#DAB10F"/>
<path fill-rule="evenodd" clip-rule="evenodd" d="M20.8714 64.7935C20.3475 64.6187 20.0645 64.0523 20.2392 63.5284C20.7647 61.9535 22.8748 59.098 27.1642 59.2185C29.5407 59.2853 31.2479 59.2988 32.5703 59.0189C33.8161 58.7553 34.6654 58.2418 35.3578 57.2247C35.8978 56.4315 36.7269 55.7557 37.6377 55.1985C38.5597 54.6346 39.6266 54.155 40.7105 53.7783C42.8377 53.0388 45.2156 52.6331 46.8316 52.8923C48.3023 53.1283 49.8405 52.699 51.2142 51.9263C52.5898 51.1527 53.6959 50.092 54.2796 49.2347C55.3262 47.6972 56.9151 46.9172 58.5285 46.612C60.1337 46.3084 61.8291 46.4579 63.246 46.8345C65.7225 47.4928 68.1297 46.233 69.4195 44.9105C69.8051 44.5151 70.4382 44.5071 70.8336 44.8927C71.229 45.2783 71.2369 45.9114 70.8513 46.3068C69.2602 47.9385 66.148 49.6754 62.7321 48.7674C61.5449 48.4518 60.1566 48.3395 58.9003 48.5772C57.6522 48.8133 56.6017 49.3777 55.9328 50.3602C55.1602 51.4951 53.8143 52.7586 52.1947 53.6695C50.5732 54.5815 48.573 55.1972 46.5148 54.8671C45.3752 54.6843 43.3664 54.9724 41.3671 55.6674C40.3877 56.0078 39.4563 56.4306 38.6814 56.9046C37.8953 57.3855 37.3288 57.8835 37.0111 58.3502C35.988 59.8531 34.6603 60.6209 32.9844 60.9756C31.3851 61.314 29.4259 61.2829 27.1081 61.2178C23.8866 61.1272 22.447 63.2306 22.1364 64.1614C21.9617 64.6853 21.3953 64.9683 20.8714 64.7935Z" fill="#DAB10F"/>
<path fill-rule="evenodd" clip-rule="evenodd" d="M71.6052 51.1578C72.1362 51.3096 72.4437 51.8631 72.2919 52.3941C71.8517 53.9343 69.947 56.7849 65.8748 56.5382C63.6708 56.4047 62.1126 56.3454 60.9214 56.5804C59.8212 56.7974 59.0865 57.2556 58.4915 58.2162C58.0043 59.0029 57.2408 59.6614 56.4018 60.1952C55.5531 60.7352 54.5685 61.1847 53.5678 61.5302C51.608 62.2068 49.3923 62.5488 47.8605 62.2405C46.5339 61.9734 45.1642 62.3416 43.9412 63.0529C42.714 63.7666 41.7365 64.7691 41.2294 65.5879C40.2855 67.1119 38.7979 67.8614 37.2771 68.1245C35.7722 68.3848 34.1801 68.184 32.8518 67.7687C30.6062 67.0667 28.4794 68.2069 27.3478 69.4538C26.9766 69.8627 26.3442 69.8934 25.9352 69.5222C25.5263 69.151 25.4956 68.5186 25.8668 68.1096C27.3144 66.5147 30.204 64.8455 33.4485 65.8598C34.5464 66.203 35.8117 66.3483 36.9362 66.1538C38.0448 65.962 38.9587 65.4558 39.5291 64.5348C40.2191 63.4207 41.4422 62.1926 42.9357 61.324C44.4334 60.453 46.3044 59.8871 48.2552 60.2798C49.2826 60.4866 51.1015 60.2659 52.9151 59.6397C53.8011 59.3338 54.6379 58.947 55.3282 58.5078C56.0282 58.0624 56.5213 57.5989 56.7912 57.1631C57.7106 55.6786 58.9517 54.9304 60.5343 54.6182C62.0259 54.3239 63.8575 54.4123 65.9958 54.5418C68.8712 54.716 70.1072 52.7602 70.3689 51.8445C70.5207 51.3135 71.0742 51.0061 71.6052 51.1578Z" fill="#DAB10F"/>
<path fill-rule="evenodd" clip-rule="evenodd" d="M67.587 61.186C68.1349 61.2553 68.5229 61.7556 68.4537 62.3036C68.3623 63.0261 68.028 64.0737 67.2658 64.8876C66.4491 65.7595 65.2091 66.283 63.5614 65.9473C61.8792 65.6047 60.788 65.4212 60.0128 65.5232C59.6628 65.5692 59.4311 65.6695 59.2549 65.8095C59.0748 65.9526 58.8824 66.1933 58.7046 66.6319C58.0941 68.1378 56.5454 69.0938 55.087 69.5813C53.618 70.0724 51.8862 70.2095 50.6141 69.7291C49.7298 69.3952 48.904 69.5845 48.1691 70.0807C47.4087 70.594 46.8136 71.4008 46.5263 72.1096C45.9234 73.5967 44.7432 74.296 43.4536 74.4237C42.2381 74.544 40.9594 74.1632 39.9181 73.6311C39.1003 73.2132 38.4252 73.2404 37.8871 73.4409C37.3177 73.653 36.833 74.088 36.5125 74.5717C36.2074 75.0321 35.5869 75.158 35.1265 74.8529C34.6662 74.5479 34.5402 73.9273 34.8453 73.467C35.3522 72.7019 36.1502 71.9537 37.1889 71.5667C38.2589 71.1681 39.5172 71.1803 40.8281 71.8501C41.6684 72.2795 42.5538 72.503 43.2566 72.4334C43.8854 72.3712 44.3775 72.0864 44.6728 71.3582C45.0955 70.3155 45.9307 69.1787 47.05 68.4231C48.1947 67.6503 49.6977 67.2452 51.3206 67.858C52.0062 68.1169 53.2306 68.0931 54.4529 67.6845C55.6858 67.2723 56.5635 66.5899 56.8512 65.8805C57.1224 65.2113 57.4945 64.6539 58.0105 64.2438C58.5304 63.8306 59.1263 63.6226 59.7519 63.5403C60.9277 63.3856 62.379 63.6654 63.9606 63.9876C64.9241 64.1838 65.4615 63.8883 65.806 63.5205C66.2049 63.0945 66.4152 62.4816 66.4695 62.0527C66.5387 61.5048 67.039 61.1168 67.587 61.186Z" fill="#DAB10F"/>
<path fill-rule="evenodd" clip-rule="evenodd" d="M54.587 32.3649C55.1349 32.4341 55.5229 32.9345 55.4537 33.4824C55.3623 34.2049 55.028 35.2526 54.2658 36.0664C53.4492 36.9384 52.2091 37.4618 50.5615 37.1262C48.8792 36.7835 47.788 36.6 47.0128 36.702C46.6628 36.7481 46.4311 36.8484 46.2549 36.9884C46.0748 37.1315 45.8824 37.3722 45.7047 37.8107C45.0941 39.3167 43.5454 40.2726 42.087 40.7601C40.618 41.2512 38.8862 41.3883 37.6141 40.9079C36.7298 40.574 35.904 40.7634 35.1691 41.2595C34.4087 41.7729 33.8136 42.5796 33.5263 43.2884C32.9234 44.7755 31.7432 45.4749 30.4536 45.6025C29.2381 45.7228 27.9594 45.342 26.9181 44.8099C26.1003 44.3921 25.4252 44.4193 24.8871 44.6197C24.3178 44.8319 23.833 45.2668 23.5125 45.7505C23.2074 46.2109 22.5869 46.3368 22.1265 46.0318C21.6662 45.7267 21.5403 45.1062 21.8453 44.6458C22.3522 43.8808 23.1502 43.1326 24.1889 42.7456C25.2589 42.3469 26.5172 42.3591 27.8281 43.029C28.6684 43.4583 29.5538 43.6818 30.2566 43.6123C30.8854 43.55 31.3775 43.2653 31.6728 42.537C32.0955 41.4943 32.9307 40.3575 34.05 39.6019C35.1947 38.8291 36.6977 38.424 38.3206 39.0369C39.0062 39.2958 40.2306 39.2719 41.4529 38.8633C42.6859 38.4512 43.5635 37.7688 43.8512 37.0593C44.1225 36.3901 44.4945 35.8328 45.0105 35.4227C45.5304 35.0095 46.1264 34.8014 46.7519 34.7191C47.9277 34.5644 49.379 34.8443 50.9606 35.1664C51.9241 35.3627 52.4615 35.0671 52.806 34.6993C53.2049 34.2734 53.4152 33.6604 53.4695 33.2316C53.5387 32.6836 54.0391 32.2956 54.587 32.3649Z" fill="#DAB10F"/>
<path d="M55.1093 66.6039C54.3766 67.0663 53.4079 66.8472 52.9455 66.1146C52.4831 65.3819 52.7022 64.4131 53.4349 63.9508C54.1675 63.4884 55.1363 63.7075 55.5987 64.4401C56.0611 65.1728 55.842 66.1415 55.1093 66.6039Z" fill="#B8960F"/>
<path d="M62.374 66.6329C61.6413 67.0952 60.6725 66.8761 60.2102 66.1435C59.7478 65.4108 59.9669 64.4421 60.6995 63.9797C61.4322 63.5173 62.4009 63.7364 62.8633 64.469C63.3257 65.2017 63.1066 66.1705 62.374 66.6329Z" fill="#B8960F"/>
<path d="M64.7365 61.8219C64.0038 62.2843 63.0351 62.0652 62.5727 61.3325C62.1103 60.5999 62.3294 59.6311 63.062 59.1687C63.7947 58.7063 64.7635 58.9254 65.2259 59.6581C65.6882 60.3907 65.4691 61.3595 64.7365 61.8219Z" fill="#B8960F"/>
<path d="M54.7373 71.9719C54.0046 72.4343 53.0358 72.2152 52.5734 71.4825C52.1111 70.7499 52.3302 69.7811 53.0628 69.3187C53.7955 68.8563 54.7642 69.0754 55.2266 69.8081C55.689 70.5407 55.4699 71.5095 54.7373 71.9719Z" fill="#B8960F"/>
<path d="M58.8606 68.8738C58.3111 69.2206 57.5845 69.0562 57.2377 68.5068C56.8909 67.9573 57.0553 67.2307 57.6047 66.8839C58.1542 66.5371 58.8808 66.7014 59.2276 67.2509C59.5744 67.8004 59.4101 68.527 58.8606 68.8738Z" fill="#B8960F"/>
<path d="M68.1457 60.2877C67.5962 60.6345 66.8696 60.4702 66.5228 59.9207C66.176 59.3712 66.3404 58.6446 66.8899 58.2978C67.4393 57.9511 68.1659 58.1154 68.5127 58.6649C68.8595 59.2144 68.6952 59.9409 68.1457 60.2877Z" fill="#B8960F"/>
<path d="M70.1713 57.1382C69.8014 57.3717 69.3122 57.261 69.0788 56.8911C68.8453 56.5212 68.9559 56.032 69.3259 55.7985C69.6958 55.5651 70.1849 55.6757 70.4184 56.0456C70.6519 56.4156 70.5413 56.9047 70.1713 57.1382Z" fill="#B8960F"/>
<path d="M60.3836 63.0669C60.0136 63.3004 59.5245 63.1897 59.291 62.8198C59.0575 62.4499 59.1682 61.9607 59.5381 61.7272C59.908 61.4938 60.3972 61.6044 60.6307 61.9743C60.8641 62.3443 60.7535 62.8334 60.3836 63.0669Z" fill="#B8960F"/>
<path d="M66.9024 62.9243C66.5325 63.1577 66.0433 63.0471 65.8099 62.6772C65.5764 62.3072 65.687 61.8181 66.0569 61.5846C66.4269 61.3511 66.916 61.4618 67.1495 61.8317C67.383 62.2016 67.2724 62.6908 66.9024 62.9243Z" fill="#B8960F"/>
<path d="M49.8246 74.4247C49.0919 74.8871 48.1231 74.668 47.6608 73.9354C47.1984 73.2027 47.4175 72.2339 48.1501 71.7716C48.8828 71.3092 49.8515 71.5283 50.3139 72.2609C50.7763 72.9936 50.5572 73.9623 49.8246 74.4247Z" fill="#B8960F"/>
<path d="M50.3027 68.1408C49.5701 68.6032 48.6013 68.3841 48.1389 67.6514C47.6765 66.9188 47.8956 65.95 48.6283 65.4876C49.3609 65.0252 50.3297 65.2443 50.7921 65.977C51.2545 66.7096 51.0354 67.6784 50.3027 68.1408Z" fill="#B8960F"/>
<path d="M43.9676 75.4794C43.235 75.9418 42.2662 75.7227 41.8038 74.99C41.3414 74.2574 41.5605 73.2886 42.2932 72.8262C43.0258 72.3639 43.9946 72.5829 44.457 73.3156C44.9194 74.0483 44.7003 75.017 43.9676 75.4794Z" fill="#B8960F"/>
<path d="M45.7647 71.0558C45.0321 71.5182 44.0633 71.2991 43.6009 70.5665C43.1385 69.8338 43.3576 68.865 44.0903 68.4027C44.8229 67.9403 45.7917 68.1594 46.2541 68.892C46.7165 69.6247 46.4974 70.5934 45.7647 71.0558Z" fill="#B8960F"/>
<path d="M39.0505 75.2416C38.501 75.5884 37.7745 75.424 37.4277 74.8746C37.0809 74.3251 37.2452 73.5985 37.7947 73.2517C38.3442 72.9049 39.0708 73.0692 39.4176 73.6187C39.7643 74.1682 39.6 74.8948 39.0505 75.2416Z" fill="#B8960F"/>
<path fill-rule="evenodd" clip-rule="evenodd" d="M29.4938 39.9046C29.9254 40.9213 29.4509 42.0954 28.4341 42.5269C27.7717 42.808 27.2371 43.1891 26.8026 43.6678C26.0603 44.4856 24.7954 44.5468 23.9775 43.8045C23.1596 43.0621 23.0984 41.7972 23.8408 40.9793C24.6828 40.0517 25.7023 39.341 26.8715 38.8448C27.8883 38.4133 29.0623 38.8878 29.4938 39.9046Z" fill="white"/>
</svg>
