<svg width="96" height="96" viewBox="0 0 96 96" fill="none" xmlns="http://www.w3.org/2000/svg">
<path fill-rule="evenodd" clip-rule="evenodd" d="M56.7311 13.3177C57.1079 13.7214 57.0861 14.3542 56.6823 14.7311C54.3967 16.8643 49.5 24.2608 49.5 36C49.5 36.5523 49.0523 37 48.5 37C47.9477 37 47.5 36.5523 47.5 36C47.5 23.7393 52.6033 15.8023 55.3177 13.2689C55.7214 12.8921 56.3542 12.9139 56.7311 13.3177Z" fill="#258629"/>
<path d="M36.0387 22.8715C36.0387 22.8715 43.1697 24.7341 45.2639 26.6159C47.7881 28.8841 47.5838 32.3447 47.5838 32.3447C47.5838 32.3447 44.3768 32.0308 41.8347 29.5101C39.8793 27.571 36.0387 22.8715 36.0387 22.8715Z" fill="#85DE2B"/>
<path fill-rule="evenodd" clip-rule="evenodd" d="M36.5442 20.9364L36.0387 22.8714L34.4901 24.137C33.9422 23.4666 33.8879 22.5198 34.3555 21.7912C34.8231 21.0626 35.7065 20.7176 36.5442 20.9364ZM45.5771 31.8422C46.741 32.2622 47.5838 32.3447 47.5838 32.3447C47.3889 34.3352 47.3882 34.3351 47.3875 34.335L47.386 34.3349L47.3828 34.3346L47.3756 34.3338L47.3574 34.3319C47.3437 34.3304 47.3269 34.3285 47.3071 34.3261C47.2674 34.3213 47.2155 34.3146 47.1525 34.3054C47.0265 34.287 46.8552 34.2588 46.6466 34.2166C46.2305 34.1325 45.6593 33.9915 44.9992 33.7594C43.6869 33.2981 41.9651 32.4559 40.4265 30.9302C39.3798 29.8923 37.8792 28.1704 36.6795 26.7588C36.0707 26.0426 35.5242 25.3882 35.13 24.9129C34.9328 24.6752 34.7734 24.4819 34.6631 24.3478L34.5356 24.1927L34.4901 24.137C34.49 24.1369 34.4901 24.137 36.0387 22.8714C36.0387 22.8714 37.0811 24.1469 38.3562 25.6431C39.5287 27.0188 40.898 28.5812 41.8347 29.51C43.0737 30.7386 44.4705 31.4429 45.5771 31.8422ZM47.3583 30.279C47.6364 31.4534 47.5838 32.3447 47.5838 32.3447L47.3889 34.3352C47.9301 34.3882 48.4696 34.2185 48.8831 33.8652C49.2965 33.5119 49.5482 33.0055 49.5803 32.4626L47.5838 32.3447C49.5803 32.4626 49.5803 32.4618 49.5804 32.461L49.5805 32.4594L49.5807 32.4559L49.5811 32.448L49.5821 32.4282C49.5828 32.4132 49.5835 32.3949 49.5843 32.3732C49.5858 32.3299 49.5871 32.2734 49.5876 32.2048C49.5885 32.0679 49.5858 31.8817 49.5731 31.656C49.5478 31.2069 49.4819 30.5882 49.3194 29.8822C48.9976 28.4841 48.2672 26.6258 46.6007 25.1282C45.8405 24.4451 44.7702 23.8739 43.769 23.4172C42.7244 22.9408 41.5698 22.5078 40.5145 22.146C39.4543 21.7826 38.4661 21.4815 37.7444 21.2715C37.3827 21.1663 37.086 21.0834 36.8783 21.0264C36.7744 20.9979 36.6926 20.9758 36.6359 20.9607L36.5701 20.9432L36.552 20.9384L36.5442 20.9364C36.5439 20.9363 36.5442 20.9364 36.0387 22.8714C36.0387 22.8714 37.6223 23.2851 39.5162 23.9194C41.6411 24.6312 44.1566 25.6208 45.2639 26.6159C46.5071 27.733 47.0884 29.1393 47.3583 30.279Z" fill="#156319"/>
<path d="M62.8191 23.7675C62.8191 23.7675 61.7114 29.3455 58.8862 31.6463C55.481 34.4193 50.0459 32.8652 50.0459 32.8652C50.0459 32.8652 50.3484 28.4052 54.1484 25.6987C57.0714 23.6168 62.8191 23.7675 62.8191 23.7675Z" fill="#63B710"/>
<path fill-rule="evenodd" clip-rule="evenodd" d="M64.9023 24.1394L62.8191 23.7676L62.8274 21.8905C63.4508 21.9068 64.0414 22.1665 64.4414 22.6C64.8414 23.0335 65.0101 23.5968 64.9023 24.1394ZM60.6329 23.8458C61.9109 23.7437 62.8191 23.7676 62.8191 23.7676C62.8191 23.7676 62.6641 24.5481 62.3222 25.6456C61.7501 27.4821 60.6546 30.2062 58.8862 31.6463C55.481 34.4193 50.0459 32.8653 50.0459 32.8653C50.0459 32.8653 50.3484 28.4052 54.1484 25.6987C55.9095 24.4444 58.6959 24.0005 60.6329 23.8458ZM50.0459 32.8653C47.9347 32.7046 47.9347 32.7039 47.9348 32.7033L47.9351 32.6986L47.9357 32.6908L47.9372 32.6704C47.9385 32.6546 47.9402 32.6345 47.9425 32.6103C47.9471 32.5619 47.9539 32.4969 47.9638 32.4168C47.9835 32.2569 48.0156 32.036 48.0669 31.7669C48.1691 31.2306 48.3494 30.4923 48.6657 29.6576C49.2923 28.0036 50.494 25.8642 52.7994 24.2222C54.711 22.8606 57.3486 22.3254 59.2361 22.0923C60.2249 21.9702 61.1088 21.9199 61.7464 21.8998C62.0665 21.8897 62.3277 21.8872 62.5131 21.8873C62.6058 21.8873 62.6798 21.888 62.7328 21.8887L62.7965 21.8898L62.8162 21.8902L62.8254 21.8904L62.8274 21.8905C62.8279 21.8905 62.8274 21.8905 62.8191 23.7676C64.9023 24.1394 64.9024 24.139 64.9023 24.1394L64.9005 24.1487L64.8969 24.1661L64.8847 24.2244C64.8743 24.2735 64.8592 24.3425 64.8394 24.4295C64.7998 24.6032 64.7409 24.8489 64.6615 25.149C64.5031 25.7471 64.2602 26.5715 63.9208 27.4776C63.2749 29.202 62.1598 31.5609 60.3374 33.045C58.0788 34.8843 55.2359 35.221 53.1874 35.1729C52.1415 35.1484 51.2281 35.0229 50.575 34.9041C50.2465 34.8443 49.9783 34.7852 49.7859 34.7393C49.6895 34.7162 49.6116 34.6964 49.5542 34.6813C49.5255 34.6737 49.5019 34.6673 49.4835 34.6623L49.46 34.6558L49.4513 34.6533L49.4477 34.6523L49.4461 34.6518C49.4454 34.6516 49.4446 34.6514 50.0459 32.8653ZM47.9347 32.7046L50.0459 32.8653L49.4446 34.6514C48.5015 34.3817 47.8756 33.5749 47.9347 32.7046Z" fill="#156319"/>
<path fill-rule="evenodd" clip-rule="evenodd" d="M61.9243 23.7751C60.0564 23.9759 57.685 24.4507 56.1217 25.5642C52.3218 28.2707 52.0192 32.7308 52.0192 32.7308C52.0192 32.7308 53.4438 33.1381 55.2912 33.1636C52.5923 33.5934 50.0458 32.8653 50.0458 32.8653C50.0458 32.8653 50.3484 28.4053 54.1483 25.6988C56.3612 24.1226 60.1931 23.8261 61.9243 23.7751Z" fill="#85DE2B"/>
<path d="M64 37C64 40.3137 61.3137 43 58 43C54.6863 43 52 40.3137 52 37C52 33.6863 54.6863 31 58 31C61.3137 31 64 33.6863 64 37Z" fill="#442B89"/>
<path fill-rule="evenodd" clip-rule="evenodd" d="M66 37C66 41.4183 62.4183 45 58 45C53.5817 45 50 41.4183 50 37C50 32.5817 53.5817 29 58 29C62.4183 29 66 32.5817 66 37ZM58 43C61.3137 43 64 40.3137 64 37C64 33.6863 61.3137 31 58 31C54.6863 31 52 33.6863 52 37C52 40.3137 54.6863 43 58 43Z" fill="#24184E"/>
<path fill-rule="evenodd" clip-rule="evenodd" d="M56 41C59.3137 41 62 38.3137 62 35C62 33.8556 61.6797 32.7861 61.1238 31.8762C62.8487 32.9301 64 34.8306 64 37C64 40.3137 61.3137 43 58 43C55.8306 43 53.9302 41.8486 52.8763 40.1237C53.7862 40.6796 54.8557 41 56 41Z" fill="#351D78"/>
<path d="M46 37C46 40.3137 43.3137 43 40 43C36.6863 43 34 40.3137 34 37C34 33.6863 36.6863 31 40 31C43.3137 31 46 33.6863 46 37Z" fill="#442B89"/>
<path fill-rule="evenodd" clip-rule="evenodd" d="M48 37C48 41.4183 44.4183 45 40 45C35.5817 45 32 41.4183 32 37C32 32.5817 35.5817 29 40 29C44.4183 29 48 32.5817 48 37ZM40 43C43.3137 43 46 40.3137 46 37C46 33.6863 43.3137 31 40 31C36.6863 31 34 33.6863 34 37C34 40.3137 36.6863 43 40 43Z" fill="#24184E"/>
<path d="M54 42C54 45.3137 51.3137 48 48 48C44.6863 48 42 45.3137 42 42C42 38.6863 44.6863 36 48 36C51.3137 36 54 38.6863 54 42Z" fill="#442B89"/>
<path fill-rule="evenodd" clip-rule="evenodd" d="M56 42C56 46.4183 52.4183 50 48 50C43.5817 50 40 46.4183 40 42C40 37.5817 43.5817 34 48 34C52.4183 34 56 37.5817 56 42ZM48 48C51.3137 48 54 45.3137 54 42C54 38.6863 51.3137 36 48 36C44.6863 36 42 38.6863 42 42C42 45.3137 44.6863 48 48 48Z" fill="#24184E"/>
<path d="M72 41C72 44.3137 69.3137 47 66 47C62.6863 47 60 44.3137 60 41C60 37.6863 62.6863 35 66 35C69.3137 35 72 37.6863 72 41Z" fill="#593CAA"/>
<path fill-rule="evenodd" clip-rule="evenodd" d="M74 41C74 45.4183 70.4183 49 66 49C61.5817 49 58 45.4183 58 41C58 36.5817 61.5817 33 66 33C70.4183 33 74 36.5817 74 41ZM66 47C69.3137 47 72 44.3137 72 41C72 37.6863 69.3137 35 66 35C62.6863 35 60 37.6863 60 41C60 44.3137 62.6863 47 66 47Z" fill="#24184E"/>
<path d="M37 41C37 44.3137 34.3137 47 31 47C27.6863 47 25 44.3137 25 41C25 37.6863 27.6863 35 31 35C34.3137 35 37 37.6863 37 41Z" fill="#593CAA"/>
<path fill-rule="evenodd" clip-rule="evenodd" d="M39 41C39 45.4183 35.4183 49 31 49C26.5817 49 23 45.4183 23 41C23 36.5817 26.5817 33 31 33C35.4183 33 39 36.5817 39 41ZM31 47C34.3137 47 37 44.3137 37 41C37 37.6863 34.3137 35 31 35C27.6863 35 25 37.6863 25 41C25 44.3137 27.6863 47 31 47Z" fill="#24184E"/>
<path d="M54 77C54 80.3137 51.3137 83 48 83C44.6863 83 42 80.3137 42 77C42 73.6863 44.6863 71 48 71C51.3137 71 54 73.6863 54 77Z" fill="#442B89"/>
<path fill-rule="evenodd" clip-rule="evenodd" d="M56 77C56 81.4183 52.4183 85 48 85C43.5817 85 40 81.4183 40 77C40 72.5817 43.5817 69 48 69C52.4183 69 56 72.5817 56 77ZM48 83C51.3137 83 54 80.3137 54 77C54 73.6863 51.3137 71 48 71C44.6863 71 42 73.6863 42 77C42 80.3137 44.6863 83 48 83Z" fill="#24184E"/>
<path fill-rule="evenodd" clip-rule="evenodd" d="M46 81C49.3137 81 52 78.3137 52 75C52 73.8556 51.6797 72.7861 51.1238 71.8762C52.8487 72.9301 54 74.8306 54 77C54 80.3137 51.3137 83 48 83C45.8306 83 43.9302 81.8486 42.8763 80.1237C43.7862 80.6796 44.8557 81 46 81Z" fill="#351D78"/>
<path d="M33 47C33 50.3137 30.3137 53 27 53C23.6863 53 21 50.3137 21 47C21 43.6863 23.6863 41 27 41C30.3137 41 33 43.6863 33 47Z" fill="#593CAA"/>
<path fill-rule="evenodd" clip-rule="evenodd" d="M35 47C35 51.4183 31.4183 55 27 55C22.5817 55 19 51.4183 19 47C19 42.5817 22.5817 39 27 39C31.4183 39 35 42.5817 35 47ZM27 53C30.3137 53 33 50.3137 33 47C33 43.6863 30.3137 41 27 41C23.6863 41 21 43.6863 21 47C21 50.3137 23.6863 53 27 53Z" fill="#24184E"/>
<path d="M47 47C47 50.3137 44.3137 53 41 53C37.6863 53 35 50.3137 35 47C35 43.6863 37.6863 41 41 41C44.3137 41 47 43.6863 47 47Z" fill="#593CAA"/>
<path fill-rule="evenodd" clip-rule="evenodd" d="M49 47C49 51.4183 45.4183 55 41 55C36.5817 55 33 51.4183 33 47C33 42.5817 36.5817 39 41 39C45.4183 39 49 42.5817 49 47ZM41 53C44.3137 53 47 50.3137 47 47C47 43.6863 44.3137 41 41 41C37.6863 41 35 43.6863 35 47C35 50.3137 37.6863 53 41 53Z" fill="#24184E"/>
<path d="M75 48C75 51.3137 72.3137 54 69 54C65.6863 54 63 51.3137 63 48C63 44.6863 65.6863 42 69 42C72.3137 42 75 44.6863 75 48Z" fill="#442B89"/>
<path fill-rule="evenodd" clip-rule="evenodd" d="M77 48C77 52.4183 73.4183 56 69 56C64.5817 56 61 52.4183 61 48C61 43.5817 64.5817 40 69 40C73.4183 40 77 43.5817 77 48ZM69 54C72.3137 54 75 51.3137 75 48C75 44.6863 72.3137 42 69 42C65.6863 42 63 44.6863 63 48C63 51.3137 65.6863 54 69 54Z" fill="#24184E"/>
<path d="M61 47C61 50.3137 58.3137 53 55 53C51.6863 53 49 50.3137 49 47C49 43.6863 51.6863 41 55 41C58.3137 41 61 43.6863 61 47Z" fill="#593CAA"/>
<path fill-rule="evenodd" clip-rule="evenodd" d="M63 47C63 51.4183 59.4183 55 55 55C50.5817 55 47 51.4183 47 47C47 42.5817 50.5817 39 55 39C59.4183 39 63 42.5817 63 47ZM55 53C58.3137 53 61 50.3137 61 47C61 43.6863 58.3137 41 55 41C51.6863 41 49 43.6863 49 47C49 50.3137 51.6863 53 55 53Z" fill="#24184E"/>
<path fill-rule="evenodd" clip-rule="evenodd" d="M53 51C56.3137 51 59 48.3137 59 45C59 43.8556 58.6797 42.7861 58.1238 41.8762C59.8487 42.9301 61 44.8306 61 47C61 50.3137 58.3137 53 55 53C52.8306 53 50.9302 51.8486 49.8763 50.1237C50.7862 50.6796 51.8557 51 53 51Z" fill="#482D93"/>
<path d="M55.6942 50.9642C55.4589 51.3145 54.9843 51.4077 54.6341 51.1724C54.2839 50.9372 54.1907 50.4626 54.4259 50.1124C54.6612 49.7622 55.1358 49.669 55.486 49.9042C55.8362 50.1394 55.9294 50.614 55.6942 50.9642Z" fill="#39217C"/>
<path d="M59.5327 48.4052C59.2975 48.7554 58.8229 48.8487 58.4726 48.6134C58.1224 48.3782 58.0292 47.9036 58.2644 47.5534C58.4997 47.2032 58.9743 47.1099 59.3245 47.3452C59.6747 47.5804 59.7679 48.055 59.5327 48.4052Z" fill="#39217C"/>
<path d="M57.1041 48.9796C56.9396 49.2245 56.6077 49.2897 56.3627 49.1252C56.1178 48.9607 56.0526 48.6288 56.2171 48.3838C56.3816 48.1389 56.7135 48.0737 56.9585 48.2382C57.2034 48.4027 57.2686 48.7346 57.1041 48.9796Z" fill="#39217C"/>
<path d="M58.3835 49.8777C58.219 50.1226 57.8871 50.1878 57.6422 50.0233C57.3973 49.8588 57.3321 49.5269 57.4966 49.282C57.6611 49.037 57.993 48.9719 58.2379 49.1364C58.4828 49.3009 58.548 49.6328 58.3835 49.8777Z" fill="#39217C"/>
<path d="M59.663 46.0392C59.4985 46.2841 59.1666 46.3493 58.9217 46.1848C58.6768 46.0203 58.6116 45.6884 58.7761 45.4435C58.9406 45.1985 59.2725 45.1334 59.5174 45.2979C59.7624 45.4624 59.8275 45.7943 59.663 46.0392Z" fill="#39217C"/>
<path d="M34 56C34 59.3137 31.3137 62 28 62C24.6863 62 22 59.3137 22 56C22 52.6863 24.6863 50 28 50C31.3137 50 34 52.6863 34 56Z" fill="#593CAA"/>
<path fill-rule="evenodd" clip-rule="evenodd" d="M36 56C36 60.4183 32.4183 64 28 64C23.5817 64 20 60.4183 20 56C20 51.5817 23.5817 48 28 48C32.4183 48 36 51.5817 36 56ZM28 62C31.3137 62 34 59.3137 34 56C34 52.6863 31.3137 50 28 50C24.6863 50 22 52.6863 22 56C22 59.3137 24.6863 62 28 62Z" fill="#24184E"/>
<path d="M37 65C37 68.3137 34.3137 71 31 71C27.6863 71 25 68.3137 25 65C25 61.6863 27.6863 59 31 59C34.3137 59 37 61.6863 37 65Z" fill="#593CAA"/>
<path fill-rule="evenodd" clip-rule="evenodd" d="M39 65C39 69.4183 35.4183 73 31 73C26.5817 73 23 69.4183 23 65C23 60.5817 26.5817 57 31 57C35.4183 57 39 60.5817 39 65ZM31 71C34.3137 71 37 68.3137 37 65C37 61.6863 34.3137 59 31 59C27.6863 59 25 61.6863 25 65C25 68.3137 27.6863 71 31 71Z" fill="#24184E"/>
<path fill-rule="evenodd" clip-rule="evenodd" d="M29 69.0002C32.3138 69.0002 35 66.3139 35 63.0002C35 61.8559 34.6797 60.7864 34.1238 59.8765C35.8487 60.9303 37 62.8308 37 65.0002C37 68.3139 34.3138 71.0002 31 71.0002C28.8307 71.0002 26.9302 69.8489 25.8763 68.1239C26.7862 68.6798 27.8557 69.0002 29 69.0002Z" fill="#482D93"/>
<path d="M44 73C44 76.3137 41.3137 79 38 79C34.6863 79 32 76.3137 32 73C32 69.6863 34.6863 67 38 67C41.3137 67 44 69.6863 44 73Z" fill="#593CAA"/>
<path fill-rule="evenodd" clip-rule="evenodd" d="M46 73C46 77.4183 42.4183 81 38 81C33.5817 81 30 77.4183 30 73C30 68.5817 33.5817 65 38 65C42.4183 65 46 68.5817 46 73ZM38 79C41.3137 79 44 76.3137 44 73C44 69.6863 41.3137 67 38 67C34.6863 67 32 69.6863 32 73C32 76.3137 34.6863 79 38 79Z" fill="#24184E"/>
<path fill-rule="evenodd" clip-rule="evenodd" d="M36 77C39.3137 77 42 74.3137 42 71C42 69.8556 41.6797 68.7861 41.1238 67.8762C42.8487 68.9301 44 70.8306 44 73C44 76.3137 41.3137 79 38 79C35.8306 79 33.9302 77.8486 32.8763 76.1237C33.7862 76.6796 34.8557 77 36 77Z" fill="#482D93"/>
<path d="M37.6942 77.9642C37.4589 78.3145 36.9843 78.4077 36.6341 78.1724C36.2839 77.9372 36.1907 77.4626 36.4259 77.1124C36.6612 76.7622 37.1358 76.669 37.486 76.9042C37.8362 77.1394 37.9294 77.614 37.6942 77.9642Z" fill="#39217C"/>
<path d="M41.5327 75.4052C41.2975 75.7554 40.8229 75.8487 40.4727 75.6134C40.1224 75.3782 40.0292 74.9036 40.2645 74.5534C40.4997 74.2032 40.9743 74.1099 41.3245 74.3452C41.6747 74.5804 41.7679 75.055 41.5327 75.4052Z" fill="#39217C"/>
<path d="M39.1041 75.9796C38.9396 76.2245 38.6077 76.2897 38.3627 76.1252C38.1178 75.9607 38.0526 75.6288 38.2171 75.3838C38.3816 75.1389 38.7135 75.0737 38.9585 75.2382C39.2034 75.4027 39.2686 75.7346 39.1041 75.9796Z" fill="#39217C"/>
<path d="M40.3835 76.8777C40.219 77.1226 39.8871 77.1878 39.6422 77.0233C39.3973 76.8588 39.3321 76.5269 39.4966 76.282C39.6611 76.037 39.993 75.9719 40.2379 76.1364C40.4829 76.3009 40.548 76.6328 40.3835 76.8777Z" fill="#39217C"/>
<path d="M41.6631 73.0392C41.4985 73.2841 41.1666 73.3493 40.9217 73.1848C40.6768 73.0203 40.6116 72.6884 40.7761 72.4435C40.9406 72.1985 41.2725 72.1334 41.5175 72.2979C41.7624 72.4624 41.8276 72.7943 41.6631 73.0392Z" fill="#39217C"/>
<path d="M74 56C74 59.3137 71.3137 62 68 62C64.6863 62 62 59.3137 62 56C62 52.6863 64.6863 50 68 50C71.3137 50 74 52.6863 74 56Z" fill="#442B89"/>
<path fill-rule="evenodd" clip-rule="evenodd" d="M76 56C76 60.4183 72.4183 64 68 64C63.5817 64 60 60.4183 60 56C60 51.5817 63.5817 48 68 48C72.4183 48 76 51.5817 76 56ZM68 62C71.3137 62 74 59.3137 74 56C74 52.6863 71.3137 50 68 50C64.6863 50 62 52.6863 62 56C62 59.3137 64.6863 62 68 62Z" fill="#24184E"/>
<path fill-rule="evenodd" clip-rule="evenodd" d="M66 60C69.3137 60 72 57.3137 72 54C72 52.8556 71.6797 51.7861 71.1238 50.8762C72.8487 51.9301 74 53.8306 74 56C74 59.3137 71.3137 62 68 62C65.8306 62 63.9302 60.8486 62.8763 59.1237C63.7862 59.6796 64.8557 60 66 60Z" fill="#351D78"/>
<path d="M68.6942 59.9642C68.4589 60.3145 67.9843 60.4077 67.6341 60.1724C67.2839 59.9372 67.1907 59.4626 67.4259 59.1124C67.6611 58.7622 68.1357 58.669 68.486 58.9042C68.8362 59.1394 68.9294 59.614 68.6942 59.9642Z" fill="#291366"/>
<path d="M72.5327 57.4052C72.2975 57.7554 71.8229 57.8487 71.4726 57.6134C71.1224 57.3782 71.0292 56.9036 71.2644 56.5534C71.4997 56.2032 71.9743 56.1099 72.3245 56.3452C72.6747 56.5804 72.7679 57.055 72.5327 57.4052Z" fill="#291366"/>
<path d="M70.1041 57.9796C69.9396 58.2245 69.6077 58.2897 69.3628 58.1252C69.1178 57.9607 69.0526 57.6288 69.2172 57.3838C69.3817 57.1389 69.7136 57.0737 69.9585 57.2382C70.2034 57.4027 70.2686 57.7346 70.1041 57.9796Z" fill="#291366"/>
<path d="M71.3835 58.8777C71.219 59.1226 70.8871 59.1878 70.6422 59.0233C70.3973 58.8588 70.3321 58.5269 70.4966 58.282C70.6611 58.037 70.993 57.9719 71.2379 58.1364C71.4828 58.3009 71.548 58.6328 71.3835 58.8777Z" fill="#291366"/>
<path d="M72.663 55.0392C72.4985 55.2841 72.1666 55.3493 71.9217 55.1848C71.6768 55.0203 71.6116 54.6884 71.7761 54.4435C71.9406 54.1985 72.2725 54.1334 72.5174 54.2979C72.7624 54.4624 72.8275 54.7943 72.663 55.0392Z" fill="#291366"/>
<path d="M71 65C71 68.3137 68.3137 71 65 71C61.6863 71 59 68.3137 59 65C59 61.6863 61.6863 59 65 59C68.3137 59 71 61.6863 71 65Z" fill="#442B89"/>
<path fill-rule="evenodd" clip-rule="evenodd" d="M73 65C73 69.4183 69.4183 73 65 73C60.5817 73 57 69.4183 57 65C57 60.5817 60.5817 57 65 57C69.4183 57 73 60.5817 73 65ZM65 71C68.3137 71 71 68.3137 71 65C71 61.6863 68.3137 59 65 59C61.6863 59 59 61.6863 59 65C59 68.3137 61.6863 71 65 71Z" fill="#24184E"/>
<path fill-rule="evenodd" clip-rule="evenodd" d="M63 69C66.3137 69 69 66.3137 69 63C69 61.8556 68.6797 60.7861 68.1238 59.8762C69.8487 60.9301 71 62.8306 71 65C71 68.3137 68.3137 71 65 71C62.8306 71 60.9302 69.8486 59.8763 68.1237C60.7862 68.6796 61.8557 69 63 69Z" fill="#351D78"/>
<path d="M64 73C64 76.3137 61.3137 79 58 79C54.6863 79 52 76.3137 52 73C52 69.6863 54.6863 67 58 67C61.3137 67 64 69.6863 64 73Z" fill="#593CAA"/>
<path fill-rule="evenodd" clip-rule="evenodd" d="M66 73C66 77.4183 62.4183 81 58 81C53.5817 81 50 77.4183 50 73C50 68.5817 53.5817 65 58 65C62.4183 65 66 68.5817 66 73ZM58 79C61.3137 79 64 76.3137 64 73C64 69.6863 61.3137 67 58 67C54.6863 67 52 69.6863 52 73C52 76.3137 54.6863 79 58 79Z" fill="#24184E"/>
<path fill-rule="evenodd" clip-rule="evenodd" d="M56 77C59.3137 77 62 74.3137 62 71C62 69.8556 61.6797 68.7861 61.1238 67.8762C62.8487 68.9301 64 70.8306 64 73C64 76.3137 61.3137 79 58 79C55.8306 79 53.9302 77.8486 52.8763 76.1237C53.7862 76.6796 54.8557 77 56 77Z" fill="#482D93"/>
<path d="M45 59C45 62.3137 42.3137 65 39 65C35.6863 65 33 62.3137 33 59C33 55.6863 35.6863 53 39 53C42.3137 53 45 55.6863 45 59Z" fill="#593CAA"/>
<path fill-rule="evenodd" clip-rule="evenodd" d="M47 59C47 63.4183 43.4183 67 39 67C34.5817 67 31 63.4183 31 59C31 54.5817 34.5817 51 39 51C43.4183 51 47 54.5817 47 59ZM39 65C42.3137 65 45 62.3137 45 59C45 55.6863 42.3137 53 39 53C35.6863 53 33 55.6863 33 59C33 62.3137 35.6863 65 39 65Z" fill="#24184E"/>
<path fill-rule="evenodd" clip-rule="evenodd" d="M37 63C40.3137 63 43 60.3137 43 57C43 55.8556 42.6797 54.7861 42.1238 53.8762C43.8487 54.9301 45 56.8306 45 59C45 62.3137 42.3137 65 39 65C36.8306 65 34.9302 63.8486 33.8763 62.1237C34.7862 62.6796 35.8557 63 37 63Z" fill="#482D93"/>
<path d="M37.6942 63.9642C37.4589 64.3145 36.9843 64.4077 36.6341 64.1724C36.2839 63.9372 36.1907 63.4626 36.4259 63.1124C36.6612 62.7622 37.1358 62.669 37.486 62.9042C37.8362 63.1394 37.9294 63.614 37.6942 63.9642Z" fill="#39217C"/>
<path d="M41.5327 61.4052C41.2975 61.7554 40.8229 61.8487 40.4727 61.6134C40.1224 61.3782 40.0292 60.9036 40.2645 60.5534C40.4997 60.2032 40.9743 60.1099 41.3245 60.3452C41.6747 60.5804 41.7679 61.055 41.5327 61.4052Z" fill="#39217C"/>
<path d="M39.1041 61.9796C38.9396 62.2245 38.6077 62.2897 38.3627 62.1252C38.1178 61.9607 38.0526 61.6288 38.2171 61.3838C38.3816 61.1389 38.7135 61.0737 38.9585 61.2382C39.2034 61.4027 39.2686 61.7346 39.1041 61.9796Z" fill="#39217C"/>
<path d="M40.3835 62.8777C40.219 63.1226 39.8871 63.1878 39.6422 63.0233C39.3973 62.8588 39.3321 62.5269 39.4966 62.282C39.6611 62.037 39.993 61.9719 40.2379 62.1364C40.4829 62.3009 40.548 62.6328 40.3835 62.8777Z" fill="#39217C"/>
<path d="M41.6631 59.0392C41.4985 59.2841 41.1666 59.3493 40.9217 59.1848C40.6768 59.0203 40.6116 58.6884 40.7761 58.4435C40.9406 58.1985 41.2725 58.1334 41.5175 58.2979C41.7624 58.4624 41.8276 58.7943 41.6631 59.0392Z" fill="#39217C"/>
<path d="M63 59C63 62.3137 60.3137 65 57 65C53.6863 65 51 62.3137 51 59C51 55.6863 53.6863 53 57 53C60.3137 53 63 55.6863 63 59Z" fill="#593CAA"/>
<path fill-rule="evenodd" clip-rule="evenodd" d="M65 59C65 63.4183 61.4183 67 57 67C52.5817 67 49 63.4183 49 59C49 54.5817 52.5817 51 57 51C61.4183 51 65 54.5817 65 59ZM57 65C60.3137 65 63 62.3137 63 59C63 55.6863 60.3137 53 57 53C53.6863 53 51 55.6863 51 59C51 62.3137 53.6863 65 57 65Z" fill="#24184E"/>
<path fill-rule="evenodd" clip-rule="evenodd" d="M55 63C58.3137 63 61 60.3137 61 57C61 55.8556 60.6797 54.7861 60.1238 53.8762C61.8487 54.9301 63 56.8306 63 59C63 62.3137 60.3137 65 57 65C54.8306 65 52.9302 63.8486 51.8763 62.1237C52.7862 62.6796 53.8557 63 55 63Z" fill="#482D93"/>
<path d="M54 67C54 70.3137 51.3137 73 48 73C44.6863 73 42 70.3137 42 67C42 63.6863 44.6863 61 48 61C51.3137 61 54 63.6863 54 67Z" fill="#593CAA"/>
<path fill-rule="evenodd" clip-rule="evenodd" d="M56 67C56 71.4183 52.4183 75 48 75C43.5817 75 40 71.4183 40 67C40 62.5817 43.5817 59 48 59C52.4183 59 56 62.5817 56 67ZM48 73C51.3137 73 54 70.3137 54 67C54 63.6863 51.3137 61 48 61C44.6863 61 42 63.6863 42 67C42 70.3137 44.6863 73 48 73Z" fill="#24184E"/>
<path fill-rule="evenodd" clip-rule="evenodd" d="M46 71C49.3137 71 52 68.3137 52 65C52 63.8556 51.6797 62.7861 51.1238 61.8762C52.8487 62.9301 54 64.8306 54 67C54 70.3137 51.3137 73 48 73C45.8306 73 43.9302 71.8486 42.8763 70.1237C43.7862 70.6796 44.8557 71 46 71Z" fill="#482D93"/>
<path d="M54 54C54 57.3137 51.3137 60 48 60C44.6863 60 42 57.3137 42 54C42 50.6863 44.6863 48 48 48C51.3137 48 54 50.6863 54 54Z" fill="#593CAA"/>
<path fill-rule="evenodd" clip-rule="evenodd" d="M56 54C56 58.4183 52.4183 62 48 62C43.5817 62 40 58.4183 40 54C40 49.5817 43.5817 46 48 46C52.4183 46 56 49.5817 56 54ZM48 60C51.3137 60 54 57.3137 54 54C54 50.6863 51.3137 48 48 48C44.6863 48 42 50.6863 42 54C42 57.3137 44.6863 60 48 60Z" fill="#24184E"/>
<path fill-rule="evenodd" clip-rule="evenodd" d="M46 58C49.3137 58 52 55.3137 52 52C52 50.8557 51.6796 49.7862 51.1237 48.8763C52.8487 49.9302 54 51.8306 54 54C54 57.3137 51.3137 60 48 60C45.8306 60 43.9301 58.8487 42.8763 57.1238C43.7862 57.6797 44.8557 58 46 58Z" fill="#482D93"/>
<path d="M50 52C50 53.6569 48.6569 55 47 55C45.3431 55 44 53.6569 44 52C44 50.3431 45.3431 49 47 49C48.6569 49 50 50.3431 50 52Z" fill="#7D50FB"/>
<path d="M48 65C48 66.1046 47.1046 67 46 67C44.8954 67 44 66.1046 44 65C44 63.8954 44.8954 63 46 63C47.1046 63 48 63.8954 48 65Z" fill="#7D50FB"/>
<path d="M38 57C38 58.1046 37.1046 59 36 59C34.8954 59 34 58.1046 34 57C34 55.8954 34.8954 55 36 55C37.1046 55 38 55.8954 38 57Z" fill="#7D50FB"/>
<path d="M56 44C56 45.1046 55.1046 46 54 46C52.8954 46 52 45.1046 52 44C52 42.8954 52.8954 42 54 42C55.1046 42 56 42.8954 56 44Z" fill="#7D50FB"/>
<path d="M38 71C38 72.1046 37.1046 73 36 73C34.8954 73 34 72.1046 34 71C34 69.8954 34.8954 69 36 69C37.1046 69 38 69.8954 38 71Z" fill="#7D50FB"/>
<path d="M41 44C41 45.1046 40.1046 46 39 46C37.8954 46 37 45.1046 37 44C37 42.8954 37.8954 42 39 42C40.1046 42 41 42.8954 41 44Z" fill="#7D50FB"/>
<path d="M28 54C28 55.1046 27.1046 56 26 56C24.8954 56 24 55.1046 24 54C24 52.8954 24.8954 52 26 52C27.1046 52 28 52.8954 28 54Z" fill="#7D50FB"/>
<path d="M48.6942 58.9642C48.4589 59.3145 47.9843 59.4077 47.6341 59.1724C47.2839 58.9372 47.1907 58.4626 47.4259 58.1124C47.6612 57.7622 48.1358 57.669 48.486 57.9042C48.8362 58.1394 48.9294 58.614 48.6942 58.9642Z" fill="#39217C"/>
<path d="M52.5327 56.4052C52.2975 56.7554 51.8229 56.8487 51.4727 56.6134C51.1224 56.3782 51.0292 55.9036 51.2645 55.5534C51.4997 55.2032 51.9743 55.1099 52.3245 55.3452C52.6747 55.5804 52.7679 56.055 52.5327 56.4052Z" fill="#39217C"/>
<path d="M50.1041 56.9796C49.9396 57.2245 49.6077 57.2897 49.3627 57.1252C49.1178 56.9607 49.0526 56.6288 49.2171 56.3838C49.3816 56.1389 49.7135 56.0737 49.9585 56.2382C50.2034 56.4027 50.2686 56.7346 50.1041 56.9796Z" fill="#39217C"/>
<path d="M51.3835 57.8777C51.219 58.1226 50.8871 58.1878 50.6422 58.0233C50.3973 57.8588 50.3321 57.5269 50.4966 57.282C50.6611 57.037 50.993 56.9719 51.2379 57.1364C51.4829 57.3009 51.548 57.6328 51.3835 57.8777Z" fill="#39217C"/>
<path d="M52.6631 54.0392C52.4985 54.2841 52.1666 54.3493 51.9217 54.1848C51.6768 54.0203 51.6116 53.6884 51.7761 53.4435C51.9406 53.1985 52.2725 53.1334 52.5175 53.2979C52.7624 53.4624 52.8276 53.7943 52.6631 54.0392Z" fill="#39217C"/>
<path d="M48.6942 71.9642C48.4589 72.3145 47.9843 72.4077 47.6341 72.1724C47.2839 71.9372 47.1907 71.4626 47.4259 71.1124C47.6612 70.7622 48.1358 70.669 48.486 70.9042C48.8362 71.1394 48.9294 71.614 48.6942 71.9642Z" fill="#39217C"/>
<path d="M52.5327 69.4052C52.2975 69.7554 51.8229 69.8487 51.4727 69.6134C51.1224 69.3782 51.0292 68.9036 51.2645 68.5534C51.4997 68.2032 51.9743 68.1099 52.3245 68.3452C52.6747 68.5804 52.7679 69.055 52.5327 69.4052Z" fill="#39217C"/>
<path d="M50.1041 69.9796C49.9396 70.2245 49.6077 70.2897 49.3627 70.1252C49.1178 69.9607 49.0526 69.6288 49.2171 69.3838C49.3816 69.1389 49.7135 69.0737 49.9585 69.2382C50.2034 69.4027 50.2686 69.7346 50.1041 69.9796Z" fill="#39217C"/>
<path d="M51.3835 70.8777C51.219 71.1226 50.8871 71.1878 50.6422 71.0233C50.3973 70.8588 50.3321 70.5269 50.4966 70.282C50.6611 70.037 50.993 69.9719 51.2379 70.1364C51.4829 70.3009 51.548 70.6328 51.3835 70.8777Z" fill="#39217C"/>
<path d="M52.6631 67.0392C52.4985 67.2841 52.1666 67.3493 51.9217 67.1848C51.6768 67.0203 51.6116 66.6884 51.7761 66.4435C51.9406 66.1985 52.2725 66.1334 52.5175 66.2979C52.7624 66.4624 52.8276 66.7943 52.6631 67.0392Z" fill="#39217C"/>
<path d="M58.6942 77.9642C58.4589 78.3145 57.9843 78.4077 57.6341 78.1724C57.2839 77.9372 57.1907 77.4626 57.4259 77.1124C57.6611 76.7622 58.1357 76.669 58.486 76.9042C58.8362 77.1394 58.9294 77.614 58.6942 77.9642Z" fill="#39217C"/>
<path d="M62.5327 75.4052C62.2975 75.7554 61.8229 75.8487 61.4726 75.6134C61.1224 75.3782 61.0292 74.9036 61.2644 74.5534C61.4997 74.2032 61.9743 74.1099 62.3245 74.3452C62.6747 74.5804 62.7679 75.055 62.5327 75.4052Z" fill="#39217C"/>
<path d="M60.1041 75.9796C59.9396 76.2245 59.6077 76.2897 59.3628 76.1252C59.1178 75.9607 59.0526 75.6288 59.2172 75.3838C59.3817 75.1389 59.7136 75.0737 59.9585 75.2382C60.2034 75.4027 60.2686 75.7346 60.1041 75.9796Z" fill="#39217C"/>
<path d="M61.3835 76.8777C61.219 77.1226 60.8871 77.1878 60.6422 77.0233C60.3973 76.8588 60.3321 76.5269 60.4966 76.282C60.6611 76.037 60.993 75.9719 61.2379 76.1364C61.4828 76.3009 61.548 76.6328 61.3835 76.8777Z" fill="#39217C"/>
<path d="M62.663 73.0392C62.4985 73.2841 62.1666 73.3493 61.9217 73.1848C61.6768 73.0203 61.6116 72.6884 61.7761 72.4435C61.9406 72.1985 62.2725 72.1334 62.5174 72.2979C62.7624 72.4624 62.8275 72.7943 62.663 73.0392Z" fill="#39217C"/>
<path d="M57.6942 62.9642C57.4589 63.3145 56.9843 63.4077 56.6341 63.1724C56.2839 62.9372 56.1907 62.4626 56.4259 62.1124C56.6612 61.7622 57.1358 61.669 57.486 61.9042C57.8362 62.1394 57.9294 62.614 57.6942 62.9642Z" fill="#39217C"/>
<path d="M61.5327 60.4052C61.2975 60.7554 60.8229 60.8487 60.4726 60.6134C60.1224 60.3782 60.0292 59.9036 60.2644 59.5534C60.4997 59.2032 60.9743 59.1099 61.3245 59.3452C61.6747 59.5804 61.7679 60.055 61.5327 60.4052Z" fill="#39217C"/>
<path d="M59.1041 60.9796C58.9396 61.2245 58.6077 61.2897 58.3628 61.1252C58.1178 60.9607 58.0526 60.6288 58.2172 60.3838C58.3817 60.1389 58.7136 60.0737 58.9585 60.2382C59.2034 60.4027 59.2686 60.7346 59.1041 60.9796Z" fill="#39217C"/>
<path d="M60.3835 61.8777C60.219 62.1226 59.8871 62.1878 59.6422 62.0233C59.3973 61.8588 59.3321 61.5269 59.4966 61.282C59.6611 61.037 59.993 60.9719 60.2379 61.1364C60.4828 61.3009 60.548 61.6328 60.3835 61.8777Z" fill="#39217C"/>
<path d="M61.663 58.0392C61.4985 58.2841 61.1666 58.3493 60.9217 58.1848C60.6768 58.0203 60.6116 57.6884 60.7761 57.4435C60.9406 57.1985 61.2725 57.1334 61.5174 57.2979C61.7624 57.4624 61.8275 57.7943 61.663 58.0392Z" fill="#39217C"/>
<path fill-rule="evenodd" clip-rule="evenodd" d="M47.3944 49.5528C47.6414 50.0467 47.4412 50.6474 46.9472 50.8944C46.62 51.058 46.3517 51.3174 46.1559 51.5622C46.0608 51.681 45.9903 51.787 45.9454 51.86C45.9231 51.8962 45.9076 51.9235 45.899 51.9391L45.8915 51.953C45.6427 52.4427 45.0448 52.6404 44.5528 52.3944C44.0588 52.1474 43.8586 51.5467 44.1056 51.0528L45 51.5C44.1056 51.0528 44.1054 51.053 44.1056 51.0528L44.1067 51.0505L44.1081 51.0478L44.1114 51.0414L44.1203 51.0241C44.1274 51.0107 44.1365 50.9935 44.1479 50.973C44.1705 50.9319 44.2019 50.8772 44.2421 50.8118C44.3222 50.6817 44.4392 50.5065 44.5941 50.3128C44.8983 49.9325 45.38 49.4419 46.0528 49.1055C46.5468 48.8586 47.1474 49.0588 47.3944 49.5528Z" fill="white"/>
</svg>
