<svg width="96" height="96" viewBox="0 0 96 96" fill="none" xmlns="http://www.w3.org/2000/svg">
<path fill-rule="evenodd" clip-rule="evenodd" d="M72.5565 27.8143C73.1768 28.3634 73.2345 29.3114 72.6854 29.9317C71.8423 30.8841 70.969 32.0357 69.9286 33.4074C67.0663 37.1816 62.9398 42.6227 54.7003 50.1687C36.4763 66.8587 35.6977 81.5896 36.6031 86.8715C36.7431 87.688 36.1947 88.4634 35.3782 88.6034C34.5616 88.7434 33.7863 88.1949 33.6463 87.3784C32.5518 80.9937 33.7732 65.2662 52.6742 47.9563C60.6898 40.6153 64.5121 35.5724 67.3626 31.8116C68.472 30.3479 69.4342 29.0784 70.4391 27.9432C70.9882 27.3229 71.9362 27.2652 72.5565 27.8143Z" fill="#C46D33"/>
<path d="M70.4852 29.8096C70.5301 27.0166 72.2251 21.2524 78.6462 20.5396C78.1904 23.7905 75.9201 30.1959 70.4852 29.8096Z" fill="#F79B47"/>
<path fill-rule="evenodd" clip-rule="evenodd" d="M70.3434 31.8045C69.2842 31.7292 68.4685 30.8392 68.4855 29.7775C68.5129 28.0719 69.0273 25.5475 70.502 23.298C72.0252 20.9745 74.5606 18.9809 78.4256 18.5518C79.0394 18.4837 79.6502 18.7029 80.0806 19.1458C80.511 19.5888 80.7126 20.2057 80.6269 20.8173C80.3703 22.6475 79.6128 25.3702 78.0979 27.6466C76.5585 29.9598 74.0312 32.0667 70.3434 31.8045ZM71.2056 29.8211C71.6583 29.8027 72.0869 29.7353 72.4925 29.6257C75.63 28.778 77.3883 25.4041 78.1915 22.6287C78.4124 21.8654 78.561 21.1474 78.6462 20.5396C77.8771 20.625 77.1757 20.7829 76.5369 20.9994C72.9191 22.2259 71.3067 25.3346 70.7394 27.8212C70.653 28.1997 70.5909 28.5637 70.5496 28.9045C70.5101 29.23 70.4897 29.5342 70.4852 29.8096C70.7318 29.8271 70.9719 29.8306 71.2056 29.8211Z" fill="#C36D32"/>
<path d="M65.3529 34.2265C64.166 31.6979 63.1559 25.7752 68.6108 22.3135C69.6298 25.4341 70.4048 32.1856 65.3529 34.2265Z" fill="#F2A637"/>
<path fill-rule="evenodd" clip-rule="evenodd" d="M66.102 36.081C65.1174 36.4787 63.9936 36.0377 63.5424 35.0764C62.8176 33.5322 62.1705 31.0385 62.5068 28.3699C62.8542 25.6134 64.2557 22.7086 67.5391 20.6249C68.0605 20.294 68.7056 20.2225 69.2869 20.4313C69.8681 20.6401 70.3203 21.1057 70.512 21.6927C71.0856 23.4495 71.6015 26.2281 71.2409 28.9387C70.8745 31.693 69.5299 34.6961 66.102 36.081ZM66.0051 33.9204C66.4036 33.705 66.759 33.4561 67.0752 33.1795C69.5211 31.0393 69.6182 27.236 69.1202 24.39C68.9832 23.6073 68.8012 22.8969 68.6107 22.3135C67.9573 22.7282 67.3966 23.1782 66.9179 23.6534C64.207 26.3447 64.1245 29.8458 64.7075 32.3288C64.7962 32.7067 64.9003 33.061 65.013 33.3853C65.1205 33.695 65.2358 33.9773 65.3529 34.2266C65.5821 34.134 65.7993 34.0317 66.0051 33.9204Z" fill="#BC7104"/>
<path d="M59.4188 40.9682C57.924 38.4497 56.27 32.3712 61.612 28.2061C62.9914 31.3595 64.484 38.3267 59.4188 40.9682Z" fill="#F2A637"/>
<path fill-rule="evenodd" clip-rule="evenodd" d="M60.3435 42.7416C59.402 43.2327 58.2408 42.9022 57.6988 41.989C56.7936 40.4639 55.8723 37.945 55.9524 35.1474C56.035 32.2614 57.1919 29.1163 60.3821 26.6289C60.8692 26.2491 61.5043 26.1157 62.103 26.2674C62.7017 26.419 63.1967 26.8387 63.4443 27.4046C64.2168 29.1706 65.0319 32.0034 64.9308 34.8501C64.8282 37.741 63.7387 40.971 60.3435 42.7416ZM60.0683 40.5827C60.4321 40.3379 60.7547 40.0671 61.0398 39.7745C63.48 37.2697 63.1628 33.1743 62.3246 30.217C62.1089 29.4558 61.8586 28.77 61.6119 28.2061C61.0056 28.6788 60.4895 29.1762 60.053 29.6902C57.3875 32.8288 57.6921 36.5881 58.585 39.1462C58.7073 39.4965 58.8406 39.8242 58.9788 40.1248C59.1224 40.437 59.2713 40.72 59.4187 40.9683C59.6486 40.8484 59.8649 40.7197 60.0683 40.5827Z" fill="#BC7104"/>
<path d="M52.4786 48.5356C50.8936 45.865 49.1398 39.4197 54.8041 35.0032C56.2668 38.3469 57.8495 45.7346 52.4786 48.5356Z" fill="#F2A637"/>
<path fill-rule="evenodd" clip-rule="evenodd" d="M53.4033 50.309C52.4618 50.8 51.3006 50.4696 50.7586 49.5564C49.8083 47.9552 48.8395 45.3066 48.9236 42.3669C49.0103 39.3387 50.2229 36.0391 53.5743 33.426C54.0613 33.0462 54.6965 32.9128 55.2952 33.0644C55.8939 33.2161 56.3889 33.6358 56.6364 34.2016C57.4506 36.0629 58.309 39.0483 58.2027 42.0439C58.0947 45.0836 56.9514 48.4586 53.4033 50.309ZM53.1673 48.1268C53.5159 47.8923 53.8288 47.6352 54.1088 47.359C56.829 44.6757 56.449 40.1862 55.5227 37.0065C55.3026 36.2508 55.0516 35.5691 54.8041 35.0032C54.2024 35.4723 53.6844 35.9643 53.2411 36.4723C50.2768 39.8683 50.6474 43.9767 51.6354 46.7188C51.7536 47.047 51.8808 47.3557 52.0121 47.6412C52.1643 47.9723 52.3222 48.2723 52.4785 48.5356C52.7222 48.4085 52.9516 48.272 53.1673 48.1268Z" fill="#BC7104"/>
<path d="M46.5255 56.5203C44.6567 53.8124 42.3359 47.1268 48.0031 42.0482C49.7914 45.4765 51.9996 53.1705 46.5255 56.5203Z" fill="#F2A637"/>
<path fill-rule="evenodd" clip-rule="evenodd" d="M47.5695 58.2263C46.6637 58.7806 45.4826 58.5303 44.8795 57.6563C43.7695 56.0479 42.563 53.3399 42.44 50.2529C42.3134 47.0774 43.3445 43.5375 46.6685 40.5588C47.1284 40.1466 47.7529 39.9701 48.3606 40.0804C48.9682 40.1908 49.4908 40.5757 49.7765 41.1232C50.7662 43.0207 51.8829 46.0965 51.9867 49.2479C52.092 52.4434 51.1363 56.0436 47.5695 58.2263ZM47.224 56.0383C47.5409 55.792 47.8259 55.5284 48.0812 55.2499C50.8934 52.1832 50.1109 47.3218 48.8623 43.9904C48.5874 43.2571 48.2899 42.5978 48.0032 42.0482C47.4389 42.5539 46.9539 43.0755 46.5396 43.6075C43.519 47.4872 44.2666 51.9209 45.5516 54.7709C45.6857 55.0682 45.8256 55.3483 45.9677 55.6087C46.1527 55.9477 46.3413 56.2534 46.5256 56.5203C46.7739 56.3683 47.0065 56.2074 47.224 56.0383Z" fill="#BC7104"/>
<path d="M41.2701 65.8194C38.7582 63.219 35.115 56.4233 40.6378 50.0437C43.1735 53.4304 46.85 61.327 41.2701 65.8194Z" fill="#F2A637"/>
<path fill-rule="evenodd" clip-rule="evenodd" d="M42.518 67.3756C41.7108 68.0255 40.5452 67.9556 39.8291 67.2143C38.3582 65.6915 36.5967 63.0051 35.9768 59.7321C35.3384 56.3618 35.9325 52.4321 39.1301 48.7384C39.5271 48.2798 40.1091 48.0245 40.7132 48.0439C41.3173 48.0633 41.8787 48.3552 42.2402 48.8381C43.6329 50.6983 45.355 53.8001 45.9643 57.1476C46.5847 60.5563 46.0714 64.5147 42.518 67.3756ZM42.3905 64.7351C42.4889 64.6194 42.5828 64.5023 42.6722 64.3837C45.5703 60.54 43.784 55.2056 41.7855 51.7846C41.4002 51.125 41.007 50.5366 40.6379 50.0437C40.1513 50.6058 39.7359 51.1711 39.3845 51.7365C35.7483 57.5883 38.9796 63.4481 41.2702 65.8194C41.696 65.4766 42.0679 65.114 42.3905 64.7351Z" fill="#BC7104"/>
<path d="M65.7978 36.3165C66.9154 33.7566 70.7008 29.0907 76.9007 30.9074C75.2273 33.7316 70.664 38.7674 65.7978 36.3165Z" fill="#F79B47"/>
<path fill-rule="evenodd" clip-rule="evenodd" d="M64.8981 38.1028C63.9497 37.6251 63.5399 36.4895 63.9648 35.5163C64.6473 33.953 66.0948 31.8218 68.3225 30.3144C70.6234 28.7573 73.7312 27.8946 77.463 28.9881C78.0557 29.1617 78.5349 29.5994 78.7614 30.174C78.9878 30.7486 78.9361 31.3956 78.6213 31.9269C77.6792 33.5168 75.9311 35.7373 73.656 37.2542C71.3441 38.7956 68.2 39.7658 64.8981 38.1028ZM66.458 36.6048C66.8828 36.7623 67.3043 36.8653 67.7208 36.9204C70.9427 37.3472 73.8653 34.9115 75.676 32.6599C76.174 32.0407 76.5878 31.4354 76.9007 30.9074C76.158 30.6898 75.45 30.5652 74.777 30.5188C70.966 30.2564 68.2802 32.5037 66.7985 34.5797C66.5729 34.8956 66.3753 35.2076 66.2059 35.5062C66.044 35.7913 65.9079 36.0642 65.7977 36.3166C66.0185 36.4278 66.2387 36.5236 66.458 36.6048Z" fill="#C36D32"/>
<path d="M59.7478 42.9937C61.0996 40.3956 65.3922 35.785 71.7481 38.1277C69.7961 40.9626 64.6632 45.9046 59.7478 42.9937Z" fill="#F79B47"/>
<path fill-rule="evenodd" clip-rule="evenodd" d="M58.7287 44.7145C57.815 44.1734 57.4835 43.0126 57.9736 42.0705C58.7923 40.4972 60.4467 38.3862 62.8659 36.9791C65.3617 35.5274 68.6441 34.8521 72.4398 36.2512C73.0193 36.4647 73.4676 36.9341 73.6544 37.5227C73.8412 38.1114 73.7456 38.7533 73.3953 39.262C72.3021 40.8497 70.325 43.0359 67.8529 44.4511C65.3424 45.8883 62.0235 46.6657 58.7287 44.7145ZM60.418 43.3423C60.8178 43.5224 61.2181 43.6537 61.6169 43.7416C65.032 44.4942 68.3445 42.0652 70.4153 39.7937C70.9483 39.2089 71.399 38.6347 71.7481 38.1277C71.0268 37.8619 70.332 37.6855 69.6651 37.5857C65.5928 36.9759 62.5592 39.2169 60.8564 41.3245C60.6233 41.6131 60.4151 41.8992 60.2326 42.1751C60.043 42.4618 59.8811 42.7375 59.7479 42.9937C59.9709 43.1258 60.1944 43.2417 60.418 43.3423Z" fill="#C36D32"/>
<path d="M52.8276 50.6833C54.261 47.9284 58.8127 43.0396 65.5521 45.5237C63.4823 48.5296 58.0397 53.7699 52.8276 50.6833Z" fill="#F79B47"/>
<path fill-rule="evenodd" clip-rule="evenodd" d="M51.8085 52.4042C50.8948 51.8631 50.5633 50.7022 51.0534 49.7602C51.9128 48.1084 53.6524 45.8886 56.1946 44.41C58.8133 42.8869 62.2563 42.1773 66.2438 43.6471C66.8233 43.8607 67.2716 44.33 67.4584 44.9187C67.6452 45.5073 67.5496 46.1493 67.1994 46.6579C66.0473 48.3312 63.9632 50.6348 61.3619 52.1239C58.7221 53.6351 55.2516 54.4432 51.8085 52.4042ZM53.5382 51.053C53.9213 51.2255 54.3047 51.3558 54.6871 51.4481C58.4013 52.3445 62.0156 49.6543 64.2289 47.1906C64.7549 46.6051 65.2018 46.0324 65.5521 45.5237C64.8363 45.2598 64.1451 45.0791 63.4797 44.9703C59.0311 44.2423 55.7357 46.7235 53.9268 49.0089C53.7102 49.2825 53.515 49.5532 53.3416 49.8153C53.1406 50.1193 52.969 50.4117 52.8276 50.6833C53.0641 50.8234 53.3011 50.9463 53.5382 51.053Z" fill="#C36D32"/>
<path d="M47.6531 57.7804C49.3937 54.9883 54.6034 50.1985 61.5178 53.3765C59.0844 56.3814 52.9048 61.4692 47.6531 57.7804Z" fill="#F79B47"/>
<path fill-rule="evenodd" clip-rule="evenodd" d="M46.5035 59.417C45.6346 58.8066 45.3941 57.6236 45.9559 56.7224C46.9897 55.064 48.9938 52.8794 51.7769 51.538C54.6397 50.1582 58.2975 49.6953 62.3531 51.5592C62.9142 51.8171 63.3247 52.3198 63.4653 52.9212C63.6059 53.5226 63.4608 54.1552 63.0721 54.6351C61.7253 56.2983 59.348 58.5468 56.4983 59.8962C53.6086 61.2646 49.9254 61.8206 46.5035 59.417ZM48.3733 58.2294C48.7254 58.422 49.0806 58.5785 49.4377 58.7019C53.3703 60.0614 57.5187 57.4088 60.078 54.9375C60.6414 54.3935 61.1277 53.8582 61.5178 53.3765C60.8294 53.0601 60.1578 52.8226 59.5049 52.6544C54.7436 51.4272 50.9736 53.8776 48.8705 56.1907C48.6511 56.432 48.4498 56.6719 48.2674 56.9059C48.03 57.2104 47.8247 57.5051 47.6531 57.7804C47.8914 57.9478 48.1316 58.0971 48.3733 58.2294Z" fill="#C36D32"/>
<path fill-rule="evenodd" clip-rule="evenodd" d="M47.8555 57.4701C47.7835 57.5758 47.716 57.6794 47.6531 57.7804C52.9047 61.4692 59.0844 56.3815 61.5178 53.3765C61.0473 53.1603 60.5848 52.9809 60.1307 52.8353C57.6873 55.6221 52.551 59.5937 47.8555 57.4701Z" fill="#E58C3A"/>
<path d="M41.1372 65.7891C43.1624 62.822 49.1411 57.8137 56.8546 61.5171C54.0442 64.6899 46.9661 69.9861 41.1372 65.7891Z" fill="#F79B47"/>
<path fill-rule="evenodd" clip-rule="evenodd" d="M39.9713 67.3762C39.0829 66.7366 38.853 65.5336 39.4515 64.6568C40.6351 62.9227 42.9079 60.6614 46.0166 59.3317C49.2011 57.9696 53.247 57.602 57.7029 59.7414C58.2752 60.0161 58.6906 60.5344 58.8259 61.1424C58.9612 61.7504 58.8008 62.3782 58.3923 62.8393C56.8529 64.5772 54.1536 66.9021 50.9616 68.2419C47.738 69.595 43.6841 70.0496 39.9713 67.3762ZM41.6239 66.1159C42.0521 66.3833 42.486 66.6023 42.9237 66.7773C47.4635 68.5929 52.3984 65.6787 55.3672 63.007C55.9426 62.4892 56.4441 61.9805 56.8546 61.5171C56.1633 61.1853 55.4861 60.9233 54.8243 60.7236C49.2737 59.0487 44.8154 61.751 42.3918 64.2646C42.0738 64.5944 41.7909 64.9209 41.5451 65.2338C41.3951 65.4247 41.259 65.6106 41.1372 65.789C41.2985 65.9052 41.4608 66.0141 41.6239 66.1159Z" fill="#C36D32"/>
<path fill-rule="evenodd" clip-rule="evenodd" d="M41.333 65.5128C41.2641 65.6066 41.1988 65.6988 41.1372 65.7891C46.9661 69.9861 54.0442 64.6899 56.8546 61.5171C56.3863 61.2923 55.9244 61.0996 55.4694 60.9366C52.6525 63.9021 46.6459 68.1533 41.333 65.5128Z" fill="#E68C3A"/>
<path d="M29.4333 27.8845C27.22 26.8041 23.2514 23.2947 25.0839 17.9009C27.5093 19.4809 31.7746 23.6895 29.4333 27.8845Z" fill="#FECB01"/>
<path fill-rule="evenodd" clip-rule="evenodd" d="M31.1797 28.8592C30.6622 29.7865 29.5102 30.1477 28.5559 29.6818C27.1715 29.006 25.311 27.6231 24.0389 25.5597C22.7205 23.4209 22.0622 20.5779 23.1903 17.2575C23.3889 16.6728 23.8466 16.2126 24.4303 16.0108C25.014 15.8089 25.6581 15.888 26.1756 16.2251C27.5615 17.1279 29.4814 18.7747 30.7558 20.8743C32.0532 23.0116 32.8245 25.9122 31.1797 28.8592ZM29.712 27.3136C29.9018 26.8614 30.0192 26.4105 30.0747 25.9641C30.4019 23.3321 28.5794 20.8586 26.7818 19.2238C26.1868 18.6828 25.5946 18.2336 25.084 17.9009C24.8299 18.6487 24.6873 19.3602 24.6361 20.0341C24.4015 23.1234 26.0868 25.421 27.7524 26.7873C28.0858 27.0607 28.4184 27.2969 28.7347 27.4946C28.9798 27.6479 29.2151 27.778 29.4333 27.8845C29.5396 27.6942 29.6322 27.5038 29.712 27.3136Z" fill="#B26633"/>
<path d="M29.7877 31.4912C27.6674 31.3282 23.3653 29.7739 23.1201 24.8614C25.5696 25.3579 30.3323 27.379 29.7877 31.4912Z" fill="#DCAC01"/>
<path fill-rule="evenodd" clip-rule="evenodd" d="M31.7704 31.7538C31.631 32.8065 30.6932 33.5668 29.6344 33.4853C28.2659 33.3801 26.2807 32.8481 24.5548 31.5604C22.7578 30.2197 21.278 28.075 21.1226 24.9611C21.0918 24.3442 21.3477 23.7478 21.8159 23.3451C22.2842 22.9424 22.9122 22.7785 23.5175 22.9012C24.9448 23.1906 27.0512 23.9145 28.7836 25.2257C30.5513 26.5635 32.1704 28.7333 31.7704 31.7538ZM29.8298 30.9443C29.8405 30.4111 29.7595 29.916 29.6061 29.4576C28.9551 27.5133 26.9995 26.2299 25.1991 25.4987C24.4426 25.1914 23.7135 24.9816 23.1201 24.8614C23.1607 25.6739 23.3122 26.3946 23.5465 27.0323C24.3641 29.2575 26.1893 30.4723 27.8228 31.0551C28.2724 31.2155 28.7074 31.328 29.1029 31.4005C29.3484 31.4455 29.5787 31.4751 29.7877 31.4912C29.8124 31.3046 29.8262 31.1223 29.8298 30.9443Z" fill="#975428"/>
<path d="M31.8997 38.3245C29.4799 38.4627 24.3843 37.3613 23.3604 31.8499C26.2026 32.0382 31.8895 33.5969 31.8997 38.3245Z" fill="#DCAC01"/>
<path fill-rule="evenodd" clip-rule="evenodd" d="M33.8997 38.3202C33.902 39.3821 33.0739 40.2607 32.0137 40.3212C30.4952 40.408 28.2265 40.1161 26.1352 38.9541C23.9665 37.7491 22.0263 35.6183 21.394 32.2152C21.2812 31.608 21.4553 30.9827 21.8656 30.5211C22.2759 30.0595 22.8764 29.8134 23.4926 29.8542C25.12 29.9621 27.5656 30.452 29.6754 31.6434C31.8238 32.8566 33.8925 34.9836 33.8997 38.3202ZM31.864 37.7004C31.8078 37.2084 31.6868 36.7543 31.5124 36.3356C30.5202 33.9523 27.802 32.7158 25.49 32.1761C24.7056 31.993 23.968 31.8901 23.3604 31.8499C23.505 32.6286 23.731 33.3192 24.0192 33.9308C25.3035 36.6562 27.8241 37.8109 29.8966 38.1862C30.3261 38.264 30.7364 38.3083 31.1124 38.3262C31.3965 38.3397 31.6611 38.3381 31.8997 38.3245C31.8992 38.11 31.8871 37.902 31.864 37.7004Z" fill="#975428"/>
<path d="M34.0422 46.8658C31.3039 46.8744 25.6226 45.3217 24.803 39.0417C27.9979 39.4272 34.3185 41.5318 34.0422 46.8658Z" fill="#DCAC01"/>
<path fill-rule="evenodd" clip-rule="evenodd" d="M36.0395 46.9692C35.9846 48.0297 35.1104 48.8624 34.0485 48.8657C32.3702 48.871 29.8788 48.4129 27.6389 47.0053C25.3241 45.5505 23.3149 43.0934 22.8199 39.3005C22.7399 38.6881 22.9474 38.0731 23.382 37.6343C23.8166 37.1955 24.4295 36.9821 25.0427 37.0561C26.8453 37.2736 29.5342 37.9661 31.8001 39.412C34.1034 40.8817 36.228 43.3307 36.0395 46.9692ZM34.04 46.1594C34.0125 45.7012 33.9342 45.2691 33.8125 44.862C32.9099 41.8442 29.6172 40.197 26.9019 39.4596C26.1337 39.2509 25.4116 39.1151 24.803 39.0417C24.9035 39.8113 25.077 40.51 25.3091 41.1435C26.5818 44.6168 29.6181 46.1307 32.0494 46.6458C32.436 46.7278 32.8074 46.7844 33.1539 46.8197C33.4737 46.8522 33.7722 46.8666 34.0422 46.8657C34.0547 46.6237 34.0537 46.3883 34.04 46.1594Z" fill="#975428"/>
<path fill-rule="evenodd" clip-rule="evenodd" d="M30.8153 46.3077C32.0206 46.7156 33.1781 46.8685 34.0424 46.8657C34.3187 41.5318 27.998 39.4272 24.8032 39.0417C24.827 39.224 24.8549 39.4024 24.8867 39.5768C27.6919 40.7008 30.7509 42.8498 30.8153 46.3077Z" fill="#BB890A"/>
<path d="M35.8554 54.3615C32.9565 54.2478 27.0123 52.3493 26.4265 45.6651C29.791 46.2165 36.3871 48.7278 35.8554 54.3615Z" fill="#DCAC01"/>
<path fill-rule="evenodd" clip-rule="evenodd" d="M37.8465 54.5494C37.7467 55.6067 36.8381 56.4016 35.777 56.3599C34.0186 56.291 31.4247 55.6996 29.1386 54.124C26.7796 52.4982 24.7845 49.8378 24.4341 45.8397C24.3802 45.2245 24.6136 44.6188 25.0663 44.1988C25.5191 43.7788 26.1405 43.5915 26.75 43.6914C28.6362 44.0006 31.4331 44.8493 33.7483 46.4685C36.0997 48.113 38.2038 50.7641 37.8465 54.5494ZM35.8847 53.6138C35.8769 53.1724 35.8239 52.7519 35.7315 52.3517C34.9558 48.9936 31.403 47.0586 28.5023 46.1618C27.7457 45.9279 27.0335 45.7646 26.4265 45.6651C26.4937 46.4319 26.6314 47.1358 26.827 47.7812C28.0035 51.6637 31.2729 53.4307 33.8729 54.0687C34.2366 54.158 34.5872 54.2252 34.9172 54.2729C35.2541 54.3217 35.5695 54.3503 35.8553 54.3615C35.8795 54.1059 35.8889 53.8567 35.8847 53.6138Z" fill="#975428"/>
<path fill-rule="evenodd" clip-rule="evenodd" d="M32.6183 53.6841C33.821 54.129 34.9777 54.327 35.8554 54.3615C36.3871 48.7278 29.7911 46.2165 26.4265 45.6651C26.4447 45.8723 26.468 46.075 26.4963 46.2732C29.432 47.575 32.6674 49.9994 32.6183 53.6841Z" fill="#BB890A"/>
<path d="M38.4628 63.3198C35.2774 63.4464 28.6675 61.8551 27.7111 54.4767C31.4278 54.796 38.7817 57.0115 38.4628 63.3198Z" fill="#DCAC01"/>
<path fill-rule="evenodd" clip-rule="evenodd" d="M40.4547 63.4245C40.4024 64.4595 39.5743 65.2828 38.5445 65.3237C36.6426 65.3993 33.7938 64.9747 31.2296 63.4337C28.5806 61.8416 26.2972 59.0833 25.7333 54.7331C25.6553 54.1316 25.8522 53.5273 26.2688 53.0894C26.6854 52.6514 27.2769 52.4269 27.8779 52.4785C29.9439 52.6559 33.0338 53.3505 35.6339 54.9387C38.2872 56.5592 40.6636 59.2914 40.4547 63.4245ZM38.4068 61.9462C38.3772 61.7316 38.3379 61.5225 38.2895 61.3188C37.3625 57.4157 33.1052 55.5172 29.7793 54.7956C29.0255 54.6321 28.3195 54.529 27.7111 54.4767C27.8079 55.2238 27.9627 55.9116 28.1661 56.5443C29.6109 61.0396 33.5064 62.7526 36.4717 63.1988C36.5324 63.2079 36.5926 63.2165 36.6525 63.2246C37.3217 63.3149 37.9386 63.3406 38.4628 63.3198C38.4871 62.8384 38.4668 62.3809 38.4068 61.9462Z" fill="#975428"/>
<path d="M31.339 31.9812C30.063 30.2799 28.3936 26.0212 31.9242 22.5966C33.1666 24.7652 34.789 29.678 31.339 31.9812Z" fill="#FECB01"/>
<path fill-rule="evenodd" clip-rule="evenodd" d="M32.4494 33.6446C31.5662 34.2342 30.3762 34.0307 29.739 33.1812C28.9155 32.0832 28.006 30.2402 27.8353 28.0936C27.6577 25.8586 28.2937 23.3317 30.5316 21.161C30.9749 20.731 31.592 20.5299 32.2036 20.6162C32.8151 20.7025 33.3525 21.0665 33.6595 21.6023C34.3835 22.866 35.2288 24.9267 35.386 27.0937C35.5464 29.3048 34.9835 31.9529 32.4494 33.6446ZM31.7778 31.652C32.1856 31.3083 32.5043 30.9209 32.7476 30.5032C33.7796 28.7315 33.4544 26.415 32.8164 24.5796C32.5484 23.8083 32.2251 23.1219 31.9241 22.5966C31.3401 23.1631 30.8984 23.7523 30.5736 24.3491C29.4405 26.4313 29.7313 28.6045 30.3707 30.2166C30.5467 30.6603 30.7491 31.0615 30.9554 31.4066C31.0835 31.6208 31.2132 31.8134 31.339 31.9811C31.4955 31.8766 31.6416 31.7668 31.7778 31.652Z" fill="#B26633"/>
<path d="M33.5129 38.8545C32.1195 36.8714 30.3684 31.961 34.5115 28.1848C35.8501 30.6991 37.5245 36.353 33.5129 38.8545Z" fill="#FECB01"/>
<path fill-rule="evenodd" clip-rule="evenodd" d="M34.5712 40.5516C33.6701 41.1135 32.487 40.8732 31.8765 40.0044C31.002 38.7598 30.0538 36.6782 29.9384 34.2885C29.8187 31.8105 30.6061 29.0383 33.1643 26.7067C33.6207 26.2907 34.2438 26.1088 34.8523 26.2141C35.4609 26.3193 35.9867 26.6998 36.2769 27.2449C37.0434 28.6845 37.9166 31.0208 38.0168 33.4417C38.1189 35.9069 37.4024 38.7861 34.5712 40.5516ZM34.0244 38.4952C34.4128 38.188 34.7348 37.8457 34.9986 37.4768C36.5005 35.377 36.1178 32.4154 35.3573 30.1663C35.0992 29.4033 34.7977 28.7223 34.5115 28.1848C33.9262 28.7184 33.4585 29.2745 33.0908 29.8419C31.4523 32.3703 31.8002 35.1208 32.5742 37.0797C32.7346 37.4856 32.9133 37.8576 33.0963 38.1865C33.2347 38.435 33.3755 38.659 33.5129 38.8546C33.6949 38.741 33.8653 38.6211 34.0244 38.4952Z" fill="#B26633"/>
<path d="M35.8298 47.5619C34.3786 45.2399 32.7022 39.5938 37.606 35.586C38.963 38.5039 40.5077 44.9841 35.8298 47.5619Z" fill="#FECB01"/>
<path fill-rule="evenodd" clip-rule="evenodd" d="M36.7951 49.3136C35.8651 49.8261 34.6966 49.5224 34.1338 48.6219C33.2444 47.1987 32.3199 44.8402 32.3349 42.1948C32.3503 39.4608 33.3787 36.458 36.3404 34.0374C36.8186 33.6466 37.4505 33.4986 38.0525 33.6365C38.6545 33.7743 39.1591 34.1826 39.4195 34.7426C40.1852 36.389 41.0146 39.0388 40.9809 41.7266C40.9466 44.4586 39.986 47.5552 36.7951 49.3136ZM36.4288 47.1876C36.8036 46.9227 37.1295 46.6283 37.4113 46.3102C39.4995 43.952 39.1629 40.2857 38.3577 37.5897C38.1299 36.827 37.8645 36.1418 37.606 35.586C37.005 36.0772 36.5029 36.593 36.087 37.1242C33.8069 40.0372 34.1215 43.4153 34.9659 45.7527C35.1001 46.1245 35.2478 46.4699 35.4006 46.7829C35.5415 47.0717 35.6868 47.333 35.8299 47.5619C36.0421 47.445 36.2416 47.32 36.4288 47.1876Z" fill="#B26633"/>
<path d="M37.7164 55.1786C36.2845 52.6556 34.7632 46.6038 40.1338 42.5815C41.4393 45.7311 42.7836 52.6598 37.7164 55.1786Z" fill="#FECB01"/>
<path fill-rule="evenodd" clip-rule="evenodd" d="M38.6067 56.9695C37.6557 57.4422 36.5012 57.0893 35.977 56.1658C35.1085 54.6354 34.2432 52.1195 34.3765 49.3463C34.514 46.4846 35.7225 43.3866 38.9348 40.9807C39.4292 40.6105 40.0668 40.4894 40.6624 40.6526C41.258 40.8159 41.7448 41.2451 41.9813 41.8157C42.7133 43.5814 43.4669 46.4054 43.3119 49.2263C43.1544 52.0914 42.0114 55.2771 38.6067 56.9695ZM38.3672 54.8093C38.7381 54.57 39.0675 54.3032 39.3588 54.0136C41.8031 51.5839 41.5739 47.5448 40.8063 44.6071C40.6061 43.841 40.3693 43.1497 40.1338 42.5815C39.5177 43.043 38.9922 43.5311 38.547 44.0376C35.8684 47.0845 36.091 50.7942 36.9198 53.3398C37.0358 53.6959 37.1636 54.0292 37.297 54.3348C37.4332 54.6468 37.5752 54.9298 37.7164 55.1786C37.9463 55.0643 38.1631 54.9409 38.3672 54.8093Z" fill="#B26633"/>
<path d="M38.3647 63.3894C37.6009 60.3153 37.8144 53.4418 44.7786 50.5398C45.2168 54.2513 44.5475 62.0172 38.3647 63.3894Z" fill="#FECB01"/>
<path fill-rule="evenodd" clip-rule="evenodd" d="M38.7731 65.3159C37.7044 65.5531 36.6537 64.9239 36.3977 63.8937C35.9426 62.0622 35.7865 59.1944 36.7523 56.3201C37.7445 53.3675 39.9226 50.4313 44.0182 48.7247C44.6041 48.4805 45.2674 48.5155 45.8112 48.8192C46.355 49.123 46.7167 49.6605 46.7889 50.2723C47.0317 52.329 46.9777 55.5061 45.9716 58.4344C44.9543 61.3952 42.8249 64.4167 38.7731 65.3159ZM38.8655 63.2609C39.3784 63.1111 39.8503 62.9148 40.2841 62.679C43.869 60.7306 44.853 56.0845 44.8854 52.6524C44.8928 51.8696 44.8507 51.1499 44.7786 50.5398C44.0609 50.8389 43.4149 51.1801 42.8342 51.5551C38.7824 54.1714 37.9143 58.4276 38.0825 61.4332C38.11 61.9248 38.1652 62.383 38.2388 62.795C38.2764 63.0057 38.3188 63.2044 38.3647 63.3893C38.5358 63.3513 38.7027 63.3085 38.8655 63.2609Z" fill="#B26633"/>
<path fill-rule="evenodd" clip-rule="evenodd" d="M51.9666 18.9129C52.7433 19.201 53.1395 20.0641 52.8514 20.8409C52.3913 22.0816 51.9341 23.4726 51.3949 25.113C49.9231 29.5906 47.8405 35.9264 43.4209 46.1373C36.1898 62.8441 32.9285 72.4776 34.9819 85.6437C35.1096 86.4623 34.5495 87.2293 33.731 87.357C32.9124 87.4846 32.1454 86.9246 32.0177 86.106C29.8212 72.0222 33.4202 61.6903 40.6678 44.9457C45.0265 34.8754 47.032 28.7728 48.5011 24.3025C49.0577 22.609 49.5373 21.1497 50.0386 19.7978C50.3267 19.021 51.1898 18.6249 51.9666 18.9129Z" fill="#8B4E25"/>
<path d="M51.7556 21.5217C50.7888 18.901 50.2877 12.9137 56.0181 9.93005C56.7671 13.1262 56.9632 19.9192 51.7556 21.5217Z" fill="#FFCB45"/>
<path fill-rule="evenodd" clip-rule="evenodd" d="M52.3439 23.4332C51.329 23.7455 50.2469 23.2102 49.8793 22.2139C49.2889 20.6135 48.857 18.0737 49.4198 15.4435C50.0011 12.7267 51.6453 9.95202 55.0945 8.15609C55.6423 7.87087 56.2911 7.85472 56.8524 8.11233C57.4137 8.36993 57.8245 8.87241 57.9654 9.4737C58.3871 11.2731 58.664 14.0855 58.0734 16.7554C57.4734 19.4685 55.8775 22.3458 52.3439 23.4332ZM52.4317 21.2723C52.8471 21.0916 53.2225 20.874 53.5611 20.6253C56.1807 18.7017 56.6019 14.9205 56.3486 12.0424C56.2789 11.2508 56.1582 10.5276 56.0182 9.93003C55.3317 10.2874 54.7347 10.6879 54.2172 11.1206C51.2865 13.5708 50.9056 17.052 51.2746 19.5757C51.3308 19.9598 51.4043 20.3217 51.4888 20.6544C51.5696 20.9722 51.6604 21.2633 51.7557 21.5217C51.992 21.4489 52.2172 21.3655 52.4317 21.2723Z" fill="#B26633"/>
<path d="M47.5649 27.494C45.5449 25.5647 42.464 20.4065 46.3006 15.2084C48.3778 17.7504 51.5387 23.7664 47.5649 27.494Z" fill="#E9A626"/>
<path fill-rule="evenodd" clip-rule="evenodd" d="M48.9332 28.9527C48.1587 29.6792 46.9514 29.6738 46.1835 28.9403C44.9499 27.7621 43.446 25.6704 42.7958 23.0604C42.1243 20.3645 42.3822 17.1496 44.6915 14.0208C45.0582 13.5239 45.6339 13.2243 46.2513 13.209C46.8687 13.1938 47.4585 13.4647 47.8493 13.9429C49.0187 15.374 50.5032 17.7788 51.1459 20.4366C51.7989 23.1374 51.6296 26.4233 48.9332 28.9527ZM48.0625 26.973C48.3563 26.6282 48.5979 26.2678 48.7929 25.8956C50.3008 23.0165 49.0178 19.4349 47.5256 16.9608C47.1152 16.2803 46.689 15.6837 46.3006 15.2084C45.841 15.8311 45.4807 16.4532 45.206 17.0692C43.6499 20.558 44.8374 23.8525 46.2777 25.9574C46.4969 26.2777 46.722 26.5705 46.9441 26.8323C47.1563 27.0822 47.3657 27.3038 47.5649 27.494C47.7452 27.3249 47.9108 27.151 48.0625 26.973Z" fill="#8B4E25"/>
<path d="M44.4659 35.9237C42.1625 34.1149 38.4249 29.044 41.9021 23.2308C44.3273 25.6732 48.2353 31.6311 44.4659 35.9237Z" fill="#E9A626"/>
<path fill-rule="evenodd" clip-rule="evenodd" d="M45.9688 37.2434C45.2681 38.0413 44.066 38.1525 43.2308 37.4967C41.8359 36.4013 40.0671 34.3852 39.1314 31.7475C38.1662 29.0264 38.1092 25.6758 40.1858 22.2041C40.5029 21.6741 41.047 21.3203 41.66 21.2455C42.273 21.1707 42.8863 21.3833 43.3214 21.8216C44.6796 23.1895 46.4627 25.5367 47.3965 28.2278C48.3448 30.9607 48.4954 34.3661 45.9688 37.2434ZM44.9325 35.3296C45.1833 34.9699 45.3864 34.6008 45.5465 34.2251C46.9174 31.008 45.1427 27.3036 43.293 24.8486C42.8169 24.2167 42.3359 23.6675 41.9022 23.2308C41.5076 23.8905 41.2059 24.5407 40.9844 25.1777C39.6323 29.0671 41.274 32.4627 43.0305 34.5257C43.271 34.8081 43.5137 35.0656 43.7511 35.296C43.9978 35.5353 44.2389 35.7454 44.466 35.9237C44.637 35.7289 44.7922 35.5307 44.9325 35.3296Z" fill="#8B4E25"/>
<path d="M40.727 45.4866C38.2846 43.5687 34.3214 38.1917 38.0085 32.0276C40.5801 34.6174 44.7239 40.935 40.727 45.4866Z" fill="#E9A626"/>
<path fill-rule="evenodd" clip-rule="evenodd" d="M42.2299 46.8063C41.5292 47.6042 40.3271 47.7155 39.4919 47.0596C38.0275 45.9097 36.1675 43.7897 35.1843 41.0181C34.1715 38.1629 34.1106 34.6481 36.2922 31.001C36.6092 30.471 37.1533 30.1172 37.7664 30.0424C38.3794 29.9676 38.9926 30.1802 39.4278 30.6184C40.8592 32.06 42.7379 34.534 43.7205 37.3658C44.7176 40.2394 44.8702 43.7995 42.2299 46.8063ZM41.2218 44.8567C41.4621 44.5121 41.661 44.1593 41.8224 43.8006C43.39 40.3161 41.4142 36.2668 39.4022 33.6362C38.924 33.011 38.4438 32.4659 38.0086 32.0277C37.6169 32.6824 37.3116 33.3283 37.0816 33.9621C35.5438 38.1995 37.3731 41.8967 39.2847 44.0969C39.5135 44.3603 39.7435 44.6022 39.9691 44.821C40.2307 45.0748 40.4863 45.2975 40.7271 45.4866C40.9084 45.2801 41.073 45.0699 41.2218 44.8567Z" fill="#8B4E25"/>
<path fill-rule="evenodd" clip-rule="evenodd" d="M39.4226 44.2529C39.8713 44.7518 40.3203 45.1672 40.7271 45.4866C44.724 40.9349 40.5801 34.6174 38.0086 32.0276C37.8709 32.2577 37.7439 32.4868 37.6271 32.7146C39.5844 35.5248 41.8077 40.5387 39.4226 44.2529Z" fill="#CA8B12"/>
<path d="M38.0593 55.0823C35.3387 53.232 30.7602 47.8358 34.2108 41.0533C37.1165 43.6044 41.9543 49.9817 38.0593 55.0823Z" fill="#E9A626"/>
<path fill-rule="evenodd" clip-rule="evenodd" d="M39.6489 56.2961C39.0045 57.1401 37.8127 57.3333 36.9347 56.7361C35.3187 55.6371 33.2157 53.5476 31.9861 50.7133C30.7213 47.7979 30.4044 44.1245 32.4283 40.1464C32.7083 39.5959 33.227 39.2058 33.8335 39.0892C34.44 38.9727 35.0663 39.1429 35.5304 39.5503C37.1386 40.9622 39.2907 43.4272 40.5256 46.3284C41.7778 49.2703 42.1868 52.9727 39.6489 56.2961ZM38.5366 54.3806C38.7432 54.0364 38.9137 53.6877 39.0512 53.3359C40.5662 49.4605 38.0808 45.2097 35.7133 42.5542C35.1922 41.9696 34.6767 41.4623 34.2109 41.0533C33.8673 41.7286 33.6033 42.3902 33.4092 43.0359C31.9935 47.7446 34.2918 51.6091 36.5194 53.8026C36.7518 54.0315 36.9834 54.2422 37.21 54.4337C37.5049 54.683 37.7912 54.8999 38.0594 55.0823C38.2361 54.8509 38.3949 54.6168 38.5366 54.3806Z" fill="#8B4E25"/>
<path fill-rule="evenodd" clip-rule="evenodd" d="M36.3196 53.6014C36.9213 54.2205 37.5261 54.7195 38.0594 55.0823C41.9544 49.9816 37.1166 43.6043 34.2109 41.0532C34.1021 41.2671 34.0013 41.4796 33.9081 41.6907C36.0332 44.5487 38.4895 49.6273 36.3196 53.6014Z" fill="#CA8B12"/>
<path d="M36.5168 65.6519C33.2353 64.1342 27.3838 59.1128 30.2299 51.1692C33.8176 53.4117 40.0977 59.4476 36.5168 65.6519Z" fill="#E9A626"/>
<path fill-rule="evenodd" clip-rule="evenodd" d="M38.2424 66.6524C37.7244 67.55 36.6122 67.9057 35.6767 67.473C33.7552 66.5843 31.1424 64.7153 29.3823 61.8871C27.5698 58.9748 26.7047 55.0958 28.3526 50.4965C28.5571 49.9255 29.0076 49.4773 29.578 49.2772C30.1483 49.0771 30.7772 49.1466 31.2887 49.4663C33.2592 50.698 35.9853 52.9686 37.7624 55.8701C39.572 58.8247 40.5228 62.7014 38.2424 66.6524ZM37.1699 64.2362C37.2199 64.0928 37.2652 63.9496 37.3057 63.8068C38.6201 59.1758 35.0279 54.8465 31.9288 52.3782C31.3313 51.9023 30.7521 51.4956 30.23 51.1692C29.9792 51.8691 29.796 52.5463 29.6725 53.2004C28.395 59.9704 33.5245 64.2679 36.5168 65.6519C36.7901 65.1785 37.0059 64.706 37.1699 64.2362Z" fill="#8B4E25"/>
<path fill-rule="evenodd" clip-rule="evenodd" d="M34.3666 64.3529C35.1256 64.9187 35.8711 65.3532 36.517 65.6519C40.0163 59.5889 34.0987 53.6866 30.4792 51.3282C33.2684 54.2641 36.6543 59.6431 34.3666 64.3529Z" fill="#CA8C13"/>
<path d="M49.7345 29.2823C49.8523 26.4915 51.6971 20.7735 58.1347 20.2285C57.5942 23.4665 55.1574 29.8104 49.7345 29.2823Z" fill="#FFCB45"/>
<path fill-rule="evenodd" clip-rule="evenodd" d="M49.5407 31.2729C48.4838 31.17 47.6916 30.259 47.7363 29.198C47.8082 27.4937 48.3884 24.9836 49.9213 22.7734C51.5046 20.4905 54.0911 18.5637 57.966 18.2356C58.5814 18.1835 59.1863 18.4186 59.605 18.8727C60.0236 19.3267 60.2091 19.9486 60.1074 20.5578C59.8031 22.3807 58.9748 25.0826 57.4011 27.3187C55.8018 29.591 53.2204 31.6312 49.5407 31.2729ZM50.4544 29.3127C50.9074 29.3061 51.3376 29.2499 51.746 29.151C54.9045 28.3853 56.7503 25.0586 57.6256 22.305C57.8663 21.5478 58.0336 20.8338 58.1347 20.2285C57.3636 20.2938 56.6583 20.4333 56.014 20.6331C52.3655 21.7647 50.6725 24.8303 50.0405 27.3013C49.9443 27.6774 49.8727 28.0397 49.8225 28.3793C49.7746 28.7036 49.7462 29.0072 49.7346 29.2823C49.9806 29.3063 50.2205 29.3161 50.4544 29.3127Z" fill="#B26633"/>
<path d="M46.5044 37.6936C46.8267 34.7826 49.1645 28.933 55.9375 28.8222C55.141 32.1707 52.1393 38.6329 46.5044 37.6936Z" fill="#FFCB45"/>
<path fill-rule="evenodd" clip-rule="evenodd" d="M46.1755 39.6664C45.1281 39.4918 44.3997 38.529 44.5166 37.4735C44.7117 35.7107 45.4921 33.1447 47.2399 30.9588C49.043 28.7039 51.86 26.8887 55.9048 26.8226C56.5223 26.8125 57.1098 27.0882 57.4966 27.5697C57.8834 28.0511 58.0261 28.6843 57.8832 29.2851C57.4371 31.1604 56.3829 33.9132 54.5888 36.1256C52.7667 38.3724 49.9526 40.296 46.1755 39.6664ZM47.2552 37.7767C47.6931 37.8002 48.1138 37.7781 48.5174 37.716C51.9738 37.1845 54.1856 33.7232 55.2962 30.8571C55.5821 30.1194 55.795 29.421 55.9375 28.8223C55.1688 28.8349 54.4573 28.9213 53.7993 29.0691C49.7816 29.9711 47.762 33.1564 46.9354 35.7367C46.8222 36.09 46.7314 36.432 46.6608 36.7552C46.5876 37.091 46.5362 37.4066 46.5044 37.6936C46.7601 37.7362 47.0103 37.7636 47.2552 37.7767Z" fill="#B26633"/>
<path d="M42.828 47.3635C43.1698 44.2769 45.6487 38.0742 52.8304 37.9568C51.9859 41.5074 48.803 48.3595 42.828 47.3635Z" fill="#FFCB45"/>
<path fill-rule="evenodd" clip-rule="evenodd" d="M42.4992 49.3363C41.4517 49.1617 40.7233 48.1989 40.8402 47.1435C41.0451 45.2929 41.8656 42.5946 43.7022 40.2977C45.5941 37.9317 48.5485 36.0266 52.7977 35.9571C53.4152 35.947 54.0028 36.2227 54.3896 36.7042C54.7764 37.1857 54.919 37.8188 54.7761 38.4196C54.306 40.396 53.1946 43.2968 51.3066 45.6249C49.3907 47.9874 46.4462 49.9943 42.4992 49.3363ZM43.6242 47.4517C44.0437 47.4742 44.4483 47.4572 44.8381 47.4052C48.6255 46.8998 51.0243 43.0858 52.1985 39.9892C52.4776 39.2532 52.6875 38.5577 52.8304 37.9568C52.0676 37.9693 51.3578 38.0504 50.698 38.1892C46.2867 39.1169 44.1098 42.6208 43.2483 45.4052C43.1452 45.7385 43.0609 46.0615 42.9939 46.3685C42.9162 46.7246 42.8617 47.0592 42.828 47.3636C43.0991 47.4088 43.3645 47.4378 43.6242 47.4517Z" fill="#B26633"/>
<path d="M40.359 56.9865C40.4966 53.6991 42.6674 46.9634 50.2498 46.319C49.6144 50.1331 46.7467 57.6064 40.359 56.9865Z" fill="#FFCB45"/>
<path fill-rule="evenodd" clip-rule="evenodd" d="M40.1657 58.9771C39.1088 58.8745 38.3162 57.9638 38.3607 56.9028C38.4424 54.9503 39.1089 52.0616 40.8687 49.5224C42.679 46.9104 45.6331 44.7041 50.0804 44.3261C50.6958 44.2738 51.3008 44.5088 51.7196 44.9626C52.1385 45.4165 52.3241 46.0384 52.2226 46.6476C51.8709 48.7586 50.9113 51.887 49.0974 54.466C47.258 57.0813 44.3278 59.381 40.1657 58.9771ZM41.2068 57.0219C41.6081 57.016 41.9944 56.977 42.3658 56.9083C46.4575 56.152 48.7588 51.7989 49.7668 48.387C49.9887 47.6359 50.1479 46.9304 50.2498 46.319C49.4948 46.3831 48.7935 46.5077 48.1425 46.6832C43.3951 47.9632 41.3234 51.9538 40.6342 55.0032C40.5623 55.3213 40.5054 55.6292 40.4621 55.9227C40.4058 56.3047 40.3725 56.6623 40.3589 56.9865C40.6487 57.0146 40.9313 57.026 41.2068 57.0219Z" fill="#B26633"/>
<path d="M36.3818 65.6715C37.1988 62.1733 40.9653 55.3439 49.4957 56.0117C48.0207 59.9853 43.3331 67.4802 36.3818 65.6715Z" fill="#FFCB45"/>
<path fill-rule="evenodd" clip-rule="evenodd" d="M35.8678 67.5727C34.8085 67.297 34.1596 66.2583 34.401 65.2245C34.8785 63.18 36.1813 60.2505 38.5999 57.8879C41.0777 55.4676 44.7178 53.6637 49.6456 54.0495C50.2784 54.099 50.853 54.4323 51.1987 54.9504C51.5444 55.4685 51.6216 56.1118 51.4072 56.6894C50.5993 58.8659 48.9218 62.0087 46.4291 64.4108C43.9117 66.8368 40.2956 68.7248 35.8678 67.5727ZM36.9538 65.8006C37.4496 65.8953 37.9334 65.9428 38.4047 65.9479C43.2938 66.0015 46.8433 61.5018 48.6468 57.9382C48.9964 57.2476 49.2803 56.5921 49.4957 56.0117C48.7313 55.9519 48.0052 55.9523 47.316 56.005C41.535 56.4476 38.3536 60.5777 37.0013 63.7969C36.8238 64.2192 36.6779 64.6259 36.5617 65.0065C36.4908 65.2386 36.431 65.4611 36.3819 65.6715C36.5743 65.7216 36.7649 65.7645 36.9538 65.8006Z" fill="#B26633"/>
<path fill-rule="evenodd" clip-rule="evenodd" d="M48.5913 40.3721C48.938 40.802 48.8706 41.4316 48.4407 41.7783C48.1439 42.0176 47.6723 42.4307 47.2458 42.8717C46.782 43.3513 46.5058 43.7295 46.4367 43.9137C46.2428 44.4308 45.6664 44.6928 45.1492 44.4989C44.6321 44.3049 44.3701 43.7285 44.5641 43.2114C44.795 42.5956 45.3521 41.9529 45.8081 41.4814C46.3014 40.9713 46.836 40.5031 47.1851 40.2215C47.615 39.8748 48.2445 39.9422 48.5913 40.3721Z" fill="white"/>
<path fill-rule="evenodd" clip-rule="evenodd" d="M45.2577 50.2205C45.4311 50.4355 45.3974 50.7503 45.1824 50.9236C44.8726 51.1735 44.3852 51.6004 43.942 52.0587C43.4802 52.5363 43.1337 52.9806 43.0242 53.2726C42.9272 53.5312 42.639 53.6622 42.3805 53.5652C42.1219 53.4683 41.9909 53.18 42.0879 52.9215C42.2784 52.4136 42.7653 51.837 43.2232 51.3635C43.6998 50.8707 44.2186 50.4163 44.5546 50.1453C44.7696 49.9719 45.0844 50.0056 45.2577 50.2205Z" fill="#FFE5A4"/>
<path fill-rule="evenodd" clip-rule="evenodd" d="M51.7018 31.6513C51.8752 31.8663 51.8415 32.1811 51.6265 32.3544C51.3167 32.6043 50.8293 33.0312 50.3861 33.4895C49.9243 33.967 49.5778 34.4113 49.4683 34.7034C49.3713 34.962 49.0831 35.093 48.8246 34.996C48.566 34.899 48.435 34.6108 48.532 34.3523C48.7224 33.8444 49.2093 33.2678 49.6673 32.7943C50.1439 32.3015 50.6627 31.847 50.9987 31.576C51.2137 31.4027 51.5285 31.4364 51.7018 31.6513Z" fill="#FFE5A4"/>
<path fill-rule="evenodd" clip-rule="evenodd" d="M55.418 22.5846C55.5914 22.7995 55.5577 23.1143 55.3427 23.2876C55.0329 23.5375 54.5455 23.9644 54.1023 24.4227C53.6405 24.9003 53.294 25.3446 53.1845 25.6367C53.0875 25.8952 52.7993 26.0262 52.5407 25.9292C52.2822 25.8323 52.1512 25.5441 52.2482 25.2855C52.4386 24.7776 52.9255 24.2011 53.3835 23.7275C53.8601 23.2347 54.3789 22.7803 54.7149 22.5093C54.9299 22.3359 55.2447 22.3696 55.418 22.5846Z" fill="#FFE5A4"/>
<path fill-rule="evenodd" clip-rule="evenodd" d="M42.8156 59.8195C42.989 60.0344 42.9552 60.3492 42.7403 60.5226C42.4305 60.7725 41.9431 61.1993 41.4999 61.6576C41.038 62.1352 40.6916 62.5795 40.5821 62.8716C40.4851 63.1301 40.1969 63.2611 39.9383 63.1642C39.6798 63.0672 39.5488 62.779 39.6457 62.5204C39.8362 62.0125 40.3231 61.436 40.7811 60.9624C41.2576 60.4696 41.7765 60.0152 42.1125 59.7442C42.3275 59.5708 42.6422 59.6045 42.8156 59.8195Z" fill="#FFE5A4"/>
</svg>
