<svg width="96" height="96" viewBox="0 0 96 96" fill="none" xmlns="http://www.w3.org/2000/svg">
<path d="M54.4468 42.0058C53.3542 43.8245 50.8032 45.2303 49.6642 45.7058C56.2879 45.3044 55.6323 47.1243 59.4233 47.3454C63.2143 47.5665 63.3487 46.726 65.6097 45.1209C67.4186 43.8368 69.2829 43.8001 69.989 43.9423C70.3729 44.2003 71.8358 44.5852 74.6164 44.0606C78.0921 43.4049 80.4686 39.3289 79.5228 36.6985C78.577 34.0682 77.0446 32.9758 74.0676 33.3459C71.5487 33.6591 69.089 34.7605 66.3111 36.7495C63.5331 38.7385 60.5744 39.0104 59.4186 38.8319C58.2628 38.6534 55.8126 39.7324 54.4468 42.0058Z" fill="#328213"/>
<path fill-rule="evenodd" clip-rule="evenodd" d="M47.7159 46.1579C47.4953 45.2073 47.993 44.2363 48.8935 43.8602C49.3385 43.6744 50.1354 43.2714 50.9301 42.7181C51.7485 42.1483 52.3965 41.5349 52.7323 40.9759C53.6118 39.512 54.83 38.4443 56.017 37.7641C57.1199 37.1321 58.5003 36.6664 59.7237 36.8553C60.3613 36.9538 62.7928 36.8088 65.1467 35.1234C68.0921 33.0145 70.864 31.7288 73.8208 31.3612C75.5738 31.1433 77.2249 31.3156 78.6303 32.2096C80.025 33.0968 80.854 34.4903 81.4047 36.0218C82.1574 38.115 81.527 40.4473 80.4146 42.1943C79.2757 43.9829 77.3814 45.5743 74.987 46.026C73.4503 46.3159 72.2074 46.3682 71.2391 46.2881C70.5899 46.2345 69.9486 46.112 69.4106 45.8871C69.373 45.8858 69.3309 45.8852 69.2844 45.8858C69.0999 45.8879 68.8644 45.9075 68.595 45.9599C68.0575 46.0645 67.4115 46.2945 66.7674 46.7517C66.387 47.0218 66.0909 47.2541 65.7885 47.4914C65.6763 47.5794 65.5633 47.6681 65.4448 47.7596C65.0333 48.0774 64.552 48.4319 63.9628 48.7176C62.7115 49.3243 61.3181 49.4593 59.3068 49.342C57.4313 49.2326 56.29 48.7472 55.4318 48.3822C55.2406 48.3009 55.0635 48.2256 54.8955 48.1617C54.0835 47.8532 52.8872 47.5142 49.7851 47.7022C48.811 47.7612 47.9365 47.1086 47.7159 46.1579ZM69.9889 43.9423C70.3728 44.2003 71.8357 44.5852 74.6163 44.0607C78.092 43.405 80.4685 39.3289 79.5227 36.6986C78.5769 34.0682 77.0445 32.9758 74.0675 33.3459C71.5486 33.6591 69.089 34.7605 66.311 36.7495C63.533 38.7386 60.5743 39.0104 59.4185 38.8319C58.2627 38.6534 55.8125 39.7325 54.4467 42.0058C54.0743 42.6257 53.5326 43.1975 52.935 43.701C51.7793 44.6747 50.4149 45.3924 49.6641 45.7058C51.3706 45.6024 52.5939 45.6464 53.5346 45.7726C54.798 45.942 55.5515 46.2595 56.281 46.5669C57.1166 46.919 57.9207 47.2578 59.4232 47.3454C62.5054 47.5252 63.1705 47.0032 64.5266 45.9391C64.8385 45.6944 65.1869 45.421 65.6097 45.1209C67.4185 43.8368 69.2829 43.8001 69.9889 43.9423Z" fill="#366225"/>
<path fill-rule="evenodd" clip-rule="evenodd" d="M75.8739 37.9043C75.8923 38.1798 75.6838 38.418 75.4083 38.4364C68.941 38.8676 61.5106 41.5842 54.1424 44.8936C53.8905 45.0068 53.5945 44.8943 53.4814 44.6424C53.3683 44.3905 53.4807 44.0946 53.7326 43.9814C61.1144 40.6659 68.684 37.8825 75.3417 37.4386C75.6173 37.4203 75.8555 37.6287 75.8739 37.9043Z" fill="#42A41C"/>
<path d="M43.4028 36.8815C44.1232 38.7294 44.6774 42.3149 44.3779 43.4291C47.8682 38.3008 48.8394 39.8262 51.1704 37.1488C53.5015 34.4714 52.9568 33.8915 53.0624 31.3015C53.1469 29.2295 54.1858 27.8296 54.6947 27.3887C55.105 27.2523 56.2261 26.3904 57.428 24.034C58.9303 21.0885 57.2745 17.0003 54.7884 16.1958C52.3022 15.3914 48.7892 16.9123 47.3607 19.3257C46.1521 21.3677 46.4553 22.8435 46.338 26.0354C46.2207 29.2272 45.625 30.5978 44.8321 31.3505C44.0393 32.1033 42.5024 34.5715 43.4028 36.8815Z" fill="#428D25"/>
<path fill-rule="evenodd" clip-rule="evenodd" d="M43.5441 45.247C42.657 44.8401 42.1932 43.8524 42.4465 42.91C42.4447 42.9167 42.445 42.9136 42.4464 42.8995C42.4514 42.8491 42.4703 42.6577 42.4549 42.2767C42.4375 41.846 42.3831 41.3106 42.2953 40.7289C42.116 39.5411 41.8257 38.3421 41.5395 37.6079C40.8534 35.8478 41.1313 34.1204 41.6073 32.8367C42.0755 31.574 42.8196 30.5036 43.4551 29.9001C43.6563 29.7091 44.2269 29.0244 44.3394 25.9619C44.3589 25.4321 44.3619 24.9206 44.3649 24.4217C44.3775 22.3091 44.3887 20.4206 45.6397 18.307C46.6113 16.6653 48.2149 15.4279 49.8955 14.7135C51.5638 14.0043 53.5741 13.7008 55.4041 14.293C57.4338 14.9497 58.8213 16.7897 59.4856 18.6343C60.1667 20.5254 60.2644 22.8748 59.2097 24.9427C58.5411 26.2537 57.8627 27.2129 57.2407 27.8933C56.8322 28.3402 56.3718 28.7505 55.888 29.0296C55.8712 29.0502 55.8529 29.0735 55.8333 29.0995C55.7341 29.231 55.618 29.4097 55.5064 29.6318C55.2837 30.0747 55.0901 30.6659 55.0608 31.383C55.0432 31.8154 55.0457 32.163 55.0483 32.5213C55.0492 32.6551 55.0502 32.7904 55.0501 32.9322C55.0499 33.42 55.037 33.9898 54.9085 34.6027C54.635 35.9077 53.9206 37.0359 52.6789 38.4621C51.5094 39.8054 50.4761 40.3838 49.7153 40.8096C49.5476 40.9034 49.3932 40.9898 49.2535 41.0754C48.5804 41.4876 47.6583 42.164 46.0313 44.5544C45.4823 45.3612 44.4311 45.6539 43.5441 45.247ZM54.6947 27.3887C55.1051 27.2523 56.2262 26.3904 57.4281 24.034C58.9304 21.0885 57.2746 17.0003 54.7884 16.1958C52.3023 15.3914 48.7892 16.9123 47.3608 19.3257C46.4074 20.9365 46.3947 22.195 46.3743 24.2215C46.3689 24.7639 46.3628 25.3614 46.3381 26.0354C46.2208 29.2272 45.625 30.5978 44.8322 31.3506C44.0393 32.1033 42.5024 34.5715 43.4029 36.8815C43.7473 37.765 44.0537 39.0456 44.247 40.2634C44.458 41.5929 44.5343 42.8476 44.378 43.4291C45.144 42.3036 45.7887 41.4985 46.3531 40.8992C47.3409 39.8502 48.0826 39.4315 48.7981 39.0276C49.5363 38.611 50.2466 38.21 51.1705 37.1488C53.0657 34.9721 53.06 34.1817 53.0484 32.5703C53.0457 32.1998 53.0428 31.7857 53.0625 31.3015C53.147 29.2295 54.1859 27.8296 54.6947 27.3887Z" fill="#366225"/>
<path d="M48.384 38.3935C48.6366 41.4129 46.7797 44.789 45.8197 46.0997C53.4391 41.5352 54.2183 44.2892 58.9676 42.2599C63.7168 40.2305 63.1545 39.0614 64.491 35.6046C65.5601 32.8391 67.7705 31.653 68.742 31.4056C70.6182 30.9279 71.5166 31.1092 74.4086 28.7326C78.0235 25.7618 80.2229 21.2651 76.82 18.4409C73.417 15.6167 70.0486 15.9822 66.5077 16.5558C62.9667 17.1294 59.7512 20.0804 58.1238 24.3494C56.4964 28.6185 53.1725 30.7771 51.6289 31.2521C50.0853 31.7272 48.0683 34.6192 48.384 38.3935Z" fill="#68BE47"/>
<path fill-rule="evenodd" clip-rule="evenodd" d="M44.3417 47.447C43.7005 46.7436 43.6438 45.6857 44.2063 44.9178C44.5901 44.3938 45.211 43.3696 45.699 42.1463C46.194 40.9056 46.4811 39.637 46.391 38.5602C46.2001 36.2781 46.7114 34.233 47.5381 32.6567C48.315 31.1753 49.545 29.8009 51.0407 29.3406C52.0164 29.0403 54.8547 27.3105 56.2551 23.637C58.0632 18.8939 61.7601 15.2988 66.188 14.5815C69.7747 14.0005 73.9606 13.4687 78.0973 16.9019C79.2461 17.8553 79.9998 19.0241 80.3277 20.3385C80.6508 21.6333 80.5276 22.9332 80.1554 24.1271C79.425 26.4696 77.6705 28.6407 75.6785 30.2778C74.1396 31.5425 73.0021 32.2343 71.9041 32.6511C71.3639 32.8561 70.8792 32.9769 70.4458 33.0731C70.2922 33.1072 70.1548 33.1364 70.0241 33.1641C69.7606 33.2201 69.5241 33.2703 69.2356 33.3438C68.7991 33.4549 67.1599 34.2477 66.3565 36.3258C66.1284 36.9159 65.9687 37.4086 65.8086 37.9026C65.75 38.0835 65.6913 38.2646 65.6292 38.4507C65.4108 39.105 65.1455 39.833 64.6982 40.5385C63.7466 42.0393 62.2355 43.0385 59.7535 44.099C57.5054 45.0596 55.8468 45.1249 54.507 45.1776C54.1972 45.1898 53.9045 45.2013 53.6255 45.223C52.2446 45.3307 50.4402 45.6631 46.8475 47.8154C46.031 48.3045 44.9829 48.1504 44.3417 47.447ZM47.5587 42.8821C47.0058 44.2697 46.3004 45.4435 45.8197 46.0997C47.0831 45.3428 48.1585 44.7872 49.0951 44.3776C51.5681 43.296 53.0734 43.2328 54.5184 43.1721C55.8266 43.1171 57.0853 43.0642 58.9676 42.2599C62.8289 40.61 63.1792 39.5287 63.8934 37.3243C64.0577 36.8173 64.2412 36.2509 64.4911 35.6046C65.5602 32.8391 67.7706 31.653 68.7421 31.4056C69.0695 31.3223 69.3671 31.259 69.6507 31.1987C70.9925 30.9133 72.0214 30.6945 74.4086 28.7326C78.0236 25.7618 80.223 21.2651 76.82 18.4409C73.4171 15.6167 70.0487 15.9822 66.5078 16.5558C62.9668 17.1294 59.7513 20.0804 58.1239 24.3494C56.4965 28.6185 53.1726 30.7771 51.629 31.2521C50.0854 31.7272 48.0683 34.6192 48.3841 38.3935C48.5102 39.9013 48.1103 41.498 47.5587 42.8821Z" fill="#366225"/>
<path fill-rule="evenodd" clip-rule="evenodd" d="M69.5086 22.1877C69.6811 22.4033 69.6462 22.7179 69.4305 22.8905C59.4678 30.8606 50.6606 40.831 47.5102 44.8104C47.3388 45.0269 47.0243 45.0634 46.8078 44.892C46.5913 44.7206 46.5548 44.4062 46.7262 44.1897C49.9091 40.1691 58.7685 30.1394 68.8058 22.1096C69.0215 21.9371 69.3361 21.972 69.5086 22.1877Z" fill="#89EA63"/>
<path d="M26.4727 72.2162C28.422 70.9732 33.0406 71.2829 36.7328 71.5365C44.0345 72.0379 49.493 70.7628 52.8415 65.9165C57.8335 58.6917 54.4821 47.723 45.356 41.4174C36.2299 35.1117 24.7849 35.8569 19.7929 43.0817C16.4192 47.9645 17.7343 54.0657 20.3112 60.2649C21.7703 63.7751 22.439 67.1301 21.9079 69.4648C21.5828 70.894 17.6422 74.3905 15.6182 78.5C14.8182 80.5001 13.6182 86 14.1182 86C14.6182 85.9999 16.2849 81.5 17.1182 80C19.1182 75.5 25.3669 72.9603 26.4727 72.2162Z" fill="#FCC601"/>
<path fill-rule="evenodd" clip-rule="evenodd" d="M15.6182 78.5C16.7472 76.2077 18.4726 74.1061 19.8341 72.4477C20.9135 71.133 21.7642 70.0968 21.9079 69.4648C22.439 67.1301 21.7704 63.7751 20.3113 60.2649C17.7344 54.0657 16.4192 47.9645 19.7929 43.0818C24.7849 35.8569 36.2299 35.1117 45.356 41.4174C54.4822 47.7231 57.8336 58.6917 52.8416 65.9166C49.493 70.7629 44.0346 72.038 36.7329 71.5365C33.0406 71.2829 28.4221 70.9732 26.4728 72.2162C26.2756 72.3488 25.915 72.5386 25.4442 72.7863C23.3926 73.8657 19.2478 76.0465 17.4125 79.4058C17.3064 79.5999 17.208 79.798 17.1183 80C16.8067 80.5608 16.3786 81.5409 15.9386 82.5485C15.6758 83.1502 15.4088 83.7618 15.1597 84.2996C14.7104 85.2698 14.3197 86 14.1183 86C13.9471 86 13.9751 85.3555 14.1181 84.4276C14.1182 84.4273 14.1182 84.4269 14.1183 84.4266C14.1393 84.2905 14.1627 84.1483 14.1884 84.0011C14.4463 82.5223 14.9269 80.5432 15.3608 79.2189C15.3792 79.1628 15.3975 79.1078 15.4157 79.0541C15.4749 78.8796 15.5329 78.7185 15.5892 78.5737C15.5989 78.5487 15.6086 78.5241 15.6182 78.5ZM27.5588 73.8958C27.743 73.7816 28.1117 73.6336 28.7437 73.5164C29.3669 73.4009 30.1279 73.3362 30.9989 73.3145C32.7487 73.271 34.7308 73.4037 36.5958 73.5318C44.1241 74.0488 50.5248 72.788 54.487 67.0535C60.3401 58.5823 56.1487 46.4436 46.4929 39.772C36.8372 33.1004 24.0006 33.4737 18.1475 41.9448C14.1249 47.7667 15.8759 54.8052 18.4645 61.0326C19.8618 64.3942 20.3358 67.2381 19.9717 68.9579C19.961 68.9794 19.9412 69.0173 19.9079 69.0734C19.8184 69.224 19.6787 69.4282 19.4753 69.6981C19.1593 70.1176 18.7705 70.5911 18.309 71.1534C18.1635 71.3306 18.0108 71.5166 17.8509 71.7125C16.5711 73.2802 14.9468 75.3367 13.824 77.6163L13.7899 77.6856L13.7613 77.7573C13.2953 78.9222 12.7672 80.9337 12.4225 82.5933C12.2481 83.433 12.104 84.2616 12.0391 84.9104C12.0087 85.2145 11.9837 85.5879 12.0139 85.9339C12.027 86.0833 12.0632 86.4124 12.2224 86.7636C12.3786 87.108 12.9331 88 14.1183 88H14.1185C14.8612 87.9999 15.3535 87.6126 15.5078 87.4836C15.7135 87.3118 15.8625 87.1284 15.9531 87.0083C16.1409 86.7593 16.3074 86.4713 16.442 86.221C16.7209 85.7026 17.0289 85.0316 17.3209 84.3748C17.4928 83.988 17.659 83.6074 17.8172 83.2454C18.2401 82.2775 18.6052 81.4417 18.8666 80.9713L18.9098 80.8935L18.9459 80.8123C19.7099 79.0933 21.3791 77.5951 23.2344 76.3676C24.1345 75.772 25.0198 75.2777 25.7688 74.8773C25.9248 74.7939 26.0889 74.7076 26.2537 74.621C26.7537 74.3582 27.2593 74.0924 27.5588 73.8958Z" fill="#876E11"/>
<path fill-rule="evenodd" clip-rule="evenodd" d="M32.7327 67.5365C29.0405 67.2829 24.4219 66.9732 22.4726 68.2162C22.3736 68.2828 22.2335 68.3638 22.0588 68.4593C22.0299 68.8118 21.9799 69.1477 21.9078 69.4648C21.764 70.0968 20.9133 71.133 19.834 72.4477C18.4724 74.1061 16.7471 76.2077 15.6181 78.5C14.8181 80.5001 13.618 86 14.1181 86C14.4311 86 15.2016 84.2358 15.9385 82.5485C16.3785 81.5409 16.8065 80.5608 17.1181 80C18.7615 76.3022 23.2739 73.9281 25.4441 72.7863C25.9149 72.5386 26.2755 72.3488 26.4726 72.2162C28.4219 70.9732 33.0405 71.2829 36.7327 71.5365C44.0344 72.038 49.4929 70.7629 52.8414 65.9166C57.5749 59.0658 54.8067 48.8489 46.7267 42.4332C51.5855 48.5935 52.6796 56.3616 48.8414 61.9166C45.4929 66.7629 40.0344 68.038 32.7327 67.5365Z" fill="#D3A80B"/>
<path d="M40.6182 45.9999C40.6182 49.3136 36.3649 51.9999 31.1182 51.9999C25.8715 51.9999 21.6182 49.3136 21.6182 45.9999C21.6182 42.6862 25.8715 39.9999 31.1182 39.9999C36.3649 39.9999 40.6182 42.6862 40.6182 45.9999Z" fill="#FFDA51"/>
<path fill-rule="evenodd" clip-rule="evenodd" d="M31.6066 41.8139C31.7093 42.636 31.1262 43.3856 30.3042 43.4884C29.2892 43.6153 28.1341 44.1053 27.1788 45.0606C26.593 45.6464 25.6433 45.6464 25.0575 45.0606C24.4717 44.4748 24.4717 43.5251 25.0575 42.9393C26.5022 41.4946 28.2804 40.718 29.9321 40.5116C30.7541 40.4088 31.5038 40.9919 31.6066 41.8139Z" fill="white"/>
<path d="M49.492 59.1553C49.0609 59.7404 48.237 59.8653 47.6519 59.4342C47.0668 59.0031 46.9419 58.1793 47.373 57.5941C47.8041 57.009 48.6279 56.8841 49.213 57.3152C49.7982 57.7463 49.9231 58.5701 49.492 59.1553Z" fill="#B49112"/>
<path d="M51.5805 63.495C51.1494 64.0801 50.3255 64.205 49.7404 63.7739C49.1553 63.3428 49.0304 62.519 49.4615 61.9339C49.8926 61.3487 50.7164 61.2239 51.3015 61.655C51.8867 62.0861 52.0116 62.9099 51.5805 63.495Z" fill="#B49112"/>
<path d="M53.1484 59.0434C52.8251 59.4823 52.2073 59.5759 51.7684 59.2526C51.3296 58.9293 51.2359 58.3114 51.5592 57.8726C51.8825 57.4337 52.5004 57.34 52.9393 57.6634C53.3781 57.9867 53.4718 58.6046 53.1484 59.0434Z" fill="#B49112"/>
<path d="M48.2615 66.9051C47.8304 67.4902 47.0066 67.6151 46.4214 67.184C45.8363 66.7529 45.7114 65.9291 46.1425 65.344C46.5736 64.7588 47.3974 64.634 47.9826 65.0651C48.5677 65.4961 48.6926 66.32 48.2615 66.9051Z" fill="#B49112"/>
<path d="M46.9976 62.6298C46.5665 63.215 45.7427 63.3398 45.1575 62.9087C44.5724 62.4776 44.4475 61.6538 44.8786 61.0687C45.3097 60.4836 46.1335 60.3587 46.7187 60.7898C47.3038 61.2209 47.4287 62.0447 46.9976 62.6298Z" fill="#B49112"/>
<path d="M43.3565 68.8643C42.9254 69.4495 42.1015 69.5743 41.5164 69.1432C40.9313 68.7121 40.8064 67.8883 41.2375 67.3032C41.6686 66.7181 42.4924 66.5932 43.0775 67.0243C43.6627 67.4554 43.7876 68.2792 43.3565 68.8643Z" fill="#B49112"/>
<path d="M42.8435 64.7195C42.4124 65.3046 41.5886 65.4295 41.0035 64.9984C40.4183 64.5673 40.2935 63.7435 40.7246 63.1584C41.1557 62.5732 41.9795 62.4483 42.5646 62.8794C43.1497 63.3105 43.2746 64.1344 42.8435 64.7195Z" fill="#B49112"/>
<path d="M38.2149 69.5669C37.8915 70.0058 37.2737 70.0994 36.8348 69.7761C36.396 69.4528 36.3023 68.8349 36.6256 68.3961C36.949 67.9572 37.5668 67.8635 38.0057 68.1869C38.4445 68.5102 38.5382 69.1281 38.2149 69.5669Z" fill="#B49112"/>
</svg>
