<svg width="96" height="96" viewBox="0 0 96 96" fill="none" xmlns="http://www.w3.org/2000/svg">
<path d="M59.773 26.3513C57.6899 23.1701 53.1073 21.5933 51.0764 21.2025C59.5 20.4999 61.8858 16.8066 69 18.4999C73.725 19.6245 76.527 23.7962 75.774 26.6237C67.0622 35.517 62.3768 30.3279 59.773 26.3513Z" fill="#497110"/>
<path fill-rule="evenodd" clip-rule="evenodd" d="M49.0792 21.0959C49.1326 20.098 49.9143 19.2926 50.9101 19.2096C54.1764 18.9371 56.4092 18.2001 58.5923 17.4795C59.0369 17.3327 59.4795 17.1866 59.9284 17.0452C62.6619 16.1844 65.4278 15.5939 69.463 16.5544C72.2781 17.2244 74.5493 18.8073 76.0191 20.6945C77.4471 22.528 78.299 24.9138 77.7066 27.1385C77.6178 27.472 77.4441 27.7769 77.2026 28.0234C72.6331 32.688 68.578 34.1995 64.9724 33.2476C61.5904 32.3547 59.4099 29.448 58.0997 27.4471C57.3268 26.2667 56.0039 25.2758 54.5014 24.5148C53.0166 23.7628 51.5414 23.3288 50.6985 23.1666C49.7172 22.9778 49.0258 22.0937 49.0792 21.0959ZM75.7739 26.6238C67.0621 35.5171 62.3767 30.3281 59.7729 26.3515C58.6821 24.6857 56.9061 23.4598 55.1699 22.6138C53.5904 21.8441 52.0438 21.3888 51.0763 21.2027C52.7184 21.0657 54.131 20.8151 55.394 20.5129C56.8379 20.1674 58.0861 19.7544 59.2578 19.3668C62.3189 18.3542 64.858 17.5142 68.9999 18.5C73.7249 19.6246 76.5269 23.7964 75.7739 26.6238Z" fill="#30470C"/>
<path d="M71.3945 43.4171C73.9513 48.4684 74.155 55.6322 73.9373 58.5828C76.1146 45.5514 79.5902 47.2636 82.4503 38.1997C85.5895 28.2513 78.9685 23.2849 75.9159 22.2142C64.4139 27.1735 68.1985 37.103 71.3945 43.4171Z" fill="#6A8D38"/>
<path fill-rule="evenodd" clip-rule="evenodd" d="M73.6987 60.5684C74.7599 60.696 75.7338 59.9666 75.91 58.9123C76.9591 52.6336 78.2845 50.0651 79.6207 47.984C79.8631 47.6067 80.1154 47.2327 80.3749 46.8481C81.6454 44.9652 83.0867 42.8291 84.3576 38.8016C86.0972 33.2888 85.1668 28.9486 83.1989 25.8143C81.2888 22.7721 78.4851 20.9958 76.5779 20.3269C76.1041 20.1607 75.5851 20.1788 75.1241 20.3776C71.988 21.7298 69.7409 23.4887 68.2709 25.582C66.7951 27.6836 66.1979 29.9869 66.1441 32.2602C66.0392 36.6941 68.0045 41.148 69.6101 44.3203C70.7422 46.5567 71.3922 49.3554 71.7214 52.0318C72.0487 54.6933 72.042 57.0908 71.9427 58.4355C71.8641 59.5015 72.6375 60.4409 73.6987 60.5684ZM75.9159 22.2142C64.414 27.1734 68.1986 37.1029 71.3946 43.417C72.5907 45.7802 73.2719 48.6058 73.6358 51.246C74.0497 54.2492 74.0532 57.0126 73.9373 58.5827C74.4539 55.4911 75.0435 53.2294 75.6807 51.4567C76.6222 48.8372 77.6674 47.2856 78.734 45.7024C79.988 43.8409 81.2714 41.9357 82.4503 38.1997C85.5895 28.2513 78.9686 23.2849 75.9159 22.2142Z" fill="#30470C"/>
<path fill-rule="evenodd" clip-rule="evenodd" d="M73.481 23.4703C74.2034 23.0236 75.0124 22.6035 75.9157 22.2141C78.9683 23.2848 85.5893 28.2511 82.4501 38.1996C81.2712 41.9356 79.9878 43.8408 78.7337 45.7022C76.9454 48.3569 75.217 50.9226 73.9371 58.5826C74.0386 57.2071 74.0485 54.9159 73.7711 52.3499C74.5119 49.7621 75.4253 48.1493 76.3567 46.5047C77.4904 44.503 78.6507 42.4543 79.5588 38.543C81.574 29.863 76.9369 25.2572 73.481 23.4703Z" fill="#537426"/>
<path fill-rule="evenodd" clip-rule="evenodd" d="M74.2886 46.9531C74.5388 47.0699 74.8363 46.9617 74.9531 46.7114C78.5233 39.0609 77.4386 29.2817 76.7163 24.6953C76.6733 24.4225 76.4174 24.2362 76.1446 24.2792C75.8718 24.3221 75.6855 24.5781 75.7285 24.8509C76.4505 29.4359 77.4767 38.9391 74.0469 46.2885C73.9301 46.5388 74.0383 46.8363 74.2886 46.9531Z" fill="#82AD45"/>
<path fill-rule="evenodd" clip-rule="evenodd" d="M71.7085 33.1593C71.9562 33.2813 72.2559 33.1794 72.378 32.9317C72.6434 32.393 73.1852 31.5275 73.929 30.7287C74.6764 29.926 75.5885 29.2326 76.5878 28.9656C76.8546 28.8943 77.0131 28.6203 76.9418 28.3535C76.8705 28.0867 76.5965 27.9282 76.3297 27.9995C75.0753 28.3346 74.0082 29.1761 73.1971 30.0473C72.3823 30.9224 71.7863 31.87 71.4809 32.4898C71.3589 32.7375 71.4608 33.0372 71.7085 33.1593Z" fill="#81AD45"/>
<path fill-rule="evenodd" clip-rule="evenodd" d="M73.3872 40.3422C73.6605 40.3817 73.9141 40.1923 73.9537 39.919C74.0699 39.1164 74.8051 37.255 76.7676 36.4588C77.0235 36.3549 77.1468 36.0634 77.0429 35.8075C76.9391 35.5516 76.6475 35.4283 76.3916 35.5321C73.9974 36.5035 73.113 38.7468 72.964 39.7757C72.9244 40.049 73.1139 40.3026 73.3872 40.3422Z" fill="#81AD45"/>
<path d="M57.6827 33.5795C52.2608 31.9497 47.1926 32.7726 44.3262 33.5051C50.4521 30.5517 51.0244 28.2768 59.4451 23.8693C68.6875 19.0316 74.7396 24.6773 76.3298 27.4945C73.4677 39.6887 64.46 35.6168 57.6827 33.5795Z" fill="#6A8D38"/>
<path fill-rule="evenodd" clip-rule="evenodd" d="M42.4471 34.1905C42.095 33.2251 42.5318 32.1499 43.4574 31.7036C46.2176 30.3729 47.7455 29.2122 49.5978 27.805C49.6699 27.7502 49.7425 27.6951 49.8157 27.6395C51.8255 26.1139 54.1718 24.3719 58.5174 22.0974C63.639 19.4167 68.0751 19.5702 71.5063 20.9571C74.8367 22.3032 77.0778 24.7514 78.0713 26.5114C78.3181 26.9486 78.3914 27.4627 78.2767 27.9515C77.5063 31.2341 76.2676 33.6638 74.5481 35.3177C72.7965 37.0025 70.7195 37.7157 68.6195 37.8686C66.5694 38.0179 64.4713 37.6371 62.5508 37.1391C61.2852 36.8109 59.9721 36.3947 58.7688 36.0133C58.1826 35.8275 57.6225 35.65 57.1067 35.4949C52.1781 34.0133 47.5183 34.7536 44.8212 35.4429C43.8256 35.6974 42.7992 35.1559 42.4471 34.1905ZM76.3296 27.4946C73.7103 38.6544 65.9437 36.1907 59.4502 34.1308C58.8483 33.9399 58.2574 33.7524 57.6825 33.5796C54.8495 32.728 52.1131 32.546 49.7369 32.6709C47.5654 32.785 45.6947 33.1554 44.326 33.5052C46.3413 32.5336 47.7556 31.6354 49.0459 30.7105C49.6397 30.285 50.2073 29.8537 50.7951 29.4071C52.8128 27.8741 55.0692 26.1596 59.4449 23.8693C68.6873 19.0316 74.7394 24.6774 76.3296 27.4946Z" fill="#30470C"/>
<path fill-rule="evenodd" clip-rule="evenodd" d="M61.124 35.4416C60.9233 35.252 60.9143 34.9355 61.1039 34.7348C61.5163 34.2982 62.1386 33.4886 62.628 32.5131C63.1198 31.5327 63.4517 30.436 63.3535 29.4064C63.3273 29.1315 63.5289 28.8874 63.8038 28.8612C64.0787 28.835 64.3228 29.0366 64.349 29.3115C64.4722 30.604 64.0556 31.8975 63.5218 32.9615C62.9857 34.0303 62.3053 34.9192 61.8309 35.4215C61.6412 35.6222 61.3248 35.6313 61.124 35.4416Z" fill="#81AD45"/>
<path fill-rule="evenodd" clip-rule="evenodd" d="M53.8065 36.3724C53.6742 36.13 53.7633 35.8263 54.0057 35.6939C54.7174 35.3052 56.2057 33.9672 56.2678 31.8502C56.2759 31.5742 56.5062 31.357 56.7822 31.3651C57.0582 31.3732 57.2754 31.6035 57.2673 31.8795C57.1916 34.4622 55.3974 36.0732 54.485 36.5715C54.2427 36.7039 53.9389 36.6147 53.8065 36.3724Z" fill="#81AD45"/>
<path d="M31.4188 57.6344C24.1708 59.9559 18.6873 59.5624 15.1665 58.4663C18.0775 60.1581 27.0909 64.4328 46.0109 54.8743C61.1469 47.2274 69.7261 37.1831 72.1237 33.1168C73.2908 30.1553 73.7771 24.5072 66.3847 25.6065C58.9924 26.7058 54.8607 35.67 48.9663 43.1032C41.9931 51.897 39.9693 54.8958 31.4188 57.6344Z" fill="#CA0406"/>
<path fill-rule="evenodd" clip-rule="evenodd" d="M13.3355 57.6615C13.7451 56.7297 14.7892 56.2542 15.761 56.5567C18.8474 57.5176 23.9082 57.9399 30.8088 55.7298C34.8954 54.4209 37.2671 53.1047 39.4496 51.1498C41.5073 49.3067 43.4275 46.8796 46.3812 43.1463C46.7074 42.734 47.0462 42.3057 47.3992 41.8606C48.8018 40.0919 50.107 38.2268 51.4203 36.3502L51.4965 36.2413C52.8209 34.3489 54.1623 32.4366 55.563 30.7167C58.3359 27.3119 61.6264 24.2921 66.0905 23.6283C68.156 23.3211 69.9218 23.4441 71.3568 24.0635C72.8528 24.7093 73.8114 25.8196 74.3215 27.0974C75.2623 29.4543 74.6322 32.2064 73.9844 33.8501C73.9459 33.9478 73.8998 34.0422 73.8465 34.1326C71.2393 38.5544 62.3626 48.8539 46.9127 56.6594C37.2336 61.5494 29.9291 62.981 24.5511 62.8889C19.14 62.7962 15.8259 61.1628 14.1615 60.1955C13.2815 59.6841 12.926 58.5933 13.3355 57.6615ZM26.6256 58.8435C21.7133 59.7334 17.8639 59.3061 15.1665 58.4663C16.8317 59.4341 20.4938 61.2471 26.8649 60.8324C31.6313 60.5221 37.9139 58.965 46.0109 54.8743C61.1468 47.2274 69.726 37.1831 72.1237 33.1168C73.2908 30.1553 73.777 24.5072 66.3847 25.6065C60.7986 26.4372 57.0745 31.7589 53.0446 37.5173C51.7416 39.3793 50.4066 41.287 48.9663 43.1032C48.6061 43.5575 48.259 43.9963 47.9236 44.4204C41.7665 52.2062 39.5276 55.0374 31.4188 57.6345C29.7237 58.1774 28.1252 58.5718 26.6256 58.8435Z" fill="#760405"/>
<path fill-rule="evenodd" clip-rule="evenodd" d="M16.6976 59.2562C21.5277 60.5069 29.9333 60.6251 43.2367 53.9041C58.3727 46.2572 66.9519 36.2129 69.3495 32.1466C70.1197 30.1923 70.5934 27.0679 68.702 25.4848C73.6521 25.8136 73.1524 30.5078 72.1241 33.1168C69.7265 37.1831 61.1473 47.2274 46.0113 54.8742C29.6574 63.1364 20.7051 61.0632 16.6976 59.2562Z" fill="#A20607"/>
<path fill-rule="evenodd" clip-rule="evenodd" d="M67.8305 27.8816C67.969 28.4162 67.6478 28.9619 67.1132 29.1004C65.6377 29.4825 61.1083 31.9192 56.6195 38.6314C56.3125 39.0905 55.6915 39.2138 55.2324 38.9067C54.7733 38.5997 54.65 37.9787 54.957 37.5196C59.6243 30.5404 64.5194 27.7061 66.6117 27.1642C67.1464 27.0258 67.692 27.3469 67.8305 27.8816Z" fill="#FF6363"/>
<path fill-rule="evenodd" clip-rule="evenodd" d="M50.7961 43.597C51.0186 43.7604 51.0665 44.0734 50.903 44.2959C49.4095 46.3288 45.6712 50.9835 41.9149 53.6573C41.69 53.8175 41.3778 53.7649 41.2176 53.54C41.0575 53.315 41.1101 53.0028 41.335 52.8427C44.954 50.2666 48.6143 45.7221 50.0971 43.7039C50.2606 43.4813 50.5735 43.4335 50.7961 43.597Z" fill="#FF6363"/>
<path fill-rule="evenodd" clip-rule="evenodd" d="M76.6324 21.2789C75.9092 22.3537 75.4724 23.4175 75.3666 24.2528C75.2959 24.8111 74.8017 25.2197 74.2628 25.1655C73.7239 25.1113 73.3444 24.6148 73.4151 24.0565C73.5762 22.7853 74.1893 21.4053 75.0281 20.1587C75.8742 18.9013 76.9997 17.7045 78.2731 16.8149C79.5421 15.9284 81.0168 15.3074 82.5393 15.3109C84.096 15.3146 85.5944 15.9725 86.8568 17.4385C87.2117 17.8507 87.1658 18.4932 86.7542 18.8736C86.3426 19.2541 85.7212 19.2283 85.3663 18.8162C84.4344 17.734 83.4373 17.3445 82.4684 17.3422C81.4653 17.3399 80.3842 17.7543 79.3383 18.485C78.2967 19.2126 77.3484 20.2149 76.6324 21.2789Z" fill="#22430D"/>
<path d="M64.4818 24.0703C67.8471 21.9034 71.2238 21.9091 72.9497 22.4057C73.0707 22.4405 73.1801 22.5041 73.2694 22.5864C76.3449 25.4206 75.7551 28.781 74.6797 30.4926C74.438 30.8772 73.9279 31.0041 73.5757 30.7676C72.2065 29.8484 72.6608 28.4968 69.7516 26.978C67.6696 25.8911 66.055 25.6041 64.7847 25.4688C63.9825 25.3833 63.7735 24.5264 64.4818 24.0703Z" fill="#3F6D08"/>
<path d="M36.9322 75.3918C27.6195 80.8022 20.3639 80.656 18.1938 79.736C22.1 81.3921 33.9067 85.2455 53.1551 68.8291C68.5538 55.6959 75.5765 40.7013 77.163 34.8457C77.642 30.6966 76.5231 23.1308 68.2153 26.0601C59.9075 28.9894 57.758 41.6679 53.0921 52.6738C47.572 65.6942 46.1034 70.0636 36.9322 75.3918Z" fill="#ED0103"/>
<path fill-rule="evenodd" clip-rule="evenodd" d="M16.3526 78.9556C16.7837 77.9386 17.9576 77.4637 18.9746 77.8949C18.9746 77.8949 18.9746 77.8949 18.9746 77.8949C19.5584 78.1424 21.4777 78.4623 24.5657 77.9636C27.5622 77.4797 31.473 76.2507 35.9276 73.6627C40.3107 71.1162 42.7107 68.8912 44.7051 65.8267C46.5778 62.9491 48.1121 59.3184 50.4425 53.8038C50.7016 53.1908 50.9705 52.5545 51.2508 51.8933C52.3671 49.2601 53.3396 46.52 54.3119 43.7806L54.3705 43.6154C55.3535 40.846 56.3431 38.0678 57.4572 35.5336C59.6494 30.5466 62.5548 25.9355 67.5503 24.1741C69.8797 23.3528 71.9495 23.1798 73.7359 23.691C75.5603 24.2131 76.8429 25.3785 77.6874 26.7502C79.2912 29.3553 79.41 32.8224 79.1499 35.0753C79.1384 35.1745 79.1196 35.2726 79.0935 35.3689C77.4015 41.614 70.1581 56.9565 54.453 70.351C44.617 78.7399 36.5185 82.0876 30.2194 83.0376C23.8942 83.9916 19.5819 82.497 17.4132 81.5776C16.3963 81.1464 15.9214 79.9725 16.3526 78.9556ZM28.2233 81.2596C34.2315 80.7563 42.5675 77.8592 53.1551 68.8293C68.5539 55.6961 75.5766 40.7016 77.1631 34.8459C77.6421 30.6969 76.5231 23.131 68.2154 26.0603C61.9375 28.2739 59.1762 36.0543 56.1882 44.4734C55.2221 47.1957 54.2322 49.9848 53.0921 52.674C52.8069 53.3466 52.5326 53.9961 52.2674 54.6239C47.3998 66.1484 45.6297 70.3391 36.9323 75.392C33.6059 77.3246 30.5419 78.5482 27.8784 79.2808C23.0851 80.5993 19.5888 80.3276 18.1939 79.7362C19.9514 80.4814 23.3085 81.6714 28.2233 81.2596Z" fill="#8E0507"/>
<path fill-rule="evenodd" clip-rule="evenodd" d="M20.2181 80.475C26.2344 81.1647 36.0896 79.6434 49.6242 68.1001C65.0229 54.9669 72.0456 39.9724 73.6321 34.1167C73.9482 31.3786 73.5684 27.1526 70.8859 25.4367C76.767 24.8835 77.5852 31.1905 77.1632 34.8457C75.5767 40.7014 68.554 55.6959 53.1553 68.8291C36.5173 83.0191 25.4395 82.0645 20.2181 80.475Z" fill="#B30B0D"/>
<path fill-rule="evenodd" clip-rule="evenodd" d="M70.4235 28.8599C70.6692 29.3545 70.4675 29.9547 69.9729 30.2004C69.1936 30.5877 67.6403 31.8021 65.8562 34.2057C64.0888 36.5866 62.1305 40.0881 60.5095 44.9785C60.3357 45.5027 59.7698 45.7868 59.2456 45.613C58.7214 45.4392 58.4373 44.8734 58.611 44.3492C60.2936 39.2733 62.3461 35.5788 64.2502 33.0136C66.1375 30.4711 67.9162 28.9891 69.0829 28.4094C69.5775 28.1636 70.1777 28.3653 70.4235 28.8599Z" fill="white"/>
<path fill-rule="evenodd" clip-rule="evenodd" d="M54.3066 56.1024C54.5647 56.2007 54.6942 56.4896 54.5959 56.7476C54.0213 58.256 52.9438 60.7054 51.5706 63.1751C50.2024 65.6358 48.5163 68.1614 46.7141 69.7845C46.509 69.9693 46.1928 69.9528 46.008 69.7476C45.8232 69.5424 45.8397 69.2262 46.0449 69.0414C47.7217 67.5312 49.3433 65.123 50.6966 62.6892C52.0448 60.2645 53.1025 57.8588 53.6614 56.3916C53.7597 56.1336 54.0486 56.0041 54.3066 56.1024Z" fill="white"/>
<path fill-rule="evenodd" clip-rule="evenodd" d="M77.3608 19.3842C76.3513 20.6083 75.6634 21.9253 75.416 23.0712C75.2994 23.6111 74.7673 23.9542 74.2274 23.8376C73.6876 23.7211 73.3445 23.1889 73.461 22.6491C73.7938 21.1078 74.6671 19.5071 75.8178 18.1118C76.9733 16.7106 78.4588 15.4551 80.0886 14.6369C81.7162 13.8199 83.5534 13.409 85.3583 13.8195C87.1894 14.236 88.8318 15.4627 90.103 17.6183C90.3835 18.094 90.2253 18.7071 89.7496 18.9876C89.2739 19.2682 88.6608 19.1099 88.3802 18.6342C87.3341 16.8603 86.1125 16.0421 84.9148 15.7697C83.6909 15.4913 82.3347 15.7473 80.9859 16.4244C79.6393 17.1003 78.3655 18.1659 77.3608 19.3842Z" fill="#356218"/>
<path fill-rule="evenodd" clip-rule="evenodd" d="M81.2128 15.3732C81.3174 15.6288 81.1949 15.9207 80.9393 16.0253C80.6262 16.1534 80.11 16.4123 79.5899 16.7453C79.0637 17.0822 78.5761 17.4682 78.2838 17.8402C78.1132 18.0573 77.7989 18.095 77.5817 17.9244C77.3646 17.7538 77.3269 17.4395 77.4975 17.2223C77.8927 16.7193 78.491 16.2615 79.0507 15.9031C79.6166 15.5408 80.1864 15.2529 80.5607 15.0997C80.8163 14.9952 81.1082 15.1176 81.2128 15.3732Z" fill="#55942C"/>
<path d="M65.1132 24.8813C68.4869 20.9165 72.7014 20.1864 74.9532 20.5209C75.0889 20.5411 75.2184 20.5957 75.3308 20.6746C79.898 23.8817 80.1241 28.596 79.3114 31.0351C79.1642 31.477 78.6757 31.694 78.2539 31.4964C76.278 30.5709 76.4753 28.6535 72.5581 27.2018C69.4967 26.0673 67.403 26.1221 65.8155 26.226C65.0376 26.277 64.6081 25.475 65.1132 24.8813Z" fill="#599F07"/>
<path d="M72.1004 22.3313C72.4111 23.0992 71.6254 24.1415 70.3454 24.6593C69.0655 25.1771 67.776 24.9743 67.4653 24.2063C67.1547 23.4384 67.9404 22.396 69.2204 21.8783C70.5003 21.3605 71.7898 21.5633 72.1004 22.3313Z" fill="#7CD315"/>
<path d="M68.4321 48.0275C67.6289 48.4632 66.6246 48.1652 66.1889 47.362C65.7533 46.5587 66.0513 45.5544 66.8545 45.1188C67.6577 44.6831 68.662 44.9811 69.0977 45.7843C69.5333 46.5875 69.2353 47.5918 68.4321 48.0275Z" fill="#850606"/>
<path d="M71.1581 44.0314C70.4634 44.4082 69.5947 44.1505 69.2179 43.4557C68.841 42.761 69.0988 41.8923 69.7935 41.5154C70.4883 41.1386 71.357 41.3963 71.7338 42.0911C72.1107 42.7859 71.8529 43.6546 71.1581 44.0314Z" fill="#850606"/>
<path d="M65.9079 51.8258C65.2131 52.2027 64.3444 51.9449 63.9676 51.2502C63.5908 50.5554 63.8485 49.6867 64.5433 49.3099C65.2381 48.933 66.1068 49.1908 66.4836 49.8855C66.8604 50.5803 66.6027 51.449 65.9079 51.8258Z" fill="#850606"/>
<path d="M70.7995 38.3373C70.1047 38.7141 69.236 38.4564 68.8592 37.7616C68.4824 37.0669 68.7401 36.1982 69.4349 35.8213C70.1297 35.4445 70.9984 35.7023 71.3752 36.397C71.752 37.0918 71.4943 37.9605 70.7995 38.3373Z" fill="#850606"/>
<path d="M74.1868 35.323C73.7032 35.5852 73.0987 35.4059 72.8364 34.9224C72.5742 34.4388 72.7535 33.8343 73.2371 33.572C73.7206 33.3098 74.3251 33.4891 74.5874 33.9727C74.8496 34.4562 74.6703 35.0607 74.1868 35.323Z" fill="#850606"/>
<path d="M72.7952 39.9279C72.4353 40.1232 71.9852 39.9896 71.79 39.6297C71.5948 39.2697 71.7283 38.8197 72.0882 38.6244C72.4482 38.4292 72.8983 38.5627 73.0935 38.9227C73.2887 39.2826 73.1552 39.7327 72.7952 39.9279Z" fill="#850606"/>
<path d="M59.0112 61.0991C58.5277 61.3613 57.9231 61.1819 57.6609 60.6984C57.3986 60.2149 57.578 59.6103 58.0615 59.3481C58.545 59.0858 59.1496 59.2652 59.4119 59.7487C59.6741 60.2322 59.4947 60.8368 59.0112 61.0991Z" fill="#850606"/>
<path d="M63.446 56.0293C62.9625 56.2916 62.358 56.1122 62.0957 55.6287C61.8335 55.1452 62.0128 54.5406 62.4963 54.2784C62.9799 54.0161 63.5844 54.1955 63.8467 54.679C64.1089 55.1625 63.9296 55.7671 63.446 56.0293Z" fill="#850606"/>
</svg>
