<svg width="96" height="96" viewBox="0 0 96 96" fill="none" xmlns="http://www.w3.org/2000/svg">
<path d="M37.7164 58.898C25.8334 36.9583 44.5084 34.8998 44.5084 34.8998C44.5084 34.8998 55.7396 19.2949 68.6729 41.0738C73.8615 49.811 73.0111 64.6339 64.4627 69.5559C55.9142 74.478 42.5552 67.832 37.7164 58.898Z" fill="#502FD0"/>
<path fill-rule="evenodd" clip-rule="evenodd" d="M44.5083 34.8998C44.5083 34.8998 25.8334 36.9584 37.7163 58.898C42.5552 67.832 55.9142 74.478 64.4627 69.556C73.0111 64.634 73.8615 49.811 68.6729 41.0739C55.7396 19.2949 44.5083 34.8998 44.5083 34.8998ZM43.4277 33.0518C43.4522 33.023 43.4776 32.9935 43.5037 32.9633C43.8809 32.5273 44.4295 31.9395 45.1319 31.3112C46.5193 30.0701 48.6006 28.5866 51.2257 27.8871C53.9145 27.1708 57.0674 27.3095 60.4143 29.174C63.7019 31.0054 67.0543 34.4312 70.3926 40.0527C73.2394 44.8465 74.3822 51.1879 73.7056 56.9777C73.032 62.7423 70.4869 68.3952 65.4606 71.2892C60.4376 74.1813 54.2453 73.563 48.9061 71.2594C43.5439 68.9458 38.6215 64.7688 35.9577 59.8506C32.8876 54.1822 31.674 49.5889 31.7651 45.8439C31.8576 42.0373 33.297 39.2472 35.2259 37.2736C37.1125 35.3433 39.3915 34.2666 41.1283 33.6721C42.0067 33.3714 42.7749 33.1842 43.3305 33.0713C43.3636 33.0645 43.396 33.058 43.4277 33.0518Z" fill="#2E129D"/>
<path fill-rule="evenodd" clip-rule="evenodd" d="M49.9023 30.493C54.0415 30.3411 59.2051 32.8669 64.6728 42.0742C69.8613 50.8114 69.0109 65.6343 60.4625 70.5563C60.0684 70.7832 59.6641 70.9855 59.2509 71.1642C51.217 71.913 41.6505 66.1617 37.7164 58.898C25.8334 36.9583 44.5084 34.8998 44.5084 34.8998C44.5084 34.8998 46.5531 32.0588 49.9023 30.493Z" fill="#3B1BB7"/>
<path d="M21.3632 52.4081C22.0698 25.2739 40.7933 33.4704 40.7933 33.4704C40.7933 33.4704 59.8524 24.8552 60.2233 52.4081C60.3721 63.4617 51.5242 76.9745 40.7933 76.9745C30.0624 76.9745 21.0755 63.4573 21.3632 52.4081Z" fill="#603EE7"/>
<path fill-rule="evenodd" clip-rule="evenodd" d="M40.7933 33.4704C40.7933 33.4704 22.0698 25.2739 21.3632 52.4081C21.0755 63.4573 30.0624 76.9745 40.7933 76.9745C51.5242 76.9745 60.3721 63.4617 60.2233 52.4081C59.8524 24.8552 40.7933 33.4704 40.7933 33.4704ZM40.7789 31.3277C40.835 31.3075 40.8938 31.2866 40.9551 31.2653C41.5417 31.061 42.3707 30.8069 43.3653 30.5976C45.3317 30.1839 48.069 29.9193 50.8873 30.6752C53.7691 31.4481 56.6275 33.2632 58.7462 36.7967C60.83 40.2721 62.1276 45.2875 62.2231 52.3812C62.3042 58.4026 59.9547 64.9644 56.1939 70.0288C52.4482 75.0727 47.0266 78.9745 40.7933 78.9745C34.5638 78.9745 29.1078 75.0759 25.3433 70.0309C21.5639 64.9658 19.2067 58.3937 19.3639 52.3561C19.546 45.3639 20.8914 40.4082 22.9888 36.962C25.1182 33.4633 27.9522 31.6408 30.8012 30.8388C33.592 30.0531 36.2951 30.2715 38.2395 30.6506C39.2221 30.8422 40.0406 31.0807 40.6199 31.2738C40.675 31.2922 40.728 31.3102 40.7789 31.3277Z" fill="#2E129D"/>
<path fill-rule="evenodd" clip-rule="evenodd" d="M30.8908 73.0344C33.8085 75.4617 37.2033 76.9746 40.7933 76.9746C51.5242 76.9746 60.3721 63.4617 60.2233 52.4082C60.0379 38.6314 55.1802 33.8971 50.3689 32.6069C53.0752 35.4852 55.1047 40.5975 55.2233 49.4082C55.3721 60.4617 46.5242 73.9746 35.7933 73.9746C34.1063 73.9746 32.4624 73.6405 30.8908 73.0344Z" fill="#502FD0"/>
<path d="M52.1971 58.3638C51.8498 59.138 50.9407 59.484 50.1665 59.1367C49.3924 58.7894 49.0463 57.8803 49.3936 57.1061C49.7409 56.332 50.6501 55.9859 51.4242 56.3332C52.1984 56.6805 52.5444 57.5897 52.1971 58.3638Z" fill="#3F1FBC"/>
<path d="M55.1445 63.0538C54.7972 63.828 53.8881 64.174 53.114 63.8267C52.3398 63.4794 51.9938 62.5703 52.3411 61.7961C52.6884 61.022 53.5975 60.676 54.3716 61.0233C55.1458 61.3706 55.4918 62.2797 55.1445 63.0538Z" fill="#3F1FBC"/>
<path d="M56.4874 58.1838C56.227 58.7644 55.5451 59.0239 54.9645 58.7634C54.3839 58.5029 54.1244 57.8211 54.3849 57.2405C54.6453 56.6599 55.3272 56.4004 55.9078 56.6608C56.4884 56.9213 56.7479 57.6031 56.4874 58.1838Z" fill="#3F1FBC"/>
<path d="M52.9436 67.9598C52.5963 68.7339 51.6871 69.0799 50.913 68.7326C50.1389 68.3853 49.7928 67.4762 50.1401 66.7021C50.4874 65.9279 51.3965 65.5819 52.1707 65.9292C52.9448 66.2765 53.2909 67.1856 52.9436 67.9598Z" fill="#3F1FBC"/>
<path d="M49.9961 63.2698C49.6488 64.044 48.7397 64.39 47.9656 64.0427C47.1914 63.6954 46.8454 62.7863 47.1927 62.0121C47.54 61.238 48.4491 60.892 49.2233 61.2393C49.9974 61.5866 50.3434 62.4957 49.9961 63.2698Z" fill="#3F1FBC"/>
<path d="M48.2536 70.9073C47.9063 71.6815 46.9972 72.0275 46.2231 71.6802C45.4489 71.3329 45.1029 70.4238 45.4502 69.6496C45.7975 68.8755 46.7066 68.5295 47.4808 68.8768C48.2549 69.2241 48.6009 70.1332 48.2536 70.9073Z" fill="#3F1FBC"/>
<path d="M44.9918 66.9181C44.6445 67.6922 43.7353 68.0382 42.9612 67.6909C42.1871 67.3436 41.841 66.4345 42.1883 65.6604C42.5356 64.8862 43.4447 64.5402 44.2189 64.8875C44.993 65.2348 45.3391 66.1439 44.9918 66.9181Z" fill="#3F1FBC"/>
<path d="M43.3345 72.4889C43.074 73.0695 42.3921 73.3291 41.8115 73.0686C41.2309 72.8081 40.9714 72.1263 41.2319 71.5457C41.4924 70.9651 42.1742 70.7055 42.7548 70.966C43.3354 71.2265 43.5949 71.9083 43.3345 72.4889Z" fill="#3F1FBC"/>
<path d="M51.4041 20.7672C52.1561 20.5935 52.7489 21.3157 52.4318 22.0195C51.461 24.1745 49.5293 27.9562 47.1899 29.8762C45.5175 31.2487 43.4511 31.8222 41.7876 32.051C40.1483 32.2766 38.9479 30.8139 39.4889 29.2501C40.0378 27.6633 41.0034 25.7483 42.6758 24.3758C45.0152 22.4559 49.1011 21.299 51.4041 20.7672Z" fill="#5CD623"/>
<path fill-rule="evenodd" clip-rule="evenodd" d="M52.0266 27.0854C51.0853 28.6127 49.88 30.2557 48.4587 31.4222C46.3871 33.1224 43.9095 33.7779 42.0602 34.0324C38.9427 34.4613 36.5699 31.5702 37.5988 28.5962C38.2091 26.8321 39.3353 24.53 41.407 22.8298C42.8282 21.6633 44.6748 20.8018 46.3564 20.1764C48.0665 19.5404 49.7534 19.0957 50.9541 18.8184C53.318 18.2725 55.2519 20.6289 54.2553 22.8409C53.7492 23.9645 52.984 25.5322 52.0266 27.0854ZM52.4318 22.0194C52.7489 21.3157 52.1562 20.5935 51.4041 20.7671C49.1011 21.299 45.0152 22.4559 42.6758 24.3758C41.0034 25.7483 40.0379 27.6632 39.4889 29.2501C38.9479 30.8139 40.1483 32.2766 41.7876 32.051C43.4511 31.8221 45.5175 31.2487 47.1899 29.8762C49.5293 27.9562 51.461 24.1744 52.4318 22.0194Z" fill="#156342"/>
<path d="M47.3291 28.8777C48.7652 27.6991 50.0628 25.707 50.9634 24.0992C51.4248 23.2755 50.579 22.4782 49.7774 22.9772C46.0588 25.2921 43.4143 27.8025 41.9165 29.5333C41.4067 30.1225 41.8257 30.9238 42.5969 30.8128C43.9399 30.6196 45.8084 30.1258 47.3291 28.8777Z" fill="#4DC415"/>
<path d="M33.5617 36.1121C36.8815 37.0354 38.4726 41.7394 37.1155 46.6187C35.7585 51.498 31.9672 54.705 28.6474 53.7818C25.3277 52.8585 23.7366 48.1545 25.0937 43.2752C26.4507 38.3958 30.242 35.1888 33.5617 36.1121Z" fill="#776CF7"/>
<path fill-rule="evenodd" clip-rule="evenodd" d="M30.7095 40.8497C31.6375 41.4487 31.9043 42.6866 31.3053 43.6147C30.978 44.1218 30.789 44.6337 30.7138 45.1641C30.5589 46.2578 29.5467 47.0188 28.4531 46.8638C27.3594 46.7089 26.5984 45.6967 26.7534 44.6031C26.9135 43.4723 27.3187 42.4153 27.9445 41.4456C28.5435 40.5175 29.7814 40.2508 30.7095 40.8497Z" fill="white"/>
</svg>
