<svg width="96" height="96" viewBox="0 0 96 96" fill="none" xmlns="http://www.w3.org/2000/svg">
<path d="M41.987 33.7259C39.9877 36.0029 37.7649 37.2596 36.9034 37.6033C38.8256 41.1511 59.1991 42.0116 69.1455 41.9984C68.4301 36.12 63.5068 34.0777 60.8796 34.2013C58.2523 34.3249 56.5649 35.7686 54.2474 33.149C52.3935 31.0534 50.4562 30.2956 49.7193 30.1786C45.2979 29.4771 44.4862 30.8796 41.987 33.7259Z" fill="#7BD335"/>
<path fill-rule="evenodd" clip-rule="evenodd" d="M34.0737 36.579L36.1623 35.7457C36.7372 35.5163 38.6972 34.4415 40.4842 32.4063C40.6468 32.2212 40.8099 32.033 40.9722 31.8457C41.3868 31.3673 41.7967 30.8944 42.1805 30.492C42.737 29.9084 43.3617 29.3363 44.1298 28.8913C45.7677 27.9424 47.6146 27.8197 50.0328 28.2034L50.0328 28.2034C51.2854 28.4022 53.6249 29.4268 55.7455 31.8239C56.1858 32.3216 56.5011 32.5189 56.6976 32.6054C56.8788 32.6852 57.0679 32.7196 57.3534 32.7061C57.6904 32.6903 58.0543 32.6181 58.6628 32.4975L58.6719 32.4956C59.2373 32.3835 59.9652 32.2422 60.7857 32.2036C64.2323 32.0414 70.2634 34.628 71.131 41.7569L71.4034 43.9955L69.1483 43.9985C64.1337 44.0051 56.4822 43.7922 49.8167 43.1264C46.4927 42.7943 43.3449 42.3432 40.872 41.7298C39.64 41.4242 38.5029 41.061 37.5712 40.6162C36.7079 40.2041 35.6959 39.5728 35.145 38.5561L34.0737 36.579ZM38.5056 36.7352C37.8195 37.1777 37.2508 37.4647 36.9034 37.6033C37.1725 38.1 37.8032 38.544 38.7163 38.9403C43.9103 41.1947 58.2413 41.906 67.1262 41.9899C67.8367 41.9966 68.5123 41.9993 69.1456 41.9985C69.0575 41.2747 68.9057 40.6091 68.7021 39.9985C67.2527 35.6499 63.1834 34.093 60.8796 34.2013C60.1845 34.2341 59.5552 34.3592 58.9626 34.477C57.3154 34.8045 55.9518 35.0756 54.2475 33.1491C52.3936 31.0534 50.4563 30.2956 49.7194 30.1787C45.6266 29.5293 44.6268 30.6828 42.5186 33.1155C42.3493 33.3108 42.1729 33.5144 41.9871 33.7259C40.856 35.0142 39.6532 35.9759 38.666 36.6304C38.6623 36.6328 38.6585 36.6353 38.6548 36.6377C38.6045 36.671 38.5548 36.7035 38.5056 36.7352Z" fill="#329519"/>
<path fill-rule="evenodd" clip-rule="evenodd" d="M45.1808 77.9207C44.2772 77.4842 43.837 76.4457 44.1516 75.4928C45.3654 71.8162 49.6436 66.8549 59.3556 62.8525C63.3673 61.1993 65.301 59.4319 66.2515 58.001C67.1834 56.5981 67.3074 55.314 67.2787 54.3017C67.2401 52.9428 67.0513 52.0769 66.8442 51.4944C66.6429 50.9283 66.3956 50.5448 66.1031 50.1454C66.0639 50.092 66.0178 50.0309 65.9666 49.9631C65.6902 49.5975 65.2649 49.0347 64.9811 48.3993C64.5915 47.5271 64.4523 46.5642 64.5771 45.3934C65.0298 41.1464 68.2966 38.1061 71.4506 36.2832C73.0737 35.3451 74.7916 34.6516 76.3627 34.2235C77.8881 33.8078 79.4524 33.5937 80.7159 33.7759L80.4305 35.7554L80.6863 33.7718C83.1561 34.0903 84.8891 35.9437 85.3906 38.0027C85.9193 40.1732 85.0962 42.6365 82.5894 43.9156C81.9944 44.2192 81.6902 44.7176 81.5642 45.4272C81.428 46.1942 81.5507 47.0267 81.7022 47.5094L79.794 48.1083L81.7022 47.5094C82.8169 51.0604 83.4732 54.1847 83.4219 57.3142C83.3701 60.4701 82.6016 63.5005 81.0522 66.8837C77.8414 73.8947 70.4622 77.4471 63.4627 78.885C59.9145 79.6139 56.3324 79.8314 53.1775 79.651C50.0619 79.4727 47.2022 78.8971 45.1808 77.9207Z" fill="#247D0D"/>
<path d="M79.2338 66.051C73.5951 78.3635 52.804 79.3821 46.0507 76.1199C47.0099 73.2145 50.6888 68.5874 60.1176 64.7017C68.6316 61.193 69.3497 56.7787 69.2778 54.2451C69.1054 48.1649 66.191 49.1218 66.5658 45.6054C67.2698 39.0011 76.935 35.2516 80.4304 35.7555C83.5667 36.16 84.9227 40.4798 81.6804 42.1342C79.0864 43.4577 79.342 46.6685 79.794 48.1084C81.9636 55.0202 82.1528 59.6772 79.2338 66.051Z" fill="#57A31B"/>
<path d="M74.7644 64.414C69.889 77.0482 52.9714 81.2344 46.0313 78.3912C46.8111 75.4326 50.2002 70.5892 59.3738 66.1343C67.6574 62.1117 68.1041 57.6617 67.8775 55.1373C67.3337 49.0789 65.3769 50.2746 65.536 46.7418C65.8348 40.1068 68.4885 39.6861 71.191 38.7007C74.3461 38.9126 75.6469 39.5989 74.2714 41.362C72.4801 43.658 73.2304 47.502 73.7696 48.9117C76.3577 55.6779 77.2882 57.8736 74.7644 64.414Z" fill="#6EB833"/>
<path fill-rule="evenodd" clip-rule="evenodd" d="M45.273 80.2419C44.3444 79.8614 43.8415 78.8518 44.0973 77.8814C45.0841 74.1375 49.0509 68.924 58.5001 64.3353C62.4032 62.4398 64.2252 60.5576 65.0864 59.0713C65.9308 57.614 65.976 56.3247 65.8855 55.3161C65.6403 52.5841 65.1082 51.658 64.7259 51.0177C64.6971 50.9695 64.6649 50.9168 64.63 50.8596C64.4124 50.5032 64.0916 49.9779 63.8727 49.359C63.5968 48.579 63.4897 47.7227 63.538 46.6518C63.6974 43.1126 64.4993 40.7655 66.035 39.2014C67.2817 37.9318 68.8919 37.379 70.0183 36.9923C70.1936 36.9321 70.3571 36.8759 70.5058 36.8217C70.7677 36.7262 71.0468 36.6865 71.325 36.7052C72.1641 36.7616 72.9494 36.8533 73.6332 37.0062C74.2801 37.1509 75.0292 37.3904 75.6444 37.8605C76.362 38.4088 76.8859 39.2792 76.8091 40.3724C76.7454 41.2778 76.2819 42.0363 75.8482 42.5923C75.359 43.2193 75.1196 44.2117 75.146 45.4256C75.1719 46.6132 75.4474 47.7 75.6375 48.1971L73.7695 48.9117C73.2303 47.502 72.4801 43.658 74.2713 41.362C75.6469 39.5989 74.3461 38.9127 71.1909 38.7007C70.9958 38.7719 70.8009 38.8401 70.6072 38.9079C68.1175 39.7793 65.8132 40.5858 65.5359 46.7418C65.4625 48.3728 65.84 48.9959 66.3213 49.7903C66.8825 50.7167 67.5847 51.8759 67.8775 55.1373C68.1041 57.6617 67.6573 62.1117 59.3737 66.1344C50.2002 70.5892 46.811 75.4326 46.0312 78.3912C52.9714 81.2344 69.889 77.0482 74.7643 64.414C77.2437 57.9888 76.3893 55.7566 73.9047 49.2649C73.8601 49.1485 73.8151 49.0308 73.7695 48.9117L75.6375 48.1971C75.702 48.3658 75.7659 48.5325 75.829 48.6973C76.9949 51.7402 77.9111 54.1318 78.1722 56.5312C78.4612 59.1886 77.9496 61.7149 76.6302 65.134C73.9318 72.1267 67.9566 76.6597 61.9115 79.0649C55.9489 81.4373 49.4076 81.9357 45.273 80.2419Z" fill="#247D0D"/>
<path d="M69.6804 61.3078C67.3885 72.6771 56.3139 80.0358 44.9447 77.7438C33.5754 75.4519 26.2167 64.3773 28.5087 53.0081C30.8006 41.6388 41.8752 34.2802 53.2444 36.5721C64.6137 38.864 71.9724 49.9386 69.6804 61.3078Z" fill="#A0EF63"/>
<path fill-rule="evenodd" clip-rule="evenodd" d="M71.641 61.7031C69.1308 74.1551 57.0015 82.2146 44.5494 79.7044C32.0974 77.1942 24.0379 65.0649 26.5481 52.6128C29.0583 40.1608 41.1876 32.1013 53.6397 34.6115C66.0918 37.1217 74.1512 49.251 71.641 61.7031ZM44.9447 77.7438C56.3139 80.0358 67.3885 72.6771 69.6805 61.3079C71.9724 49.9386 64.6137 38.864 53.2445 36.5721C41.8752 34.2802 30.8006 41.6388 28.5087 53.0081C26.2168 64.3773 33.5754 75.4519 44.9447 77.7438Z" fill="#247D0D"/>
<path fill-rule="evenodd" clip-rule="evenodd" d="M48.0625 47.673C48.5192 47.9835 48.6377 48.6055 48.3272 49.0622C45.0971 53.8124 44.4022 59.2655 44.8831 64.2157C45.3646 69.1732 47.0195 73.5435 48.377 76.0191C48.6426 76.5033 48.4653 77.1112 47.9811 77.3767C47.4968 77.6423 46.889 77.465 46.6234 76.9807C45.1477 74.2897 43.4025 69.6599 42.8924 64.4091C42.3816 59.151 43.1034 53.1874 46.6733 47.9376C46.9839 47.4809 47.6058 47.3624 48.0625 47.673Z" fill="#DBFFBE"/>
<path fill-rule="evenodd" clip-rule="evenodd" d="M51.3538 53.1465C51.549 53.3417 51.549 53.6583 51.3538 53.8536C50.4823 54.725 49.1578 55.422 47.9028 55.9375C46.6367 56.4576 45.3842 56.8158 44.6089 56.9881C44.3394 57.048 44.0723 56.878 44.0124 56.6085C43.9525 56.3389 44.1224 56.0718 44.392 56.0119C45.1166 55.8509 46.314 55.5091 47.5228 55.0125C48.7427 54.5114 49.9181 53.875 50.6467 53.1464C50.842 52.9512 51.1585 52.9512 51.3538 53.1465Z" fill="#DBFFBE"/>
<path fill-rule="evenodd" clip-rule="evenodd" d="M54.8907 58.6877C55.0632 58.9033 55.0282 59.2179 54.8126 59.3905C50.6187 62.7456 45.7357 61.8381 43.7933 60.9552C43.542 60.8409 43.4308 60.5445 43.5451 60.2931C43.6593 60.0417 43.9558 59.9306 44.2071 60.0448C45.9315 60.8286 50.3819 61.6544 54.1879 58.6096C54.4035 58.4371 54.7182 58.472 54.8907 58.6877Z" fill="#DBFFBE"/>
<path fill-rule="evenodd" clip-rule="evenodd" d="M56.9791 64.1507C57.1579 64.3612 57.1322 64.6767 56.9217 64.8555C52.5628 68.5581 47.1053 68.1007 44.8973 67.4058C44.6339 67.3229 44.4876 67.0421 44.5705 66.7787C44.6534 66.5153 44.9341 66.369 45.1975 66.4519C47.2025 67.083 52.2635 67.5002 56.2744 64.0934C56.4848 63.9146 56.8004 63.9403 56.9791 64.1507Z" fill="#DBFFBE"/>
<path fill-rule="evenodd" clip-rule="evenodd" d="M40.1215 50.015C40.3894 50.082 40.5522 50.3534 40.4853 50.6213C40.1371 52.0142 40.6316 53.0932 41.4328 53.9132C42.2503 54.7498 43.3683 55.2886 44.1439 55.5213C44.4084 55.6006 44.5585 55.8794 44.4791 56.1439C44.3997 56.4084 44.121 56.5584 43.8565 56.4791C42.9654 56.2117 41.6834 55.6005 40.7176 54.612C39.7354 53.6069 39.0633 52.1859 39.5151 50.3788C39.5821 50.1109 39.8536 49.948 40.1215 50.015Z" fill="#DBFFBE"/>
<path fill-rule="evenodd" clip-rule="evenodd" d="M35.9445 56.0031C36.2189 55.9726 36.4661 56.1704 36.4966 56.4448C36.6713 58.0172 37.762 59.1419 39.166 59.7684C40.5826 60.4006 42.2152 60.4754 43.3142 60.0358C43.5706 59.9332 43.8616 60.058 43.9642 60.3143C44.0667 60.5707 43.942 60.8617 43.6856 60.9643C42.2847 61.5247 40.367 61.3995 38.7585 60.6816C37.1374 59.9582 35.728 58.5829 35.5027 56.5552C35.4722 56.2808 35.67 56.0336 35.9445 56.0031Z" fill="#DBFFBE"/>
<path fill-rule="evenodd" clip-rule="evenodd" d="M41.6164 74.0125C52.9857 76.3045 64.0603 68.9458 66.3522 57.5766C67.5329 51.7197 66.1525 45.941 62.9821 41.4009C68.4178 46.2007 71.2166 53.6881 69.6805 61.3078C67.3886 72.6771 56.314 80.0358 44.9447 77.7438C39.4323 76.6326 34.8628 73.4567 31.8788 69.1837C34.5536 71.5456 37.8669 73.2567 41.6164 74.0125Z" fill="#8ADC4A"/>
<path d="M64.3362 59.4131C64.096 60.1579 63.2976 60.567 62.5528 60.3268C61.808 60.0867 61.3989 59.2882 61.639 58.5435C61.8792 57.7987 62.6776 57.3896 63.4224 57.6297C64.1672 57.8699 64.5763 58.6683 64.3362 59.4131Z" fill="#75C834"/>
<path d="M67.9521 63.1301C67.712 63.8749 66.9135 64.284 66.1687 64.0438C65.4239 63.8037 65.0148 63.0052 65.255 62.2604C65.4951 61.5156 66.2936 61.1065 67.0384 61.3467C67.7832 61.5868 68.1923 62.3853 67.9521 63.1301Z" fill="#75C834"/>
<path d="M68.0314 58.049C67.8513 58.6076 67.2525 58.9144 66.6939 58.7343C66.1353 58.5542 65.8285 57.9553 66.0086 57.3967C66.1887 56.8381 66.7875 56.5313 67.3461 56.7114C67.9047 56.8915 68.2116 57.4904 68.0314 58.049Z" fill="#75C834"/>
<path d="M65.7289 67.7464C65.4887 68.4912 64.6903 68.9003 63.9455 68.6602C63.2007 68.42 62.7916 67.6216 63.0317 66.8768C63.2719 66.132 64.0703 65.7229 64.8151 65.963C65.5599 66.2032 65.969 67.0016 65.7289 67.7464Z" fill="#75C834"/>
<path d="M62.9771 63.8132C62.737 64.558 61.9385 64.9671 61.1938 64.7269C60.449 64.4868 60.0399 63.6883 60.28 62.9435C60.5202 62.1987 61.3186 61.7896 62.0634 62.0298C62.8082 62.2699 63.2173 63.0684 62.9771 63.8132Z" fill="#75C834"/>
<path d="M61.3906 71.4234C61.1505 72.1682 60.352 72.5772 59.6072 72.3371C58.8624 72.097 58.4533 71.2985 58.6935 70.5537C58.9336 69.8089 59.7321 69.3998 60.4769 69.64C61.2217 69.8801 61.6307 70.6786 61.3906 71.4234Z" fill="#75C834"/>
<path d="M59.4499 67.3669C59.2098 68.1117 58.4113 68.5208 57.6665 68.2806C56.9217 68.0405 56.5126 67.242 56.7528 66.4972C56.9929 65.7525 57.7914 65.3434 58.5362 65.5835C59.281 65.8237 59.6901 66.6221 59.4499 67.3669Z" fill="#75C834"/>
<path d="M56.3808 73.8982C56.2007 74.4568 55.6019 74.7636 55.0433 74.5835C54.4847 74.4034 54.1778 73.8046 54.358 73.246C54.5381 72.6874 55.1369 72.3806 55.6955 72.5607C56.2541 72.7408 56.5609 73.3396 56.3808 73.8982Z" fill="#75C834"/>
<path d="M62.0556 45.6955C61.1227 48.0302 57.3699 48.7254 53.6734 47.2483C49.9769 45.7713 47.7365 42.6813 48.6694 40.3467C49.6023 38.012 53.3551 37.3168 57.0516 38.7939C60.7481 40.2709 62.9885 43.3609 62.0556 45.6955Z" fill="#BFFA91"/>
<path fill-rule="evenodd" clip-rule="evenodd" d="M58.2716 42.5023C57.8239 43.1993 56.8959 43.4014 56.1989 42.9537C55.3382 42.401 54.1373 42.0373 52.7918 42.1588C51.9667 42.2334 51.2375 41.6249 51.1629 40.7999C51.0884 39.9748 51.6968 39.2455 52.5219 39.171C54.5567 38.9872 56.4196 39.53 57.8202 40.4296C58.5172 40.8773 58.7193 41.8053 58.2716 42.5023Z" fill="white"/>
<path d="M24.5901 61.4519C27.2958 74.7211 48.1038 80.3182 55.4202 78.6691C48.2131 75.4199 49.371 69.0043 40.0218 67.0441C32.6814 65.5051 34.5248 58.8475 35.5665 56.537C38.1659 50.7713 37.4612 45.7554 36.6647 42.3099C34.698 33.8021 29.708 31.2825 24.2021 32.7609C20.9086 33.6452 19.3848 38.9077 22.1686 41.253C24.3957 43.1292 25.4062 47.4624 24.64 48.7627C20.9624 55.0041 23.7352 57.2592 24.5901 61.4519Z" fill="#7BD335"/>
<path fill-rule="evenodd" clip-rule="evenodd" d="M57.41 78.8706C57.3233 79.7264 56.6991 80.431 55.8599 80.6201C53.6728 81.1131 50.7108 81.0335 47.5702 80.5138C44.3884 79.9871 40.8546 78.9806 37.4678 77.4843C30.8013 74.5389 24.178 69.4416 22.6304 61.8515C22.4496 60.9648 22.1656 60.1672 21.8377 59.2541L21.8196 59.2037C21.5092 58.3397 21.1483 57.3349 20.9477 56.2341C20.509 53.8264 20.8768 51.24 22.8703 47.8267C22.8769 47.788 22.9012 47.6507 22.8915 47.375C22.8766 46.9537 22.7876 46.3989 22.608 45.7879C22.2339 44.5157 21.5823 43.3742 20.88 42.7825C18.7245 40.9666 18.3975 38.172 18.97 35.9583C19.5371 33.7655 21.143 31.5114 23.6834 30.8293C26.8688 29.974 30.1291 30.2309 32.8981 32.1456C35.6275 34.033 37.5624 37.3135 38.6133 41.8595C39.4534 45.4939 40.2485 51.018 37.3897 57.3589C36.9366 58.364 36.3857 60.1862 36.6281 61.779C36.7416 62.525 37.0196 63.1673 37.5239 63.6916C38.031 64.2189 38.9004 64.7655 40.4322 65.0867C43.0046 65.626 44.9436 66.4932 46.5093 67.5948C48.0628 68.6879 49.161 69.952 50.0941 71.134C50.3383 71.4434 50.5711 71.7453 50.7978 72.0394C52.3227 74.0175 53.5765 75.644 56.2421 76.8458C57.0264 77.1993 57.4966 78.0147 57.41 78.8706ZM51.9123 78.9429C53.2665 78.9772 54.4596 78.8856 55.4202 78.6691C54.2978 78.1631 53.3783 77.5803 52.5904 76.9495C51.169 75.8115 50.1759 74.5173 49.1926 73.2359C47.2208 70.6665 45.2885 68.1484 40.0218 67.0441C32.6814 65.5051 34.5248 58.8475 35.5665 56.537C38.1658 50.7713 37.4612 45.7554 36.6647 42.3099C34.6979 33.8021 29.7079 31.2825 24.202 32.7609C20.9086 33.6452 19.3848 38.9077 22.1686 41.253C24.3956 43.1292 25.4061 47.4624 24.64 48.7627C21.8782 53.4498 22.7542 55.8888 23.7238 58.5886C24.0453 59.4839 24.3771 60.4078 24.59 61.4519C26.9405 72.979 42.952 78.7163 51.9123 78.9429Z" fill="#329519"/>
<path d="M23.3721 70.906C30.1146 82.6504 50.9116 81.7607 57.3378 77.8938C48.2124 79.2415 50.2908 73.6557 40.9652 71.4648C32.0006 69.3587 30.7522 62.38 30.5917 59.8505C30.2066 53.78 34.8098 52.8535 34.1145 49.3862C32.8088 42.8741 22.8408 40.0254 19.4062 40.8473C16.3201 41.5373 15.3654 45.9632 18.7456 47.3137C21.4498 48.3941 21.4894 51.6148 21.1712 53.0901C19.6437 60.1715 19.8817 64.8262 23.3721 70.906Z" fill="#67D723"/>
<path fill-rule="evenodd" clip-rule="evenodd" d="M59.2205 77.2189C59.5421 78.1163 59.1858 79.1159 58.369 79.6074C56.4455 80.7648 53.6505 81.5999 50.5643 82.0627C47.4392 82.5314 43.8523 82.6427 40.2522 82.2418C33.1504 81.451 25.4769 78.5893 21.6376 71.9017C19.7849 68.6747 18.7421 65.7274 18.4016 62.5895C18.0638 59.4779 18.4313 56.3066 19.2161 52.6684L21.1604 53.0878L19.2161 52.6683C19.3228 52.1739 19.3687 51.3336 19.1629 50.5823C18.9724 49.8873 18.6238 49.4187 18.0036 49.1709C15.3902 48.1268 14.3449 45.7492 14.6726 43.5394C14.9829 41.4473 16.5333 39.4469 18.9552 38.8988C20.1944 38.6057 21.7656 38.6762 23.3165 38.9493C24.9202 39.2318 26.6944 39.765 28.3966 40.5505C31.7043 42.077 35.2358 44.8054 36.0754 48.993C36.5729 51.4739 35.244 53.2588 34.3777 54.4224C34.2768 54.5579 34.1822 54.6849 34.0976 54.8037C33.2129 56.0437 32.4362 57.3366 32.5877 59.7239C32.6563 60.8048 32.9605 62.8168 34.1728 64.7563C35.347 66.6348 37.4561 68.5859 41.4226 69.5178C46.0496 70.6048 48.26 72.524 49.9265 73.971C50.1291 74.1468 50.3236 74.3157 50.5134 74.4752C51.3323 75.1635 51.9693 75.5976 52.8132 75.8495C53.676 76.107 54.9415 76.226 57.0456 75.9152C57.9886 75.7759 58.8989 76.3216 59.2205 77.2189ZM19.4061 40.8473C16.32 41.5373 15.3653 45.9632 18.7456 47.3137C21.4498 48.3941 21.4894 51.6148 21.1711 53.0901C19.6436 60.1715 19.8817 64.8262 23.3721 70.906C28.77 80.3084 43.176 81.6131 52.0043 79.7754C54.2033 79.3176 56.0563 78.6649 57.3378 77.8937C54.9518 78.2461 53.3317 78.1245 52.0735 77.7135C50.6551 77.2502 49.6966 76.4191 48.6189 75.4847C46.9963 74.078 45.1037 72.4371 40.9651 71.4648C32.0005 69.3586 30.7522 62.3799 30.5917 59.8505C30.3799 56.5126 31.6763 54.7299 32.7708 53.225C33.6668 51.9929 34.4274 50.947 34.1145 49.3862C32.8087 42.8741 22.8407 40.0254 19.4061 40.8473Z" fill="#329519"/>
<path d="M43.8833 76.3129C43.3409 76.2158 42.9799 75.6973 43.077 75.1548C43.1742 74.6124 43.6926 74.2514 44.2351 74.3485C44.7775 74.4457 45.1385 74.9642 45.0414 75.5066C44.9443 76.0491 44.4258 76.4101 43.8833 76.3129Z" fill="#59B611"/>
<path d="M41.6315 79.1879C41.089 79.0907 40.728 78.5722 40.8252 78.0298C40.9223 77.4873 41.4408 77.1263 41.9833 77.2235C42.5257 77.3206 42.8867 77.8391 42.7896 78.3815C42.6924 78.924 42.1739 79.285 41.6315 79.1879Z" fill="#59B611"/>
<path d="M45.1848 78.7626C44.778 78.6897 44.5072 78.3009 44.5801 77.894C44.653 77.4872 45.0418 77.2164 45.4487 77.2893C45.8555 77.3621 46.1262 77.751 46.0534 78.1578C45.9805 78.5647 45.5917 78.8354 45.1848 78.7626Z" fill="#59B611"/>
<path d="M38.1999 78.073C37.6574 77.9759 37.2964 77.4574 37.3935 76.9149C37.4907 76.3725 38.0092 76.0115 38.5516 76.1086C39.0941 76.2057 39.4551 76.7242 39.3579 77.2667C39.2608 77.8091 38.7423 78.1701 38.1999 78.073Z" fill="#59B611"/>
<path d="M40.6844 75.7808C40.1419 75.6836 39.7809 75.1651 39.878 74.6227C39.9752 74.0802 40.4937 73.7192 41.0361 73.8164C41.5786 73.9135 41.9396 74.432 41.8424 74.9744C41.7453 75.5169 41.2268 75.8779 40.6844 75.7808Z" fill="#59B611"/>
<path d="M34.1568 76.8238C33.1805 76.649 32.5308 75.7158 32.7057 74.7395C32.8805 73.7633 33.8136 73.1136 34.7899 73.2884C35.7662 73.4632 36.4159 74.3964 36.2411 75.3726C36.0663 76.3489 35.1331 76.9986 34.1568 76.8238Z" fill="#59B611"/>
<path d="M37.8709 73.6556C37.3284 73.5585 36.9674 73.04 37.0646 72.4976C37.1617 71.9551 37.6802 71.5941 38.2226 71.6912C38.7651 71.7884 39.1261 72.3069 39.029 72.8493C38.9318 73.3918 38.4133 73.7528 37.8709 73.6556Z" fill="#59B611"/>
<path d="M29.7182 74.2288C29.1757 74.1317 28.8147 73.6132 28.9119 73.0707C29.009 72.5283 29.5275 72.1673 30.0699 72.2644C30.6124 72.3616 30.9734 72.8801 30.8762 73.4225C30.7791 73.965 30.2606 74.3259 29.7182 74.2288Z" fill="#59B611"/>
<path d="M27.0044 71.8549C26.462 71.7577 26.101 71.2392 26.1981 70.6968C26.2952 70.1543 26.8137 69.7933 27.3562 69.8905C27.8986 69.9876 28.2596 70.5061 28.1625 71.0485C28.0654 71.591 27.5469 71.952 27.0044 71.8549Z" fill="#59B611"/>
<path d="M33.0228 72.1316C32.616 72.0587 32.3453 71.6699 32.4181 71.263C32.491 70.8562 32.8798 70.5855 33.2867 70.6583C33.6935 70.7312 33.9643 71.12 33.8914 71.5269C33.8186 71.9337 33.4297 72.2045 33.0228 72.1316Z" fill="#59B611"/>
</svg>
