<svg width="96" height="96" viewBox="0 0 96 96" fill="none" xmlns="http://www.w3.org/2000/svg">
<path d="M70 60C70 73.2548 59.2548 84 46 84C32.7452 84 22 73.2548 22 60C22 46.7452 32.7452 36 46 36C59.2548 36 70 46.7452 70 60Z" fill="#FFAC2F"/>
<path fill-rule="evenodd" clip-rule="evenodd" d="M72 60C72 74.3594 60.3594 86 46 86C31.6406 86 20 74.3594 20 60C20 45.6406 31.6406 34 46 34C60.3594 34 72 45.6406 72 60ZM46 84C59.2548 84 70 73.2548 70 60C70 46.7452 59.2548 36 46 36C32.7452 36 22 46.7452 22 60C22 73.2548 32.7452 84 46 84Z" fill="#884A28"/>
<path fill-rule="evenodd" clip-rule="evenodd" d="M46 84C59.2548 84 70 73.2548 70 60C70 46.7452 59.2548 36 46 36C45.0469 36 44.1068 36.0556 43.1827 36.1636C52.2316 37.3715 59.2116 45.1206 59.2116 54.5C59.2116 64.7173 50.9288 73 40.7116 73C31.0818 73 23.1704 65.6423 22.2925 56.242C22.1 57.4664 22 58.7215 22 60C22 73.2548 32.7452 84 46 84Z" fill="#FF862F"/>
<path d="M61.2143 53.8572C61.2143 54.9223 60.3508 55.7857 59.2857 55.7857C58.2206 55.7857 57.3571 54.9223 57.3571 53.8572C57.3571 52.792 58.2206 51.9286 59.2857 51.9286C60.3508 51.9286 61.2143 52.792 61.2143 53.8572Z" fill="#DD7429"/>
<path d="M67 57.7143C67 58.7795 66.1365 59.6429 65.0714 59.6429C64.0063 59.6429 63.1429 58.7795 63.1429 57.7143C63.1429 56.6492 64.0063 55.7858 65.0714 55.7858C66.1365 55.7858 67 56.6492 67 57.7143Z" fill="#DD7429"/>
<path d="M66.0357 51.4464C66.0357 52.2453 65.3881 52.8929 64.5893 52.8929C63.7904 52.8929 63.1429 52.2453 63.1429 51.4464C63.1429 50.6476 63.7904 50 64.5893 50C65.3881 50 66.0357 50.6476 66.0357 51.4464Z" fill="#DD7429"/>
<path d="M67.2116 66C67.2116 67.6569 65.8684 69 64.2116 69C62.5547 69 61.2116 67.6569 61.2116 66C61.2116 64.3431 62.5547 63 64.2116 63C65.8684 63 67.2116 64.3431 67.2116 66Z" fill="#DD7429"/>
<path d="M61.2143 60.6072C61.2143 61.6723 60.3508 62.5357 59.2857 62.5357C58.2206 62.5357 57.3571 61.6723 57.3571 60.6072C57.3571 59.542 58.2206 58.6786 59.2857 58.6786C60.3508 58.6786 61.2143 59.542 61.2143 60.6072Z" fill="#DD7429"/>
<path d="M63.1428 72.25C63.1428 73.3151 62.2794 74.1786 61.2143 74.1786C60.1492 74.1786 59.2857 73.3151 59.2857 72.25C59.2857 71.1849 60.1492 70.3214 61.2143 70.3214C62.2794 70.3214 63.1428 71.1849 63.1428 72.25Z" fill="#DD7429"/>
<path d="M58.0687 75.9286C58.0687 76.9937 57.2053 77.8571 56.1401 77.8571C55.075 77.8571 54.2116 76.9937 54.2116 75.9286C54.2116 74.8635 55.075 74 56.1401 74C57.2053 74 58.0687 74.8635 58.0687 75.9286Z" fill="#DD7429"/>
<path d="M58.3571 69.3572C58.3571 70.4223 57.4937 71.2857 56.4286 71.2857C55.3635 71.2857 54.5 70.4223 54.5 69.3572C54.5 68.292 55.3635 67.4286 56.4286 67.4286C57.4937 67.4286 58.3571 68.292 58.3571 69.3572Z" fill="#DD7429"/>
<path d="M51.2857 78.5536C51.2857 79.3524 50.6381 80 49.8393 80C49.0404 80 48.3929 79.3524 48.3929 78.5536C48.3929 77.7548 49.0404 77.1072 49.8393 77.1072C50.6381 77.1072 51.2857 77.7548 51.2857 78.5536Z" fill="#DD7429"/>
<path d="M64.843 35.6173C64.843 35.6173 60.2719 27.809 55.6254 27.6057C50.979 27.4024 47.0282 31.4442 47.0282 31.4442C47.0282 31.4442 50.6109 35.8156 55.2573 36.0188C59.9038 36.2221 64.843 35.6173 64.843 35.6173Z" fill="#64AC1D"/>
<path fill-rule="evenodd" clip-rule="evenodd" d="M66.569 34.6068L64.843 35.6172L65.0861 37.6024C65.7544 37.5206 66.3367 37.108 66.6354 36.5045C66.9341 35.9011 66.9091 35.1879 66.569 34.6068ZM47.0282 31.4442C45.598 30.0461 45.5984 30.0457 45.5989 30.0452L45.6021 30.042L45.6077 30.0363L45.6232 30.0206C45.6356 30.0082 45.6518 29.9921 45.6718 29.9724C45.7119 29.933 45.7672 29.8795 45.837 29.8139C45.9764 29.6828 46.1743 29.5027 46.4244 29.2906C46.9226 28.868 47.6387 28.3089 48.5207 27.755C50.2457 26.6717 52.8081 25.4805 55.7128 25.6076C57.4053 25.6816 58.9319 26.4324 60.1761 27.3071C61.4368 28.1934 62.5628 29.3163 63.4843 30.3736C64.4126 31.4387 65.1776 32.4883 65.7087 33.2676C65.9755 33.6589 66.1862 33.9864 66.3321 34.2192C66.4052 34.3357 66.4621 34.4288 66.5019 34.4946C66.5218 34.5275 66.5374 34.5536 66.5487 34.5725L66.5622 34.5953L66.5664 34.6025L66.5679 34.605L66.569 34.6068C66.5692 34.6072 66.569 34.6068 64.843 35.6172C65.0861 37.6024 65.0863 37.6024 65.0861 37.6024L65.0669 37.6047L65.0196 37.6103C64.9789 37.6151 64.92 37.6219 64.8443 37.6304C64.6928 37.6474 64.4738 37.6711 64.1975 37.6987C63.6452 37.7539 62.8621 37.8249 61.9308 37.8895C60.0769 38.0179 57.5979 38.1231 55.1699 38.0169C52.2652 37.8898 49.8166 36.4794 48.1928 35.2496C47.3625 34.6207 46.698 34.0012 46.2387 33.5368C46.008 33.3036 45.8265 33.1069 45.6991 32.9641C45.6354 32.8927 45.5849 32.8345 45.5485 32.7918C45.5303 32.7705 45.5155 32.753 45.5043 32.7396L45.4901 32.7226L45.4851 32.7164L45.4822 32.7129C45.4818 32.7124 45.4814 32.7119 47.0282 31.4442ZM47.0282 31.4442L45.598 30.0461C44.8854 30.7752 44.8352 31.9235 45.4814 32.7119L47.0282 31.4442ZM63.5967 33.7384C61.9231 31.4143 58.7917 27.7442 55.6254 27.6057C50.979 27.4024 47.0282 31.4442 47.0282 31.4442C47.0282 31.4442 50.6109 35.8155 55.2573 36.0188C57.9507 36.1366 60.7424 35.9829 62.6135 35.8329C63.9703 35.7241 64.843 35.6172 64.843 35.6172C64.843 35.6172 64.3791 34.8249 63.5967 33.7384Z" fill="#156319"/>
<path d="M70.5672 17.3076C70.5672 17.3076 65.074 26.986 59.2112 30.0764C53.3485 33.1669 45.7979 30.3646 45.7979 30.3646C45.7979 30.3646 47.7527 22.5515 53.6154 19.4611C59.4781 16.3706 70.5672 17.3076 70.5672 17.3076Z" fill="#87D623"/>
<path fill-rule="evenodd" clip-rule="evenodd" d="M72.3065 18.2949L70.5672 17.3077L70.7356 15.3148C71.415 15.3722 72.0184 15.7718 72.3364 16.375C72.6544 16.9782 72.6431 17.7019 72.3065 18.2949ZM68.3042 17.1959C69.6923 17.2338 70.5672 17.3077 70.5672 17.3077C70.5672 17.3077 70.1338 18.0712 69.3806 19.2379C67.4522 22.2248 63.4272 27.854 59.2112 30.0765C53.3485 33.167 45.7979 30.3646 45.7979 30.3646C45.7979 30.3646 47.7527 22.5516 53.6154 19.4611C57.8314 17.2387 64.7502 17.099 68.3042 17.1959ZM45.7979 30.3646C43.8577 29.8792 43.8579 29.8786 43.858 29.878L43.8593 29.8731L43.8615 29.8641L43.8684 29.8377C43.8739 29.8164 43.8815 29.7876 43.8912 29.7519C43.9106 29.6804 43.9385 29.5808 43.9753 29.4562C44.0489 29.2072 44.1585 28.8572 44.3084 28.4314C44.6073 27.5824 45.071 26.4183 45.7352 25.1461C47.0423 22.6428 49.2365 19.5085 52.6828 17.6919C56.035 15.9248 60.6609 15.381 64.2031 15.2273C66.0203 15.1485 67.6435 15.1699 68.8128 15.2108C69.3984 15.2313 69.8727 15.2567 70.2035 15.2773C70.3689 15.2876 70.4987 15.2967 70.5886 15.3034C70.6336 15.3067 70.6687 15.3094 70.6934 15.3114L70.7225 15.3137L70.731 15.3144L70.7356 15.3148C70.736 15.3148 70.7356 15.3148 70.5672 17.3077C72.3065 18.2949 72.3067 18.2946 72.3065 18.2949L72.3043 18.2989L72.3 18.3063L72.2855 18.3317C72.2732 18.3531 72.2556 18.3836 72.2329 18.4226C72.1876 18.5006 72.1218 18.6128 72.0368 18.7551C71.8668 19.0396 71.6198 19.4453 71.3058 19.94C70.6788 20.9278 69.7791 22.2791 68.6872 23.7338C66.5588 26.5694 63.4961 30.0786 60.1439 31.8457C56.6976 33.6624 52.8718 33.7015 50.0679 33.3653C48.643 33.1944 47.4206 32.9191 46.5512 32.6859C46.1152 32.569 45.7645 32.4617 45.5175 32.3817C45.3939 32.3416 45.2959 32.3083 45.226 32.284C45.191 32.2718 45.163 32.2618 45.1423 32.2543L45.1166 32.245L45.1079 32.2418L45.1032 32.2401C45.1026 32.2399 45.102 32.2397 45.7979 30.3646ZM43.8577 29.8792L45.7979 30.3646L45.102 32.2397C44.1463 31.8849 43.6103 30.8682 43.8577 29.8792Z" fill="#156319"/>
<path d="M58.7037 29.1847C63.6883 26.5571 68.5109 18.6171 68.5109 18.6171C57.1764 21.5054 49.7487 27.2214 47.4517 29.7183C47.4517 29.7183 53.7191 31.8123 58.7037 29.1847Z" fill="#79C01E"/>
<path d="M36.946 25.1521C39 26 44 34 45.3907 38.0637C45.5067 38.4027 46.438 38.0482 46.3409 37.7521C45.7747 34.0014 43.5 25 41 22C38.0689 22.1741 36.953 24.3297 36.946 25.1521Z" fill="#8C5936"/>
<path fill-rule="evenodd" clip-rule="evenodd" d="M36.1647 26.9931C35.4208 26.6775 34.9393 25.9445 34.9461 25.1351C34.9551 24.0713 35.5466 22.8585 36.4438 21.9374C37.4281 20.9268 38.9045 20.1209 40.8814 20.0035C41.5155 19.9658 42.1298 20.2316 42.5364 20.7196C43.3449 21.6898 44.046 23.0221 44.6448 24.4045C45.2567 25.8172 45.8175 27.4147 46.3072 29.0064C47.2679 32.1289 47.9947 35.3597 48.3036 37.3565C48.5481 38.47 47.8275 39.239 47.6055 39.4437C47.2776 39.7461 46.907 39.9274 46.6132 40.0314C46.3249 40.1335 45.8962 40.2372 45.4105 40.1905C44.9441 40.1457 43.894 39.8673 43.4984 38.7113C42.8784 36.8995 41.3777 34.0389 39.7348 31.4835C38.9224 30.2199 38.1107 29.0867 37.4017 28.2381C37.0464 27.8128 36.7394 27.4863 36.4905 27.2583C36.2682 27.0546 36.1616 26.9942 36.1625 26.9925C36.1626 26.9923 36.1633 26.9926 36.1647 26.9931ZM46.3409 37.752C46.3402 37.7478 46.3396 37.7435 46.3389 37.7392C46.274 37.3108 46.187 36.8144 46.08 36.2667C45.9066 35.379 45.6807 34.3564 45.4119 33.2698C44.3915 29.1465 42.751 24.1012 41 22C39.5118 22.0884 38.4915 22.6876 37.8467 23.3638C37.7278 23.4885 37.6216 23.6158 37.5277 23.7431C37.1278 24.2846 36.9488 24.8242 36.946 25.152C38.4277 25.7637 41.4422 30.0968 43.5292 33.9896C44.0165 34.8984 44.4532 35.7833 44.808 36.5912C45.0129 37.0578 45.1906 37.4988 45.3349 37.9039C45.3541 37.9578 45.3727 38.0111 45.3907 38.0637C45.5067 38.4027 46.438 38.0482 46.3409 37.752ZM44.3561 38.0031C44.3708 38.1215 44.398 38.2457 44.4405 38.3754C44.4057 38.2694 44.3799 38.1608 44.3633 38.0506C44.3609 38.0348 44.3585 38.019 44.3561 38.0031Z" fill="#583A24"/>
<path d="M41.666 22.3473C42.2012 23.0915 41.5836 24.4509 40.2866 25.3838C38.9896 26.3167 37.5043 26.4697 36.9691 25.7255C36.4339 24.9814 37.0514 23.6219 38.3484 22.6891C39.6454 21.7562 41.1308 21.6032 41.666 22.3473Z" fill="#C27A49"/>
<path d="M42.4547 44.6632C44.123 47.5263 41.9938 51.8759 37.6991 54.3783C33.4044 56.8808 28.5705 56.5883 26.9022 53.7252C25.2339 50.862 27.3631 46.5124 31.6578 44.01C35.9525 41.5076 40.7864 41.8 42.4547 44.6632Z" fill="#FFC671"/>
<path fill-rule="evenodd" clip-rule="evenodd" d="M34.0831 47.1546C34.6729 48.0886 34.3939 49.3238 33.4599 49.9136C32.7474 50.3635 32.1971 50.908 31.7815 51.5491C31.1807 52.476 29.9423 52.7402 29.0154 52.1394C28.0885 51.5386 27.8242 50.3001 28.4251 49.3733C29.1705 48.2234 30.1461 47.2754 31.3242 46.5315C32.2581 45.9417 33.4933 46.2207 34.0831 47.1546Z" fill="white"/>
</svg>
