<svg width="96" height="96" viewBox="0 0 96 96" fill="none" xmlns="http://www.w3.org/2000/svg">
<path d="M27.4913 26.6919C42.395 19.0197 60.9743 23.4194 68.4009 26.5782C62.9447 31.1781 56.9427 33.985 45.0938 33.6745C35.6147 33.4261 29.4092 28.9159 27.4913 26.6919Z" fill="#6AA63F"/>
<path fill-rule="evenodd" clip-rule="evenodd" d="M70.3788 26.281C70.482 26.9681 70.2213 27.6595 69.6901 28.1073C66.8267 30.5213 63.7467 32.5238 59.7849 33.8625C55.8396 35.1955 51.13 35.8333 45.0415 35.6738C34.9787 35.4101 28.2491 30.6331 25.9767 27.998C25.5765 27.5339 25.4112 26.912 25.5281 26.3105C25.6449 25.7089 26.0311 25.1941 26.5759 24.9137C34.4601 20.855 43.2318 20.0265 50.8938 20.5786C58.5562 21.1306 65.2732 23.0745 69.1838 24.7378C69.8231 25.0097 70.2755 25.594 70.3788 26.281ZM29.3841 25.7896C28.7474 26.0698 28.1162 26.3702 27.4913 26.6919C27.8543 27.1128 28.3708 27.6155 29.034 28.1558C31.8753 30.4703 37.4087 33.4731 45.0939 33.6744C55.6597 33.9513 61.5764 31.7494 66.6026 28.0077C67.213 27.5533 67.8102 27.0763 68.401 26.5782C67.7655 26.3079 67.0483 26.0285 66.2588 25.7484C58.2084 22.892 42.6338 19.9583 29.3841 25.7896Z" fill="#33691E"/>
<path fill-rule="evenodd" clip-rule="evenodd" d="M29.2462 28.3259C32.1457 30.6148 37.5956 33.478 45.0939 33.6745C56.9428 33.985 62.9448 31.1781 68.401 26.5782C67.1459 26.0444 65.5723 25.4751 63.7518 24.9347C59.0432 28.7128 53.3015 31.0826 43.1067 31.3928C37.1986 31.5726 32.4668 30.0271 29.2462 28.3259Z" fill="#51862B"/>
<path d="M19.8286 38.9947C31.3653 35.0799 44.1756 40.3261 49.1387 43.4386C44.7137 46.1707 40.0995 47.5421 31.6489 46.006C24.8884 44.777 20.9518 40.8197 19.8286 38.9947Z" fill="#6AA63F"/>
<path fill-rule="evenodd" clip-rule="evenodd" d="M51.1388 43.4456C51.1364 44.1366 50.7775 44.7774 50.1895 45.1404C47.8265 46.5993 45.3299 47.7438 42.2543 48.2918C39.1955 48.8369 35.6803 48.7715 31.2913 47.9737C23.9474 46.6387 19.5329 42.3299 18.1255 40.043C17.8064 39.5246 17.7408 38.8891 17.9472 38.3165C18.1537 37.7438 18.6096 37.2964 19.186 37.1008C25.4191 34.9857 31.908 35.3695 37.3973 36.6323C42.8864 37.8951 47.5366 40.073 50.2014 41.7442C50.7868 42.1113 51.1412 42.7546 51.1388 43.4456ZM21.8508 38.4029C21.1736 38.5707 20.499 38.7672 19.8287 38.9947C20.106 39.4452 20.5546 40.0255 21.1748 40.6627C23.0672 42.607 26.5571 45.0803 31.649 46.0059C38.8342 47.3121 43.2459 46.5162 47.1261 44.5692C47.8094 44.2263 48.4762 43.8477 49.1388 43.4386C48.5693 43.0814 47.8965 42.6962 47.1342 42.2999C41.6386 39.4434 31.4903 36.0138 21.8508 38.4029Z" fill="#33691E"/>
<path fill-rule="evenodd" clip-rule="evenodd" d="M22.7399 38.1992C21.7641 38.4049 20.7918 38.6679 19.8285 38.9948C20.9517 40.8198 24.8883 44.7771 31.6488 46.0061C37.9797 47.1569 42.1574 46.6759 45.7155 45.2134C42.1027 46.1292 37.9797 46.0416 32.0498 44.2055C27.5208 42.8031 24.4826 40.2728 22.7399 38.1992Z" fill="#8BCB5C"/>
<path fill-rule="evenodd" clip-rule="evenodd" d="M64.4593 32.7929C64.8498 33.1834 64.8498 33.8166 64.4593 34.2071C59.6604 39.006 58.7857 43.2054 59.2445 46.876C59.313 47.424 58.9243 47.9238 58.3763 47.9923C57.8282 48.0608 57.3284 47.6721 57.2599 47.124C56.7188 42.7946 57.8439 37.994 63.0451 32.7929C63.4356 32.4024 64.0688 32.4024 64.4593 32.7929Z" fill="#B36444"/>
<path fill-rule="evenodd" clip-rule="evenodd" d="M53.5401 41.6286C53.7452 42.1414 53.4958 42.7234 52.983 42.9285C49.557 44.2989 47.4578 47.0482 46.1445 50.0274C44.8281 53.0139 44.3417 56.1452 44.1045 58.1192C44.0385 58.6676 43.5406 59.0586 42.9923 58.9927C42.4439 58.9268 42.0528 58.4289 42.1187 57.8805C42.3625 55.8523 42.8762 52.4836 44.3144 49.2207C45.7559 45.9505 48.1662 42.7011 52.2402 41.0715C52.753 40.8664 53.335 41.1158 53.5401 41.6286Z" fill="#B36444"/>
<path fill-rule="evenodd" clip-rule="evenodd" d="M76.2127 13.5724C77.0011 13.8267 77.4341 14.6721 77.1798 15.4605C74.5583 23.5872 67.4143 32.561 58.9428 39.4746C50.4881 46.3744 40.3694 51.5 31.6116 51.5C30.7831 51.5 30.1116 50.8284 30.1116 50C30.1116 49.1716 30.7831 48.5 31.6116 48.5C39.3537 48.5 48.8053 43.8755 57.046 37.1504C65.2698 30.4389 71.9461 21.9128 74.3246 14.5395C74.579 13.7511 75.4243 13.3181 76.2127 13.5724Z" fill="#845340"/>
<path d="M72.6556 51.1686C74.9849 57.7753 72.4407 64.6938 66.9731 66.6215C61.5055 68.5492 55.1848 64.7561 52.8555 58.1494C50.5262 51.5427 53.0703 44.6242 58.538 42.6965C64.0056 40.7688 70.3263 44.5619 72.6556 51.1686Z" fill="#9E9E24"/>
<path fill-rule="evenodd" clip-rule="evenodd" d="M74.5418 50.5036C77.1151 57.8023 74.4659 66.1005 67.6382 68.5078C60.8105 70.915 53.5426 66.1131 50.9694 58.8144C48.3961 51.5158 51.0453 43.2175 57.873 40.8103C64.7007 38.4031 71.9686 43.2049 74.5418 50.5036ZM66.9732 66.6215C72.4408 64.6938 74.9849 57.7753 72.6556 51.1686C70.3263 44.5619 64.0057 40.7688 58.538 42.6965C53.0704 44.6242 50.5263 51.5427 52.8556 58.1494C55.1849 64.7561 61.5055 68.5492 66.9732 66.6215Z" fill="#616110"/>
<path d="M66.9733 66.6216C72.4409 64.6939 74.9851 57.7754 72.6558 51.1686C70.5799 45.2807 65.3339 41.6275 60.3468 42.2667C63.7788 43.4641 66.8388 46.5131 68.309 50.6828C70.6383 57.2896 68.0941 64.2081 62.6265 66.1358C62.0316 66.3455 61.4267 66.4875 60.8179 66.5655C62.8237 67.2653 64.9565 67.3326 66.9733 66.6216Z" fill="#85851C"/>
<path d="M60.0972 51.1574C60.2304 53.5801 58.8398 55.6265 56.9911 55.7282C55.1424 55.8299 53.5358 53.9483 53.4025 51.5257C53.2693 49.103 54.6599 47.0566 56.5086 46.9549C58.3573 46.8533 59.9639 48.7348 60.0972 51.1574Z" fill="#BCBC4A"/>
<path d="M69.4407 60.9135C69.7677 61.7366 69.3655 62.669 68.5423 62.996C67.7192 63.323 66.7868 62.9208 66.4598 62.0977C66.1328 61.2745 66.535 60.3421 67.3581 60.0151C68.1813 59.6881 69.1137 60.0903 69.4407 60.9135Z" fill="#6C6C09"/>
<path d="M71.0401 56.2516C71.2581 56.8004 70.99 57.422 70.4412 57.64C69.8924 57.858 69.2708 57.5898 69.0528 57.0411C68.8348 56.4923 69.1029 55.8707 69.6517 55.6527C70.2005 55.4347 70.8221 55.7028 71.0401 56.2516Z" fill="#6C6C09"/>
<path d="M71.0468 53.3728C71.1558 53.6472 71.0218 53.958 70.7474 54.067C70.473 54.176 70.1622 54.0419 70.0532 53.7675C69.9442 53.4931 70.0783 53.1823 70.3527 53.0733C70.627 52.9643 70.9378 53.0984 71.0468 53.3728Z" fill="#6C6C09"/>
<path d="M71.0333 59.1304C71.1423 59.4048 71.0082 59.7156 70.7338 59.8246C70.4595 59.9336 70.1487 59.7995 70.0397 59.5251C69.9306 59.2508 70.0647 58.94 70.3391 58.831C70.6135 58.722 70.9243 58.856 71.0333 59.1304Z" fill="#6C6C09"/>
<path d="M66.2557 64.4797C66.3647 64.7541 66.2306 65.0649 65.9562 65.1739C65.6819 65.2829 65.3711 65.1488 65.2621 64.8744C65.1531 64.6001 65.2871 64.2893 65.5615 64.1803C65.8359 64.0713 66.1467 64.2053 66.2557 64.4797Z" fill="#6C6C09"/>
<path d="M55.7721 67.1084C55.7239 74.55 50.6922 80.5503 44.5336 80.5104C38.375 80.4704 33.4216 74.4054 33.4699 66.9638C33.5181 59.5221 38.5498 53.5219 44.7084 53.5618C50.867 53.6017 55.8204 59.6668 55.7721 67.1084Z" fill="#9E9E24"/>
<path fill-rule="evenodd" clip-rule="evenodd" d="M57.7721 67.1214C57.7191 75.2967 52.1214 82.5596 44.5207 82.5103C36.92 82.461 31.417 75.1261 31.47 66.9508C31.523 58.7755 37.1207 51.5126 44.7214 51.5618C52.3221 51.6111 57.8252 58.946 57.7721 67.1214ZM44.5337 80.5104C50.6923 80.5503 55.7239 74.55 55.7722 67.1084C55.8204 59.6667 50.867 53.6017 44.7084 53.5618C38.5498 53.5219 33.5182 59.5221 33.4699 66.9638C33.4217 74.4054 38.3751 80.4704 44.5337 80.5104Z" fill="#616110"/>
<path d="M41.0869 79.8302C47.2023 79.8084 52.1827 73.8316 52.2308 66.4281C52.2696 60.4418 49.0717 55.3463 44.6136 53.5615C44.6451 53.5613 44.6767 53.5614 44.7082 53.5616C50.8668 53.6015 55.8202 59.6665 55.772 67.1082C55.7237 74.5498 50.6921 80.5501 44.5335 80.5102C43.3291 80.5024 42.1707 80.2641 41.0869 79.8302Z" fill="#85851C"/>
<path d="M51.5619 72.5569C51.9354 73.4447 51.5184 74.4671 50.6306 74.8406C49.7429 75.214 48.7204 74.7971 48.347 73.9093C47.9735 73.0215 48.3905 71.9991 49.2783 71.6256C50.1661 71.2522 51.1885 71.6691 51.5619 72.5569Z" fill="#6C6C09"/>
<path d="M53.1991 67.4538C53.4481 68.0456 53.1701 68.7272 52.5782 68.9762C51.9864 69.2252 51.3047 68.9472 51.0558 68.3553C50.8068 67.7635 51.0848 67.0819 51.6766 66.8329C52.2685 66.5839 52.9501 66.8619 53.1991 67.4538Z" fill="#6C6C09"/>
<path d="M53.1439 64.3239C53.2683 64.6198 53.1294 64.9606 52.8334 65.0851C52.5375 65.2096 52.1967 65.0706 52.0722 64.7747C51.9477 64.4787 52.0867 64.1379 52.3826 64.0134C52.6786 63.8889 53.0194 64.0279 53.1439 64.3239Z" fill="#6C6C09"/>
<path d="M53.2545 70.5837C53.3789 70.8796 53.24 71.2204 52.944 71.3449C52.6481 71.4694 52.3073 71.3304 52.1828 71.0345C52.0583 70.7386 52.1973 70.3977 52.4932 70.2733C52.7892 70.1488 53.13 70.2878 53.2545 70.5837Z" fill="#6C6C09"/>
<path d="M48.1768 76.5034C48.3013 76.7994 48.1623 77.1402 47.8664 77.2647C47.5705 77.3891 47.2296 77.2502 47.1052 76.9542C46.9807 76.6583 47.1197 76.3175 47.4156 76.193C47.7115 76.0685 48.0523 76.2075 48.1768 76.5034Z" fill="#6C6C09"/>
<path d="M44.2854 64.5508C43.7396 67.8585 41.2323 70.1991 38.6852 69.7787C36.1382 69.3584 34.5159 66.3363 35.0617 63.0287C35.6076 59.721 38.1149 57.3804 40.6619 57.8007C43.209 58.2211 44.8313 61.2432 44.2854 64.5508Z" fill="#D6D655"/>
<path fill-rule="evenodd" clip-rule="evenodd" d="M40.2425 59.9151C41.0971 60.6149 41.2225 61.875 40.5226 62.7296C40.1557 63.1776 39.9207 63.6442 39.7921 64.1401C39.5148 65.2093 38.4232 65.8512 37.354 65.5739C36.2848 65.2965 35.6429 64.205 35.9202 63.1358C36.2011 62.0529 36.7122 61.0691 37.428 60.1952C38.1278 59.3406 39.3879 59.2152 40.2425 59.9151Z" fill="white"/>
</svg>
