<svg width="96" height="96" viewBox="0 0 96 96" fill="none" xmlns="http://www.w3.org/2000/svg">
<path d="M50.091 51.4489C51.9558 54.1684 51.2203 57.7031 50.6194 59.1304C49.8047 60.6621 50.9789 60.7508 51.6678 60.6037C53.5825 55.9834 54.845 55.651 58.5103 53.8626C61.4427 52.4318 61.7755 50.19 61.5754 49.248C66.9103 48.9134 67.3623 44.5342 66.9214 42.3864C71.5887 39.4286 69.4302 35.5858 67.7675 34.0342C68.9247 29.6133 65.2231 28.1869 63.2277 28.0264C59.2292 23.399 55.1885 25.2382 53.668 26.7363C47.6977 28.0614 47.5484 32.8412 48.22 35.0654C43.756 40.1924 46.8817 44.1303 49.0025 45.4584C47.638 47.2584 47.7601 48.0494 50.091 51.4489Z" fill="#63B920"/>
<path fill-rule="evenodd" clip-rule="evenodd" d="M52.1955 59.4046C52.1456 59.5104 52.0955 59.619 52.0451 59.7306C52.026 59.7727 52.0069 59.8153 51.9878 59.8582C51.8829 60.0936 51.7764 60.3418 51.6679 60.6037C51.1584 60.7125 50.3836 60.6923 50.3439 60.0551C50.33 59.8306 50.4072 59.5295 50.6195 59.1304C50.8238 58.6449 51.0438 57.9155 51.1717 57.0573C51.4198 55.3927 51.3215 53.2433 50.0911 51.4489C48.2749 48.8002 47.7997 47.735 48.3238 46.5422C48.4724 46.2042 48.7012 45.8559 49.0025 45.4584C48.717 45.2796 48.4132 45.0534 48.1121 44.7834C46.1776 43.0482 44.3572 39.502 48.2201 35.0654C47.5484 32.8412 47.6977 28.0614 53.668 26.7362C55.1886 25.2382 59.2293 23.399 63.2277 28.0264C65.2232 28.1869 68.9248 29.6133 67.7676 34.0342C69.4303 35.5858 71.5888 39.4286 66.9214 42.3864C67.3005 44.233 67.0196 47.729 63.5428 48.8859C62.9757 49.0746 62.3236 49.2011 61.5755 49.248C61.6138 49.4281 61.6325 49.6556 61.6174 49.9159C61.5534 51.0174 60.8822 52.7053 58.5104 53.8625C58.2554 53.987 58.012 54.1043 57.7793 54.2166C55.5341 55.2994 54.2753 55.9065 53.0796 57.7735C52.7856 58.2324 52.4955 58.7676 52.1955 59.4046ZM63.4737 50.9831C63.0865 52.6113 61.9006 54.4338 59.3874 55.66C59.1186 55.7911 58.8698 55.9116 58.6386 56.0236C57.1619 56.7388 56.4025 57.1065 55.7477 57.678C55.0787 58.2619 54.4292 59.1647 53.5155 61.3694L53.1132 62.3402L52.0855 62.5596C51.7762 62.6257 51.39 62.6719 50.98 62.6474C50.5995 62.6248 49.9944 62.5297 49.4299 62.133C48.7627 61.6641 48.3673 60.9222 48.3435 60.0842C48.3244 59.4119 48.5451 58.7954 48.8032 58.2882C49.0062 57.7777 49.2602 56.824 49.2802 55.7373C49.301 54.612 49.0703 53.4968 48.4416 52.5799C47.8514 51.7191 47.3598 50.9647 46.9917 50.2927C46.627 49.627 46.3224 48.9349 46.1921 48.2053C46.0368 47.3353 46.1571 46.5868 46.414 45.928C45.4922 45.0063 44.6337 43.7572 44.2125 42.2127C43.5801 39.8938 44.0244 37.2521 46.0592 34.5554C45.843 33.187 45.8969 31.4577 46.614 29.7783C47.5426 27.6034 49.4769 25.7661 52.7079 24.9117C53.7905 24.0153 55.4445 23.1664 57.438 23.0859C59.6593 22.9962 62.0262 23.8708 64.2176 26.1447C65.4034 26.3661 66.8518 26.8943 68.0195 27.9476C68.7773 28.6311 69.42 29.5425 69.7508 30.706C69.9899 31.5472 70.0478 32.4554 69.9229 33.4206C70.7451 34.4284 71.5308 35.8334 71.7068 37.469C71.8282 38.5968 71.6531 39.8111 71.0202 40.9948C70.5648 41.8466 69.9035 42.6247 69.0413 43.3247C69.0929 44.5598 68.9012 46.0387 68.1919 47.4139C67.3233 49.0979 65.7796 50.4259 63.4737 50.9831ZM52.3167 60.218C52.3166 60.218 52.3172 60.216 52.3187 60.2118C52.3175 60.2159 52.3168 60.218 52.3167 60.218Z" fill="#35780D"/>
<path fill-rule="evenodd" clip-rule="evenodd" d="M50.6193 59.1305C51.2202 57.7031 51.9557 54.1685 50.091 51.4489C47.76 48.0495 47.6379 47.2584 49.0024 45.4584C46.8816 44.1304 43.7559 40.1924 48.22 35.0654C47.8692 33.904 47.7424 32.0457 48.5513 30.3464C49.204 30.01 49.9721 29.7315 50.8725 29.5316C52.3931 28.0336 56.4338 26.1944 60.4322 30.8218C62.4277 30.9823 66.1293 32.4087 64.9721 36.8296C66.6348 38.3812 68.7933 42.224 64.126 45.1818C64.3197 46.1258 64.341 47.5008 63.8511 48.774C63.2154 49.0247 62.463 49.1924 61.5754 49.248C61.6819 49.7496 61.6374 50.6197 61.1298 51.5396C60.4787 51.8068 59.7024 51.9855 58.78 52.0434C58.8669 52.4525 58.8533 53.1067 58.5699 53.8332C58.5502 53.843 58.5303 53.8528 58.5103 53.8626C58.2553 53.987 58.0119 54.1044 57.7791 54.2167C55.4139 55.3573 54.1433 55.9701 52.888 58.0841C51.9028 58.6603 51.1495 59.2909 50.4323 60.3444C50.286 60.1152 50.2976 59.7354 50.6193 59.1305Z" fill="#448213"/>
<path d="M38.447 54.0551C41.1077 55.0203 42.3616 57.8542 42.656 59.1505C42.8533 60.6265 43.7169 60.1013 44.1241 59.6543C43.1501 55.4734 43.8647 54.6103 45.528 51.53C46.8586 49.0658 45.9702 47.3352 45.3596 46.778C48.9145 43.8774 47.0405 40.596 45.6591 39.3179C47.4369 34.9208 44.0097 33.3188 42.0739 33.0674C40.6711 29.4044 37.3753 30.2598 35.9028 31.1453C30.7996 29.9157 28.8998 33.2191 28.5879 35.0245C25.0848 38.9339 27.3702 42.3434 28.9508 43.5595C28.3994 49.3684 32.549 50.5533 34.6927 50.4197C34.6405 52.3577 35.1212 52.8486 38.447 54.0551Z" fill="#8DEE40"/>
<path fill-rule="evenodd" clip-rule="evenodd" d="M43.8345 58.2184C43.8676 58.4215 43.9063 58.6339 43.9507 58.8565C43.9585 58.8954 43.9665 58.9347 43.9746 58.9742C44.0191 59.1909 44.0689 59.4173 44.1241 59.6543C43.823 59.9849 43.2724 60.3582 42.9261 59.9334C42.8041 59.7838 42.7074 59.535 42.656 59.1505C42.5278 58.5857 42.2174 57.7291 41.6878 56.8623C41.002 55.7396 39.9485 54.5998 38.4471 54.0551C35.8557 53.1151 34.9916 52.6095 34.761 51.5152C34.6956 51.2051 34.6812 50.8477 34.6927 50.4197C34.404 50.4377 34.079 50.4318 33.734 50.3939C31.5167 50.1504 28.4737 48.5863 28.9509 43.5595C27.3703 42.3434 25.0848 38.9339 28.5879 35.0245C28.8998 33.2191 30.7996 29.9158 35.9028 31.1454C37.3753 30.2598 40.6711 29.4044 42.0739 33.0674C44.0097 33.3188 47.4369 34.9208 45.6591 39.3179C46.81 40.3828 48.3029 42.8383 46.713 45.3055C46.3947 45.7996 45.9527 46.2941 45.3596 46.778C45.4763 46.8845 45.6032 47.0339 45.7227 47.2231C46.2288 48.0236 46.6043 49.5368 45.528 51.53C45.4123 51.7443 45.3012 51.9479 45.1949 52.1426C44.2916 53.7973 43.7379 54.8115 43.6869 56.3294C43.6686 56.876 43.7154 57.4878 43.8345 58.2184ZM47.8766 47.0936C48.3934 48.4869 48.4245 50.3754 47.2879 52.4803C47.1655 52.7068 47.0523 52.9151 46.9475 53.1079C46.2709 54.353 45.9456 54.9517 45.7837 55.6383C45.6237 56.3172 45.6108 57.2212 46.0719 59.2005L46.3104 60.224L45.6028 61.0009C45.4066 61.2164 45.1411 61.4596 44.817 61.6638C44.5178 61.8523 43.9957 62.1174 43.3297 62.1235C42.5383 62.1307 41.8078 61.7677 41.3194 61.1253C40.9336 60.618 40.7678 60.0315 40.6897 59.5269C40.5817 59.099 40.2963 58.3455 39.792 57.6134C39.2661 56.8501 38.5905 56.2347 37.765 55.9353C36.9211 55.6291 36.1899 55.3446 35.5839 55.0534C34.9841 54.7652 34.3945 54.4188 33.9074 53.9442C33.3744 53.4249 33.0684 52.8582 32.8964 52.2894C31.7988 52.0832 30.6019 51.626 29.5491 50.7697C27.8924 49.4222 26.86 47.3075 26.9027 44.3966C26.0655 43.5217 25.2517 42.2744 24.9104 40.7349C24.4535 38.6744 24.9036 36.3562 26.7481 34.0989C27.0777 32.8937 27.835 31.4483 29.2191 30.3694C30.7796 29.1531 32.9227 28.5683 35.6153 29.043C36.5809 28.6056 37.8726 28.2594 39.2384 28.4133C40.1549 28.5165 41.1108 28.8485 41.9701 29.5322C42.562 30.0031 43.0604 30.6028 43.4621 31.3211C44.5526 31.6344 45.7995 32.2405 46.7509 33.3059C47.4341 34.071 47.9459 35.0576 48.1041 36.2609C48.2123 37.0842 48.1476 37.9497 47.9168 38.8508C48.5615 39.706 49.1468 40.8361 49.3393 42.1495C49.5812 43.7998 49.1699 45.528 47.8766 47.0936ZM44.6568 58.9856C44.6567 58.9858 44.6554 58.9818 44.6534 58.973C44.656 58.9811 44.657 58.9855 44.6568 58.9856Z" fill="#48AB0B"/>
<path fill-rule="evenodd" clip-rule="evenodd" d="M43.0934 33.2988C42.4705 33.443 41.9093 33.6906 41.4935 33.9407C36.3903 32.7111 34.4905 36.0145 34.1785 37.8199C30.6755 41.7292 32.9609 45.1388 34.5415 46.3549C33.9901 52.1638 38.1396 53.3487 40.2833 53.215C40.2331 55.0823 40.6775 55.6062 43.6847 56.7211C43.6478 54.9765 44.2161 53.9356 45.1949 52.1426C45.3012 51.9479 45.4123 51.7443 45.528 51.53C46.8586 49.0658 45.9701 47.3352 45.3596 46.778C48.9145 43.8774 47.0405 40.596 45.6591 39.3179C47.1515 35.6265 44.9757 33.905 43.0934 33.2988Z" fill="#5EBD13"/>
<path d="M42.8216 49.8161C45.931 52.1792 46.4205 56.4272 46.2765 58.2558C45.931 60.2813 47.2842 59.9438 48.004 59.5218C48.4359 53.614 49.7315 52.77 53.1864 49.3941C55.9504 46.6934 55.4898 44.049 54.9139 43.0644C60.7874 40.7013 59.6645 35.6093 58.3689 33.3587C62.5149 28.2949 58.6568 24.7784 56.2095 23.6531C55.864 18.2517 51.1711 18.0266 48.8677 18.5893C42.6488 14.8758 38.7908 18.4486 37.6392 20.6992C31.4202 24.4127 33.0326 29.8422 34.6161 32.0928C31.5066 39.5197 36.4875 42.7831 39.3666 43.4864C38.5028 46.0183 38.9347 46.8622 42.8216 49.8161Z" fill="#8DEE40"/>
<path fill-rule="evenodd" clip-rule="evenodd" d="M48.0925 58.5008C48.0904 58.522 48.0882 58.5432 48.0861 58.5645C48.0559 58.8682 48.0286 59.1868 48.0041 59.5218C47.4719 59.8338 46.5932 60.0997 46.3112 59.398C46.2119 59.1508 46.1866 58.7835 46.2766 58.2558C46.3047 57.8992 46.3087 57.4505 46.2738 56.9417C46.13 54.8419 45.3247 51.7183 42.8217 49.8161C39.7932 47.5146 38.8622 46.4939 39.0073 44.9577C39.0484 44.5223 39.176 44.0455 39.3667 43.4864C38.979 43.3917 38.5532 43.2505 38.1142 43.0591C35.2929 41.8287 31.9254 38.5196 34.6162 32.0928C33.0327 29.8422 31.4203 24.4127 37.6393 20.6992C38.7909 18.4486 42.6489 14.8758 48.8679 18.5893C51.1712 18.0266 55.8642 18.2517 56.2097 23.6531C58.6569 24.7784 62.515 28.2949 58.369 33.3587C59.5141 35.3479 60.5243 39.5565 56.6885 42.139C56.1843 42.4785 55.5964 42.7898 54.914 43.0644C55.0241 43.2526 55.13 43.5014 55.2099 43.7997C55.5482 45.062 55.4222 47.2097 53.1866 49.3941C52.9462 49.629 52.7163 49.8516 52.4964 50.0645C50.0615 52.422 48.8546 53.5906 48.2833 57.0426C48.2142 57.4596 48.1545 57.9099 48.103 58.3996C48.0995 58.4331 48.096 58.4669 48.0925 58.5008ZM57.3033 44.1145C57.536 46.0119 56.9669 48.4966 54.5843 50.8246C54.3321 51.071 54.0974 51.299 53.8783 51.5117C52.4912 52.8584 51.7341 53.5934 51.1839 54.5253C50.6063 55.5035 50.2064 56.8275 49.9988 59.6676L49.9222 60.7156L49.0156 61.2471C48.7147 61.4235 48.3285 61.6044 47.8969 61.7194C47.494 61.8268 46.8545 61.9297 46.1638 61.7215C45.3531 61.4772 44.7196 60.8764 44.4196 60.05C44.1748 59.3757 44.1893 58.663 44.288 58.0246C44.3309 57.335 44.2585 56.1142 43.8594 54.8301C43.4485 53.5085 42.7387 52.2651 41.6115 51.4085C40.6293 50.662 39.8077 50.0059 39.1577 49.4007C38.5128 48.8002 37.9451 48.1672 37.5542 47.4458C37.0474 46.5103 36.9344 45.6123 37.0175 44.7567C35.6199 44.0948 34.1432 43.0192 33.0795 41.4172C31.5579 39.1254 31.0804 36.0601 32.3973 32.2935C31.6365 30.8743 31.029 28.9212 31.2088 26.7774C31.434 24.0916 32.8736 21.3839 36.1502 19.2698C36.9899 17.899 38.4885 16.3497 40.6483 15.5361C43.0257 14.6406 45.9403 14.7349 49.213 16.487C50.5937 16.2821 52.4023 16.3175 54.0776 17.0537C55.129 17.5157 56.1332 18.2592 56.8948 19.3799C57.4717 20.2288 57.8681 21.2332 58.0712 22.387C59.3625 23.1809 60.7839 24.4465 61.5821 26.2005C62.1106 27.3617 62.3527 28.7172 62.0956 30.2048C61.9014 31.3286 61.435 32.4566 60.6897 33.5814C61.2269 34.9277 61.5912 36.6684 61.3055 38.4807C60.9648 40.6428 59.7331 42.674 57.3033 44.1145Z" fill="#48AB0B"/>
<path d="M44.3584 19.7752C50.4263 29.4982 49.8363 46.1892 48.7829 53.3194C49.2043 52.023 49.2844 51.3829 51.8127 48.6605C54.3409 45.9381 54.3083 42.3406 53.6762 41.2062C58.3351 39.8085 57.2105 33.0632 55.7356 31.4428C59.2752 26.7757 56.3677 24.6367 54.4715 24.1505C53.4602 20.6503 47.3081 19.7752 44.3584 19.7752Z" fill="#73D625"/>
<path d="M45.6933 64.6504C43.9395 68.9643 35.9617 71.5298 33.358 70.4713C30.3823 69.2616 26.8296 62.0085 28.5833 57.6946C30.3371 53.3806 35.589 51.4406 40.3138 53.3614C45.0386 55.2822 47.447 60.3364 45.6933 64.6504Z" fill="#EB2352"/>
<path fill-rule="evenodd" clip-rule="evenodd" d="M36.4132 72.5959C35.1589 72.7707 33.7474 72.7887 32.6047 72.3241C31.4016 71.835 30.3617 70.8515 29.5399 69.8103C28.689 68.7321 27.9322 67.4145 27.3503 66.0148C26.2277 63.3147 25.562 59.8155 26.7305 56.9413C28.9633 51.4491 35.4811 49.2378 41.0669 51.5086C46.6527 53.7795 49.7787 59.9113 47.546 65.4036C46.362 68.316 43.3035 70.3111 40.6075 71.4241C39.1998 72.0053 37.7402 72.4109 36.4132 72.5959ZM33.3579 70.4713C35.9616 71.5298 43.9394 68.9643 45.6932 64.6504C47.447 60.3364 45.0385 55.2822 40.3137 53.3614C35.5889 51.4406 30.337 53.3806 28.5832 57.6946C26.8295 62.0085 30.3823 69.2616 33.3579 70.4713Z" fill="#AC1236"/>
<path fill-rule="evenodd" clip-rule="evenodd" d="M42.9146 54.9068C38.5941 53.8432 34.1654 55.803 32.5833 59.6946C31.2469 62.9818 32.9918 67.9757 35.2147 70.7018C34.4671 70.7347 33.8258 70.6615 33.358 70.4713C30.3823 69.2616 26.8296 62.0085 28.5833 57.6946C30.3371 53.3806 35.589 51.4406 40.3138 53.3614C41.2836 53.7557 42.1559 54.282 42.9146 54.9068Z" fill="#FF537C"/>
<path d="M36.0963 54.4218C36.6535 55.3967 35.9197 56.8647 34.4572 57.7006C32.9948 58.5364 31.3575 58.4236 30.8002 57.4486C30.243 56.4737 30.9768 55.0057 32.4393 54.1698C33.9018 53.334 35.5391 53.4468 36.0963 54.4218Z" fill="#FFA6BB"/>
<path fill-rule="evenodd" clip-rule="evenodd" d="M31.3133 69.5573C31.8656 69.5573 32.3133 70.005 32.3133 70.5573L32.3133 70.5596C32.3133 70.8152 32.3133 71.2598 32.1684 71.8545C32.0243 72.4459 31.7465 73.1506 31.2299 73.9794C30.2421 75.5644 29.2164 76.3471 28.4017 76.7369C28.0701 76.8955 27.7904 76.9808 27.5903 77.0306C27.3377 77.165 27.0295 77.1905 26.7437 77.0743C26.7189 77.0643 26.661 77.0402 26.5952 77.0018C26.5946 77.0014 26.5936 77.0009 26.5923 77.0001C26.5592 76.9814 26.3366 76.855 26.1984 76.5833C26.1052 76.4001 26.0505 76.1489 26.1212 75.8757C26.186 75.6258 26.3281 75.4658 26.418 75.3839C26.5697 75.2456 26.7286 75.1889 26.7609 75.1773C26.762 75.1769 26.763 75.1766 26.7638 75.1763C26.8461 75.1465 26.9292 75.1291 26.9477 75.1252C26.949 75.1249 26.9499 75.1247 26.9505 75.1246C26.9704 75.1203 26.9826 75.1178 26.9936 75.1155C27.0074 75.1126 27.019 75.1102 27.0411 75.1053C27.1455 75.0823 27.3154 75.0395 27.5386 74.9327C27.9778 74.7226 28.7265 74.215 29.5326 72.9216C29.9481 72.2549 30.1363 71.7459 30.2252 71.3811C30.3129 71.0213 30.3133 70.768 30.3133 70.5573C30.3133 70.005 30.761 69.5573 31.3133 69.5573ZM27.5042 75.2246C27.5011 75.2233 27.4988 75.2224 27.4974 75.2218L27.4969 75.2216C27.4993 75.2226 27.5018 75.2236 27.5042 75.2246ZM27.3654 77.0811C27.3598 77.0825 27.3565 77.0832 27.3563 77.0832C27.356 77.0833 27.3589 77.0825 27.3654 77.0811Z" fill="#AC1236"/>
<path d="M64.4032 55.8122C67.2076 59.5299 65.3194 67.6946 63.0756 69.3872C60.5112 71.3216 52.4624 70.6526 49.6581 66.9349C46.8537 63.2172 47.8811 57.7135 51.9529 54.642C56.0247 51.5706 61.5989 52.0945 64.4032 55.8122Z" fill="#EB2352"/>
<path fill-rule="evenodd" clip-rule="evenodd" d="M66.4662 67.8536C65.9732 69.02 65.2649 70.241 64.2801 70.9839C63.2432 71.766 61.8657 72.1545 60.5504 72.3261C59.1884 72.5038 57.6691 72.4779 56.1691 72.2597C53.2753 71.839 49.9299 70.6162 48.0614 68.1393C44.4911 63.4061 45.9348 56.6765 50.7486 53.0454C55.5623 49.4142 62.4297 49.8747 66 54.6078C67.8933 57.1177 68.0378 60.7665 67.611 63.6518C67.3882 65.1584 66.9879 66.6194 66.4662 67.8536ZM63.0756 69.3872C65.3195 67.6946 67.2077 59.5299 64.4033 55.8122C61.599 52.0945 56.0247 51.5706 51.953 54.642C47.8812 57.7135 46.8538 63.2172 49.6581 66.9349C52.4625 70.6526 60.5113 71.3216 63.0756 69.3872Z" fill="#AC1236"/>
<path fill-rule="evenodd" clip-rule="evenodd" d="M48.0785 62.0521C48.732 60.7667 49.6979 59.5888 50.953 58.642C55.0248 55.5706 60.599 56.0945 63.4033 59.8122C64.7283 61.5687 65.0058 64.3178 64.6931 66.9081C64.2312 68.0496 63.6657 68.9421 63.0757 69.3872C60.5114 71.3216 52.4626 70.6525 49.6582 66.9348C48.5712 65.4937 48.0599 63.7843 48.0785 62.0521Z" fill="#C6153F"/>
<path fill-rule="evenodd" clip-rule="evenodd" d="M63.923 69.0196C63.372 69.0211 62.9258 69.4682 62.9258 70.0196C62.9258 70.5719 63.3735 71.0196 63.9258 71.0196C64.0258 71.0196 64.1448 71.0092 64.2198 71.0027C64.2289 71.0019 64.2374 71.0012 64.2451 71.0005C64.3393 70.9925 64.4287 70.9855 64.523 70.9827C64.7139 70.9771 64.8869 70.9909 65.0361 71.0356C65.1739 71.077 65.2935 71.1448 65.3995 71.2663C65.5094 71.3923 65.6506 71.6293 65.7405 72.0793C65.9241 72.9968 66.1895 73.6824 66.5295 74.2164C66.8767 74.7617 67.2675 75.0946 67.6109 75.3408C67.7681 75.4534 67.8808 75.5282 67.9701 75.5875C68.1053 75.6772 68.1868 75.7313 68.2875 75.8271C68.3798 75.9149 68.4751 76.0339 68.5463 76.3187C68.6803 76.8545 69.2232 77.1803 69.759 77.0463C70.2948 76.9124 70.6206 76.3694 70.4866 75.8336C70.3249 75.1866 70.0375 74.7314 69.6659 74.3779C69.4375 74.1607 69.1299 73.9543 68.9262 73.8177C68.8652 73.7767 68.8136 73.7421 68.7761 73.7152C68.5621 73.5619 68.383 73.4037 68.2165 73.1423C68.0428 72.8695 67.8508 72.4324 67.7017 71.687C67.5587 70.9722 67.2923 70.3939 66.9071 69.9521C66.5181 69.5059 66.0554 69.2534 65.6108 69.12C65.1777 68.99 64.7682 68.9747 64.4642 68.9836C64.3109 68.9881 64.1747 68.9993 64.0759 69.0077C64.0668 69.0085 64.0581 69.0092 64.05 69.0099C64.011 69.0132 63.9826 69.0156 63.9568 69.0175C63.9329 69.0192 63.9233 69.0195 63.923 69.0196Z" fill="#AC1236"/>
<path d="M57.4031 64.1159C57.4031 69.0495 50.5971 74.7504 47.6194 74.7504C44.2164 74.7504 37.8357 69.0495 37.8357 64.1159C37.8357 59.1824 42.216 55.183 47.6194 55.183C53.0228 55.183 57.4031 59.1824 57.4031 64.1159Z" fill="#EB2352"/>
<path fill-rule="evenodd" clip-rule="evenodd" d="M51.406 75.5136C50.2507 76.1822 48.8947 76.7504 47.6194 76.7504C46.273 76.7504 44.8811 76.211 43.6673 75.5216C42.4126 74.809 41.1526 73.8247 40.0298 72.69C37.8596 70.4969 35.8357 67.357 35.8357 64.1159C35.8357 57.9105 41.2866 53.183 47.6194 53.183C53.9523 53.183 59.4031 57.9105 59.4031 64.1159C59.4031 67.3982 57.2258 70.5474 55.0311 72.7084C53.8878 73.8342 52.625 74.8082 51.406 75.5136ZM47.6194 74.7504C50.5971 74.7504 57.4031 69.0495 57.4031 64.1159C57.4031 59.1824 53.0228 55.183 47.6194 55.183C42.216 55.183 37.8357 59.1824 37.8357 64.1159C37.8357 69.0495 44.2164 74.7504 47.6194 74.7504Z" fill="#8C0C2A"/>
<path fill-rule="evenodd" clip-rule="evenodd" d="M45.6195 73.7504C48.5971 73.7504 55.4032 68.0495 55.4032 63.1159C55.4032 60.1086 53.7756 57.4483 51.2807 55.8295C54.8703 57.1529 57.4032 60.3643 57.4032 64.1159C57.4032 69.0495 50.5971 74.7504 47.6195 74.7504C46.6297 74.7504 45.388 74.2681 44.1248 73.4628C44.661 73.6494 45.1666 73.7504 45.6195 73.7504Z" fill="#CD1A45"/>
<path d="M48.0133 56.8955C49.0901 58.256 48.3088 60.6683 46.268 62.2836C44.2273 63.8989 41.7 64.1055 40.6232 62.745C39.5463 61.3845 40.3277 58.9722 42.3684 57.3569C44.4091 55.7416 46.9364 55.535 48.0133 56.8955Z" fill="#FF537C"/>
<path fill-rule="evenodd" clip-rule="evenodd" d="M44.6345 57.8755C44.8927 58.3637 44.7062 58.9688 44.2179 59.2269C43.6 59.5537 43.2814 59.9367 42.7463 60.6377C42.4112 61.0767 41.7836 61.161 41.3446 60.8258C40.9056 60.4907 40.8214 59.8632 41.1565 59.4242C41.7046 58.7061 42.2475 58.0065 43.283 57.4589C43.7713 57.2007 44.3763 57.3872 44.6345 57.8755Z" fill="white"/>
<path fill-rule="evenodd" clip-rule="evenodd" d="M46.1536 75.6822C46.1536 75.1299 46.6013 74.6822 47.1536 74.6822C47.7479 74.6822 48.1525 75.0815 48.3579 75.3574C48.5967 75.6782 48.7702 76.0903 48.8769 76.5571C49.092 77.4985 49.0655 78.7884 48.6012 80.4133C48.1678 81.9305 48.3378 82.9123 48.5649 83.4659C48.6816 83.7503 48.8168 83.9314 48.908 84.0265C48.9181 84.037 48.9271 84.0459 48.935 84.0534C49.3288 84.1877 49.612 84.5608 49.612 85.0001C49.612 85.5524 49.1643 86.0001 48.612 86.0001C48.2761 86.0001 48.0132 85.8459 47.9021 85.7755C47.7479 85.6778 47.6006 85.5525 47.4653 85.4116C47.1919 85.1268 46.922 84.7307 46.7146 84.225C46.2935 83.1987 46.1394 81.7497 46.6782 79.8639C47.0753 78.4739 47.0489 77.5355 46.9271 77.0025C46.8834 76.8113 46.8311 76.687 46.7926 76.6151C46.4187 76.4703 46.1536 76.1072 46.1536 75.6822ZM46.7359 76.5306C46.7359 76.5301 46.74 76.5341 46.7479 76.5442C46.7398 76.5362 46.7358 76.5312 46.7359 76.5306Z" fill="#8C0C2A"/>
<path d="M55.2592 67.6884C55.2376 68.0254 54.9469 68.281 54.6099 68.2594C54.273 68.2378 54.0174 67.9471 54.039 67.6101C54.0606 67.2732 54.3513 67.0175 54.6882 67.0391C55.0252 67.0608 55.2808 67.3515 55.2592 67.6884Z" fill="#AC173A"/>
<path d="M52.9602 69.4245C52.9071 70.2525 52.1928 70.8807 51.3648 70.8276C50.5367 70.7744 49.9085 70.0601 49.9617 69.2321C50.0148 68.404 50.7291 67.7759 51.5572 67.829C52.3852 67.8821 53.0134 68.5964 52.9602 69.4245Z" fill="#AC173A"/>
<path d="M54.681 64.5599C54.6388 65.2179 54.0712 65.717 53.4132 65.6748C52.7553 65.6326 52.2561 65.065 52.2983 64.407C52.3405 63.7491 52.9081 63.2499 53.5661 63.2921C54.2241 63.3344 54.7232 63.902 54.681 64.5599Z" fill="#AC173A"/>
<path d="M49.4544 72.2715C49.4145 72.8925 48.8788 73.3636 48.2578 73.3238C47.6367 73.2839 47.1656 72.7482 47.2054 72.1272C47.2453 71.5061 47.781 71.035 48.4021 71.0748C49.0231 71.1147 49.4942 71.6504 49.4544 72.2715Z" fill="#AC173A"/>
</svg>
