<svg width="96" height="96" viewBox="0 0 96 96" fill="none" xmlns="http://www.w3.org/2000/svg">
<path fill-rule="evenodd" clip-rule="evenodd" d="M45.8186 23.3423C46.6431 23.2618 47.3767 23.865 47.4571 24.6895C48.0608 30.8767 46.2941 46.2272 34.7072 59.5697C34.164 60.1952 33.2166 60.2619 32.5911 59.7187C31.9656 59.1755 31.8989 58.2281 32.4421 57.6026C43.4128 44.9697 45.007 30.4713 44.4713 24.9808C44.3909 24.1563 44.9941 23.4227 45.8186 23.3423Z" fill="#B04B12"/>
<path fill-rule="evenodd" clip-rule="evenodd" d="M45.7813 23.3464C46.6036 23.2454 47.352 23.8301 47.453 24.6523C49.7931 43.7072 59.8412 54.7405 64.321 57.771C65.0071 58.2351 65.1871 59.1677 64.7229 59.8538C64.2588 60.54 63.3262 60.72 62.64 60.2558C57.436 56.7354 46.9202 44.9263 44.4754 25.018C44.3744 24.1958 44.9591 23.4473 45.7813 23.3464Z" fill="#80350B"/>
<path fill-rule="evenodd" clip-rule="evenodd" d="M55.5083 17.1026C56.5562 17.4519 57.1225 18.5846 56.7732 19.6324C55.9354 22.1459 53.7738 23.8395 51.8305 24.9131C49.8335 26.0163 47.683 26.6782 46.2681 26.9612C45.185 27.1778 44.1313 26.4753 43.9147 25.3922C43.6981 24.3091 44.4005 23.2555 45.4836 23.0388C46.5687 22.8218 48.3182 22.2836 49.8962 21.4119C51.5279 20.5105 52.6163 19.454 52.9785 18.3675C53.3278 17.3197 54.4604 16.7533 55.5083 17.1026Z" fill="#632909"/>
<path d="M41.7657 66.4917C41.3714 71.665 36.7869 75.5337 31.5259 75.1327C26.2649 74.7317 22.3196 70.2129 22.714 65.0396C23.1083 59.8663 26.881 55.2627 32.9028 57.0676C38.7884 56.1703 42.16 61.3184 41.7657 66.4917Z" fill="#EE073E"/>
<path fill-rule="evenodd" clip-rule="evenodd" d="M43.76 66.6437C43.2793 72.9498 37.7045 77.6095 31.3739 77.1269C25.0433 76.6444 20.2391 71.1937 20.7197 64.8876C20.9472 61.9029 22.155 58.9364 24.3595 56.9507C26.5558 54.9725 29.5772 54.1252 33.0478 55.0314C36.498 54.6456 39.3364 55.9725 41.2209 58.2171C43.1305 60.4915 43.9913 63.6081 43.76 66.6437ZM31.5259 75.1327C36.7869 75.5337 41.3714 71.665 41.7657 66.4917C42.16 61.3184 38.7884 56.1703 32.9028 57.0676C26.881 55.2627 23.1083 59.8663 22.714 65.0396C22.3196 70.2129 26.2649 74.7317 31.5259 75.1327Z" fill="#890C2A"/>
<path fill-rule="evenodd" clip-rule="evenodd" d="M28.526 73.1327C33.787 73.5337 38.3715 69.6649 38.7658 64.4916C38.9692 61.8227 38.1703 59.1605 36.541 57.3317C40.137 58.5333 42.0696 62.505 41.7657 66.4916C41.3714 71.6649 36.7869 75.5337 31.5259 75.1327C29.1568 74.9521 27.0545 73.9365 25.4951 72.4021C26.4335 72.7975 27.4523 73.0508 28.526 73.1327Z" fill="#C60B38"/>
<path d="M72.8977 63.4476C73.9902 68.5471 70.6717 73.5818 65.4857 74.6928C60.2997 75.8038 55.21 72.5704 54.1175 67.4709C53.025 62.3713 55.3517 56.8593 61.6708 56.8852C67.0893 54.3447 71.8052 58.348 72.8977 63.4476Z" fill="#EE073E"/>
<path fill-rule="evenodd" clip-rule="evenodd" d="M74.8533 63.0286C76.1838 69.2391 72.1396 75.3127 65.9047 76.6484C59.6697 77.9841 53.4923 74.1003 52.1618 67.8898C51.532 64.9497 51.8518 61.7489 53.4102 59.2098C54.9628 56.6802 57.6318 55.0049 61.2332 54.8912C64.4469 53.5376 67.558 54.0083 70.0114 55.6342C72.4971 57.2816 74.2128 60.0386 74.8533 63.0286ZM65.4857 74.6928C70.6717 73.5818 73.9902 68.5471 72.8977 63.4475C71.8052 58.348 67.0893 54.3447 61.6708 56.8851C55.3517 56.8593 53.025 62.3713 54.1175 67.4708C55.21 72.5704 60.2997 75.8038 65.4857 74.6928Z" fill="#890C2A"/>
<path fill-rule="evenodd" clip-rule="evenodd" d="M62.4857 72.6928C67.6717 71.5818 70.9902 66.5472 69.8977 61.4476C69.4931 59.559 68.5916 57.8208 67.3414 56.5096C70.1293 57.518 72.217 60.2699 72.8977 63.4476C73.9902 68.5472 70.6717 73.5818 65.4857 74.6928C62.1755 75.402 58.9045 74.3411 56.6872 72.1548C58.4506 72.8981 60.4608 73.1266 62.4857 72.6928Z" fill="#C60B38"/>
<path d="M69.3876 70.2962C69.607 71.095 69.1372 71.9205 68.3384 72.1399C67.5395 72.3592 66.7141 71.8895 66.4947 71.0906C66.2753 70.2918 66.7451 69.4663 67.5439 69.247C68.3428 69.0276 69.1682 69.4973 69.3876 70.2962Z" fill="#9C082C"/>
<path d="M71.3537 66.1268C71.4999 66.6593 71.1868 67.2096 70.6542 67.3559C70.1216 67.5021 69.5713 67.1889 69.4251 66.6564C69.2788 66.1238 69.592 65.5735 70.1246 65.4273C70.6571 65.281 71.2074 65.5942 71.3537 66.1268Z" fill="#9C082C"/>
<path d="M71.656 63.4512C71.7291 63.7175 71.5725 63.9926 71.3062 64.0657C71.0399 64.1388 70.7648 63.9823 70.6917 63.716C70.6185 63.4497 70.7751 63.1745 71.0414 63.1014C71.3077 63.0283 71.5828 63.1849 71.656 63.4512Z" fill="#9C082C"/>
<path d="M71.0514 68.8023C71.1245 69.0686 70.9679 69.3437 70.7017 69.4169C70.4354 69.49 70.1602 69.3334 70.0871 69.0671C70.014 68.8008 70.1706 68.5257 70.4368 68.4526C70.7031 68.3794 70.9783 68.536 71.0514 68.8023Z" fill="#9C082C"/>
<path d="M66.06 73.2841C66.1331 73.5503 65.9766 73.8255 65.7103 73.8986C65.444 73.9717 65.1688 73.8151 65.0957 73.5489C65.0226 73.2826 65.1792 73.0074 65.4455 72.9343C65.7117 72.8612 65.9869 73.0178 66.06 73.2841Z" fill="#9C082C"/>
<path d="M32.8759 62C32.8759 64.2091 31.085 66 28.8759 66C26.6667 66 24.8759 64.2091 24.8759 62C24.8759 59.7909 26.6667 58 28.8759 58C31.085 58 32.8759 59.7909 32.8759 62Z" fill="#FF5E84"/>
<path fill-rule="evenodd" clip-rule="evenodd" d="M29.8245 59.1837C29.9992 59.7077 29.716 60.274 29.1921 60.4486C28.606 60.644 28.2363 60.9287 28.0205 61.1446C27.9113 61.2538 27.8397 61.3472 27.7996 61.4051C27.7796 61.434 27.7677 61.4537 27.763 61.4617C27.7626 61.4624 27.7622 61.4631 27.7619 61.4636C27.7619 61.4636 27.7619 61.4636 27.7619 61.4636C27.5099 61.9456 26.9171 62.1386 26.4286 61.8944C25.9347 61.6474 25.7344 61.0467 25.9814 60.5528L26.8759 61C25.9814 60.5528 25.9816 60.5523 25.9819 60.5519L25.9823 60.551L25.9833 60.5491L25.9853 60.545L25.9901 60.5357L26.0023 60.5128C26.0116 60.4956 26.0233 60.4746 26.0376 60.4503C26.0661 60.4017 26.1049 60.3394 26.1552 60.2667C26.2557 60.1215 26.403 59.9337 26.6062 59.7304C27.0154 59.3212 27.6457 58.8559 28.5596 58.5513C29.0836 58.3766 29.6499 58.6598 29.8245 59.1837Z" fill="white"/>
<path d="M64.8759 62C64.8759 64.2091 63.085 66 60.8759 66C58.6667 66 56.8759 64.2091 56.8759 62C56.8759 59.7909 58.6667 58 60.8759 58C63.085 58 64.8759 59.7909 64.8759 62Z" fill="#FF5E84"/>
<path fill-rule="evenodd" clip-rule="evenodd" d="M58.884 59.8754C59.0791 59.7193 59.4228 59.5 59.8759 59.5C60.4282 59.5 60.8759 59.9477 60.8759 60.5C60.8759 60.9783 60.54 61.3782 60.0913 61.4767C60.0644 61.5048 60.0294 61.5453 59.9884 61.6C59.9246 61.685 59.8677 61.7754 59.8256 61.8476C59.8051 61.8827 59.7895 61.9111 59.7798 61.9293L59.77 61.9478C59.5229 62.4415 58.9225 62.6414 58.4286 62.3944C57.9347 62.1474 57.7344 61.5468 57.9814 61.0528L58.8756 61.4999C57.9814 61.0528 57.9813 61.053 57.9814 61.0528L57.9822 61.0512L57.9832 61.0492L57.9858 61.0442L57.9932 61.0297C57.9991 61.0183 58.007 61.0031 58.0168 60.9848C58.0364 60.9483 58.0638 60.8985 58.098 60.8399C58.1652 60.7246 58.2646 60.565 58.3884 60.4C58.5078 60.2408 58.675 60.0426 58.884 59.8754ZM59.7688 61.9501C59.7689 61.95 59.7693 61.9492 59.77 61.9478L59.7688 61.9501Z" fill="white"/>
<path d="M36.8759 71.5C36.8759 72.3284 36.2043 73 35.3759 73C34.5474 73 33.8759 72.3284 33.8759 71.5C33.8759 70.6716 34.5474 70 35.3759 70C36.2043 70 36.8759 70.6716 36.8759 71.5Z" fill="#9C082C"/>
<path d="M39.8759 68C39.8759 68.5523 39.4281 69 38.8759 69C38.3236 69 37.8759 68.5523 37.8759 68C37.8759 67.4477 38.3236 67 38.8759 67C39.4281 67 39.8759 67.4477 39.8759 68Z" fill="#9C082C"/>
<path d="M40.8759 65.5C40.8759 65.7761 40.652 66 40.3759 66C40.0997 66 39.8759 65.7761 39.8759 65.5C39.8759 65.2239 40.0997 65 40.3759 65C40.652 65 40.8759 65.2239 40.8759 65.5Z" fill="#9C082C"/>
<path d="M38.8759 70.5C38.8759 70.7761 38.652 71 38.3759 71C38.0997 71 37.8759 70.7761 37.8759 70.5C37.8759 70.2239 38.0997 70 38.3759 70C38.652 70 38.8759 70.2239 38.8759 70.5Z" fill="#9C082C"/>
<path d="M32.8759 73.5C32.8759 73.7761 32.652 74 32.3759 74C32.0997 74 31.8759 73.7761 31.8759 73.5C31.8759 73.2239 32.0997 73 32.3759 73C32.652 73 32.8759 73.2239 32.8759 73.5Z" fill="#9C082C"/>
</svg>
