<svg width="96" height="96" viewBox="0 0 96 96" fill="none" xmlns="http://www.w3.org/2000/svg">
<path d="M71.0192 50.9543C71.2159 59.3722 66.9483 71.9565 56.0575 77.089C53.3204 78.3789 51.7993 77.1272 48.4981 77.2864C45.5485 77.4286 44.6373 78.4688 41.828 77.463C30.1623 73.2862 24.9825 61.0518 24.7718 52.0348C24.4964 40.2463 34.1393 34.0188 47.6669 41.7115C59.9415 33.8609 70.7438 39.1658 71.0192 50.9543Z" fill="#FF542F"/>
<path fill-rule="evenodd" clip-rule="evenodd" d="M47.6097 39.4005C40.9177 35.8818 34.7803 35.4229 30.1365 37.785C25.2009 40.2956 22.622 45.6464 22.7723 52.0815C22.995 61.6094 28.4484 74.7969 41.1539 79.3459C42.9094 79.9745 44.184 79.9794 45.4274 79.7799C45.8544 79.7113 46.203 79.6391 46.5309 79.5712C47.1595 79.441 47.7119 79.3266 48.5944 79.284C49.6433 79.2334 50.3985 79.3416 51.2571 79.4646C51.5707 79.5096 51.8981 79.5565 52.2587 79.5983C53.621 79.7565 55.0938 79.754 56.9101 78.8981C68.7637 73.3119 73.2264 59.8015 73.0186 50.9076C72.8662 44.3825 69.7493 39.3102 64.6265 37.1282C59.8334 35.0866 53.7683 35.7808 47.6097 39.4005ZM56.0575 77.0889C66.9483 71.9565 71.2159 59.3722 71.0192 50.9543C70.7438 39.1658 59.9415 33.8608 47.6669 41.7114C34.1393 34.0187 24.4964 40.2463 24.7718 52.0348C24.9825 61.0518 30.1623 73.2862 41.828 77.4629C43.652 78.116 44.6758 77.9065 45.9769 77.6403C46.6798 77.4966 47.4635 77.3362 48.4981 77.2863C49.7534 77.2258 50.7513 77.3693 51.6566 77.4995C53.1319 77.7116 54.3612 77.8883 56.0575 77.0889Z" fill="#734125"/>
<path fill-rule="evenodd" clip-rule="evenodd" d="M51.6094 71.7512C62.5002 66.6188 65.8781 54.0344 65.6815 45.6165C65.6239 43.1514 65.1059 40.9697 64.2105 39.1326C68.2705 41.0359 70.8854 45.231 71.0192 50.9542C71.2158 59.3721 66.9482 71.9565 56.0575 77.0889C54.3612 77.8883 53.1319 77.7115 51.6566 77.4994C50.7513 77.3693 49.7534 77.2258 48.4981 77.2863C47.4635 77.3362 46.6797 77.4965 45.9769 77.6403C44.6758 77.9065 43.6519 78.116 41.828 77.4629C37.5612 75.9352 34.1621 73.3296 31.5564 70.1978C32.793 70.952 34.139 71.6019 35.6007 72.1252C37.482 72.7988 38.911 72.5548 40.5357 72.2774C41.337 72.1405 42.186 71.9956 43.1604 71.9486C44.3837 71.8896 45.4847 72.0244 46.5253 72.1517C48.293 72.3681 49.8866 72.5631 51.6094 71.7512Z" fill="#ED4A27"/>
<path d="M64.3816 48.7412C64.2459 49.7145 63.3469 50.3934 62.3736 50.2576C61.4004 50.1218 60.7215 49.2228 60.8573 48.2496C60.9931 47.2764 61.8921 46.5975 62.8653 46.7333C63.8385 46.869 64.5174 47.768 64.3816 48.7412Z" fill="#C53622"/>
<path d="M69.1973 53.8924C69.0615 54.8656 68.1625 55.5445 67.1893 55.4087C66.216 55.2729 65.5372 54.3739 65.6729 53.4007C65.8087 52.4275 66.7077 51.7486 67.6809 51.8844C68.6541 52.0201 69.333 52.9191 69.1973 53.8924Z" fill="#C53622"/>
<path d="M69.0943 47.1531C68.9925 47.883 68.3182 48.3922 67.5883 48.2904C66.8584 48.1886 66.3492 47.5143 66.4511 46.7844C66.5529 46.0545 67.2271 45.5453 67.9571 45.6471C68.687 45.749 69.1961 46.4232 69.0943 47.1531Z" fill="#C53622"/>
<path d="M67.4475 60.0808C67.3117 61.054 66.4127 61.7329 65.4395 61.5971C64.4663 61.4614 63.7874 60.5623 63.9232 59.5891C64.0589 58.6159 64.9579 57.937 65.9312 58.0728C66.9044 58.2086 67.5833 59.1076 67.4475 60.0808Z" fill="#C53622"/>
<path d="M62.6319 54.9296C62.4961 55.9028 61.5971 56.5817 60.6239 56.4459C59.6506 56.3102 58.9718 55.4112 59.1075 54.4379C59.2433 53.4647 60.1423 52.7858 61.1155 52.9216C62.0887 53.0574 62.7676 53.9564 62.6319 54.9296Z" fill="#C53622"/>
<path d="M64.5111 66.8261C64.3753 67.7993 63.4763 68.4782 62.5031 68.3424C61.5299 68.2067 60.851 67.3076 60.9868 66.3344C61.1225 65.3612 62.0215 64.6823 62.9948 64.8181C63.968 64.9539 64.6469 65.8529 64.5111 66.8261Z" fill="#C53622"/>
<path d="M60.9361 61.4326C60.8003 62.4058 59.9013 63.0847 58.9281 62.9489C57.9548 62.8132 57.276 61.9142 57.4117 60.9409C57.5475 59.9677 58.4465 59.2888 59.4197 59.4246C60.3929 59.5604 61.0718 60.4594 60.9361 61.4326Z" fill="#C53622"/>
<path d="M60.9838 70.7752C60.882 71.5051 60.2077 72.0143 59.4778 71.9125C58.7479 71.8106 58.2387 71.1364 58.3406 70.4065C58.4424 69.6766 59.1166 69.1674 59.8466 69.2692C60.5765 69.371 61.0856 70.0453 60.9838 70.7752Z" fill="#C53622"/>
<path d="M57.648 23.4989C57.648 23.4989 59.6246 31.6491 57.5433 36.0864C55.0347 41.4345 47.4591 41.7722 47.4591 41.7722C47.4591 41.7722 45.1654 35.5203 48.1965 30.0841C50.5281 25.9024 57.648 23.4989 57.648 23.4989Z" fill="#7CD623"/>
<path fill-rule="evenodd" clip-rule="evenodd" d="M59.5916 23.0276L57.648 23.4989L57.0083 21.604C57.5397 21.4246 58.122 21.4766 58.6132 21.7473C59.1045 22.018 59.4594 22.4825 59.5916 23.0276ZM55.7682 24.2535C56.8811 23.7578 57.648 23.4989 57.648 23.4989C57.648 23.4989 57.8368 24.2775 58.0363 25.4843C58.4822 28.1823 58.9813 33.0206 57.5433 36.0864C55.0347 41.4345 47.4591 41.7722 47.4591 41.7722C47.4591 41.7722 45.1654 35.5203 48.1965 30.0841C49.7629 27.2749 53.4903 25.2681 55.7682 24.2535ZM47.4591 41.7722C45.5815 42.4611 45.5812 42.4604 45.581 42.4597L45.5791 42.4547L45.576 42.446L45.5673 42.4217C45.5605 42.4024 45.5516 42.3771 45.541 42.3459C45.5197 42.2835 45.4913 42.1977 45.4577 42.0901C45.3904 41.875 45.3018 41.572 45.2077 41.1952C45.02 40.444 44.8068 39.3867 44.6986 38.1396C44.4842 35.6683 44.6704 32.3011 46.4497 29.1101C47.907 26.4965 50.7059 24.6246 52.843 23.4654C53.9553 22.862 54.9845 22.4014 55.7357 22.0912C56.1126 21.9356 56.4226 21.8166 56.6421 21.7352C56.7519 21.6945 56.8392 21.6631 56.9012 21.6412C56.9322 21.6302 56.9569 21.6216 56.9748 21.6154L56.9967 21.6079L57.0064 21.6046L57.0083 21.604C57.0087 21.6038 57.0083 21.604 57.648 23.4989C59.5916 23.0276 59.5915 23.0271 59.5916 23.0276L59.5927 23.0318L59.5944 23.0391L59.6 23.0625L59.6188 23.1435C59.6347 23.2125 59.6568 23.3109 59.6838 23.4358C59.7377 23.6853 59.811 24.0416 59.8915 24.4811C60.0522 25.3576 60.2442 26.5773 60.368 27.9489C60.6055 30.5796 60.6385 34.1973 59.354 36.9357C57.7653 40.3227 54.6378 41.9984 52.2061 42.8278C50.9638 43.2515 49.819 43.4846 48.9859 43.6127C48.5672 43.677 48.2214 43.7158 47.9743 43.7387C47.8506 43.7502 47.7512 43.7577 47.6792 43.7626C47.6432 43.765 47.614 43.7668 47.592 43.768L47.5645 43.7694L47.5549 43.7699L47.5512 43.7701L47.5496 43.7702C47.5488 43.7702 47.5481 43.7702 47.4591 41.7722ZM45.5815 42.4611L47.4591 41.7722L47.5481 43.7702C46.6773 43.809 45.8817 43.2794 45.5815 42.4611Z" fill="#156319"/>
<path d="M56.2034 36.1167C58.0714 32.7666 56.9722 25.9531 56.9722 25.9531C51.4198 31.7215 50.0221 38.1307 49.7049 40.445C49.7049 40.445 54.3354 39.4668 56.2034 36.1167Z" fill="#6FC21C"/>
<path d="M37.0228 32.9156C38.9455 33.375 45.32 38.799 47.1071 42.1763C47.2562 42.458 48.0252 42.017 47.8987 41.7703C46.8797 38.5534 43.6291 30.9604 41.0152 28.672C37.5721 28.5995 36.9146 32.192 37.0228 32.9156Z" fill="#943D31"/>
<path fill-rule="evenodd" clip-rule="evenodd" d="M36.558 34.8608C35.7644 34.6712 35.1656 34.0185 35.0449 33.2115C34.9643 32.6727 35.0434 32.0312 35.1673 31.4904C35.3048 30.8902 35.5521 30.1743 35.9673 29.4746C36.8367 28.0094 38.4711 26.618 41.0573 26.6724C41.5274 26.6823 41.9789 26.8575 42.3326 27.1672C43.2017 27.928 44.0165 29.0223 44.7386 30.1596C45.4785 31.3248 46.1973 32.6582 46.8512 33.9932C48.1313 36.607 49.222 39.3499 49.7758 41.0737C50.1866 42.1269 49.5989 42.9893 49.4183 43.2177C49.1487 43.5588 48.8221 43.7871 48.5603 43.9292C48.3036 44.0686 47.9095 44.2335 47.4338 44.2626C46.9775 44.2906 45.9062 44.1829 45.3393 43.1117C44.6213 41.7547 42.8092 39.7506 40.7843 37.944C39.8015 37.0672 38.8309 36.2924 38.013 35.721C37.6033 35.4348 37.2522 35.2138 36.9715 35.0595C36.7177 34.92 36.5881 34.8723 36.5614 34.8625C36.5557 34.8604 36.5547 34.86 36.558 34.8608ZM47.8987 41.7703C47.8975 41.7666 47.8964 41.7629 47.8952 41.7593C47.7597 41.3324 47.5852 40.8291 47.3784 40.2718C47.1157 39.5641 46.8009 38.7693 46.4474 37.9334C44.9778 34.4577 42.8412 30.2705 41.0152 28.672C37.5721 28.5995 36.9146 32.192 37.0228 32.9156C38.409 33.2468 42.1089 36.1583 44.7357 39.023C45.2915 39.6292 45.7994 40.2334 46.227 40.8105C46.5452 41.24 46.819 41.6545 47.0353 42.0438C47.06 42.0883 47.0839 42.1324 47.1071 42.1763C47.2562 42.458 48.0252 42.017 47.8987 41.7703ZM45.9746 42.3194C46.008 42.4369 46.0552 42.5584 46.1191 42.683C46.0682 42.5838 46.0257 42.4805 45.9921 42.3742C45.9863 42.3561 45.9805 42.3378 45.9746 42.3194Z" fill="#633526"/>
<path d="M41.6808 28.7387C42.309 29.4089 41.8714 30.8398 40.7033 31.9347C39.5353 33.0297 38.0791 33.374 37.4509 32.7039C36.8227 32.0337 37.2603 30.6028 38.4284 29.5079C39.5964 28.413 41.0526 28.0686 41.6808 28.7387Z" fill="#C26649"/>
<path d="M38.1792 41.7764C40.8241 43.0782 41.3854 47.3497 39.4328 51.3171C37.4802 55.2845 33.7531 57.4454 31.1082 56.1437C28.4632 54.842 27.902 50.5705 29.8546 46.603C31.8072 42.6356 35.5343 40.4747 38.1792 41.7764Z" fill="#FF896F"/>
<path fill-rule="evenodd" clip-rule="evenodd" d="M35.1171 44.9609C35.9653 45.6684 36.0794 46.9296 35.3718 47.7778C34.9111 48.3302 34.6096 48.9131 34.4417 49.5372C34.1548 50.6038 33.0575 51.2359 31.9908 50.9489C30.9242 50.662 30.2921 49.5647 30.5791 48.498C30.9045 47.2884 31.4867 46.1908 32.3002 45.2156C33.0077 44.3674 34.2689 44.2533 35.1171 44.9609Z" fill="white"/>
</svg>
