<svg width="96" height="96" viewBox="0 0 96 96" fill="none" xmlns="http://www.w3.org/2000/svg">
<path d="M60.5982 50.0009C64.2093 61.1667 59.2322 72.7747 49.4816 75.9282C39.731 79.0816 28.8992 72.5863 25.2881 61.4205C22.3821 52.435 25.239 45.1638 25.6815 37.9687C26.2529 28.6763 23.2595 20.8864 30.8832 18.4208C38.507 15.9552 40.9328 24.8581 46.5466 31.2208C51.7441 37.1117 58.1281 42.3632 60.5982 50.0009Z" fill="#ABC20D"/>
<path fill-rule="evenodd" clip-rule="evenodd" d="M62.5011 49.3855C66.3712 61.3519 61.1327 74.2621 50.097 77.8311C39.0614 81.4002 27.2551 74.0023 23.3851 62.036C21.8165 57.1857 21.8166 52.8169 22.2402 48.8128C22.4207 47.1066 22.6816 45.4412 22.9297 43.8579C22.9697 43.6025 23.0094 43.3491 23.0484 43.0981C23.3326 41.2668 23.5809 39.5437 23.6853 37.846C23.8212 35.6359 23.7462 33.5001 23.6648 31.419C23.6614 31.3325 23.658 31.2459 23.6546 31.1593C23.5779 29.2094 23.5008 27.2488 23.6442 25.4737C23.795 23.6074 24.2007 21.7326 25.2614 20.1129C26.3535 18.4452 28.0057 17.2494 30.2678 16.5178C32.5777 15.7708 34.6584 15.8486 36.5372 16.6441C38.3479 17.4107 39.7859 18.7671 41.005 20.2297C42.0889 21.5302 43.1122 23.0581 44.1069 24.5431C44.226 24.721 44.3447 24.8983 44.4631 25.0745C45.5984 26.7644 46.7386 28.4154 48.0463 29.8976C49.1892 31.193 50.3921 32.4582 51.6272 33.7573C51.7636 33.9007 51.9004 34.0446 52.0375 34.1889C53.4051 35.6286 54.802 37.1117 56.1188 38.6602C58.7532 41.7583 61.1516 45.2126 62.5011 49.3855ZM49.4816 75.9282C59.2322 72.7748 64.2093 61.1667 60.5982 50.001C58.6837 44.0813 54.4181 39.5951 50.1761 35.1335C48.9449 33.8387 47.7157 32.5459 46.5466 31.2208C44.9961 29.4635 43.6888 27.5124 42.448 25.6606C39.1963 20.8075 36.4014 16.6362 30.8832 18.4208C25.2283 20.2496 25.4149 25.0079 25.6552 31.1359C25.7389 33.2694 25.8291 35.5689 25.6815 37.9687C25.5555 40.0184 25.2335 42.0742 24.9046 44.1741C24.079 49.4456 23.2099 54.9947 25.2881 61.4205C28.8992 72.5863 39.731 79.0816 49.4816 75.9282Z" fill="#73830A"/>
<path fill-rule="evenodd" clip-rule="evenodd" d="M38.248 20.192C36.9031 19.6693 35.3753 19.6076 33.5492 20.1982C27.8943 22.027 28.0809 26.7853 28.3212 32.9132C28.4049 35.0468 28.4951 37.3463 28.3475 39.7461C28.2215 41.7957 27.8995 43.8516 27.5706 45.9514C26.745 51.223 25.8759 56.7721 27.9541 63.1979C29.4569 67.8449 32.2105 71.6829 35.6162 74.3531C30.9987 71.7731 27.1665 67.2287 25.2881 61.4205C23.2099 54.9947 24.079 49.4456 24.9046 44.1741C25.2335 42.0742 25.5554 40.0184 25.6815 37.9687C25.8291 35.5689 25.7389 33.2694 25.6552 31.1358C25.4149 25.0079 25.2283 20.2496 30.8832 18.4208C34.0254 17.4045 36.2847 18.3196 38.248 20.192Z" fill="#D7F02B"/>
<path d="M71.8926 57.0068C71.8926 68.0498 63.1395 77.0018 52.3419 77.0018C41.5444 77.0018 32.7913 68.0498 32.7913 57.0068C32.7913 48.1202 38.0129 42.4372 40.7893 36.1231C44.3749 27.9686 43.8996 20.1271 52.3419 20.1271C60.7843 20.1271 60.3296 28.8008 63.8946 36.1231C67.1953 42.9027 71.8926 49.4532 71.8926 57.0068Z" fill="#F39716"/>
<path fill-rule="evenodd" clip-rule="evenodd" d="M73.8926 57.0068C73.8926 69.1117 64.2862 79.0018 52.3419 79.0018C40.3977 79.0018 30.7913 69.1117 30.7913 57.0068C30.7913 52.1424 32.2288 48.1854 33.9586 44.7093C34.6953 43.2286 35.4998 41.8079 36.2616 40.4625C36.3845 40.2455 36.5063 40.0304 36.6264 39.8174C37.5053 38.2598 38.3082 36.7968 38.9584 35.3181C39.8052 33.3925 40.4187 31.4709 41.0119 29.5838C41.0371 29.5036 41.0624 29.4233 41.0876 29.343C41.6414 27.5796 42.2045 25.787 42.9306 24.2244C43.7005 22.5677 44.7283 20.9955 46.3113 19.8564C47.9198 18.6989 49.9068 18.1271 52.3419 18.1271C54.8212 18.1271 56.8255 18.7741 58.4303 20.0143C59.9961 21.2243 61.0111 22.869 61.7712 24.5587C62.4424 26.0506 62.9775 27.7297 63.4925 29.3454C63.5543 29.5394 63.6159 29.7325 63.6773 29.9243C64.2672 31.7648 64.8703 33.5583 65.6928 35.2477C66.4167 36.7345 67.2104 38.2118 68.0277 39.7331C68.1179 39.901 68.2084 40.0694 68.299 40.2384C69.2032 41.9231 70.1254 43.6605 70.9464 45.4347C72.5877 48.9814 73.8926 52.8135 73.8926 57.0068ZM52.3419 77.0018C63.1395 77.0018 71.8926 68.0498 71.8926 57.0068C71.8926 51.1523 69.0709 45.9004 66.2646 40.6774C65.4502 39.1615 64.6371 37.6481 63.8946 36.1231C62.91 34.1008 62.232 31.9753 61.5885 29.958C59.9021 24.6713 58.4526 20.1271 52.3419 20.1271C46.0798 20.1271 44.7242 24.4415 42.9783 29.9977C42.3704 31.9322 41.7153 34.0172 40.7893 36.1231C39.9984 37.9218 39.009 39.6693 37.9985 41.4542C35.4617 45.935 32.7913 50.6517 32.7913 57.0068C32.7913 68.0498 41.5444 77.0018 52.3419 77.0018Z" fill="#AE6A0A"/>
<path fill-rule="evenodd" clip-rule="evenodd" d="M52.3419 76.0018C62.5661 76.0018 70.8926 67.5188 70.8926 57.0068C70.8926 53.4382 69.7836 50.0652 68.2238 46.6947C67.4442 45.0098 66.5604 43.3429 65.6556 41.657C65.565 41.4881 65.4741 41.319 65.3831 41.1496C64.5701 39.6364 63.7473 38.105 62.9955 36.5609C62.0699 34.6597 61.4114 32.6838 60.8205 30.8398C60.7586 30.6468 60.6975 30.4555 60.6371 30.2661C60.112 28.6206 59.6313 27.1143 59.0353 25.7895C58.375 24.3216 57.6134 23.1744 56.5959 22.3881C55.5978 21.6168 54.2682 21.1271 52.3419 21.1271C50.3936 21.1271 49.0573 21.5764 48.0635 22.2915C47.057 23.0158 46.3048 24.0822 45.6512 25.4886C45.0099 26.8687 44.4997 28.492 43.9214 30.3321C43.9056 30.3824 43.8898 30.4328 43.8738 30.4835C43.2831 32.3627 42.6259 34.4306 41.7047 36.5257C40.9886 38.1541 40.1197 39.7312 39.2392 41.2917C39.1152 41.5114 38.9911 41.7308 38.867 41.95C38.1032 43.2991 37.3425 44.6428 36.6444 46.0457C35.0306 49.2889 33.7913 52.774 33.7913 57.0068C33.7913 67.5188 42.1177 76.0018 52.3419 76.0018ZM52.3419 77.0018C63.1395 77.0018 71.8926 68.0498 71.8926 57.0068C71.8926 51.1523 69.0709 45.9004 66.2646 40.6774C65.4502 39.1615 64.6371 37.6481 63.8946 36.1231C62.91 34.1008 62.232 31.9753 61.5885 29.958C59.9021 24.6713 58.4526 20.1271 52.3419 20.1271C46.0798 20.1271 44.7242 24.4415 42.9783 29.9977C42.3704 31.9322 41.7153 34.0172 40.7893 36.1231C39.9984 37.9218 39.009 39.6693 37.9985 41.4542C35.4617 45.935 32.7913 50.6517 32.7913 57.0068C32.7913 68.0498 41.5444 77.0018 52.3419 77.0018Z" fill="#FBF5C5"/>
<path d="M67.0254 62.994C66.3789 63.7807 65.2171 63.8943 64.4304 63.2478C63.6437 62.6013 63.5301 61.4394 64.1766 60.6528C64.8231 59.8661 65.985 59.7524 66.7716 60.399C67.5583 61.0455 67.672 62.2073 67.0254 62.994Z" fill="#BE7611"/>
<path d="M63.4708 70.1033C62.8243 70.89 61.6624 71.0036 60.8757 70.3571C60.089 69.7106 59.9754 68.5488 60.6219 67.7621C61.2685 66.9754 62.4303 66.8618 63.217 67.5083C64.0037 68.1548 64.1173 69.3166 63.4708 70.1033Z" fill="#BE7611"/>
<path d="M66.7136 66.3126C66.2602 66.8643 65.4454 66.944 64.8936 66.4906C64.3419 66.0372 64.2622 65.2224 64.7156 64.6706C65.169 64.1189 65.9839 64.0392 66.5356 64.4926C67.0873 64.946 67.167 65.7609 66.7136 66.3126Z" fill="#BE7611"/>
<path d="M59.6043 73.422C59.1509 73.9737 58.336 74.0534 57.7843 73.6C57.2326 73.1466 57.1529 72.3317 57.6063 71.78C58.0597 71.2283 58.8746 71.1486 59.4263 71.602C59.978 72.0554 60.0577 72.8703 59.6043 73.422Z" fill="#BE7611"/>
<path d="M66.7136 57.4261C66.2602 57.9778 65.4454 58.0575 64.8936 57.6041C64.3419 57.1507 64.2622 56.3358 64.7156 55.7841C65.169 55.2324 65.9839 55.1527 66.5356 55.6061C67.0873 56.0595 67.167 56.8743 66.7136 57.4261Z" fill="#BE7611"/>
<path d="M69.5417 54.5945C69.2051 55.004 68.6003 55.0632 68.1908 54.7266C67.7813 54.3901 67.7221 53.7853 68.0587 53.3758C68.3952 52.9663 69 52.9071 69.4095 53.2436C69.8191 53.5802 69.8782 54.185 69.5417 54.5945Z" fill="#BE7611"/>
<path d="M68.653 50.5246C68.3164 50.9341 67.7116 50.9933 67.3021 50.6567C66.8926 50.3202 66.8335 49.7154 67.17 49.3059C67.5066 48.8964 68.1114 48.8372 68.5209 49.1738C68.9304 49.5103 68.9895 50.1151 68.653 50.5246Z" fill="#BE7611"/>
<path d="M69.7865 59.6407C69.4106 60.0981 68.735 60.1642 68.2775 59.7882C67.8201 59.4123 67.754 58.7367 68.13 58.2793C68.5059 57.8218 69.1815 57.7557 69.6389 58.1317C70.0964 58.5076 70.1624 59.1832 69.7865 59.6407Z" fill="#BE7611"/>
<path d="M55.3017 40.756C55.2806 38.3552 56.125 35.1202 56.125 32.8729C56.125 26.449 55.0376 22.9999 52 22.9999C48.9624 22.9999 47.875 26.449 47.875 32.8729C47.875 35.1202 48.7194 38.3552 48.6983 40.756C48.6422 47.1307 41 49.5691 41 56.5526C41 66.1885 45.9249 73.9999 52 73.9999C58.0751 73.9999 63 66.1885 63 56.5526C63 49.5691 55.3578 47.1307 55.3017 40.756Z" fill="#FCAC3D"/>
<path d="M54.1649 40.7382C54.1504 38.3118 54.7302 35.0424 54.7302 32.7712C54.7302 26.2789 53.9835 22.7932 51.8976 22.7932C49.8117 22.7932 49.065 26.2789 49.065 32.7712C49.065 35.0424 49.6449 38.3118 49.6303 40.7382C49.5918 47.1807 44.3439 49.6451 44.3439 56.7028C44.3439 66.4413 47.7258 74.3359 51.8976 74.3359C56.0694 74.3359 59.4513 66.4413 59.4513 56.7028C59.4513 49.6451 54.2034 47.1807 54.1649 40.7382Z" fill="#FBF5C5"/>
<path d="M53.0979 41.5874C53.0903 39.2864 53.3972 36.1862 53.3972 34.0324C53.3972 27.8759 53.0019 24.5705 51.8976 24.5705C50.7933 24.5705 50.398 27.8759 50.398 34.0324C50.398 36.1862 50.705 39.2864 50.6973 41.5874C50.6769 47.6966 47.8986 50.0335 47.8986 56.7262C47.8986 65.961 49.689 73.4472 51.8976 73.4472C54.1062 73.4472 55.8966 65.961 55.8966 56.7262C55.8966 50.0335 53.1183 47.6966 53.0979 41.5874Z" fill="#FC9256"/>
<path d="M53 49C53 49.5523 52.5523 50 52 50C51.4477 50 51 49.5523 51 49C51 48.4477 51.4477 48 52 48C52.5523 48 53 48.4477 53 49Z" fill="#653328"/>
<path d="M53.9688 53C53.9688 54.1046 53.0733 55 51.9688 55C50.8642 55 49.9688 54.1046 49.9688 53C49.9688 51.8954 50.8642 51 51.9688 51C53.0733 51 53.9688 51.8954 53.9688 53Z" fill="#653328"/>
<path d="M50.3125 50.6562C50.3125 51.0187 50.0187 51.3125 49.6562 51.3125C49.2938 51.3125 49 51.0187 49 50.6562C49 50.2938 49.2938 50 49.6562 50C50.0187 50 50.3125 50.2938 50.3125 50.6562Z" fill="#653328"/>
<path d="M54.6562 50.6562C54.6562 51.0187 54.3624 51.3125 54 51.3125C53.6376 51.3125 53.3438 51.0187 53.3438 50.6562C53.3438 50.2938 53.6376 50 54 50C54.3624 50 54.6562 50.2938 54.6562 50.6562Z" fill="#653328"/>
<path d="M54.6562 47.6562C54.6562 48.0187 54.3624 48.3125 54 48.3125C53.6376 48.3125 53.3438 48.0187 53.3438 47.6562C53.3438 47.2938 53.6376 47 54 47C54.3624 47 54.6562 47.2938 54.6562 47.6562Z" fill="#653328"/>
<path d="M50.6562 47.6562C50.6562 48.0187 50.3624 48.3125 50 48.3125C49.6376 48.3125 49.3438 48.0187 49.3438 47.6562C49.3438 47.2938 49.6376 47 50 47C50.3624 47 50.6562 47.2938 50.6562 47.6562Z" fill="#653328"/>
<path d="M56.3976 54.0005C56.3976 54.5528 55.9499 55.0005 55.3976 55.0005C54.8454 55.0005 54.3976 54.5528 54.3976 54.0005C54.3976 53.4482 54.8454 53.0005 55.3976 53.0005C55.9499 53.0005 56.3976 53.4482 56.3976 54.0005Z" fill="#653328"/>
<path d="M49.4801 54C49.4801 54.5523 49.0324 55 48.4801 55C47.9278 55 47.4801 54.5523 47.4801 54C47.4801 53.4477 47.9278 53 48.4801 53C49.0324 53 49.4801 53.4477 49.4801 54Z" fill="#653328"/>
<path d="M49.8125 62.085C49.8125 62.7753 49.2529 63.335 48.5625 63.335C47.8721 63.335 47.3125 62.7753 47.3125 62.085C47.3125 61.3946 47.8721 60.835 48.5625 60.835C49.2529 60.835 49.8125 61.3946 49.8125 62.085Z" fill="#653328"/>
<path d="M50.1919 58.0894C50.1919 58.9892 49.4624 59.7188 48.5625 59.7188C47.6626 59.7188 46.9331 58.9892 46.9331 58.0894C46.9331 57.1895 47.6626 56.46 48.5625 56.46C49.4624 56.46 50.1919 57.1895 50.1919 58.0894Z" fill="#653328"/>
<path d="M56.5 62.085C56.5 62.7753 55.9404 63.335 55.25 63.335C54.5596 63.335 54 62.7753 54 62.085C54 61.3946 54.5596 60.835 55.25 60.835C55.9404 60.835 56.5 61.3946 56.5 62.085Z" fill="#653328"/>
<path d="M57.375 57.9175C57.375 58.8495 56.6195 59.605 55.6875 59.605C54.7555 59.605 54 58.8495 54 57.9175C54 56.9855 54.7555 56.23 55.6875 56.23C56.6195 56.23 57.375 56.9855 57.375 57.9175Z" fill="#653328"/>
<path d="M49.5 66.0113C49.5 66.5181 49.0892 66.9289 48.5824 66.9289C48.0757 66.9289 47.6649 66.5181 47.6649 66.0113C47.6649 65.5046 48.0757 65.0938 48.5824 65.0938C49.0892 65.0938 49.5 65.5046 49.5 66.0113Z" fill="#653328"/>
<path d="M56.1676 66.1676C56.1676 66.6743 55.7568 67.0851 55.25 67.0851C54.7432 67.0851 54.3324 66.6743 54.3324 66.1676C54.3324 65.6608 54.7432 65.25 55.25 65.25C55.7568 65.25 56.1676 65.6608 56.1676 66.1676Z" fill="#653328"/>
<path d="M54.3976 70C54.3976 70.2761 54.1738 70.5 53.8976 70.5C53.6215 70.5 53.3976 70.2761 53.3976 70C53.3976 69.7239 53.6215 69.5 53.8976 69.5C54.1738 69.5 54.3976 69.7239 54.3976 70Z" fill="#653328"/>
<path d="M50.5 70C50.5 70.2761 50.2761 70.5 50 70.5C49.7239 70.5 49.5 70.2761 49.5 70C49.5 69.7239 49.7239 69.5 50 69.5C50.2761 69.5 50.5 69.7239 50.5 70Z" fill="#653328"/>
<path d="M54.587 56.9341C54.587 58.382 53.4133 59.5558 51.9654 59.5558C50.5175 59.5558 49.3438 58.382 49.3438 56.9341C49.3438 55.4862 50.5175 54.3125 51.9654 54.3125C53.4133 54.3125 54.587 55.4862 54.587 56.9341Z" fill="#653328"/>
<path d="M54.7808 61.8234C54.7808 63.3592 53.5358 64.6042 52 64.6042C50.4642 64.6042 49.2192 63.3592 49.2192 61.8234C49.2192 60.2876 50.4642 59.0426 52 59.0426C53.5358 59.0426 54.7808 60.2876 54.7808 61.8234Z" fill="#653328"/>
<path d="M53.5412 67.0852C53.5412 67.9363 52.8512 68.6264 52 68.6264C51.1488 68.6264 50.4588 67.9363 50.4588 67.0852C50.4588 66.234 51.1488 65.5439 52 65.5439C52.8512 65.5439 53.5412 66.234 53.5412 67.0852Z" fill="#653328"/>
<path d="M53 71C53 71.5523 52.5523 72 52 72C51.4477 72 51 71.5523 51 71C51 70.4477 51.4477 70 52 70C52.5523 70 53 70.4477 53 71Z" fill="#653328"/>
<path d="M53 46C53 46.5523 52.5523 47 52 47C51.4477 47 51 46.5523 51 46C51 45.4477 51.4477 45 52 45C52.5523 45 53 45.4477 53 46Z" fill="#653328"/>
<path d="M52.8281 43C52.8281 43.4574 52.4574 43.8281 52 43.8281C51.5426 43.8281 51.1719 43.4574 51.1719 43C51.1719 42.5426 51.5426 42.1719 52 42.1719C52.4574 42.1719 52.8281 42.5426 52.8281 43Z" fill="#653328"/>
<path d="M52.7656 40.0859C52.7656 40.5088 52.4089 40.8516 51.9688 40.8516C51.5286 40.8516 51.1719 40.5088 51.1719 40.0859C51.1719 39.6631 51.5286 39.3203 51.9688 39.3203C52.4089 39.3203 52.7656 39.6631 52.7656 40.0859Z" fill="#653328"/>
<path d="M53 37C53 37.5523 52.5523 38 52 38C51.4477 38 51 37.5523 51 37C51 36.4477 51.4477 36 52 36C52.5523 36 53 36.4477 53 37Z" fill="#653328"/>
<path d="M53 34C53 34.5523 52.5523 35 52 35C51.4477 35 51 34.5523 51 34C51 33.4477 51.4477 33 52 33C52.5523 33 53 33.4477 53 34Z" fill="#653328"/>
<path d="M53 31C53 31.5523 52.5523 32 52 32C51.4477 32 51 31.5523 51 31C51 30.4477 51.4477 30 52 30C52.5523 30 53 30.4477 53 31Z" fill="#653328"/>
<path d="M52.7812 28.2188C52.7812 28.6502 52.4315 29 52 29C51.5685 29 51.2188 28.6502 51.2188 28.2188C51.2188 27.7873 51.5685 27.4375 52 27.4375C52.4315 27.4375 52.7812 27.7873 52.7812 28.2188Z" fill="#653328"/>
<path d="M52.4531 25.9531C52.4531 26.2206 52.2363 26.4375 51.9688 26.4375C51.7012 26.4375 51.4844 26.2206 51.4844 25.9531C51.4844 25.6856 51.7012 25.4688 51.9688 25.4688C52.2363 25.4688 52.4531 25.6856 52.4531 25.9531Z" fill="#653328"/>
</svg>
