<svg width="96" height="96" viewBox="0 0 96 96" fill="none" xmlns="http://www.w3.org/2000/svg">
<path d="M48.4587 22.2401C48.4587 22.2401 50.7909 26.0566 50.8576 29.04C50.938 32.6357 48.117 34.9898 48.117 34.9898C48.117 34.9898 46.0317 32.2852 46.1334 28.4922C46.2116 25.5745 48.4587 22.2401 48.4587 22.2401Z" fill="#519B07"/>
<path fill-rule="evenodd" clip-rule="evenodd" d="M50.1653 21.1973L48.4587 22.2401L46.8002 21.1224C47.1807 20.5578 47.8224 20.2255 48.5032 20.2406C49.1839 20.2558 49.8102 20.6162 50.1653 21.1973ZM47.3113 24.3016C47.8876 23.0875 48.4587 22.2401 48.4587 22.2401C48.4587 22.2401 48.9846 23.1008 49.5441 24.3242C50.1628 25.677 50.8226 27.4734 50.8576 29.04C50.8986 30.8743 50.1845 32.3855 49.4751 33.4259C48.7939 34.4249 48.1169 34.9898 48.1169 34.9898C48.1169 34.9898 47.605 34.3258 47.1008 33.1943C46.5874 32.0423 46.0821 30.4058 46.1333 28.4923C46.1721 27.0454 46.7443 25.496 47.3113 24.3016ZM48.1169 34.9898C46.533 36.211 46.5326 36.2105 46.5322 36.2099L46.5313 36.2087L46.5293 36.2062L46.5248 36.2003L46.5135 36.1854C46.505 36.1741 46.4946 36.1601 46.4823 36.1434C46.4578 36.11 46.4259 36.0659 46.3878 36.0113C46.3117 35.9024 46.2104 35.7514 46.0928 35.5617C45.8582 35.1832 45.5552 34.6447 45.2578 33.9722C44.6666 32.635 44.0731 30.7118 44.1341 28.4387C44.1845 26.5567 44.9109 24.6885 45.5202 23.4111C45.837 22.7468 46.15 22.1856 46.385 21.7885C46.5029 21.5891 46.6023 21.4291 46.6743 21.316C46.7103 21.2594 46.7395 21.2143 46.7608 21.1818L46.7868 21.1424L46.7951 21.13L46.798 21.1256L46.8002 21.1224C46.8004 21.1221 46.8002 21.1224 48.4587 22.2401C50.1653 21.1973 50.1651 21.197 50.1653 21.1973L50.1671 21.2002L50.1697 21.2046L50.1775 21.2175L50.2028 21.2596C50.2238 21.2949 50.253 21.3442 50.2891 21.4066C50.3614 21.5312 50.462 21.7082 50.5816 21.9284C50.82 22.3673 51.1382 22.9853 51.4599 23.7072C52.0765 25.0907 52.8145 27.091 52.8571 28.9953C52.9094 31.3368 52.0167 33.2257 51.1791 34.4763C50.7563 35.1075 50.3308 35.6022 50.006 35.9438C49.8428 36.1155 49.7028 36.2509 49.598 36.3481C49.5455 36.3968 49.5017 36.436 49.468 36.4656C49.4511 36.4804 49.4368 36.4928 49.4251 36.5028L49.4097 36.5159L49.4035 36.5211L49.4008 36.5234L49.3995 36.5244C49.3989 36.5249 49.3983 36.5254 48.1169 34.9898ZM46.533 36.211L48.1169 34.9898L49.3983 36.5254C48.9808 36.8739 48.4394 37.0372 47.8988 36.9779C47.3582 36.9186 46.8651 36.6417 46.533 36.211Z" fill="#156319"/>
<path d="M36.5889 28.1293C36.5889 28.1293 41.0608 28.2157 43.6118 29.7639C46.6865 31.63 47.1539 35.2744 47.1539 35.2744C47.1539 35.2744 43.7523 35.5778 40.6093 33.4522C38.1915 31.8171 36.5889 28.1293 36.5889 28.1293Z" fill="#70CA16"/>
<path fill-rule="evenodd" clip-rule="evenodd" d="M36.6275 26.1297L36.5889 28.1293L34.7546 28.9265C34.4832 28.302 34.5482 27.5823 34.9271 27.0165C35.306 26.4507 35.9467 26.1166 36.6275 26.1297ZM37.7098 30.2054C36.9962 29.0665 36.5889 28.1293 36.5889 28.1293C36.5889 28.1293 37.5974 28.1488 38.9297 28.3351C40.4029 28.541 42.2722 28.9509 43.6118 29.764C45.1803 30.7159 46.0703 32.1306 46.5659 33.2883C47.0418 34.3999 47.1539 35.2744 47.1539 35.2744C47.1539 35.2744 46.3188 35.3489 45.0937 35.1655C43.8464 34.9787 42.1949 34.5246 40.6093 33.4522C39.4103 32.6414 38.4118 31.3257 37.7098 30.2054ZM47.1539 35.2744C47.3316 37.2665 47.3309 37.2665 47.3302 37.2666L47.3287 37.2667L47.3255 37.267L47.3181 37.2677L47.2995 37.2692C47.2854 37.2703 47.268 37.2715 47.2473 37.2729C47.206 37.2756 47.1516 37.2788 47.0852 37.2815C46.9524 37.2871 46.7706 37.2913 46.5474 37.2884C46.1021 37.2827 45.4852 37.2485 44.7583 37.1375C43.313 36.9168 41.3725 36.3828 39.4888 35.1089C37.9293 34.0542 36.745 32.4371 35.9957 31.2364C35.6061 30.6121 35.3013 30.0463 35.0929 29.6347C34.9882 29.4281 34.9068 29.2582 34.8501 29.1367C34.8217 29.0759 34.7995 29.027 34.7835 28.9916L34.7643 28.9485L34.7583 28.9348L34.7562 28.9299L34.7546 28.9265C34.7545 28.9261 34.7546 28.9265 36.5889 28.1293C36.6275 26.1297 36.6272 26.1297 36.6275 26.1297L36.631 26.1298L36.6361 26.1299L36.6511 26.1302L36.7003 26.1316C36.7413 26.1328 36.7986 26.1348 36.8706 26.1379C37.0145 26.144 37.2179 26.1544 37.4678 26.172C37.966 26.207 38.6583 26.2711 39.4399 26.3881C40.9379 26.6124 43.0211 27.0659 44.6495 28.0542C46.6517 29.2694 47.764 31.0378 48.3679 32.4166C48.6727 33.1125 48.8608 33.7373 48.9742 34.1949C49.0311 34.4248 49.07 34.6157 49.0956 34.7563C49.1084 34.8267 49.1179 34.8847 49.1247 34.929C49.1281 34.9512 49.1309 34.97 49.133 34.9852L49.1358 35.0053L49.1368 35.0133L49.1373 35.0168L49.1375 35.0184C49.1376 35.0192 49.1377 35.0199 47.1539 35.2744ZM47.3316 37.2665L47.1539 35.2744L49.1377 35.0199C49.2069 35.5593 49.0534 36.1037 48.7127 36.5275C48.3719 36.9514 47.8733 37.2182 47.3316 37.2665Z" fill="#156319"/>
<path d="M60.4539 26.8886C60.4539 26.8886 59.3031 32.6918 56.6554 34.9153C53.4641 37.5952 48.5146 35.5656 48.5146 35.5656C48.5146 35.5656 48.8996 30.8836 52.4514 28.3022C55.1837 26.3165 60.4539 26.8886 60.4539 26.8886Z" fill="#6DBB20"/>
<path fill-rule="evenodd" clip-rule="evenodd" d="M62.4156 27.2775L60.4538 26.8885L60.6697 24.9002C61.2273 24.9607 61.7338 25.2526 62.0658 25.7046C62.3978 26.1567 62.5247 26.7274 62.4156 27.2775ZM58.4227 26.8143C59.61 26.7969 60.4538 26.8885 60.4538 26.8885C60.4538 26.8885 60.291 27.7098 59.9468 28.8529C59.3762 30.7483 58.307 33.5282 56.6553 34.9153C53.4641 37.5952 48.5145 35.5656 48.5145 35.5656C48.5145 35.5656 48.8995 30.8835 52.4514 28.3022C54.0904 27.111 56.6426 26.8403 58.4227 26.8143ZM48.5145 35.5656C46.5213 35.4017 46.5213 35.401 46.5214 35.4003L46.5215 35.3987L46.5218 35.3953L46.5225 35.3871L46.5245 35.3656C46.526 35.349 46.5281 35.3279 46.5308 35.3024C46.5362 35.2515 46.544 35.1831 46.555 35.0991C46.5771 34.9313 46.612 34.6997 46.6657 34.4183C46.7728 33.8578 46.9572 33.0868 47.2703 32.2215C47.8887 30.5123 49.0617 28.2933 51.2756 26.6843C53.1259 25.3396 55.617 24.9647 57.3507 24.8547C58.2671 24.7966 59.0839 24.8072 59.6718 24.8319C59.9671 24.8444 60.208 24.8605 60.379 24.874C60.4646 24.8807 60.5328 24.8868 60.5819 24.8914L60.6408 24.8972L60.6591 24.8991L60.6654 24.8997L60.6697 24.9002C60.6701 24.9003 60.6697 24.9002 60.4538 26.8885C62.4157 27.2775 62.4157 27.2771 62.4156 27.2775L62.4149 27.2814L62.4137 27.2874L62.41 27.3057L62.3973 27.3668C62.3865 27.4181 62.3709 27.4901 62.3506 27.5807C62.3099 27.7618 62.2497 28.0176 62.1693 28.3294C62.0091 28.9506 61.7654 29.8062 61.4306 30.742C60.7989 32.5071 59.7051 34.9658 57.9415 36.4468C55.7429 38.2932 53.0506 38.4316 51.1787 38.2344C50.215 38.1329 49.3781 37.9342 48.7829 37.7623C48.4832 37.6758 48.2391 37.5944 48.0643 37.5323C47.9768 37.5012 47.9062 37.4749 47.8543 37.455C47.8284 37.445 47.807 37.4366 47.7906 37.4301L47.7695 37.4217L47.7617 37.4185L47.7571 37.4166C47.7564 37.4163 47.7557 37.4161 48.5145 35.5656ZM46.5213 35.4017L48.5145 35.5656L47.7557 37.4161C46.9493 37.0854 46.4498 36.2704 46.5213 35.4017Z" fill="#156319"/>
<path d="M55.7886 34.5375C57.9775 32.9467 59.2937 28.2592 59.2937 28.2592C54.0293 30.3059 51.2347 33.9943 50.3456 35.3818C50.3456 35.3818 53.5997 36.1283 55.7886 34.5375Z" fill="#56A409"/>
<path d="M68.1105 45.2535C68.5671 54.0792 63.9137 63.4523 59.5054 67.9457C55.3117 72.2203 50.7526 74.8061 46.786 74.6353C42.8195 74.4646 39.322 71.0864 36.7495 68.7481C30.5351 63.0992 26.264 53.5947 26.9375 44.4438C29.0382 30.5473 47.6953 36.139 47.6953 36.139C47.6953 36.139 66.4306 31.266 68.1105 45.2535Z" fill="#FF2F2F"/>
<path fill-rule="evenodd" clip-rule="evenodd" d="M70.1043 45.0823L70.1079 45.1501C70.3552 49.9325 69.2197 54.7822 67.4805 58.9884C65.7438 63.1885 63.3482 66.8844 60.9331 69.3463C56.6116 73.7512 51.528 76.8413 46.7 76.6335C44.183 76.5251 41.9492 75.4105 40.1152 74.1548C38.4726 73.0303 36.9886 71.6747 35.8029 70.5916C35.666 70.4665 35.533 70.3451 35.4043 70.228C28.768 64.1958 24.221 54.1045 24.9429 44.297L24.9485 44.2206L24.96 44.1449C25.5619 40.1632 27.4 37.4078 29.9209 35.6447C32.3737 33.9291 35.3048 33.2681 37.9668 33.0849C40.6447 32.9006 43.2132 33.1885 45.087 33.5114C46.0303 33.674 46.8129 33.8481 47.3646 33.9831C47.502 34.0167 47.6254 34.0479 47.7335 34.076C47.8415 34.0522 47.9643 34.0259 48.1011 33.9978C48.6548 33.884 49.4395 33.74 50.384 33.6137C52.2599 33.363 54.8268 33.1742 57.4883 33.4625C60.1352 33.7493 63.0321 34.5248 65.4199 36.3344C67.8715 38.1923 69.6157 41.0135 70.0963 45.0149L70.1043 45.0823ZM47.6953 36.1389C47.6953 36.1389 29.0382 30.5473 26.9375 44.4438C26.264 53.5946 30.535 63.0992 36.7495 68.7481C36.8807 68.8674 37.0143 68.9893 37.1503 69.1134C39.68 71.4227 43.0218 74.4733 46.786 74.6353C50.7526 74.8061 55.3117 72.2203 59.5054 67.9456C63.9137 63.4523 68.5671 54.0792 68.1105 45.2534C66.4306 31.266 47.6953 36.1389 47.6953 36.1389Z" fill="#9F0B0B"/>
<path fill-rule="evenodd" clip-rule="evenodd" d="M53.3945 65.0094C57.8028 60.516 62.4562 51.1429 61.9997 42.3172C61.6406 39.328 60.5027 37.2002 58.9352 35.7021C63.2668 36.5567 67.3655 39.0507 68.1105 45.2533C68.567 54.079 63.9136 63.4521 59.5053 67.9455C55.3117 72.2201 50.7525 74.8059 46.786 74.6351C44.3365 74.5297 42.0659 73.2011 40.0816 71.6496C40.2782 71.6738 40.4761 71.6905 40.6751 71.699C44.6417 71.8698 49.2009 69.284 53.3945 65.0094Z" fill="#E02121"/>
<path d="M40.4748 37.5209C42.1214 39.5643 40.9715 43.2231 37.9064 45.6929C34.8413 48.1628 31.0217 48.5086 29.3751 46.4652C27.7285 44.4218 28.8785 40.763 31.9436 38.2931C35.0087 35.8232 38.8283 35.4775 40.4748 37.5209Z" fill="#FF7070"/>
<path d="M62.3501 49.4756C62.0789 50.3073 61.1848 50.7616 60.3532 50.4904C59.5215 50.2192 59.0672 49.3252 59.3384 48.4935C59.6096 47.6619 60.5037 47.2075 61.3353 47.4787C62.167 47.7499 62.6213 48.644 62.3501 49.4756Z" fill="#BA1010"/>
<path d="M65.7646 54.7431C65.4934 55.5747 64.5993 56.0291 63.7677 55.7579C62.936 55.4867 62.4817 54.5926 62.7529 53.761C63.0241 52.9293 63.9181 52.475 64.7498 52.7462C65.5814 53.0174 66.0358 53.9114 65.7646 54.7431Z" fill="#BA1010"/>
<path d="M66.7285 48.8211C66.5251 49.4448 65.8546 49.7856 65.2308 49.5822C64.6071 49.3788 64.2663 48.7083 64.4697 48.0845C64.6732 47.4608 65.3437 47.12 65.9674 47.3234C66.5912 47.5268 66.9319 48.1974 66.7285 48.8211Z" fill="#BA1010"/>
<path d="M63.2632 59.8927C62.992 60.7244 62.0979 61.1787 61.2663 60.9075C60.4346 60.6363 59.9803 59.7423 60.2515 58.9106C60.5227 58.079 61.4168 57.6246 62.2484 57.8958C63.0801 58.1671 63.5344 59.0611 63.2632 59.8927Z" fill="#BA1010"/>
<path d="M59.8487 54.6252C59.5775 55.4568 58.6835 55.9111 57.8518 55.6399C57.0202 55.3687 56.5658 54.4747 56.837 53.643C57.1082 52.8114 58.0023 52.3571 58.8339 52.6283C59.6656 52.8995 60.1199 53.7935 59.8487 54.6252Z" fill="#BA1010"/>
<path d="M59.6348 65.3448C59.3636 66.1764 58.4695 66.6308 57.6379 66.3595C56.8062 66.0883 56.3519 65.1943 56.6231 64.3626C56.8943 63.531 57.7884 63.0767 58.62 63.3479C59.4517 63.6191 59.906 64.5131 59.6348 65.3448Z" fill="#BA1010"/>
<path d="M57.3454 60.0588C57.0742 60.8905 56.1802 61.3448 55.3485 61.0736C54.5169 60.8024 54.0625 59.9083 54.3337 59.0767C54.6049 58.245 55.499 57.7907 56.3306 58.0619C57.1623 58.3331 57.6166 59.2272 57.3454 60.0588Z" fill="#BA1010"/>
<path d="M55.9259 68.254C55.7225 68.8777 55.052 69.2185 54.4282 69.0151C53.8045 68.8116 53.4637 68.1411 53.6671 67.5174C53.8705 66.8936 54.5411 66.5529 55.1648 66.7563C55.7885 66.9597 56.1293 67.6302 55.9259 68.254Z" fill="#BA1010"/>
<path fill-rule="evenodd" clip-rule="evenodd" d="M45.8093 54.8775C46.3134 54.6519 46.9049 54.8778 47.1304 55.382C47.1607 55.4495 47.207 55.5234 47.2575 55.5784C47.2681 55.59 47.2775 55.5992 47.2855 55.6065C47.3475 55.5733 47.479 55.4823 47.6676 55.2522C48.0177 54.825 48.6477 54.7625 49.0749 55.1126C49.5021 55.4626 49.5646 56.0927 49.2145 56.5199C48.5189 57.3687 47.6393 57.83 46.7065 57.5352C45.9292 57.2897 45.4904 56.6136 45.3048 56.1986C45.0792 55.6945 45.3051 55.103 45.8093 54.8775Z" fill="#FFCD83"/>
<path fill-rule="evenodd" clip-rule="evenodd" d="M34.3239 52.601C34.828 52.3755 35.4195 52.6013 35.6451 53.1055C35.6753 53.173 35.7216 53.2469 35.7721 53.3019C35.7827 53.3135 35.7921 53.3227 35.8001 53.33C35.8621 53.2969 35.9936 53.2058 36.1822 52.9757C36.5323 52.5485 37.1623 52.486 37.5895 52.8361C38.0167 53.1861 38.0792 53.8162 37.7291 54.2434C37.0335 55.0922 36.1539 55.5535 35.2211 55.2588C34.4438 55.0132 34.005 54.3371 33.8194 53.9221C33.5939 53.418 33.8197 52.8265 34.3239 52.601Z" fill="#FFCD83"/>
<path fill-rule="evenodd" clip-rule="evenodd" d="M41.7069 46.6817C42.2111 46.4562 42.8026 46.6821 43.0281 47.1862C43.0583 47.2538 43.1047 47.3276 43.1552 47.3827C43.1658 47.3943 43.1752 47.4035 43.1832 47.4108C43.2452 47.3776 43.3766 47.2866 43.5653 47.0564C43.9153 46.6293 44.5454 46.5668 44.9726 46.9168C45.3997 47.2669 45.4623 47.8969 45.1122 48.3241C44.4166 49.173 43.537 49.6342 42.6041 49.3395C41.8269 49.0939 41.3881 48.4179 41.2024 48.0029C40.9769 47.4987 41.2028 46.9072 41.7069 46.6817Z" fill="#FFCD83"/>
<path fill-rule="evenodd" clip-rule="evenodd" d="M52.3796 47.1412C52.8837 46.9157 53.4752 47.1416 53.7007 47.6457C53.7309 47.7133 53.7773 47.7871 53.8278 47.8421C53.8384 47.8537 53.8478 47.863 53.8558 47.8702C53.9178 47.8371 54.0493 47.7461 54.2379 47.5159C54.5879 47.0887 55.218 47.0262 55.6452 47.3763C56.0724 47.7263 56.1349 48.3564 55.7848 48.7836C55.0892 49.6324 54.2096 50.0937 53.2767 49.799C52.4995 49.5534 52.0607 48.8774 51.875 48.4624C51.6495 47.9582 51.8754 47.3667 52.3796 47.1412Z" fill="#FFCD83"/>
<path fill-rule="evenodd" clip-rule="evenodd" d="M46.4985 38.8687C47.0026 38.6432 47.5941 38.869 47.8196 39.3732C47.8499 39.4407 47.8962 39.5146 47.9467 39.5696C47.9573 39.5812 47.9667 39.5904 47.9747 39.5977C48.0367 39.5646 48.1682 39.4735 48.3568 39.2434C48.7069 38.8162 49.3369 38.7537 49.7641 39.1038C50.1913 39.4538 50.2538 40.0839 49.9037 40.5111C49.2081 41.3599 48.3285 41.8212 47.3957 41.5265C46.6184 41.2809 46.1796 40.6048 45.994 40.1898C45.7685 39.6857 45.9943 39.0942 46.4985 38.8687Z" fill="#FFCD83"/>
<path fill-rule="evenodd" clip-rule="evenodd" d="M57.2093 38.4387C57.7135 38.2132 58.305 38.439 58.5305 38.9432C58.5607 39.0107 58.6071 39.0846 58.6575 39.1396C58.6682 39.1512 58.6776 39.1604 58.6855 39.1677C58.7476 39.1346 58.879 39.0436 59.0676 38.8134C59.4177 38.3862 60.0478 38.3237 60.475 38.6738C60.9021 39.0238 60.9646 39.6539 60.6146 40.0811C59.9189 40.9299 59.0394 41.3912 58.1065 41.0965C57.3292 40.8509 56.8905 40.1749 56.7048 39.7598C56.4793 39.2557 56.7052 38.6642 57.2093 38.4387Z" fill="#FFCD83"/>
<path fill-rule="evenodd" clip-rule="evenodd" d="M61.1968 49.3028C61.701 49.0772 62.2925 49.3031 62.518 49.8073C62.5482 49.8748 62.5946 49.9487 62.6451 50.0037C62.6557 50.0153 62.6651 50.0245 62.6731 50.0318C62.7351 49.9986 62.8665 49.9076 63.0552 49.6775C63.4052 49.2503 64.0353 49.1878 64.4625 49.5378C64.8896 49.8879 64.9522 50.518 64.6021 50.9452C63.9065 51.794 63.0269 52.2553 62.094 51.9605C61.3168 51.715 60.878 51.0389 60.6923 50.6239C60.4668 50.1198 60.6927 49.5283 61.1968 49.3028Z" fill="#FFCD83"/>
<path fill-rule="evenodd" clip-rule="evenodd" d="M58.031 60.75C58.5351 60.5244 59.1266 60.7503 59.3521 61.2545C59.3823 61.322 59.4287 61.3959 59.4792 61.4509C59.4898 61.4625 59.4992 61.4717 59.5072 61.479C59.5692 61.4458 59.7007 61.3548 59.8893 61.1247C60.2393 60.6975 60.8694 60.635 61.2966 60.985C61.7237 61.3351 61.7863 61.9652 61.4362 62.3924C60.7406 63.2412 59.861 63.7025 58.9281 63.4077C58.1509 63.1622 57.7121 62.4861 57.5264 62.0711C57.3009 61.567 57.5268 60.9755 58.031 60.75Z" fill="#FFCD83"/>
<path fill-rule="evenodd" clip-rule="evenodd" d="M48.1329 62.997C48.637 62.7715 49.2285 62.9973 49.454 63.5015C49.4842 63.569 49.5306 63.6429 49.5811 63.6979C49.5917 63.7095 49.6011 63.7187 49.6091 63.726C49.6711 63.6928 49.8026 63.6018 49.9912 63.3717C50.3412 62.9445 50.9713 62.882 51.3985 63.2321C51.8256 63.5821 51.8882 64.2122 51.5381 64.6394C50.8425 65.4882 49.9629 65.9495 49.03 65.6547C48.2528 65.4092 47.814 64.7331 47.6283 64.3181C47.4028 63.814 47.6287 63.2225 48.1329 62.997Z" fill="#FFCD83"/>
<path fill-rule="evenodd" clip-rule="evenodd" d="M34.8304 61.5332C35.3346 61.3077 35.9261 61.5336 36.1516 62.0377C36.1818 62.1053 36.2282 62.1791 36.2786 62.2342C36.2893 62.2458 36.2987 62.255 36.3066 62.2623C36.3687 62.2291 36.5001 62.1381 36.6887 61.9079C37.0388 61.4808 37.6689 61.4183 38.096 61.7683C38.5232 62.1184 38.5857 62.7484 38.2357 63.1756C37.54 64.0245 36.6605 64.4857 35.7276 64.191C34.9503 63.9454 34.5116 63.2694 34.3259 62.8544C34.1004 62.3502 34.3263 61.7587 34.8304 61.5332Z" fill="#FFCD83"/>
<path fill-rule="evenodd" clip-rule="evenodd" d="M44.3456 68.1801C44.8498 67.9546 45.4413 68.1804 45.6668 68.6846C45.697 68.7521 45.7434 68.826 45.7938 68.881C45.8045 68.8926 45.8139 68.9018 45.8218 68.9091C45.8839 68.876 46.0153 68.7849 46.2039 68.5548C46.554 68.1276 47.1841 68.0651 47.6112 68.4152C48.0384 68.7652 48.1009 69.3953 47.7509 69.8225C47.0552 70.6713 46.1757 71.1326 45.2428 70.8379C44.4655 70.5923 44.0267 69.9162 43.8411 69.5012C43.6156 68.9971 43.8415 68.4056 44.3456 68.1801Z" fill="#FFCD83"/>
<path fill-rule="evenodd" clip-rule="evenodd" d="M38.4174 40.3029C38.9216 40.0774 39.5131 40.3032 39.7386 40.8074C39.7688 40.8749 39.8152 40.9488 39.8656 41.0038C39.8763 41.0154 39.8857 41.0246 39.8936 41.0319C39.9557 40.9988 40.0871 40.9078 40.2757 40.6776C40.6258 40.2504 41.2559 40.1879 41.6831 40.538C42.1102 40.888 42.1727 41.5181 41.8227 41.9453C41.127 42.7941 40.2475 43.2554 39.3146 42.9607C38.5373 42.7151 38.0986 42.039 37.9129 41.624C37.6874 41.1199 37.9133 40.5284 38.4174 40.3029Z" fill="#FFCD83"/>
<path fill-rule="evenodd" clip-rule="evenodd" d="M36.262 38.9762C36.8426 39.9158 36.5516 41.1483 35.6119 41.7289C35.0929 42.0496 34.6976 42.435 34.3983 42.8868C33.7885 43.8078 32.5475 44.06 31.6266 43.4501C30.7056 42.8403 30.4534 41.5993 31.0633 40.6783C31.6973 39.7209 32.5219 38.9362 33.5093 38.3261C34.449 37.7455 35.6814 38.0365 36.262 38.9762Z" fill="white"/>
</svg>
