<svg width="96" height="96" viewBox="0 0 96 96" fill="none" xmlns="http://www.w3.org/2000/svg">
<path d="M31.3974 24.4679C31.3974 24.4679 33.2402 31.5387 37.2688 33.4644C41.2973 35.3901 45.8973 34.16 45.8973 34.16C45.8973 34.16 43.9657 29.8078 39.9371 27.8821C35.9086 25.9564 31.3974 24.4679 31.3974 24.4679Z" fill="#94B513"/>
<path fill-rule="evenodd" clip-rule="evenodd" d="M29.4621 24.9723L31.3974 24.468L32.0241 22.5687C31.3285 22.3392 30.5632 22.5082 30.029 23.0094C29.4948 23.5105 29.2773 24.2636 29.4621 24.9723ZM45.8973 34.16C46.414 36.0922 46.4134 36.0923 46.4128 36.0925L46.4085 36.0936L46.4013 36.0955L46.3819 36.1006C46.3666 36.1045 46.3469 36.1095 46.3229 36.1154C46.2749 36.1272 46.2095 36.1428 46.1281 36.161C45.9653 36.1973 45.7377 36.2444 45.4555 36.2931C44.8929 36.3901 44.1041 36.4952 43.1745 36.5327C41.3404 36.6068 38.8222 36.4237 36.4062 35.2689C33.7331 33.9911 32.0151 31.1836 31.0194 29.1097C30.4939 28.0152 30.1088 26.9935 29.8548 26.2469C29.7273 25.872 29.6315 25.5623 29.5665 25.3424C29.534 25.2324 29.5091 25.1445 29.4917 25.0819C29.483 25.0506 29.4762 25.0255 29.4713 25.0072L29.4653 24.9846L29.4633 24.9772L29.4621 24.9723C29.4619 24.9718 29.4621 24.9723 31.3974 24.468C32.0241 22.5687 32.0239 22.5686 32.0241 22.5687L32.0407 22.5742L32.083 22.5883C32.1196 22.6005 32.1726 22.6183 32.2409 22.6415C32.3775 22.6877 32.5753 22.7554 32.8245 22.8424C33.3225 23.0163 34.0272 23.2679 34.8599 23.5807C36.519 24.2039 38.713 25.0802 40.7997 26.0777C43.2157 27.2326 44.9396 29.0772 46.0338 30.5511C46.5884 31.2981 47.002 31.9779 47.2798 32.4767C47.4191 32.7268 47.5255 32.9335 47.5994 33.083C47.6363 33.1578 47.6653 33.2185 47.6862 33.2633C47.6967 33.2857 47.7052 33.3042 47.7117 33.3185L47.72 33.3368L47.7231 33.3436L47.7249 33.3476C47.7251 33.3482 47.7254 33.3487 45.8973 34.16ZM44.8489 32.3384C45.552 33.3821 45.8973 34.16 45.8973 34.16L46.414 36.0922C46.979 35.9411 47.4495 35.5503 47.7018 35.0226C47.954 34.4949 47.9626 33.8833 47.7254 33.3487L45.8973 34.16C45.8973 34.16 45.075 34.3799 43.8213 34.4882C42.1097 34.6361 39.5941 34.5759 37.2688 33.4644C34.7751 32.2724 33.1189 29.1089 32.2189 26.8715C31.6649 25.4943 31.3974 24.468 31.3974 24.468C31.3974 24.468 32.3466 24.7812 33.7631 25.3061C35.4345 25.9255 37.7565 26.8398 39.9371 27.8821C42.2624 28.9936 43.8891 30.9136 44.8489 32.3384ZM44.0718 34.977C44.0723 34.9781 44.0722 34.9778 44.0718 34.977V34.977Z" fill="#667D0B"/>
<path d="M63.0354 14C63.0354 14 59.9124 25.5801 55.6491 29.9212C51.3858 34.2624 44.7844 34.6928 44.7844 34.6928C44.7844 34.6928 45.0953 28.0847 49.3586 23.7436C53.9183 20.1918 63.0354 14 63.0354 14Z" fill="#B2D623"/>
<path fill-rule="evenodd" clip-rule="evenodd" d="M64.9664 14.5208L63.0354 14L61.9117 12.3455C62.6034 11.8757 63.5144 11.8858 64.1955 12.3709C64.8766 12.8559 65.1841 13.7135 64.9664 14.5208ZM44.7844 34.6928C44.9145 36.6885 44.9151 36.6885 44.9158 36.6884L44.9172 36.6883L44.9205 36.6881L44.929 36.6875L44.9531 36.6858C44.9723 36.6843 44.9979 36.6823 45.0295 36.6796C45.0927 36.6742 45.1802 36.6661 45.2896 36.6544C45.5083 36.6309 45.8159 36.593 46.1942 36.5332C46.9491 36.4141 47.9963 36.2069 49.1889 35.8517C51.5475 35.1493 54.618 33.8255 57.076 31.3226C59.531 28.8227 61.4985 24.4763 62.8092 21.0466C63.4848 19.2787 64.022 17.6541 64.3902 16.4722C64.5746 15.8803 64.7174 15.3973 64.8146 15.06C64.8632 14.8914 64.9005 14.759 64.9259 14.6677L64.9552 14.5618L64.9631 14.533L64.9653 14.5248L64.9664 14.5208C64.9665 14.5205 64.9664 14.5208 63.0354 14C61.9117 12.3455 61.9118 12.3454 61.9117 12.3455L61.5072 12.6211C61.2476 12.7983 60.872 13.0552 60.4073 13.3744C59.478 14.0126 58.1912 14.9008 56.7609 15.9007C53.9116 17.8927 50.4544 20.3549 48.1295 22.1657C48.0597 22.2201 47.9936 22.2791 47.9316 22.3422C45.4736 24.8451 44.2056 27.939 43.5459 30.31C43.2124 31.5088 43.0242 32.5595 42.9187 33.3165C42.8659 33.6959 42.8334 34.004 42.8139 34.2231C42.8042 34.3328 42.7977 34.4204 42.7934 34.4836C42.7913 34.5153 42.7897 34.5409 42.7886 34.5602L42.7873 34.5843L42.7869 34.5928L42.7867 34.5975C42.7866 34.5982 42.7866 34.5988 44.7844 34.6928ZM45.0528 32.6553C44.8223 33.8878 44.7844 34.6928 44.7844 34.6928L44.9145 36.6885C44.3463 36.7256 43.7893 36.5187 43.383 36.1197C42.9768 35.7208 42.7599 35.1676 42.7866 34.5988L44.7844 34.6928C44.7844 34.6928 45.5885 34.6403 46.8167 34.3875C49.1075 33.916 52.8737 32.7473 55.649 29.9212C58.5162 27.0017 60.8676 20.8082 62.1002 17.0648C62.7004 15.2419 63.0354 14 63.0354 14C63.0354 14 61.9796 14.717 60.407 15.803C57.3582 17.9083 52.3666 21.4005 49.3585 23.7436C46.5832 26.5696 45.4828 30.3563 45.0528 32.6553Z" fill="#667D0B"/>
<path d="M55.37 28.2457C58.5136 24.4755 60.8768 17.4072 60.8768 17.4072C53.3407 24.0243 48.8826 30.7834 47.5955 33.3359C47.5955 33.3359 52.2264 32.0159 55.37 28.2457Z" fill="#9CBF10"/>
<path d="M41.0459 53.095C38.4917 43.4876 43.993 33.6862 53.3335 31.2029C62.6741 28.7196 72.3167 34.4948 74.8709 44.1022C77.4251 53.7096 75.007 75.1082 65.6665 77.5915C56.3259 80.0747 43.6001 62.7024 41.0459 53.095Z" fill="#FFC121"/>
<path fill-rule="evenodd" clip-rule="evenodd" d="M39.113 53.6088C36.2887 42.9857 42.3607 32.0507 52.8197 29.27C63.2786 26.4894 73.9794 32.9652 76.8037 43.5884C78.181 48.7687 78.1858 56.8489 76.6858 63.9327C75.9321 67.4922 74.7723 70.9307 73.1202 73.6897C71.4765 76.4346 69.2118 78.7184 66.1803 79.5243C63.1488 80.3303 60.049 79.4728 57.2591 77.9065C54.455 76.3323 51.7407 73.9238 49.3188 71.2085C44.4989 65.8049 40.4903 58.7892 39.113 53.6088ZM53.3335 31.2029C43.993 33.6862 38.4916 43.4876 41.0459 53.095C43.6001 62.7024 56.3259 80.0747 65.6664 77.5914C75.007 75.1082 77.4251 53.7096 74.8709 44.1022C72.3166 34.4948 62.674 28.7196 53.3335 31.2029Z" fill="#A65912"/>
<path d="M70.5061 59.0939C70.4798 59.8596 69.8377 60.459 69.072 60.4326C68.3063 60.4062 67.707 59.7641 67.7333 58.9985C67.7597 58.2328 68.4018 57.6334 69.1675 57.6598C69.9331 57.6862 70.5325 58.3282 70.5061 59.0939Z" fill="#ED9F29"/>
<path d="M73.2894 62.0349C73.2631 62.8006 72.621 63.3999 71.8553 63.3736C71.0896 63.3472 70.4903 62.7051 70.5166 61.9394C70.543 61.1738 71.1851 60.5744 71.9508 60.6008C72.7164 60.6271 73.3158 61.2692 73.2894 62.0349Z" fill="#ED9F29"/>
<path d="M74.0068 56.1997C73.987 56.774 73.5055 57.2235 72.9312 57.2037C72.3569 57.1839 71.9074 56.7024 71.9272 56.1281C71.947 55.5539 72.4285 55.1043 73.0028 55.1241C73.5771 55.1439 74.0266 55.6255 74.0068 56.1997Z" fill="#ED9F29"/>
<path d="M71.8419 66.912C71.8156 67.6777 71.1735 68.2771 70.4078 68.2507C69.6421 68.2243 69.0428 67.5823 69.0691 66.8166C69.0955 66.0509 69.7376 65.4515 70.5033 65.4779C71.269 65.5043 71.8683 66.1464 71.8419 66.912Z" fill="#ED9F29"/>
<path d="M68.892 63.9962C68.8656 64.7619 68.2235 65.3612 67.4578 65.3349C66.6921 65.3085 66.0928 64.6664 66.1192 63.9007C66.1455 63.1351 66.7876 62.5357 67.5533 62.5621C68.319 62.5884 68.9183 63.2305 68.892 63.9962Z" fill="#ED9F29"/>
<path d="M70.0397 70.976C70.0133 71.7417 69.3712 72.341 68.6056 72.3147C67.8399 72.2883 67.2405 71.6462 67.2669 70.8805C67.2933 70.1149 67.9353 69.5155 68.701 69.5419C69.4667 69.5682 70.0661 70.2103 70.0397 70.976Z" fill="#ED9F29"/>
<path d="M65.9521 69.8668C65.9257 70.6324 65.2836 71.2318 64.5179 71.2054C63.7523 71.1791 63.1529 70.537 63.1793 69.7713C63.2056 69.0056 63.8477 68.4063 64.6134 68.4326C65.3791 68.459 65.9784 69.1011 65.9521 69.8668Z" fill="#ED9F29"/>
<path d="M65.3526 75.0898C65.3328 75.6641 64.8512 76.1136 64.277 76.0938C63.7027 76.074 63.2532 75.5925 63.273 75.0182C63.2927 74.4439 63.7743 73.9944 64.3486 74.0142C64.9228 74.034 65.3723 74.5155 65.3526 75.0898Z" fill="#ED9F29"/>
<path fill-rule="evenodd" clip-rule="evenodd" d="M50.3958 32.2782C42.8801 35.8404 38.7727 44.5445 41.0459 53.095C42.9236 60.1576 50.2981 71.4166 57.7837 75.8989C63.6771 69.2756 64.9976 53.1015 62.8709 45.1021C61.1578 38.6586 56.2562 33.9388 50.3958 32.2782Z" fill="#F09C1E"/>
<path d="M20 52.3972C20 42.4561 27.835 34.3972 37.5 34.3972C47.165 34.3972 55 42.4561 55 52.3972C55 62.3383 47.165 82.3972 37.5 82.3972C27.835 82.3972 20 62.3383 20 52.3972Z" fill="#FEDB43"/>
<path fill-rule="evenodd" clip-rule="evenodd" d="M18 52.3972C18 41.405 26.6777 32.3972 37.5 32.3972C48.3223 32.3972 57 41.405 57 52.3972C57 57.7576 54.9286 65.5677 51.6588 72.0283C50.0158 75.2746 48.0116 78.2997 45.7061 80.5416C43.4122 82.772 40.6368 84.3972 37.5 84.3972C34.3632 84.3972 31.5878 82.772 29.2939 80.5416C26.9884 78.2997 24.9842 75.2746 23.3412 72.0283C20.0714 65.5677 18 57.7576 18 52.3972ZM37.5 34.3972C27.835 34.3972 20 42.4561 20 52.3972C20 62.3383 27.835 82.3972 37.5 82.3972C47.165 82.3972 55 62.3383 55 52.3972C55 42.4561 47.165 34.3972 37.5 34.3972Z" fill="#E96F17"/>
<path d="M41.9706 58.8973C41.9706 69.3972 40.3003 76.3972 41.342 76.3972C42.3836 76.3972 47 62.3972 47 50.8973C47 41.2324 43.6409 41.3974 42.5993 41.3974C40.7133 42.8973 41.9706 49.2324 41.9706 58.8973Z" fill="#EDBD13"/>
<path d="M33.8676 58.8973C33.8676 69.3972 35.8163 76.3972 34.6011 76.3972C33.3858 76.3972 28 62.3972 28 50.8973C28 41.2324 31.9189 41.3974 33.1342 41.3974C35.3345 42.8973 33.8676 49.2324 33.8676 58.8973Z" fill="#EDBD13"/>
<path d="M41.4853 58.8973C41.4853 69.3972 40.6502 76.3972 41.171 76.3972C41.6918 76.3972 44 62.3972 44 50.8973C44 41.2324 42.3205 41.3974 41.7996 41.3974C40.8566 42.8973 41.4853 49.2324 41.4853 58.8973Z" fill="#CF9F22"/>
<path d="M34.5147 58.8973C34.5147 69.3972 35.3498 76.3972 34.829 76.3972C34.3082 76.3972 32 62.3972 32 50.8973C32 41.2324 33.6795 41.3974 34.2004 41.3974C35.1434 42.8973 34.5147 49.2324 34.5147 58.8973Z" fill="#CF9F22"/>
<path fill-rule="evenodd" clip-rule="evenodd" d="M37.5 34.3972C27.835 34.3972 20 42.4561 20 52.3972C20 62.3383 27.835 82.3972 37.5 82.3972C47.165 82.3972 55 62.3383 55 52.3972C55 42.4561 47.165 34.3972 37.5 34.3972ZM37.5 37.3972C28.9396 37.3972 22 44.4487 22 53.1472C22 61.8457 28.9396 79.3972 37.5 79.3972C46.0604 79.3972 53 61.8457 53 53.1472C53 44.4487 46.0604 37.3972 37.5 37.3972Z" fill="#FFC430"/>
<path d="M34 42.3972C34 40.7404 35.3431 39.3972 37 39.3972H39C40.6569 39.3972 42 40.7404 42 42.3972V43.3972C42 45.0541 40.6569 46.3972 39 46.3972H37C35.3431 46.3972 34 45.0541 34 43.3972V42.3972Z" fill="#FFF3BD"/>
<path d="M34 50.3972C34 48.7404 35.3431 47.3972 37 47.3972H38.5C40.433 47.3972 42 48.9642 42 50.8972V51.3972C42 53.0541 40.6569 54.3972 39 54.3972H37C35.3431 54.3972 34 53.0541 34 51.3972V50.3972Z" fill="#FFF3BD"/>
<path d="M34 57.3972C34 56.2926 34.8954 55.3972 36 55.3972H37.7692C39.5535 55.3972 41 56.8437 41 58.628C41 60.1574 39.7602 61.3972 38.2308 61.3972H37C35.3431 61.3972 34 60.0541 34 58.3972V57.3972Z" fill="#FFF3BD"/>
<path d="M34 65.3972C34 64.2926 34.8954 63.3972 36 63.3972H37.3077C38.7946 63.3972 40 64.6026 40 66.0895C40 67.364 38.9668 68.3972 37.6923 68.3972H37C35.3431 68.3972 34 67.0541 34 65.3972Z" fill="#FFF3BD"/>
<path d="M35 70.9972C35 70.1136 35.7163 69.3972 36.6 69.3972H37.8462C39.0357 69.3972 40 70.3615 40 71.5511C40 72.5707 39.1734 73.3972 38.1538 73.3972H37.4C36.0745 73.3972 35 72.3227 35 70.9972Z" fill="#FFF3BD"/>
<path d="M36 76.5972C36 75.9345 36.5373 75.3972 37.2 75.3972H38.3846C39.2768 75.3972 40 76.1204 40 77.0126C40 77.7773 39.3801 78.3972 38.6154 78.3972H37.8C36.8059 78.3972 36 77.5913 36 76.5972Z" fill="#FFF3BD"/>
<path d="M26.8041 43.6868C26.7153 42.5858 27.5359 41.6213 28.6369 41.5325L30.6304 41.3718C31.7314 41.283 32.6959 42.1036 32.7847 43.2046L32.9537 45.3003C33.0425 46.4013 32.2219 47.3658 31.1209 47.4546L29.1274 47.6154C28.0264 47.7041 27.0619 46.8836 26.9731 45.7826L26.8041 43.6868Z" fill="#FFF3BD"/>
<path d="M25.3647 50.6387C25.2759 49.5377 26.0965 48.5732 27.1974 48.4844L29.191 48.3236C30.292 48.2349 31.2565 49.0554 31.3453 50.1564L31.5143 52.2522C31.603 53.3532 30.7825 54.3177 29.6815 54.4065L27.6879 54.5672C26.5869 54.656 25.6224 53.8354 25.5337 52.7344L25.3647 50.6387Z" fill="#FFF3BD"/>
<path d="M25.9253 57.5904C25.8365 56.4894 26.6571 55.5249 27.7581 55.4361L29.004 55.3356C30.105 55.2469 31.0695 56.0674 31.1583 57.1684L31.2572 58.3952C31.346 59.4962 30.5254 60.4607 29.4244 60.5495L28.1785 60.65C27.0775 60.7387 26.113 59.9182 26.0242 58.8172L25.9253 57.5904Z" fill="#FFF3BD"/>
<path d="M27.4858 64.5422C27.397 63.4412 28.2176 62.4767 29.3186 62.388L29.817 62.3478C30.918 62.259 31.8825 63.0796 31.9713 64.1805L32.0001 64.5384C32.0889 65.6394 31.2683 66.6039 30.1673 66.6926L29.669 66.7328C28.568 66.8216 27.6035 66.001 27.5147 64.9L27.4858 64.5422Z" fill="#FFF3BD"/>
<path d="M29.6332 69.4402C29.5558 68.4804 30.2711 67.6395 31.231 67.5621L31.493 67.541C32.4528 67.4636 33.2937 68.179 33.3711 69.1388C33.4484 70.0987 32.7331 70.9395 31.7732 71.0169L31.5113 71.038C30.5514 71.1154 29.7106 70.4001 29.6332 69.4402Z" fill="#FFF3BD"/>
<path d="M31.7662 74.1593C31.7081 73.4394 32.2447 72.8088 32.9645 72.7507L33.3479 72.7198C34.0678 72.6618 34.6984 73.1983 34.7565 73.9182C34.8145 74.6381 34.278 75.2687 33.5581 75.3267L33.1747 75.3577C32.4549 75.4157 31.8242 74.8792 31.7662 74.1593Z" fill="#FFF3BD"/>
<path d="M48.559 43.6868C48.6478 42.5858 47.8273 41.6213 46.7263 41.5325L44.7327 41.3718C43.6317 41.283 42.6672 42.1036 42.5784 43.2046L42.4095 45.3003C42.3207 46.4013 43.1412 47.3658 44.2422 47.4546L46.2358 47.6154C47.3368 47.7041 48.3013 46.8836 48.39 45.7826L48.559 43.6868Z" fill="#FFF3BD"/>
<path d="M49.9985 50.6387C50.0873 49.5377 49.2667 48.5732 48.1657 48.4844L46.1722 48.3236C45.0712 48.2349 44.1067 49.0554 44.0179 50.1564L43.8489 52.2522C43.7601 53.3532 44.5807 54.3177 45.6817 54.4065L47.6752 54.5672C48.7762 54.656 49.7407 53.8354 49.8295 52.7344L49.9985 50.6387Z" fill="#FFF3BD"/>
<path d="M49.4379 57.5904C49.5267 56.4894 48.7061 55.5249 47.6051 55.4361L46.3591 55.3356C45.2582 55.2469 44.2936 56.0674 44.2049 57.1684L44.1059 58.3952C44.0172 59.4962 44.8377 60.4607 45.9387 60.5495L47.1847 60.65C48.2857 60.7387 49.2502 59.9182 49.339 58.8172L49.4379 57.5904Z" fill="#FFF3BD"/>
<path d="M47.8773 64.5422C47.9661 63.4412 47.1456 62.4767 46.0446 62.388L45.5462 62.3478C44.4452 62.259 43.4807 63.0796 43.3919 64.1805L43.363 64.5384C43.2743 65.6394 44.0948 66.6039 45.1958 66.6926L45.6942 66.7328C46.7952 66.8216 47.7597 66.001 47.8485 64.9L47.8773 64.5422Z" fill="#FFF3BD"/>
<path d="M45.73 69.4402C45.8074 68.4804 45.092 67.6395 44.1322 67.5621L43.8702 67.541C42.9104 67.4636 42.0695 68.179 41.9921 69.1388C41.9147 70.0987 42.6301 70.9395 43.5899 71.0169L43.8519 71.038C44.8117 71.1154 45.6526 70.4001 45.73 69.4402Z" fill="#FFF3BD"/>
<path d="M43.597 74.1593C43.655 73.4394 43.1185 72.8088 42.3986 72.7507L42.0153 72.7198C41.2954 72.6618 40.6647 73.1983 40.6067 73.9182C40.5486 74.6381 41.0852 75.2687 41.805 75.3267L42.1884 75.3577C42.9083 75.4157 43.5389 74.8792 43.597 74.1593Z" fill="#FFF3BD"/>
<path fill-rule="evenodd" clip-rule="evenodd" d="M36.5 48.3972C37.0523 48.3972 37.5 48.8449 37.5 49.3972V51.3972C37.5 51.9495 37.0523 52.3972 36.5 52.3972C35.9477 52.3972 35.5 51.9495 35.5 51.3972V49.3972C35.5 48.8449 35.9477 48.3972 36.5 48.3972Z" fill="white"/>
<path fill-rule="evenodd" clip-rule="evenodd" d="M28 49.3972C28.5523 49.3972 29 49.8449 29 50.3972V51.3972C29 51.9495 28.5523 52.3972 28 52.3972C27.4477 52.3972 27 51.9495 27 51.3972V50.3972C27 49.8449 27.4477 49.3972 28 49.3972Z" fill="white"/>
<path fill-rule="evenodd" clip-rule="evenodd" d="M37 40.3972C37.5523 40.3972 38 40.8449 38 41.3972V42.3972C38 42.9495 37.5523 43.3972 37 43.3972C36.4477 43.3972 36 42.9495 36 42.3972V41.3972C36 40.8449 36.4477 40.3972 37 40.3972Z" fill="white"/>
<path d="M71.6233 40.8175C73.1188 43.7746 72.9329 46.8789 71.208 47.7513C69.483 48.6238 66.8723 46.9338 65.3768 43.9768C63.8812 41.0198 64.0671 37.9154 65.792 37.043C67.517 36.1706 70.1277 37.8605 71.6233 40.8175Z" fill="#FFDE89"/>
</svg>
