<?xml version="1.0" encoding="utf-8"?>
<!-- Generator: Adobe Illustrator 22.1.0, SVG Export Plug-In . SVG Version: 6.00 Build 0)  -->
<svg version="1.1" id="Layer_1" xmlns="http://www.w3.org/2000/svg" xmlns:xlink="http://www.w3.org/1999/xlink" x="0px" y="0px"
	 viewBox="0 0 256 256" style="enable-background:new 0 0 256 256;" xml:space="preserve">
<style type="text/css">
	.st0{fill:none;stroke:#464646;stroke-width:8;stroke-linecap:round;stroke-linejoin:round;stroke-miterlimit:10;}
	.st1{fill:none;}
	.st2{opacity:0.15;fill:none;}
	.st3{opacity:0.1;}
	.st4{fill:none;stroke:#656566;stroke-width:8;stroke-linecap:round;stroke-linejoin:round;stroke-miterlimit:10;}
	.st5{opacity:0.1;fill:none;}
	.st6{opacity:0.2;fill:none;}
	.st7{fill:none;stroke:#6D6E71;stroke-width:5;stroke-linecap:round;stroke-linejoin:round;stroke-miterlimit:10;}
	.st8{opacity:0.15;}
	.st9{fill:none;stroke:#6D6E71;stroke-width:10;stroke-linecap:round;stroke-linejoin:round;stroke-miterlimit:10;}
</style>
<g>
	<path class="st0" d="M197.8,173.6c-6.4-35.2-16.8-33.2-27-75c-10.2-41.7-30.4-52.5-42.8-52.5c-2.5,0-5.3,0.4-8.2,1.5
		c-11.8,4.1-26.4,17.6-34.6,51c-10.2,41.7-20.6,39.8-27,75C51.7,208.9,80,252,128,252S204.3,208.9,197.8,173.6z M128,210.9
		c-17.6,0-31.3-17.4-31.3-36c0-18.6,15.6-45.2,31.3-45.2s31.3,26.6,31.3,45.2C159.3,193.5,145.6,210.9,128,210.9z"/>
	<path class="st0" d="M159.3,174.9c0,18.6-13.6,36-31.3,36s-31.3-17.4-31.3-36c0-18.6,15.6-45.2,31.3-45.2S159.3,156.2,159.3,174.9z
		"/>
	<path class="st0" d="M102.7,15.7C76.3,10.4,66,28.6,65.3,60.4C96.4,54.8,110.2,40.5,102.7,15.7z"/>
	<path class="st0" d="M102.7,15.7c6.4-1.3,11-4.9,12.9-11.7c-4.9,14.5-3.5,29.1,4.2,43.6"/>
</g>
</svg>
