<?xml version="1.0" encoding="utf-8"?>
<!-- Generator: Adobe Illustrator 22.1.0, SVG Export Plug-In . SVG Version: 6.00 Build 0)  -->
<svg version="1.1" id="Layer_1" xmlns="http://www.w3.org/2000/svg" xmlns:xlink="http://www.w3.org/1999/xlink" x="0px" y="0px"
	 viewBox="0 0 256 256" style="enable-background:new 0 0 256 256;" xml:space="preserve">
<style type="text/css">
	.st0{fill:none;stroke:#464646;stroke-width:8;stroke-linecap:round;stroke-linejoin:round;stroke-miterlimit:10;}
	.st1{fill:none;}
	.st2{opacity:0.15;fill:none;}
	.st3{opacity:0.1;}
	.st4{fill:none;stroke:#656566;stroke-width:8;stroke-linecap:round;stroke-linejoin:round;stroke-miterlimit:10;}
	.st5{opacity:0.1;fill:none;}
	.st6{opacity:0.2;fill:none;}
	.st7{fill:none;stroke:#6D6E71;stroke-width:5;stroke-linecap:round;stroke-linejoin:round;stroke-miterlimit:10;}
	.st8{opacity:0.15;}
	.st9{fill:none;stroke:#6D6E71;stroke-width:10;stroke-linecap:round;stroke-linejoin:round;stroke-miterlimit:10;}
</style>
<g>
	<g>
		<path class="st0" d="M54.5,66.8c4.3,0.8,8.4-2.1,9.2-6.4c0.8-4.3-2.1-8.4-6.4-9.2c-4.3-0.8-8.4,2.1-9.2,6.4
			C47.3,61.9,50.2,66,54.5,66.8z"/>
		<path class="st0" d="M8.6,94.1c2.6,12.2,8.4,23.3,16.7,32.3c24.5-23.4,63.1-25.4,90-3.9c0.4,0.3,0.7,0.6,1.1,0.9
			c2.3,1.9,4.5,4,6.5,6.1c10.2-9.6,17.5-22.5,20.2-37.4c1.1-5.9,1.4-11.8,0.9-17.6c-0.6-8.2-2.7-16-6-23.2
			c-4.6-10.1-11.7-19-20.5-25.8c-8.4-6.5-18.4-11.1-29.5-13.1C50.7,5.8,15,30.5,8.2,67.7C6.6,76.7,6.8,85.6,8.6,94.1z M27.4,51
			c11.8,0.2,19.2-5.6,21.4-18.4c7.7,8,16.2,9.4,25.4,4.6c-3.1,12.4-0.1,21.6,8.6,27.8c-10.3,1.7-17.1,9.1-20.9,22
			c-7.5-9.9-17.6-13.4-28.3-10C37.5,66.6,36.2,57,27.4,51z"/>
		<path class="st0" d="M33.7,77c10.7-3.4,20.8,0.2,28.3,10c3.7-12.9,10.6-20.4,20.9-22c-8.7-6.2-11.7-15.4-8.6-27.8
			C65,42,56.6,40.6,48.8,32.6C46.6,45.4,39.2,51.2,27.4,51C36.2,57,37.5,66.6,33.7,77z M48.1,57.6c0.8-4.3,4.9-7.2,9.2-6.4
			c4.3,0.8,7.2,4.9,6.4,9.2c-0.8,4.3-4.9,7.2-9.2,6.4C50.2,66,47.3,61.9,48.1,57.6z"/>
		<path class="st0" d="M54.5,66.8c4.3,0.8,8.4-2.1,9.2-6.4c0.8-4.3-2.1-8.4-6.4-9.2c-4.3-0.8-8.4,2.1-9.2,6.4
			C47.3,61.9,50.2,66,54.5,66.8z"/>
		<path class="st0" d="M54.5,66.8c4.3,0.8,8.4-2.1,9.2-6.4c0.8-4.3-2.1-8.4-6.4-9.2c-4.3-0.8-8.4,2.1-9.2,6.4
			C47.3,61.9,50.2,66,54.5,66.8z"/>
	</g>
	<g class="st3">
		<path class="st1" d="M135.2,112.5c-2.1,3.8-4.6,7.5-7.4,10.9c-1.7,2-3.4,3.9-5.3,5.6c0.2,0.2,0.3,0.3,0.5,0.5
			c5.1-4.8,9.5-10.4,12.9-16.7C135.6,112.8,135.4,112.6,135.2,112.5z"/>
	</g>
	<g>
		<path class="st0" d="M140.6,184.3c11.7,9.4,26.6,15,42.8,15c37.9,0,68.6-30.7,68.6-68.5s-30.7-68.5-68.6-68.5
			c-14.6,0-28.2,4.6-39.4,12.4c0.4,5.7,0.1,11.6-0.9,17.6c-2.7,14.9-10,27.7-20.2,37.4C136.9,144.7,143,164.8,140.6,184.3z
			 M174,118.6c8.4-9.1,10-19.7,4.8-29.6c10.9,1.9,20.1-1.1,24.5-10.8c1.9,11.6,9,17.8,22,17.7c-6.5,9-6.4,17.6,0,25.8
			c-12.8-0.8-21.3,3.8-25.8,13.5C195.9,125.3,187.3,119.9,174,118.6z"/>
		<path class="st0" d="M174,118.6c13.4,1.3,22,6.8,25.4,16.5c4.6-9.6,13-14.3,25.8-13.5c-6.4-8.2-6.5-16.8,0-25.8
			c-13,0.1-20-6.1-22-17.7c-4.3,9.7-13.6,12.7-24.5,10.8C184,98.9,182.3,109.5,174,118.6z M192.6,107.6c0-4.4,3.6-7.9,7.9-7.9
			s7.9,3.6,7.9,7.9s-3.5,7.9-7.9,7.9S192.6,111.9,192.6,107.6z"/>
		<path class="st0" d="M192.6,107.6c0,4.4,3.6,7.9,7.9,7.9s7.9-3.5,7.9-7.9s-3.5-7.9-7.9-7.9S192.6,103.2,192.6,107.6z"/>
	</g>
	<g>
		<path class="st0" d="M28.7,228.7c29.1,24.2,72.3,20.3,96.6-8.8c8.8-10.5,13.9-23,15.4-35.6c2.3-19.5-3.7-39.6-17.7-54.7
			c-2-2.2-4.2-4.2-6.5-6.1c-0.4-0.3-0.7-0.6-1.1-0.9c-27-21.6-65.5-19.5-90,3.9c-1.9,1.8-3.7,3.7-5.4,5.8c-1.8,2.2-3.5,4.5-5,6.8
			C9.7,147,6.5,155.7,5,164.6C1,187.8,9.2,212.5,28.7,228.7z M52.8,214c8.8-9.3,10.7-18.8,6.2-28.4c9.8,3.6,19.4,0.5,29-8.9
			c1.6,12.3,8.7,20.3,19.7,22.7c-8.5,7.2-12.1,16.2-7.4,25.7c-10.2-5.9-19.5-4.5-27.7,5.5C69.8,219.7,63.2,214.3,52.8,214z"/>
		<path class="st0" d="M52.8,214c10.4,0.4,17.1,5.8,19.8,16.5c8.2-10,17.5-11.4,27.7-5.5c-4.7-9.5-1.1-18.5,7.4-25.7
			c-11-2.4-18.1-10.4-19.7-22.7c-9.6,9.4-19.2,12.5-29,8.9C63.5,195.2,61.6,204.7,52.8,214z M73.4,199c2.8-3.4,7.8-3.8,11.2-1
			c3.4,2.8,3.8,7.8,1,11.2c-2.8,3.4-7.8,3.8-11.2,1C71,207.3,70.6,202.3,73.4,199z"/>
		<path class="st0" d="M74.4,210.1c3.4,2.8,8.4,2.3,11.2-1c2.8-3.4,2.4-8.4-1-11.2c-3.4-2.8-8.4-2.3-11.2,1
			C70.6,202.3,71,207.3,74.4,210.1z"/>
	</g>
</g>
</svg>
