<svg width="96" height="96" viewBox="0 0 96 96" fill="none" xmlns="http://www.w3.org/2000/svg">
<path d="M64 48.3383C55 42.3383 51 33.3383 51 23.3383C50.0764 22.4724 47.5782 20.6012 45.5 23.7877C46 39.8383 35.5 44.8383 33.1962 47.5915C43.5 44.8383 58.2273 47.4146 64 48.3383Z" fill="#A8CB36"/>
<path fill-rule="evenodd" clip-rule="evenodd" d="M52.3679 21.8792C52.7712 22.2573 53 22.7854 53 23.3383C53 32.7556 56.7338 41.0904 65.1094 46.6742C65.8919 47.1958 66.2052 48.1921 65.8622 49.0677C65.5193 49.9433 64.6126 50.4617 63.684 50.3131C63.4362 50.2735 63.1728 50.231 62.8949 50.1861C59.9146 49.7048 55.2646 48.9539 50.1517 48.5808C44.5308 48.1706 38.539 48.2341 33.7125 49.5238C32.8699 49.7489 31.9786 49.4021 31.5098 48.6667C31.0409 47.9313 31.1027 46.9769 31.6623 46.3081C32.0687 45.8225 32.5999 45.3485 33.1099 44.9141C33.36 44.701 33.6296 44.4772 33.9034 44.2498L33.9522 44.2093C34.2463 43.965 34.5498 43.7127 34.8647 43.4446C36.1213 42.3754 37.5228 41.0877 38.8315 39.4347C41.4091 36.1788 43.7353 31.3719 43.501 23.85C43.4882 23.441 43.6013 23.0379 43.8248 22.6951C44.4914 21.673 45.293 20.9024 46.242 20.4477C47.2084 19.9847 48.1767 19.922 49.033 20.0742C50.6292 20.3579 51.842 21.3862 52.3679 21.8792ZM36.2114 44.9248C40.1124 41.5974 45.8734 35.7738 45.5 23.7877C47.5782 20.6012 50.0764 22.4724 51 23.3383C51 32.0053 54.0047 39.9212 60.6652 45.7838C61.6896 46.6854 62.8004 47.5385 64 48.3383C63.7531 48.2987 63.4897 48.2562 63.2111 48.2112C62.2429 48.0548 61.0896 47.8685 59.7951 47.6753C53.7957 46.7795 44.763 45.7338 37.0682 46.8193C35.7293 47.0082 34.431 47.2616 33.1962 47.5915C33.6207 47.0843 34.3234 46.5007 35.1844 45.7857C35.5066 45.5181 35.8511 45.2321 36.2114 44.9248Z" fill="#67830B"/>
<path fill-rule="evenodd" clip-rule="evenodd" d="M47.7629 22.0385C47.7077 22.1135 47.6527 22.1919 47.598 22.2737C47.8336 34.5926 41.672 40.3286 37.7358 43.5623C41.449 40.0556 45.827 34.285 45.5 23.7877C46.2313 22.6664 47.0145 22.1714 47.7629 22.0385ZM35.015 45.9264C34.2313 46.5778 33.5925 47.1179 33.1962 47.5916C43.0592 44.9561 56.9754 47.204 63.2111 48.2112C63.4897 48.2562 63.7531 48.2988 64 48.3383C63.0189 47.6842 62.0972 46.9945 61.2337 46.2717C54.1869 45.148 43.2266 43.8397 35.015 45.9264Z" fill="#C9F242"/>
<path fill-rule="evenodd" clip-rule="evenodd" d="M60.7509 47.8204C61.662 47.9609 62.4881 48.0944 63.2111 48.2112C63.4897 48.2562 63.7531 48.2987 64 48.3382C55 42.3382 51 33.3382 51 23.3382C50.663 23.0223 50.1163 22.5724 49.4568 22.2833C49.5335 22.3572 49.6031 22.4278 49.6651 22.4929C49.1103 32.2901 52.4554 41.3437 60.7509 47.8204ZM36.0712 45.0439C43.4295 44.7153 51.5862 46.148 57.1101 47.2966C50.1171 46.3731 40.5347 45.6306 33.1962 47.5915C33.6207 47.0842 34.3234 46.5006 35.1844 45.7857C35.4646 45.553 35.7616 45.3063 36.0712 45.0439Z" fill="#88A91C"/>
<path d="M25.4644 55.3065C28.7895 47.8251 46 41.8383 48.0506 37.6421C49 41.8383 43.7993 52.6094 43.9947 60.1555C44.2031 68.2034 40.5311 74.8758 34.1233 74.0099C26.5656 72.9886 21.3081 64.6582 25.4644 55.3065Z" fill="#DAD2F4"/>
<path fill-rule="evenodd" clip-rule="evenodd" d="M48.2822 35.6556C49.125 35.7538 49.8141 36.3732 50.0013 37.2008C50.3412 38.7031 50.104 40.5343 49.7495 42.2694C49.3982 43.9884 48.8563 45.936 48.3109 47.8962C48.2847 47.9902 48.2585 48.0844 48.2323 48.1785C47.0521 52.4221 45.9057 56.6903 45.9941 60.1038C46.1054 64.4022 45.1921 68.522 43.2095 71.5269C41.1697 74.6186 37.9487 76.5451 33.8555 75.9919C24.8298 74.7723 19.0006 64.9258 23.6368 54.4942C24.6659 52.1787 26.6703 50.1572 28.8638 48.4144C31.0892 46.6463 33.7147 45.0082 36.2137 43.5231C37.0048 43.0529 37.7774 42.6013 38.5238 42.165C40.1851 41.1939 41.7168 40.2985 43.0351 39.4428C43.9796 38.8298 44.7479 38.2786 45.3226 37.7836C45.925 37.2649 46.1753 36.9246 46.2537 36.764C46.6263 36.0017 47.4393 35.5574 48.2822 35.6556ZM47.9918 40.7636C47.6946 42.6494 47.0565 44.9429 46.3754 47.3912C45.1994 51.618 43.8951 56.3063 43.9948 60.1556C44.2032 68.2035 40.5311 74.8759 34.1234 74.01C26.5657 72.9887 21.3081 64.6582 25.4644 55.3065C27.3801 50.9963 33.9047 47.1821 39.4838 43.9207C42.088 42.3983 44.4862 40.9964 46.1135 39.7206C47.0512 38.9855 47.7329 38.2923 48.0506 37.6422C48.2352 38.4581 48.1873 39.5225 47.9918 40.7636Z" fill="#4D437C"/>
<path d="M70.7021 55.3065C67.3771 47.8251 50.1665 41.8383 48.1159 37.6421C47.1665 41.8383 52.3673 52.6094 52.1718 60.1555C51.9634 68.2034 55.6354 74.8758 62.0432 74.0099C69.6009 72.9886 74.8584 64.6582 70.7021 55.3065Z" fill="#B4AAD5"/>
<path fill-rule="evenodd" clip-rule="evenodd" d="M47.8845 35.6556C47.0417 35.7538 46.3526 36.3732 46.1653 37.2008C45.8254 38.7031 46.0626 40.5343 46.4172 42.2694C46.7684 43.9884 47.3103 45.936 47.8558 47.8962C47.882 47.9902 47.9081 48.0844 47.9343 48.1785C49.1145 52.4221 50.261 56.6903 50.1725 60.1038C50.0612 64.4022 50.9745 68.522 52.9571 71.5269C54.997 74.6186 58.2179 76.5451 62.3111 75.9919C71.3368 74.7723 77.166 64.9258 72.5298 54.4942C71.5007 52.1787 69.4963 50.1572 67.3028 48.4144C65.0774 46.6463 62.4519 45.0082 59.9529 43.5231C59.1618 43.0529 58.3892 42.6013 57.6429 42.165C55.9815 41.1939 54.4498 40.2985 53.1315 39.4428C52.1871 38.8298 51.4187 38.2786 50.844 37.7836C50.2417 37.2649 49.9914 36.9246 49.9129 36.764C49.5404 36.0017 48.7273 35.5574 47.8845 35.6556ZM48.1749 40.7636C48.472 42.6494 49.1101 44.9429 49.7913 47.3912C50.9672 51.618 52.2716 56.3063 52.1719 60.1556C51.9634 68.2035 55.6355 74.8759 62.0432 74.01C69.601 72.9887 74.8585 64.6582 70.7022 55.3065C68.7865 50.9963 62.2619 47.1821 56.6828 43.9207C54.0786 42.3983 51.6804 40.9964 50.0531 39.7206C49.1154 38.9855 48.4337 38.2923 48.116 37.6422C47.9314 38.4581 47.9793 39.5225 48.1749 40.7636Z" fill="#4D437C"/>
<path fill-rule="evenodd" clip-rule="evenodd" d="M57.365 44.3196C62.164 48.3219 67.4627 52.912 68.6062 57.3054C70.7306 65.4682 66.8439 71.9887 61.2293 74.0804C61.4955 74.0706 61.7668 74.0473 62.0433 74.0099C69.601 72.9886 74.8585 64.6582 70.7022 55.3065C68.8641 51.1708 62.7829 47.4918 57.365 44.3196ZM48.6807 38.4609C48.4366 38.1808 48.2459 37.9079 48.116 37.6421C47.7557 39.2345 48.2812 41.7738 49.0613 44.7245C48.8069 42.3594 48.6087 40.187 48.6807 38.4609Z" fill="#8175AB"/>
<path d="M32.4642 55.2723C35.7887 47.6767 47.2976 40.21 48.0479 37.3383C49.26 41.7339 50.7962 52.534 50.9916 60.1954C51.2 68.3662 47.5285 75.1404 41.1217 74.2613C33.5652 73.2244 28.3085 64.7668 32.4642 55.2723Z" fill="#F8F4FF"/>
<path fill-rule="evenodd" clip-rule="evenodd" d="M48.0345 35.3383C48.9393 35.3322 49.7355 35.9343 49.976 36.8066C51.2414 41.3953 52.7925 52.3631 52.991 60.1444C53.1021 64.4989 52.191 68.6699 50.2145 71.7118C48.1821 74.8397 44.96 76.8067 40.8499 76.2427C31.7988 75.0008 26.0194 65.0089 30.6321 54.4704C32.4825 50.2427 36.5009 46.2181 39.8535 43.0748C40.4989 42.4698 41.1155 41.9015 41.6978 41.3648C42.6947 40.4459 43.5909 39.6199 44.3578 38.8617C44.9554 38.2708 45.4144 37.7785 45.7344 37.3765C46.0416 36.9904 46.1128 36.8185 46.1159 36.8197C46.1163 36.8199 46.1152 36.8243 46.113 36.8327C46.3417 35.9572 47.1297 35.3444 48.0345 35.3383ZM48.6857 40.0863C49.7433 45.3129 50.8295 53.8356 50.9917 60.1954C51.2001 68.3662 47.5286 75.1404 41.1218 74.2613C33.5653 73.2244 28.3086 64.7668 32.4642 55.2723C34.4272 50.7876 39.2433 46.3478 43.0135 42.8722C44.3828 41.61 45.6141 40.4748 46.5207 39.511C47.3456 38.6339 47.9016 37.8986 48.048 37.3383C48.2539 38.085 48.4692 39.0166 48.6857 40.0863Z" fill="#4D437C"/>
<path d="M63.5358 55.2723C60.2113 47.6767 48.7024 40.21 47.9521 37.3383C46.74 41.7339 45.2038 52.534 45.0084 60.1954C44.8 68.3662 48.4715 75.1404 54.8783 74.2613C62.4348 73.2244 67.6915 64.7668 63.5358 55.2723Z" fill="#DAD2F4"/>
<path fill-rule="evenodd" clip-rule="evenodd" d="M47.9656 35.3383C47.0608 35.3322 46.2646 35.9343 46.0241 36.8066C44.7588 41.3953 43.2076 52.3631 43.0091 60.1444C42.898 64.4989 43.8091 68.6699 45.7856 71.7118C47.8181 74.8397 51.0401 76.8067 55.1502 76.2427C64.2013 75.0008 69.9807 65.0089 65.3681 54.4704C63.5177 50.2427 59.4992 46.2181 56.1466 43.0748C55.5013 42.4698 54.8846 41.9015 54.3024 41.3648C53.3054 40.4459 52.4092 39.6199 51.6423 38.8617C51.0447 38.2708 50.5857 37.7785 50.2657 37.3765C49.9585 36.9904 49.8873 36.8185 49.8843 36.8197C49.8838 36.8199 49.885 36.8243 49.8872 36.8327C49.6584 35.9572 48.8704 35.3444 47.9656 35.3383ZM47.3145 40.0863C46.2568 45.3129 45.1707 53.8356 45.0085 60.1954C44.8001 68.3662 48.4715 75.1404 54.8783 74.2613C62.4348 73.2244 67.6915 64.7668 63.5359 55.2723C61.5729 50.7876 56.7568 46.3478 52.9866 42.8722C51.6173 41.61 50.386 40.4748 49.4794 39.511C48.6545 38.6339 48.0985 37.8986 47.9521 37.3383C47.7462 38.085 47.5309 39.0166 47.3145 40.0863Z" fill="#4D437C"/>
<path fill-rule="evenodd" clip-rule="evenodd" d="M52.6989 42.8782C55.9628 46.9215 60.1321 52.0865 61.4672 56.9199C63.7633 65.2324 59.9957 72.0251 54.4098 74.3124C54.5643 74.3 54.7205 74.2829 54.8783 74.2613C62.4348 73.2244 67.6915 64.7668 63.5359 55.2723C61.5729 50.7876 56.7568 46.3478 52.9866 42.8722C52.5919 42.5083 52.2086 42.155 51.8412 41.8133C52.1179 42.1584 52.4048 42.5137 52.6989 42.8782ZM48.0504 37.614C48.0079 37.5179 47.975 37.4259 47.9521 37.3383C47.814 37.8391 47.6717 38.4232 47.5276 39.0762C47.7078 38.5503 47.8827 38.0609 48.0504 37.614Z" fill="#9F91CC"/>
<path d="M41.9893 55.653C45.3144 48.1716 47.6465 40.644 48.397 37.8154C49.2282 41.6947 56.8605 53.8218 57.056 61.3679C57.2644 69.4159 52.5 74.876 48.397 74.876C41 74.876 37.833 65.0047 41.9893 55.653Z" fill="#E5D9FD"/>
<path fill-rule="evenodd" clip-rule="evenodd" d="M48.4453 35.816C49.37 35.8383 50.1588 36.4919 50.3526 37.3964C50.5046 38.1056 51.0295 39.3803 51.8874 41.229C52.2119 41.9282 52.587 42.7164 52.9859 43.5544C53.563 44.767 54.1898 46.0839 54.7843 47.3859C56.7989 51.798 58.9455 57.0748 59.0554 61.3161C59.17 65.7429 57.9191 69.5493 55.9759 72.2952C54.0745 74.982 51.3216 76.876 48.397 76.876C43.6052 76.876 40.3483 73.6122 38.961 69.3966C37.5861 65.2189 37.9138 59.8987 40.1618 54.8407C43.4365 47.4724 45.7357 40.0475 46.4639 37.3026C46.7011 36.4085 47.5205 35.7937 48.4453 35.816ZM49.5701 40.9675C50.0333 42.0059 50.5946 43.1848 51.1993 44.4547C53.695 49.6961 56.9297 56.4894 57.056 61.3679C57.2645 69.4159 52.5001 74.876 48.397 74.876C41.0001 74.876 37.8331 65.0047 41.9894 55.653C44.406 50.2156 46.2982 44.7538 47.4398 41.0893C47.8689 39.7118 48.192 38.5882 48.397 37.8154C48.5607 38.5791 48.9879 39.6624 49.5701 40.9675Z" fill="#4D437C"/>
<path fill-rule="evenodd" clip-rule="evenodd" d="M42.9006 72.4199C44.2816 73.9592 46.1429 74.8758 48.3969 74.8758C52.5 74.8758 57.2644 69.4157 57.0559 61.3678C56.9296 56.4892 53.6949 49.696 51.1992 44.4546C50.903 43.8324 50.6171 43.2322 50.3481 42.6595C50.3623 42.6992 50.3765 42.739 50.3907 42.7789C52.3425 48.2462 54.8721 55.3323 54.5035 60.1985C53.8953 68.2262 48.6021 73.1754 44.5202 72.7596C43.9486 72.7014 43.4084 72.5865 42.9006 72.4199Z" fill="#C1AFE6"/>
<path d="M48.0053 58.3356C47.456 61.8712 45.6651 64.5283 44.0053 64.2704C42.3455 64.0125 41.4453 60.9373 41.9946 57.4017C42.5439 53.8662 44.3348 51.2091 45.9946 51.4669C47.6544 51.7248 48.5546 54.8 48.0053 58.3356Z" fill="#EDE6FB"/>
<path fill-rule="evenodd" clip-rule="evenodd" d="M46.2907 54.6521C47.0352 55.0155 47.3441 55.9136 46.9808 56.6581C46.668 57.2988 46.5131 57.938 46.499 58.588C46.481 59.4162 45.7951 60.0731 44.9669 60.0552C44.1386 60.0372 43.4818 59.3513 43.4997 58.523C43.5236 57.4183 43.7909 56.354 44.2847 55.3422C44.6481 54.5977 45.5462 54.2888 46.2907 54.6521Z" fill="white"/>
</svg>
