<svg width="96" height="96" viewBox="0 0 96 96" fill="none" xmlns="http://www.w3.org/2000/svg">
<path d="M45 20.5C46.5742 17.4855 47.7294 13.3694 49 12.5C50.4444 12.0185 52 12.4999 52 14.0001C50.9877 15.4858 50 16.5 50 20.5C50 25.5 56.5 28 59 30C51 32.5 38 32 34.5 30C37.5 27 42.5093 25.2698 45 20.5Z" fill="#568C20"/>
<path fill-rule="evenodd" clip-rule="evenodd" d="M51.4405 11.5899C52.3525 11.9866 53 12.828 53 14.0001C53 14.201 52.9395 14.3972 52.8264 14.5632C52.7214 14.7173 52.6215 14.8603 52.5266 14.9964C52.1247 15.572 51.8092 16.0239 51.5496 16.6767C51.2373 17.4621 51 18.5806 51 20.5C51 22.5195 52.3037 24.1357 54.1747 25.5843C55.0969 26.2982 56.1024 26.9297 57.0647 27.5243C57.1382 27.5697 57.2118 27.6151 57.2853 27.6604C58.1456 28.1912 58.9939 28.7145 59.6247 29.2191C59.9134 29.4501 60.0511 29.8215 59.9828 30.1849C59.9144 30.5482 59.6512 30.8442 59.2983 30.9545C55.1611 32.2473 49.796 32.7507 45.0492 32.6874C42.6684 32.6557 40.4166 32.4811 38.5242 32.1831C36.6642 31.8903 35.0443 31.4628 34.0039 30.8682C33.7333 30.7136 33.5502 30.4416 33.5089 30.1327C33.4675 29.8238 33.5725 29.5133 33.7929 29.2929C34.9342 28.1516 36.3825 27.1594 37.7897 26.1953C38.3236 25.8296 38.8515 25.4679 39.3545 25.1037C41.25 23.7312 42.9756 22.2164 44.1136 20.0371C44.6812 18.9501 45.1872 17.7264 45.6834 16.5264C45.854 16.114 46.0234 15.7043 46.1937 15.304C46.5182 14.5414 46.8485 13.809 47.1883 13.2035C47.5108 12.6287 47.9146 12.031 48.4353 11.6747C48.512 11.6222 48.5956 11.5807 48.6838 11.5513C49.5804 11.2525 50.5931 11.2213 51.4405 11.5899ZM49.4757 13.401C49.3519 13.523 49.1678 13.7629 48.9324 14.1822C48.6491 14.6871 48.354 15.3352 48.034 16.0871C47.8816 16.4452 47.7239 16.8269 47.5605 17.222C47.0563 18.4419 46.4994 19.7891 45.8864 20.9629C44.5337 23.5533 42.5093 25.2886 40.5275 26.7236C39.9187 27.1644 39.3279 27.5691 38.7606 27.9576C37.9036 28.5446 37.1004 29.0947 36.3708 29.6767C37.0394 29.874 37.8667 30.055 38.8352 30.2075C40.6147 30.4876 42.7691 30.6568 45.0758 30.6876C48.9144 30.7388 53.1015 30.4059 56.6223 29.6021C56.4841 29.5164 56.3415 29.4283 56.1946 29.3376C56.1349 29.3007 56.0745 29.2634 56.0134 29.2257C55.0538 28.6328 53.9656 27.9517 52.9503 27.1657C50.9464 25.6142 49 23.4805 49 20.5C49 18.4194 49.2565 17.0308 49.6911 15.9377C50.0443 15.0496 50.5126 14.3823 50.9261 13.7931C50.9383 13.7756 50.9506 13.7582 50.9627 13.7409C50.9462 13.6921 50.926 13.6549 50.9065 13.626C50.859 13.5559 50.779 13.4832 50.6428 13.4239C50.38 13.3096 49.9579 13.2731 49.4757 13.401Z" fill="#39670A"/>
<path d="M46 56.0001C46 72.2582 39.0604 82.0001 30.5 82.0001C21.9396 82.0001 15 72.2582 15 56.0001C15 39.7419 21.9396 30.0001 30.5 30.0001C39.0604 30.0001 46 39.7419 46 56.0001Z" fill="#FF9000"/>
<path fill-rule="evenodd" clip-rule="evenodd" d="M43.154 76.1603C40.0798 81.057 35.6323 84.0001 30.5 84.0001C25.3677 84.0001 20.9202 81.057 17.846 76.1603C14.7862 71.2867 13 64.3869 13 56.0001C13 47.6132 14.7862 40.7135 17.846 35.8398C20.9202 30.9431 25.3677 28.0001 30.5 28.0001C35.6323 28.0001 40.0798 30.9431 43.154 35.8398C46.2138 40.7135 48 47.6132 48 56.0001C48 64.3869 46.2138 71.2867 43.154 76.1603ZM30.5 82.0001C39.0604 82.0001 46 72.2582 46 56.0001C46 39.7419 39.0604 30.0001 30.5 30.0001C21.9396 30.0001 15 39.7419 15 56.0001C15 72.2582 21.9396 82.0001 30.5 82.0001Z" fill="#D26211"/>
<path fill-rule="evenodd" clip-rule="evenodd" d="M30.5 82C39.0604 82 46 72.2582 46 56C46 46.2347 43.4964 38.8203 39.6418 34.4557C38.6272 34.154 37.5764 34 36.5 34C27.9396 34 21 43.7418 21 60C21 69.7653 23.5036 77.1797 27.3582 81.5443C28.3728 81.846 29.4236 82 30.5 82Z" fill="#E07E0A"/>
<path d="M80 56.0001C80 72.2582 72.8366 82.0001 64 82.0001C55.1634 82.0001 48 72.2582 48 56.0001C48 39.7419 55.1634 30.0001 64 30.0001C72.8366 30.0001 80 39.7419 80 56.0001Z" fill="#FF9000"/>
<path fill-rule="evenodd" clip-rule="evenodd" d="M76.9921 76.1846C73.8138 81.0888 69.2401 84.0001 64 84.0001C58.7599 84.0001 54.1862 81.0888 51.0079 76.1846C47.8466 71.3066 46 64.3975 46 56.0001C46 47.6026 47.8466 40.6935 51.0079 35.8155C54.1862 30.9113 58.7599 28.0001 64 28.0001C69.2401 28.0001 73.8138 30.9113 76.9921 35.8155C80.1534 40.6935 82 47.6026 82 56.0001C82 64.3975 80.1534 71.3066 76.9921 76.1846ZM64 82.0001C72.8366 82.0001 80 72.2582 80 56.0001C80 39.7419 72.8366 30.0001 64 30.0001C55.1634 30.0001 48 39.7419 48 56.0001C48 72.2582 55.1634 82.0001 64 82.0001Z" fill="#D26211"/>
<path fill-rule="evenodd" clip-rule="evenodd" d="M61.5001 79.0001C70.0605 79.0001 77.0001 69.6329 77.0001 54.0001C77.0001 41.8685 72.8209 33.5103 66.9482 30.3749C74.3765 32.3054 80 41.5949 80 56C80 72.2581 72.8366 82 64 82C59.5481 82 55.5208 79.5273 52.6204 74.9944C55.1353 77.6055 58.197 79.0001 61.5001 79.0001Z" fill="#E07E0A"/>
<path d="M56.9321 56.8322C56.9321 73.7678 49.6568 83.9155 40.6821 83.9155C31.7075 83.9155 24.4321 73.7678 24.4321 56.8322C24.4321 39.8966 31.7075 29.7488 40.6821 29.7488C49.6568 29.7488 56.9321 39.8966 56.9321 56.8322Z" fill="#FF9000"/>
<path fill-rule="evenodd" clip-rule="evenodd" d="M53.8634 77.793C50.6506 82.8775 46.0153 85.9155 40.6821 85.9155C35.3489 85.9155 30.7136 82.8775 27.5009 77.793C24.3032 72.7323 22.4321 65.5599 22.4321 56.8322C22.4321 48.1045 24.3032 40.932 27.5009 35.8713C30.7136 30.7868 35.3489 27.7488 40.6821 27.7488C46.0153 27.7488 50.6506 30.7868 53.8634 35.8713C57.0611 40.932 58.9321 48.1045 58.9321 56.8322C58.9321 65.5599 57.0611 72.7323 53.8634 77.793ZM40.6821 83.9155C49.6568 83.9155 56.9321 73.7678 56.9321 56.8322C56.9321 39.8966 49.6568 29.7488 40.6821 29.7488C31.7075 29.7488 24.4321 39.8966 24.4321 56.8322C24.4321 73.7678 31.7075 83.9155 40.6821 83.9155Z" fill="#D26211"/>
<path fill-rule="evenodd" clip-rule="evenodd" d="M40.6821 83.9154C49.6568 83.9154 56.9321 73.7677 56.9321 56.8321C56.9321 47.2536 54.6048 39.8465 50.9591 35.2185C49.9007 34.9075 48.8047 34.7488 47.6821 34.7488C38.7075 34.7488 31.4321 44.8965 31.4321 61.8321C31.4321 71.4106 33.7594 78.8178 37.4051 83.4457C38.4636 83.7567 39.5596 83.9154 40.6821 83.9154Z" fill="#E07E0A"/>
<path d="M70.1667 56.8322C70.1667 73.7678 62.8914 83.9155 53.9167 83.9155C44.9421 83.9155 37.6667 73.7678 37.6667 56.8322C37.6667 39.8966 44.9421 29.7488 53.9167 29.7488C62.8914 29.7488 70.1667 39.8966 70.1667 56.8322Z" fill="#FF9000"/>
<path fill-rule="evenodd" clip-rule="evenodd" d="M67.098 77.793C63.8852 82.8775 59.25 85.9155 53.9167 85.9155C48.5835 85.9155 43.9483 82.8775 40.7355 77.793C37.5378 72.7323 35.6667 65.5599 35.6667 56.8322C35.6667 48.1045 37.5378 40.932 40.7355 35.8713C43.9483 30.7868 48.5835 27.7488 53.9167 27.7488C59.25 27.7488 63.8852 30.7868 67.098 35.8713C70.2957 40.932 72.1667 48.1045 72.1667 56.8322C72.1667 65.5599 70.2957 72.7323 67.098 77.793ZM53.9167 83.9155C62.8914 83.9155 70.1667 73.7678 70.1667 56.8322C70.1667 39.8966 62.8914 29.7488 53.9167 29.7488C44.9421 29.7488 37.6667 39.8966 37.6667 56.8322C37.6667 73.7678 44.9421 83.9155 53.9167 83.9155Z" fill="#D26211"/>
<path fill-rule="evenodd" clip-rule="evenodd" d="M52 81C60.8365 81 68 71.2581 68 55C68 42.1202 63.5043 33.33 57.2426 30.233C64.6221 32.4359 70.1668 42.0474 70.1668 56.8321C70.1668 73.7677 62.8914 83.9155 53.9168 83.9155C49.0786 83.9155 44.7342 80.9662 41.7573 75.5941C44.5324 79.1058 48.1036 81 52 81Z" fill="#E07E0A"/>
<path d="M57.9322 57.0328C57.9322 74.8465 53.1718 85.5204 47.2995 85.5204C41.4272 85.5204 36.6667 74.8465 36.6667 57.0328C36.6667 39.219 41.4272 28.5451 47.2995 28.5451C53.1718 28.5451 57.9322 39.219 57.9322 57.0328Z" fill="#FF9000"/>
<path fill-rule="evenodd" clip-rule="evenodd" d="M56.6793 78.6884C54.7085 83.7024 51.5819 87.5204 47.2995 87.5204C43.017 87.5204 39.8905 83.7024 37.9196 78.6884C35.8724 73.48 34.6667 66.0864 34.6667 57.0328C34.6667 47.9791 35.8724 40.5856 37.9196 35.3771C39.8905 30.3632 43.017 26.5451 47.2995 26.5451C51.5819 26.5451 54.7085 30.3632 56.6793 35.3771C58.7266 40.5856 59.9322 47.9791 59.9322 57.0328C59.9322 66.0864 58.7266 73.48 56.6793 78.6884ZM47.2995 85.5204C53.1718 85.5204 57.9322 74.8465 57.9322 57.0328C57.9322 39.219 53.1718 28.5451 47.2995 28.5451C41.4272 28.5451 36.6667 39.219 36.6667 57.0328C36.6667 74.8465 41.4272 85.5204 47.2995 85.5204Z" fill="#D26211"/>
<path fill-rule="evenodd" clip-rule="evenodd" d="M42.5942 81.4693C48.456 81.8208 53.8468 71.451 54.913 53.6692C55.4489 44.7317 54.6764 37.5227 53.0311 32.5178C55.9788 37.1405 57.9321 45.6218 57.9321 57.0327C57.9321 74.8465 53.1717 85.5204 47.2994 85.5204C45.1057 85.5204 43.0672 84.0308 41.374 81.2359C41.7711 81.3661 42.1783 81.4444 42.5942 81.4693Z" fill="#E07E0A"/>
<path d="M53.3034 64.8105C53.8327 65.2888 53.8739 66.1056 53.3955 66.6348C52.9172 67.1641 52.1004 67.2053 51.5712 66.7269C51.042 66.2486 51.0007 65.4318 51.4791 64.9026C51.9574 64.3734 52.7742 64.3321 53.3034 64.8105Z" fill="#C6710C"/>
<path d="M56.5224 58.1126C57.0517 58.5909 57.0929 59.4077 56.6145 59.937C56.1362 60.4662 55.3194 60.5074 54.7902 60.0291C54.2609 59.5507 54.2197 58.7339 54.6981 58.2047C55.1764 57.6755 55.9932 57.6342 56.5224 58.1126Z" fill="#C6710C"/>
<path d="M55.154 53.8152C55.6832 54.2935 55.7244 55.1103 55.2461 55.6395C54.7677 56.1688 53.9509 56.21 53.4217 55.7316C52.8925 55.2533 52.8513 54.4365 53.3296 53.9073C53.808 53.3781 54.6248 53.3368 55.154 53.8152Z" fill="#C6710C"/>
<path d="M52.2173 76.1793C52.7465 76.6577 52.7877 77.4745 52.3094 78.0037C51.831 78.5329 51.0142 78.5741 50.485 78.0958C49.9558 77.6174 49.9145 76.8006 50.3929 76.2714C50.8712 75.7422 51.688 75.701 52.2173 76.1793Z" fill="#C6710C"/>
<path d="M53.9547 61.5954C54.3075 61.9143 54.335 62.4588 54.0161 62.8116C53.6972 63.1645 53.1527 63.1919 52.7999 62.873C52.447 62.5541 52.4196 62.0096 52.7385 61.6568C53.0574 61.304 53.6019 61.2765 53.9547 61.5954Z" fill="#C6710C"/>
<path d="M55.994 63.7602C56.3468 64.0791 56.3743 64.6236 56.0554 64.9764C55.7365 65.3293 55.192 65.3567 54.8392 65.0378C54.4864 64.7189 54.4589 64.1744 54.7778 63.8216C55.0967 63.4688 55.6412 63.4413 55.994 63.7602Z" fill="#C6710C"/>
<path d="M53.8026 57.2366C54.1554 57.5555 54.1829 58.1 53.864 58.4528C53.5451 58.8056 53.0005 58.8331 52.6477 58.5142C52.2949 58.1953 52.2674 57.6508 52.5863 57.298C52.9052 56.9452 53.4497 56.9177 53.8026 57.2366Z" fill="#C6710C"/>
<path d="M55.8665 49.8163C56.2193 50.1352 56.2468 50.6797 55.9279 51.0325C55.609 51.3853 55.0645 51.4128 54.7117 51.0939C54.3589 50.775 54.3314 50.2305 54.6503 49.8777C54.9692 49.5249 55.5137 49.4974 55.8665 49.8163Z" fill="#C6710C"/>
<path d="M50.2884 80.2396C50.6412 80.5585 50.6687 81.103 50.3498 81.4558C50.0309 81.8086 49.4864 81.8361 49.1336 81.5172C48.7807 81.1983 48.7532 80.6538 49.0721 80.301C49.391 79.9482 49.9356 79.9207 50.2884 80.2396Z" fill="#C6710C"/>
<path d="M51.1362 72.8807C51.489 73.1996 51.5165 73.7441 51.1976 74.0969C50.8787 74.4498 50.3342 74.4772 49.9814 74.1583C49.6286 73.8394 49.6011 73.2949 49.92 72.9421C50.2389 72.5893 50.7834 72.5618 51.1362 72.8807Z" fill="#C6710C"/>
<path d="M54.3846 69.1092C55.0902 69.747 55.1452 70.836 54.5074 71.5416C53.8696 72.2473 52.7805 72.3023 52.0749 71.6645C51.3693 71.0267 51.3143 69.9376 51.9521 69.232C52.5899 68.5263 53.679 68.4714 54.3846 69.1092Z" fill="#C6710C"/>
<path d="M65.0848 65.7155C65.5184 66.1733 65.4988 66.896 65.041 67.3296C64.5831 67.7632 63.8605 67.7436 63.4268 67.2858C62.9932 66.8279 63.0128 66.1053 63.4706 65.6716C63.9285 65.238 64.6511 65.2576 65.0848 65.7155Z" fill="#C6710C"/>
<path d="M68.3806 60.0332C68.8142 60.491 68.7946 61.2137 68.3368 61.6473C67.8789 62.0809 67.1563 62.0613 66.7226 61.6035C66.289 61.1456 66.3086 60.423 66.7665 59.9893C67.2243 59.5557 67.947 59.5753 68.3806 60.0332Z" fill="#C6710C"/>
<path d="M67.469 56.1521C67.9026 56.6099 67.883 57.3326 67.4252 57.7662C66.9674 58.1998 66.2447 58.1802 65.8111 57.7224C65.3774 57.2645 65.3971 56.5419 65.8549 56.1082C66.3127 55.6746 67.0354 55.6942 67.469 56.1521Z" fill="#C6710C"/>
<path d="M63.3486 75.6604C63.7822 76.1183 63.7626 76.8409 63.3048 77.2746C62.8469 77.7082 62.1243 77.6886 61.6906 77.2307C61.257 76.7729 61.2766 76.0502 61.7344 75.6166C62.1923 75.183 62.915 75.2026 63.3486 75.6604Z" fill="#C6710C"/>
<path d="M65.879 62.9266C66.1681 63.2319 66.155 63.7136 65.8498 64.0027C65.5446 64.2918 65.0628 64.2787 64.7737 63.9735C64.4846 63.6683 64.4977 63.1865 64.8029 62.8974C65.1082 62.6083 65.5899 62.6214 65.879 62.9266Z" fill="#C6710C"/>
<path d="M67.5279 64.9742C67.817 65.2794 67.8039 65.7612 67.4987 66.0503C67.1935 66.3394 66.7117 66.3263 66.4226 66.0211C66.1336 65.7158 66.1466 65.2341 66.4519 64.945C66.7571 64.6559 67.2389 64.669 67.5279 64.9742Z" fill="#C6710C"/>
<path d="M66.0436 59.0748C66.3327 59.38 66.3196 59.8618 66.0144 60.1509C65.7091 60.4399 65.2274 60.4269 64.9383 60.1216C64.6492 59.8164 64.6623 59.3346 64.9675 59.0456C65.2727 58.7565 65.7545 58.7695 66.0436 59.0748Z" fill="#C6710C"/>
<path d="M68.371 52.6767C68.6601 52.9819 68.647 53.4637 68.3418 53.7527C68.0365 54.0418 67.5548 54.0288 67.2657 53.7235C66.9766 53.4183 66.9897 52.9365 67.2949 52.6474C67.6001 52.3584 68.0819 52.3714 68.371 52.6767Z" fill="#C6710C"/>
<path d="M61.3705 79.1066C61.6596 79.4118 61.6465 79.8936 61.3413 80.1827C61.036 80.4718 60.5543 80.4587 60.2652 80.1535C59.9761 79.8482 59.9892 79.3665 60.2944 79.0774C60.5996 78.7883 61.0814 78.8014 61.3705 79.1066Z" fill="#C6710C"/>
<path d="M62.6219 72.6793C62.9109 72.9845 62.8979 73.4663 62.5926 73.7554C62.2874 74.0445 61.8056 74.0314 61.5166 73.7262C61.2275 73.4209 61.2406 72.9392 61.5458 72.6501C61.851 72.361 62.3328 72.3741 62.6219 72.6793Z" fill="#C6710C"/>
<path d="M65.7431 69.578C66.3213 70.1884 66.2951 71.152 65.6846 71.7302C65.0742 72.3083 64.1106 72.2822 63.5325 71.6717C62.9543 71.0613 62.9805 70.0977 63.5909 69.5195C64.2013 68.9414 65.1649 68.9675 65.7431 69.578Z" fill="#C6710C"/>
<path d="M75.4517 64.0075C75.8313 64.4083 75.8141 65.041 75.4133 65.4206C75.0125 65.8002 74.3798 65.783 74.0002 65.3822C73.6205 64.9814 73.6377 64.3487 74.0385 63.9691C74.4394 63.5895 75.072 63.6066 75.4517 64.0075Z" fill="#C6710C"/>
<path d="M78.3371 59.0328C78.7167 59.4336 78.6995 60.0663 78.2987 60.4459C77.8979 60.8255 77.2652 60.8084 76.8856 60.4075C76.5059 60.0067 76.5231 59.374 76.9239 58.9944C77.3247 58.6148 77.9574 58.632 78.3371 59.0328Z" fill="#C6710C"/>
<path d="M77.539 55.635C77.9186 56.0358 77.9014 56.6685 77.5006 57.0481C77.0998 57.4278 76.4671 57.4106 76.0875 57.0098C75.7079 56.6089 75.7251 55.9763 76.1259 55.5966C76.5267 55.217 77.1594 55.2342 77.539 55.635Z" fill="#C6710C"/>
<path d="M73.9317 72.714C74.3113 73.1148 74.2941 73.7475 73.8933 74.1271C73.4925 74.5067 72.8598 74.4896 72.4802 74.0887C72.1006 73.6879 72.1177 73.0552 72.5186 72.6756C72.9194 72.296 73.552 72.3132 73.9317 72.714Z" fill="#C6710C"/>
<path d="M76.147 61.5659C76.4001 61.8331 76.3886 62.2549 76.1214 62.508C75.8542 62.7611 75.4324 62.7496 75.1793 62.4824C74.9263 62.2152 74.9377 61.7934 75.2049 61.5404C75.4721 61.2873 75.8939 61.2987 76.147 61.5659Z" fill="#C6710C"/>
<path d="M77.5906 63.3585C77.8437 63.6257 77.8322 64.0475 77.565 64.3006C77.2978 64.5537 76.876 64.5422 76.6229 64.275C76.3698 64.0078 76.3813 63.586 76.6485 63.3329C76.9157 63.0798 77.3375 63.0913 77.5906 63.3585Z" fill="#C6710C"/>
<path d="M76.2911 58.1937C76.5442 58.461 76.5327 58.8827 76.2655 59.1358C75.9983 59.3889 75.5765 59.3775 75.3234 59.1102C75.0703 58.843 75.0818 58.4212 75.349 58.1682C75.6162 57.9151 76.038 57.9265 76.2911 58.1937Z" fill="#C6710C"/>
<path d="M78.3286 52.5924C78.5817 52.8596 78.5703 53.2814 78.303 53.5345C78.0358 53.7876 77.6141 53.7761 77.361 53.5089C77.1079 53.2417 77.1193 52.8199 77.3865 52.5668C77.6538 52.3137 78.0755 52.3252 78.3286 52.5924Z" fill="#C6710C"/>
<path d="M72.1999 75.731C72.453 75.9982 72.4415 76.42 72.1743 76.6731C71.9071 76.9262 71.4853 76.9147 71.2322 76.6475C70.9792 76.3803 70.9906 75.9585 71.2578 75.7054C71.525 75.4523 71.9468 75.4638 72.1999 75.731Z" fill="#C6710C"/>
<path d="M73.2955 70.1041C73.5485 70.3713 73.5371 70.7931 73.2699 71.0462C73.0027 71.2992 72.5809 71.2878 72.3278 71.0206C72.0747 70.7534 72.0862 70.3316 72.3534 70.0785C72.6206 69.8254 73.0424 69.8369 73.2955 70.1041Z" fill="#C6710C"/>
<path d="M76.028 67.389C76.5342 67.9234 76.5113 68.767 75.9768 69.2731C75.4424 69.7793 74.5988 69.7564 74.0927 69.222C73.5865 68.6876 73.6094 67.844 74.1438 67.3378C74.6782 66.8317 75.5218 66.8546 76.028 67.389Z" fill="#C6710C"/>
<path d="M45.703 31.2647C47.5 31.7731 47.4029 36.8953 46.5094 41.296C45.6159 45.6968 44 67.5001 41 66.0001C39.6612 64.8607 39.0001 54.0001 40 44C40.5422 38.5777 43 30.5 45.703 31.2647Z" fill="#FFB24F"/>
<path d="M35.7684 33.215C37.068 33.853 36.2519 36.7915 34.9318 39.1608C33.6116 41.5302 29.219 53.8077 27.1437 52.3666C26.2856 51.4522 27.3534 45.0554 29.5659 39.474C30.7655 36.4475 33.8136 32.2554 35.7684 33.215Z" fill="#FFB24F"/>
<path d="M58.4686 33.3597C57.1928 34.0439 58.1137 36.9512 59.518 39.2716C60.9222 41.5921 65.7523 53.7042 67.7746 52.1896C68.5993 51.245 67.3028 44.8906 64.8916 39.3921C63.5842 36.4107 60.3877 32.3305 58.4686 33.3597Z" fill="#FFB24F"/>
<path d="M25.7593 33.1771C26.6528 33.7167 25.8829 35.7761 24.7865 37.3953C23.6901 39.0144 19.7671 47.5579 18.3668 46.393C17.8076 45.6825 18.9747 41.155 20.9129 37.2845C21.9639 35.1859 24.4154 32.3656 25.7593 33.1771Z" fill="#FFB24F"/>
<path d="M69.1267 33.2987C68.2508 33.8664 69.086 35.9003 70.2334 37.4837C71.3808 39.0671 75.5738 47.4813 76.9363 46.2724C77.4725 45.5445 76.1619 41.0564 74.1014 37.2497C72.9842 35.1855 70.4442 32.4447 69.1267 33.2987Z" fill="#FFB24F"/>
<path fill-rule="evenodd" clip-rule="evenodd" d="M45.2321 43.1974L45.2294 43.2128L45.2201 43.265C45.2119 43.3111 45.2001 43.3788 45.1859 43.4623C45.1573 43.6301 45.1196 43.8588 45.0826 44.1047C45.0453 44.3529 45.0104 44.6065 44.9862 44.8272C44.9741 44.9372 44.9655 45.0305 44.9605 45.1051C44.9556 45.1771 44.9554 45.2111 44.9554 45.2155C44.9554 45.216 44.9554 45.2157 44.9554 45.2155C44.9793 46.3198 44.1035 47.2349 42.9992 47.2589C41.8949 47.2828 40.9803 46.407 40.9563 45.3027C40.9449 44.7759 41.0543 43.9935 41.1272 43.5094C41.169 43.2311 41.2111 42.976 41.2426 42.791C41.2584 42.6982 41.2717 42.6223 41.2811 42.5689L41.2923 42.5063L41.2966 42.4824C41.2966 42.4823 41.2967 42.4816 43.2644 42.8395L41.2966 42.4824C41.4942 41.3957 42.5356 40.6741 43.6223 40.8717C44.709 41.0694 45.4297 42.1107 45.2321 43.1974Z" fill="white"/>
</svg>
