<svg width="96" height="96" viewBox="0 0 96 96" fill="none" xmlns="http://www.w3.org/2000/svg">
<path d="M45.6691 44.898C56.5421 38.4728 66.3626 29.2588 69.9137 25.4549C73.7916 22.1421 74.0058 26.0297 73.9721 28.2505C73.846 36.5414 66.4347 49.7471 54.7192 58.6322C42.6883 67.7564 20.0055 70.0537 15.1976 67.5962C14.7047 67.3443 14.5436 66.7647 14.677 66.2274C16.8196 57.5968 32.5051 52.6772 45.6691 44.898Z" fill="#A3AF47"/>
<path fill-rule="evenodd" clip-rule="evenodd" d="M68.5288 24.0075L68.6147 23.9342C69.6698 23.0328 70.7866 22.3334 71.954 22.1956C72.5903 22.1204 73.24 22.2138 73.8363 22.525C74.417 22.8281 74.8207 23.2715 75.0948 23.7003C75.6083 24.5034 75.7965 25.4581 75.8829 26.1697C75.9754 26.9304 75.9808 27.6969 75.9719 28.2808C75.9013 32.9243 73.8277 38.6554 70.3978 44.2622C66.9418 49.9116 61.9949 55.6244 55.9277 60.2257C49.555 65.0588 40.5252 67.9917 32.6061 69.4253C28.6216 70.1466 24.842 70.5025 21.7176 70.5154C20.1563 70.5218 18.7292 70.4428 17.5054 70.2715C16.3151 70.1048 15.1793 69.8329 14.2873 69.377C12.7073 68.5694 12.4573 66.8677 12.7359 65.7455C13.4013 63.0655 15.0832 60.8151 17.2274 58.8672C19.3701 56.9207 22.0954 55.1671 25.0597 53.5001C27.6499 52.0436 30.5046 50.6089 33.4038 49.1518C33.8267 48.9393 34.2505 48.7263 34.6746 48.5126C38.0283 46.8234 41.4239 45.0836 44.6517 43.1761C55.3117 36.8767 64.9861 27.8024 68.4518 24.09L68.5288 24.0075ZM69.9137 25.4549C66.3626 29.2587 56.5421 38.4727 45.6692 44.898C41.9595 47.0901 38.0496 49.0552 34.299 50.9403C24.7402 55.7445 16.2159 60.0289 14.677 66.2274C14.5436 66.7646 14.7047 67.3442 15.1976 67.5962C20.0055 70.0537 42.6883 67.7564 54.7192 58.6321C66.4347 49.7471 73.8461 36.5414 73.9721 28.2504C74.0059 26.0297 73.7916 22.142 69.9137 25.4549Z" fill="#626C16"/>
<path d="M70.8129 35.5906C69.4272 37.1286 67.2679 37.4419 65.9899 36.2904C64.712 35.139 64.7994 32.9588 66.1851 31.4209C67.5708 29.883 69.7301 29.5697 71.008 30.7211C72.2859 31.8726 72.1986 34.0527 70.8129 35.5906Z" fill="#B3C04F"/>
<path d="M64.3994 45.731C62.1685 47.3486 59.2158 47.082 57.8044 45.1355C56.3931 43.189 57.0576 40.2997 59.2886 38.6821C61.5196 37.0645 64.4722 37.3311 65.8836 39.2776C67.2949 41.2241 66.6304 44.1134 64.3994 45.731Z" fill="#B3C04F"/>
<path d="M54.0109 55.8452C51.201 57.8826 47.3886 57.4179 45.4958 54.8073C43.603 52.1967 44.3464 48.4287 47.1563 46.3914C49.9662 44.354 53.7786 44.8187 55.6714 47.4293C57.5643 50.0399 56.8208 53.8078 54.0109 55.8452Z" fill="#B3C04F"/>
<path d="M39.3899 62.826C36.5583 64.8791 32.8721 64.6254 31.1566 62.2594C29.4411 59.8934 30.3459 56.311 33.1775 54.2579C36.0092 52.2048 39.6954 52.4584 41.4109 54.8244C43.1264 57.1905 42.2216 60.7729 39.3899 62.826Z" fill="#B3C04F"/>
<path d="M24.8387 65.4531C22.9473 66.5862 20.7207 66.3478 19.8656 64.9205C19.0105 63.4933 19.8506 61.4176 21.742 60.2844C23.6334 59.1512 25.86 59.3896 26.7151 60.8169C27.5702 62.2442 26.7301 64.3199 24.8387 65.4531Z" fill="#B3C04F"/>
<path d="M67.892 23.8231C70.2929 20.3466 73.4779 19.9317 75.0885 20.2288C75.2502 20.2586 75.3973 20.3403 75.5155 20.4546C78.4564 23.2991 78.3255 27.1074 77.7223 29.3161C77.5813 29.8324 77.0101 30.0763 76.5967 29.7363C75.4165 28.7655 74.5318 26.8292 74.0324 25.3475C73.8415 24.7809 73.2217 24.4585 72.6435 24.6113C71.2643 24.9757 69.7873 25.1174 68.6337 25.153C67.9126 25.1753 67.482 24.4168 67.892 23.8231Z" fill="#96A644"/>
<path fill-rule="evenodd" clip-rule="evenodd" d="M84.3533 17.3778C79.7993 17.0675 76.4037 20.2411 75.2957 21.8712C74.9852 22.328 74.3632 22.4466 73.9065 22.1361C73.4497 21.8256 73.3311 21.2037 73.6416 20.7469C74.962 18.8045 78.9472 15.0048 84.4893 15.3824C85.0403 15.42 85.4565 15.8971 85.419 16.4481C85.3814 16.9991 84.9043 17.4154 84.3533 17.3778Z" fill="#96A644"/>
<path d="M54.153 47.5948C56.2775 49.0708 56.8626 49.5659 58.851 50.2835C62.2669 51.5164 64.8511 49.1669 68.1407 50.7053C72.3838 52.6897 72.554 55.3747 71.4262 58.8317C68.647 64.42 61.2964 64.476 53.3341 61.2669C45.3719 58.0578 45.2455 52.3498 46.145 49.6726C47.0444 46.9953 51.4972 45.7498 54.153 47.5948Z" fill="#832E0A"/>
<path fill-rule="evenodd" clip-rule="evenodd" d="M73.3276 59.452C73.2974 59.5446 73.2604 59.635 73.217 59.7222C71.4534 63.2685 68.2202 64.9763 64.5187 65.3388C60.8984 65.6933 56.7305 64.7921 52.5865 63.1219C48.2042 61.3556 45.7317 58.7865 44.5743 56.0491C43.4401 53.3665 43.6701 50.759 44.2491 49.0356C44.9863 46.8413 47.0303 45.524 48.975 45.0053C50.9552 44.4772 53.3723 44.6171 55.2941 45.9522L54.175 47.563L55.2941 45.9522C55.5383 46.1219 55.7597 46.2767 55.9628 46.4186C57.5578 47.5336 58.0217 47.8579 59.53 48.4023C60.6767 48.8161 61.6643 48.6587 63.2227 48.4056C64.7172 48.163 66.7384 47.8416 68.988 48.8936C71.4068 50.0249 73.042 51.5405 73.7026 53.6073C74.332 55.5765 73.9261 57.6175 73.3276 59.452ZM71.4262 58.8316C72.5541 55.3747 72.3838 52.6897 68.1407 50.7053C66.4352 49.9077 64.9193 50.1551 63.3788 50.4066C61.948 50.6401 60.4959 50.8772 58.851 50.2835C57.0868 49.6467 56.4273 49.1852 54.817 48.0582C54.6124 47.915 54.3925 47.7611 54.153 47.5947C51.4972 45.7497 47.0444 46.9953 46.145 49.6725C45.2455 52.3497 45.3719 58.0578 53.3341 61.2669C61.2964 64.476 68.647 64.4199 71.4262 58.8316Z" fill="#571B01"/>
<path d="M50.5778 52.8268C49.1456 52.8578 47.968 52.1135 47.9475 51.1645C47.927 50.2155 49.0714 49.4211 50.5035 49.3901C51.9357 49.3592 53.1133 50.1034 53.1338 51.0525C53.1543 52.0015 52.0099 52.7959 50.5778 52.8268Z" fill="#AF4618"/>
<path d="M57.869 54.2766C55.9106 53.603 54.7802 51.7275 55.1436 50.6708C55.5071 49.6142 56.6219 50.8011 58.5804 51.4747C60.5388 52.1484 62.5445 51.5566 62.181 52.6133C61.8176 53.67 59.8275 54.9503 57.869 54.2766Z" fill="#DDA230"/>
<path d="M45.1571 63.0836C47.6959 63.5808 48.4306 63.7989 50.5397 63.6565C54.1631 63.4119 55.5845 60.2217 59.2151 60.3077C63.898 60.4186 65.1334 62.8086 65.4907 66.4273C65.1928 72.6614 58.485 75.6681 49.9045 75.9312C41.3239 76.1942 38.9131 71.0186 38.6603 68.2057C38.4075 65.3928 41.9837 62.462 45.1571 63.0836Z" fill="#983C14"/>
<path fill-rule="evenodd" clip-rule="evenodd" d="M67.481 66.2308C67.4906 66.3278 67.4931 66.4254 67.4884 66.5227C67.2994 70.4788 65.0258 73.3425 61.7824 75.1626C58.6101 76.9427 54.4316 77.7934 49.9658 77.9302C45.2432 78.075 41.9463 76.7168 39.786 74.6757C37.6689 72.6755 36.8312 70.1956 36.6684 68.3848C36.4612 66.0793 37.803 64.0513 39.375 62.7946C40.9758 61.5148 43.2452 60.6711 45.5416 61.1209L45.1646 63.0456L45.5416 61.1209C45.8334 61.178 46.0984 61.2307 46.3414 61.279C48.2501 61.6586 48.8053 61.769 50.4051 61.6611C51.6215 61.579 52.4624 61.0377 53.7876 60.1795C55.0584 59.3564 56.7798 58.2495 59.2625 58.3083C61.9321 58.3715 64.0386 59.1018 65.4745 60.7286C66.8425 62.2785 67.2915 64.3106 67.481 66.2308ZM65.4907 66.4273C65.1335 62.8086 63.898 60.4187 59.2152 60.3077C57.3329 60.2631 56.0444 61.0992 54.735 61.9488C53.5188 62.7379 52.2846 63.5388 50.5398 63.6565C48.6684 63.7828 47.879 63.6254 45.9515 63.241C45.7066 63.1921 45.4434 63.1396 45.1572 63.0836C41.9837 62.462 38.4075 65.3928 38.6604 68.2057C38.9132 71.0187 41.3239 76.1942 49.9045 75.9312C58.4851 75.6682 65.1929 72.6614 65.4907 66.4273Z" fill="#571B01"/>
<path fill-rule="evenodd" clip-rule="evenodd" d="M63.1232 61.311C63.3009 61.9551 63.4154 62.6639 63.4907 63.4273C63.1929 69.6614 56.4851 72.6681 47.9045 72.9311C43.5932 73.0633 40.8396 71.8225 39.1346 70.1982C40.1835 72.937 43.1093 76.1396 49.9045 75.9313C58.4851 75.6682 65.1929 72.6615 65.4907 66.4274C65.2655 64.1456 64.691 62.3523 63.1232 61.311Z" fill="#89310B"/>
<path d="M60.5646 64.524C59.1912 64.1168 58.2966 63.0489 58.5665 62.1389C58.8363 61.2288 60.1684 60.8211 61.5418 61.2284C62.9152 61.6356 63.8098 62.7035 63.54 63.6135C63.2701 64.5236 61.938 64.9313 60.5646 64.524Z" fill="#BD5325"/>
<path d="M43.5969 67.5901C42.2697 68.1293 40.9042 67.8534 40.547 66.974C40.1897 66.0945 40.976 64.9445 42.3031 64.4054C43.6303 63.8663 44.9958 64.1421 45.3531 65.0216C45.7103 65.901 44.9241 67.051 43.5969 67.5901Z" fill="#BD5325"/>
<path fill-rule="evenodd" clip-rule="evenodd" d="M43.5054 63.9568C43.6227 63.9307 43.8174 63.8906 43.9844 63.8906C44.5367 63.8907 44.9844 64.3384 44.9844 64.8907C44.9843 65.4241 44.5666 65.86 44.0404 65.8891C44.0203 65.8923 43.9865 65.8986 43.9405 65.9089C43.8466 65.9298 43.7244 65.9621 43.5964 66.0037C43.4668 66.0459 43.3467 66.0926 43.2504 66.1394C43.1606 66.1831 43.1266 66.21 43.1262 66.2096C43.1262 66.2095 43.1273 66.2084 43.1294 66.2064C42.7307 66.5885 42.0977 66.5751 41.7156 66.1764C41.3334 65.7777 41.3468 65.1446 41.7456 64.7625C42.1111 64.4121 42.6505 64.2082 42.9779 64.1018C43.1682 64.0399 43.3517 63.9911 43.5054 63.9568ZM44.0563 65.8868C44.0563 65.8868 44.0543 65.8871 44.0506 65.8875C44.0546 65.887 44.0564 65.8868 44.0563 65.8868Z" fill="white"/>
<path d="M52.4396 67.8015C49.8011 68.1219 47.4462 66.6037 47.2746 65.1905C47.103 63.7774 49.0546 64.5154 51.6931 64.195C54.3317 63.8746 56.3166 62.0783 56.4882 63.4915C56.6598 64.9046 55.0782 67.481 52.4396 67.8015Z" fill="#E3632C"/>
<path d="M52.0779 66.8502C50.429 66.9865 48.9997 65.9778 48.9262 65.0881C48.8526 64.1984 50.0493 64.7085 51.6983 64.5722C53.3472 64.4359 54.6242 63.3588 54.6978 64.2485C54.7713 65.1382 53.7269 66.7139 52.0779 66.8502Z" fill="#FCEF7C"/>
<path d="M46.0305 73.1793C45.5445 73.7081 44.7218 73.7429 44.1929 73.2569C43.664 72.7709 43.6293 71.9482 44.1153 71.4193C44.6013 70.8904 45.424 70.8556 45.9529 71.3416C46.4818 71.8276 46.5165 72.6504 46.0305 73.1793Z" fill="#6B2100"/>
<path d="M52.3049 72.8163C51.8704 73.2891 51.135 73.3202 50.6622 72.8857C50.1894 72.4513 50.1583 71.7158 50.5927 71.243C51.0272 70.7702 51.7627 70.7392 52.2355 71.1736C52.7083 71.6081 52.7393 72.3435 52.3049 72.8163Z" fill="#6B2100"/>
<path d="M55.5843 73.7569C55.2338 74.1383 54.6405 74.1633 54.259 73.8129C53.8776 73.4624 53.8525 72.869 54.203 72.4876C54.5535 72.1062 55.1468 72.0811 55.5283 72.4316C55.9097 72.7821 55.9348 73.3754 55.5843 73.7569Z" fill="#6B2100"/>
<path d="M48.9429 74.1908C48.5767 74.5894 47.9567 74.6156 47.5581 74.2493C47.1596 73.8831 47.1334 73.2631 47.4996 72.8646C47.8658 72.466 48.4858 72.4398 48.8844 72.8061C49.2829 73.1723 49.3091 73.7923 48.9429 74.1908Z" fill="#6B2100"/>
<path d="M42.3766 72.1304C42.0915 72.4407 41.6087 72.4611 41.2984 72.176C40.9881 71.8908 40.9677 71.4081 41.2528 71.0978C41.538 70.7875 42.0207 70.7671 42.3311 71.0522C42.6414 71.3374 42.6618 71.8201 42.3766 72.1304Z" fill="#6B2100"/>
<path d="M62.6706 67.3746C64.3706 65.4246 64.9269 64.8973 65.8581 62.9996C67.458 59.7394 65.4059 56.9133 67.2957 53.8121C69.7332 49.8121 72.4207 49.9372 75.7332 51.4371C80.9831 54.8121 80.2331 62.1246 76.1706 69.6871C72.1082 77.2496 66.4206 76.7496 63.8581 75.5621C61.2956 74.3746 60.5456 69.8121 62.6706 67.3746Z" fill="#983C14"/>
<path fill-rule="evenodd" clip-rule="evenodd" d="M76.5581 49.6152C76.6469 49.6554 76.7326 49.702 76.8146 49.7547C80.1462 51.8965 81.4893 55.2973 81.4439 59.0162C81.3994 62.6536 80.0468 66.6976 77.9325 70.6336C75.6965 74.7959 72.8718 76.9719 70.0241 77.8222C67.2333 78.6556 64.6667 78.1412 63.0171 77.3767C60.917 76.4035 59.8316 74.2274 59.5292 72.2376C59.2213 70.2114 59.6253 67.8242 61.163 66.0603L62.6414 67.3492L61.163 66.0603C61.3584 65.8362 61.5366 65.6331 61.6999 65.4468C62.983 63.9836 63.3562 63.558 64.0626 62.1185C64.5997 61.024 64.5514 60.0251 64.4707 58.4484C64.3934 56.9363 64.2954 54.892 65.5877 52.7714C66.9772 50.4911 68.663 49.0319 70.7898 48.6018C72.816 48.192 74.8003 48.8192 76.5581 49.6152ZM75.7331 51.4371C72.4206 49.9371 69.7331 49.8121 67.2956 53.8121C66.3158 55.4199 66.3956 56.9538 66.4767 58.5126C66.552 59.9604 66.6285 61.4297 65.8581 62.9996C65.0318 64.6834 64.5007 65.2883 63.204 66.7654C63.0393 66.9531 62.8622 67.1548 62.6706 67.3746C60.5456 69.8121 61.2956 74.3746 63.8581 75.5621C66.4206 76.7496 72.1081 77.2496 76.1706 69.6871C80.2331 62.1246 80.9831 54.8121 75.7331 51.4371Z" fill="#571B01"/>
<path fill-rule="evenodd" clip-rule="evenodd" d="M66.1064 76.1879C68.9906 76.5429 73.0577 75.482 76.1706 69.6871C80.2331 62.1246 80.9831 54.8121 75.7331 51.4371C74.0605 50.6797 72.5472 50.2729 71.145 50.5707C71.966 50.7188 72.8261 51.0264 73.7331 51.4371C78.9831 54.8121 78.2331 62.1246 74.1706 69.6871C71.726 74.2379 68.6929 75.8692 66.1064 76.1879Z" fill="#812B07"/>
<path d="M71.7062 71.8246C71.8503 72.5283 71.3966 73.2155 70.693 73.3596C69.9893 73.5037 69.302 73.0501 69.158 72.3464C69.0139 71.6427 69.4675 70.9555 70.1712 70.8114C70.8749 70.6673 71.5621 71.121 71.7062 71.8246Z" fill="#6B2100"/>
<path d="M75.0866 66.5263C75.2154 67.1554 74.8099 67.7697 74.1808 67.8985C73.5518 68.0273 72.9374 67.6218 72.8086 66.9927C72.6798 66.3637 73.0854 65.7494 73.7144 65.6206C74.3435 65.4918 74.9578 65.8973 75.0866 66.5263Z" fill="#6B2100"/>
<path d="M77.7695 64.4189C77.8734 64.9264 77.5463 65.422 77.0388 65.5259C76.5313 65.6298 76.0357 65.3027 75.9318 64.7952C75.8279 64.2877 76.155 63.7921 76.6625 63.6882C77.17 63.5843 77.6656 63.9115 77.7695 64.4189Z" fill="#6B2100"/>
<path d="M74.2318 70.0565C74.3404 70.5867 73.9985 71.1046 73.4683 71.2132C72.938 71.3217 72.4201 70.9799 72.3116 70.4496C72.203 69.9194 72.5449 69.4015 73.0751 69.2929C73.6054 69.1843 74.1233 69.5262 74.2318 70.0565Z" fill="#6B2100"/>
<path d="M68.7161 74.1722C68.8006 74.585 68.5345 74.9883 68.1216 75.0728C67.7087 75.1573 67.3055 74.8912 67.2209 74.4783C67.1364 74.0654 67.4026 73.6622 67.8155 73.5776C68.2283 73.4931 68.6316 73.7593 68.7161 74.1722Z" fill="#6B2100"/>
<path d="M69.6424 64.8153C68.5589 66.7278 66.2922 67.4916 65.1887 66.8665C64.0853 66.2413 65.5891 65.3364 66.6726 63.4239C67.7561 61.5114 67.4508 59.2597 68.5543 59.8849C69.6577 60.5101 70.7259 62.9028 69.6424 64.8153Z" fill="#E3632C"/>
<path d="M71.6216 54.7517C70.5822 55.7375 69.2101 55.9783 68.5569 55.2895C67.9036 54.6008 68.2167 53.2433 69.256 52.2576C70.2954 51.2718 71.6675 51.031 72.3207 51.7197C72.9739 52.4084 72.6609 53.7659 71.6216 54.7517Z" fill="#BD5325"/>
<path d="M65.5346 71.1768C65.4487 72.6067 64.6109 73.7197 63.6634 73.6628C62.7158 73.6059 62.0173 72.4006 62.1032 70.9707C62.1892 69.5408 63.0269 68.4277 63.9744 68.4847C64.922 68.5416 65.6205 69.7469 65.5346 71.1768Z" fill="#BD5325"/>
<path d="M69.2001 63.8856C68.4747 65.4219 66.8439 66.175 66.015 65.7836C65.1861 65.3923 66.2541 64.59 66.9795 63.0537C67.7048 61.5174 67.4027 59.8288 68.2316 60.2202C69.0604 60.6115 69.9254 62.3493 69.2001 63.8856Z" fill="#FCEF7C"/>
</svg>
