<?xml version="1.0" encoding="utf-8"?>
<!-- Generator: Adobe Illustrator 22.1.0, SVG Export Plug-In . SVG Version: 6.00 Build 0)  -->
<svg version="1.1" id="Layer_1" xmlns="http://www.w3.org/2000/svg" xmlns:xlink="http://www.w3.org/1999/xlink" x="0px" y="0px"
	 viewBox="0 0 256 256" style="enable-background:new 0 0 256 256;" xml:space="preserve">
<style type="text/css">
	.st0{fill:none;stroke:#464646;stroke-width:8;stroke-linecap:round;stroke-linejoin:round;stroke-miterlimit:10;}
	.st1{fill:none;}
	.st2{opacity:0.15;fill:none;}
	.st3{opacity:0.1;}
	.st4{fill:none;stroke:#656566;stroke-width:8;stroke-linecap:round;stroke-linejoin:round;stroke-miterlimit:10;}
	.st5{opacity:0.1;fill:none;}
	.st6{opacity:0.2;fill:none;}
	.st7{fill:none;stroke:#6D6E71;stroke-width:5;stroke-linecap:round;stroke-linejoin:round;stroke-miterlimit:10;}
	.st8{opacity:0.15;}
	.st9{fill:none;stroke:#6D6E71;stroke-width:10;stroke-linecap:round;stroke-linejoin:round;stroke-miterlimit:10;}
</style>
<g>
	<path class="st0" d="M231.4,144.3c0,59.5-48.2,107.7-107.6,107.7c-59.4,0-107.6-48.2-107.6-107.7c0-47.8,31.1-88.3,74.2-102.4
		c4.6-1.5,9.2-2.7,14.1-3.6c23.7,15,47.7,19.4,72,12C209.3,68.7,231.4,103.9,231.4,144.3z"/>
	<path class="st0" d="M84,21c-2.3-4.3-5.3-8.7-9.1-13.8"/>
	<path class="st0" d="M85.5,24c2.6,5.5,4.2,11.1,4.9,17.9c0.5,5,0.6,10.7,0.3,17.5"/>
	<path class="st0" d="M41.5,159.4c2.1,17.9,13.1,39.6,31,51.3"/>
	<path class="st0" d="M239.8,4c-21.3,24.7-42.4,39.9-63.3,46.3c-24.3,7.4-48.3,3-72-12c-6.3-4-12.7-8.8-19-14.4c-0.5-1-1-2-1.5-3
		c15.5-9,31.5-18.5,59.6-16.5C172.4,6.6,192.8,10.2,239.8,4z"/>
</g>
</svg>
