<?xml version="1.0" encoding="utf-8"?>
<!-- Generator: Adobe Illustrator 22.1.0, SVG Export Plug-In . SVG Version: 6.00 Build 0)  -->
<svg version="1.1" id="Layer_1" xmlns="http://www.w3.org/2000/svg" xmlns:xlink="http://www.w3.org/1999/xlink" x="0px" y="0px"
	 viewBox="0 0 256 256" style="enable-background:new 0 0 256 256;" xml:space="preserve">
<style type="text/css">
	.st0{fill:none;stroke:#464646;stroke-width:8;stroke-linecap:round;stroke-linejoin:round;stroke-miterlimit:10;}
	.st1{fill:none;}
	.st2{opacity:0.15;fill:none;}
	.st3{opacity:0.1;}
	.st4{fill:none;stroke:#656566;stroke-width:8;stroke-linecap:round;stroke-linejoin:round;stroke-miterlimit:10;}
	.st5{opacity:0.1;fill:none;}
	.st6{opacity:0.2;fill:none;}
	.st7{fill:none;stroke:#6D6E71;stroke-width:5;stroke-linecap:round;stroke-linejoin:round;stroke-miterlimit:10;}
	.st8{opacity:0.15;}
	.st9{fill:none;stroke:#6D6E71;stroke-width:10;stroke-linecap:round;stroke-linejoin:round;stroke-miterlimit:10;}
</style>
<g>
	<path class="st0" d="M148.5,252c-7.2,0-11.7-4.2-20.5-4.2c-8.8,0-13.3,4.2-20.5,4.2C1.7,252-36.3,58.8,61.2,13.4h0
		c30.8-2.4,45.5,23.3,48,44.6C91.7,72,73.2,100.8,73.2,128.4c0,38.2,37.8,68.5,54.8,68.5s54.8-30.4,54.8-68.5
		c0-27.6-18.5-56.5-36.1-70.4c2.5-21.4,17.3-47.1,48-44.6h0C292.3,58.8,254.3,252,148.5,252z"/>
	<path class="st0" d="M194.8,13.4c-30.8-2.4-45.5,23.3-48,44.6c-6.4-5-12.7-8.1-17.9-8.4c-0.3,0-0.6,0-0.8,0c-0.3,0-0.6,0-0.8,0
		c-5.2,0.3-11.5,3.3-17.9,8.4C106.8,36.7,92,11,61.2,13.4c13-6,28.3-9.4,46.2-9.4h41C166.4,4,181.8,7.4,194.8,13.4z"/>
	<path class="st0" d="M182.8,128.4c0,38.2-37.8,68.5-54.8,68.5s-54.8-30.4-54.8-68.5c0-27.6,18.5-56.5,36.1-70.4
		c6.4-5,12.7-8.1,17.9-8.4c0.3,0,0.6,0,0.8,0c0.3,0,0.6,0,0.8,0c5.2,0.3,11.5,3.3,17.9,8.4C164.3,72,182.8,100.8,182.8,128.4z"/>
	<path class="st0" d="M104.8,93.7c-10.9,20.6-13,40.4-3.9,59.4"/>
</g>
</svg>
