<?xml version="1.0" encoding="utf-8"?>
<!-- Generator: Adobe Illustrator 22.1.0, SVG Export Plug-In . SVG Version: 6.00 Build 0)  -->
<svg version="1.1" id="Layer_1" xmlns="http://www.w3.org/2000/svg" xmlns:xlink="http://www.w3.org/1999/xlink" x="0px" y="0px"
	 viewBox="0 0 256 256" style="enable-background:new 0 0 256 256;" xml:space="preserve">
<style type="text/css">
	.st0{fill:none;stroke:#464646;stroke-width:8;stroke-linecap:round;stroke-linejoin:round;stroke-miterlimit:10;}
	.st1{fill:none;}
	.st2{opacity:0.15;fill:none;}
	.st3{opacity:0.1;}
	.st4{fill:none;stroke:#656566;stroke-width:8;stroke-linecap:round;stroke-linejoin:round;stroke-miterlimit:10;}
	.st5{opacity:0.1;fill:none;}
	.st6{opacity:0.2;fill:none;}
	.st7{fill:none;stroke:#6D6E71;stroke-width:5;stroke-linecap:round;stroke-linejoin:round;stroke-miterlimit:10;}
	.st8{opacity:0.15;}
	.st9{fill:none;stroke:#6D6E71;stroke-width:10;stroke-linecap:round;stroke-linejoin:round;stroke-miterlimit:10;}
</style>
<g>
	<path class="st0" d="M102.9,236.6c-0.7,0.4-1.3,0.9-2,1.3c-9,5.9-18.4,10.2-27.2,12.1c-10,2.1-19.4,1.3-27-3.7
		c-1.6-1-3.1-2.3-4.5-3.7l-29.7-29.7c-1-1-2-2.1-2.8-3.2c-5.6-7.6-6.9-17.1-4.9-27.2c1.7-8.8,5.8-18,11.5-27c1-1.6,2.1-3.3,3.3-4.9
		c5.6-8,12.5-15.6,19.9-22.3c2.4-2.1,4.8-4.1,7.2-6c8.7-6.7,17.9-12,27-15.1c9.7-3.3,19.1-4,27.2-1.1c4.1,1.4,7.9,3.8,11.2,7.1
		l29.7,29.7c0.4,0.4,0.9,0.9,1.3,1.3c3,3.4,5.1,7.1,6.3,11.2c2.5,8.2,1.5,17.5-1.9,27c-3.3,9.1-8.8,18.5-15.7,27.2
		c-1.2,1.6-2.5,3.1-3.9,4.7l0,0C120.5,222.7,111.9,230.5,102.9,236.6z"/>
	<polyline class="st0" points="4.9,182.4 19.6,182.4 46.8,182.4 73.7,182.4 100.9,182.4 127.9,182.4 147.5,182.4 	"/>
	<polyline class="st0" points="9.8,209.6 19.6,209.6 46.8,209.6 73.7,209.6 100.9,209.6 127.9,209.6 131.8,209.6 	"/>
	<polyline class="st0" points="36.3,236.6 46.8,236.6 73.7,236.6 100.9,236.6 102.9,236.6 	"/>
	<polyline class="st0" points="16.3,155.4 19.6,155.4 46.8,155.4 73.7,155.4 100.9,155.4 127.9,155.4 149.4,155.4 	"/>
	<polyline class="st0" points="39.5,128.2 46.8,128.2 73.7,128.2 100.9,128.2 127.2,128.2 	"/>
	<polyline class="st0" points="73.7,250 73.7,236.6 73.7,209.6 73.7,182.4 73.7,155.4 73.7,128.2 73.7,107.1 	"/>
	<polyline class="st0" points="100.9,237.9 100.9,236.6 100.9,209.6 100.9,182.4 100.9,155.4 100.9,128.2 100.9,106 	"/>
	<polyline class="st0" points="127.9,214.3 127.9,214.3 127.9,209.6 127.9,182.4 127.9,155.4 127.9,128.9 	"/>
	<polyline class="st0" points="46.8,246.3 46.8,236.6 46.8,209.6 46.8,182.4 46.8,155.4 46.8,128.2 46.8,122.2 	"/>
	<polyline class="st0" points="19.6,219.9 19.6,209.6 19.6,182.4 19.6,155.4 19.6,150.5 	"/>
	<polygon class="st0" points="219.3,4.9 198.1,58.8 167.9,70.7 170,59.7 	"/>
	<polygon class="st0" points="252,37.6 197.2,87 186.2,89.1 163.4,93.5 167.9,70.7 198.1,58.8 	"/>
	<polygon class="st0" points="178.9,13.6 170,59.7 167.9,70.7 163.4,93.5 138.2,98.4 138.5,94.8 138.9,86.7 142.1,80.9 	"/>
	<polygon class="st0" points="243.3,78 176.1,114.9 170.2,118.1 162.2,118.5 158.5,118.7 137,120 138.2,98.4 163.4,93.5 186.2,89.1 
		197.2,87 	"/>
	<polygon class="st0" points="136.1,137.1 130.1,131.1 129.5,127.5 128.3,120.4 126.5,109.4 126.3,108.2 125.1,101 124.1,95 
		126,87.2 142.8,17.1 139.2,82 138.9,86.7 138.5,94.7 138.2,98.4 137,120 136.5,128.7 136.1,136.8 	"/>
	<polygon class="st0" points="239.8,114.1 169.7,131 162,132.9 156,131.9 148.7,130.7 147.6,130.5 136.5,128.7 137,120 158.5,118.7 
		162.2,118.5 170.2,118.1 174.9,117.8 	"/>
	<path class="st0" d="M212.6,141.4l-47.7,1.8l0,0l-21.8,1c-0.4-0.4-0.8-0.9-1.3-1.3l-5.8-5.8l0-0.3l0.5-8.2l11.1,1.8l1.1,0.2
		l7.2,1.2l6,1l6.6,1.1L212.6,141.4z"/>
	<polygon class="st0" points="130.1,131.1 113,114 113.8,92 113.8,92 115.6,44.3 123,88.4 124.1,95 125.1,101 126.3,108.2 
		126.5,109.4 128.3,120.4 129.5,127.5 	"/>
</g>
</svg>
