<?xml version="1.0" encoding="utf-8"?>
<!-- Generator: Adobe Illustrator 22.1.0, SVG Export Plug-In . SVG Version: 6.00 Build 0)  -->
<svg version="1.1" id="Layer_1" xmlns="http://www.w3.org/2000/svg" xmlns:xlink="http://www.w3.org/1999/xlink" x="0px" y="0px"
	 viewBox="0 0 256 256" style="enable-background:new 0 0 256 256;" xml:space="preserve">
<style type="text/css">
	.st0{fill:none;stroke:#464646;stroke-width:8;stroke-linecap:round;stroke-linejoin:round;stroke-miterlimit:10;}
	.st1{fill:none;}
	.st2{opacity:0.15;fill:none;}
	.st3{opacity:0.1;}
	.st4{fill:none;stroke:#656566;stroke-width:8;stroke-linecap:round;stroke-linejoin:round;stroke-miterlimit:10;}
	.st5{opacity:0.1;fill:none;}
	.st6{opacity:0.2;fill:none;}
	.st7{fill:none;stroke:#6D6E71;stroke-width:5;stroke-linecap:round;stroke-linejoin:round;stroke-miterlimit:10;}
	.st8{opacity:0.15;}
	.st9{fill:none;stroke:#6D6E71;stroke-width:10;stroke-linecap:round;stroke-linejoin:round;stroke-miterlimit:10;}
</style>
<g>
	<ellipse class="st0" cx="128" cy="128" rx="123.9" ry="124"/>
	<path class="st0" d="M135.3,143.3v85.7c23.4,1.1,43.9-6.7,60.5-26.1L135.3,143.3z"/>
	<path class="st0" d="M122,113.6V27.9C98.6,26.8,78.1,34.6,61.5,54L122,113.6z"/>
	<path class="st0" d="M143.8,134.2l60.5,60.6c17.4-15.8,26.3-35.8,24.3-61.3L143.8,134.2z"/>
	<path class="st0" d="M113.4,122.6L52.9,62c-17.4,15.8-26.3,35.8-24.3,61.3L113.4,122.6z"/>
	<path class="st0" d="M143.5,121.7h85.6c1.1-23.4-6.7-43.9-26.1-60.5L143.5,121.7z"/>
	<path class="st0" d="M113.8,135.1H28.2c-1.1,23.4,6.7,43.9,26.1,60.5L113.8,135.1z"/>
	<path class="st0" d="M134.4,113.2l60.5-60.6c-15.8-17.4-35.8-26.3-61.2-24.3L134.4,113.2z"/>
	<path class="st0" d="M122.9,143.6l-60.5,60.6c15.8,17.4,35.8,26.3,61.2,24.3L122.9,143.6z"/>
</g>
</svg>
