<?xml version="1.0" encoding="utf-8"?>
<!-- Generator: Adobe Illustrator 22.1.0, SVG Export Plug-In . SVG Version: 6.00 Build 0)  -->
<svg version="1.1" id="Layer_1" xmlns="http://www.w3.org/2000/svg" xmlns:xlink="http://www.w3.org/1999/xlink" x="0px" y="0px"
	 viewBox="0 0 256 256" style="enable-background:new 0 0 256 256;" xml:space="preserve">
<style type="text/css">
	.st0{fill:none;stroke:#464646;stroke-width:8;stroke-linecap:round;stroke-linejoin:round;stroke-miterlimit:10;}
	.st1{fill:none;}
	.st2{opacity:0.15;fill:none;}
	.st3{opacity:0.1;}
	.st4{fill:none;stroke:#656566;stroke-width:8;stroke-linecap:round;stroke-linejoin:round;stroke-miterlimit:10;}
	.st5{opacity:0.1;fill:none;}
	.st6{opacity:0.2;fill:none;}
	.st7{fill:none;stroke:#6D6E71;stroke-width:5;stroke-linecap:round;stroke-linejoin:round;stroke-miterlimit:10;}
	.st8{opacity:0.15;}
	.st9{fill:none;stroke:#6D6E71;stroke-width:10;stroke-linecap:round;stroke-linejoin:round;stroke-miterlimit:10;}
</style>
<g>
	<g>
		<path class="st0" d="M208.5,95.5l-4.2,4.2l-52.7,52.8v74.7c-19.1,0-38.2-7.3-52.7-21.9l-17.6,17.6c14.5,14.6,32.4,23.7,51.2,27.3
			c-6.4,1.2-13.1,1.9-19.9,1.9C53.2,252,5,203.8,5,144.3C5,96.5,36.1,55.9,79.2,41.9c4.6-1.5,9.2-2.7,14.1-3.6
			c23.7,15,47.7,19.4,71.9,12C183.7,60.7,198.8,76.5,208.5,95.5z"/>
		<path class="st0" d="M72.8,21c-2.3-4.3-5.3-8.7-9.1-13.8"/>
		<path class="st0" d="M74.3,24c2.6,5.5,4.2,11.1,4.9,17.9c0.5,5,0.6,10.7,0.3,17.5"/>
		<path class="st0" d="M228.4,4c-21.3,24.7-42.4,39.9-63.3,46.3c-24.3,7.4-48.3,3-71.9-12c-6.3-4-12.7-8.8-19-14.4c-0.5-1-1-2-1.5-3
			c15.5-9,31.5-18.5,59.6-16.5C161.1,6.6,181.5,10.2,228.4,4z"/>
		<path class="st0" d="M30.3,159.4c2.1,17.9,13.1,39.6,31,51.3"/>
	</g>
	<path class="st5" d="M137.4,250.2c-7.1,3.9-15.1,5.5-25,3.6c-1.5-0.3-2.9-0.6-4.4-1c1.8,0.1,3.5,0.1,5.3,0.1
		C121.6,252.9,129.7,252,137.4,250.2z"/>
	<path class="st5" d="M220.5,144.4c-0.1-20.6-6.1-39.9-16.2-56.2C221.2,106.4,225.1,125.4,220.5,144.4z"/>
	<path class="st0" d="M221.9,222.8c-24.3,24.3-58,33.4-89.4,27.3c-18.7-3.7-36.7-12.8-51.2-27.3l17.6-17.6
		c14.6,14.6,33.6,21.9,52.7,21.9c15.5,0,31-4.8,44.1-14.4c0,0,0,0,0,0c3-2.2,5.9-4.7,8.6-7.4c14.6-14.6,21.8-33.7,21.8-52.8
		c0-13-3.3-25.9-10-37.5c-3.2-5.5-7.1-10.6-11.8-15.3l4.2-4.2L221.9,82C260.7,120.9,260.7,184,221.9,222.8z"/>
	<g>
		<path class="st0" d="M151.6,152.4v74.7c-19.1,0-38.2-7.3-52.7-21.9L151.6,152.4z"/>
		<path class="st0" d="M204.3,205.2c-2.7,2.7-5.6,5.2-8.6,7.4c0,0,0,0,0,0c-13.1,9.6-28.6,14.4-44.1,14.4v-74.7l50.9,51L204.3,205.2
			z"/>
		<path class="st0" d="M226.1,152.4c0,19.1-7.3,38.2-21.8,52.8l-1.8-1.8l-50.9-51H226.1z"/>
		<path class="st0" d="M226.1,152.4h-74.6l52.7-52.8c4.7,4.7,8.6,9.9,11.8,15.3C222.8,126.5,226.1,139.5,226.1,152.4z"/>
	</g>
</g>
</svg>
