<?xml version="1.0" encoding="utf-8"?>
<!-- Generator: Adobe Illustrator 22.1.0, SVG Export Plug-In . SVG Version: 6.00 Build 0)  -->
<svg version="1.1" id="Layer_1" xmlns="http://www.w3.org/2000/svg" xmlns:xlink="http://www.w3.org/1999/xlink" x="0px" y="0px"
	 viewBox="0 0 256 256" style="enable-background:new 0 0 256 256;" xml:space="preserve">
<style type="text/css">
	.st0{fill:none;stroke:#464646;stroke-width:8;stroke-linecap:round;stroke-linejoin:round;stroke-miterlimit:10;}
	.st1{fill:none;}
	.st2{opacity:0.15;fill:none;}
	.st3{opacity:0.1;}
	.st4{fill:none;stroke:#656566;stroke-width:8;stroke-linecap:round;stroke-linejoin:round;stroke-miterlimit:10;}
	.st5{opacity:0.1;fill:none;}
	.st6{opacity:0.2;fill:none;}
	.st7{fill:none;stroke:#6D6E71;stroke-width:5;stroke-linecap:round;stroke-linejoin:round;stroke-miterlimit:10;}
	.st8{opacity:0.15;}
	.st9{fill:none;stroke:#6D6E71;stroke-width:10;stroke-linecap:round;stroke-linejoin:round;stroke-miterlimit:10;}
</style>
<g>
	<path class="st0" d="M170.8,139.1c-0.9,1.5-1.9,3-3.1,4.3c4.5,5.1,11.1,8.3,18.4,8.3c1.5,0,2.9-0.1,4.3-0.4
		c11.6-2,20.4-12.1,20.4-24.3c0-11.2-7.5-20.7-17.7-23.7c-2.2-0.6-4.5-1-6.9-1c-7.3,0-13.9,3.2-18.4,8.3c2.8,3.1,4.7,6.9,5.7,11.1
		c0.4,1.7,0.6,3.5,0.6,5.4C174,131.3,172.9,135.5,170.8,139.1z"/>
	<path class="st0" d="M153.2,163.7c0,2.5-0.4,5-1.1,7.3c9.8,1.1,17.9,8,20.8,17.1c11.8-1.8,20.9-12,20.9-24.4
		c0-4.5-1.2-8.8-3.4-12.5c-1.4,0.3-2.8,0.4-4.3,0.4c-7.3,0-13.9-3.2-18.4-8.3c-4.4,4.9-10.7,8.1-17.7,8.2
		C152.1,155.1,153.2,159.3,153.2,163.7z"/>
	<path class="st0" d="M103.9,163.7c0,2.6,0.4,5.1,1.1,7.4c0.8,2.4,1.9,4.7,3.3,6.7c4,5.7,10.2,9.6,17.5,10.4
		c0.9,0.1,1.8,0.2,2.7,0.2c1.3,0,2.6-0.1,3.9-0.3c6.8-1.1,12.7-5,16.4-10.4c1.4-2,2.5-4.3,3.2-6.7c0.7-2.3,1.1-4.7,1.1-7.3
		c0-4.4-1.1-8.5-3.2-12.1c-0.2,0-0.4,0-0.6,0c-0.6,0-1.1,0-1.6-0.1c-7.7-0.5-14.4-4.5-18.6-10.5c-4.3,6.2-11.4,10.3-19.5,10.5
		c-0.2,0-0.5,0-0.7,0c-0.6,0-1.2,0-1.8-0.1C105.1,155.1,103.9,159.2,103.9,163.7z"/>
	<path class="st0" d="M63.6,163.7c0,12.7,9.6,23.1,21.9,24.5c2.7-8.9,10.3-15.6,19.6-17.1c-0.7-2.3-1.1-4.8-1.1-7.4
		c0-4.4,1.2-8.6,3.2-12.2c-7.2-0.5-13.6-4.2-17.7-9.6c-4.5,5.9-11.6,9.7-19.6,9.7c-1,0-2-0.1-3-0.2C64.7,155,63.6,159.2,63.6,163.7z
		"/>
	<path class="st0" d="M129.2,209.6c4.4,6.4,11.8,10.6,20.2,10.6c0.9,0,1.8,0,2.7-0.1c12.3-1.4,21.9-11.8,21.9-24.5
		c0-2.6-0.4-5-1.1-7.4c-2.9-9.2-11-16.1-20.8-17.1c-0.7,2.4-1.8,4.7-3.2,6.7c-3.7,5.4-9.6,9.3-16.4,10.4c0.7,2.3,1.1,4.8,1.1,7.4
		c0,2.6-0.4,5.1-1.2,7.5C131.7,205.3,130.6,207.6,129.2,209.6z"/>
	<path class="st0" d="M84.3,195.5c0,12.3,9,22.5,20.8,24.4c1.3,0.2,2.6,0.3,3.9,0.3c8.4,0,15.8-4.2,20.2-10.6c1.4-2,2.5-4.2,3.3-6.6
		c0.8-2.4,1.2-4.9,1.2-7.5c0-2.6-0.4-5.1-1.1-7.4c-1.3,0.2-2.6,0.3-3.9,0.3c-0.9,0-1.8,0-2.7-0.2c-7.2-0.8-13.5-4.7-17.5-10.4
		c-1.4-2-2.6-4.3-3.3-6.7c-9.3,1.5-16.9,8.2-19.6,17.1C84.7,190.5,84.3,192.9,84.3,195.5z"/>
	<path class="st0" d="M103.9,227.3c0,13.6,11,24.7,24.6,24.7c13.6,0,24.6-11.1,24.6-24.7c0-2.6-0.4-5-1.1-7.3
		c-0.9,0.1-1.8,0.1-2.7,0.1c-8.4,0-15.8-4.2-20.2-10.6c-4.4,6.4-11.8,10.6-20.2,10.6c-1.3,0-2.6-0.1-3.9-0.3
		C104.3,222.2,103.9,224.7,103.9,227.3z"/>
	<path class="st0" d="M150.4,102.2c6.9,0.3,13.1,3.4,17.4,8.2c4.5-5.1,11.1-8.3,18.4-8.3c2.4,0,4.7,0.3,6.9,1c0.5-1.9,0.7-3.9,0.7-6
		c0-13.6-11-24.7-24.6-24.7c-7.2,0-13.7,3.1-18.2,8c1.4,3.1,2.2,6.6,2.2,10.2C153.2,94.9,152.2,98.8,150.4,102.2z"/>
	<path class="st0" d="M84.3,126.9c0,4.4,1.1,8.5,3.2,12.1c0.6,1,1.2,2,1.9,2.9c4.1,5.4,10.5,9.1,17.7,9.6c0.6,0.1,1.2,0.1,1.8,0.1
		c0.2,0,0.5,0,0.7,0c8.1-0.2,15.2-4.3,19.5-10.5c0.4-0.6,0.9-1.3,1.2-1.9c2-3.6,3.2-7.7,3.2-12.2c0-4.2-1-8.1-2.9-11.5
		c-0.5-0.9-1-1.7-1.6-2.6c-3.8-5.5-9.9-9.4-16.9-10.3c-1.1-0.1-2.2-0.2-3.3-0.2c-0.7,0-1.5,0-2.2,0.1c-7.1,0.6-13.3,4.2-17.4,9.6
		c-2.2,2.8-3.7,6.2-4.5,9.8C84.5,123.4,84.3,125.1,84.3,126.9z"/>
	<path class="st0" d="M63.6,97.2c0,1.9,0.2,3.8,0.7,5.7c1.8-0.4,3.7-0.7,5.6-0.7c8,0,15.1,3.8,19.6,9.7c4.1-5.3,10.3-9,17.4-9.6
		c-1.8-3.4-2.9-7.4-2.9-11.5c0-3.7,0.8-7.2,2.3-10.4c-4.5-4.8-10.9-7.8-18-7.8C74.6,72.6,63.6,83.6,63.6,97.2z"/>
	<path class="st0" d="M45.2,126.9c0,12.6,9.4,23,21.6,24.5c1,0.1,2,0.2,3,0.2c8,0,15.1-3.8,19.6-9.7c-0.7-0.9-1.3-1.9-1.9-2.9
		c-2-3.6-3.2-7.7-3.2-12.1c0-1.8,0.2-3.5,0.6-5.2c0.8-3.6,2.3-6.9,4.5-9.8c-4.5-5.9-11.6-9.7-19.6-9.7c-1.9,0-3.8,0.2-5.6,0.7
		C53.3,105.4,45.2,115.2,45.2,126.9z"/>
	<path class="st0" d="M130.4,139.1c-0.4,0.7-0.8,1.3-1.2,1.9c4.1,6,10.9,10,18.6,10.5c0.5,0,1.1,0.1,1.6,0.1c0.2,0,0.4,0,0.6,0
		c7.1-0.2,13.4-3.3,17.7-8.2c1.2-1.3,2.2-2.7,3.1-4.3c2-3.6,3.2-7.7,3.2-12.1c0-1.8-0.2-3.6-0.6-5.4c-0.9-4.2-2.9-8-5.7-11.1
		c-4.3-4.8-10.5-8-17.4-8.2c-0.3,0-0.7,0-1,0c-1.4,0-2.9,0.1-4.2,0.4c-6.6,1.1-12.3,4.9-16,10.2c0.6,0.8,1.1,1.7,1.6,2.6
		c1.8,3.4,2.9,7.4,2.9,11.5C133.6,131.3,132.4,135.5,130.4,139.1z"/>
	<path class="st0" d="M103.9,90.8c0,4.2,1,8.1,2.9,11.5c0.7-0.1,1.4-0.1,2.2-0.1c1.1,0,2.2,0.1,3.3,0.2c7,0.9,13.1,4.8,16.9,10.3
		c3.7-5.3,9.4-9.1,16-10.2c1.4-0.2,2.8-0.4,4.2-0.4c0.3,0,0.7,0,1,0c1.8-3.4,2.8-7.3,2.8-11.5c0-3.6-0.8-7.1-2.2-10.2
		c-3.7-8.3-11.9-14.1-21.5-14.5c-0.3,0-0.6,0-0.9,0c-9.9,0-18.4,5.9-22.4,14.3C104.7,83.6,103.9,87.1,103.9,90.8z"/>
	<path class="st0" d="M129.5,66.1c0.2-23.5,10.7-36.4,30.4-52.3"/>
	<path class="st0" d="M53.4,43.2C64.5,58.1,75.7,61,87,50.9l-8.2,18.9l28.4-11.1l-0.3,9.2c16.6-7.1,16.5-18.6,11.8-33.6l0,0
		c2.9-19.9-6.1-30-27.1-30.2l6.8,7.4c-9.5-1.9-19.5-0.4-29.7,3.6c3.3,6.1,8.5,10.8,15.7,14C67.3,26,62.6,32.3,53.4,43.2z"/>
	<line class="st0" x1="118.6" y1="34.2" x2="144" y2="28.5"/>
</g>
</svg>
