<?xml version="1.0" encoding="utf-8"?>
<!-- Generator: Adobe Illustrator 22.1.0, SVG Export Plug-In . SVG Version: 6.00 Build 0)  -->
<svg version="1.1" id="Layer_1" xmlns="http://www.w3.org/2000/svg" xmlns:xlink="http://www.w3.org/1999/xlink" x="0px" y="0px"
	 viewBox="0 0 256 256" style="enable-background:new 0 0 256 256;" xml:space="preserve">
<style type="text/css">
	.st0{fill:none;stroke:#464646;stroke-width:8;stroke-linecap:round;stroke-linejoin:round;stroke-miterlimit:10;}
	.st1{fill:none;}
	.st2{opacity:0.15;fill:none;}
	.st3{opacity:0.1;}
	.st4{fill:none;stroke:#656566;stroke-width:8;stroke-linecap:round;stroke-linejoin:round;stroke-miterlimit:10;}
	.st5{opacity:0.1;fill:none;}
	.st6{opacity:0.2;fill:none;}
	.st7{fill:none;stroke:#6D6E71;stroke-width:5;stroke-linecap:round;stroke-linejoin:round;stroke-miterlimit:10;}
	.st8{opacity:0.15;}
	.st9{fill:none;stroke:#6D6E71;stroke-width:10;stroke-linecap:round;stroke-linejoin:round;stroke-miterlimit:10;}
</style>
<g>
	<g>
		<path class="st0" d="M169.5,111.3c16.6,0,31.7,6.8,42.6,17.7l-42.6,42.6h0v60.3c-16.6,0-31.7-6.8-42.6-17.7
			c-10.9-10.9-17.6-26-17.6-42.6s6.7-31.7,17.6-42.6C137.8,118.1,152.9,111.3,169.5,111.3z"/>
		<path class="st0" d="M143.7,247.8c-9.5,2.8-19.5,4.2-29.9,4.2C54.4,252,6.2,203.8,6.2,144.3c0-47.8,31.1-88.3,74.2-102.4
			c4.6-1.5,9.3-2.7,14.1-3.6c23.7,15,47.7,19.4,72,12c21.4,12,38.3,31.2,47.4,54.3c-12.7-8.4-28-13.4-44.4-13.4
			c-44.4,0-80.3,36-80.3,80.4C89.2,207,112,237,143.7,247.8z"/>
		<path class="st0" d="M74,21c-2.3-4.3-5.3-8.7-9.1-13.8"/>
		<path class="st0" d="M75.5,24c2.6,5.5,4.2,11.1,4.9,17.9c0.5,5,0.6,10.7,0.3,17.5"/>
		<path class="st0" d="M229.7,4c-21.3,24.7-42.4,39.9-63.3,46.3c-24.3,7.4-48.3,3-72-12c-6.3-4-12.7-8.8-19-14.4c-0.5-1-1-2-1.5-3
			c15.5-9,31.5-18.5,59.6-16.5C162.3,6.6,182.7,10.2,229.7,4z"/>
		<path class="st0" d="M31.5,159.4c2.1,17.9,13.1,39.6,31,51.3"/>
	</g>
	<g>
		<path class="st0" d="M213.8,104.6c-12.7-8.4-28-13.4-44.4-13.4c-44.4,0-80.3,36-80.3,80.4c0,35.4,22.8,65.4,54.6,76.2
			c8.1,2.7,16.8,4.2,25.8,4.2c44.4,0,80.3-36,80.3-80.4C249.8,143.6,235.5,119,213.8,104.6z M212.1,214.2
			c-9.2,9.2-21.4,15.5-35.1,17.2c-2.5,0.3-5,0.5-7.5,0.5c-16.6,0-31.7-6.8-42.6-17.7c-10.9-10.9-17.6-26-17.6-42.6
			s6.7-31.7,17.6-42.6c10.9-10.9,26-17.7,42.6-17.7c16.6,0,31.7,6.8,42.6,17.7c3.6,3.6,6.7,7.6,9.3,12c5.3,9,8.4,19.5,8.4,30.7
			C229.7,188.3,223,203.3,212.1,214.2z"/>
		<path class="st0" d="M229.7,171.6c0,16.7-6.7,31.7-17.6,42.6l-9.3-9.3l-33.3-33.3H229.7z"/>
		<path class="st0" d="M229.7,171.6h-60.2l42.6-42.6c3.6,3.6,6.7,7.6,9.3,12C226.7,149.9,229.7,160.4,229.7,171.6z"/>
		<path class="st0" d="M212.1,214.2c-9.2,9.2-21.4,15.5-35.1,17.2c-2.5,0.3-5,0.5-7.5,0.5v-60.3h0l33.3,33.3L212.1,214.2z"/>
		<path class="st0" d="M169.5,111.3v60.3L126.9,129C137.8,118.1,152.9,111.3,169.5,111.3z"/>
		<path class="st0" d="M169.5,171.6L169.5,171.6l-60.2,0c0-16.7,6.7-31.7,17.6-42.6L169.5,171.6z"/>
		<path class="st0" d="M169.5,171.6l-42.6,42.6c-10.9-10.9-17.6-26-17.6-42.6H169.5z"/>
		<path class="st0" d="M169.5,171.6v60.3c-16.6,0-31.7-6.8-42.6-17.7L169.5,171.6z"/>
		<path class="st0" d="M212.1,129l-42.6,42.6h0v-60.3C186.1,111.3,201.2,118.1,212.1,129z"/>
	</g>
</g>
</svg>
