<?xml version="1.0" encoding="utf-8"?>
<!-- Generator: Adobe Illustrator 22.1.0, SVG Export Plug-In . SVG Version: 6.00 Build 0)  -->
<svg version="1.1" id="Layer_1" xmlns="http://www.w3.org/2000/svg" xmlns:xlink="http://www.w3.org/1999/xlink" x="0px" y="0px"
	 viewBox="0 0 256 256" style="enable-background:new 0 0 256 256;" xml:space="preserve">
<style type="text/css">
	.st0{fill:none;stroke:#464646;stroke-width:8;stroke-linecap:round;stroke-linejoin:round;stroke-miterlimit:10;}
	.st1{fill:none;}
	.st2{opacity:0.15;fill:none;}
	.st3{opacity:0.1;}
	.st4{fill:none;stroke:#656566;stroke-width:8;stroke-linecap:round;stroke-linejoin:round;stroke-miterlimit:10;}
	.st5{opacity:0.1;fill:none;}
	.st6{opacity:0.2;fill:none;}
	.st7{fill:none;stroke:#6D6E71;stroke-width:5;stroke-linecap:round;stroke-linejoin:round;stroke-miterlimit:10;}
	.st8{opacity:0.15;}
	.st9{fill:none;stroke:#6D6E71;stroke-width:10;stroke-linecap:round;stroke-linejoin:round;stroke-miterlimit:10;}
</style>
<g>
	<path class="st0" d="M117.7,7.6c-1.9,1.5-7,5.9-11.3,5.9c-4.3,0-9.6-5.9-9.6-5.9s-5.8,24.7-19.4,29.6C24.1,53.6,4.1,79.2,4.1,141
		c0,71,58.4,111,118.1,111c62.2,0,126.9-47.4,129.2-106.7c1.8-24.9-1.8-40.7-7.2-58.4c-6.4-25.2-44.6-42.3-49.6-44
		c-14.8-5.3-32.5-4.3-46.7-16.6C138.2,15.5,138.5,4,138.5,4s-5.4,0.6-10.5,0.3C122.8,4,119.6,6.1,117.7,7.6z"/>
	<path class="st0" d="M28.5,157.7c6.6,25.5,20.1,44.8,39.4,59.1"/>
</g>
</svg>
