<?xml version="1.0" encoding="utf-8"?>
<!-- Generator: Adobe Illustrator 22.1.0, SVG Export Plug-In . SVG Version: 6.00 Build 0)  -->
<svg version="1.1" id="Layer_1" xmlns="http://www.w3.org/2000/svg" xmlns:xlink="http://www.w3.org/1999/xlink" x="0px" y="0px"
	 viewBox="0 0 256 256" style="enable-background:new 0 0 256 256;" xml:space="preserve">
<style type="text/css">
	.st0{fill:#464646;stroke:#464646;stroke-width:8;stroke-linecap:round;stroke-linejoin:round;stroke-miterlimit:10;}
	.st1{fill:#464646;stroke:#FFFFFF;stroke-width:8;stroke-linecap:round;stroke-linejoin:round;stroke-miterlimit:10;}
	.st2{opacity:0.15;fill:#464646;stroke:#FFFFFF;stroke-miterlimit:10;}
	.st3{fill:#464646;stroke:#FFFFFF;stroke-miterlimit:10;}
	.st4{fill:none;stroke:#464646;stroke-width:8;stroke-linecap:round;stroke-linejoin:round;stroke-miterlimit:10;}
	.st5{opacity:0.1;}
	.st6{opacity:0.3;fill:#464646;stroke:#FFFFFF;stroke-miterlimit:10;}
	.st7{fill:#FFFFFF;stroke:#464646;stroke-width:8;stroke-linecap:round;stroke-linejoin:round;stroke-miterlimit:10;}
	.st8{opacity:0.1;fill:#464646;stroke:#FFFFFF;stroke-miterlimit:10;}
	.st9{fill:none;stroke:#6D6E71;stroke-width:5;stroke-linecap:round;stroke-linejoin:round;stroke-miterlimit:10;}
	.st10{fill:none;stroke:#FFFFFF;stroke-width:8;stroke-linecap:round;stroke-linejoin:round;stroke-miterlimit:10;}
	.st11{opacity:0.15;}
	.st12{fill:#FFFFFF;}
	.st13{fill:#464646;stroke:#464646;stroke-width:10;stroke-linecap:round;stroke-linejoin:round;stroke-miterlimit:10;}
	.st14{fill:#464646;stroke:#464646;stroke-miterlimit:10;}
	.st15{fill:#464646;stroke:#FFFFFF;stroke-width:8;stroke-miterlimit:10;}
	.st16{opacity:0.2;fill:#464646;stroke:#FFFFFF;stroke-miterlimit:10;}
</style>
<g>
	<g>
		<path class="st1" d="M231.8,171.6h-60.2v60.3c-16.6,0-31.7-6.8-42.6-17.7c-10.9-10.9-17.6-26-17.6-42.6c0-16.7,6.7-31.7,17.6-42.6
			c10.9-10.9,26-17.7,42.6-17.7s31.7,6.8,42.6,17.7C225.1,139.9,231.8,155,231.8,171.6z"/>
		<path class="st1" d="M246.5,142.6c-11.6-30.1-40.8-51.4-74.9-51.4c-44.4,0-80.3,36-80.3,80.4c0,34.1,21.3,63.3,51.3,75
			c-37.9,12.1-70.5,2.3-85.9-13.1c0,0-26.1,12-37.2,0.8c-11.1-11.1,0.9-37.2,0.9-37.2c-23.6-23.6-26.8-95,27.5-149.4
			S173.5-3.4,197.1,20.2c0,0,26.1-12,37.2-0.8c11.1,11.1-0.8,37.2-0.8,37.2C248.8,72,258.5,104.7,246.5,142.6z"/>
		<path class="st1" d="M31.3,164.6c-5.9-20.4-4.1-40.7,5.5-61.1"/>
	</g>
	<g>
		<path class="st1" d="M246.5,142.6c-11.6-30.1-40.8-51.4-74.9-51.4c-44.4,0-80.3,36-80.3,80.4c0,34.1,21.3,63.3,51.3,75
			c9,3.5,18.8,5.4,29,5.4c44.4,0,80.3-36,80.3-80.4C251.9,161.4,249.9,151.6,246.5,142.6z M231.7,173.9
			c-0.6,15.7-7.2,29.9-17.6,40.3c-10.4,10.4-24.5,17-40.2,17.6c-0.8,0-1.6,0-2.3,0c-16.6,0-31.7-6.8-42.6-17.7
			c-10.9-10.9-17.6-26-17.6-42.6c0-16.7,6.7-31.7,17.6-42.6c10.9-10.9,26-17.7,42.6-17.7s31.7,6.8,42.6,17.7v0
			c10.9,10.9,17.6,26,17.6,42.6C231.8,172.4,231.8,173.2,231.7,173.9z"/>
		<path class="st1" d="M231.8,171.6h-60.2l42.6-42.6C225,139.9,231.8,155,231.8,171.6z"/>
		<path class="st1" d="M214.1,214.2c-10.4,10.4-24.5,17-40.2,17.6c-0.8,0-1.6,0-2.3,0v-60.3L214.1,214.2z"/>
		<path class="st1" d="M231.8,171.6c0,0.8,0,1.6,0,2.3c-0.6,15.7-7.2,29.9-17.6,40.3l-42.6-42.6H231.8z"/>
		<path class="st1" d="M171.6,111.3v60.3L129,129C139.9,118.1,154.9,111.3,171.6,111.3z"/>
		<path class="st1" d="M171.6,171.6h-60.2c0-16.7,6.7-31.7,17.6-42.6L171.6,171.6z"/>
		<path class="st1" d="M171.6,171.6L129,214.2c-10.9-10.9-17.6-26-17.6-42.6H171.6z"/>
		<path class="st1" d="M171.6,171.6v60.3c-16.6,0-31.7-6.8-42.6-17.7L171.6,171.6z"/>
		<line class="st1" x1="214.2" y1="129" x2="214.1" y2="129"/>
	</g>
</g>
</svg>
