<?xml version="1.0" encoding="utf-8"?>
<!-- Generator: Adobe Illustrator 22.1.0, SVG Export Plug-In . SVG Version: 6.00 Build 0)  -->
<svg version="1.1" id="Layer_1" xmlns="http://www.w3.org/2000/svg" xmlns:xlink="http://www.w3.org/1999/xlink" x="0px" y="0px"
	 viewBox="0 0 256 256" style="enable-background:new 0 0 256 256;" xml:space="preserve">
<style type="text/css">
	.st0{fill:#464646;stroke:#464646;stroke-width:8;stroke-linecap:round;stroke-linejoin:round;stroke-miterlimit:10;}
	.st1{fill:#464646;stroke:#FFFFFF;stroke-width:8;stroke-linecap:round;stroke-linejoin:round;stroke-miterlimit:10;}
	.st2{opacity:0.15;fill:#464646;stroke:#FFFFFF;stroke-miterlimit:10;}
	.st3{fill:#464646;stroke:#FFFFFF;stroke-miterlimit:10;}
	.st4{fill:none;stroke:#464646;stroke-width:8;stroke-linecap:round;stroke-linejoin:round;stroke-miterlimit:10;}
	.st5{opacity:0.1;}
	.st6{opacity:0.3;fill:#464646;stroke:#FFFFFF;stroke-miterlimit:10;}
	.st7{fill:#FFFFFF;stroke:#464646;stroke-width:8;stroke-linecap:round;stroke-linejoin:round;stroke-miterlimit:10;}
	.st8{opacity:0.1;fill:#464646;stroke:#FFFFFF;stroke-miterlimit:10;}
	.st9{fill:none;stroke:#6D6E71;stroke-width:5;stroke-linecap:round;stroke-linejoin:round;stroke-miterlimit:10;}
	.st10{fill:none;stroke:#FFFFFF;stroke-width:8;stroke-linecap:round;stroke-linejoin:round;stroke-miterlimit:10;}
	.st11{opacity:0.15;}
	.st12{fill:#FFFFFF;}
	.st13{fill:#464646;stroke:#464646;stroke-width:10;stroke-linecap:round;stroke-linejoin:round;stroke-miterlimit:10;}
	.st14{fill:#464646;stroke:#464646;stroke-miterlimit:10;}
	.st15{fill:#464646;stroke:#FFFFFF;stroke-width:8;stroke-miterlimit:10;}
	.st16{opacity:0.2;fill:#464646;stroke:#FFFFFF;stroke-miterlimit:10;}
</style>
<g>
	<path class="st0" d="M83.7,22.7c0,0,57.2-19.4,81.9-18.6c58,4.9,84.9,56.9,84.9,56.9S239,56.6,225,55.5c-14-1.2-23.1,6.4-43.5,2
		s-40.9-22.9-53.6-27.2S83.7,22.7,83.7,22.7z"/>
	<path class="st0" d="M64.1,123.9c-6.9-2-27.9-21.1-43-9.9S3.4,140.7,6.7,162.4S26,199,37.9,202.5c11.9,3.5,43.2-4.8,56.9-22.3
		s13.1-32.9,7.4-45.5S71,125.8,64.1,123.9z"/>
	<path class="st0" d="M157.8,169.2c-7.2,0.1-32.7-12.2-44.1,2.8s-9.3,30.6,0.1,50.5s29,29.5,41.3,29.5s40-16.9,48.1-37.6
		s3.1-35.3-5.9-45.7C188.3,158.2,165,169.1,157.8,169.2z"/>
	<path class="st4" d="M64.1,123.9C89.7,91.7,96.7,58,83.7,22.7c58.6,46.6,80.3,90.4,74,146.5"/>
	<path class="st1" d="M21.7,148.2c0.2,10.5,3.5,20.7,10.7,30.5"/>
</g>
</svg>
