<?xml version="1.0" encoding="utf-8"?>
<!-- Generator: Adobe Illustrator 22.1.0, SVG Export Plug-In . SVG Version: 6.00 Build 0)  -->
<svg version="1.1" id="Layer_1" xmlns="http://www.w3.org/2000/svg" xmlns:xlink="http://www.w3.org/1999/xlink" x="0px" y="0px"
	 viewBox="0 0 256 256" style="enable-background:new 0 0 256 256;" xml:space="preserve">
<style type="text/css">
	.st0{fill:#F5B31F;}
	.st1{fill:none;stroke:#464646;stroke-width:8;stroke-linecap:round;stroke-linejoin:round;stroke-miterlimit:10;}
	.st2{opacity:0.15;fill:#464646;}
	.st3{fill:#AC6535;}
	.st4{fill:#EB573B;}
	.st5{fill:#90C056;}
	.st6{opacity:0.35;fill:#FFFFFF;}
	.st7{opacity:0.2;fill:#FFFFFF;}
	.st8{fill:#F6D67A;}
	.st9{opacity:0.15;fill:#FFFFFF;}
	.st10{opacity:0.3;fill:#FFFFFF;}
	.st11{fill:#AC6535;stroke:#464646;stroke-width:8;stroke-linecap:round;stroke-linejoin:round;stroke-miterlimit:10;}
	.st12{fill:#EB573B;stroke:#464646;stroke-width:8;stroke-miterlimit:10;}
	.st13{opacity:0.15;}
	.st14{fill:#464646;}
	.st15{fill:#FFA755;}
	.st16{fill:#8FAE3C;}
	.st17{fill:#BE6BB2;}
	.st18{fill:#B7C536;}
	.st19{opacity:0.1;}
	.st20{fill:#9D5A96;}
	.st21{fill:#EA615D;}
	.st22{opacity:0.4;fill:#FFFFFF;}
	.st23{opacity:7.000000e-02;}
	.st24{fill:#F79932;}
	.st25{fill:#FFEC97;}
	.st26{fill:#FFD11D;}
	.st27{opacity:0.2;}
	.st28{fill:#FFFFFF;}
	.st29{fill:#F7F2D5;}
	.st30{fill:#F6AF72;}
	.st31{fill:#BA6C45;}
	.st32{opacity:0.5;fill:#FFFFFF;}
	.st33{fill:#E4C074;}
	.st34{fill:none;stroke:#656566;stroke-width:8;stroke-linecap:round;stroke-linejoin:round;stroke-miterlimit:10;}
	.st35{fill:#FFA755;stroke:#464646;stroke-width:8;stroke-linecap:round;stroke-linejoin:round;stroke-miterlimit:10;}
	.st36{fill:#FFD11D;stroke:#464646;stroke-width:8;stroke-linecap:round;stroke-linejoin:round;stroke-miterlimit:10;}
	.st37{fill:#FACD1F;}
	.st38{fill:#FFDF66;}
	.st39{fill:#FFEC97;stroke:#464646;stroke-width:8;stroke-linecap:round;stroke-linejoin:round;stroke-miterlimit:10;}
	.st40{fill:#FFDF66;stroke:#464646;stroke-width:8;stroke-linecap:round;stroke-linejoin:round;stroke-miterlimit:10;}
	.st41{opacity:0.2;fill:#464646;}
	.st42{fill:#FFFFFF;stroke:#464646;stroke-width:8;stroke-linecap:round;stroke-linejoin:round;stroke-miterlimit:10;}
	.st43{fill:#6D6E71;stroke:#464646;stroke-width:8;stroke-linecap:round;stroke-linejoin:round;stroke-miterlimit:10;}
	.st44{opacity:0.1;fill:#464646;}
	.st45{fill:#E77CAE;}
	.st46{fill:#FFE5C4;}
	.st47{fill:#F68455;stroke:#464646;stroke-width:8;stroke-linecap:round;stroke-linejoin:round;stroke-miterlimit:10;}
	.st48{opacity:0.7;}
	.st49{fill:#ADEDFF;}
	.st50{fill:#EC754B;}
	.st51{fill:#4AA5BA;}
	.st52{opacity:0.5;}
	.st53{opacity:0.8;}
	.st54{fill:#F68455;}
	.st55{fill:#92A5AC;}
	.st56{fill:#6D6E71;}
	.st57{fill:#D06E3C;}
	.st58{fill:#DA4F4B;}
	.st59{fill:#BDF3FF;}
	.st60{fill:#F18BB4;}
	.st61{fill:#F9D97A;}
	.st62{fill:none;}
	.st63{fill:#AF6535;}
	.st64{fill:#B93226;}
	.st65{fill:#FF6050;}
	.st66{fill:#D06E3C;stroke:#464646;stroke-miterlimit:10;}
	.st67{fill:#EA7CB1;}
	.st68{fill:none;stroke:#6D6E71;stroke-width:10;stroke-linecap:round;stroke-linejoin:round;stroke-miterlimit:10;}
	.st69{fill:#00B0E0;}
	.st70{fill:#EA7DAE;}
	.st71{opacity:0.1;fill:#FFFFFF;}
	.st72{fill:#BC7532;}
	.st73{fill:#876C6C;}
	.st74{fill:#F9F6CD;}
	.st75{fill:#FFE37B;}
	.st76{fill:#1DDCFF;}
	.st77{fill:#60ACF7;}
	.st78{fill:#C3755A;}
	.st79{fill:#96557A;}
	.st80{fill:#66625D;}
	.st81{fill:#D68032;}
	.st82{opacity:0.8;fill:#FFFFFF;}
	.st83{fill:#F2A355;}
	.st84{fill:#7E9E6A;}
	.st85{opacity:0.3;}
	.st86{fill:#965A85;}
	.st87{opacity:0.7;fill:#FFFFFF;}
	.st88{fill:#90CAD3;}
	.st89{fill:#94B57F;}
	.st90{fill:#B2E2E7;}
	.st91{fill:#FFDF8F;}
	.st92{fill:#FFFAEB;}
	.st93{fill:#F88916;}
	.st94{fill:#FFC86E;}
	.st95{fill:#AFA51D;}
	.st96{fill:#968A1C;}
	.st97{fill:#C3556D;}
</style>
<g>
	<path class="st31" d="M182.8,128.5c0,38.2-37.8,68.5-54.8,68.5c-17,0-54.8-30.4-54.8-68.5c0-27.6,18.5-56.5,36.1-70.4
		c6.4-5,12.7-8.1,17.9-8.4c0.3,0,0.6,0,0.8,0c0.3,0,0.6,0,0.8,0c5.2,0.3,11.5,3.3,17.9,8.4C164.3,72,182.8,100.9,182.8,128.5z"/>
	<path class="st23" d="M146.7,58.1c17.6,13.9,36.1,42.8,36.1,70.4c0,38.2-37.8,68.5-54.8,68.5c-7.6,0-19.2-6-29.9-16.1
		c0,0,24.6,18.4,52-15S146.7,58.1,146.7,58.1z"/>
	<path class="st10" d="M146.7,58.1c-6.4-5-12.7-8.1-17.9-8.4c-0.3,0-0.6,0-0.8,0c-0.3,0-0.6,0-0.8,0c-5.2,0.3-11.5,3.3-17.9,8.4
		C91.7,72,73.2,100.9,73.2,128.5c0,18.2,8.6,34.7,19.5,46.9c0,0-23.6-37.7,2.5-81.7S146.7,58.1,146.7,58.1z"/>
	<path class="st94" d="M194.8,13.5C164,11,149.2,36.8,146.7,58.1c-6.4-5-12.7-8.1-17.9-8.4c-0.3,0-0.6,0-0.8,0c-0.3,0-0.6,0-0.8,0
		c-5.2,0.3-11.5,3.3-17.9,8.4C106.8,36.8,92,11,61.3,13.5c13-6,28.3-9.4,46.2-9.4l41,0C166.4,4,181.8,7.5,194.8,13.5z"/>
	<path class="st0" d="M148.5,252c-7.2,0-11.7-4.2-20.5-4.2c-8.8,0-13.3,4.2-20.5,4.2C1.7,252-36.3,58.8,61.2,13.5h0
		c30.8-2.4,45.5,23.3,48,44.6C91.7,72,73.2,100.9,73.2,128.5c0,38.2,37.8,68.5,54.8,68.5c17,0,54.8-30.4,54.8-68.5
		c0-27.6-18.5-56.5-36.1-70.4c2.5-21.4,17.3-47.1,48.1-44.6h0C292.3,58.8,254.3,252.1,148.5,252z"/>
	<path class="st32" d="M109.3,58.1C106.8,36.8,92,11,61.3,13.5h0C2.3,40.9-7.2,122.3,18,182.5C4.9,72.6,52,0.2,109.3,58.1z"/>
	<path class="st19" d="M194.8,13.5c97.6,45.4,59.5,238.6-46.3,238.6c-7.2,0-11.7-4.2-20.5-4.2c0,0,50.5-1.1,88-81.8
		S194.8,13.5,194.8,13.5z"/>
	<path class="st1" d="M148.5,252c-7.2,0-11.7-4.2-20.5-4.2c-8.8,0-13.3,4.2-20.5,4.2C1.7,252-36.3,58.8,61.2,13.5h0
		c30.8-2.4,45.5,23.3,48,44.6C91.7,72,73.2,100.9,73.2,128.5c0,38.2,37.8,68.5,54.8,68.5c17,0,54.8-30.4,54.8-68.5
		c0-27.6-18.5-56.5-36.1-70.4c2.5-21.4,17.3-47.1,48.1-44.6h0C292.3,58.8,254.3,252.1,148.5,252z"/>
	<path class="st1" d="M194.8,13.5C164,11,149.2,36.8,146.7,58.1c-6.4-5-12.7-8.1-17.9-8.4c-0.3,0-0.6,0-0.8,0c-0.3,0-0.6,0-0.8,0
		c-5.2,0.3-11.5,3.3-17.9,8.4C106.8,36.8,92,11,61.3,13.5c13-6,28.3-9.4,46.2-9.4l41,0C166.4,4,181.8,7.5,194.8,13.5z"/>
	<path class="st1" d="M182.8,128.5c0,38.2-37.8,68.5-54.8,68.5c-17,0-54.8-30.4-54.8-68.5c0-27.6,18.5-56.5,36.1-70.4
		c6.4-5,12.7-8.1,17.9-8.4c0.3,0,0.6,0,0.8,0c0.3,0,0.6,0,0.8,0c5.2,0.3,11.5,3.3,17.9,8.4C164.3,72,182.8,100.9,182.8,128.5z"/>
	<path class="st1" d="M104.8,93.7c-10.9,20.6-13,40.4-3.9,59.4"/>
</g>
</svg>
