<?xml version="1.0" encoding="utf-8"?>
<!-- Generator: Adobe Illustrator 22.1.0, SVG Export Plug-In . SVG Version: 6.00 Build 0)  -->
<svg version="1.1" id="Layer_1" xmlns="http://www.w3.org/2000/svg" xmlns:xlink="http://www.w3.org/1999/xlink" x="0px" y="0px"
	 viewBox="0 0 256 256" style="enable-background:new 0 0 256 256;" xml:space="preserve">
<style type="text/css">
	.st0{fill:#F5B31F;}
	.st1{fill:none;stroke:#464646;stroke-width:8;stroke-linecap:round;stroke-linejoin:round;stroke-miterlimit:10;}
	.st2{opacity:0.15;fill:#464646;}
	.st3{fill:#AC6535;}
	.st4{fill:#EB573B;}
	.st5{fill:#90C056;}
	.st6{opacity:0.35;fill:#FFFFFF;}
	.st7{opacity:0.2;fill:#FFFFFF;}
	.st8{fill:#F6D67A;}
	.st9{opacity:0.15;fill:#FFFFFF;}
	.st10{opacity:0.3;fill:#FFFFFF;}
	.st11{fill:#AC6535;stroke:#464646;stroke-width:8;stroke-linecap:round;stroke-linejoin:round;stroke-miterlimit:10;}
	.st12{fill:#EB573B;stroke:#464646;stroke-width:8;stroke-miterlimit:10;}
	.st13{opacity:0.15;}
	.st14{fill:#464646;}
	.st15{fill:#FFA755;}
	.st16{fill:#8FAE3C;}
	.st17{fill:#BE6BB2;}
	.st18{fill:#B7C536;}
	.st19{opacity:0.1;}
	.st20{fill:#9D5A96;}
	.st21{fill:#EA615D;}
	.st22{opacity:0.4;fill:#FFFFFF;}
	.st23{opacity:7.000000e-02;}
	.st24{fill:#F79932;}
	.st25{fill:#FFEC97;}
	.st26{fill:#FFD11D;}
	.st27{opacity:0.2;}
	.st28{fill:#FFFFFF;}
	.st29{fill:#F7F2D5;}
	.st30{fill:#F6AF72;}
	.st31{fill:#BA6C45;}
	.st32{opacity:0.5;fill:#FFFFFF;}
	.st33{fill:#E4C074;}
	.st34{fill:none;stroke:#656566;stroke-width:8;stroke-linecap:round;stroke-linejoin:round;stroke-miterlimit:10;}
	.st35{fill:#FFA755;stroke:#464646;stroke-width:8;stroke-linecap:round;stroke-linejoin:round;stroke-miterlimit:10;}
	.st36{fill:#FFD11D;stroke:#464646;stroke-width:8;stroke-linecap:round;stroke-linejoin:round;stroke-miterlimit:10;}
	.st37{fill:#FACD1F;}
	.st38{fill:#FFDF66;}
	.st39{fill:#FFEC97;stroke:#464646;stroke-width:8;stroke-linecap:round;stroke-linejoin:round;stroke-miterlimit:10;}
	.st40{fill:#FFDF66;stroke:#464646;stroke-width:8;stroke-linecap:round;stroke-linejoin:round;stroke-miterlimit:10;}
	.st41{opacity:0.2;fill:#464646;}
	.st42{fill:#FFFFFF;stroke:#464646;stroke-width:8;stroke-linecap:round;stroke-linejoin:round;stroke-miterlimit:10;}
	.st43{fill:#6D6E71;stroke:#464646;stroke-width:8;stroke-linecap:round;stroke-linejoin:round;stroke-miterlimit:10;}
	.st44{opacity:0.1;fill:#464646;}
	.st45{fill:#E77CAE;}
	.st46{fill:#FFE5C4;}
	.st47{fill:#F68455;stroke:#464646;stroke-width:8;stroke-linecap:round;stroke-linejoin:round;stroke-miterlimit:10;}
	.st48{opacity:0.7;}
	.st49{fill:#ADEDFF;}
	.st50{fill:#EC754B;}
	.st51{fill:#4AA5BA;}
	.st52{opacity:0.5;}
	.st53{opacity:0.8;}
	.st54{fill:#F68455;}
	.st55{fill:#92A5AC;}
	.st56{fill:#6D6E71;}
	.st57{fill:#D06E3C;}
	.st58{fill:#DA4F4B;}
	.st59{fill:#BDF3FF;}
	.st60{fill:#F18BB4;}
	.st61{fill:#F9D97A;}
	.st62{fill:none;}
	.st63{fill:#AF6535;}
	.st64{fill:#B93226;}
	.st65{fill:#FF6050;}
	.st66{fill:#D06E3C;stroke:#464646;stroke-miterlimit:10;}
	.st67{fill:#EA7CB1;}
	.st68{fill:none;stroke:#6D6E71;stroke-width:10;stroke-linecap:round;stroke-linejoin:round;stroke-miterlimit:10;}
	.st69{fill:#00B0E0;}
	.st70{fill:#EA7DAE;}
	.st71{opacity:0.1;fill:#FFFFFF;}
	.st72{fill:#BC7532;}
	.st73{fill:#876C6C;}
	.st74{fill:#F9F6CD;}
	.st75{fill:#FFE37B;}
	.st76{fill:#1DDCFF;}
	.st77{fill:#60ACF7;}
	.st78{fill:#C3755A;}
	.st79{fill:#96557A;}
	.st80{fill:#66625D;}
	.st81{fill:#D68032;}
	.st82{opacity:0.8;fill:#FFFFFF;}
	.st83{fill:#F2A355;}
	.st84{fill:#7E9E6A;}
	.st85{opacity:0.3;}
	.st86{fill:#965A85;}
	.st87{opacity:0.7;fill:#FFFFFF;}
	.st88{fill:#90CAD3;}
	.st89{fill:#94B57F;}
	.st90{fill:#B2E2E7;}
	.st91{fill:#FFDF8F;}
	.st92{fill:#FFFAEB;}
	.st93{fill:#F88916;}
	.st94{fill:#FFC86E;}
	.st95{fill:#AFA51D;}
	.st96{fill:#968A1C;}
	.st97{fill:#C3556D;}
</style>
<g>
	<path class="st25" d="M127.9,4.2C59.5,4.2,4,59.7,4,128.2c0,68.5,55.5,124,123.9,124c68.4,0,123.9-55.5,123.9-124
		S196.3,4.2,127.9,4.2z M193.6,193.9c-16.8,16.8-40,27.2-65.7,27.2S79,210.8,62.2,193.9C45.4,177.1,35,153.8,35,128.2
		s10.4-48.9,27.2-65.8c16.8-16.8,40-27.2,65.7-27.2c25.7,0,48.9,10.4,65.7,27.2c16.8,16.8,27.2,40.1,27.2,65.8
		S210.4,177.1,193.6,193.9z"/>
	<path class="st38" d="M220.8,128.2l-92.9,0l65.7-65.8C210.4,79.2,220.8,102.5,220.8,128.2z"/>
	<path class="st38" d="M193.6,62.4l-65.7,65.8l0-93C153.5,35.2,176.8,45.6,193.6,62.4z"/>
	<path class="st38" d="M127.9,35.2l0,93L62.2,62.4C79,45.6,102.2,35.2,127.9,35.2z"/>
	<path class="st38" d="M127.9,128.2l-92.9,0c0-25.7,10.4-48.9,27.2-65.8L127.9,128.2z"/>
	<path class="st38" d="M127.9,128.2l-65.7,65.8C45.4,177.1,35,153.8,35,128.2L127.9,128.2z"/>
	<path class="st38" d="M127.9,128.2l0,93c-25.7,0-48.9-10.4-65.7-27.2L127.9,128.2z"/>
	<path class="st38" d="M193.6,193.9c-16.8,16.8-40,27.2-65.7,27.2l0-93L193.6,193.9z"/>
	<path class="st38" d="M220.8,128.2c0,25.7-10.4,48.9-27.2,65.8l-65.7-65.8L220.8,128.2z"/>
	<path class="st1" d="M127.9,4.2C59.5,4.2,4,59.7,4,128.2c0,68.5,55.5,124,123.9,124c68.4,0,123.9-55.5,123.9-124
		S196.3,4.2,127.9,4.2z M193.6,193.9c-16.8,16.8-40,27.2-65.7,27.2S79,210.8,62.2,193.9C45.4,177.1,35,153.8,35,128.2
		s10.4-48.9,27.2-65.8c16.8-16.8,40-27.2,65.7-27.2c25.7,0,48.9,10.4,65.7,27.2c16.8,16.8,27.2,40.1,27.2,65.8
		S210.4,177.1,193.6,193.9z"/>
	<path class="st1" d="M220.8,128.2l-92.9,0l65.7-65.8C210.4,79.2,220.8,102.5,220.8,128.2z"/>
	<path class="st1" d="M193.6,62.4l-65.7,65.8l0-93C153.5,35.2,176.8,45.6,193.6,62.4z"/>
	<path class="st1" d="M127.9,35.2l0,93L62.2,62.4C79,45.6,102.2,35.2,127.9,35.2z"/>
	<path class="st1" d="M127.9,128.2l-92.9,0c0-25.7,10.4-48.9,27.2-65.8L127.9,128.2z"/>
	<path class="st1" d="M127.9,128.2l-65.7,65.8C45.4,177.1,35,153.8,35,128.2L127.9,128.2z"/>
	<path class="st1" d="M127.9,128.2l0,93c-25.7,0-48.9-10.4-65.7-27.2L127.9,128.2z"/>
	<path class="st1" d="M193.6,193.9c-16.8,16.8-40,27.2-65.7,27.2l0-93L193.6,193.9z"/>
	<path class="st1" d="M220.8,128.2c0,25.7-10.4,48.9-27.2,65.8l-65.7-65.8L220.8,128.2z"/>
</g>
</svg>
