<?xml version="1.0" encoding="utf-8"?>
<!-- Generator: Adobe Illustrator 22.1.0, SVG Export Plug-In . SVG Version: 6.00 Build 0)  -->
<svg version="1.1" id="Layer_1" xmlns="http://www.w3.org/2000/svg" xmlns:xlink="http://www.w3.org/1999/xlink" x="0px" y="0px"
	 viewBox="0 0 256 256" style="enable-background:new 0 0 256 256;" xml:space="preserve">
<style type="text/css">
	.st0{fill:#F5B31F;}
	.st1{fill:none;stroke:#464646;stroke-width:8;stroke-linecap:round;stroke-linejoin:round;stroke-miterlimit:10;}
	.st2{opacity:0.15;fill:#464646;}
	.st3{fill:#AC6535;}
	.st4{fill:#EB573B;}
	.st5{fill:#90C056;}
	.st6{opacity:0.35;fill:#FFFFFF;}
	.st7{opacity:0.2;fill:#FFFFFF;}
	.st8{fill:#F6D67A;}
	.st9{opacity:0.15;fill:#FFFFFF;}
	.st10{opacity:0.3;fill:#FFFFFF;}
	.st11{fill:#AC6535;stroke:#464646;stroke-width:8;stroke-linecap:round;stroke-linejoin:round;stroke-miterlimit:10;}
	.st12{fill:#EB573B;stroke:#464646;stroke-width:8;stroke-miterlimit:10;}
	.st13{opacity:0.15;}
	.st14{fill:#464646;}
	.st15{fill:#FFA755;}
	.st16{fill:#8FAE3C;}
	.st17{fill:#BE6BB2;}
	.st18{fill:#B7C536;}
	.st19{opacity:0.1;}
	.st20{fill:#9D5A96;}
	.st21{fill:#EA615D;}
	.st22{opacity:0.4;fill:#FFFFFF;}
	.st23{opacity:7.000000e-02;}
	.st24{fill:#F79932;}
	.st25{fill:#FFEC97;}
	.st26{fill:#FFD11D;}
	.st27{opacity:0.2;}
	.st28{fill:#FFFFFF;}
	.st29{fill:#F7F2D5;}
	.st30{fill:#F6AF72;}
	.st31{fill:#BA6C45;}
	.st32{opacity:0.5;fill:#FFFFFF;}
	.st33{fill:#E4C074;}
	.st34{fill:none;stroke:#656566;stroke-width:8;stroke-linecap:round;stroke-linejoin:round;stroke-miterlimit:10;}
	.st35{fill:#FFA755;stroke:#464646;stroke-width:8;stroke-linecap:round;stroke-linejoin:round;stroke-miterlimit:10;}
	.st36{fill:#FFD11D;stroke:#464646;stroke-width:8;stroke-linecap:round;stroke-linejoin:round;stroke-miterlimit:10;}
	.st37{fill:#FACD1F;}
	.st38{fill:#FFDF66;}
	.st39{fill:#FFEC97;stroke:#464646;stroke-width:8;stroke-linecap:round;stroke-linejoin:round;stroke-miterlimit:10;}
	.st40{fill:#FFDF66;stroke:#464646;stroke-width:8;stroke-linecap:round;stroke-linejoin:round;stroke-miterlimit:10;}
	.st41{opacity:0.2;fill:#464646;}
	.st42{fill:#FFFFFF;stroke:#464646;stroke-width:8;stroke-linecap:round;stroke-linejoin:round;stroke-miterlimit:10;}
	.st43{fill:#6D6E71;stroke:#464646;stroke-width:8;stroke-linecap:round;stroke-linejoin:round;stroke-miterlimit:10;}
	.st44{opacity:0.1;fill:#464646;}
	.st45{fill:#E77CAE;}
	.st46{fill:#FFE5C4;}
	.st47{fill:#F68455;stroke:#464646;stroke-width:8;stroke-linecap:round;stroke-linejoin:round;stroke-miterlimit:10;}
	.st48{opacity:0.7;}
	.st49{fill:#ADEDFF;}
	.st50{fill:#EC754B;}
	.st51{fill:#4AA5BA;}
	.st52{opacity:0.5;}
	.st53{opacity:0.8;}
	.st54{fill:#F68455;}
	.st55{fill:#92A5AC;}
	.st56{fill:#6D6E71;}
	.st57{fill:#D06E3C;}
	.st58{fill:#DA4F4B;}
	.st59{fill:#BDF3FF;}
	.st60{fill:#F18BB4;}
	.st61{fill:#F9D97A;}
	.st62{fill:none;}
	.st63{fill:#AF6535;}
	.st64{fill:#B93226;}
	.st65{fill:#FF6050;}
	.st66{fill:#D06E3C;stroke:#464646;stroke-miterlimit:10;}
	.st67{fill:#EA7CB1;}
	.st68{fill:none;stroke:#6D6E71;stroke-width:10;stroke-linecap:round;stroke-linejoin:round;stroke-miterlimit:10;}
	.st69{fill:#00B0E0;}
	.st70{fill:#EA7DAE;}
	.st71{opacity:0.1;fill:#FFFFFF;}
	.st72{fill:#BC7532;}
	.st73{fill:#876C6C;}
	.st74{fill:#F9F6CD;}
	.st75{fill:#FFE37B;}
	.st76{fill:#1DDCFF;}
	.st77{fill:#60ACF7;}
	.st78{fill:#C3755A;}
	.st79{fill:#96557A;}
	.st80{fill:#66625D;}
	.st81{fill:#D68032;}
	.st82{opacity:0.8;fill:#FFFFFF;}
	.st83{fill:#F2A355;}
	.st84{fill:#7E9E6A;}
	.st85{opacity:0.3;}
	.st86{fill:#965A85;}
	.st87{opacity:0.7;fill:#FFFFFF;}
	.st88{fill:#90CAD3;}
	.st89{fill:#94B57F;}
	.st90{fill:#B2E2E7;}
	.st91{fill:#FFDF8F;}
	.st92{fill:#FFFAEB;}
	.st93{fill:#F88916;}
	.st94{fill:#FFC86E;}
	.st95{fill:#AFA51D;}
	.st96{fill:#968A1C;}
	.st97{fill:#C3556D;}
</style>
<g>
	<path class="st4" d="M19.3,238.6C-8.3,211,8.7,89.2,52.9,53.6c21.3-17.1,44-20.3,65.6-15.2c7.2,18.1,30.6,29.9,62.4,38.5
		c12.4,27.2,24.6,56.6,39,64.9c4.3,20.9,0.7,42.7-15.8,63.2C168.5,249.2,46.9,266.2,19.3,238.6z"/>
	<path class="st7" d="M118.6,38.3c-21.6-5.1-44.3-1.9-65.6,15.2C25.3,75.8,8.3,131.8,6.2,177.3c0,0,21.6-76.9,51.4-104.2
		S118.6,38.3,118.6,38.3z"/>
	<path class="st19" d="M131.4,226.4c64.2-19.3,87.3-71.3,88.5-84.7c4.3,20.9,0.7,42.7-15.8,63.2c-35.6,44.3-157.2,61.2-184.8,33.7
		c-3.6-3.6-6.4-8.7-8.5-15C21.8,235.3,67.2,245.7,131.4,226.4z"/>
	<path class="st1" d="M19.3,238.6C-8.3,211,8.7,89.2,52.9,53.6c21.3-17.1,44-20.3,65.6-15.2c7.2,18.1,30.6,29.9,62.4,38.5
		c12.4,27.2,24.6,56.6,39,64.9c4.3,20.9,0.7,42.7-15.8,63.2C168.5,249.2,46.9,266.2,19.3,238.6z"/>
	<g>
		<line class="st1" x1="116.7" y1="68.1" x2="111.7" y2="73.1"/>
		<line class="st1" x1="182.3" y1="133.8" x2="177.3" y2="138.8"/>
		<line class="st1" x1="73.2" y1="78.8" x2="68.2" y2="83.8"/>
		<line class="st1" x1="106" y1="111.6" x2="101" y2="116.6"/>
		<line class="st1" x1="171.6" y1="177.3" x2="166.6" y2="182.3"/>
		<line class="st1" x1="138.8" y1="144.5" x2="133.8" y2="149.5"/>
		<line class="st1" x1="62.5" y1="122.3" x2="57.5" y2="127.3"/>
		<line class="st1" x1="95.3" y1="155.2" x2="90.3" y2="160.1"/>
		<line class="st1" x1="128.1" y1="188" x2="123.1" y2="193"/>
		<line class="st1" x1="51.8" y1="165.9" x2="46.9" y2="170.8"/>
		<line class="st1" x1="84.6" y1="198.7" x2="79.7" y2="203.7"/>
		<line class="st1" x1="41.1" y1="209.4" x2="36.2" y2="214.4"/>
		<line class="st1" x1="149.5" y1="101" x2="144.5" y2="105.9"/>
	</g>
	<path class="st23" d="M199.5,94.5c16.6,27.4,22.1,47.2,16.6,61.1c0,0-1.4,0-1.4,0c-15.5-8.9-28.6-40.7-42-70.1
		c-34.2-9.3-59.5-22-67.3-41.5c-0.9-2.3-1.6-4.6-2-7c17.3-6.3,37.1,4,58,21.7L199.5,94.5z"/>
	<path class="st16" d="M219.9,141.8C219.9,141.8,219.9,141.8,219.9,141.8c-14.4-8.3-26.6-37.8-39-65c-31.7-8.6-55.1-20.4-62.4-38.5
		c-0.8-2.1-1.5-4.3-1.9-6.5c16.1-5.9,34.4,3.7,53.7,20.1c-4.8-15.3-0.4-31.4,9.9-48c22.1,20.3,21,40,13.8,59.6
		c0,0,60.5-2.9,55.7,18.2c-11.7,8.1-44.1,3.3-44.1,3.3C221.1,110.5,225,128.9,219.9,141.8z"/>
	<path class="st10" d="M195.2,23.7c-2.9-6.5-7.6-13.1-14.8-19.7c-10.4,16.6-14.8,32.7-9.9,48c0,0,1.5-22.5,9.4-29.6
		C187.7,15.3,195.2,23.7,195.2,23.7z"/>
	<path class="st10" d="M147.9,36.1c-11-5.8-21.5-7.9-31.2-4.3c0.4,2.3,1,4.4,1.9,6.5C122,46.9,129,54,138.8,60.1
		c0,0-11.7-12.4-7.9-18.7C134.8,35.2,147.9,36.1,147.9,36.1z"/>
	<path class="st1" d="M219.9,141.8C219.9,141.8,219.9,141.8,219.9,141.8c-14.4-8.3-26.6-37.8-39-65c-31.7-8.6-55.1-20.4-62.4-38.5
		c-0.8-2.1-1.5-4.3-1.9-6.5c16.1-5.9,34.4,3.7,53.7,20.1c-4.8-15.3-0.4-31.4,9.9-48c22.1,20.3,21,40,13.8,59.6
		c0,0,60.5-2.9,55.7,18.2c-11.7,8.1-44.1,3.3-44.1,3.3C221.1,110.5,225,128.9,219.9,141.8z"/>
	<path class="st1" d="M189.1,68.6c18.6-17.2,37-26.9,54.9-21.2"/>
</g>
</svg>
