<?xml version="1.0" encoding="utf-8"?>
<!-- Generator: Adobe Illustrator 22.1.0, SVG Export Plug-In . SVG Version: 6.00 Build 0)  -->
<svg version="1.1" id="Layer_1" xmlns="http://www.w3.org/2000/svg" xmlns:xlink="http://www.w3.org/1999/xlink" x="0px" y="0px"
	 viewBox="0 0 256 256" style="enable-background:new 0 0 256 256;" xml:space="preserve">
<style type="text/css">
	.st0{fill:#F5B31F;}
	.st1{fill:none;stroke:#464646;stroke-width:8;stroke-linecap:round;stroke-linejoin:round;stroke-miterlimit:10;}
	.st2{opacity:0.15;fill:#464646;}
	.st3{fill:#AC6535;}
	.st4{fill:#EB573B;}
	.st5{fill:#90C056;}
	.st6{opacity:0.35;fill:#FFFFFF;}
	.st7{opacity:0.2;fill:#FFFFFF;}
	.st8{fill:#F6D67A;}
	.st9{opacity:0.15;fill:#FFFFFF;}
	.st10{opacity:0.3;fill:#FFFFFF;}
	.st11{fill:#AC6535;stroke:#464646;stroke-width:8;stroke-linecap:round;stroke-linejoin:round;stroke-miterlimit:10;}
	.st12{fill:#EB573B;stroke:#464646;stroke-width:8;stroke-miterlimit:10;}
	.st13{opacity:0.15;}
	.st14{fill:#464646;}
	.st15{fill:#FFA755;}
	.st16{fill:#8FAE3C;}
	.st17{fill:#BE6BB2;}
	.st18{fill:#B7C536;}
	.st19{opacity:0.1;}
	.st20{fill:#9D5A96;}
	.st21{fill:#EA615D;}
	.st22{opacity:0.4;fill:#FFFFFF;}
	.st23{opacity:7.000000e-02;}
	.st24{fill:#F79932;}
	.st25{fill:#FFEC97;}
	.st26{fill:#FFD11D;}
	.st27{opacity:0.2;}
	.st28{fill:#FFFFFF;}
	.st29{fill:#F7F2D5;}
	.st30{fill:#F6AF72;}
	.st31{fill:#BA6C45;}
	.st32{opacity:0.5;fill:#FFFFFF;}
	.st33{fill:#E4C074;}
	.st34{fill:none;stroke:#656566;stroke-width:8;stroke-linecap:round;stroke-linejoin:round;stroke-miterlimit:10;}
	.st35{fill:#FFA755;stroke:#464646;stroke-width:8;stroke-linecap:round;stroke-linejoin:round;stroke-miterlimit:10;}
	.st36{fill:#FFD11D;stroke:#464646;stroke-width:8;stroke-linecap:round;stroke-linejoin:round;stroke-miterlimit:10;}
	.st37{fill:#FACD1F;}
	.st38{fill:#FFDF66;}
	.st39{fill:#FFEC97;stroke:#464646;stroke-width:8;stroke-linecap:round;stroke-linejoin:round;stroke-miterlimit:10;}
	.st40{fill:#FFDF66;stroke:#464646;stroke-width:8;stroke-linecap:round;stroke-linejoin:round;stroke-miterlimit:10;}
	.st41{opacity:0.2;fill:#464646;}
	.st42{fill:#FFFFFF;stroke:#464646;stroke-width:8;stroke-linecap:round;stroke-linejoin:round;stroke-miterlimit:10;}
	.st43{fill:#6D6E71;stroke:#464646;stroke-width:8;stroke-linecap:round;stroke-linejoin:round;stroke-miterlimit:10;}
	.st44{opacity:0.1;fill:#464646;}
	.st45{fill:#E77CAE;}
	.st46{fill:#FFE5C4;}
	.st47{fill:#F68455;stroke:#464646;stroke-width:8;stroke-linecap:round;stroke-linejoin:round;stroke-miterlimit:10;}
	.st48{opacity:0.7;}
	.st49{fill:#ADEDFF;}
	.st50{fill:#EC754B;}
	.st51{fill:#4AA5BA;}
	.st52{opacity:0.5;}
	.st53{opacity:0.8;}
	.st54{fill:#F68455;}
	.st55{fill:#92A5AC;}
	.st56{fill:#6D6E71;}
	.st57{fill:#D06E3C;}
	.st58{fill:#DA4F4B;}
	.st59{fill:#BDF3FF;}
	.st60{fill:#F18BB4;}
	.st61{fill:#F9D97A;}
	.st62{fill:none;}
	.st63{fill:#AF6535;}
	.st64{fill:#B93226;}
	.st65{fill:#FF6050;}
	.st66{fill:#D06E3C;stroke:#464646;stroke-miterlimit:10;}
	.st67{fill:#EA7CB1;}
	.st68{fill:none;stroke:#6D6E71;stroke-width:10;stroke-linecap:round;stroke-linejoin:round;stroke-miterlimit:10;}
	.st69{fill:#00B0E0;}
	.st70{fill:#EA7DAE;}
	.st71{opacity:0.1;fill:#FFFFFF;}
	.st72{fill:#BC7532;}
	.st73{fill:#876C6C;}
	.st74{fill:#F9F6CD;}
	.st75{fill:#FFE37B;}
	.st76{fill:#1DDCFF;}
	.st77{fill:#60ACF7;}
	.st78{fill:#C3755A;}
	.st79{fill:#96557A;}
	.st80{fill:#66625D;}
	.st81{fill:#D68032;}
	.st82{opacity:0.8;fill:#FFFFFF;}
	.st83{fill:#F2A355;}
	.st84{fill:#7E9E6A;}
	.st85{opacity:0.3;}
	.st86{fill:#965A85;}
	.st87{opacity:0.7;fill:#FFFFFF;}
	.st88{fill:#90CAD3;}
	.st89{fill:#94B57F;}
	.st90{fill:#B2E2E7;}
	.st91{fill:#FFDF8F;}
	.st92{fill:#FFFAEB;}
	.st93{fill:#F88916;}
	.st94{fill:#FFC86E;}
	.st95{fill:#AFA51D;}
	.st96{fill:#968A1C;}
	.st97{fill:#C3556D;}
</style>
<g>
	<path class="st4" d="M64.1,123.8c-6.9-2-27.9-21.1-43-9.9S3.4,140.6,6.7,162.4S26,199,37.9,202.4c11.9,3.5,43.2-4.8,56.9-22.2
		s13.1-32.9,7.4-45.5C96.5,122.1,71,125.8,64.1,123.8z"/>
	<path class="st19" d="M102.2,134.7c5.7,12.6,6.3,28-7.4,45.5s-45,25.7-56.9,22.2C26,199,10,184.2,6.7,162.4
		C41.7,203.1,85.8,188.8,102.2,134.7z"/>
	<path class="st4" d="M157.7,169.2c-7.2,0.1-32.7-12.2-44.1,2.8c-11.3,15.1-9.3,30.6,0.1,50.5s29,29.5,41.3,29.5
		c12.4-0.1,40-16.9,48.1-37.6c8.1-20.7,3.1-35.3-5.9-45.7C188.3,158.2,164.9,169.1,157.7,169.2z"/>
	<path class="st19" d="M197.3,168.7c9.1,10.5,14,25.1,5.9,45.7c-8.1,20.7-35.8,37.5-48.1,37.6c-12.4,0.1-31.9-9.6-41.3-29.5
		C155.1,252,195.8,230.2,197.3,168.7z"/>
	<path class="st16" d="M83.7,22.6c0,0,57.2-19.4,81.9-18.6c58,4.9,84.9,56.9,84.9,56.9S239,56.6,225,55.4c-14-1.2-23.1,6.4-43.5,2
		s-40.9-22.9-53.6-27.2C115.2,25.9,83.7,22.6,83.7,22.6z"/>
	<path class="st10" d="M165.6,4c-24.7-0.8-81.9,18.6-81.9,18.6s31.5,3.3,44.2,7.6c0,0-6.4-3-3.2-11.7C127.8,9.8,165.6,4,165.6,4z"/>
	<path class="st1" d="M64.1,123.8c-6.9-2-27.9-21.1-43-9.9S3.4,140.6,6.7,162.4S26,199,37.9,202.4c11.9,3.5,43.2-4.8,56.9-22.2
		s13.1-32.9,7.4-45.5C96.5,122.1,71,125.8,64.1,123.8z"/>
	<path class="st1" d="M157.7,169.2c-7.2,0.1-32.7-12.2-44.1,2.8c-11.3,15.1-9.3,30.6,0.1,50.5s29,29.5,41.3,29.5
		c12.4-0.1,40-16.9,48.1-37.6c8.1-20.7,3.1-35.3-5.9-45.7C188.3,158.2,164.9,169.1,157.7,169.2z"/>
	<path class="st1" d="M64.1,123.8C89.6,91.7,96.7,58,83.7,22.6c58.6,46.6,80.3,90.4,74,146.5"/>
	<path class="st1" d="M83.7,22.6c0,0,57.2-19.4,81.9-18.6c58,4.9,84.9,56.9,84.9,56.9S239,56.6,225,55.4c-14-1.2-23.1,6.4-43.5,2
		s-40.9-22.9-53.6-27.2C115.2,25.9,83.7,22.6,83.7,22.6z"/>
	<path class="st1" d="M21.7,148.1c0.2,10.5,3.5,20.7,10.7,30.5"/>
</g>
</svg>
