<?xml version="1.0" encoding="utf-8"?>
<!-- Generator: Adobe Illustrator 22.1.0, SVG Export Plug-In . SVG Version: 6.00 Build 0)  -->
<svg version="1.1" id="Layer_1" xmlns="http://www.w3.org/2000/svg" xmlns:xlink="http://www.w3.org/1999/xlink" x="0px" y="0px"
	 viewBox="0 0 256 256" style="enable-background:new 0 0 256 256;" xml:space="preserve">
<style type="text/css">
	.st0{fill:#F5B31F;}
	.st1{fill:none;stroke:#464646;stroke-width:8;stroke-linecap:round;stroke-linejoin:round;stroke-miterlimit:10;}
	.st2{opacity:0.15;fill:#464646;}
	.st3{fill:#AC6535;}
	.st4{fill:#EB573B;}
	.st5{fill:#90C056;}
	.st6{opacity:0.35;fill:#FFFFFF;}
	.st7{opacity:0.2;fill:#FFFFFF;}
	.st8{fill:#F6D67A;}
	.st9{opacity:0.15;fill:#FFFFFF;}
	.st10{opacity:0.3;fill:#FFFFFF;}
	.st11{fill:#AC6535;stroke:#464646;stroke-width:8;stroke-linecap:round;stroke-linejoin:round;stroke-miterlimit:10;}
	.st12{fill:#EB573B;stroke:#464646;stroke-width:8;stroke-miterlimit:10;}
	.st13{opacity:0.15;}
	.st14{fill:#464646;}
	.st15{fill:#FFA755;}
	.st16{fill:#8FAE3C;}
	.st17{fill:#BE6BB2;}
	.st18{fill:#B7C536;}
	.st19{opacity:0.1;}
	.st20{fill:#9D5A96;}
	.st21{fill:#EA615D;}
	.st22{opacity:0.4;fill:#FFFFFF;}
	.st23{opacity:7.000000e-02;}
	.st24{fill:#F79932;}
	.st25{fill:#FFEC97;}
	.st26{fill:#FFD11D;}
	.st27{opacity:0.2;}
	.st28{fill:#FFFFFF;}
	.st29{fill:#F7F2D5;}
	.st30{fill:#F6AF72;}
	.st31{fill:#BA6C45;}
	.st32{opacity:0.5;fill:#FFFFFF;}
	.st33{fill:#E4C074;}
	.st34{fill:none;stroke:#656566;stroke-width:8;stroke-linecap:round;stroke-linejoin:round;stroke-miterlimit:10;}
	.st35{fill:#FFA755;stroke:#464646;stroke-width:8;stroke-linecap:round;stroke-linejoin:round;stroke-miterlimit:10;}
	.st36{fill:#FFD11D;stroke:#464646;stroke-width:8;stroke-linecap:round;stroke-linejoin:round;stroke-miterlimit:10;}
	.st37{fill:#FACD1F;}
	.st38{fill:#FFDF66;}
	.st39{fill:#FFEC97;stroke:#464646;stroke-width:8;stroke-linecap:round;stroke-linejoin:round;stroke-miterlimit:10;}
	.st40{fill:#FFDF66;stroke:#464646;stroke-width:8;stroke-linecap:round;stroke-linejoin:round;stroke-miterlimit:10;}
	.st41{opacity:0.2;fill:#464646;}
	.st42{fill:#FFFFFF;stroke:#464646;stroke-width:8;stroke-linecap:round;stroke-linejoin:round;stroke-miterlimit:10;}
	.st43{fill:#6D6E71;stroke:#464646;stroke-width:8;stroke-linecap:round;stroke-linejoin:round;stroke-miterlimit:10;}
	.st44{opacity:0.1;fill:#464646;}
	.st45{fill:#E77CAE;}
	.st46{fill:#FFE5C4;}
	.st47{fill:#F68455;stroke:#464646;stroke-width:8;stroke-linecap:round;stroke-linejoin:round;stroke-miterlimit:10;}
	.st48{opacity:0.7;}
	.st49{fill:#ADEDFF;}
	.st50{fill:#EC754B;}
	.st51{fill:#4AA5BA;}
	.st52{opacity:0.5;}
	.st53{opacity:0.8;}
	.st54{fill:#F68455;}
	.st55{fill:#92A5AC;}
	.st56{fill:#6D6E71;}
	.st57{fill:#D06E3C;}
	.st58{fill:#DA4F4B;}
	.st59{fill:#BDF3FF;}
	.st60{fill:#F18BB4;}
	.st61{fill:#F9D97A;}
	.st62{fill:none;}
	.st63{fill:#AF6535;}
	.st64{fill:#B93226;}
	.st65{fill:#FF6050;}
	.st66{fill:#D06E3C;stroke:#464646;stroke-miterlimit:10;}
	.st67{fill:#EA7CB1;}
	.st68{fill:none;stroke:#6D6E71;stroke-width:10;stroke-linecap:round;stroke-linejoin:round;stroke-miterlimit:10;}
	.st69{fill:#00B0E0;}
	.st70{fill:#EA7DAE;}
	.st71{opacity:0.1;fill:#FFFFFF;}
	.st72{fill:#BC7532;}
	.st73{fill:#876C6C;}
	.st74{fill:#F9F6CD;}
	.st75{fill:#FFE37B;}
	.st76{fill:#1DDCFF;}
	.st77{fill:#60ACF7;}
	.st78{fill:#C3755A;}
	.st79{fill:#96557A;}
	.st80{fill:#66625D;}
	.st81{fill:#D68032;}
	.st82{opacity:0.8;fill:#FFFFFF;}
	.st83{fill:#F2A355;}
	.st84{fill:#7E9E6A;}
	.st85{opacity:0.3;}
	.st86{fill:#965A85;}
	.st87{opacity:0.7;fill:#FFFFFF;}
	.st88{fill:#90CAD3;}
	.st89{fill:#94B57F;}
	.st90{fill:#B2E2E7;}
	.st91{fill:#FFDF8F;}
	.st92{fill:#FFFAEB;}
	.st93{fill:#F88916;}
	.st94{fill:#FFC86E;}
	.st95{fill:#AFA51D;}
	.st96{fill:#968A1C;}
	.st97{fill:#C3556D;}
</style>
<g>
	<path class="st24" d="M221.3,145.4c0,59.5-48.2,107.7-107.6,107.7c-59.4,0-107.6-48.2-107.6-107.7C6.1,97.5,37.2,57,80.3,43
		c4.6-1.5,9.3-2.7,14.1-3.6c23.7,15,47.7,19.4,72,12C199.1,69.8,221.3,105,221.3,145.4z"/>
	<path class="st19" d="M221.3,145.4c0,57.4-44.8,104.3-101.4,107.5c-2.1,0.1-4.2,0.2-6.3,0.2c-41.2,0-77-23.2-95.1-57.3
		c22.8,18.3,47,27.2,69.9,28.7c-10.4-15-16.5-33.2-16.5-52.8c0-51.2,41.4-92.6,92.6-92.6c6.2,0,12.2,0.6,18,1.8
		c-4.1-9.6-9.4-19.5-16.2-29.4c15.8,8.9,29.1,21.6,38.7,37C215.3,104.9,221.3,124.4,221.3,145.4z"/>
	<path class="st19" d="M182.9,41.4c-21.3,24.7,5.3,16.3-15.7,22.7c-24.3,7.4-48.3,3-72-12c-6.3-4-6.7-15.6-6.7-15.6l-4.6-5.2
		l50.5-13C134.5,18.3,136,47.6,182.9,41.4z"/>
	<path class="st16" d="M230.6,5.1c-21.3,24.7-42.4,39.9-63.3,46.3c-24.3,7.4-48.3,3-72-12c-6.3-4-12.7-8.8-19-14.4c-0.5-1-1-2-1.5-3
		c15.5-9,31.5-18.5,59.6-16.5C163.2,7.7,183.6,11.3,230.6,5.1z"/>
	<path class="st10" d="M134.5,5.6C106.4,3.5,90.4,13,74.8,22.1c0.5,1,1,2,1.5,3c6.3,5.5,12.6,10.3,19,14.4
		C91.9,25,108,14.3,134.5,5.6z"/>
	<g>
		<path class="st1" d="M169.4,111.4c16.6,0,31.7,6.8,42.6,17.7l-42.6,42.6h0l0,60.3c-16.6,0-31.7-6.8-42.6-17.7
			c-10.9-10.9-17.6-26-17.6-42.6c0-16.7,6.7-31.7,17.6-42.6C137.7,118.2,152.7,111.4,169.4,111.4z"/>
		<path class="st1" d="M143.6,247.9c-9.5,2.8-19.5,4.2-29.9,4.2c-59.4,0-107.6-48.2-107.6-107.7C6.1,96.6,37.2,56,80.3,42
			c4.6-1.5,9.3-2.7,14.1-3.6c23.7,15,47.7,19.4,72,12c21.4,12,38.3,31.2,47.4,54.3c-12.7-8.4-28-13.4-44.4-13.4
			c-44.4,0-80.3,36-80.3,80.4C89,207.1,111.9,237.2,143.6,247.9z"/>
		<path class="st1" d="M73.9,21.1c-2.3-4.3-5.3-8.7-9.1-13.8"/>
		<path class="st1" d="M75.4,24.1c2.6,5.5,4.2,11.1,4.9,17.9c0.5,5,0.6,10.7,0.3,17.5"/>
		<path class="st1" d="M229.6,4.1c-21.3,24.7-42.4,39.9-63.3,46.3c-24.3,7.4-48.3,3-72-12c-6.3-4-12.7-8.8-19-14.4c-0.5-1-1-2-1.5-3
			c15.5-9,31.5-18.5,59.6-16.5C162.2,6.8,182.6,10.3,229.6,4.1z"/>
		<path class="st1" d="M31.4,159.5c2.1,17.9,13.1,39.6,31,51.3"/>
	</g>
	<g>
		<path class="st35" d="M169.4,111.4l0,60.3h0l42.6-42.6C201.1,118.2,186,111.4,169.4,111.4z"/>
		<path class="st1" d="M213.7,104.7c-12.7-8.4-28-13.4-44.4-13.4c-44.4,0-80.3,36-80.3,80.4c0,35.4,22.8,65.4,54.5,76.2
			c8.1,2.7,16.8,4.2,25.8,4.2c44.4,0,80.3-36,80.3-80.4C249.7,143.7,235.4,119.1,213.7,104.7z M212,214.4
			c-9.2,9.2-21.4,15.5-35.1,17.2c-2.5,0.3-5,0.5-7.5,0.5c-16.6,0-31.7-6.8-42.6-17.7c-10.9-10.9-17.6-26-17.6-42.6
			s6.7-31.7,17.6-42.6c10.9-10.9,26-17.7,42.6-17.7c16.6,0,31.7,6.8,42.6,17.7c3.6,3.6,6.7,7.6,9.3,12c5.3,9,8.4,19.5,8.4,30.7
			C229.6,188.4,222.9,203.5,212,214.4z"/>
		<path class="st36" d="M213.7,104.7c-12.7-8.4-28-13.4-44.4-13.4c-44.4,0-80.3,36-80.3,80.4c0,35.4,22.8,65.4,54.5,76.2
			c8.1,2.7,16.8,4.2,25.8,4.2c44.4,0,80.3-36,80.3-80.4C249.7,143.7,235.4,119.1,213.7,104.7z M212,214.4
			c-9.2,9.2-21.4,15.5-35.1,17.2c-2.5,0.3-5,0.5-7.5,0.5c-16.6,0-31.7-6.8-42.6-17.7c-10.9-10.9-17.6-26-17.6-42.6
			s6.7-31.7,17.6-42.6c10.9-10.9,26-17.7,42.6-17.7c16.6,0,31.7,6.8,42.6,17.7c3.6,3.6,6.7,7.6,9.3,12c5.3,9,8.4,19.5,8.4,30.7
			C229.6,188.4,222.9,203.5,212,214.4z"/>
		<path class="st35" d="M229.6,171.7c0,16.7-6.7,31.7-17.6,42.6l-9.3-9.3l-33.3-33.3L229.6,171.7z"/>
		<path class="st35" d="M229.6,171.7l-60.2,0l42.6-42.6c3.6,3.6,6.7,7.6,9.3,12C226.5,150,229.6,160.5,229.6,171.7z"/>
		<path class="st35" d="M212,214.4c-9.2,9.2-21.4,15.5-35.1,17.2c-2.5,0.3-5,0.5-7.5,0.5l0-60.3h0l33.3,33.3L212,214.4z"/>
		<path class="st35" d="M169.4,111.4l0,60.3l-42.6-42.6C137.7,118.2,152.7,111.4,169.4,111.4z"/>
		<path class="st35" d="M169.4,171.7L169.4,171.7l-60.2,0c0-16.7,6.7-31.7,17.6-42.6L169.4,171.7z"/>
		<path class="st35" d="M169.4,171.7l-42.6,42.6c-10.9-10.9-17.6-26-17.6-42.6L169.4,171.7z"/>
		<path class="st35" d="M169.4,171.7l0,60.3c-16.6,0-31.7-6.8-42.6-17.7L169.4,171.7z"/>
		<path class="st35" d="M212,129.1l-42.6,42.6h0l0-60.3C186,111.4,201.1,118.2,212,129.1z"/>
	</g>
</g>
</svg>
