<?xml version="1.0" encoding="utf-8"?>
<!-- Generator: Adobe Illustrator 22.1.0, SVG Export Plug-In . SVG Version: 6.00 Build 0)  -->
<svg version="1.1" id="Layer_1" xmlns="http://www.w3.org/2000/svg" xmlns:xlink="http://www.w3.org/1999/xlink" x="0px" y="0px"
	 viewBox="0 0 256 256" style="enable-background:new 0 0 256 256;" xml:space="preserve">
<style type="text/css">
	.st0{fill:#F5B31F;}
	.st1{fill:none;stroke:#464646;stroke-width:8;stroke-linecap:round;stroke-linejoin:round;stroke-miterlimit:10;}
	.st2{opacity:0.15;fill:#464646;}
	.st3{fill:#AC6535;}
	.st4{fill:#EB573B;}
	.st5{fill:#90C056;}
	.st6{opacity:0.35;fill:#FFFFFF;}
	.st7{opacity:0.2;fill:#FFFFFF;}
	.st8{fill:#F6D67A;}
	.st9{opacity:0.15;fill:#FFFFFF;}
	.st10{opacity:0.3;fill:#FFFFFF;}
	.st11{fill:#AC6535;stroke:#464646;stroke-width:8;stroke-linecap:round;stroke-linejoin:round;stroke-miterlimit:10;}
	.st12{fill:#EB573B;stroke:#464646;stroke-width:8;stroke-miterlimit:10;}
	.st13{opacity:0.15;}
	.st14{fill:#464646;}
	.st15{fill:#FFA755;}
	.st16{fill:#8FAE3C;}
	.st17{fill:#BE6BB2;}
	.st18{fill:#B7C536;}
	.st19{opacity:0.1;}
	.st20{fill:#9D5A96;}
	.st21{fill:#EA615D;}
	.st22{opacity:0.4;fill:#FFFFFF;}
	.st23{opacity:7.000000e-02;}
	.st24{fill:#F79932;}
	.st25{fill:#FFEC97;}
	.st26{fill:#FFD11D;}
	.st27{opacity:0.2;}
	.st28{fill:#FFFFFF;}
	.st29{fill:#F7F2D5;}
	.st30{fill:#F6AF72;}
	.st31{fill:#BA6C45;}
	.st32{opacity:0.5;fill:#FFFFFF;}
	.st33{fill:#E4C074;}
	.st34{fill:none;stroke:#656566;stroke-width:8;stroke-linecap:round;stroke-linejoin:round;stroke-miterlimit:10;}
	.st35{fill:#FFA755;stroke:#464646;stroke-width:8;stroke-linecap:round;stroke-linejoin:round;stroke-miterlimit:10;}
	.st36{fill:#FFD11D;stroke:#464646;stroke-width:8;stroke-linecap:round;stroke-linejoin:round;stroke-miterlimit:10;}
	.st37{fill:#FACD1F;}
	.st38{fill:#FFDF66;}
	.st39{fill:#FFEC97;stroke:#464646;stroke-width:8;stroke-linecap:round;stroke-linejoin:round;stroke-miterlimit:10;}
	.st40{fill:#FFDF66;stroke:#464646;stroke-width:8;stroke-linecap:round;stroke-linejoin:round;stroke-miterlimit:10;}
	.st41{opacity:0.2;fill:#464646;}
	.st42{fill:#FFFFFF;stroke:#464646;stroke-width:8;stroke-linecap:round;stroke-linejoin:round;stroke-miterlimit:10;}
	.st43{fill:#6D6E71;stroke:#464646;stroke-width:8;stroke-linecap:round;stroke-linejoin:round;stroke-miterlimit:10;}
	.st44{opacity:0.1;fill:#464646;}
	.st45{fill:#E77CAE;}
	.st46{fill:#FFE5C4;}
	.st47{fill:#F68455;stroke:#464646;stroke-width:8;stroke-linecap:round;stroke-linejoin:round;stroke-miterlimit:10;}
	.st48{opacity:0.7;}
	.st49{fill:#ADEDFF;}
	.st50{fill:#EC754B;}
	.st51{fill:#4AA5BA;}
	.st52{opacity:0.5;}
	.st53{opacity:0.8;}
	.st54{fill:#F68455;}
	.st55{fill:#92A5AC;}
	.st56{fill:#6D6E71;}
	.st57{fill:#D06E3C;}
	.st58{fill:#DA4F4B;}
	.st59{fill:#BDF3FF;}
	.st60{fill:#F18BB4;}
	.st61{fill:#F9D97A;}
	.st62{fill:none;}
	.st63{fill:#AF6535;}
	.st64{fill:#B93226;}
	.st65{fill:#FF6050;}
	.st66{fill:#D06E3C;stroke:#464646;stroke-miterlimit:10;}
	.st67{fill:#EA7CB1;}
	.st68{fill:none;stroke:#6D6E71;stroke-width:10;stroke-linecap:round;stroke-linejoin:round;stroke-miterlimit:10;}
	.st69{fill:#00B0E0;}
	.st70{fill:#EA7DAE;}
	.st71{opacity:0.1;fill:#FFFFFF;}
	.st72{fill:#BC7532;}
	.st73{fill:#876C6C;}
	.st74{fill:#F9F6CD;}
	.st75{fill:#FFE37B;}
	.st76{fill:#1DDCFF;}
	.st77{fill:#60ACF7;}
	.st78{fill:#C3755A;}
	.st79{fill:#96557A;}
	.st80{fill:#66625D;}
	.st81{fill:#D68032;}
	.st82{opacity:0.8;fill:#FFFFFF;}
	.st83{fill:#F2A355;}
	.st84{fill:#7E9E6A;}
	.st85{opacity:0.3;}
	.st86{fill:#965A85;}
	.st87{opacity:0.7;fill:#FFFFFF;}
	.st88{fill:#90CAD3;}
	.st89{fill:#94B57F;}
	.st90{fill:#B2E2E7;}
	.st91{fill:#FFDF8F;}
	.st92{fill:#FFFAEB;}
	.st93{fill:#F88916;}
	.st94{fill:#FFC86E;}
	.st95{fill:#AFA51D;}
	.st96{fill:#968A1C;}
	.st97{fill:#C3556D;}
</style>
<g>
	<path class="st0" d="M102.7,237.4c-0.7,0.5-1.3,0.9-2,1.3c-9.1,5.9-18.5,10.2-27.4,12.2c-10.1,2.2-19.5,1.3-27.1-3.8
		c-1.6-1.1-3.1-2.3-4.6-3.7l-29.9-29.9c-1-1-2-2.1-2.8-3.3C3.2,202.5,2,193,4,182.7c1.7-8.8,5.8-18.2,11.5-27.2
		c1-1.7,2.1-3.3,3.3-4.9c5.7-8,12.5-15.7,20-22.4c2.4-2.1,4.8-4.1,7.3-6.1c8.8-6.8,18.1-12.1,27.2-15.2c9.7-3.3,19.2-4,27.4-1.1
		c4.1,1.4,7.9,3.8,11.3,7.2l29.9,29.9c0.4,0.4,0.9,0.9,1.3,1.3c3,3.4,5.1,7.2,6.3,11.3c2.5,8.2,1.5,17.6-1.9,27.2
		c-3.3,9.2-8.8,18.6-15.8,27.4c-1.3,1.6-2.6,3.2-3.9,4.7l0,0C120.5,223.4,111.8,231.2,102.7,237.4z"/>
	<path class="st23" d="M112,113l29.9,29.9c0.4,0.4,0.9,0.9,1.3,1.3c3,3.4,5.1,7.2,6.3,11.3c2.5,8.2,1.5,17.6-1.9,27.2
		c-3.3,9.2-8.8,18.6-15.8,27.4c-1.3,1.6-2.6,3.2-3.9,4.7l0,0c-7.4,8.5-16.1,16.3-25.2,22.5c-0.7,0.5-1.3,0.9-2,1.3
		c-9.1,5.9-18.5,10.2-27.4,12.2c-10.1,2.2-19.5,1.3-27.1-3.8c-1.6-1.1-3.1-2.3-4.6-3.7c0,0,44.1,1.8,69.3-48.9S112,113,112,113z"/>
	<path class="st10" d="M73.3,107c-9.1,3.1-18.4,8.4-27.2,15.2c-2.5,1.9-4.9,3.9-7.3,6.1c-7.5,6.7-14.4,14.4-20,22.4
		c-1.1,1.6-2.3,3.3-3.3,4.9c-5.7,9-9.8,18.4-11.5,27.2c-2,10.3-0.8,19.8,4.9,27.4c0.8,1.1,1.8,2.2,2.8,3.3c0,0,4.2-31.1,13.2-50.1
		S73.3,107,73.3,107z"/>
	<path class="st1" d="M102.7,237.4c-0.7,0.5-1.3,0.9-2,1.3c-9.1,5.9-18.5,10.2-27.4,12.2c-10.1,2.2-19.5,1.3-27.1-3.8
		c-1.6-1.1-3.1-2.3-4.6-3.7l-29.9-29.9c-1-1-2-2.1-2.8-3.3C3.2,202.5,2,193,4,182.7c1.7-8.8,5.8-18.2,11.5-27.2
		c1-1.7,2.1-3.3,3.3-4.9c5.7-8,12.5-15.7,20-22.4c2.4-2.1,4.8-4.1,7.3-6.1c8.8-6.8,18.1-12.1,27.2-15.2c9.7-3.3,19.2-4,27.4-1.1
		c4.1,1.4,7.9,3.8,11.3,7.2l29.9,29.9c0.4,0.4,0.9,0.9,1.3,1.3c3,3.4,5.1,7.2,6.3,11.3c2.5,8.2,1.5,17.6-1.9,27.2
		c-3.3,9.2-8.8,18.6-15.8,27.4c-1.3,1.6-2.6,3.2-3.9,4.7l0,0C120.5,223.4,111.8,231.2,102.7,237.4z"/>
	<polyline class="st1" points="4,182.7 18.8,182.7 46.2,182.7 73.3,182.7 100.7,182.7 127.9,182.7 147.6,182.7 	"/>
	<polyline class="st1" points="8.9,210.2 18.8,210.2 46.2,210.2 73.3,210.2 100.7,210.2 127.9,210.2 131.8,210.2 	"/>
	<polyline class="st1" points="35.6,237.4 46.2,237.4 73.3,237.4 100.7,237.4 102.7,237.4 	"/>
	<polyline class="st1" points="15.6,155.5 18.8,155.5 46.2,155.5 73.3,155.5 100.7,155.5 127.9,155.5 149.5,155.5 	"/>
	<polyline class="st1" points="38.9,128.2 46.2,128.2 73.3,128.2 100.7,128.2 127.2,128.2 	"/>
	<polyline class="st1" points="73.3,250.9 73.3,237.4 73.3,210.2 73.3,182.7 73.3,155.5 73.3,128.2 73.3,107 	"/>
	<polyline class="st1" points="100.7,238.7 100.7,237.4 100.7,210.2 100.7,182.7 100.7,155.5 100.7,128.2 100.7,105.8 	"/>
	<polyline class="st1" points="127.9,214.9 127.9,214.9 127.9,210.2 127.9,182.7 127.9,155.5 127.9,128.9 	"/>
	<polyline class="st1" points="46.2,247.1 46.2,237.4 46.2,210.2 46.2,182.7 46.2,155.5 46.2,128.2 46.2,122.1 	"/>
	<polyline class="st1" points="18.8,220.5 18.8,210.2 18.8,182.7 18.8,155.5 18.8,150.6 	"/>
	<polygon class="st16" points="220,4 198.6,58.3 168.1,70.3 170.3,59.2 	"/>
	<polygon class="st23" points="173.6,55.5 176.3,53.7 176.3,59.7 200.2,49.9 198,57.5 170.1,66.7 	"/>
	<polygon class="st1" points="220,4 198.6,58.3 168.1,70.3 170.3,59.2 	"/>
	<polygon class="st16" points="252.9,36.9 197.7,86.6 186.6,88.8 163.7,93.2 168.1,70.3 198.6,58.3 	"/>
	<polygon class="st23" points="170.9,71.9 174.7,70.9 173,83.4 206.3,77.6 198.2,87.4 165.5,90.9 	"/>
	<polygon class="st1" points="252.9,36.9 197.7,86.6 186.6,88.8 163.7,93.2 168.1,70.3 198.6,58.3 	"/>
	<polygon class="st16" points="179.3,12.8 170.3,59.2 168.1,70.3 163.7,93.2 138.3,98.2 138.5,94.5 139,86.4 142.2,80.5 	"/>
	<polygon class="st23" points="142.5,79.9 145.9,79.4 145.9,89.1 165,86.6 163.9,92.1 139.7,94.9 	"/>
	<polygon class="st1" points="179.3,12.8 170.3,59.2 168.1,70.3 163.7,93.2 138.3,98.2 138.5,94.5 139,86.4 142.2,80.5 	"/>
	<polygon class="st16" points="244.1,77.6 176.4,114.8 170.5,118 162.5,118.4 158.7,118.6 137.1,119.9 138.3,98.2 163.7,93.3 
		186.6,88.8 197.7,86.6 	"/>
	<polygon class="st23" points="140.5,112.5 180,110.2 172.2,117.1 139,119.8 	"/>
	<polygon class="st1" points="244.1,77.6 176.4,114.8 170.5,118 162.5,118.4 158.7,118.6 137.1,119.9 138.3,98.2 163.7,93.3 
		186.6,88.8 197.7,86.6 	"/>
	<polygon class="st16" points="136.1,137.1 130.1,131.1 129.5,127.4 128.3,120.4 126.5,109.2 126.3,108.1 125.1,100.8 124.1,94.7 
		125.9,86.9 142.9,16.3 139.3,81.7 139,86.4 138.5,94.5 138.3,98.2 137.1,119.9 136.6,128.6 136.1,136.9 	"/>
	<polygon class="st23" points="129.8,86.6 136.1,121.5 132,125.1 125.9,88.3 	"/>
	<polygon class="st16" points="240.6,114 170,131 162.2,132.9 156.2,131.9 148.9,130.7 147.7,130.5 136.6,128.6 137.1,119.9 
		158.7,118.6 162.5,118.4 170.5,118 175.2,117.7 	"/>
	<polygon class="st1" points="136.1,137.1 130.1,131.1 129.5,127.4 128.3,120.4 126.5,109.2 126.3,108.1 125.1,100.8 124.1,94.7 
		125.9,86.9 142.9,16.3 139.3,81.7 139,86.4 138.5,94.5 138.3,98.2 137.1,119.9 136.6,128.6 136.1,136.9 	"/>
	<polygon class="st1" points="240.6,114 170,131 162.2,132.9 156.2,131.9 148.9,130.7 147.7,130.5 136.6,128.6 137.1,119.9 
		158.7,118.6 162.5,118.4 170.5,118 175.2,117.7 	"/>
	<path class="st16" d="M213.2,141.4l-48,1.8l0,0l-22,1c-0.4-0.5-0.8-0.9-1.3-1.3l-5.8-5.8l0-0.3l0.5-8.2l11.1,1.9l1.1,0.2l7.3,1.2
		l6,1l6.6,1.1L213.2,141.4z"/>
	<polygon class="st23" points="140.6,122.4 173,127.5 163.7,131.8 139,127.1 	"/>
	<path class="st1" d="M213.2,141.4l-48,1.8l0,0l-22,1c-0.4-0.5-0.8-0.9-1.3-1.3l-5.8-5.8l0-0.3l0.5-8.2l11.1,1.9l1.1,0.2l7.3,1.2
		l6,1l6.6,1.1L213.2,141.4z"/>
	<polygon class="st16" points="130.1,131.1 112.9,113.8 113.7,91.7 113.7,91.7 115.5,43.7 123,88.1 124.1,94.7 125.1,100.8 
		126.3,108.1 126.5,109.2 128.3,120.4 129.5,127.4 	"/>
	<polygon class="st1" points="130.1,131.1 112.9,113.8 113.7,91.7 113.7,91.7 115.5,43.7 123,88.1 124.1,94.7 125.1,100.8 
		126.3,108.1 126.5,109.2 128.3,120.4 129.5,127.4 	"/>
</g>
</svg>
