<svg width="96" height="96" viewBox="0 0 96 96" fill="none" xmlns="http://www.w3.org/2000/svg">
<path fill-rule="evenodd" clip-rule="evenodd" d="M53.8589 18.5821C53.4616 18.2923 52.9818 18.0865 52.4197 18.0214C51.3213 17.8942 50.1266 18.3308 48.886 19.2957C46.8489 20.8802 46.0856 22.7833 46.0256 24.5384C45.9673 26.2438 46.5723 27.7463 47.1679 28.6398C47.4743 29.0993 48.0952 29.2235 48.5547 28.9171C49.0142 28.6108 49.1384 27.9899 48.832 27.5304C48.4276 26.9238 47.9827 25.8263 48.0244 24.6067C48.0594 23.5836 48.436 22.4252 49.5752 21.3376C49.523 21.5982 49.5 21.8517 49.5 22.0851C49.5 22.1548 49.5073 22.2243 49.5217 22.2925C49.7994 23.6022 50.6136 24.333 51.5558 24.6095C52.409 24.86 53.2793 24.7182 53.8249 24.5308C53.8667 24.5164 53.9076 24.4993 53.9472 24.4795C54.8716 24.0173 55.2561 23.0589 55.3457 22.2319C55.3902 21.8218 55.3714 21.3888 55.2889 20.9623C55.9239 21.183 56.6659 21.5069 57.5294 21.9674C58.0167 22.2273 58.6225 22.043 58.8824 21.5557C59.1423 21.0684 58.9579 20.4626 58.4706 20.2027C56.6456 19.2294 55.1208 18.7129 53.8589 18.5821ZM53.0153 20.5568C52.7465 20.5747 52.5325 20.6254 52.3654 20.6909C51.788 20.9176 51.5316 21.4381 51.5028 21.9805C51.5709 22.2358 51.6678 22.384 51.7511 22.4731C51.8459 22.5746 51.9661 22.6456 52.1192 22.6905C52.4262 22.7807 52.8083 22.7465 53.0914 22.6656C53.1774 22.5982 53.3138 22.4181 53.3574 22.0163C53.4058 21.5701 53.3047 21.0504 53.0721 20.6486C53.0537 20.6168 53.0348 20.5862 53.0153 20.5568Z" fill="#8C6720"/>
<path d="M72 52.0851C72 65.3399 61.2548 76.0851 48 76.0851C34.7452 76.0851 24 65.3399 24 52.0851C24 38.8302 34.7452 28.0851 48 28.0851C61.2548 28.0851 72 38.8302 72 52.0851Z" fill="#18C471"/>
<path fill-rule="evenodd" clip-rule="evenodd" d="M74 52.0851C74 66.4445 62.3594 78.0851 48 78.0851C33.6406 78.0851 22 66.4445 22 52.0851C22 37.7257 33.6406 26.0851 48 26.0851C62.3594 26.0851 74 37.7257 74 52.0851ZM48 76.0851C61.2548 76.0851 72 65.3399 72 52.0851C72 38.8302 61.2548 28.0851 48 28.0851C34.7452 28.0851 24 38.8302 24 52.0851C24 65.3399 34.7452 76.0851 48 76.0851Z" fill="#077A51"/>
<path fill-rule="evenodd" clip-rule="evenodd" d="M44 71.0851C57.2548 71.0851 68 60.3399 68 47.0851C68 42.5686 66.7524 38.3436 64.5831 34.7357C69.1534 39.1054 72 45.2628 72 52.0851C72 65.3399 61.2548 76.0851 48 76.0851C39.2616 76.0851 31.6139 71.415 27.4168 64.4344C31.726 68.5544 37.5674 71.0851 44 71.0851Z" fill="#00AF70"/>
<path d="M46.2708 32.5157C47.916 34.9627 46.2742 38.9469 42.6037 41.4147C38.9333 43.8825 34.6241 43.8994 32.9789 41.4524C31.3337 39.0054 32.9755 35.0212 36.6459 32.5534C40.3164 30.0857 44.6256 30.0688 46.2708 32.5157Z" fill="#2DE682"/>
<path fill-rule="evenodd" clip-rule="evenodd" d="M41.0914 71.5911C40.812 72.0675 40.1992 72.2271 39.7229 71.9476C39.0679 71.5634 38.2196 70.8077 37.7397 69.7265C37.236 68.5919 37.1731 67.168 38.0333 65.6226C38.936 64.0006 39.5068 62.8994 39.6899 62.0063C39.7751 61.5906 39.7644 61.2651 39.6818 60.9807C39.599 60.6959 39.4234 60.3818 39.0719 60.0209C37.9054 58.8233 37.5606 56.8866 37.6117 55.2052C37.6633 53.5073 38.1292 51.6826 38.9995 50.5657C39.6529 49.7272 39.7752 48.7137 39.5536 47.6866C39.3281 46.6417 38.7609 45.6778 38.1907 45.0924C37.0334 43.9041 36.8182 42.4667 37.1292 41.1461C37.429 39.8729 38.2103 38.7006 39.0719 37.8159C40.3989 36.4535 40.1137 34.7439 39.3902 33.6297C39.0894 33.1665 39.2211 32.5472 39.6843 32.2464C40.1475 31.9456 40.7668 32.0773 41.0676 32.5405C42.1066 34.1406 42.7026 36.9548 40.5046 39.2114C39.8084 39.9262 39.2679 40.7896 39.0759 41.6046C38.8951 42.3723 39.0183 43.0756 39.6234 43.6969C40.4465 44.542 41.2012 45.8401 41.5086 47.2648C41.8199 48.7075 41.6862 50.3716 40.5771 51.795C40.0711 52.4444 39.6558 53.7863 39.6108 55.2659C39.5653 56.762 39.9087 58.0136 40.5046 58.6255C41.0344 59.1694 41.4096 59.76 41.6022 60.4224C41.7949 61.0852 41.7842 61.7493 41.6491 62.408C41.3917 63.6637 40.6406 65.0506 39.7808 66.5952C39.231 67.5831 39.315 68.3458 39.5677 68.9151C39.8442 69.5379 40.3618 70.0037 40.7349 70.2226C41.2113 70.5021 41.3709 71.1148 41.0914 71.5911Z" fill="#7DEA3A"/>
<path fill-rule="evenodd" clip-rule="evenodd" d="M54.8913 33.6097C55.1539 33.1238 55.7606 32.9428 56.2465 33.2053C56.8947 33.5556 57.7552 34.2553 58.2471 35.2759C58.7708 36.3624 58.83 37.7273 57.9488 39.1856C57.0421 40.6861 56.484 41.6824 56.3066 42.4795C56.2257 42.8428 56.2381 43.1149 56.3116 43.3479C56.3862 43.5842 56.5495 43.8615 56.8988 44.1918C58.0883 45.3167 58.4401 47.142 58.3882 48.7163C58.3358 50.3035 57.8629 52.015 56.9752 53.0643C56.3447 53.8095 56.2301 54.6959 56.4425 55.6025C56.661 56.5352 57.2147 57.4073 57.78 57.9418C58.9564 59.0543 59.1909 60.4274 58.8663 61.697C58.5581 62.9023 57.7611 63.9963 56.8988 64.8117C56.2187 65.4548 56 66.1289 56 66.7413C56 67.3847 56.2442 68.0207 56.5884 68.5089C56.9066 68.9603 56.7987 69.5842 56.3473 69.9024C55.8959 70.2206 55.272 70.1127 54.9538 69.6613C54.4167 68.8995 54 67.8689 54 66.7413C54 65.5829 54.4423 64.382 55.5246 63.3585C56.2202 62.7008 56.745 61.9197 56.9286 61.2016C57.0958 60.5479 56.9919 59.9492 56.4059 59.395C55.5778 58.6119 54.8097 57.4007 54.4952 56.0587C54.1747 54.6905 54.3162 53.1107 55.4483 51.7726C55.9368 51.195 56.3451 49.9899 56.3893 48.6504C56.4339 47.2981 56.0976 46.1868 55.5246 45.645C54.9927 45.142 54.6052 44.586 54.4044 43.9499C54.2026 43.3105 54.2149 42.6711 54.3544 42.0449C54.6175 40.8628 55.3813 39.5674 56.2371 38.1512C56.7659 37.2762 56.6782 36.6272 56.4455 36.1443C56.181 35.5955 55.6756 35.1702 55.2957 34.9649C54.8098 34.7023 54.6288 34.0956 54.8913 33.6097Z" fill="#7DEA3A"/>
<path fill-rule="evenodd" clip-rule="evenodd" d="M28.8242 40.7634C29.0018 40.2405 29.5698 39.9606 30.0927 40.1382C30.6828 40.3386 31.5856 40.775 32.1399 41.498C32.436 41.8841 32.6677 42.4015 32.6232 43.0182C32.5791 43.6293 32.2749 44.1794 31.8138 44.659C31.3713 45.1194 31.013 45.5009 30.7396 45.837C30.4593 46.1816 30.3255 46.4108 30.2731 46.5588C30.2616 46.5912 30.2561 46.6143 30.2534 46.6292C30.2519 46.6375 30.2514 46.6433 30.2511 46.6468C30.2513 46.6471 30.2515 46.6474 30.2516 46.6478C30.2666 46.6777 30.357 46.8176 30.7227 47.035C31.997 47.7924 32.4502 49.1171 32.3874 50.3135C32.326 51.4821 31.772 52.6954 30.8081 53.4116C30.5028 53.6384 30.4031 53.8274 30.3682 53.9445C30.3331 54.0622 30.3331 54.2091 30.4059 54.4044C30.5668 54.8359 31.0281 55.3356 31.6039 55.6778C32.1601 56.0085 32.6121 56.4399 32.8427 57.0009C33.0823 57.5834 33.0259 58.1653 32.8237 58.6622C32.4519 59.5765 31.5551 60.307 30.7227 60.8018C30.0292 61.214 30 61.5243 30 61.6118C30 61.7737 30.1103 62.0477 30.4366 62.3386C30.8488 62.7062 30.885 63.3383 30.5175 63.7505C30.15 64.1628 29.5178 64.199 29.1056 63.8315C28.5506 63.3367 28 62.5631 28 61.6118C28 60.5863 28.6317 59.718 29.7008 59.0826C30.4261 58.6514 30.8513 58.2034 30.9711 57.9086C31.0127 57.8065 30.9985 57.7741 30.9937 57.7631C30.9934 57.7625 30.9932 57.762 30.993 57.7615C30.9803 57.7305 30.907 57.5902 30.582 57.397C29.7645 56.9111 28.9039 56.1012 28.5319 55.1029C28.3382 54.5833 28.269 53.9851 28.4516 53.3729C28.6344 52.76 29.0393 52.2341 29.6153 51.8062C30.0277 51.4998 30.3549 50.8797 30.3901 50.2087C30.4239 49.5656 30.1889 49.0443 29.7008 48.7542C29.1851 48.4477 28.7248 48.0639 28.4644 47.5454C28.1804 46.98 28.2064 46.4034 28.3878 45.8911C28.5558 45.417 28.8626 44.9751 29.1881 44.5749C29.5206 44.1662 29.9334 43.7293 30.372 43.273C30.6159 43.0193 30.6276 42.8862 30.6284 42.8742C30.6284 42.8741 30.6284 42.8739 30.6285 42.8737C30.6291 42.8655 30.6329 42.8194 30.5527 42.7149C30.3507 42.4514 29.8875 42.1807 29.4495 42.0319C28.9265 41.8543 28.6466 41.2864 28.8242 40.7634Z" fill="#7DEA3A"/>
<path fill-rule="evenodd" clip-rule="evenodd" d="M67.1666 64.4325C66.9747 64.9504 66.3993 65.2146 65.8815 65.0228C65.2796 64.7997 64.3802 64.3207 63.8356 63.5458C63.5469 63.1351 63.3355 62.6061 63.3764 61.9887C63.417 61.3742 63.699 60.8006 64.1568 60.281C64.5991 59.7791 64.9591 59.361 65.2345 58.9917C65.515 58.6155 65.6586 58.3532 65.7184 58.1691C65.7674 58.0183 65.7457 57.9715 65.7341 57.9462L65.7336 57.9452C65.7063 57.8858 65.6032 57.7283 65.2442 57.4955C63.9764 56.6734 63.5527 55.2669 63.6124 54.0268C63.6712 52.8038 64.2034 51.511 65.1586 50.7368C65.4631 50.49 65.5802 50.2704 65.6255 50.1046C65.672 49.9346 65.6661 49.7352 65.5848 49.4972C65.4109 48.9882 64.9314 48.4355 64.363 48.067C63.7999 47.7019 63.3642 47.2379 63.1464 46.6602C62.9242 46.0706 62.9747 45.4837 63.1656 44.9716C63.5237 44.0112 64.4019 43.2208 65.2442 42.6746C65.9237 42.234 66 41.8726 66 41.6922C66 41.4461 65.8555 41.1169 65.5317 40.8019C65.1358 40.4168 65.127 39.7837 65.5121 39.3878C65.8971 38.9919 66.5302 38.9831 66.9261 39.3682C67.4835 39.9104 68 40.724 68 41.6922C68 42.7261 67.4154 43.6504 66.3324 44.3527C65.6168 44.8166 65.1732 45.312 65.0395 45.6704C64.9846 45.8178 64.9967 45.8986 65.0179 45.9547C65.0435 46.0228 65.1329 46.1825 65.4511 46.3889C66.2761 46.9238 67.1184 47.7997 67.4774 48.8506C67.6625 49.3924 67.7259 50.0058 67.5547 50.6321C67.3823 51.2626 66.9948 51.823 66.418 52.2905C65.9969 52.6317 65.6478 53.3389 65.6101 54.1229C65.5732 54.8895 65.8377 55.4967 66.3324 55.8174C66.8547 56.1561 67.3023 56.57 67.5504 57.1089C67.8142 57.6821 67.7913 58.261 67.6207 58.7867C67.4601 59.2812 67.1631 59.7511 66.8378 60.1873C66.5073 60.6305 66.0962 61.1052 65.6573 61.6034C65.4101 61.8838 65.3763 62.0554 65.372 62.1207C65.3679 62.183 65.3823 62.2683 65.4718 62.3957C65.6836 62.697 66.1501 62.9894 66.5764 63.1474C67.0942 63.3392 67.3585 63.9146 67.1666 64.4325Z" fill="#7DEA3A"/>
<path d="M64.5047 55.9482C63.9568 56.7639 62.8514 56.981 62.0357 56.4331C61.2199 55.8853 61.0028 54.7798 61.5507 53.9641C62.0986 53.1484 63.2041 52.9313 64.0198 53.4792C64.8355 54.0271 65.0526 55.1325 64.5047 55.9482Z" fill="#12925C"/>
<path d="M66.5811 61.6871C66.0332 62.5028 64.9278 62.7199 64.1121 62.172C63.2964 61.6241 63.0793 60.5187 63.6271 59.703C64.175 58.8873 65.2805 58.6702 66.0962 59.2181C66.9119 59.766 67.129 60.8714 66.5811 61.6871Z" fill="#12925C"/>
<path d="M69.4372 56.5821C69.0263 57.1939 68.1972 57.3567 67.5854 56.9458C66.9737 56.5349 66.8108 55.7058 67.2217 55.094C67.6327 54.4822 68.4617 54.3194 69.0735 54.7303C69.6853 55.1412 69.8482 55.9703 69.4372 56.5821Z" fill="#12925C"/>
<path d="M63.3001 67.4861C62.7522 68.3018 61.6468 68.5189 60.8311 67.9711C60.0154 67.4232 59.7982 66.3177 60.3461 65.502C60.894 64.6863 61.9995 64.4692 62.8152 65.0171C63.6309 65.565 63.848 66.6704 63.3001 67.4861Z" fill="#12925C"/>
<path d="M60.2237 59.7472C59.6758 60.5629 58.5704 60.78 57.7547 60.2321C56.9389 59.6842 56.7218 58.5788 57.2697 57.7631C57.8176 56.9473 58.923 56.7302 59.7388 57.2781C60.5545 57.826 60.7716 58.9314 60.2237 59.7472Z" fill="#12925C"/>
<path d="M57.7084 71.2668C57.1605 72.0825 56.0551 72.2996 55.2393 71.7517C54.4236 71.2038 54.2065 70.0984 54.7544 69.2827C55.3023 68.4669 56.4077 68.2498 57.2234 68.7977C58.0392 69.3456 58.2563 70.451 57.7084 71.2668Z" fill="#12925C"/>
<path d="M56.8535 64.8527C56.3056 65.6684 55.2002 65.8855 54.3845 65.3376C53.5687 64.7897 53.3516 63.6843 53.8995 62.8686C54.4474 62.0529 55.5528 61.8358 56.3686 62.3837C57.1843 62.9316 57.4014 64.037 56.8535 64.8527Z" fill="#12925C"/>
<path d="M51.8088 72.2745C51.3979 72.8863 50.5688 73.0491 49.957 72.6382C49.3452 72.2272 49.1824 71.3982 49.5933 70.7864C50.0042 70.1746 50.8333 70.0118 51.4451 70.4227C52.0569 70.8336 52.2197 71.6627 51.8088 72.2745Z" fill="#12925C"/>
<path fill-rule="evenodd" clip-rule="evenodd" d="M46.6318 30.0889C46.9058 29.6094 47.5166 29.4428 47.9961 29.7168C48.7184 30.1296 49.6628 30.9471 50.1975 32.1204C50.7582 33.3507 50.83 34.8982 49.8682 36.5812C48.8455 38.371 48.1896 39.6009 47.9786 40.6036C47.8798 41.0727 47.891 41.4458 47.9895 41.7756C48.0883 42.1067 48.2971 42.4679 48.7071 42.878C49.9999 44.1707 50.393 46.2799 50.3352 48.1342C50.2769 50.0038 49.7495 51.999 48.7809 53.2098C48.0161 54.1658 47.8787 55.3134 48.1334 56.4634C48.3927 57.6336 49.0448 58.7156 49.7071 59.378C50.9895 60.6604 51.2331 62.217 50.8849 63.6572C50.5494 65.045 49.6741 66.3252 48.7071 67.2922C47.1571 68.8422 47.4966 70.7771 48.3321 72.0304C48.6384 72.4899 48.5142 73.1108 48.0547 73.4171C47.5952 73.7235 46.9743 73.5993 46.668 73.1398C45.5035 71.393 44.8429 68.3279 47.2929 65.878C48.0937 65.0772 48.7184 64.1074 48.9409 63.1871C49.1508 62.3193 49.0105 61.5098 48.2929 60.7922C47.3741 59.8734 46.5262 58.4554 46.1808 56.8959C45.8308 55.3162 45.9839 53.5044 47.2191 51.9604C47.8123 51.2189 48.2849 49.7142 48.3362 48.0718C48.3879 46.4141 48.0002 44.9994 47.2929 44.2922C46.7029 43.7022 46.2867 43.0635 46.073 42.3477C45.859 41.6306 45.8702 40.9099 46.0215 40.1916C46.3104 38.8192 47.1545 37.2992 48.1318 35.5889C48.7701 34.4719 48.6751 33.6027 48.3776 32.9498C48.0539 32.2397 47.4483 31.7073 47.0039 31.4533C46.5243 31.1793 46.3578 30.5684 46.6318 30.0889Z" fill="#7DEA3A"/>
<path fill-rule="evenodd" clip-rule="evenodd" d="M38.7173 34.5357C39.3935 35.4092 39.2336 36.6654 38.3601 37.3415C37.7912 37.782 37.3712 38.2866 37.0729 38.8601C36.5632 39.8401 35.3556 40.2213 34.3757 39.7116C33.3958 39.2019 33.0145 37.9943 33.5242 37.0144C34.1023 35.9029 34.9072 34.9561 35.9115 34.1786C36.785 33.5024 38.0412 33.6623 38.7173 34.5357Z" fill="white"/>
</svg>
