<svg width="96" height="96" viewBox="0 0 96 96" fill="none" xmlns="http://www.w3.org/2000/svg">
<path d="M56.501 67.7053C52.6641 65.9482 47.9528 66.0728 45.3739 67.586C48.3707 64.7744 48.6505 60.2218 48.4158 58.297C48.0618 51.9222 53.5071 46.8507 55.2035 45.4932C69.2265 36.5735 75.3364 42.3873 77.2432 44.9361C78.5779 46.7201 79.7197 51.7441 74.2533 59.9545C68.7868 68.1649 61.8566 70.1579 56.501 67.7053Z" fill="#53A638"/>
<path fill-rule="evenodd" clip-rule="evenodd" d="M43.7721 68.7838C43.1621 67.9681 43.2626 66.8244 44.0053 66.1275C45.1325 65.0699 45.8054 63.627 46.1618 62.1422C46.5193 60.6521 46.5199 59.2732 46.4304 58.5391C46.4251 58.4955 46.4212 58.4517 46.4188 58.4079C46.2082 54.6169 47.7234 51.3195 49.3901 48.884C51.0625 46.4403 53.0023 44.693 53.9538 43.9316C54.0102 43.8865 54.069 43.8444 54.13 43.8057C61.4034 39.1792 66.9529 38.1672 71.134 38.9479C75.3204 39.7297 77.7173 42.2312 78.8446 43.738C80.8997 46.485 81.6198 52.4988 75.9179 61.0629C70.1098 69.7864 62.2144 72.5215 55.6682 69.5237C54.0359 68.7761 52.1868 68.4187 50.4663 68.4193C48.7191 68.4198 47.2777 68.7877 46.386 69.311C45.5075 69.8264 44.382 69.5994 43.7721 68.7838ZM55.2034 45.4932C69.2265 36.5735 75.3363 42.3873 77.2431 44.9361C78.5778 46.7201 79.7196 51.7441 74.2532 59.9545C68.7867 68.1649 61.8565 70.1578 56.5009 67.7053C53.9972 66.5587 51.1211 66.2133 48.7081 66.5323C47.4233 66.7021 46.2698 67.0602 45.3738 67.586C46.2645 66.7503 46.9152 65.7608 47.3837 64.7322C48.4914 62.3002 48.5806 59.6497 48.4157 58.297C48.0617 51.9221 53.507 46.8506 55.2034 45.4932Z" fill="#316C0E"/>
<path fill-rule="evenodd" clip-rule="evenodd" d="M75.6029 47.103C75.6841 47.3669 75.536 47.6467 75.272 47.7279C70.1459 49.3052 64.9674 52.354 60.5652 55.5425C56.1661 58.7286 52.5705 62.0333 50.6125 64.0944C50.4223 64.2946 50.1058 64.3027 49.9056 64.1125C49.7054 63.9223 49.6973 63.6058 49.8875 63.4056C51.8878 61.3 55.5298 57.9547 59.9786 54.7326C64.4242 51.5127 69.7042 48.3948 74.978 46.7721C75.2419 46.6909 75.5217 46.839 75.6029 47.103Z" fill="#63C644"/>
<path fill-rule="evenodd" clip-rule="evenodd" d="M56.1046 47.9036C56.3649 47.9958 56.5012 48.2815 56.4091 48.5418C56.0022 49.6913 55.4775 51.5904 55.2338 53.5265C54.9889 55.4716 55.0438 57.338 55.6728 58.542C56.41 59.492 59.1815 61.5625 64.2501 61.5625C64.5262 61.5625 64.7501 61.7863 64.7501 62.0625C64.7501 62.3386 64.5262 62.5625 64.2501 62.5625C58.8719 62.5625 55.7733 60.3433 54.8502 59.1124C54.8352 59.0923 54.8216 59.0711 54.8097 59.049C54.0056 57.5517 53.9909 55.3933 54.2416 53.4016C54.4958 51.3824 55.0399 49.4128 55.4664 48.2081C55.5585 47.9478 55.8443 47.8115 56.1046 47.9036Z" fill="#63C644"/>
<path fill-rule="evenodd" clip-rule="evenodd" d="M66.4492 44.5569C66.6594 44.736 66.6846 45.0515 66.5056 45.2617C65.6175 46.3043 63.9953 49.1488 64.4609 52.2231C65.3383 52.8424 67.8256 53.849 71.5223 53.0732C71.7925 53.0165 72.0576 53.1896 72.1143 53.4598C72.171 53.7301 71.9979 53.9951 71.7277 54.0518C67.5486 54.9289 64.6673 53.703 63.6808 52.8849C63.5899 52.8095 63.5286 52.7044 63.5078 52.5882C62.8712 49.0342 64.7339 45.7994 65.7443 44.6133C65.9234 44.4031 66.239 44.3778 66.4492 44.5569Z" fill="#63C644"/>
<path fill-rule="evenodd" clip-rule="evenodd" d="M47.5064 64.4523C49.739 64.2975 52.268 64.6827 54.5009 65.7053C59.8565 68.1579 66.7867 66.1649 72.2532 57.9545C77.7196 49.7441 76.5778 44.7201 75.2431 42.9361C75.2219 42.9077 75.2001 42.8788 75.1778 42.8496C76.1259 43.5705 76.7987 44.342 77.2431 44.9361C78.5778 46.7201 79.7196 51.7441 74.2532 59.9545C68.7867 68.1649 61.8565 70.1579 56.5009 67.7053C52.664 65.9482 47.9527 66.0728 45.3738 67.586C46.3451 66.6748 47.0309 65.5806 47.5064 64.4523Z" fill="#46932D"/>
<path d="M67.0836 60.2686C66.3905 60.5687 65.5854 60.2501 65.2854 59.5571C64.9853 58.8641 65.3038 58.059 65.9969 57.7589C66.6899 57.4588 67.495 57.7773 67.7951 58.4704C68.0952 59.1634 67.7766 59.9685 67.0836 60.2686Z" fill="#3D8526"/>
<path d="M66.6905 65.2578C65.9975 65.5579 65.1924 65.2393 64.8923 64.5463C64.5922 63.8532 64.9107 63.0482 65.6038 62.7481C66.2968 62.448 67.1019 62.7665 67.402 63.4596C67.7021 64.1526 67.3835 64.9577 66.6905 65.2578Z" fill="#3D8526"/>
<path d="M70.4257 62.0798C69.9059 62.3049 69.3021 62.066 69.077 61.5462C68.8519 61.0264 69.0908 60.4226 69.6106 60.1976C70.1304 59.9725 70.7342 60.2114 70.9593 60.7312C71.1843 61.251 70.9454 61.8548 70.4257 62.0798Z" fill="#3D8526"/>
<path d="M61.9271 66.5848C61.234 66.8849 60.4289 66.5664 60.1289 65.8733C59.8288 65.1803 60.1473 64.3752 60.8404 64.0751C61.5334 63.775 62.3385 64.0936 62.6386 64.7866C62.9387 65.4796 62.6201 66.2847 61.9271 66.5848Z" fill="#3D8526"/>
<path d="M63.0274 62.0849C62.3344 62.385 61.5293 62.0665 61.2292 61.3734C60.9291 60.6804 61.2477 59.8753 61.9407 59.5752C62.6337 59.2751 63.4388 59.5937 63.7389 60.2867C64.039 60.9798 63.7205 61.7848 63.0274 62.0849Z" fill="#3D8526"/>
<path d="M56.4981 65.7801C55.8051 66.0802 55 65.7616 54.6999 65.0686C54.3998 64.3755 54.7184 63.5704 55.4114 63.2703C56.1044 62.9703 56.9095 63.2888 57.2096 63.9818C57.5097 64.6749 57.1912 65.48 56.4981 65.7801Z" fill="#3D8526"/>
<path d="M58.2042 61.7898C57.5111 62.0899 56.706 61.7713 56.406 61.0783C56.1059 60.3852 56.4244 59.5801 57.1175 59.2801C57.8105 58.98 58.6156 59.2985 58.9157 59.9916C59.2158 60.6846 58.8972 61.4897 58.2042 61.7898Z" fill="#3D8526"/>
<path d="M51.5133 63.7228C50.9935 63.9479 50.3897 63.7089 50.1646 63.1892C49.9396 62.6694 50.1785 62.0656 50.6983 61.8405C51.218 61.6154 51.8219 61.8543 52.0469 62.3741C52.272 62.8939 52.0331 63.4977 51.5133 63.7228Z" fill="#3D8526"/>
<path fill-rule="evenodd" clip-rule="evenodd" d="M48.1831 66.3141C48.6042 67.3353 48.1178 68.5045 47.0967 68.9256C46.4516 69.1916 45.4258 69.9148 44.1543 71.0992C42.9277 72.2418 41.6148 73.6781 40.4003 75.1863C39.1849 76.6958 38.0996 78.2383 37.3131 79.5836C36.4719 81.0227 36.1443 81.9525 36.115 82.3269C36.029 83.4281 35.0665 84.251 33.9653 84.165C32.8641 84.0789 32.0411 83.1165 32.1272 82.0152C32.2339 80.6495 33.0053 79.0268 33.8599 77.5649C34.7692 76.0093 35.9766 74.3024 37.2848 72.6777C38.5939 71.0518 40.0355 69.4693 41.428 68.1722C42.7758 66.9168 44.234 65.7794 45.5717 65.2277C46.5928 64.8066 47.762 65.293 48.1831 66.3141Z" fill="#316C0E"/>
<path d="M36.9881 53.5419C34.5798 57.0073 33.5318 60.5102 33.5 63.5001C32.6343 59.483 28.5295 56.4144 26.759 55.6238C20.5001 50.5001 19.5721 45.3628 19.2828 43.2095C18.5001 31.0002 23.5 25.4562 28.0001 25.0001C32.5001 24.544 37.4249 25.9591 40.4919 35.3339C42.9999 43.0001 40.4919 48.5001 36.9881 53.5419Z" fill="#5CBF3B"/>
<path fill-rule="evenodd" clip-rule="evenodd" d="M33.7013 65.4899C32.688 65.5924 31.7594 64.9171 31.5449 63.9214C31.2224 62.425 30.2569 60.9796 29.0482 59.7598C27.8377 58.5383 26.5683 57.729 25.9435 57.45C25.7813 57.3776 25.6295 57.2839 25.492 57.1714C18.7132 51.622 17.6316 45.9395 17.3005 43.4758C17.2944 43.4299 17.2898 43.3837 17.2868 43.3374C16.4815 30.7746 21.6325 23.6352 27.7984 23.0103C30.3298 22.7537 33.2073 23.0047 35.9018 24.8224C38.5725 26.6239 40.7764 29.7715 42.3927 34.712C43.7614 38.8955 43.7801 42.5732 42.9331 45.9136C42.0961 49.2143 40.44 52.0793 38.6305 54.6832C36.4247 57.8573 35.527 60.9758 35.4999 63.5214C35.489 64.5398 34.7146 65.3874 33.7013 65.4899ZM19.2827 43.2095C18.5001 31.0001 23.4999 25.4562 28.0001 25.0001C32.5001 24.544 37.4249 25.9591 40.4919 35.3338C42.9999 43 40.4919 48.5 36.9881 53.5419C35.5499 55.6114 34.5968 57.6942 34.0556 59.6731C33.6905 61.008 33.5128 62.2957 33.5 63.5001C33.2288 62.2416 32.6397 61.0762 31.904 60.0448C30.2915 57.7839 27.9748 56.1667 26.7589 55.6238C20.5 50.5001 19.5721 45.3627 19.2827 43.2095Z" fill="#316C0E"/>
<path fill-rule="evenodd" clip-rule="evenodd" d="M28.1301 56.41C28.6824 54.51 29.6138 52.5198 30.9884 50.5419C34.4922 45.5001 37.0002 40.0001 34.4921 32.3339C33.3782 28.929 32.0192 26.574 30.5245 24.9774C34.2572 25.3391 37.9918 27.6919 40.4919 35.3338C42.9999 43 40.4919 48.5 36.9881 53.5418C34.5798 57.0073 33.5318 60.5101 33.5 63.5001C32.8159 60.3258 30.1093 57.7438 28.1301 56.41Z" fill="#4FAC30"/>
<path fill-rule="evenodd" clip-rule="evenodd" d="M27.2047 27.9717C27.4275 27.8085 27.7403 27.8569 27.9035 28.0797C28.9809 29.5513 29.8023 31.5949 30.4309 33.901C31.0614 36.2143 31.5074 38.8273 31.8154 41.464C32.4314 46.7367 32.5005 52.144 32.3747 55.5187C32.3644 55.7947 32.1324 56.01 31.8564 55.9997C31.5805 55.9895 31.3651 55.7574 31.3754 55.4815C31.4996 52.1478 31.4312 46.7927 30.8222 41.58C30.5177 38.9739 30.0793 36.4135 29.4661 34.164C28.8509 31.9074 28.0692 29.9989 27.0966 28.6705C26.9335 28.4477 26.9819 28.1348 27.2047 27.9717Z" fill="#6CDB47"/>
<path fill-rule="evenodd" clip-rule="evenodd" d="M34.1822 31.5345C34.4394 31.6351 34.5663 31.9251 34.4656 32.1823C34.1803 32.9115 33.6874 34.0773 33.1322 35.2147C32.5845 36.3366 31.9501 37.4861 31.3763 38.1418C31.2655 38.2685 31.0984 38.3309 30.9317 38.3079C29.9891 38.1779 28.4802 37.837 26.9775 37.2327C25.4856 36.6328 23.9331 35.7468 22.9771 34.4903C22.8099 34.2706 22.8525 33.9569 23.0723 33.7897C23.292 33.6224 23.6057 33.6651 23.7729 33.8848C24.5669 34.9283 25.9207 35.7299 27.3506 36.3049C28.6288 36.8189 29.9146 37.1309 30.793 37.2755C31.2346 36.698 31.7478 35.771 32.2335 34.776C32.7751 33.6666 33.2573 32.5261 33.5344 31.8179C33.635 31.5607 33.9251 31.4338 34.1822 31.5345Z" fill="#6CDB47"/>
<path fill-rule="evenodd" clip-rule="evenodd" d="M38.0489 41.622C38.2922 41.7526 38.3837 42.0557 38.2531 42.299C37.7819 43.1772 36.9275 44.5508 35.8825 45.8427C34.8486 47.1208 33.5777 48.3829 32.2629 48.9582C32.2103 48.9812 32.154 48.995 32.0967 48.9989C30.4262 49.1133 26.44 48.3388 23.1818 44.5117C23.0028 44.3015 23.0281 43.9859 23.2384 43.8069C23.4487 43.6279 23.7642 43.6532 23.9432 43.8635C26.9232 47.3638 30.5081 48.0672 31.9419 48.006C33.0033 47.5132 34.1178 46.4342 35.105 45.2138C36.1059 43.9765 36.9265 42.6563 37.3719 41.8262C37.5025 41.5829 37.8056 41.4915 38.0489 41.622Z" fill="#6CDB47"/>
<path fill-rule="evenodd" clip-rule="evenodd" d="M32.5844 59.0438C33.6648 58.8143 34.7268 59.5041 34.9563 60.5846C36.2964 66.8932 36.5241 74.6233 34.9487 81.4498C34.7004 82.5261 33.6265 83.1972 32.5502 82.9489C31.474 82.7005 30.8028 81.6267 31.0512 80.5504C32.4758 74.3769 32.2817 67.2444 31.0436 61.4157C30.8141 60.3352 31.5039 59.2733 32.5844 59.0438Z" fill="#316C0E"/>
<path d="M50.4699 59.9271C45.1791 60.8105 40.3088 64.2781 38.6726 67.685C39.8234 62.6264 36.8738 57.6748 35.2551 55.8313C30.3398 49.426 32.4576 40.2732 33.2758 37.6542C41.6803 18.4071 52.2544 20.1492 56.0778 21.4596C58.7539 22.3768 63.5358 26.8136 63.6326 39.2587C63.7294 51.7038 57.8549 58.694 50.4699 59.9271Z" fill="#63C727"/>
<path fill-rule="evenodd" clip-rule="evenodd" d="M38.0137 69.5734C37.0525 69.238 36.4966 68.2341 36.7224 67.2414C37.184 65.2121 36.838 63.1242 36.1321 61.261C35.4243 59.3928 34.4095 57.8994 33.7522 57.1509C33.7232 57.1178 33.6952 57.0838 33.6684 57.0489C30.8409 53.3642 30.0968 48.9751 30.1154 45.3127C30.134 41.641 30.918 38.4942 31.3668 37.0578C31.3885 36.9885 31.4139 36.9204 31.4429 36.8539C35.7705 26.9431 40.8123 22.0856 45.5999 20.0125C50.3906 17.938 54.5414 18.8188 56.7262 19.5676C60.5382 20.8742 65.5324 26.3647 65.6325 39.2431C65.7342 52.3167 59.4668 60.4525 50.7993 61.8998C48.4619 62.29 46.1872 63.2597 44.318 64.5186C42.4262 65.7927 41.0934 67.2642 40.4754 68.5509C40.0347 69.4686 38.9749 69.9088 38.0137 69.5734ZM33.2758 37.6542C41.6803 18.407 52.2544 20.1491 56.0777 21.4596C58.7539 22.3768 63.5358 26.8136 63.6326 39.2587C63.7294 51.7038 57.8548 58.694 50.4699 59.9271C46.7532 60.5477 43.244 62.4435 40.9177 64.6977C39.9325 65.6524 39.1594 66.6714 38.6726 67.685C38.9605 66.4195 38.9917 65.1607 38.8514 63.9556C38.4309 60.3434 36.4688 57.2136 35.2551 55.8313C30.3397 49.4259 32.4575 40.2732 33.2758 37.6542Z" fill="#3E8D12"/>
<path d="M56.9256 42.5752C56.6746 43.3894 55.8111 43.846 54.9969 43.5951C54.1827 43.3441 53.7261 42.4806 53.977 41.6664C54.228 40.8522 55.0915 40.3956 55.9057 40.6465C56.7199 40.8975 57.1765 41.761 56.9256 42.5752Z" fill="#50AB1A"/>
<path d="M60.9146 46.5709C60.6636 47.3851 59.8001 47.8417 58.9859 47.5908C58.1717 47.3398 57.7151 46.4763 57.966 45.6621C58.217 44.8479 59.0805 44.3912 59.8947 44.6422C60.7089 44.8931 61.1655 45.7566 60.9146 46.5709Z" fill="#50AB1A"/>
<path d="M60.9292 41.0381C60.741 41.6488 60.0934 41.9912 59.4827 41.803C58.8721 41.6148 58.5296 40.9672 58.7178 40.3565C58.906 39.7458 59.5536 39.4034 60.1643 39.5916C60.775 39.7798 61.1174 40.4274 60.9292 41.0381Z" fill="#50AB1A"/>
<path d="M58.5591 51.6279C58.3082 52.4421 57.4447 52.8987 56.6304 52.6478C55.8162 52.3968 55.3596 51.5333 55.6106 50.7191C55.8615 49.9049 56.725 49.4482 57.5392 49.6992C58.3534 49.9502 58.8101 50.8136 58.5591 51.6279Z" fill="#50AB1A"/>
<path d="M55.5081 47.3846C55.2571 48.1989 54.3936 48.6555 53.5794 48.4045C52.7652 48.1536 52.3086 47.2901 52.5595 46.4759C52.8105 45.6616 53.674 45.205 54.4882 45.456C55.3024 45.7069 55.759 46.5704 55.5081 47.3846Z" fill="#50AB1A"/>
<path d="M53.888 55.692C53.637 56.5062 52.7735 56.9629 51.9593 56.7119C51.1451 56.461 50.6885 55.5975 50.9394 54.7832C51.1904 53.969 52.0539 53.5124 52.8681 53.7634C53.6823 54.0143 54.1389 54.8778 53.888 55.692Z" fill="#50AB1A"/>
<path d="M51.718 51.3031C51.4671 52.1173 50.6036 52.5739 49.7894 52.323C48.9752 52.072 48.5185 51.2085 48.7695 50.3943C49.0204 49.5801 49.8839 49.1235 50.6982 49.3744C51.5124 49.6254 51.969 50.4889 51.718 51.3031Z" fill="#50AB1A"/>
<path d="M48.4688 58.4568C48.2806 59.0675 47.6329 59.41 47.0223 59.2218C46.4116 59.0336 46.0691 58.3859 46.2574 57.7753C46.4456 57.1646 47.0932 56.8221 47.7039 57.0103C48.3145 57.1986 48.657 57.8462 48.4688 58.4568Z" fill="#50AB1A"/>
<path fill-rule="evenodd" clip-rule="evenodd" d="M39.8055 64.6693C40.8165 65.1142 41.2755 66.2944 40.8306 67.3054C39.95 69.3069 38.7253 72.5844 37.7221 75.8069C36.69 79.1223 36 82.0494 36 83.5C36 84.6045 35.1046 85.5 34 85.5C32.8954 85.5 32 84.6045 32 83.5C32 81.3505 32.8933 77.8609 33.9029 74.618C34.9414 71.2822 36.2167 67.8597 37.1694 65.6945C37.6142 64.6834 38.7944 64.2245 39.8055 64.6693Z" fill="#3E8D12"/>
<path fill-rule="evenodd" clip-rule="evenodd" d="M53.8068 25.1053C54.0248 25.2748 54.064 25.589 53.8945 25.8069C50.4493 30.2364 47.7208 36.6689 45.6639 43.1512C43.6102 49.6235 42.2401 56.0996 41.493 60.5822C41.4476 60.8545 41.19 61.0386 40.9176 60.9932C40.6452 60.9478 40.4612 60.6901 40.5066 60.4178C41.2595 55.9003 42.6395 49.3764 44.7108 42.8487C46.7789 36.331 49.5503 29.7635 53.1052 25.193C53.2747 24.975 53.5888 24.9358 53.8068 25.1053Z" fill="#81E445"/>
<path fill-rule="evenodd" clip-rule="evenodd" d="M51.9194 32.9145C50.7077 33.3603 49.6196 33.8956 48.9956 34.2479C48.7552 34.3836 48.4502 34.2987 48.3144 34.0582C48.1787 33.8178 48.2636 33.5128 48.504 33.377C49.1717 33.0001 50.3086 32.4416 51.5741 31.976C52.8307 31.5136 54.2612 31.1249 55.4998 31.1249C55.776 31.1249 55.9998 31.3488 55.9998 31.6249C55.9998 31.9011 55.776 32.1249 55.4998 32.1249C54.4384 32.1249 53.1399 32.4654 51.9194 32.9145Z" fill="#81E445"/>
<path fill-rule="evenodd" clip-rule="evenodd" d="M47.7965 34.1542C47.2524 32.0104 46.0485 30.0737 45.082 29.0619C44.8912 28.8622 44.8985 28.5457 45.0982 28.3549C45.2978 28.1642 45.6143 28.1715 45.8051 28.3711C46.8877 29.5045 48.1782 31.5934 48.7658 33.9082C48.8337 34.1758 48.6718 34.4479 48.4042 34.5158C48.1365 34.5838 47.8645 34.4219 47.7965 34.1542Z" fill="#81E445"/>
<path fill-rule="evenodd" clip-rule="evenodd" d="M50.5259 41.6678C48.3054 42.4119 46.2827 43.3294 45.1061 43.9432C44.8613 44.071 44.5593 43.9761 44.4316 43.7312C44.3038 43.4864 44.3988 43.1844 44.6436 43.0567C45.8629 42.4205 47.9339 41.4817 50.2082 40.7196C52.472 39.961 54.9892 39.3594 57.0811 39.4378C57.357 39.4481 57.5724 39.6802 57.562 39.9562C57.5517 40.2321 57.3196 40.4474 57.0436 40.4371C55.1355 40.3655 52.7568 40.9202 50.5259 41.6678Z" fill="#81E445"/>
<path fill-rule="evenodd" clip-rule="evenodd" d="M38.0495 34.7828C38.1695 34.534 38.4684 34.4297 38.7171 34.5496C40.5512 35.4343 44.655 38.2222 45.4933 43.3569C45.5378 43.6295 45.353 43.8865 45.0804 43.931C44.8079 43.9755 44.5509 43.7906 44.5064 43.5181C43.7447 38.8528 39.9902 36.274 38.2826 35.4503C38.0339 35.3304 37.9296 35.0315 38.0495 34.7828Z" fill="#81E445"/>
<path fill-rule="evenodd" clip-rule="evenodd" d="M35.6178 46.2086C35.7442 45.9631 36.0457 45.8665 36.2912 45.9929C37.3659 46.5462 38.9848 47.5177 40.3618 48.6442C41.0501 49.2074 41.6922 49.8207 42.1761 50.4515C42.6544 51.075 43.0143 51.7621 43.0613 52.4667C43.0796 52.7423 42.8712 52.9805 42.5956 52.9989C42.3201 53.0172 42.0818 52.8088 42.0635 52.5332C42.0354 52.1129 41.8083 51.615 41.3826 51.0602C40.9625 50.5126 40.3835 49.9541 39.7286 49.4182C38.4191 48.3469 36.863 47.4121 35.8335 46.882C35.588 46.7556 35.4914 46.4541 35.6178 46.2086Z" fill="#81E445"/>
<path fill-rule="evenodd" clip-rule="evenodd" d="M53.1001 51.9771C48.9613 50.6777 44.6047 51.9215 42.9646 52.7015C42.7153 52.8201 42.4169 52.7141 42.2983 52.4648C42.1797 52.2154 42.2857 51.9171 42.5351 51.7985C44.3117 50.9535 48.9384 49.6224 53.3996 51.023C53.6631 51.1057 53.8096 51.3863 53.7269 51.6498C53.6442 51.9132 53.3636 52.0598 53.1001 51.9771Z" fill="#81E445"/>
</svg>
