<svg width="96" height="96" viewBox="0 0 96 96" fill="none" xmlns="http://www.w3.org/2000/svg">
<path d="M53.4451 34.8018C61.8408 17.7092 70.0616 17.3207 73.1226 19.2631C79.1569 21.8529 75.9554 31.8884 74.4345 37.0679C69.1111 55.1965 56.3969 73.9724 41.9668 76.886C31.3634 79.0268 17.5518 77.6208 15.256 66.938C13.2892 57.786 20.9774 51.6355 28.1925 50.0169C35.4076 48.3983 45.0494 51.8945 53.4451 34.8018Z" fill="#A33795"/>
<path fill-rule="evenodd" clip-rule="evenodd" d="M73.1226 19.2631C78.9525 21.7651 76.1618 31.2169 74.5944 36.5253C74.5395 36.7114 74.486 36.8925 74.4345 37.0679C69.1111 55.1965 56.3969 73.9725 41.9668 76.886C31.3634 79.0268 17.5518 77.6208 15.256 66.938C13.2893 57.786 20.9775 51.6355 28.1925 50.0169C29.6635 49.6869 31.2352 49.5695 32.8768 49.4469C39.2872 48.9681 46.7611 48.4098 53.4452 34.8018C61.8409 17.7092 70.0617 17.3208 73.1226 19.2631ZM64.2928 18.1575C68.2129 15.9195 71.7739 16.1228 74.054 17.488C78.2079 19.362 78.8516 23.7295 78.6072 27.3298C78.3712 30.8062 77.2687 34.5349 76.5207 37.0647C76.4626 37.2611 76.4067 37.4502 76.3535 37.6314C73.6295 46.9079 69.0145 56.3627 63.1995 63.9039C57.4158 71.4044 50.2533 77.2532 42.3626 78.8464C36.8604 79.9573 30.4184 80.1771 24.9564 78.6467C19.4479 77.1033 14.656 73.6648 13.3007 67.3582C12.166 62.078 13.8429 57.6163 16.79 54.3195C19.6889 51.0767 23.8077 48.9509 27.7547 48.0654C29.3833 47.7001 31.1375 47.5699 32.7847 47.4477C33.142 47.4212 33.4943 47.395 33.8391 47.3669C35.8523 47.203 37.7974 46.9684 39.7394 46.3162C43.4813 45.0595 47.6286 42.1072 51.65 33.9201C55.9407 25.1849 60.3238 20.4234 64.2928 18.1575Z" fill="#800771"/>
<path fill-rule="evenodd" clip-rule="evenodd" d="M16.0359 69.3617C19.7754 77.8259 32.225 78.8528 41.9667 76.8859C56.3968 73.9724 69.111 55.1964 74.4344 37.0679C74.4859 36.8924 74.5394 36.7113 74.5943 36.5252C76.1617 31.2168 78.9524 21.765 73.1225 19.263C73.0057 19.1889 72.8813 19.1182 72.7498 19.0516C73.5355 22.987 71.9464 28.3691 70.9012 31.9088C70.8463 32.0949 70.7928 32.276 70.7413 32.4515C65.4179 50.58 52.7037 69.356 38.2736 72.2695C30.7128 73.7961 21.5209 73.5192 16.0359 69.3617Z" fill="#8E2A82"/>
<path d="M51.2098 64.9717C50.7815 65.4667 50.0332 65.5207 49.5383 65.0925C49.0434 64.6643 48.9893 63.9159 49.4175 63.421C49.8457 62.9261 50.5941 62.872 51.089 63.3003C51.5839 63.7285 51.638 64.4768 51.2098 64.9717Z" fill="#6D1863"/>
<path d="M59.2763 60.6376C58.7334 61.2651 57.7846 61.3337 57.1572 60.7907C56.5297 60.2478 56.4611 59.2991 57.004 58.6716C57.5469 58.0441 58.4957 57.9756 59.1232 58.5185C59.7507 59.0614 59.8192 60.0102 59.2763 60.6376Z" fill="#6D1863"/>
<path d="M65.5558 52.6508C65.0129 53.2782 64.0642 53.3468 63.4367 52.8039C62.8092 52.261 62.7407 51.3122 63.2836 50.6847C63.8265 50.0572 64.7753 49.9887 65.4027 50.5316C66.0302 51.0745 66.0988 52.0233 65.5558 52.6508Z" fill="#6D1863"/>
<path d="M48.6935 69.7489C48.1506 70.3764 47.2019 70.4449 46.5744 69.902C45.9469 69.3591 45.8784 68.4103 46.4213 67.7829C46.9642 67.1554 47.913 67.0868 48.5404 67.6297C49.1679 68.1727 49.2365 69.1214 48.6935 69.7489Z" fill="#6D1863"/>
<path d="M55.3234 64.1518C54.9162 64.6224 54.2046 64.6738 53.734 64.2666C53.2634 63.8594 53.212 63.1478 53.6192 62.6772C54.0264 62.2066 54.7379 62.1552 55.2085 62.5624C55.6791 62.9696 55.7306 63.6812 55.3234 64.1518Z" fill="#6D1863"/>
<path d="M53.4413 68.3273C53.0341 68.7979 52.3225 68.8493 51.8519 68.4421C51.3813 68.035 51.3299 67.3234 51.7371 66.8528C52.1443 66.3822 52.8559 66.3308 53.3265 66.7379C53.7971 67.1451 53.8485 67.8567 53.4413 68.3273Z" fill="#6D1863"/>
<path d="M61.5392 57.2385C61.132 57.7091 60.4204 57.7605 59.9498 57.3533C59.4792 56.9461 59.4278 56.2346 59.835 55.764C60.2422 55.2934 60.9538 55.2419 61.4244 55.6491C61.895 56.0563 61.9464 56.7679 61.5392 57.2385Z" fill="#6D1863"/>
<path d="M54.6906 60.4697C54.2834 60.9403 53.5718 60.9917 53.1012 60.5845C52.6306 60.1774 52.5792 59.4658 52.9864 58.9952C53.3935 58.5246 54.1051 58.4732 54.5757 58.8803C55.0463 59.2875 55.0977 59.9991 54.6906 60.4697Z" fill="#6D1863"/>
<path d="M44.611 73.3336C44.0681 73.961 43.1193 74.0296 42.4919 73.4867C41.8644 72.9438 41.7959 71.995 42.3388 71.3675C42.8817 70.74 43.8304 70.6715 44.4579 71.2144C45.0854 71.7573 45.1539 72.7061 44.611 73.3336Z" fill="#6D1863"/>
<path d="M44.5688 67.9631C44.0259 68.5905 43.0771 68.6591 42.4496 68.1162C41.8222 67.5733 41.7536 66.6245 42.2965 65.997C42.8394 65.3696 43.7882 65.301 44.4157 65.8439C45.0431 66.3868 45.1117 67.3356 44.5688 67.9631Z" fill="#6D1863"/>
<path d="M38.8537 75.1254C38.3108 75.7528 37.362 75.8214 36.7345 75.2785C36.1071 74.7356 36.0385 73.7868 36.5814 73.1593C37.1243 72.5319 38.0731 72.4633 38.7006 73.0062C39.3281 73.5491 39.3966 74.4979 38.8537 75.1254Z" fill="#6D1863"/>
<path d="M39.3745 70.6691C38.9431 71.1677 38.1892 71.2222 37.6907 70.7908C37.1921 70.3594 37.1376 69.6055 37.569 69.1069C38.0004 68.6083 38.7543 68.5538 39.2529 68.9852C39.7515 69.4166 39.8059 70.1705 39.3745 70.6691Z" fill="#6D1863"/>
<path d="M67.0531 48.211C66.7845 48.5214 66.3151 48.5553 66.0047 48.2868C65.6943 48.0182 65.6604 47.5488 65.929 47.2384C66.1976 46.928 66.6669 46.8941 66.9773 47.1626C67.2878 47.4312 67.3217 47.9006 67.0531 48.211Z" fill="#6D1863"/>
<path d="M60.9772 53.6016C60.7086 53.9121 60.2392 53.946 59.9288 53.6774C59.6184 53.4088 59.5845 52.9394 59.853 52.629C60.1216 52.3186 60.591 52.2847 60.9014 52.5533C61.2118 52.8218 61.2457 53.2912 60.9772 53.6016Z" fill="#6D1863"/>
<path d="M32.9389 75.4657C32.5317 75.9363 31.8201 75.9877 31.3495 75.5805C30.8789 75.1733 30.8275 74.4617 31.2347 73.9911C31.6418 73.5205 32.3534 73.4691 32.824 73.8763C33.2946 74.2835 33.346 74.9951 32.9389 75.4657Z" fill="#6D1863"/>
<path d="M33.5242 53.5318C35.2307 56.0711 33.3056 60.3531 29.2244 63.0958C25.1431 65.8386 20.4512 66.0035 18.7447 63.4642C17.0382 60.9249 18.9633 56.6429 23.0445 53.9001C27.1258 51.1574 31.8177 50.9925 33.5242 53.5318Z" fill="#C448B5"/>
<path d="M65.586 24.505C67.9581 26.4372 65.0619 34.9442 58.5 43.0001C51.9381 51.056 43 52.5 40.4999 52.0001C38.1278 50.0679 45.5 52.5 51.4999 43.0001C56.4998 33.5001 63.2139 22.5728 65.586 24.505Z" fill="#C448B5"/>
<path fill-rule="evenodd" clip-rule="evenodd" d="M26.0826 56.2328C26.731 57.127 26.5317 58.3776 25.6375 59.026C25.0247 59.4703 24.5652 59.9881 24.2316 60.583C23.6914 61.5465 22.4724 61.8896 21.509 61.3494C20.5455 60.8092 20.2024 59.5902 20.7426 58.6268C21.3727 57.5029 22.2308 56.5552 23.2894 55.7877C24.1836 55.1393 25.4342 55.3386 26.0826 56.2328Z" fill="white"/>
<path fill-rule="evenodd" clip-rule="evenodd" d="M82.5228 17.149C77.4133 16.4678 74.5547 19.1376 73.8181 20.3654C73.5339 20.839 72.9197 20.9925 72.4461 20.7084C71.9725 20.4242 71.819 19.81 72.1031 19.3364C73.213 17.4866 76.8173 14.3706 82.7871 15.1666C83.3346 15.2396 83.7192 15.7425 83.6462 16.29C83.5732 16.8374 83.0703 17.222 82.5228 17.149Z" fill="#537003"/>
<path d="M75.0441 18.3626C68.75 11.9375 62.6875 18.3626 57.6253 19.875C61.095 22.5025 72.3988 25.6624 75.0441 18.3626Z" fill="#A3D711"/>
<path fill-rule="evenodd" clip-rule="evenodd" d="M70.557 14.6917C72.3247 15.0118 74.0638 15.9331 75.7583 17.6629C76.0273 17.9375 76.115 18.342 75.9841 18.7034C74.4353 22.9771 70.3476 24.0557 66.5864 23.8399C62.8246 23.6241 58.9343 22.1209 57.0213 20.6722C56.721 20.4448 56.5739 20.0678 56.641 19.697C56.7081 19.3263 56.9778 19.0247 57.3388 18.9168C58.4967 18.5709 59.7376 17.9348 61.1371 17.2093C61.1636 17.1956 61.1902 17.1818 61.2169 17.1679C62.5595 16.4719 64.0296 15.7097 65.5523 15.1949C67.1166 14.6661 68.8023 14.3739 70.557 14.6917ZM59.8969 20.0622C61.6893 20.927 64.2156 21.7006 66.7009 21.8432C69.8898 22.0261 72.6156 21.1762 73.858 18.6063C72.5779 17.4359 71.3568 16.8691 70.2006 16.6597C68.8901 16.4223 67.5636 16.6262 66.1928 17.0896C64.8158 17.5551 63.461 18.2574 62.0734 18.9767L62.051 18.9883C61.3439 19.3549 60.6211 19.7295 59.8969 20.0622Z" fill="#709604"/>
<path d="M75.3275 18.4675C73.2467 20.3965 70.125 28.6875 79.8124 34.5C78.875 30.4375 85.4375 20.25 75.3275 18.4675Z" fill="#8CBA08"/>
<path fill-rule="evenodd" clip-rule="evenodd" d="M72.1583 25.0834C71.9729 21.7752 73.3678 18.9206 74.6475 17.7342C74.877 17.5215 75.1929 17.4284 75.501 17.4827C78.2088 17.9602 79.9842 19.0383 81.0011 20.6101C81.9971 22.1496 82.1433 23.9803 82.0064 25.7078C81.8934 27.1338 81.5733 28.615 81.2875 29.9372C81.2283 30.2112 81.1706 30.4783 81.1165 30.7367C80.9549 31.5087 80.824 32.2048 80.7597 32.8216C80.6946 33.4455 80.7054 33.923 80.7866 34.2752C80.8768 34.6661 80.7247 35.073 80.4002 35.3089C80.0757 35.5448 79.6417 35.5639 79.2977 35.3575C74.2029 32.3006 72.3493 28.4914 72.1583 25.0834ZM78.7714 32.605C78.8473 31.8828 78.9958 31.1058 79.159 30.3268C79.2187 30.0417 79.2802 29.7561 79.3418 29.4704C79.6264 28.1502 79.9113 26.8291 80.0127 25.5498C80.1355 23.9998 79.9681 22.6954 79.3219 21.6965C78.7454 20.8055 77.6846 20.002 75.684 19.5576C74.9201 20.5284 74.0196 22.5532 74.1552 24.9715C74.2865 27.3155 75.4018 30.0975 78.7714 32.605Z" fill="#709604"/>
<path d="M74.807 18.466C72.0372 17.8504 66.4052 19.1123 66.0359 29.0836C70.3445 28.4681 78.1308 25.4828 74.807 18.466Z" fill="#CDFD44"/>
<path fill-rule="evenodd" clip-rule="evenodd" d="M68.885 19.0333C70.9618 17.3204 73.3909 17.1269 75.0239 17.4898C75.3252 17.5567 75.5786 17.759 75.7107 18.0379C76.621 19.9597 76.8124 21.7029 76.4128 23.2489C76.016 24.7841 75.0678 26.0036 73.9184 26.948C71.6502 28.8114 68.4223 29.7529 66.1773 30.0736C65.8839 30.1155 65.5871 30.0251 65.3668 29.8268C65.1466 29.6285 65.0256 29.3428 65.0366 29.0466C65.2279 23.882 66.7936 20.7582 68.885 19.0333ZM67.1137 27.8698C68.9744 27.4558 71.1257 26.6539 72.6488 25.4026C73.569 24.6466 74.2135 23.7657 74.4764 22.7484C74.7104 21.8434 74.6678 20.7324 74.1104 19.364C72.9914 19.2432 71.481 19.4846 70.1575 20.5762C68.785 21.7082 67.474 23.8722 67.1137 27.8698Z" fill="#709604"/>
</svg>
