<svg width="96" height="96" viewBox="0 0 96 96" fill="none" xmlns="http://www.w3.org/2000/svg">
<path d="M58.2133 43.6377C56.7363 45.1608 53.9327 45.9506 52.7155 46.1551C59.2573 47.2682 58.2057 48.8917 61.8474 49.9678C65.4892 51.0439 65.811 50.2559 68.3774 49.2061C70.4305 48.3662 72.2546 48.7538 72.9099 49.0526C73.2252 49.391 74.5625 50.0981 77.3895 50.2186C80.9233 50.3692 84.1633 46.9392 83.8394 44.1628C83.5156 41.3864 82.2713 39.9746 79.288 39.6591C76.7637 39.3921 74.1182 39.9063 70.9612 41.2126C67.8042 42.5189 64.861 42.1118 63.7759 41.6756C62.6908 41.2393 60.0596 41.7338 58.2133 43.6377Z" fill="#7D9F1B"/>
<path fill-rule="evenodd" clip-rule="evenodd" d="M50.7156 46.1531C50.7166 45.1772 51.4218 44.3445 52.3842 44.1828C52.8598 44.1029 53.7274 43.8913 54.6269 43.5329C55.5533 43.1639 56.3237 42.7136 56.7777 42.2454C57.9666 41.0194 59.3953 40.2563 60.7058 39.8634C61.9234 39.4983 63.3734 39.3582 64.5221 39.82C65.1206 40.0606 67.5215 40.4715 70.1966 39.3646C73.5439 37.9795 76.5353 37.3569 79.4984 37.6702C81.2552 37.856 82.824 38.3987 83.9897 39.5885C85.1465 40.7692 85.6375 42.3146 85.826 43.9311C86.0837 46.1405 84.9402 48.2687 83.4603 49.7175C81.945 51.2009 79.7388 52.3206 77.3044 52.2168C75.742 52.1502 74.5197 51.9189 73.5949 51.6211C72.9748 51.4214 72.3781 51.1566 71.9052 50.8153C71.8688 50.8055 71.8279 50.7954 71.7826 50.7854C71.6024 50.7456 71.3686 50.7111 71.0943 50.701C70.5471 50.6809 69.8658 50.7582 69.1347 51.0572C68.7029 51.2339 68.3617 51.3929 68.0134 51.5553C67.8842 51.6155 67.754 51.6762 67.6178 51.7384C67.1449 51.9545 66.5956 52.1904 65.9569 52.3349C64.6006 52.6417 63.2129 52.4567 61.2808 51.8858C59.4791 51.3535 58.4778 50.6216 57.725 50.0713C57.5572 49.9487 57.4018 49.8351 57.2527 49.7347C56.532 49.2499 55.4439 48.6481 52.3802 48.1268C51.4181 47.9631 50.7146 47.129 50.7156 46.1531ZM72.91 49.0526C73.2253 49.3911 74.5625 50.0981 77.3896 50.2186C80.9234 50.3692 84.1634 46.9392 83.8395 44.1628C83.5156 41.3864 82.2714 39.9746 79.2881 39.6591C76.7638 39.3922 74.1183 39.9063 70.9613 41.2126C67.8043 42.519 64.8611 42.1119 63.776 41.6756C62.6909 41.2393 60.0597 41.7339 58.2134 43.6377C57.71 44.1568 57.0526 44.5907 56.3563 44.9453C55.0097 45.6312 53.518 46.0203 52.7156 46.1552C54.401 46.4419 55.5823 46.7625 56.4698 47.099C57.6617 47.5508 58.3235 48.0312 58.9642 48.4961C59.698 49.0288 60.4041 49.5413 61.8475 49.9678C64.8083 50.8427 65.5746 50.4854 67.1369 49.7571C67.4962 49.5895 67.8976 49.4024 68.3775 49.2061C70.4306 48.3663 72.2546 48.7538 72.91 49.0526Z" fill="#507317"/>
<path fill-rule="evenodd" clip-rule="evenodd" d="M76.9979 45.4534C77.0236 45.7283 76.8216 45.9721 76.5467 45.9979C71.2087 46.4983 58.4024 47.3025 49.9526 46.4978C49.6777 46.4716 49.4761 46.2275 49.5023 45.9526C49.5285 45.6777 49.7725 45.4761 50.0474 45.5023C58.3976 46.2975 71.1247 45.5018 76.4534 45.0022C76.7283 44.9764 76.9721 45.1784 76.9979 45.4534Z" fill="#B53874"/>
<path d="M46.9028 36.8815C47.6232 38.7294 48.1774 42.3149 47.8779 43.4291C51.3682 38.3008 52.3394 39.8262 54.6704 37.1488C57.0015 34.4714 56.4568 33.8915 56.5624 31.3015C56.6469 29.2295 57.6858 27.8296 58.1947 27.3887C58.605 27.2523 59.7261 26.3904 60.928 24.034C62.4303 21.0885 60.7745 17.0003 58.2884 16.1958C55.8022 15.3914 52.2892 16.9123 50.8607 19.3257C49.6521 21.3677 49.9553 22.8435 49.838 26.0354C49.7207 29.2272 49.125 30.5978 48.3321 31.3505C47.5393 32.1033 46.0024 34.5715 46.9028 36.8815Z" fill="#94B82C"/>
<path fill-rule="evenodd" clip-rule="evenodd" d="M47.0441 45.247C46.157 44.8401 45.6932 43.8524 45.9465 42.91C45.9447 42.9167 45.945 42.9136 45.9464 42.8995C45.9514 42.8491 45.9703 42.6577 45.9549 42.2767C45.9375 41.846 45.8831 41.3106 45.7953 40.7289C45.616 39.5411 45.3257 38.3421 45.0395 37.6079C44.3534 35.8478 44.6313 34.1204 45.1073 32.8367C45.5755 31.574 46.3196 30.5036 46.9551 29.9001C47.1563 29.7091 47.7269 29.0244 47.8394 25.9619C47.8589 25.4321 47.8619 24.9206 47.8649 24.4217C47.8775 22.3091 47.8887 20.4206 49.1397 18.307C50.1113 16.6653 51.7149 15.4279 53.3955 14.7135C55.0638 14.0043 57.0741 13.7008 58.9041 14.293C60.9338 14.9497 62.3213 16.7897 62.9856 18.6343C63.6667 20.5254 63.7644 22.8748 62.7097 24.9427C62.0411 26.2537 61.3627 27.2129 60.7407 27.8933C60.3322 28.3402 59.8718 28.7505 59.388 29.0296C59.3712 29.0502 59.3529 29.0735 59.3333 29.0995C59.2341 29.231 59.118 29.4097 59.0064 29.6318C58.7837 30.0747 58.5901 30.6659 58.5608 31.383C58.5432 31.8154 58.5457 32.163 58.5483 32.5213C58.5492 32.6551 58.5502 32.7904 58.5501 32.9322C58.5499 33.42 58.537 33.9898 58.4085 34.6027C58.135 35.9077 57.4206 37.0359 56.1789 38.4621C55.0094 39.8054 53.9761 40.3838 53.2153 40.8096C53.0476 40.9034 52.8932 40.9898 52.7535 41.0754C52.0804 41.4876 51.1583 42.164 49.5313 44.5544C48.9823 45.3612 47.9311 45.6539 47.0441 45.247ZM58.1947 27.3887C58.6051 27.2523 59.7262 26.3904 60.9281 24.034C62.4304 21.0885 60.7746 17.0003 58.2884 16.1958C55.8023 15.3914 52.2892 16.9123 50.8608 19.3257C49.9074 20.9365 49.8947 22.195 49.8743 24.2215C49.8689 24.7639 49.8628 25.3614 49.8381 26.0354C49.7208 29.2272 49.125 30.5978 48.3322 31.3506C47.5393 32.1033 46.0024 34.5715 46.9029 36.8815C47.2473 37.765 47.5537 39.0456 47.747 40.2634C47.958 41.5929 48.0343 42.8476 47.878 43.4291C48.644 42.3036 49.2887 41.4985 49.8531 40.8992C50.8409 39.8502 51.5826 39.4315 52.2981 39.0276C53.0363 38.611 53.7466 38.21 54.6705 37.1488C56.5657 34.9721 56.56 34.1817 56.5484 32.5703C56.5457 32.1998 56.5428 31.7857 56.5625 31.3015C56.647 29.2295 57.6859 27.8296 58.1947 27.3887Z" fill="#507317"/>
<path fill-rule="evenodd" clip-rule="evenodd" d="M55.566 21.0044C55.8397 21.0409 56.032 21.2924 55.9955 21.5661C55.4904 25.355 54.2312 30.2607 52.9189 34.9473C52.4172 36.7392 51.9083 38.4972 51.4291 40.1525C50.6494 42.8462 49.9483 45.2679 49.485 47.1213C49.418 47.3892 49.1465 47.5521 48.8786 47.4851C48.6107 47.4182 48.4479 47.1467 48.5148 46.8788C48.982 45.01 49.6926 42.555 50.4773 39.8442C50.9554 38.1921 51.4611 36.445 51.956 34.6777C53.2687 29.9893 54.5095 25.1451 55.0043 21.434C55.0408 21.1602 55.2923 20.9679 55.566 21.0044Z" fill="#B53874"/>
<path d="M51.884 38.3935C52.1366 41.4129 50.2797 44.789 49.3197 46.0997C56.9391 41.5352 57.7183 44.2892 62.4676 42.2599C67.2168 40.2305 66.6545 39.0614 67.991 35.6046C69.0601 32.8391 71.2705 31.653 72.242 31.4056C74.1182 30.9279 75.0166 31.1092 77.9086 28.7326C81.5235 25.7618 83.7229 21.2651 80.32 18.4409C76.917 15.6167 73.5486 15.9822 70.0077 16.5558C66.4667 17.1294 63.2512 20.0804 61.6238 24.3494C59.9964 28.6185 56.6725 30.7771 55.1289 31.2521C53.5853 31.7272 51.5683 34.6192 51.884 38.3935Z" fill="#A7CF35"/>
<path fill-rule="evenodd" clip-rule="evenodd" d="M47.8416 47.447C47.2003 46.7436 47.1437 45.6857 47.7062 44.9178C48.09 44.3938 48.7109 43.3696 49.1989 42.1463C49.6939 40.9056 49.981 39.637 49.8909 38.5602C49.7 36.2781 50.2113 34.233 51.038 32.6567C51.8149 31.1753 53.0449 29.8009 54.5406 29.3406C55.5163 29.0403 58.3546 27.3105 59.755 23.637C61.5631 18.8939 65.26 15.2988 69.6878 14.5815C73.2746 14.0005 77.4605 13.4687 81.5972 16.9019C82.746 17.8553 83.4997 19.0241 83.8276 20.3385C84.1507 21.6333 84.0275 22.9332 83.6553 24.1271C82.9249 26.4696 81.1704 28.6407 79.1784 30.2778C77.6395 31.5425 76.502 32.2343 75.404 32.6511C74.8638 32.8561 74.3791 32.9769 73.9457 33.0731C73.792 33.1072 73.6547 33.1364 73.524 33.1641C73.2604 33.2201 73.024 33.2703 72.7355 33.3438C72.299 33.4549 70.6597 34.2477 69.8564 36.3258C69.6282 36.9159 69.4686 37.4086 69.3085 37.9026C69.2499 38.0835 69.1912 38.2646 69.1291 38.4507C68.9106 39.105 68.6454 39.833 68.1981 40.5385C67.2465 42.0393 65.7353 43.0385 63.2534 44.099C61.0053 45.0596 59.3467 45.1249 58.0068 45.1776C57.6971 45.1898 57.4044 45.2013 57.1253 45.223C55.7445 45.3307 53.9401 45.6631 50.3474 47.8154C49.5309 48.3045 48.4828 48.1504 47.8416 47.447ZM51.0586 42.8821C50.5056 44.2697 49.8002 45.4435 49.3196 46.0997C50.583 45.3428 51.6584 44.7872 52.5949 44.3776C55.0679 43.296 56.5733 43.2328 58.0183 43.1721C59.3265 43.1171 60.5852 43.0642 62.4675 42.2599C66.3287 40.61 66.6791 39.5287 67.3933 37.3243C67.5575 36.8173 67.741 36.2509 67.9909 35.6046C69.0601 32.8391 71.2705 31.653 72.242 31.4056C72.5694 31.3223 72.867 31.259 73.1506 31.1987C74.4924 30.9133 75.5212 30.6945 77.9085 28.7326C81.5234 25.7618 83.7229 21.2651 80.3199 18.4409C76.9169 15.6167 73.5486 15.9822 70.0076 16.5558C66.4667 17.1294 63.2512 20.0804 61.6238 24.3494C59.9964 28.6185 56.6725 30.7771 55.1289 31.2521C53.5852 31.7272 51.5682 34.6192 51.8839 38.3935C52.0101 39.9013 51.6102 41.498 51.0586 42.8821Z" fill="#507317"/>
<path fill-rule="evenodd" clip-rule="evenodd" d="M51.2274 42.4384C50.6563 44.0175 49.8508 45.3746 49.3197 46.0997C49.5026 45.9901 49.6816 45.8847 49.8569 45.7834C50.4095 44.8051 50.9337 43.6433 51.2274 42.4384ZM81.8305 23.2367C82.2863 21.4895 81.9309 19.7778 80.32 18.4409C76.917 15.6167 73.5486 15.9822 70.0077 16.5558C66.4668 17.1294 63.2512 20.0804 61.6239 24.3494C59.9965 28.6185 56.6726 30.7771 55.129 31.2521C53.679 31.6983 51.8113 34.2771 51.8517 37.7166C52.5479 35.4019 54.0561 33.8448 55.2149 33.5769C56.7884 33.213 60.2576 31.2966 62.185 27.1544C64.1123 23.0121 67.5299 20.2976 71.1027 19.9777C74.6755 19.6579 78.0613 19.5332 81.2545 22.5926C81.4727 22.8017 81.6642 23.0167 81.8305 23.2367Z" fill="#C8F447"/>
<path fill-rule="evenodd" clip-rule="evenodd" d="M73.0566 22.2596C73.1893 22.5018 73.1007 22.8057 72.8586 22.9384C68.3718 25.3988 63.2641 29.9749 59.2757 34.8179C57.2841 37.2363 55.5829 39.7076 54.3822 41.9978C53.1755 44.2993 52.5 46.3698 52.5 48C52.5 48.2762 52.2761 48.5 52 48.5C51.7239 48.5 51.5 48.2762 51.5 48C51.5 46.1303 52.262 43.8883 53.4965 41.5335C54.737 39.1674 56.4807 36.6388 58.5038 34.1822C62.545 29.2752 67.7464 24.6013 72.3778 22.0616C72.6199 21.9288 72.9238 22.0175 73.0566 22.2596Z" fill="#D84278"/>
<path d="M28.9999 72C32.9999 71 36.5406 71.283 40.2328 71.5365C47.5345 72.038 52.993 70.7629 56.3415 65.9166C61.3335 58.6917 57.9821 47.7231 48.856 41.4174C39.7298 35.1118 28.2849 35.8569 23.2929 43.0818C19.9191 47.9646 21.2343 54.0657 23.8112 60.265C25.2703 63.7751 25.531 66.1652 24.9999 68.5C24.6748 69.9292 20.1945 74.3243 19.0001 79.5C17.5 86 11.9999 84.1562 12 84.5C12.0001 85 19.144 85.3347 20.6182 80C21.9999 75 27.7069 72.3233 28.9999 72Z" fill="#A5346A"/>
<path fill-rule="evenodd" clip-rule="evenodd" d="M39.8677 73.5162C36.227 73.2656 33.0564 73.0475 29.485 73.9403C29.1568 74.0224 27.6481 74.6294 26.0503 75.8402C24.473 77.0356 23.0744 78.6205 22.5459 80.5328C21.5456 84.1524 18.6076 85.7532 16.2673 86.3717C15.0867 86.6836 13.957 86.7804 13.0864 86.7573C12.6605 86.7461 12.229 86.7045 11.8523 86.616C11.6798 86.5755 11.4053 86.4996 11.1261 86.348C10.9878 86.2729 10.7531 86.1287 10.5312 85.8811C10.2995 85.6226 10.0001 85.1523 10 84.5004C9.99986 83.6667 10.4819 83.0855 10.926 82.7969C11.2764 82.5692 11.6095 82.507 11.7243 82.4874C11.9786 82.4438 12.2148 82.4513 12.2968 82.4539L12.3021 82.4541C12.4081 82.4574 12.5268 82.4647 12.6204 82.4705L12.6402 82.4717C12.7485 82.4784 12.854 82.4848 12.9679 82.4896C13.424 82.509 13.9377 82.4983 14.4479 82.3695C14.9389 82.2455 15.417 82.0151 15.8402 81.5802C16.2659 81.1428 16.7423 80.389 17.0513 79.0503C17.7349 76.0884 19.3286 73.4442 20.6727 71.4696C21.0835 70.8662 21.5212 70.2555 21.8939 69.7355C22.1075 69.4374 22.2997 69.1691 22.4533 68.949C22.6877 68.6134 22.8566 68.3575 22.9707 68.1622C23.0243 68.0704 23.0525 68.0141 23.0651 67.9878C23.4563 66.2034 23.3054 64.2589 21.9644 61.0327C19.3758 54.8053 17.6248 47.7668 21.6474 41.9449C27.5006 33.4737 40.3371 33.1004 49.9929 39.772C59.6486 46.4436 63.8401 58.5823 57.9869 67.0535C54.0247 72.788 47.624 74.0489 40.0958 73.5319C40.0195 73.5266 39.9435 73.5214 39.8677 73.5162ZM20.157 76.2817C21.1518 74.2018 22.4706 72.3631 23.4837 70.9508C24.2802 69.8403 24.8877 68.9934 24.9999 68.5C25.531 66.1653 25.2703 63.7752 23.8112 60.265C21.2343 54.0657 19.9191 47.9646 23.2929 43.0818C28.2849 35.857 39.7298 35.1118 48.856 41.4175C57.9821 47.7231 61.3335 58.6918 56.3415 65.9166C52.993 70.7629 47.5345 72.038 40.2328 71.5366C40.1242 71.5291 40.0157 71.5216 39.9074 71.5141C36.3319 71.2674 32.8823 71.0294 28.9999 72C27.9661 72.2585 24.1103 74.0216 21.8999 77.2738C21.3678 78.0567 20.931 78.9259 20.652 79.8812C20.6404 79.9207 20.6292 79.9603 20.6182 80.0001C19.647 83.5143 16.2154 84.5683 13.9865 84.7354C12.8319 84.822 12 84.6706 12 84.5C12 84.4361 12.1901 84.4478 12.5092 84.4674C12.8703 84.4897 13.3966 84.522 13.9997 84.4666C15.7234 84.308 18.0744 83.4318 18.9885 79.5497C18.9924 79.5332 18.9962 79.5166 19.0001 79.5C19.2577 78.3836 19.6682 77.3036 20.157 76.2817ZM12.153 86.4518C12.1526 86.4517 12.1592 86.4516 12.174 86.452C12.1608 86.4522 12.1534 86.452 12.153 86.4518Z" fill="#6A1E43"/>
<path fill-rule="evenodd" clip-rule="evenodd" d="M24.1909 69.9531C23.9823 70.2557 23.743 70.5893 23.4837 70.9508C21.973 73.0569 19.7822 76.1112 19.0001 79.5C17.7789 84.7917 13.9066 84.5534 12.5092 84.4674C12.1901 84.4478 12 84.4361 12 84.5C12.0001 85 19.144 85.3347 20.6182 80C21.9999 75 27.7069 72.3233 28.9999 72C32.8823 71.0294 36.3319 71.2674 39.9074 71.5141C40.0158 71.5216 40.1242 71.5291 40.2328 71.5365C47.5345 72.038 52.993 70.7629 56.3415 65.9166C61.3335 58.6917 57.9821 47.7231 48.856 41.4174C46.4719 39.7702 43.9296 38.6041 41.3854 37.909C42.223 38.3569 43.0486 38.8596 43.856 39.4174C52.9821 45.7231 56.3335 56.6917 51.3415 63.9166C47.993 68.7629 42.5345 70.038 35.2328 69.5365C35.1242 69.5291 35.0158 69.5216 34.9074 69.5141C31.3906 69.2715 27.9957 69.0372 24.1909 69.9531Z" fill="#94245A"/>
<path d="M44.1182 46C44.1182 49.3137 39.8649 52 34.6182 52C29.3715 52 25.1182 49.3137 25.1182 46C25.1182 42.6863 29.3715 40 34.6182 40C39.8649 40 44.1182 42.6863 44.1182 46Z" fill="#D05490"/>
<path fill-rule="evenodd" clip-rule="evenodd" d="M35.1066 42.814C35.2093 43.636 34.6262 44.3857 33.8042 44.4885C32.7892 44.6153 31.6341 45.1054 30.6788 46.0607C30.093 46.6465 29.1433 46.6465 28.5575 46.0607C27.9717 45.4749 27.9717 44.5252 28.5575 43.9394C30.0022 42.4947 31.7804 41.7181 33.4321 41.5116C34.2541 41.4089 35.0038 41.992 35.1066 42.814Z" fill="white"/>
<path d="M52.992 59.1553C52.5609 59.7405 51.737 59.8654 51.1519 59.4343C50.5668 59.0032 50.4419 58.1793 50.873 57.5942C51.3041 57.0091 52.1279 56.8842 52.713 57.3153C53.2982 57.7464 53.4231 58.5702 52.992 59.1553Z" fill="#771846"/>
<path d="M55.0805 63.4951C54.6494 64.0802 53.8255 64.2051 53.2404 63.774C52.6553 63.3429 52.5304 62.5191 52.9615 61.9339C53.3926 61.3488 54.2164 61.2239 54.8015 61.655C55.3867 62.0861 55.5116 62.9099 55.0805 63.4951Z" fill="#771846"/>
<path d="M56.6484 59.0435C56.3251 59.4823 55.7073 59.576 55.2684 59.2526C54.8296 58.9293 54.7359 58.3115 55.0592 57.8726C55.3825 57.4338 56.0004 57.3401 56.4393 57.6634C56.8781 57.9868 56.9718 58.6046 56.6484 59.0435Z" fill="#771846"/>
<path d="M51.7615 66.9052C51.3304 67.4903 50.5066 67.6152 49.9214 67.1841C49.3363 66.753 49.2114 65.9292 49.6425 65.344C50.0736 64.7589 50.8974 64.634 51.4826 65.0651C52.0677 65.4962 52.1926 66.32 51.7615 66.9052Z" fill="#771846"/>
<path d="M50.4976 62.6299C50.0665 63.215 49.2427 63.3399 48.6575 62.9088C48.0724 62.4777 47.9475 61.6539 48.3786 61.0688C48.8097 60.4836 49.6335 60.3587 50.2187 60.7898C50.8038 61.2209 50.9287 62.0448 50.4976 62.6299Z" fill="#771846"/>
<path d="M46.8565 68.8644C46.4254 69.4495 45.6015 69.5744 45.0164 69.1433C44.4313 68.7122 44.3064 67.8884 44.7375 67.3033C45.1686 66.7181 45.9924 66.5932 46.5775 67.0243C47.1627 67.4554 47.2876 68.2793 46.8565 68.8644Z" fill="#771846"/>
<path d="M46.3435 64.7196C45.9124 65.3047 45.0886 65.4296 44.5035 64.9985C43.9183 64.5674 43.7935 63.7436 44.2246 63.1584C44.6557 62.5733 45.4795 62.4484 46.0646 62.8795C46.6497 63.3106 46.7746 64.1344 46.3435 64.7196Z" fill="#771846"/>
<path d="M41.7149 69.567C41.3915 70.0058 40.7737 70.0995 40.3348 69.7761C39.896 69.4528 39.8023 68.835 40.1256 68.3961C40.449 67.9573 41.0668 67.8636 41.5057 68.1869C41.9445 68.5102 42.0382 69.1281 41.7149 69.567Z" fill="#771846"/>
</svg>
