<svg width="96" height="96" viewBox="0 0 96 96" fill="none" xmlns="http://www.w3.org/2000/svg">
<path d="M69.2618 25.2794C69.2618 25.2794 69.8059 33.7506 66.9543 37.8101C63.5173 42.7028 55.9057 41.7135 55.9057 41.7135C55.9057 41.7135 54.7133 35.0792 58.6866 30.1902C61.743 26.4294 69.2618 25.2794 69.2618 25.2794Z" fill="#64AC1D"/>
<path fill-rule="evenodd" clip-rule="evenodd" d="M71.2577 25.1512L69.2618 25.2794L68.9594 23.3024C69.5139 23.2176 70.0784 23.3695 70.5154 23.7211C70.9524 24.0726 71.2218 24.5915 71.2577 25.1512ZM67.2799 25.6967C68.4628 25.4016 69.2618 25.2794 69.2618 25.2794C69.2618 25.2794 69.3131 26.0778 69.3017 27.3019C69.2758 30.065 68.9304 34.9969 66.9543 37.8101C63.5173 42.7029 55.9057 41.7136 55.9057 41.7136C55.9057 41.7136 54.7133 35.0793 58.6866 30.1902C60.7467 27.6554 64.834 26.3067 67.2799 25.6967ZM55.9057 41.7136C53.9373 42.0674 53.9371 42.0667 53.937 42.0659L53.9367 42.0643L53.9361 42.0607L53.9345 42.0515L53.9301 42.0259C53.9267 42.0056 53.9223 41.9789 53.9172 41.946C53.9069 41.8803 53.8937 41.79 53.879 41.677C53.8496 41.4513 53.8144 41.1342 53.7865 40.7426C53.731 39.9618 53.7035 38.8717 53.8138 37.611C54.0323 35.1126 54.8064 31.7936 57.1345 28.9289C59.0403 26.584 62.1525 25.2094 64.4851 24.4281C65.6986 24.0216 66.8045 23.7428 67.6071 23.5651C68.0097 23.476 68.3393 23.4117 68.5721 23.369C68.6885 23.3476 68.781 23.3317 68.8465 23.3207C68.8793 23.3152 68.9053 23.311 68.9242 23.308L68.9473 23.3043L68.9547 23.3031L68.9594 23.3024C68.9599 23.3024 68.9594 23.3024 69.2618 25.2794C71.2577 25.1512 71.2577 25.1508 71.2577 25.1512L71.258 25.1557L71.2584 25.1632L71.2599 25.1874C71.2611 25.2075 71.2626 25.2356 71.2645 25.2714C71.2682 25.3428 71.2731 25.4446 71.2781 25.5737C71.2881 25.8317 71.2988 26.1995 71.3022 26.6515C71.309 27.5529 71.287 28.8017 71.1704 30.1898C70.9467 32.8536 70.3467 36.4602 68.5908 38.9598C66.4198 42.0504 63.0163 43.1718 60.4497 43.5727C59.1389 43.7774 57.9582 43.8093 57.1063 43.7912C56.6781 43.7821 56.3271 43.7603 56.0772 43.7399C55.9521 43.7297 55.8518 43.7199 55.7794 43.7121C55.7432 43.7083 55.7139 43.7049 55.6918 43.7023L55.6643 43.699L55.6547 43.6978L55.651 43.6973L55.6494 43.6971C55.6486 43.697 55.648 43.6969 55.9057 41.7136ZM53.9373 42.0674L55.9057 41.7136L55.648 43.6969C54.7836 43.5845 54.0915 42.9253 53.9373 42.0674Z" fill="#156319"/>
<path d="M75.7228 37.3909C75.7228 37.3909 71.1333 46.1438 65.8392 48.4533C59.4585 51.2368 52.4891 45.6433 52.4891 45.6433C52.4891 45.6433 55.3213 38.3243 62.2332 35.8693C67.55 33.9808 75.7228 37.3909 75.7228 37.3909Z" fill="#7CD623"/>
<path fill-rule="evenodd" clip-rule="evenodd" d="M77.494 38.3197L75.7228 37.391L76.4929 35.5452C77.0105 35.7612 77.4137 36.1846 77.604 36.7122C77.7944 37.2397 77.7545 37.823 77.494 38.3197ZM73.8187 36.7069C74.9892 37.0849 75.7228 37.391 75.7228 37.391C75.7228 37.391 75.357 38.0885 74.713 39.1417C73.0755 41.8193 69.6388 46.7958 65.8392 48.4533C59.4585 51.2368 52.4891 45.6433 52.4891 45.6433C52.4891 45.6433 55.3213 38.3243 62.2332 35.8693C65.9571 34.5466 71.0821 35.8233 73.8187 36.7069ZM52.4891 45.6433C50.6239 44.9215 50.6241 44.9208 50.6244 44.9201L50.625 44.9186L50.6264 44.915L50.63 44.9058L50.6405 44.8794C50.6489 44.8583 50.6603 44.8303 50.6746 44.7957C50.7032 44.7267 50.7436 44.6313 50.7962 44.5127C50.9014 44.2757 51.0557 43.9449 51.262 43.5449C51.6734 42.7469 52.2974 41.6617 53.1582 40.4917C54.8664 38.1701 57.5976 35.3934 61.5638 33.9847C64.7862 32.8401 68.6351 33.3388 71.4158 33.9719C72.8546 34.2994 74.1117 34.6884 75.0094 34.9951C75.4595 35.1489 75.8225 35.2831 76.0765 35.3804C76.2035 35.4291 76.3036 35.4686 76.3738 35.4967C76.409 35.5108 76.4367 35.5221 76.4567 35.5303L76.4807 35.5402L76.4883 35.5433L76.4929 35.5452C76.4934 35.5454 76.4929 35.5452 75.7228 37.391C77.494 38.3197 77.4942 38.3193 77.494 38.3197L77.4919 38.3239L77.488 38.3312L77.4752 38.3553C77.4645 38.3754 77.4494 38.4038 77.4299 38.4398C77.391 38.5119 77.3349 38.6148 77.2624 38.7449C77.1176 39.0048 76.9072 39.374 76.6388 39.8222C76.1033 40.7165 75.3306 41.9361 74.3813 43.2357C72.5494 45.7438 69.8122 48.9022 66.6389 50.2865C62.7269 51.9931 58.7659 51.0813 56.007 49.9403C54.6018 49.3591 53.4258 48.6859 52.6014 48.1594C52.1873 47.895 51.857 47.6644 51.6255 47.4962C51.5096 47.412 51.4181 47.3432 51.3528 47.2932C51.3202 47.2682 51.2941 47.2479 51.2748 47.2328L51.2509 47.2139L51.2428 47.2075L51.2397 47.205L51.2384 47.204C51.2378 47.2035 51.2372 47.2031 52.4891 45.6433ZM50.6239 44.9215L52.4891 45.6433L51.2372 47.2031C50.5574 46.6575 50.3093 45.7344 50.6239 44.9215Z" fill="#156319"/>
<path d="M64.6295 47.4379C68.889 45.925 73.2156 39.0379 73.2156 39.0379C63.8132 39.826 57.5906 44.4129 55.5097 46.2152C55.5097 46.2152 60.37 48.9508 64.6295 47.4379Z" fill="#6FC21C"/>
<path d="M47 60.3353C47 68.8957 40.0604 75.8353 31.5 75.8353C22.9396 75.8353 16 68.8957 16 60.3353C16 51.7749 22.9396 44.8353 31.5 44.8353C40.0604 44.8353 47 51.7749 47 60.3353Z" fill="#517BCB"/>
<path fill-rule="evenodd" clip-rule="evenodd" d="M49 60.3353C49 70.0003 41.165 77.8353 31.5 77.8353C21.835 77.8353 14 70.0003 14 60.3353C14 50.6703 21.835 42.8353 31.5 42.8353C41.165 42.8353 49 50.6703 49 60.3353ZM31.5 75.8353C40.0604 75.8353 47 68.8957 47 60.3353C47 51.7749 40.0604 44.8353 31.5 44.8353C22.9396 44.8353 16 51.7749 16 60.3353C16 68.8957 22.9396 75.8353 31.5 75.8353Z" fill="#173F8B"/>
<path d="M30 54.3353C30 57.3729 27.5376 59.8353 24.5 59.8353C21.4624 59.8353 19 57.3729 19 54.3353C19 51.2978 21.4624 48.8353 24.5 48.8353C27.5376 48.8353 30 51.2978 30 54.3353Z" fill="#73A3FE"/>
<path fill-rule="evenodd" clip-rule="evenodd" d="M25.5 73.8353C34.0604 73.8353 41 66.8957 41 58.3353C41 52.6194 37.906 47.6261 33.3015 44.9388C41.0132 45.8315 47 52.3842 47 60.3353C47 68.8957 40.0604 75.8353 31.5 75.8353C28.6554 75.8353 25.9899 75.069 23.6984 73.7317C24.2894 73.8001 24.8906 73.8353 25.5 73.8353Z" fill="#3C64B1"/>
<path d="M56 38.3353C56 46.3435 49.5081 52.8353 41.5 52.8353C33.4919 52.8353 27 46.3435 27 38.3353C27 30.3272 33.4919 23.8353 41.5 23.8353C49.5081 23.8353 56 30.3272 56 38.3353Z" fill="#517BCB"/>
<path fill-rule="evenodd" clip-rule="evenodd" d="M58 38.3353C58 47.448 50.6127 54.8353 41.5 54.8353C32.3873 54.8353 25 47.448 25 38.3353C25 29.2226 32.3873 21.8353 41.5 21.8353C50.6127 21.8353 58 29.2226 58 38.3353ZM41.5 52.8353C49.5081 52.8353 56 46.3435 56 38.3353C56 30.3272 49.5081 23.8353 41.5 23.8353C33.4919 23.8353 27 30.3272 27 38.3353C27 46.3435 33.4919 52.8353 41.5 52.8353Z" fill="#173F8B"/>
<path fill-rule="evenodd" clip-rule="evenodd" d="M39.5 50.8353C47.5081 50.8353 54 44.3435 54 36.3353C54 32.8406 52.7636 29.6346 50.7045 27.1309C53.9379 29.7902 56 33.822 56 38.3353C56 46.3435 49.5081 52.8353 41.5 52.8353C36.9866 52.8353 32.9549 50.7732 30.2955 47.5398C32.7992 49.599 36.0052 50.8353 39.5 50.8353Z" fill="#3C64B1"/>
<path d="M73 58.8353C73 66.5673 66.732 72.8353 59 72.8353C51.268 72.8353 45 66.5673 45 58.8353C45 51.1033 51.268 44.8353 59 44.8353C66.732 44.8353 73 51.1033 73 58.8353Z" fill="#517BCB"/>
<path fill-rule="evenodd" clip-rule="evenodd" d="M75 58.8353C75 67.6719 67.8366 74.8353 59 74.8353C50.1634 74.8353 43 67.6719 43 58.8353C43 49.9988 50.1634 42.8353 59 42.8353C67.8366 42.8353 75 49.9988 75 58.8353ZM59 72.8353C66.732 72.8353 73 66.5673 73 58.8353C73 51.1033 66.732 44.8353 59 44.8353C51.268 44.8353 45 51.1033 45 58.8353C45 66.5673 51.268 72.8353 59 72.8353Z" fill="#173F8B"/>
<path fill-rule="evenodd" clip-rule="evenodd" d="M56 70.8354C63.732 70.8354 70 64.5674 70 56.8354C70 52.6216 68.1384 48.8426 65.1927 46.276C69.8185 48.5612 73 53.3268 73 58.8354C73 66.5674 66.732 72.8354 59 72.8354C55.4819 72.8354 52.2668 71.5377 49.8074 69.3948C51.6744 70.3171 53.7767 70.8354 56 70.8354Z" fill="#3C64B1"/>
<path d="M68.4841 62.3741C69.272 63.1482 69.2831 64.4145 68.5089 65.2024C67.7348 65.9902 66.4685 66.0014 65.6806 65.2272C64.8927 64.453 64.8816 63.1867 65.6558 62.3989C66.43 61.611 67.6962 61.5999 68.4841 62.3741Z" fill="#254B95"/>
<path d="M70.9186 57.7563C71.5095 58.3369 71.5178 59.2866 70.9372 59.8775C70.3565 60.4685 69.4068 60.4768 68.8159 59.8962C68.225 59.3155 68.2167 58.3658 68.7973 57.7749C69.3779 57.184 70.3277 57.1757 70.9186 57.7563Z" fill="#254B95"/>
<path d="M67.3521 54.2519C67.943 54.8325 67.9514 55.7823 67.3707 56.3732C66.7901 56.9641 65.8404 56.9724 65.2495 56.3918C64.6586 55.8111 64.6503 54.8614 65.2309 54.2705C65.8115 53.6796 66.7612 53.6713 67.3521 54.2519Z" fill="#254B95"/>
<path d="M66.4063 67.3422C66.8002 67.7293 66.8058 68.3624 66.4187 68.7563C66.0316 69.1503 65.3985 69.1558 65.0045 68.7687C64.6106 68.3817 64.6051 67.7485 64.9921 67.3546C65.3792 66.9607 66.0124 66.9551 66.4063 67.3422Z" fill="#254B95"/>
<path d="M60 53.3353C60 56.3729 57.5376 58.8353 54.5 58.8353C51.4624 58.8353 49 56.3729 49 53.3353C49 50.2978 51.4624 47.8353 54.5 47.8353C57.5376 47.8353 60 50.2978 60 53.3353Z" fill="#73A3FE"/>
<path d="M42 32.3353C42 35.3729 39.5376 37.8353 36.5 37.8353C33.4624 37.8353 31 35.3729 31 32.3353C31 29.2978 33.4624 26.8353 36.5 26.8353C39.5376 26.8353 42 29.2978 42 32.3353Z" fill="#73A3FE"/>
<path fill-rule="evenodd" clip-rule="evenodd" d="M35.9701 28.5928C36.1041 29.1286 35.7783 29.6715 35.2425 29.8055C34.7756 29.9222 33.7469 30.4709 33.4701 31.5779C33.3362 32.1137 32.7933 32.4394 32.2575 32.3055C31.7217 32.1715 31.3959 31.6286 31.5298 31.0928C32.0531 28.9998 33.8911 28.0818 34.7575 27.8652C35.2933 27.7312 35.8362 28.057 35.9701 28.5928Z" fill="white"/>
<path fill-rule="evenodd" clip-rule="evenodd" d="M25.5 55.8352C25.9332 55.8352 26.3172 56.1142 26.4511 56.5262L27.0123 58.2536H28.8287C29.2619 58.2536 29.6459 58.5326 29.7798 58.9446C29.9136 59.3567 29.767 59.808 29.4165 60.0627L27.947 61.1303L28.5083 62.8577C28.6422 63.2698 28.4955 63.7211 28.145 63.9758C27.7945 64.2304 27.32 64.2304 26.9695 63.9758L25.5 62.9082L24.0305 63.9758C23.68 64.2304 23.2055 64.2304 22.855 63.9758C22.5045 63.7211 22.3578 63.2698 22.4917 62.8577L23.053 61.1303L21.5835 60.0627C21.233 59.808 21.0864 59.3567 21.2202 58.9446C21.3541 58.5326 21.7381 58.2536 22.1713 58.2536H23.9877L24.5489 56.5262C24.6828 56.1142 25.0668 55.8352 25.5 55.8352ZM25.5 59.8722C25.3857 60.0174 25.233 60.1283 25.0597 60.1921C25.1624 60.3457 25.2207 60.5251 25.2279 60.7098C25.4057 60.6595 25.5943 60.6595 25.7721 60.7098C25.7793 60.5251 25.8376 60.3457 25.9403 60.1921C25.767 60.1283 25.6143 60.0174 25.5 59.8722Z" fill="black"/>
<path fill-rule="evenodd" clip-rule="evenodd" d="M41.5 31.8353C41.9332 31.8353 42.3172 32.1143 42.4511 32.5263L43.0123 34.2538H44.8287C45.2619 34.2538 45.6459 34.5327 45.7798 34.9448C45.9136 35.3568 45.767 35.8081 45.4165 36.0628L43.947 37.1304L44.5083 38.8579C44.6422 39.2699 44.4955 39.7213 44.145 39.9759C43.7945 40.2305 43.32 40.2305 42.9695 39.9759L41.5 38.9083L40.0305 39.9759C39.68 40.2305 39.2055 40.2305 38.855 39.9759C38.5045 39.7213 38.3578 39.2699 38.4917 38.8579L39.053 37.1304L37.5835 36.0628C37.233 35.8081 37.0864 35.3568 37.2202 34.9448C37.3541 34.5327 37.7381 34.2538 38.1713 34.2538H39.9877L40.5489 32.5263C40.6828 32.1143 41.0668 31.8353 41.5 31.8353ZM41.5 35.8723C41.3857 36.0175 41.233 36.1284 41.0597 36.1923C41.1624 36.3458 41.2207 36.5253 41.2279 36.7099C41.4057 36.6596 41.5943 36.6596 41.7721 36.7099C41.7793 36.5253 41.8376 36.3458 41.9403 36.1923C41.767 36.1284 41.6143 36.0175 41.5 35.8723Z" fill="black"/>
<path fill-rule="evenodd" clip-rule="evenodd" d="M63.4816 57.3871C63.9038 57.2902 64.3404 57.4762 64.5631 57.8479L65.576 59.5388L67.4972 59.098C67.9195 59.0012 68.3561 59.1872 68.5787 59.5588C68.8013 59.9305 68.7593 60.4032 68.4746 60.7298L67.1794 62.2157L68.1924 63.9066C68.415 64.2783 68.373 64.751 68.0883 65.0776C67.8036 65.4042 67.3411 65.5103 66.9425 65.3405L65.1291 64.5678L63.8339 66.0537C63.5492 66.3803 63.0867 66.4864 62.6881 66.3166C62.2895 66.1468 62.0457 65.7397 62.084 65.3081L62.2585 63.3447L60.4451 62.5721C60.0465 62.4023 59.8026 61.9951 59.841 61.5636C59.8793 61.1321 60.1912 60.7743 60.6134 60.6774L62.5347 60.2366L62.7091 58.2732C62.7475 57.8417 63.0593 57.4839 63.4816 57.3871ZM64.4025 61.4009C64.3178 61.6259 64.1543 61.8135 63.9429 61.9281C64.1308 62.0781 64.2587 62.2916 64.3023 62.5281C64.5031 62.3957 64.7456 62.3401 64.984 62.3717C64.9202 62.1398 64.9422 61.892 65.0459 61.675C64.8057 61.6641 64.5768 61.5665 64.4025 61.4009Z" fill="black"/>
<path d="M26 59.8352C26 60.3875 25.5523 60.8352 25 60.8352C24.4477 60.8352 24 60.3875 24 59.8352C24 59.2829 24.4477 58.8352 25 58.8352C25.5523 58.8352 26 59.2829 26 59.8352Z" fill="#9ABDFF"/>
<path fill-rule="evenodd" clip-rule="evenodd" d="M27 59.8352C27 60.9398 26.1046 61.8352 25 61.8352C23.8954 61.8352 23 60.9398 23 59.8352C23 58.7306 23.8954 57.8352 25 57.8352C26.1046 57.8352 27 58.7306 27 59.8352ZM25 60.8352C25.5523 60.8352 26 60.3875 26 59.8352C26 59.2829 25.5523 58.8352 25 58.8352C24.4477 58.8352 24 59.2829 24 59.8352C24 60.3875 24.4477 60.8352 25 60.8352Z" fill="black"/>
<path d="M42 35.8353C42 36.3876 41.5523 36.8353 41 36.8353C40.4477 36.8353 40 36.3876 40 35.8353C40 35.283 40.4477 34.8353 41 34.8353C41.5523 34.8353 42 35.283 42 35.8353Z" fill="#9ABDFF"/>
<path fill-rule="evenodd" clip-rule="evenodd" d="M43 35.8353C43 36.9399 42.1046 37.8353 41 37.8353C39.8954 37.8353 39 36.9399 39 35.8353C39 34.7308 39.8954 33.8353 41 33.8353C42.1046 33.8353 43 34.7308 43 35.8353ZM41 36.8353C41.5523 36.8353 42 36.3876 42 35.8353C42 35.283 41.5523 34.8353 41 34.8353C40.4477 34.8353 40 35.283 40 35.8353C40 36.3876 40.4477 36.8353 41 36.8353Z" fill="black"/>
<path d="M66 62.8352C66 63.3875 65.5523 63.8352 65 63.8352C64.4477 63.8352 64 63.3875 64 62.8352C64 62.2829 64.4477 61.8352 65 61.8352C65.5523 61.8352 66 62.2829 66 62.8352Z" fill="#9ABDFF"/>
<path fill-rule="evenodd" clip-rule="evenodd" d="M67 62.8352C67 63.9398 66.1046 64.8352 65 64.8352C63.8954 64.8352 63 63.9398 63 62.8352C63 61.7306 63.8954 60.8352 65 60.8352C66.1046 60.8352 67 61.7306 67 62.8352ZM65 63.8352C65.5523 63.8352 66 63.3875 66 62.8352C66 62.2829 65.5523 61.8352 65 61.8352C64.4477 61.8352 64 62.2829 64 62.8352C64 63.3875 64.4477 63.8352 65 63.8352Z" fill="black"/>
<path d="M37 70.8352C37 71.9398 36.1046 72.8352 35 72.8352C33.8954 72.8352 33 71.9398 33 70.8352C33 69.7306 33.8954 68.8352 35 68.8352C36.1046 68.8352 37 69.7306 37 70.8352Z" fill="#254B95"/>
<path d="M42 69.3352C42 70.1636 41.3284 70.8352 40.5 70.8352C39.6716 70.8352 39 70.1636 39 69.3352C39 68.5068 39.6716 67.8352 40.5 67.8352C41.3284 67.8352 42 68.5068 42 69.3352Z" fill="#254B95"/>
<path d="M42 64.3352C42 65.1636 41.3284 65.8352 40.5 65.8352C39.6716 65.8352 39 65.1636 39 64.3352C39 63.5068 39.6716 62.8352 40.5 62.8352C41.3284 62.8352 42 63.5068 42 64.3352Z" fill="#254B95"/>
<path d="M32 72.8352C32 73.3875 31.5523 73.8352 31 73.8352C30.4477 73.8352 30 73.3875 30 72.8352C30 72.2829 30.4477 71.8352 31 71.8352C31.5523 71.8352 32 72.2829 32 72.8352Z" fill="#254B95"/>
</svg>
