<svg width="96" height="96" viewBox="0 0 96 96" fill="none" xmlns="http://www.w3.org/2000/svg">
<path d="M21.9426 32.7233C34.3426 25.9233 50.1093 29.2233 56.4426 31.7233C51.9426 35.7234 46.9426 38.2233 36.9426 38.2233C28.9426 38.2233 23.6093 34.5566 21.9426 32.7233Z" fill="#6AA63F"/>
<path fill-rule="evenodd" clip-rule="evenodd" d="M58.412 31.3744C58.5332 32.0585 58.2907 32.7565 57.7714 33.2181C55.3891 35.3357 52.8027 37.1171 49.4448 38.3506C46.1032 39.5781 42.1068 40.2232 36.9426 40.2232C28.3588 40.2232 22.4946 36.3036 20.4628 34.0686C20.0506 33.6152 19.869 32.9978 19.97 32.3934C20.0711 31.789 20.4437 31.2643 20.981 30.9697C27.6073 27.3359 35.0495 26.44 41.5591 26.7379C48.0691 27.0357 53.811 28.5343 57.177 29.863C57.8232 30.1181 58.2908 30.6903 58.412 31.3744ZM23.825 31.7783C23.1902 32.069 22.5622 32.3835 21.9426 32.7233C22.3074 33.1245 22.8477 33.6135 23.5531 34.1326C26.0713 35.9858 30.6933 38.2232 36.9426 38.2232C45.6505 38.2232 50.5671 36.3276 54.6635 33.1965C55.2714 32.7319 55.8612 32.2401 56.4426 31.7233C55.8073 31.4725 55.0771 31.2137 54.2649 30.9578C47.3846 28.7903 34.6202 26.8347 23.825 31.7783Z" fill="#33691E"/>
<path fill-rule="evenodd" clip-rule="evenodd" d="M23.4587 34.0626C25.9548 35.929 30.6144 38.2233 36.9427 38.2233C46.9427 38.2233 51.9427 35.7234 56.4427 31.7234C55.3724 31.3009 54.0327 30.8555 52.4853 30.4399C48.5976 33.7304 43.8075 35.856 35.2163 36.3429C30.2375 36.6251 26.2126 35.4263 23.4587 34.0626Z" fill="#51862B"/>
<path d="M37.1862 18.3963C47.4457 17.7767 56.704 24.8958 60.0507 28.5329C55.8418 29.7719 51.7815 29.8616 45.246 26.7316C40.0176 24.2276 37.6943 20.1314 37.1862 18.3963Z" fill="#6AA63F"/>
<path fill-rule="evenodd" clip-rule="evenodd" d="M61.9781 29.067C61.7936 29.7329 61.2784 30.2563 60.6155 30.4515C58.3414 31.1209 56.0144 31.5051 53.3401 31.2624C50.6828 31.0213 47.8 30.1723 44.3822 28.5354C38.619 25.7753 35.9273 21.2139 35.2668 18.9583C35.0957 18.3742 35.2 17.7439 35.5501 17.2459C35.9002 16.748 36.458 16.4366 37.0656 16.3999C42.6853 16.0605 47.9392 17.8406 52.1572 20.1065C56.3751 22.3722 59.7026 25.2009 61.5225 27.1786C61.9903 27.6871 62.1626 28.4011 61.9781 29.067ZM39.3073 18.3754C38.6062 18.3475 37.8986 18.3532 37.1862 18.3963C37.3309 18.8904 37.6228 19.576 38.0871 20.3618C39.2532 22.3353 41.5066 24.9407 45.246 26.7316C50.6104 29.3007 54.3071 29.7007 57.7873 29.0763C58.547 28.94 59.2965 28.7549 60.0507 28.5329C59.6013 28.0444 59.0452 27.4932 58.3945 26.9064C54.5358 23.4267 47.3471 18.6947 39.3073 18.3754Z" fill="#33691E"/>
<path fill-rule="evenodd" clip-rule="evenodd" d="M39.7323 18.3964C38.8925 18.3467 38.0427 18.3445 37.186 18.3962C37.6941 20.1313 40.0175 24.2275 45.2459 26.7315C50.1421 29.0764 53.649 29.6143 56.87 29.2156C53.7261 29.1572 50.3902 28.1688 45.9728 25.3554C42.599 23.2067 40.6893 20.4716 39.7323 18.3964Z" fill="#8BCB5C"/>
<path fill-rule="evenodd" clip-rule="evenodd" d="M70.3233 25.7492C70.5851 26.2355 70.4032 26.8419 69.9169 27.1038C63.7429 30.4282 60.9127 35.8879 59.6644 41.022C58.4126 46.1708 58.7749 50.913 58.9383 52.6285C58.9906 53.1783 58.5874 53.6664 58.0376 53.7188C57.4878 53.7711 56.9996 53.3679 56.9473 52.8181C56.7773 51.0335 56.3896 46.0257 57.721 40.5495C59.0561 35.0587 62.1426 29.0184 68.9687 25.3428C69.455 25.081 70.0614 25.2629 70.3233 25.7492Z" fill="#B36444"/>
<path fill-rule="evenodd" clip-rule="evenodd" d="M75.9291 25.0217C76.0404 25.8426 75.4651 26.5983 74.6442 26.7097C65.2852 27.9787 43.4219 37.3342 32.8422 64.7631C32.544 65.536 31.6758 65.9209 30.9029 65.6228C30.1299 65.3246 29.745 64.4564 30.0432 63.6835C41.0635 35.1123 63.9335 25.1345 74.2411 23.7369C75.062 23.6256 75.8178 24.2008 75.9291 25.0217Z" fill="#845340"/>
<path d="M41.5095 67.8904C38.5796 74.7312 31.615 78.311 25.9537 75.8862C20.2924 73.4615 18.0782 65.9503 21.0081 59.1095C23.9381 52.2688 30.9026 48.6889 36.5639 51.1137C42.2252 53.5385 44.4395 61.0497 41.5095 67.8904Z" fill="#28303C"/>
<path fill-rule="evenodd" clip-rule="evenodd" d="M43.348 68.6778C40.1292 76.193 32.1533 80.7172 25.1663 77.7247C18.1794 74.7321 15.9509 65.8373 19.1697 58.3221C22.3885 50.8069 30.3644 46.2827 37.3514 49.2752C44.3383 52.2678 46.5668 61.1626 43.348 68.6778ZM25.9537 75.8862C31.615 78.311 38.5796 74.7311 41.5096 67.8904C44.4395 61.0496 42.2253 53.5384 36.564 51.1137C30.9026 48.6889 23.9381 52.2688 21.0081 59.1095C18.0782 65.9503 20.2924 73.4615 25.9537 75.8862Z" fill="#080300"/>
<path fill-rule="evenodd" clip-rule="evenodd" d="M23.0405 73.923C28.686 76.2742 35.5942 72.696 38.5091 65.8904C40.8661 60.3875 39.8942 54.4507 36.4768 51.0768C36.5059 51.089 36.535 51.1012 36.564 51.1137C42.2253 53.5384 44.4396 61.0496 41.5096 67.8904C38.5797 74.7311 31.6151 78.311 25.9538 75.8862C24.8466 75.412 23.8713 74.7433 23.0405 73.923Z" fill="#1C222A"/>
<path d="M35.5162 71.2802C35.5162 72.2433 34.7354 73.0241 33.7722 73.0241C32.8091 73.0241 32.0283 72.2433 32.0283 71.2802C32.0283 70.317 32.8091 69.5363 33.7722 69.5363C34.7354 69.5363 35.5162 70.317 35.5162 71.2802Z" fill="#10120E"/>
<path d="M39.0039 67.2111C39.0039 67.8532 38.4834 68.3737 37.8413 68.3737C37.1992 68.3737 36.6787 67.8532 36.6787 67.2111C36.6787 66.569 37.1992 66.0485 37.8413 66.0485C38.4834 66.0485 39.0039 66.569 39.0039 67.2111Z" fill="#10120E"/>
<path d="M40.1666 64.3046C40.1666 64.6256 39.9064 64.8859 39.5853 64.8859C39.2643 64.8859 39.004 64.6256 39.004 64.3046C39.004 63.9835 39.2643 63.7233 39.5853 63.7233C39.9064 63.7233 40.1666 63.9835 40.1666 64.3046Z" fill="#10120E"/>
<path d="M37.8413 70.1176C37.8413 70.4386 37.5811 70.6989 37.26 70.6989C36.939 70.6989 36.6787 70.4386 36.6787 70.1176C36.6787 69.7965 36.939 69.5363 37.26 69.5363C37.5811 69.5363 37.8413 69.7965 37.8413 70.1176Z" fill="#10120E"/>
<path d="M30.8656 73.6054C30.8656 73.9265 30.6054 74.1867 30.2843 74.1867C29.9633 74.1867 29.703 73.9265 29.703 73.6054C29.703 73.2844 29.9633 73.0241 30.2843 73.0241C30.6054 73.0241 30.8656 73.2844 30.8656 73.6054Z" fill="#10120E"/>
<path d="M31.7327 63.4699C30.4128 66.5515 27.2754 68.1642 24.7251 67.0719C22.1748 65.9796 21.1774 62.5959 22.4972 59.5143C23.8171 56.4327 26.9545 54.8201 29.5048 55.9124C32.0551 57.0047 33.0526 60.3883 31.7327 63.4699Z" fill="#526073"/>
<path fill-rule="evenodd" clip-rule="evenodd" d="M28.8208 58.0036C29.3372 58.98 28.9642 60.1902 27.9877 60.7065C27.4758 60.9772 27.0783 61.3162 26.7674 61.7234C26.0972 62.6015 24.8421 62.7699 23.9641 62.0997C23.0861 61.4295 22.9177 60.1744 23.5879 59.2964C24.2667 58.4072 25.1192 57.6985 26.1179 57.1705C27.0943 56.6541 28.3045 57.0271 28.8208 58.0036Z" fill="white"/>
<path d="M73.9864 56.5541C77.4717 63.7641 75.4599 71.9471 69.4931 74.8314C63.5262 77.7158 55.8638 74.2092 52.3786 66.9992C48.8933 59.7893 50.9051 51.6062 56.8719 48.7219C62.8388 45.8376 70.5012 49.3442 73.9864 56.5541Z" fill="#28303B"/>
<path fill-rule="evenodd" clip-rule="evenodd" d="M75.7872 55.6837C79.5917 63.5542 77.6288 73.1201 70.3635 76.6321C63.0983 80.144 54.3825 75.7401 50.578 67.8696C46.7734 59.9991 48.7364 50.4332 56.0016 46.9213C63.2668 43.4093 71.9826 47.8132 75.7872 55.6837ZM69.4931 74.8314C75.46 71.9471 77.4717 63.7641 73.9865 56.5541C70.5013 49.3442 62.8388 45.8376 56.872 48.7219C50.9051 51.6062 48.8934 59.7893 52.3786 66.9992C55.8639 74.2092 63.5263 77.7158 69.4931 74.8314Z" fill="#080300"/>
<path fill-rule="evenodd" clip-rule="evenodd" d="M64.493 74.8314C70.4598 71.9471 72.4716 63.7641 68.9864 56.5541C66.7867 52.0037 62.9232 48.9284 58.8722 48.0039C64.4567 46.6445 70.8804 50.1287 73.9864 56.5541C77.4716 63.7641 75.4598 71.9471 69.493 74.8314C67.292 75.8954 64.8603 76.0897 62.4927 75.5494C63.1745 75.3834 63.8438 75.1453 64.493 74.8314Z" fill="#1C222B"/>
<path d="M59.8445 59.2723C60.3035 62.0077 58.9835 64.5092 56.8962 64.8595C54.8089 65.2097 52.7446 63.2762 52.2856 60.5408C51.8266 57.8054 53.1466 55.3039 55.2339 54.9537C57.3212 54.6034 59.3855 56.5369 59.8445 59.2723Z" fill="#526073"/>
<path d="M72.5714 68.0334C73.0474 68.9271 72.7089 70.0374 71.8152 70.5134C70.9216 70.9895 69.8112 70.6509 69.3352 69.7573C68.8592 68.8637 69.1977 67.7533 70.0913 67.2773C70.985 66.8012 72.0953 67.1398 72.5714 68.0334Z" fill="#131511"/>
<path d="M73.7964 62.534C74.1138 63.1298 73.8881 63.87 73.2923 64.1874C72.6965 64.5047 71.9563 64.279 71.639 63.6833C71.3216 63.0875 71.5473 62.3473 72.143 62.0299C72.7388 61.7126 73.479 61.9383 73.7964 62.534Z" fill="#131511"/>
<path d="M73.4385 59.2626C73.5972 59.5605 73.4844 59.9306 73.1865 60.0893C72.8886 60.248 72.5185 60.1352 72.3598 59.8373C72.2011 59.5394 72.314 59.1693 72.6119 59.0106C72.9097 58.8519 73.2799 58.9648 73.4385 59.2626Z" fill="#131511"/>
<path d="M74.1542 65.8054C74.3129 66.1033 74.2001 66.4734 73.9022 66.6321C73.6043 66.7908 73.2342 66.6779 73.0755 66.3801C72.9168 66.0822 73.0297 65.7121 73.3276 65.5534C73.6254 65.3947 73.9956 65.5076 74.1542 65.8054Z" fill="#131511"/>
<path d="M69.4058 72.4894C69.5645 72.7873 69.4517 73.1574 69.1538 73.3161C68.8559 73.4747 68.4858 73.3619 68.3271 73.064C68.1684 72.7661 68.2813 72.396 68.5792 72.2373C68.877 72.0787 69.2471 72.1915 69.4058 72.4894Z" fill="#131511"/>
</svg>
