<svg width="96" height="96" viewBox="0 0 96 96" fill="none" xmlns="http://www.w3.org/2000/svg">
<path fill-rule="evenodd" clip-rule="evenodd" d="M47.604 50.247C47.4631 50.5708 47.311 50.8962 47.1472 51.223C46.9237 51.6691 46.5223 52.0217 46.0344 52.1262C45.5422 52.2316 45.0215 52.2876 44.4781 52.296C38.4849 57.1392 25.3055 59.3063 16.5755 50.7021C15.9185 50.0545 15.8609 49.0216 16.4755 48.3337C18.9648 45.5474 23.1934 42.8015 27.8365 41.327C24.9053 36.6612 23.2989 30.7565 24.5568 24.1089C24.7293 23.1972 25.5503 22.5597 26.4715 22.6709C31.3845 23.2637 37.8288 26.1592 42.5676 30.6163C43.9559 26.071 46.7306 21.7636 51.3237 18.9078C52.1071 18.4207 53.126 18.6101 53.6323 19.3812C58.7039 27.1054 59.8565 46.0195 47.604 50.247Z" fill="#6FB70D"/>
<path fill-rule="evenodd" clip-rule="evenodd" d="M49.0783 51.8282C49.0315 51.9251 48.9839 52.022 48.9353 52.119C48.4861 53.0156 47.6288 53.8301 46.4532 54.0818L46.0368 52.1374L46.4532 54.0818C46.0437 54.1695 45.6262 54.2291 45.2035 54.2629C41.8124 56.776 36.8238 58.4685 31.581 58.5417C26.0094 58.6194 19.9826 56.8683 15.1716 52.1265C13.7935 50.7683 13.6234 48.5242 14.984 47.0012C17.3062 44.402 20.9017 41.9151 24.933 40.2577C22.5585 35.5905 21.4145 29.9583 22.5917 23.7371C22.9481 21.8533 24.6831 20.4406 26.7111 20.6853C31.3128 21.2406 36.9929 23.5979 41.688 27.2397C43.3918 23.3563 46.1613 19.7625 50.2676 17.2093C51.9083 16.1892 54.1614 16.543 55.3042 18.2835C58.1347 22.5946 59.7507 29.7301 59.1052 36.3204C58.4834 42.6682 55.6674 49.135 49.0783 51.8282ZM47.604 50.247C59.8565 46.0195 58.7039 27.1055 53.6323 19.3812C53.126 18.6101 52.1071 18.4207 51.3237 18.9078C47.4261 21.3312 44.8378 24.8 43.295 28.5724C43.0197 29.2454 42.7778 29.9282 42.5676 30.6164C42.0407 30.1208 41.4928 29.6446 40.9282 29.1887C36.4148 25.5439 30.8383 23.1978 26.4715 22.6709C25.5503 22.5597 24.7293 23.1972 24.5568 24.1089C23.4532 29.941 24.5542 35.2012 26.8203 39.5547C27.1372 40.1635 27.4769 40.7546 27.8365 41.327C27.186 41.5336 26.5436 41.7651 25.913 42.0183C22.0426 43.5717 18.616 45.9378 16.4755 48.3337C15.8609 49.0216 15.9185 50.0546 16.5755 50.7021C25.3054 59.3063 38.4849 57.1393 44.4781 52.296C45.0215 52.2876 45.5422 52.2316 46.0344 52.1262C46.5223 52.0217 46.9237 51.6692 47.1472 51.2231C47.3109 50.8962 47.4631 50.5708 47.604 50.247Z" fill="#4A7A08"/>
<path d="M33.5 43.5C28.3 39.5 26.6667 30.1667 26.5 26C38.9 29.6 42.6667 35.1667 43 37.5C42.6 39.1 41.5 41.1667 41 42C35.4 49.2 25.3333 49 21 48C25 44.4 31 43.5 33.5 43.5Z" fill="#8DD031"/>
<path d="M41.1472 47.2233C41.311 46.8964 41.4632 46.5709 41.604 46.2471C51.8441 42.7139 52.7209 28.9223 49.7721 19.9781C50.2644 19.6024 50.7814 19.245 51.3237 18.9078C52.1071 18.4207 53.126 18.6101 53.6323 19.3812C58.7039 27.1054 59.8565 46.0195 47.604 50.247C47.4632 50.5708 47.311 50.8962 47.1472 51.2231C46.9237 51.6692 46.5223 52.0218 46.0344 52.1263C45.5422 52.2317 45.0214 52.2877 44.478 52.2961C38.5181 57.1123 25.4518 59.2821 16.7216 50.8446C24.651 54.2483 33.776 52.0959 38.478 48.2962C39.0214 48.2878 39.5422 48.2318 40.0344 48.1264C40.5223 48.0219 40.9237 47.6694 41.1472 47.2233Z" fill="#5A940B"/>
<path d="M68.9155 51.7887C68.9155 58.7195 63.297 64.338 56.3662 64.338C49.4354 64.338 43.8169 58.7195 43.8169 51.7887C43.8169 44.8579 49.4354 39.2394 56.3662 39.2394C63.297 39.2394 68.9155 44.8579 68.9155 51.7887Z" fill="#161D21"/>
<path fill-rule="evenodd" clip-rule="evenodd" d="M70.9155 51.7887C70.9155 59.824 64.4015 66.338 56.3662 66.338C48.3308 66.338 41.8169 59.824 41.8169 51.7887C41.8169 43.7533 48.3308 37.2394 56.3662 37.2394C64.4015 37.2394 70.9155 43.7533 70.9155 51.7887ZM56.3662 64.338C63.297 64.338 68.9155 58.7195 68.9155 51.7887C68.9155 44.8579 63.297 39.2394 56.3662 39.2394C49.4354 39.2394 43.8169 44.8579 43.8169 51.7887C43.8169 58.7195 49.4354 64.338 56.3662 64.338Z" fill="black"/>
<path d="M55.9014 62.9436C55.9014 69.8744 50.2829 75.4929 43.3521 75.4929C36.4213 75.4929 30.8028 69.8744 30.8028 62.9436C30.8028 56.0128 36.4213 50.3943 43.3521 50.3943C50.2829 50.3943 55.9014 56.0128 55.9014 62.9436Z" fill="#242E34"/>
<path fill-rule="evenodd" clip-rule="evenodd" d="M57.9014 62.9436C57.9014 70.9789 51.3875 77.4929 43.3521 77.4929C35.3168 77.4929 28.8028 70.9789 28.8028 62.9436C28.8028 54.9082 35.3168 48.3943 43.3521 48.3943C51.3875 48.3943 57.9014 54.9082 57.9014 62.9436ZM43.3521 75.4929C50.2829 75.4929 55.9014 69.8744 55.9014 62.9436C55.9014 56.0128 50.2829 50.3943 43.3521 50.3943C36.4213 50.3943 30.8028 56.0128 30.8028 62.9436C30.8028 69.8744 36.4213 75.4929 43.3521 75.4929Z" fill="black"/>
<path fill-rule="evenodd" clip-rule="evenodd" d="M40.3521 72.4929C47.2829 72.4929 52.9014 66.8743 52.9014 59.9436C52.9014 57.2441 52.0491 54.7437 50.5988 52.6968C53.8073 54.97 55.9014 58.7122 55.9014 62.9436C55.9014 69.8743 50.2829 75.4929 43.3521 75.4929C39.1208 75.4929 35.3786 73.3987 33.1054 70.1903C35.1523 71.6405 37.6527 72.4929 40.3521 72.4929Z" fill="#182024"/>
<path d="M48.2049 69.7969C48.3109 70.8528 47.5408 71.7948 46.4849 71.9008C45.4289 72.0068 44.487 71.2367 44.381 70.1808C44.275 69.1249 45.0451 68.1829 46.101 68.0769C47.1569 67.9709 48.0988 68.741 48.2049 69.7969Z" fill="#10161A"/>
<path d="M51.5809 64.9517C51.6515 65.6557 51.1381 66.2837 50.4342 66.3543C49.7302 66.425 49.1023 65.9116 49.0316 65.2077C48.9609 64.5037 49.4743 63.8758 50.1783 63.8051C50.8822 63.7344 51.5102 64.2478 51.5809 64.9517Z" fill="#10161A"/>
<path d="M52.5356 61.6373C52.5709 61.9893 52.3142 62.3033 51.9622 62.3386C51.6103 62.374 51.2963 62.1173 51.261 61.7653C51.2256 61.4133 51.4823 61.0993 51.8343 61.064C52.1863 61.0287 52.5002 61.2854 52.5356 61.6373Z" fill="#10161A"/>
<path d="M50.6261 68.2662C50.6615 68.6182 50.4048 68.9322 50.0528 68.9675C49.7008 69.0029 49.3868 68.7462 49.3515 68.3942C49.3162 68.0422 49.5729 67.7283 49.9248 67.6929C50.2768 67.6576 50.5908 67.9143 50.6261 68.2662Z" fill="#10161A"/>
<path d="M43.3623 72.8579C43.3976 73.2098 43.1409 73.5238 42.789 73.5592C42.437 73.5945 42.123 73.3378 42.0877 72.9858C42.0523 72.6338 42.309 72.3199 42.661 72.2845C43.013 72.2492 43.3269 72.5059 43.3623 72.8579Z" fill="#10161A"/>
<path d="M71.7042 37.845C71.7042 43.2356 67.3343 47.6056 61.9437 47.6056C56.553 47.6056 52.1831 43.2356 52.1831 37.845C52.1831 32.4544 56.553 28.0845 61.9437 28.0845C67.3343 28.0845 71.7042 32.4544 71.7042 37.845Z" fill="#242E34"/>
<path fill-rule="evenodd" clip-rule="evenodd" d="M73.7042 37.845C73.7042 44.3402 68.4388 49.6056 61.9437 49.6056C55.4485 49.6056 50.1831 44.3402 50.1831 37.845C50.1831 31.3499 55.4485 26.0845 61.9437 26.0845C68.4388 26.0845 73.7042 31.3499 73.7042 37.845ZM61.9437 47.6056C67.3343 47.6056 71.7042 43.2356 71.7042 37.845C71.7042 32.4544 67.3343 28.0845 61.9437 28.0845C56.553 28.0845 52.1831 32.4544 52.1831 37.845C52.1831 43.2356 56.553 47.6056 61.9437 47.6056Z" fill="black"/>
<path fill-rule="evenodd" clip-rule="evenodd" d="M58.9437 43.6056C64.3343 43.6056 68.7042 39.2357 68.7042 33.8451C68.7042 32.5514 68.4525 31.3164 67.9954 30.1866C70.2547 31.9743 71.7042 34.7404 71.7042 37.8451C71.7042 43.2357 67.3343 47.6056 61.9437 47.6056C57.8468 47.6056 54.3394 45.0815 52.8919 41.5036C54.5553 42.8198 56.6577 43.6056 58.9437 43.6056Z" fill="#182024"/>
<path d="M81 52.7182C81 58.1088 76.63 62.4788 71.2394 62.4788C65.8488 62.4788 61.4789 58.1088 61.4789 52.7182C61.4789 47.3276 65.8488 42.9576 71.2394 42.9576C76.63 42.9576 81 47.3276 81 52.7182Z" fill="#242E34"/>
<path fill-rule="evenodd" clip-rule="evenodd" d="M83 52.7182C83 59.2134 77.7346 64.4788 71.2394 64.4788C64.7442 64.4788 59.4789 59.2134 59.4789 52.7182C59.4789 46.223 64.7442 40.9576 71.2394 40.9576C77.7346 40.9576 83 46.223 83 52.7182ZM71.2394 62.4788C76.63 62.4788 81 58.1088 81 52.7182C81 47.3276 76.63 42.9576 71.2394 42.9576C65.8488 42.9576 61.4789 47.3276 61.4789 52.7182C61.4789 58.1088 65.8488 62.4788 71.2394 62.4788Z" fill="black"/>
<path fill-rule="evenodd" clip-rule="evenodd" d="M68.2394 59.4788C73.63 59.4788 78 55.1088 78 49.7182C78 47.7908 77.4413 45.9939 76.4771 44.4805C79.1963 46.2131 81 49.255 81 52.7182C81 58.1088 76.63 62.4788 71.2394 62.4788C67.7762 62.4788 64.7343 60.6751 63.0017 57.9559C64.5151 58.9201 66.312 59.4788 68.2394 59.4788Z" fill="#182024"/>
<path d="M72.6338 68.9859C72.6338 74.6332 68.0557 79.2112 62.4084 79.2112C56.7611 79.2112 52.1831 74.6332 52.1831 68.9859C52.1831 63.3385 56.7611 58.7605 62.4084 58.7605C68.0557 58.7605 72.6338 63.3385 72.6338 68.9859Z" fill="#333F46"/>
<path fill-rule="evenodd" clip-rule="evenodd" d="M74.6338 68.9859C74.6338 75.7377 69.1603 81.2112 62.4084 81.2112C55.6566 81.2112 50.1831 75.7377 50.1831 68.9859C50.1831 62.234 55.6566 56.7605 62.4084 56.7605C69.1603 56.7605 74.6338 62.234 74.6338 68.9859ZM62.4084 79.2112C68.0557 79.2112 72.6338 74.6332 72.6338 68.9859C72.6338 63.3385 68.0557 58.7605 62.4084 58.7605C56.7611 58.7605 52.1831 63.3385 52.1831 68.9859C52.1831 74.6332 56.7611 79.2112 62.4084 79.2112Z" fill="black"/>
<path fill-rule="evenodd" clip-rule="evenodd" d="M60.4085 77.2112C66.0558 77.2112 70.6338 72.6332 70.6338 66.9859C70.6338 64.6722 69.8654 62.538 68.5698 60.8245C71.0386 62.6912 72.6338 65.6522 72.6338 68.9859C72.6338 74.6332 68.0558 79.2112 62.4085 79.2112C59.0748 79.2112 56.1138 77.616 54.2471 75.1472C55.9606 76.4428 58.0948 77.2112 60.4085 77.2112Z" fill="#222C32"/>
<path d="M68.0732 74.4401C68.1559 75.2644 67.5548 75.9997 66.7305 76.0824C65.9062 76.1652 65.1709 75.564 65.0882 74.7398C65.0054 73.9155 65.6065 73.1802 66.4308 73.0974C67.2551 73.0147 67.9904 73.6158 68.0732 74.4401Z" fill="#172025"/>
<path d="M70.7085 70.658C70.7637 71.2075 70.363 71.6977 69.8134 71.7528C69.2639 71.808 68.7737 71.4073 68.7185 70.8577C68.6634 70.3082 69.0641 69.818 69.6137 69.7628C70.1632 69.7077 70.6534 70.1084 70.7085 70.658Z" fill="#172025"/>
<path d="M71.4538 68.0705C71.4814 68.3453 71.281 68.5904 71.0063 68.618C70.7315 68.6456 70.4864 68.4452 70.4588 68.1704C70.4312 67.8957 70.6316 67.6506 70.9064 67.623C71.1811 67.5954 71.4262 67.7958 71.4538 68.0705Z" fill="#172025"/>
<path d="M69.9632 73.2453C69.9908 73.5201 69.7905 73.7652 69.5157 73.7928C69.2409 73.8204 68.9958 73.62 68.9682 73.3452C68.9407 73.0705 69.141 72.8254 69.4158 72.7978C69.6906 72.7702 69.9357 72.9706 69.9632 73.2453Z" fill="#172025"/>
<path d="M64.2929 76.8296C64.3205 77.1044 64.1201 77.3495 63.8454 77.3771C63.5706 77.4046 63.3255 77.2043 63.2979 76.9295C63.2703 76.6547 63.4707 76.4096 63.7455 76.3821C64.0202 76.3545 64.2653 76.5549 64.2929 76.8296Z" fill="#172025"/>
<path d="M64 67C64 69.2091 62.2091 71 60 71C57.7908 71 56 69.2091 56 67C56 64.7909 57.7908 63 60 63C62.2091 63 64 64.7909 64 67Z" fill="#505B6C"/>
<path d="M71 50.5C71 51.8807 69.8807 53 68.5 53C67.1193 53 66 51.8807 66 50.5C66 49.1193 67.1193 48 68.5 48C69.8807 48 71 49.1193 71 50.5Z" fill="#505B6C"/>
<path d="M64 35.5C64 37.433 62.433 39 60.5 39C58.567 39 57 37.433 57 35.5C57 33.567 58.567 32 60.5 32C62.433 32 64 33.567 64 35.5Z" fill="#505B6C"/>
<path d="M45 59.5C45 62.5376 42.5376 65 39.5 65C36.4624 65 34 62.5376 34 59.5C34 56.4624 36.4624 54 39.5 54C42.5376 54 45 56.4624 45 59.5Z" fill="#505B6C"/>
<path fill-rule="evenodd" clip-rule="evenodd" d="M40.9545 71.7389C41.4139 72.4282 41.2276 73.3595 40.5382 73.819C39.6703 74.3974 38.7634 75.8105 38.37 77.7763C38.2074 78.5887 37.4171 79.1154 36.6048 78.9528C35.7925 78.7903 35.2657 78 35.4283 77.1876C35.9125 74.7683 37.1109 72.498 38.8744 71.3226C39.5638 70.8632 40.495 71.0495 40.9545 71.7389Z" fill="#965F0C"/>
<path fill-rule="evenodd" clip-rule="evenodd" d="M40.213 71.159C40.9928 71.4388 41.398 72.2978 41.1181 73.0775C40.5735 74.595 40.6713 76.1107 41.1528 77.8772C41.3707 78.6764 40.8994 79.501 40.1002 79.7188C39.3009 79.9367 38.4763 79.4654 38.2585 78.6662C37.688 76.5734 37.4646 74.3762 38.2945 72.0641C38.5744 71.2843 39.4333 70.8791 40.213 71.159Z" fill="#B97B1E"/>
<path fill-rule="evenodd" clip-rule="evenodd" d="M69.1978 76.0237C69.737 75.9043 70.271 76.2445 70.3904 76.7838C70.5609 77.5529 70.6767 77.8849 70.852 78.145C71.0276 78.4055 71.3228 78.6801 72.0547 79.168C72.5142 79.4743 72.6384 80.0952 72.332 80.5547C72.0257 81.0143 71.4048 81.1384 70.9453 80.8321C70.1771 80.32 69.6004 79.8664 69.1936 79.2629C68.7865 78.6589 68.6094 77.9909 68.4378 77.2164C68.3183 76.6772 68.6586 76.1432 69.1978 76.0237Z" fill="#965F0C"/>
<path fill-rule="evenodd" clip-rule="evenodd" d="M68.6535 76.3509C69.012 75.9308 69.6432 75.8808 70.0633 76.2394C70.2349 76.3858 70.352 76.4988 70.4531 76.5963C70.6139 76.7513 70.7341 76.8673 70.9684 77.0166C71.2686 77.208 71.7401 77.4155 72.6035 77.5054C73.1528 77.5626 73.5518 78.0542 73.4946 78.6035C73.4374 79.1529 72.9458 79.5518 72.3965 79.4946C71.2707 79.3774 70.4922 79.0849 69.8932 78.7031C69.4918 78.4471 69.1194 78.0939 68.9066 77.892C68.845 77.8336 68.7967 77.7878 68.765 77.7607C68.3449 77.4022 68.2949 76.771 68.6535 76.3509Z" fill="#B97B1E"/>
<path fill-rule="evenodd" clip-rule="evenodd" d="M79.7226 55.4252C79.9016 55.9477 80.4702 56.2262 80.9927 56.0472C81.738 55.7919 82.0817 55.7178 82.3951 55.7319C82.7089 55.7461 83.0971 55.855 83.8949 56.2254C84.3958 56.458 84.9904 56.2405 85.223 55.7396C85.4556 55.2387 85.2381 54.6441 84.7372 54.4115C83.8999 54.0226 83.2123 53.7667 82.4851 53.7339C81.7575 53.7011 81.0951 53.898 80.3446 54.1551C79.8221 54.3341 79.5436 54.9027 79.7226 55.4252Z" fill="#965F0C"/>
<path fill-rule="evenodd" clip-rule="evenodd" d="M79.7182 54.7901C79.5464 55.315 79.8327 55.8798 80.3576 56.0516C80.572 56.1217 80.7294 56.1628 80.8654 56.1983C81.0815 56.2548 81.2431 56.297 81.4926 56.4191C81.8124 56.5756 82.2351 56.87 82.7618 57.5601C83.0968 57.9992 83.7243 58.0836 84.1634 57.7485C84.6024 57.4135 84.6868 56.786 84.3518 56.3469C83.6652 55.4471 83.0099 54.935 82.3719 54.6227C81.9442 54.4134 81.4488 54.2797 81.1655 54.2032C81.0835 54.1811 81.0193 54.1637 80.9797 54.1508C80.4548 53.979 79.89 54.2652 79.7182 54.7901Z" fill="#B97B1E"/>
<path fill-rule="evenodd" clip-rule="evenodd" d="M70.4333 34.4835C70.8884 34.7965 71.511 34.6813 71.8239 34.2262C72.2704 33.5771 72.5022 33.3128 72.7623 33.1374C73.0228 32.9618 73.3994 32.8179 74.2608 32.6401C74.8017 32.5284 75.1496 31.9994 75.038 31.4585C74.9263 30.9177 74.3973 30.5697 73.8564 30.6814C72.9523 30.8681 72.2476 31.0723 71.6441 31.4792C71.0402 31.8864 70.6256 32.4393 70.176 33.0929C69.8631 33.548 69.9783 34.1706 70.4333 34.4835Z" fill="#965F0C"/>
<path fill-rule="evenodd" clip-rule="evenodd" d="M70.0514 33.9761C70.2262 34.5 70.7926 34.783 71.3165 34.6082C71.5305 34.5368 71.6814 34.476 71.8117 34.4235C72.0189 34.34 72.1739 34.2776 72.447 34.227C72.7971 34.1622 73.312 34.1467 74.1461 34.3871C74.6768 34.5401 75.231 34.234 75.384 33.7033C75.537 33.1726 75.2308 32.6184 74.7002 32.4654C73.6126 32.1519 72.7812 32.1311 72.0828 32.2605C71.6146 32.3472 71.137 32.535 70.8639 32.6424C70.7849 32.6734 70.723 32.6978 70.6835 32.711C70.1596 32.8858 69.8766 33.4522 70.0514 33.9761Z" fill="#B97B1E"/>
<path fill-rule="evenodd" clip-rule="evenodd" d="M39.1843 57.8348C39.9154 57.4602 40.2099 56.5657 39.8416 55.8292C39.4711 55.0882 38.5701 54.7879 37.8292 55.1584L38.5 56.5C37.8292 55.1584 37.8296 55.1582 37.8292 55.1584L37.8258 55.1601L37.8221 55.1619L37.8135 55.1663L37.7918 55.1776C37.7754 55.1862 37.7551 55.197 37.7314 55.2101C37.684 55.2362 37.6224 55.2716 37.5498 55.3163C37.4054 55.4051 37.2128 55.5338 37.0004 55.7037C36.5863 56.035 36.0379 56.57 35.6583 57.3292C35.2879 58.0702 35.5882 58.9712 36.3292 59.3417C37.0701 59.7121 37.9711 59.4118 38.3416 58.6708C38.462 58.43 38.6637 58.215 38.8745 58.0463C38.9746 57.9662 39.0633 57.9074 39.1221 57.8713C39.151 57.8534 39.1714 57.8419 39.1806 57.8368C39.1822 57.836 39.1834 57.8353 39.1843 57.8348Z" fill="white"/>
<path fill-rule="evenodd" clip-rule="evenodd" d="M60.1708 64.1583C60.9118 64.5288 61.2121 65.4298 60.8417 66.1708L60.8412 66.1717L60.8407 66.1727L60.3417 67.1708C59.9712 67.9118 59.0702 68.2121 58.3292 67.8416C57.5882 67.4711 57.2879 66.5701 57.6584 65.8292L58.1577 64.8305L58.1581 64.8296C58.5286 64.0887 59.4299 63.7879 60.1708 64.1583Z" fill="white"/>
</svg>
