<svg width="96" height="96" viewBox="0 0 96 96" fill="none" xmlns="http://www.w3.org/2000/svg">
<path d="M71.315 49.625C71.315 62.8798 60.5698 73.625 47.315 73.625C34.0601 73.625 23.315 62.8798 23.315 49.625C23.315 36.3702 34.0601 25.625 47.315 25.625C60.5698 25.625 71.315 36.3702 71.315 49.625Z" fill="#E6FE54"/>
<path fill-rule="evenodd" clip-rule="evenodd" d="M73.315 49.625C73.315 63.9844 61.6744 75.625 47.315 75.625C32.9556 75.625 21.315 63.9844 21.315 49.625C21.315 35.2656 32.9556 23.625 47.315 23.625C61.6744 23.625 73.315 35.2656 73.315 49.625ZM47.315 73.625C60.5698 73.625 71.315 62.8798 71.315 49.625C71.315 36.3702 60.5698 25.625 47.315 25.625C34.0601 25.625 23.315 36.3702 23.315 49.625C23.315 62.8798 34.0601 73.625 47.315 73.625Z" fill="#7C3F29"/>
<path fill-rule="evenodd" clip-rule="evenodd" d="M47.315 73.625C60.5698 73.625 71.315 62.8798 71.315 49.625C71.315 36.3702 60.5698 25.625 47.315 25.625C34.0601 25.625 23.315 36.3702 23.315 49.625C23.315 62.8798 34.0601 73.625 47.315 73.625ZM47.315 66.625C56.7038 66.625 64.315 59.0138 64.315 49.625C64.315 40.2362 56.7038 32.625 47.315 32.625C37.9261 32.625 30.315 40.2362 30.315 49.625C30.315 59.0138 37.9261 66.625 47.315 66.625Z" fill="#C4F249"/>
<path fill-rule="evenodd" clip-rule="evenodd" d="M47.315 73.625C60.5698 73.625 71.315 62.8798 71.315 49.625C71.315 36.3702 60.5698 25.625 47.315 25.625C34.0601 25.625 23.315 36.3702 23.315 49.625C23.315 62.8798 34.0601 73.625 47.315 73.625ZM47.315 70.625C58.9129 70.625 68.315 61.223 68.315 49.625C68.315 38.027 58.9129 28.625 47.315 28.625C35.717 28.625 26.315 38.027 26.315 49.625C26.315 61.223 35.717 70.625 47.315 70.625Z" fill="#AEDE2D"/>
<path d="M57.315 50.625C57.315 56.1478 52.8378 60.625 47.315 60.625C41.7921 60.625 37.315 56.1478 37.315 50.625C37.315 45.1022 41.7921 40.625 47.315 40.625C52.8378 40.625 57.315 45.1022 57.315 50.625Z" fill="#F7FF98"/>
<path d="M53.315 50.125C53.315 53.1626 50.8525 55.625 47.815 55.625C44.7774 55.625 42.315 53.1626 42.315 50.125C42.315 47.0874 44.7774 44.625 47.815 44.625C50.8525 44.625 53.315 47.0874 53.315 50.125Z" fill="#FDFFE0"/>
<path fill-rule="evenodd" clip-rule="evenodd" d="M43.3149 68.625C56.5698 68.625 67.3149 57.8798 67.3149 44.625C67.3149 40.1086 66.0674 35.8835 63.8981 32.2756C68.4683 36.6453 71.3149 42.8027 71.3149 49.625C71.3149 62.8798 60.5698 73.625 47.3149 73.625C38.5765 73.625 30.9289 68.9549 26.7318 61.9744C31.0409 66.0944 36.8824 68.625 43.3149 68.625Z" fill="#AFDE30"/>
<path d="M40.261 31.0861C39.7131 31.9018 38.6077 32.1189 37.792 31.571C36.9763 31.0231 36.7592 29.9177 37.3071 29.102C37.855 28.2863 38.9604 28.0692 39.7761 28.6171C40.5918 29.165 40.8089 30.2704 40.261 31.0861Z" fill="#A5D22D"/>
<path d="M47.261 29.0861C46.7131 29.9018 45.6077 30.1189 44.792 29.571C43.9763 29.0231 43.7592 27.9177 44.3071 27.102C44.855 26.2863 45.9604 26.0692 46.7761 26.6171C47.5918 27.165 47.8089 28.2704 47.261 29.0861Z" fill="#A5D22D"/>
<path d="M32.0481 39.9303C31.6686 40.4953 30.9029 40.6456 30.338 40.2662C29.773 39.8867 29.6226 39.121 30.0021 38.5561C30.3816 37.9911 31.1472 37.8407 31.7122 38.2202C32.2772 38.5997 32.4275 39.3653 32.0481 39.9303Z" fill="#A5D22D"/>
<path d="M34.0481 34.0222C33.6686 34.5872 32.903 34.7376 32.338 34.3581C31.773 33.9786 31.6226 33.213 32.0021 32.648C32.3816 32.083 33.1472 31.9326 33.7122 32.3121C34.2772 32.6916 34.4276 33.4572 34.0481 34.0222Z" fill="#A5D22D"/>
<path d="M38.0481 35.0222C37.6686 35.5872 36.903 35.7376 36.338 35.3581C35.773 34.9786 35.6226 34.213 36.0021 33.648C36.3816 33.083 37.1472 32.9326 37.7122 33.3121C38.2772 33.6916 38.4276 34.4572 38.0481 35.0222Z" fill="#A5D22D"/>
<path d="M43.0481 32.0222C42.6686 32.5872 41.903 32.7376 41.338 32.3581C40.773 31.9786 40.6226 31.213 41.0021 30.648C41.3816 30.083 42.1472 29.9326 42.7122 30.3121C43.2772 30.6916 43.4276 31.4572 43.0481 32.0222Z" fill="#A5D22D"/>
<path d="M51.0481 30.0222C50.6686 30.5872 49.9029 30.7376 49.338 30.3581C48.773 29.9786 48.6226 29.213 49.0021 28.648C49.3816 28.083 50.1472 27.9326 50.7122 28.3121C51.2772 28.6916 51.4275 29.4572 51.0481 30.0222Z" fill="#A5D22D"/>
<path d="M64.5209 53.933C64.138 54.5031 63.3655 54.6548 62.7954 54.2719C62.2253 53.889 62.0736 53.1164 62.4565 52.5464C62.8394 51.9763 63.6119 51.8246 64.182 52.2075C64.7521 52.5904 64.9038 53.3629 64.5209 53.933Z" fill="#9DC926"/>
<path d="M65.8961 59.227C65.3482 60.0427 64.2428 60.2598 63.4271 59.7119C62.6113 59.164 62.3942 58.0586 62.9421 57.2429C63.49 56.4271 64.5954 56.21 65.4112 56.7579C66.2269 57.3058 66.444 58.4112 65.8961 59.227Z" fill="#9DC926"/>
<path d="M68.7522 54.1219C68.3413 54.7337 67.5122 54.8966 66.9004 54.4856C66.2886 54.0747 66.1258 53.2457 66.5367 52.6339C66.9477 52.0221 67.7767 51.8592 68.3885 52.2702C69.0003 52.6811 69.1631 53.5102 68.7522 54.1219Z" fill="#9DC926"/>
<path d="M62.6151 65.026C62.0672 65.8418 60.9618 66.0589 60.1461 65.511C59.3303 64.9631 59.1132 63.8576 59.6611 63.0419C60.209 62.2262 61.3145 62.0091 62.1302 62.557C62.9459 63.1049 63.163 64.2103 62.6151 65.026Z" fill="#9DC926"/>
<path d="M60.3897 59.3218C59.9627 59.9574 59.1014 60.1266 58.4658 59.6997C57.8302 59.2728 57.6611 58.4114 58.088 57.7758C58.5149 57.1402 59.3762 56.9711 60.0118 57.398C60.6474 57.8249 60.8166 58.6862 60.3897 59.3218Z" fill="#9DC926"/>
<path d="M57.0234 68.8067C56.4755 69.6224 55.37 69.8395 54.5543 69.2916C53.7386 68.7437 53.5215 67.6383 54.0694 66.8226C54.6173 66.0069 55.7227 65.7897 56.5384 66.3376C57.3541 66.8855 57.5712 67.991 57.0234 68.8067Z" fill="#9DC926"/>
<path d="M58.1141 64.0801C57.7255 64.6588 56.9413 64.8128 56.3627 64.4241C55.7841 64.0355 55.63 63.2513 56.0187 62.6727C56.4073 62.0941 57.1915 61.9401 57.7701 62.3287C58.3488 62.7174 58.5028 63.5015 58.1141 64.0801Z" fill="#9DC926"/>
<path d="M51.1237 69.8144C50.7128 70.4262 49.8838 70.5891 49.272 70.1781C48.6602 69.7672 48.4973 68.9382 48.9083 68.3264C49.3192 67.7146 50.1483 67.5517 50.76 67.9627C51.3718 68.3736 51.5347 69.2027 51.1237 69.8144Z" fill="#9DC926"/>
<path d="M38.0782 48.5981C39.6043 48.5981 40.8415 49.1283 40.8415 49.7824C40.8415 50.4364 39.6043 50.9666 38.0782 50.9666C36.5521 50.9666 35.315 50.4364 35.315 49.7824C35.315 49.1283 36.5521 48.5981 38.0782 48.5981Z" fill="#7D2B2B"/>
<path d="M49.1312 40.7032C49.1312 42.2293 48.601 43.4665 47.9469 43.4665C47.2929 43.4665 46.7627 42.2293 46.7627 40.7032C46.7627 39.1771 47.2929 37.9399 47.9469 37.9399C48.601 37.9399 49.1312 39.1771 49.1312 40.7032Z" fill="#7D2B2B"/>
<path d="M49.1312 58.8617C49.1312 60.3878 48.601 61.625 47.9469 61.625C47.2929 61.625 46.7627 60.3878 46.7627 58.8617C46.7627 57.3356 47.2929 56.0984 47.9469 56.0984C48.601 56.0984 49.1312 57.3356 49.1312 58.8617Z" fill="#7D2B2B"/>
<path d="M54.3421 43.948C53.344 45.1025 52.1339 45.6917 51.6391 45.2639C51.1443 44.8362 51.5522 43.5535 52.5503 42.399C53.5483 41.2445 54.7585 40.6553 55.2533 41.0831C55.7481 41.5108 55.3401 42.7935 54.3421 43.948Z" fill="#7D2B2B"/>
<path d="M42.4667 57.6849C41.4687 58.8394 40.2585 59.4286 39.7637 59.0009C39.2689 58.5732 39.6768 57.2905 40.6749 56.136C41.6729 54.9815 42.8831 54.3923 43.3779 54.82C43.8727 55.2477 43.4647 56.5304 42.4667 57.6849Z" fill="#7D2B2B"/>
<path d="M42.7625 42.2117C43.7157 43.4035 44.0743 44.7008 43.5635 45.1093C43.0527 45.5178 41.8659 44.8828 40.9128 43.691C39.9596 42.4992 39.601 41.2019 40.1118 40.7934C40.6225 40.3849 41.8093 41.0199 42.7625 42.2117Z" fill="#7D2B2B"/>
<path d="M54.1039 56.3928C55.0571 57.5846 55.4158 58.8819 54.905 59.2904C54.3942 59.6989 53.2074 59.0639 52.2542 57.8721C51.3011 56.6803 50.9424 55.383 51.4532 54.9744C51.964 54.5659 53.1508 55.201 54.1039 56.3928Z" fill="#7D2B2B"/>
<path d="M56.2368 48.5981C57.7629 48.5981 59 49.1283 59 49.7824C59 50.4364 57.7629 50.9666 56.2368 50.9666C54.7107 50.9666 53.4735 50.4364 53.4735 49.7824C53.4735 49.1283 54.7107 48.5981 56.2368 48.5981Z" fill="#7D2B2B"/>
</svg>
