<svg width="96" height="96" viewBox="0 0 96 96" fill="none" xmlns="http://www.w3.org/2000/svg">
<path d="M40.7798 51.0429C33.8632 48.2637 32.6275 39.3992 32.8742 35.3143C33.5916 33.862 35.151 36.1734 35.8409 37.5106C37.8191 41.2509 42.0807 42.8071 43.9642 43.1177C55.0112 45.2804 64.2043 39.2563 67.42 35.9739L62.6683 50.2985C58.254 51.7046 47.6964 53.8221 40.7798 51.0429Z" fill="#F8A61B"/>
<path fill-rule="evenodd" clip-rule="evenodd" d="M30.9022 34.7906L31.0811 34.4285C31.2738 34.0383 31.5849 33.5877 32.0899 33.2597C32.6325 32.9072 33.2393 32.8008 33.8 32.8733C34.7516 32.9964 35.439 33.6105 35.7792 33.9493C36.5615 34.7284 37.2346 35.8515 37.6131 36.5836C38.3776 38.0244 39.6138 39.1023 40.9394 39.8691C42.2757 40.6419 43.5825 41.0278 44.2896 41.1443L44.3191 41.1492L44.3485 41.155C54.5094 43.1442 63.0593 37.5671 65.9913 34.5743L69.3183 36.6036L64.2459 51.895L63.2753 52.2042C60.9393 52.9483 57.0517 53.8608 52.8381 54.2325C48.6647 54.6006 43.9244 54.4619 40.0341 52.8987C35.8754 51.2277 33.5266 47.7562 32.2661 44.3651C31.0101 40.9861 30.7407 37.4634 30.8778 35.1938L30.9022 34.7906ZM35.8409 37.5106C35.5952 37.0343 35.2391 36.4344 34.85 35.925C34.7059 35.7363 34.5572 35.56 34.408 35.407C33.8291 34.8137 33.2414 34.571 32.8742 35.3144C32.6275 39.3992 33.8632 48.2638 40.7798 51.0429C47.6964 53.8221 58.254 51.7047 62.6683 50.2985L67.42 35.9739C66.7192 36.6892 65.7347 37.5346 64.509 38.3972C60.1098 41.493 52.604 44.8092 43.9642 43.1177C42.0807 42.8072 37.8191 41.251 35.8409 37.5106Z" fill="#A76E0E"/>
<path fill-rule="evenodd" clip-rule="evenodd" d="M33.3002 34.8782C33.9093 39.1856 35.9222 44.5307 41.0147 46.577C47.9313 49.3562 58.4889 47.2387 62.9032 45.8326L65.6523 37.5449C61.4936 40.8342 53.4061 44.9662 43.9643 43.1177C42.0808 42.8072 37.8192 41.251 35.841 37.5106C35.2673 36.3986 34.0923 34.613 33.3002 34.8782Z" fill="#D98E0F"/>
<path d="M42.2206 51.6219C56.3463 47.1224 63.3372 34.3334 65.0669 28.5014C72.457 23.4377 74.9417 32.804 75.2603 38.1201C69.9109 51.1 58.7046 58.6359 53.7701 60.7813C40.4924 68.835 25.3624 62.7556 19.4571 58.7091C14.9871 55.1725 14.8912 52.5789 15.4019 51.7242C16.6505 49.9498 19.9111 51.315 22.7264 51.8222C28.9458 52.9427 38.1147 52.5383 42.2206 51.6219Z" fill="#FDEDC5"/>
<path fill-rule="evenodd" clip-rule="evenodd" d="M15.4019 51.7243C16.3753 50.341 18.5717 50.8659 20.8266 51.4048C21.464 51.5571 22.106 51.7105 22.7264 51.8223C28.9458 52.9428 38.1147 52.5384 42.2206 51.6221C56.3463 47.1225 63.3372 34.3336 65.0669 28.5016C72.457 23.4378 74.9417 32.8041 75.2603 38.1202C69.9109 51.1001 58.7046 58.636 53.7701 60.7815C40.4924 68.8351 25.3624 62.7557 19.4571 58.7093C14.9871 55.1726 14.8912 52.579 15.4019 51.7243ZM54.6925 62.5607C60.0228 60.1996 71.5551 52.3594 77.1094 38.8823L77.2841 38.4583L77.2567 38.0006C77.0904 35.225 76.3598 31.1247 74.4787 28.3077C73.5114 26.8593 72.097 25.544 70.1153 25.1576C68.1303 24.7705 66.0453 25.4067 63.9364 26.8517L63.3512 27.2527L63.1495 27.9329C61.5358 33.3735 54.9192 45.435 41.6995 49.6889C37.8072 50.5345 28.9937 50.9192 23.081 49.854C22.5201 49.7529 21.9367 49.6136 21.292 49.4596C21.2067 49.4393 21.1203 49.4186 21.0328 49.3978C20.3173 49.2275 19.5197 49.0429 18.7505 48.9365C17.3897 48.7485 15.1163 48.6547 13.7663 50.5734L13.7234 50.6344L13.6852 50.6983C12.9842 51.8713 13.0566 53.4603 13.7266 55.0063C14.4176 56.6007 15.817 58.3795 18.2161 60.2777L18.2699 60.3203L18.3266 60.3591C21.4997 62.5334 27.0303 65.1857 33.5236 66.2562C40.009 67.3255 47.5779 66.8324 54.6925 62.5607Z" fill="#BC9F7D"/>
<path fill-rule="evenodd" clip-rule="evenodd" d="M17.6893 52.6072C17.9302 52.1103 18.5284 51.9026 19.0254 52.1435C20.8821 53.0434 23.2318 53.4861 25.0949 53.4631C25.6471 53.4563 26.1003 53.8985 26.1072 54.4507C26.114 55.0029 25.6718 55.4561 25.1196 55.463C22.983 55.4893 20.3207 54.9939 18.1531 53.9433C17.6561 53.7024 17.4485 53.1042 17.6893 52.6072Z" fill="white"/>
<path fill-rule="evenodd" clip-rule="evenodd" d="M15.5951 54.2864C16.1288 55.4724 17.2688 56.9777 19.4571 58.7091C25.3624 62.7555 40.4924 68.8349 53.7701 60.7813C58.7046 58.6358 69.9109 51.0999 75.2603 38.12C75.0532 34.6639 73.9306 29.4959 71.1397 27.6941C72.1411 29.937 72.6173 32.7208 72.7451 34.853C67.3957 47.8329 56.1894 55.3688 51.2549 57.5142C37.9772 65.5679 22.8472 59.4884 16.9419 55.442C16.4395 55.0445 15.9924 54.6589 15.5951 54.2864Z" fill="#EBD59E"/>
<path d="M43.3694 60.0111C42.5938 60.0682 41.9188 59.4858 41.8617 58.7101C41.8046 57.9345 42.387 57.2595 43.1626 57.2024C43.9382 57.1453 44.6133 57.7278 44.6704 58.5034C44.7275 59.279 44.145 59.954 43.3694 60.0111Z" fill="#DCBF76"/>
<path d="M39.7865 63.6785C39.0109 63.7356 38.3359 63.1531 38.2788 62.3775C38.2217 61.6019 38.8041 60.9268 39.5798 60.8697C40.3554 60.8126 41.0304 61.3951 41.0875 62.1707C41.1446 62.9463 40.5621 63.6214 39.7865 63.6785Z" fill="#DCBF76"/>
<path d="M45.9004 62.0766C45.3187 62.1194 44.8124 61.6825 44.7696 61.1008C44.7268 60.5191 45.1636 60.0128 45.7453 59.97C46.327 59.9272 46.8333 60.364 46.8761 60.9457C46.919 61.5274 46.4821 62.0337 45.9004 62.0766Z" fill="#DCBF76"/>
<path d="M35.6236 62.9562C34.848 63.0133 34.173 62.4308 34.1159 61.6552C34.0588 60.8796 34.6413 60.2046 35.4169 60.1475C36.1925 60.0904 36.8675 60.6728 36.9246 61.4484C36.9817 62.224 36.3993 62.8991 35.6236 62.9562Z" fill="#DCBF76"/>
<path d="M38.2898 59.6884C37.5142 59.7455 36.8392 59.163 36.7821 58.3874C36.725 57.6118 37.3075 56.9367 38.0831 56.8796C38.8587 56.8225 39.5337 57.405 39.5908 58.1806C39.6479 58.9562 39.0655 59.6313 38.2898 59.6884Z" fill="#DCBF76"/>
<path d="M30.3152 62.7247C29.5395 62.7818 28.8645 62.1994 28.8074 61.4238C28.7503 60.6482 29.3328 59.9731 30.1084 59.916C30.884 59.8589 31.559 60.4414 31.6161 61.217C31.6732 61.9926 31.0908 62.6676 30.3152 62.7247Z" fill="#DCBF76"/>
<path d="M32.9759 59.4596C32.2002 59.5167 31.5252 58.9342 31.4681 58.1586C31.411 57.383 31.9935 56.708 32.7691 56.6509C33.5447 56.5938 34.2197 57.1762 34.2768 57.9519C34.3339 58.7275 33.7515 59.4025 32.9759 59.4596Z" fill="#DCBF76"/>
<path d="M26.2724 59.737C25.6907 59.7798 25.1844 59.3429 25.1416 58.7612C25.0988 58.1795 25.5356 57.6732 26.1173 57.6304C26.699 57.5876 27.2053 58.0244 27.2481 58.6061C27.291 59.1878 26.8541 59.6941 26.2724 59.737Z" fill="#DCBF76"/>
<path d="M61.298 27.9647C62.806 22.5457 67.2675 21.1174 69.5842 21.0441C70.6239 20.1229 70.9724 14.0824 70.2562 11.0054C75.7032 9.44514 77.8281 12.709 78.2097 14.5359C75.2547 15.8924 73.7467 19.9665 73.7917 21.9371C80.9614 34.6294 73.5378 45.4612 70.6001 49.3016C62.8484 59.4349 58.3392 60.3099 55.4368 68.6661C53.8568 73.215 53.24 84.8963 49.9588 82.3455C46.6776 79.7947 43.3665 59.7465 50.5113 47.359C55.1989 39.2319 59.413 34.7385 61.298 27.9647Z" fill="#FFBE18"/>
<path fill-rule="evenodd" clip-rule="evenodd" d="M70.2562 11.0053C70.9724 14.0824 70.6239 20.1229 69.5842 21.044C67.2675 21.1173 62.806 22.5456 61.298 27.9647C60.0402 32.4846 57.7453 35.9893 54.9647 40.2357C53.5782 42.3531 52.071 44.6549 50.5113 47.3589C43.3665 59.7464 46.6776 79.7946 49.9588 82.3454C52.2497 84.1264 53.2418 78.9696 54.1697 74.1465C54.5708 72.0615 54.96 70.0389 55.4368 68.666C57.1819 63.6419 59.5078 61.3222 62.77 58.0687C64.9336 55.9109 67.509 53.3423 70.6001 49.3015C73.5378 45.4612 80.9614 34.6293 73.7917 21.937C73.7467 19.9664 75.2547 15.8924 78.2097 14.5359C77.8779 12.9472 76.2278 10.272 72.2214 10.6271C71.9658 10.6498 71.7006 10.6848 71.4255 10.7332C71.054 10.7986 70.6644 10.8884 70.2562 11.0053ZM75.817 21.468C75.895 20.8379 76.1511 19.8951 76.6527 18.9238C77.2789 17.7114 78.121 16.7773 79.0441 16.3535C79.8921 15.9642 80.3582 15.0403 80.1675 14.1269C79.8893 12.7951 79.014 11.031 77.2505 9.84205C75.4094 8.60089 72.8817 8.17282 69.7055 9.08263C68.6812 9.37603 68.0668 10.4209 68.3083 11.4587C68.6049 12.7332 68.7039 14.7971 68.5827 16.7065C68.523 17.6464 68.4145 18.472 68.2775 19.0798C68.2699 19.1132 68.2624 19.1455 68.255 19.1765C65.2538 19.6882 60.9454 21.7715 59.3712 27.4285C58.5046 30.5426 57.0966 33.169 55.2619 36.0907C54.6714 37.0311 54.024 38.02 53.3372 39.0692C51.9332 41.2141 50.3643 43.6109 48.7789 46.3597C44.9364 53.0216 43.9734 61.5698 44.3278 68.6411C44.5063 72.2018 45.0228 75.4785 45.726 78.0687C46.077 79.3615 46.4854 80.5238 46.9432 81.4809C47.3761 82.3857 47.9502 83.3172 48.7313 83.9244C49.4409 84.4761 50.4323 84.9002 51.5602 84.616C52.5894 84.3566 53.2463 83.6191 53.6356 83.0412C54.4047 81.8994 54.9032 80.2051 55.2804 78.6355C55.5942 77.3296 55.8743 75.8734 56.1385 74.4996C56.2062 74.148 56.2728 73.8017 56.3386 73.4648C56.6742 71.7478 56.9851 70.3039 57.3261 69.3222C58.6492 65.5128 60.2974 63.4483 62.6341 61.0442C63.109 60.5556 63.616 60.0501 64.1548 59.513C66.3239 57.3504 69.0083 54.674 72.1886 50.5167C75.1276 46.6747 83.1608 35.1067 75.817 21.468ZM68.0605 19.7786C68.0603 19.7783 68.0631 19.7726 68.0692 19.7626C68.0636 19.7739 68.0606 19.7789 68.0605 19.7786Z" fill="#A2770B"/>
<path d="M70.3912 18.6404C72.0637 18.7245 73.2409 19.388 74.0295 20.2082C74.5598 18.1563 75.9685 15.5646 78.2096 14.5358C77.828 12.7089 75.7031 9.44504 70.2562 11.0053C70.7284 13.0343 70.7377 16.3518 70.3912 18.6404Z" fill="#E7961D"/>
<path d="M54.3681 44.6379C50.5612 48.9166 48.5141 56.6463 47.9664 59.9763C47.6387 66.2285 51.8246 57.5661 53.9585 52.4534C55.6812 48.0654 58.1749 40.3591 54.3681 44.6379Z" fill="#FFE091"/>
<path fill-rule="evenodd" clip-rule="evenodd" d="M53.3203 49.298C53.8006 49.5705 53.969 50.1809 53.6964 50.6612C53.2846 51.3869 52.3914 53.0442 52.0066 54.0239C51.8047 54.5379 51.2243 54.791 50.7102 54.589C50.1962 54.3871 49.9431 53.8067 50.145 53.2927C50.5875 52.1662 51.5463 50.3979 51.957 49.6741C52.2296 49.1938 52.84 49.0254 53.3203 49.298Z" fill="white"/>
<path fill-rule="evenodd" clip-rule="evenodd" d="M49.4161 81.7663C49.5959 82.01 49.7773 82.2045 49.9587 82.3455C52.2496 84.1265 53.2417 78.9697 54.1696 74.1465C54.5707 72.0616 54.9599 70.0389 55.4367 68.666C57.1818 63.6419 59.5077 61.3223 62.7699 58.0687C64.9335 55.9109 67.5089 53.3423 70.6 49.3016C73.5377 45.4612 80.9613 34.6294 73.7916 21.937C73.7466 19.9664 75.2546 15.8924 78.2096 14.5359C77.8757 12.9375 76.2074 10.2391 72.1473 10.6341C74.6108 11.1969 75.7122 13.1526 75.9766 14.4185C73.0216 15.775 71.5136 19.849 71.5586 21.8196C77.8776 33.0059 71.927 39.3729 67.516 44.0926C66.9221 44.7281 66.3561 45.3337 65.8518 45.9171C65.2276 46.6392 64.6326 47.3251 64.0648 47.9798C57.0429 56.0752 54.1731 59.3839 51.4878 67.1149C50.5505 69.8135 50.3154 73.3595 50.1154 76.377C49.962 78.6911 49.8292 80.6944 49.4161 81.7663Z" fill="#E6A706"/>
<path d="M74.0882 34.7499C74.75 35.5611 74.6289 36.7551 73.8177 37.4169C73.0065 38.0787 71.8125 37.9575 71.1507 37.1464C70.4889 36.3352 70.6101 35.1411 71.4212 34.4794C72.2324 33.8176 73.4265 33.9387 74.0882 34.7499Z" fill="#C08B00"/>
<path d="M74.2298 28.9262C74.671 29.467 74.5903 30.263 74.0495 30.7042C73.5087 31.1454 72.7127 31.0646 72.2715 30.5238C71.8303 29.9831 71.911 29.187 72.4518 28.7459C72.9926 28.3047 73.7886 28.3854 74.2298 28.9262Z" fill="#C08B00"/>
<path d="M73.2119 25.6797C73.4325 25.95 73.3921 26.3481 73.1217 26.5686C72.8514 26.7892 72.4533 26.7489 72.2327 26.4785C72.0122 26.2081 72.0525 25.8101 72.3229 25.5895C72.5933 25.3689 72.9913 25.4093 73.2119 25.6797Z" fill="#C08B00"/>
<path d="M75.2477 32.1731C75.4683 32.4435 75.4279 32.8415 75.1575 33.0621C74.8872 33.2826 74.4891 33.2423 74.2685 32.9719C74.048 32.7015 74.0883 32.3035 74.3587 32.0829C74.6291 31.8623 75.0271 31.9027 75.2477 32.1731Z" fill="#C08B00"/>
<path d="M71.7692 39.9035C71.9898 40.1739 71.9494 40.5719 71.679 40.7925C71.4086 41.0131 71.0106 40.9727 70.79 40.7024C70.5694 40.432 70.6098 40.0339 70.8802 39.8134C71.1506 39.5928 71.5486 39.6331 71.7692 39.9035Z" fill="#C08B00"/>
<path d="M68.3746 23.7257C69.1355 24.5264 68.7786 26.1007 67.5775 27.2421C66.3765 28.3834 64.786 28.6595 64.0251 27.8588C63.2642 27.058 63.6211 25.4837 64.8222 24.3424C66.0232 23.2011 67.6137 22.925 68.3746 23.7257Z" fill="#FFE090"/>
</svg>
