<svg width="96" height="96" viewBox="0 0 96 96" fill="none" xmlns="http://www.w3.org/2000/svg">
<path fill-rule="evenodd" clip-rule="evenodd" d="M40.6041 18.9515C40.6041 18.1231 41.2757 17.4515 42.1041 17.4515C44.7209 17.4515 46.6851 18.8575 48.0347 20.7938C49.3588 22.6937 50.1635 25.1836 50.5837 27.7049C50.7199 28.5221 50.1678 29.2949 49.3507 29.4311C48.5335 29.5673 47.7607 29.0153 47.6245 28.1981C47.2447 25.9195 46.5494 23.9094 45.5735 22.5092C44.6231 21.1456 43.4873 20.4515 42.1041 20.4515C41.2757 20.4515 40.6041 19.78 40.6041 18.9515Z" fill="#516405"/>
<path d="M30.5105 29.7148C30.5105 29.7148 38.4108 27.8937 41.2383 26.4515C44.4423 24.8174 47.704 29.3213 47.704 29.3213C47.704 29.3213 45.0324 31.4488 41.2383 31.4067C38.3198 31.3743 30.5105 29.7148 30.5105 29.7148Z" fill="#A6BE08"/>
<path fill-rule="evenodd" clip-rule="evenodd" d="M35.0375 28.5627C32.6133 29.23 30.5104 29.7148 30.5104 29.7148L30.0947 31.6711C29.1773 31.4761 28.5186 30.6698 28.5105 29.7319C28.5025 28.7941 29.1472 27.9766 30.0611 27.7659C30.0611 27.7659 30.0611 27.7659 30.0611 27.7659L30.081 27.7613L30.1445 27.7465C30.201 27.7333 30.2849 27.7136 30.3933 27.6878C30.6102 27.6363 30.9244 27.5609 31.3109 27.4657C32.0845 27.2752 33.1436 27.0067 34.2875 26.6945C36.6521 26.0491 39.1306 25.2814 40.3296 24.6699C43.0058 23.3049 45.5064 24.6379 46.8808 25.6798C47.6214 26.2412 48.2229 26.8503 48.6331 27.3076C48.8409 27.5393 49.0062 27.7394 49.1226 27.8857C49.181 27.9591 49.2274 28.0194 49.2611 28.0639C49.278 28.0862 49.2917 28.1046 49.3022 28.1187L49.3155 28.1368L49.3203 28.1433L49.323 28.1471C49.3234 28.1477 49.3238 28.1482 47.704 29.3213C47.704 29.3213 47.5874 29.1604 47.3768 28.9105C47.141 28.6306 46.7871 28.239 46.3466 27.8367C45.0995 26.6975 43.1586 25.4721 41.2383 26.4515C39.8696 27.1496 37.3121 27.9366 35.0375 28.5627ZM45.9678 30.3454C44.822 30.8834 43.1767 31.4282 41.2383 31.4067C39.8517 31.3913 37.361 31.0086 35.1283 30.6111C32.6619 30.172 30.5104 29.7148 30.5104 29.7148C30.0947 31.6711 30.0946 31.6711 30.0947 31.6711L30.1878 31.6907C30.2473 31.7032 30.3343 31.7214 30.4458 31.7445C30.6686 31.7907 30.9892 31.8565 31.3827 31.9355C32.169 32.0933 33.2495 32.3043 34.4241 32.5167C36.7042 32.9289 39.5577 33.3882 41.2162 33.4066C43.49 33.4318 45.4036 32.8082 46.7313 32.196C47.3991 31.8881 47.9327 31.5767 48.3075 31.3362C48.4954 31.2156 48.6447 31.112 48.7525 31.0342C48.8064 30.9952 48.8501 30.9627 48.883 30.9376C48.8995 30.9251 48.9134 30.9144 48.9245 30.9057L48.9392 30.8942L48.9451 30.8896L48.9476 30.8876L48.9488 30.8867C48.9493 30.8862 48.9499 30.8858 47.704 29.3213L48.9499 30.8858C49.7861 30.2199 49.9508 29.014 49.3238 28.1482L47.704 29.3213C47.704 29.3213 47.6154 29.3918 47.4476 29.5069C47.1647 29.7011 46.6565 30.022 45.9678 30.3454Z" fill="#667E06"/>
<path d="M65.6041 29.9515C65.6041 29.9515 58.1041 28.4515 54.4124 27.0092C49.9037 25.2477 47.64 30.3211 47.64 30.3211C47.64 30.3211 50.3116 32.4486 54.1057 32.4065C57.0242 32.3742 65.6041 29.9515 65.6041 29.9515Z" fill="#819405"/>
<path fill-rule="evenodd" clip-rule="evenodd" d="M61.3438 29.0096C59.0173 28.4557 56.2454 27.7254 54.4124 27.0092C49.9037 25.2477 47.64 30.3212 47.64 30.3212C47.64 30.3212 50.3116 32.4486 54.1057 32.4066C55.6444 32.3895 58.7568 31.708 61.3558 31.0674C63.6864 30.493 65.6041 29.9515 65.6041 29.9515C65.6041 29.9515 63.7029 29.5713 61.3438 29.0096ZM47.64 30.3212L45.8136 29.5062C45.442 30.339 45.6808 31.3176 46.3941 31.8857L47.64 30.3212ZM65.6041 29.9515L66.1476 31.8763C67.037 31.6251 67.6385 30.7972 67.6026 29.8737C67.5666 28.9502 66.9026 28.1717 65.9964 27.9904C65.9964 27.9904 65.9964 27.9904 65.9964 27.9904L65.9775 27.9866L65.917 27.9743C65.8632 27.9634 65.7829 27.947 65.679 27.9256C65.4712 27.8826 65.1688 27.8195 64.7939 27.7391C64.0435 27.5781 63.0055 27.3488 61.8551 27.0754C59.5179 26.52 56.8425 25.8114 55.1402 25.1464C51.964 23.9054 49.4829 25.1393 47.975 26.5386C47.2456 27.2155 46.7159 27.9447 46.3726 28.4889C46.1984 28.765 46.0657 29.004 45.9736 29.1802C45.9274 29.2686 45.891 29.3419 45.8645 29.3971C45.8512 29.4247 45.8403 29.4479 45.8318 29.4662L45.8209 29.49L45.8168 29.4991L45.8151 29.5029L45.8143 29.5046C45.8139 29.5054 45.8136 29.5062 47.64 30.3212C46.3941 31.8857 46.3947 31.8861 46.3952 31.8866L46.3964 31.8875L46.3989 31.8895L46.4047 31.8941L46.4194 31.9056C46.4306 31.9143 46.4444 31.9249 46.4609 31.9375C46.4939 31.9625 46.5376 31.9951 46.5915 32.034C46.6993 32.1118 46.8486 32.2155 47.0365 32.3361C47.4112 32.5766 47.9449 32.888 48.6126 33.1959C49.9404 33.8081 51.854 34.4317 54.1278 34.4064C55.8619 34.3872 58.9769 33.7043 61.4215 33.1104C62.6958 32.8008 63.8752 32.4928 64.7353 32.2625C65.1657 32.1472 65.5172 32.0511 65.7617 31.9836C65.884 31.9499 65.9796 31.9233 66.0451 31.905L66.1202 31.8839L66.1476 31.8763C66.1477 31.8762 66.1476 31.8763 65.6041 29.9515Z" fill="#516405"/>
<path d="M67.8876 41.9261C68.3441 50.7518 66.6907 62.1249 62.2824 66.6183C58.0887 70.8929 51.5296 76.4787 47.563 76.3079C43.5965 76.1372 36.099 69.759 33.5266 67.4207C27.3121 61.7718 26.041 50.2673 26.7146 41.1164C28.8152 27.2199 47.4723 32.8116 47.4723 32.8116C47.4723 32.8116 66.2076 27.9386 67.8876 41.9261Z" fill="#FF6C00"/>
<path fill-rule="evenodd" clip-rule="evenodd" d="M69.8814 41.7549L69.8849 41.8227C70.1209 46.3848 69.8136 51.603 68.87 56.2914C67.9438 60.8931 66.3357 65.3426 63.7101 68.0189C61.5659 70.2044 58.789 72.7554 56.0039 74.7548C54.612 75.754 53.1742 76.6474 51.7786 77.2858C50.4114 77.9112 48.9219 78.3683 47.477 78.3061C46.0523 78.2447 44.531 77.657 43.1549 76.9605C41.7334 76.2409 40.2552 75.294 38.8654 74.3087C36.0832 72.3365 33.4998 70.0992 32.1813 68.9007C28.638 65.6799 26.6354 60.9283 25.5817 55.9999C24.5217 51.0414 24.3733 45.6795 24.72 40.9696L24.7256 40.8932L24.737 40.8175C25.3389 36.8358 27.177 34.0804 29.6979 32.3173C32.1508 30.6017 35.0818 29.9408 37.7439 29.7575C40.4217 29.5732 42.9903 29.8611 44.864 30.184C45.8073 30.3466 46.5899 30.5208 47.1416 30.6557C47.2791 30.6893 47.4024 30.7205 47.5105 30.7486C47.6185 30.7248 47.7414 30.6985 47.8781 30.6704C48.4318 30.5566 49.2166 30.4126 50.161 30.2863C52.0369 30.0356 54.6038 29.8468 57.2654 30.1351C59.9122 30.4219 62.8091 31.1974 65.1969 33.007C67.6485 34.8649 69.3927 37.6861 69.8733 41.6876L69.8814 41.7549ZM47.4723 32.8116C47.4723 32.8116 28.8152 27.2199 26.7146 41.1164C26.041 50.2672 27.3121 61.7718 33.5266 67.4207C36.099 69.759 43.5965 76.1372 47.563 76.3079C51.5296 76.4787 58.0888 70.8929 62.2824 66.6182C66.6907 62.1249 68.3441 50.7518 67.8876 41.9261C66.2076 27.9386 47.4723 32.8116 47.4723 32.8116Z" fill="#A74A06"/>
<path fill-rule="evenodd" clip-rule="evenodd" d="M58.2823 65.6182C62.6906 61.1248 64.344 49.7517 63.8875 40.926C63.3018 36.0495 60.6432 33.4654 57.4282 32.168C62.2037 32.7742 67.0692 35.1124 67.8876 41.9261C68.3441 50.7519 66.6907 62.1249 62.2824 66.6183C58.0888 70.8929 51.5296 76.4787 47.563 76.308C46.6255 76.2676 45.4906 75.8804 44.2701 75.2818C48.2741 74.8422 54.3292 69.6476 58.2823 65.6182Z" fill="#DB5E02"/>
<path d="M39.9438 34.836C41.722 36.766 40.8166 40.4928 37.9217 43.1601C35.0267 45.8274 31.2384 46.4251 29.4602 44.4951C27.682 42.5651 28.5873 38.8383 31.4823 36.171C34.3772 33.5037 38.1656 32.906 39.9438 34.836Z" fill="#FF9E56"/>
<path d="M32.1496 56.3623C33.5554 55.5831 35.9455 57.2075 37.4879 59.9903C39.0304 62.7732 39.1411 65.6609 37.7352 66.4401C36.3293 67.2193 33.9393 65.595 32.3969 62.8121C30.8544 60.0292 30.7437 57.1415 32.1496 56.3623Z" fill="#FF8429"/>
<path d="M61.1271 52.1483C60.8559 52.98 59.9619 53.4343 59.1302 53.1631C58.2986 52.8919 57.8442 51.9978 58.1154 51.1662C58.3867 50.3345 59.2807 49.8802 60.1123 50.1514C60.944 50.4226 61.3983 51.3166 61.1271 52.1483Z" fill="#B95206"/>
<path d="M64.5416 57.4158C64.2704 58.2474 63.3764 58.7017 62.5447 58.4305C61.7131 58.1593 61.2587 57.2653 61.5299 56.4336C61.8011 55.602 62.6952 55.1477 63.5268 55.4189C64.3585 55.6901 64.8128 56.5841 64.5416 57.4158Z" fill="#B95206"/>
<path d="M65.5055 51.4938C65.3021 52.1175 64.6316 52.4583 64.0079 52.2549C63.3841 52.0515 63.0434 51.3809 63.2468 50.7572C63.4502 50.1334 64.1207 49.7927 64.7445 49.9961C65.3682 50.1995 65.7089 50.87 65.5055 51.4938Z" fill="#B95206"/>
<path d="M62.0402 62.5654C61.769 63.3971 60.875 63.8514 60.0433 63.5802C59.2117 63.309 58.7574 62.4149 59.0286 61.5833C59.2998 60.7516 60.1938 60.2973 61.0255 60.5685C61.8571 60.8397 62.3114 61.7338 62.0402 62.5654Z" fill="#B95206"/>
<path d="M58.6258 57.2978C58.3546 58.1295 57.4605 58.5838 56.6289 58.3126C55.7972 58.0414 55.3429 57.1474 55.6141 56.3157C55.8853 55.4841 56.7793 55.0297 57.611 55.3009C58.4426 55.5721 58.897 56.4662 58.6258 57.2978Z" fill="#B95206"/>
<path d="M58.4118 68.0174C58.1406 68.8491 57.2466 69.3034 56.4149 69.0322C55.5833 68.761 55.1289 67.867 55.4001 67.0353C55.6713 66.2037 56.5654 65.7493 57.397 66.0205C58.2287 66.2917 58.683 67.1858 58.4118 68.0174Z" fill="#B95206"/>
<path d="M56.1224 62.7315C55.8512 63.5631 54.9572 64.0175 54.1255 63.7463C53.2939 63.4751 52.8396 62.581 53.1108 61.7494C53.382 60.9177 54.276 60.4634 55.1077 60.7346C55.9393 61.0058 56.3937 61.8998 56.1224 62.7315Z" fill="#B95206"/>
<path d="M54.7029 70.9266C54.4995 71.5504 53.829 71.8911 53.2052 71.6877C52.5815 71.4843 52.2408 70.8138 52.4442 70.19C52.6476 69.5663 53.3181 69.2256 53.9418 69.429C54.5656 69.6324 54.9063 70.3029 54.7029 70.9266Z" fill="#B95206"/>
<path fill-rule="evenodd" clip-rule="evenodd" d="M35.6136 36.9117C36.0491 37.6164 35.8308 38.5408 35.1261 38.9762C34.5485 39.3331 34.0995 39.7684 33.7585 40.2835C33.3011 40.9742 32.3703 41.1633 31.6796 40.7059C30.9889 40.2485 30.7998 39.3178 31.2572 38.6271C31.8493 37.7328 32.6203 36.9981 33.5491 36.4241C34.2539 35.9886 35.1782 36.2069 35.6136 36.9117Z" fill="white"/>
<path d="M50.0774 40.9717C50.0774 40.9717 44.6804 35.3191 44.1565 32.4752C43.5251 29.0476 46.8533 25.6721 46.8533 25.6721C46.8533 25.6721 52.6125 27.6678 51.7851 31.2643C51.0547 34.4391 50.0774 40.9717 50.0774 40.9717Z" fill="#A6BE08"/>
<path fill-rule="evenodd" clip-rule="evenodd" d="M48.6309 42.3528L50.0774 40.9717C50.0774 40.9717 50.2361 39.9112 50.4733 38.4371C50.8249 36.2526 51.349 33.1599 51.7851 31.2643C52.6125 27.6678 46.8533 25.6722 46.8533 25.6722C47.5081 23.7824 47.5087 23.7826 47.5093 23.7828L47.5137 23.7843L47.5213 23.787L47.5429 23.7947C47.5601 23.8008 47.5827 23.809 47.6103 23.8192C47.6656 23.8396 47.7412 23.8682 47.8342 23.9049C48.0197 23.9782 48.2763 24.0848 48.5785 24.2243C49.1752 24.4998 49.9865 24.9204 50.787 25.4886C52.236 26.5169 54.4435 28.6295 53.7342 31.7127C53.3846 33.2322 52.9666 35.6026 52.6306 37.6348C52.4641 38.6421 52.3201 39.5514 52.2177 40.2089C52.1666 40.5376 52.1259 40.803 52.098 40.9859L52.0662 41.196L52.0555 41.2667C51.9426 42.0218 51.4094 42.6476 50.6816 42.8783C49.9538 43.1089 49.1581 42.905 48.6309 42.3528ZM48.3514 39.0441C46.7235 37.1382 44.4846 34.2561 44.1565 32.4752C43.5251 29.0476 46.8533 25.6722 46.8533 25.6722L47.5081 23.7824C46.7795 23.5299 45.9706 23.7188 45.4292 24.2679L46.8533 25.6722C45.4292 24.2679 45.4287 24.2684 45.4283 24.2688L45.4252 24.2719L45.4201 24.2772L45.4061 24.2915C45.3953 24.3028 45.3813 24.3173 45.3644 24.3352C45.3307 24.3708 45.2852 24.4194 45.23 24.4803C45.1197 24.602 44.9693 24.7734 44.794 24.9881C44.4458 25.4146 43.9869 26.0264 43.5471 26.7696C42.7056 28.191 41.7431 30.4138 42.1896 32.8376C42.3922 33.9374 43.0005 35.0902 43.6055 36.0606C44.2424 37.0824 45.0188 38.1231 45.7516 39.0392C46.4886 39.9606 47.2051 40.7852 47.7358 41.378C48.0018 41.6752 48.2228 41.916 48.3785 42.0838C48.4564 42.1677 48.5181 42.2334 48.5609 42.2789L48.6109 42.3318L48.6248 42.3464L48.6309 42.3528C48.6311 42.353 48.6309 42.3528 50.0774 40.9717C50.0774 40.9717 49.3233 40.1818 48.3514 39.0441Z" fill="#667E06"/>
<path fill-rule="evenodd" clip-rule="evenodd" d="M50.4895 38.3366C49.0761 36.7801 45.5734 32.7385 45.1565 30.4754C44.9641 29.4307 45.1395 28.3908 45.4763 27.4499C44.6468 28.7493 43.8119 30.6045 44.1565 32.4753C44.6804 35.3192 50.0774 40.9717 50.0774 40.9717C50.0774 40.9717 50.2433 39.8628 50.4895 38.3366Z" fill="#C9E319"/>
</svg>
