<svg width="96" height="96" viewBox="0 0 96 96" fill="none" xmlns="http://www.w3.org/2000/svg">
<path d="M65.4542 20.9681C65.4542 20.9681 63.4824 29.4192 59.4916 32.5489C54.6817 36.3211 47.5252 33.1027 47.5252 33.1027C47.5252 33.1027 48.3194 26.2577 53.6532 22.6477C57.7561 19.8708 65.4542 20.9681 65.4542 20.9681Z" fill="#10BC17"/>
<path fill-rule="evenodd" clip-rule="evenodd" d="M67.4019 21.4225L65.4542 20.9681L65.7364 18.9881C66.2917 19.0673 66.7882 19.3759 67.1049 19.8388C67.4216 20.3017 67.5293 20.8763 67.4019 21.4225ZM63.4367 20.7928C64.656 20.8543 65.4542 20.9681 65.4542 20.9681C65.4542 20.9681 65.2728 21.7454 64.9088 22.9158C64.0725 25.6046 62.2721 30.3684 59.4916 32.5489C54.6817 36.3211 47.5252 33.1027 47.5252 33.1027C47.5252 33.1027 48.3194 26.2577 53.6532 22.6477C56.435 20.765 60.8694 20.6631 63.4367 20.7928ZM47.5252 33.1027C45.5385 32.8722 45.5386 32.8715 45.5387 32.8708L45.5388 32.8692L45.5393 32.8655L45.5404 32.8561L45.5437 32.83C45.5463 32.8093 45.5499 32.7821 45.5546 32.7486C45.5639 32.6816 45.5776 32.5896 45.5965 32.4751C45.6344 32.2463 45.6935 31.9264 45.7818 31.5359C45.9578 30.7571 46.2526 29.6845 46.7321 28.486C47.6827 26.1103 49.4169 23.0999 52.5322 20.9914C55.0793 19.2675 58.5205 18.8425 61.0326 18.7675C62.3384 18.7285 63.5014 18.7824 64.3382 18.8457C64.758 18.8775 65.099 18.9119 65.339 18.9389C65.459 18.9524 65.554 18.9641 65.6211 18.9727C65.6547 18.977 65.6813 18.9805 65.7007 18.9832L65.7241 18.9864L65.7344 18.9878L65.7364 18.9881C65.7369 18.9882 65.7364 18.9881 65.4542 20.9681C67.4019 21.4225 67.402 21.4221 67.4019 21.4225L67.4009 21.4269L67.3991 21.4343L67.3934 21.4583C67.3886 21.4783 67.3819 21.5062 67.3732 21.5416C67.3557 21.6124 67.3304 21.7133 67.2972 21.8409C67.2309 22.096 67.1327 22.4586 67.0026 22.9014C66.743 23.7847 66.3527 24.9989 65.8289 26.3214C64.8228 28.8613 63.173 32.2035 60.7258 34.1227C57.7013 36.4947 54.0537 36.587 51.4286 36.2213C50.0885 36.0345 48.9262 35.7175 48.0996 35.4485C47.6843 35.3133 47.3481 35.1885 47.1102 35.095C46.9912 35.0482 46.8963 35.009 46.8281 34.9802C46.7939 34.9657 46.7664 34.9539 46.7458 34.9449L46.7201 34.9336L46.7111 34.9296L46.7062 34.9274C46.7055 34.9271 46.7049 34.9268 47.5252 33.1027ZM45.5385 32.8722L47.5252 33.1027L46.7049 34.9268C45.9099 34.5693 45.438 33.7381 45.5385 32.8722Z" fill="#156319"/>
<path d="M58.2396 31.9525C61.5265 29.7278 63.6861 22.9205 63.6861 22.9205C55.8681 25.6625 51.5901 30.9326 50.2186 32.9231C50.2186 32.9231 54.9526 34.1772 58.2396 31.9525Z" fill="#07A00E"/>
<path d="M33.7293 25.2239C33.7293 25.2239 40.1832 23.5423 43.7396 25.1374C48.026 27.0599 48.3967 33.0791 48.3967 33.0791C48.3967 33.0791 43.4565 34.9873 39.093 32.6504C35.7365 30.8528 33.7293 25.2239 33.7293 25.2239Z" fill="#13CA1B"/>
<path fill-rule="evenodd" clip-rule="evenodd" d="M33.225 23.2886L33.7293 25.2239L31.8455 25.8957C31.6571 25.3674 31.6992 24.7843 31.9615 24.2885C32.2238 23.7928 32.6823 23.43 33.225 23.2886ZM34.5351 27.0869C34.0093 26.0093 33.7293 25.2239 33.7293 25.2239C33.7293 25.2239 34.5262 25.0163 35.7143 24.8161C37.9073 24.4467 41.4329 24.1028 43.7396 25.1374C48.026 27.0599 48.3967 33.0791 48.3967 33.0791C48.3967 33.0791 43.4565 34.9873 39.093 32.6505C36.9902 31.5243 35.417 28.8944 34.5351 27.0869ZM48.3967 33.0791C49.1173 34.9448 49.1167 34.9451 49.116 34.9453L49.1145 34.9459L49.1112 34.9471L49.1033 34.9502L49.0819 34.9582C49.0652 34.9645 49.0436 34.9724 49.0174 34.9818C48.965 35.0007 48.8939 35.0256 48.8053 35.0549C48.6284 35.1136 48.381 35.1904 48.0743 35.2726C47.4631 35.4364 46.6037 35.6249 45.5878 35.7304C43.5789 35.9391 40.8078 35.8376 38.1488 34.4135C35.9429 33.2322 34.369 30.9434 33.4109 29.2464C32.9073 28.3546 32.5209 27.5289 32.26 26.9261C32.129 26.6235 32.0282 26.374 31.959 26.1965C31.9243 26.1076 31.8974 26.0366 31.8785 25.9857L31.856 25.9248L31.8492 25.9061L31.847 25.8999L31.8455 25.8957C31.8453 25.8953 31.8455 25.8957 33.7293 25.2239C33.225 23.2886 33.2246 23.2887 33.225 23.2886L33.229 23.2875L33.2353 23.2859L33.255 23.2809L33.3216 23.2642C33.3779 23.2502 33.4576 23.2308 33.5584 23.2073C33.7598 23.1602 34.0463 23.0962 34.3993 23.0253C35.1029 22.8839 36.0828 22.7126 37.1873 22.5939C39.2837 22.3688 42.256 22.28 44.5581 23.3126C47.4197 24.5961 48.8485 27.1835 49.5573 29.1516C49.9211 30.1618 50.1272 31.0934 50.2432 31.7712C50.3015 32.1122 50.3381 32.3948 50.3604 32.5982C50.3716 32.7 50.3793 32.7824 50.3844 32.8428C50.387 32.873 50.3889 32.8978 50.3903 32.9168L50.392 32.9409L50.3925 32.9497L50.3929 32.9548C50.3929 32.9555 50.3929 32.9562 48.3967 33.0791ZM49.1173 34.9448L48.3967 33.0791L50.3929 32.9562C50.4465 33.8262 49.9305 34.6307 49.1173 34.9448Z" fill="#156319"/>
<path fill-rule="evenodd" clip-rule="evenodd" d="M34.7082 25.0033C34.0982 25.1278 33.7293 25.2239 33.7293 25.2239C33.7293 25.2239 35.7365 30.8528 39.093 32.6504C43.4565 34.9873 48.3967 33.0791 48.3967 33.0791C48.3967 33.0791 48.3083 31.6437 47.7187 29.951C46.0975 30.4856 42.6492 31.2753 39.356 29.7864C37.3682 28.8876 35.738 26.7042 34.7082 25.0033Z" fill="#33ED3B"/>
<path d="M69.5596 53.7426C69.5596 65.9444 59.6681 75.8359 47.4664 75.8359C35.2646 75.8359 25.3731 65.9444 25.3731 53.7426C25.3731 41.5408 35.2646 31.6494 47.4664 31.6494C59.6681 31.6494 69.5596 41.5408 69.5596 53.7426Z" fill="#FE9F81"/>
<path fill-rule="evenodd" clip-rule="evenodd" d="M71.5596 53.7426C71.5596 67.049 60.7727 77.8359 47.4664 77.8359C34.16 77.8359 23.3731 67.049 23.3731 53.7426C23.3731 40.4363 34.16 29.6494 47.4664 29.6494C60.7727 29.6494 71.5596 40.4363 71.5596 53.7426ZM47.4664 75.8359C59.6681 75.8359 69.5596 65.9444 69.5596 53.7426C69.5596 41.5408 59.6681 31.6494 47.4664 31.6494C35.2646 31.6494 25.3731 41.5408 25.3731 53.7426C25.3731 65.9444 35.2646 75.8359 47.4664 75.8359Z" fill="#AB442D"/>
<path fill-rule="evenodd" clip-rule="evenodd" d="M56.9213 73.7163C50.339 72.7081 43.7557 66.2325 40.7977 57.0683C37.1518 45.7729 40.362 34.5715 47.9615 31.6548C47.7969 31.6512 47.6319 31.6494 47.4664 31.6494C35.2646 31.6494 25.3731 41.5409 25.3731 53.7426C25.3731 65.9444 35.2646 75.8359 47.4664 75.8359C50.8495 75.8359 54.055 75.0755 56.9213 73.7163Z" fill="#FF7E6C"/>
<path d="M52.7567 34.9638C55.4448 36.4059 55.8704 40.8436 53.7074 44.8757C51.5443 48.9078 47.6117 51.0074 44.9236 49.5654C42.2355 48.1234 41.8099 43.6857 43.973 39.6536C46.136 35.6215 50.0687 33.5218 52.7567 34.9638Z" fill="#FEC0AC"/>
<path fill-rule="evenodd" clip-rule="evenodd" d="M47.4606 40.8091C48.452 41.2962 48.8607 42.4947 48.3736 43.4861C48.0411 44.1627 47.8778 44.8324 47.8613 45.5114C47.8345 46.6157 46.9175 47.4891 45.8133 47.4622C44.7091 47.4354 43.8357 46.5184 43.8625 45.4142C43.8938 44.129 44.2083 42.8928 44.7836 41.722C45.2707 40.7307 46.4693 40.3219 47.4606 40.8091Z" fill="white"/>
<path fill-rule="evenodd" clip-rule="evenodd" d="M47.3242 31.0926C50.1777 30.0337 53.1645 30.3241 55.6151 31.1637C56.1376 31.3427 56.4161 31.9113 56.2371 32.4338C56.0581 32.9563 55.4894 33.2347 54.967 33.0557C52.8261 32.3223 50.33 32.1104 48.02 32.9677C45.7407 33.8135 43.5053 35.7503 41.9367 39.5846C38.7514 47.3709 40.6288 54.6161 41.9056 57.1698C42.1526 57.6637 41.9524 58.2644 41.4584 58.5114C40.9644 58.7584 40.3638 58.5582 40.1168 58.0642C38.632 55.0946 36.643 47.2427 40.0857 38.8273C41.8311 34.5607 44.4398 32.1629 47.3242 31.0926Z" fill="#AB442D"/>
<path d="M46.2201 70.916C46.8223 71.8908 46.5203 73.1692 45.5456 73.7715C44.5708 74.3738 43.2923 74.0718 42.69 73.097C42.0878 72.1222 42.3898 70.8437 43.3646 70.2415C44.3394 69.6392 45.6178 69.9412 46.2201 70.916Z" fill="#EC6B59"/>
<path d="M52.7354 70.2167C53.3377 71.1915 53.0357 72.47 52.0609 73.0722C51.0861 73.6745 49.8077 73.3725 49.2054 72.3977C48.6031 71.4229 48.9051 70.1445 49.8799 69.5422C50.8547 68.9399 52.1332 69.2419 52.7354 70.2167Z" fill="#EC6B59"/>
<path d="M49.7573 64.7225C50.2247 65.479 49.9903 66.4711 49.2338 66.9385C48.4774 67.4059 47.4852 67.1715 47.0178 66.415C46.5504 65.6585 46.7848 64.6664 47.5413 64.199C48.2978 63.7316 49.2899 63.966 49.7573 64.7225Z" fill="#EC6B59"/>
<path d="M57.0169 69.2346C57.4842 69.9911 57.2499 70.9833 56.4934 71.4506C55.7369 71.918 54.7448 71.6837 54.2774 70.9272C53.81 70.1707 54.0443 69.1785 54.8008 68.7112C55.5573 68.2438 56.5495 68.4781 57.0169 69.2346Z" fill="#EC6B59"/>
<path d="M43.4947 64.9827C43.9621 65.7392 43.7277 66.7313 42.9713 67.1987C42.2148 67.6661 41.2226 67.4317 40.7552 66.6752C40.2878 65.9187 40.5222 64.9266 41.2787 64.4592C42.0352 63.9918 43.0273 64.2262 43.4947 64.9827Z" fill="#EC6B59"/>
<path d="M35.5857 61.3698C36.0531 62.1263 35.8187 63.1184 35.0622 63.5858C34.3057 64.0532 33.3136 63.8189 32.8462 63.0624C32.3788 62.3059 32.6132 61.3137 33.3697 60.8464C34.1262 60.379 35.1183 60.6133 35.5857 61.3698Z" fill="#EC6B59"/>
<path d="M59.5857 64.3698C60.0531 65.1263 59.8187 66.1184 59.0622 66.5858C58.3057 67.0532 57.3136 66.8189 56.8462 66.0624C56.3788 65.3059 56.6132 64.3137 57.3697 63.8464C58.1262 63.379 59.1183 63.6133 59.5857 64.3698Z" fill="#EC6B59"/>
<path d="M40.0072 69.661C40.4746 70.4175 40.2402 71.4096 39.4837 71.877C38.7272 72.3444 37.7351 72.1101 37.2677 71.3536C36.8003 70.5971 37.0347 69.6049 37.7912 69.1375C38.5476 68.6702 39.5398 68.9045 40.0072 69.661Z" fill="#EC6B59"/>
<path d="M38.7868 64.8574C39.023 65.2397 38.9046 65.7411 38.5222 65.9774C38.1399 66.2136 37.6385 66.0951 37.4022 65.7128C37.166 65.3305 37.2845 64.829 37.6668 64.5928C38.0491 64.3566 38.5506 64.475 38.7868 64.8574Z" fill="#EC6B59"/>
<path d="M30.8122 60.6923C31.0485 61.0747 30.93 61.5761 30.5477 61.8123C30.1653 62.0485 29.6639 61.9301 29.4277 61.5478C29.1914 61.1654 29.3099 60.664 29.6922 60.4278C30.0746 60.1915 30.576 60.31 30.8122 60.6923Z" fill="#EC6B59"/>
<path d="M61.8122 67.6924C62.0484 68.0747 61.93 68.5762 61.5477 68.8124C61.1653 69.0486 60.6639 68.9302 60.4277 68.5478C60.1914 68.1655 60.3099 67.664 60.6922 67.4278C61.0746 67.1916 61.576 67.31 61.8122 67.6924Z" fill="#EC6B59"/>
<path d="M54.8122 64.6923C55.0484 65.0747 54.93 65.5761 54.5476 65.8123C54.1653 66.0485 53.6639 65.9301 53.4276 65.5478C53.1914 65.1654 53.3099 64.664 53.6922 64.4278C54.0746 64.1915 54.576 64.31 54.8122 64.6923Z" fill="#EC6B59"/>
<path d="M63.8122 63.6924C64.0484 64.0747 63.93 64.5762 63.5477 64.8124C63.1653 65.0486 62.6639 64.9302 62.4277 64.5478C62.1914 64.1655 62.3099 63.664 62.6922 63.4278C63.0746 63.1916 63.576 63.31 63.8122 63.6924Z" fill="#EC6B59"/>
<path d="M35.5356 65.867C35.9257 66.4984 35.7301 67.3265 35.0986 67.7166C34.4672 68.1067 33.6391 67.9111 33.249 67.2797C32.8589 66.6483 33.0545 65.8202 33.6859 65.4301C34.3174 65.04 35.1455 65.2356 35.5356 65.867Z" fill="#EC6B59"/>
</svg>
