<svg width="96" height="96" viewBox="0 0 96 96" fill="none" xmlns="http://www.w3.org/2000/svg">
<path fill-rule="evenodd" clip-rule="evenodd" d="M81.3677 12.578C81.832 13.5802 81.3958 14.7691 80.3935 15.2333C76.6988 16.9447 74.9475 20.5265 74.2337 22.1238C73.783 23.1322 72.6001 23.5844 71.5917 23.1337C70.5832 22.683 70.1311 21.5002 70.5818 20.4917C71.3323 18.8123 73.5834 13.9794 78.7124 11.6038C79.7147 11.1395 80.9035 11.5757 81.3677 12.578Z" fill="#88A31C"/>
<path fill-rule="evenodd" clip-rule="evenodd" d="M83.2268 15.4595C83.478 16.5351 82.8096 17.6107 81.734 17.8618C77.7688 18.7877 75.327 21.9395 74.3039 23.3587C73.6579 24.2547 72.4079 24.4574 71.5119 23.8114C70.6159 23.1655 70.4132 21.9155 71.0592 21.0195C72.1349 19.5273 75.32 15.2519 80.8244 13.9666C81.9001 13.7155 82.9756 14.3838 83.2268 15.4595Z" fill="#A9C635"/>
<path d="M53.4451 34.802C61.8408 17.7093 70.0616 17.3209 73.1226 19.2632C79.1569 21.853 75.9554 31.8885 74.4345 37.0681C69.1111 55.1966 56.3969 73.9726 41.9668 76.8861C31.3634 79.027 17.5518 77.621 15.256 66.9381C13.2892 57.7862 20.9774 51.6356 28.1925 50.017C35.4076 48.3984 45.0494 51.8946 53.4451 34.802Z" fill="#ADE05F"/>
<path fill-rule="evenodd" clip-rule="evenodd" d="M73.1226 19.2632C78.9525 21.7652 76.1618 31.217 74.5944 36.5254C74.5395 36.7115 74.486 36.8926 74.4345 37.0681C69.1111 55.1966 56.3969 73.9726 41.9668 76.8861C31.3634 79.027 17.5518 77.621 15.256 66.9381C13.2893 57.7862 20.9775 51.6356 28.1925 50.017C29.6635 49.687 31.2352 49.5696 32.8768 49.447C39.2872 48.9682 46.7611 48.4099 53.4452 34.802C61.8409 17.7093 70.0617 17.3209 73.1226 19.2632ZM64.2928 18.1576C68.2129 15.9196 71.7739 16.1229 74.054 17.4881C78.2079 19.3621 78.8516 23.7296 78.6072 27.3299C78.3712 30.8063 77.2687 34.535 76.5207 37.0649C76.4626 37.2612 76.4067 37.4503 76.3535 37.6316C73.6295 46.908 69.0145 56.3628 63.1995 63.904C57.4158 71.4046 50.2533 77.2534 42.3626 78.8465C36.8604 79.9575 30.4184 80.1772 24.9564 78.6468C19.4479 77.1034 14.656 73.6649 13.3007 67.3583C12.166 62.0782 13.8429 57.6164 16.79 54.3196C19.6889 51.0768 23.8077 48.951 27.7547 48.0655C29.3833 47.7002 31.1375 47.57 32.7847 47.4478C33.142 47.4213 33.4943 47.3951 33.8391 47.3671C35.8523 47.2031 37.7974 46.9685 39.7394 46.3163C43.4813 45.0596 47.6286 42.1073 51.65 33.9202C55.9407 25.185 60.3238 20.4236 64.2928 18.1576Z" fill="#669728"/>
<path fill-rule="evenodd" clip-rule="evenodd" d="M16.0359 69.3618C19.7754 77.826 32.225 78.8529 41.9667 76.886C56.3968 73.9725 69.111 55.1965 74.4344 37.068C74.4859 36.8925 74.5394 36.7114 74.5943 36.5253C76.1617 31.2169 78.9524 21.7652 73.1225 19.2631C73.0057 19.189 72.8813 19.1183 72.7498 19.0518C73.5355 22.9871 71.9464 28.3692 70.9012 31.9089C70.8463 32.0951 70.7928 32.2761 70.7413 32.4516C65.4179 50.5801 52.7037 69.3561 38.2736 72.2696C30.7128 73.7962 21.5209 73.5194 16.0359 69.3618Z" fill="#90C541"/>
<path d="M33.5242 53.5319C35.2307 56.0712 33.3056 60.3532 29.2244 63.0959C25.1431 65.8387 20.4512 66.0036 18.7447 63.4643C17.0382 60.925 18.9633 56.643 23.0445 53.9003C27.1258 51.1575 31.8177 50.9926 33.5242 53.5319Z" fill="#C6F382"/>
<path d="M65.586 24.5052C67.9581 26.4374 65.0619 34.9444 58.5 43.0002C51.9381 51.0561 43 52.5001 40.4999 52.0002C38.1278 50.068 45.5 52.5001 51.4999 43.0002C56.4998 33.5002 63.2139 22.573 65.586 24.5052Z" fill="#C6F382"/>
<path fill-rule="evenodd" clip-rule="evenodd" d="M69.2812 22.0147C69.5148 22.5151 69.2984 23.1102 68.798 23.3437C67.7498 23.8329 65.9646 25.253 63.8657 27.8532C61.788 30.4269 59.457 34.0904 57.2889 38.9687C54.4439 45.3698 50.3105 49.2423 45.6566 51.6101C41.0328 53.9626 35.9436 54.8047 31.218 55.2457C30.6681 55.2971 30.1807 54.8929 30.1294 54.343C30.0781 53.7931 30.4822 53.3057 31.0321 53.2544C35.6816 52.8204 40.4673 52.0063 44.7497 49.8275C49.0021 47.664 52.8062 44.1303 55.4613 38.1564C57.6931 33.1347 60.1121 29.319 62.3095 26.5969C64.4855 23.9013 66.5003 22.2089 67.9522 21.5314C68.4527 21.2978 69.0477 21.5142 69.2812 22.0147Z" fill="#99CC4B"/>
<path fill-rule="evenodd" clip-rule="evenodd" d="M73.2453 26.2986C73.7708 26.4686 74.0589 27.0324 73.8889 27.5579C72.4866 31.8924 69.7662 37.7832 66.6391 43.3932C63.5161 48.9959 59.9374 54.4086 56.7903 57.7484C53.4454 61.2981 48.271 64.5775 42.3117 66.7425C36.3458 68.9098 29.5223 69.9861 22.8613 69.0529C22.3143 68.9763 21.933 68.4708 22.0097 67.9238C22.0863 67.3769 22.5918 66.9956 23.1387 67.0723C29.4152 67.9516 35.9062 66.9416 41.6288 64.8627C47.358 62.7813 52.2461 59.6545 55.3347 56.3768C58.3126 53.2165 61.7964 47.9731 64.8922 42.4194C67.9838 36.8732 70.6384 31.1078 71.9861 26.9423C72.1561 26.4168 72.7199 26.1286 73.2453 26.2986Z" fill="#99CC4B"/>
<path fill-rule="evenodd" clip-rule="evenodd" d="M72.4571 22.293C72.8477 22.6835 72.8477 23.3166 72.4571 23.7072C71.2523 24.9121 70.042 26.6673 68.815 28.7805C67.593 30.8851 66.3857 33.2889 65.171 35.7613C64.9418 36.2278 64.7122 36.6973 64.4819 37.1679C62.2973 41.6338 60.0619 46.2035 57.7302 49.2348C51.8053 56.9372 42.3007 62.0438 28.8206 62.9976C28.2697 63.0365 27.7915 62.6215 27.7525 62.0706C27.7136 61.5197 28.1286 61.0415 28.6795 61.0026C41.6993 60.0813 50.6304 55.1842 56.1449 48.0154C58.345 45.1552 60.4875 40.7784 62.702 36.2546C62.9258 35.7972 63.1505 35.3384 63.376 34.8794C64.5909 32.4065 65.825 29.947 67.0854 27.7763C68.3409 25.6141 69.6541 23.6818 71.0429 22.293C71.4335 21.9024 72.0666 21.9024 72.4571 22.293Z" fill="#99CC4B"/>
<path d="M51.2098 64.972C50.7815 65.467 50.0332 65.521 49.5383 65.0928C49.0434 64.6646 48.9893 63.9163 49.4175 63.4213C49.8457 62.9264 50.5941 62.8723 51.089 63.3006C51.5839 63.7288 51.638 64.4771 51.2098 64.972Z" fill="#7FB131"/>
<path d="M59.2763 60.6379C58.7334 61.2654 57.7846 61.334 57.1572 60.7911C56.5297 60.2481 56.4611 59.2994 57.004 58.6719C57.5469 58.0444 58.4957 57.9759 59.1232 58.5188C59.7507 59.0617 59.8192 60.0105 59.2763 60.6379Z" fill="#7FB131"/>
<path d="M65.5557 52.6511C65.0128 53.2785 64.064 53.3471 63.4366 52.8042C62.8091 52.2613 62.7406 51.3125 63.2835 50.685C63.8264 50.0576 64.7751 49.989 65.4026 50.5319C66.0301 51.0748 66.0986 52.0236 65.5557 52.6511Z" fill="#7FB131"/>
<path d="M48.6933 69.7492C48.1504 70.3767 47.2016 70.4452 46.5741 69.9023C45.9467 69.3594 45.8781 68.4106 46.421 67.7832C46.9639 67.1557 47.9127 67.0871 48.5402 67.6301C49.1677 68.173 49.2362 69.1217 48.6933 69.7492Z" fill="#7FB131"/>
<path d="M55.3233 64.1521C54.9161 64.6227 54.2045 64.6741 53.7339 64.2669C53.2633 63.8597 53.2119 63.1481 53.6191 62.6775C54.0262 62.2069 54.7378 62.1555 55.2084 62.5627C55.679 62.9699 55.7304 63.6815 55.3233 64.1521Z" fill="#7FB131"/>
<path d="M53.4412 68.3276C53.034 68.7982 52.3224 68.8496 51.8518 68.4424C51.3812 68.0353 51.3298 67.3237 51.737 66.8531C52.1442 66.3825 52.8557 66.3311 53.3263 66.7382C53.7969 67.1454 53.8484 67.857 53.4412 68.3276Z" fill="#7FB131"/>
<path d="M61.5392 57.2388C61.132 57.7094 60.4204 57.7608 59.9498 57.3536C59.4792 56.9465 59.4278 56.2349 59.835 55.7643C60.2422 55.2937 60.9538 55.2423 61.4244 55.6494C61.895 56.0566 61.9464 56.7682 61.5392 57.2388Z" fill="#7FB131"/>
<path d="M54.6903 60.47C54.2831 60.9406 53.5716 60.992 53.101 60.5848C52.6304 60.1777 52.5789 59.4661 52.9861 58.9955C53.3933 58.5249 54.1049 58.4735 54.5755 58.8806C55.0461 59.2878 55.0975 59.9994 54.6903 60.47Z" fill="#7FB131"/>
<path d="M44.6109 73.3339C44.068 73.9613 43.1192 74.0299 42.4918 73.487C41.8643 72.9441 41.7957 71.9953 42.3386 71.3678C42.8815 70.7404 43.8303 70.6718 44.4578 71.2147C45.0853 71.7576 45.1538 72.7064 44.6109 73.3339Z" fill="#7FB131"/>
<path d="M44.5685 67.9634C44.0256 68.5908 43.0769 68.6594 42.4494 68.1165C41.8219 67.5736 41.7534 66.6248 42.2963 65.9973C42.8392 65.3699 43.788 65.3013 44.4154 65.8442C45.0429 66.3871 45.1115 67.3359 44.5685 67.9634Z" fill="#7FB131"/>
<path d="M38.8536 75.1257C38.3107 75.7531 37.3619 75.8217 36.7344 75.2788C36.107 74.7359 36.0384 73.7871 36.5813 73.1596C37.1242 72.5322 38.073 72.4636 38.7005 73.0065C39.3279 73.5494 39.3965 74.4982 38.8536 75.1257Z" fill="#7FB131"/>
<path d="M39.3743 70.6694C38.9429 71.168 38.189 71.2225 37.6904 70.7911C37.1918 70.3597 37.1373 69.6058 37.5687 69.1072C38.0001 68.6086 38.754 68.5541 39.2526 68.9855C39.7512 69.4169 39.8057 70.1708 39.3743 70.6694Z" fill="#7FB131"/>
<path d="M67.0528 48.2113C66.7843 48.5217 66.3149 48.5556 66.0045 48.2871C65.6941 48.0185 65.6601 47.5491 65.9287 47.2387C66.1973 46.9283 66.6667 46.8944 66.9771 47.1629C67.2875 47.4315 67.3214 47.9009 67.0528 48.2113Z" fill="#7FB131"/>
<path d="M60.9769 53.6019C60.7083 53.9124 60.239 53.9463 59.9285 53.6777C59.6181 53.4091 59.5842 52.9397 59.8528 52.6293C60.1214 52.3189 60.5908 52.285 60.9012 52.5536C61.2116 52.8222 61.2455 53.2915 60.9769 53.6019Z" fill="#7FB131"/>
<path d="M32.9386 75.466C32.5314 75.9366 31.8199 75.988 31.3493 75.5808C30.8786 75.1736 30.8272 74.462 31.2344 73.9914C31.6416 73.5208 32.3532 73.4694 32.8238 73.8766C33.2944 74.2838 33.3458 74.9954 32.9386 75.466Z" fill="#7FB131"/>
<path fill-rule="evenodd" clip-rule="evenodd" d="M26.0828 56.2328C26.7312 57.127 26.5319 58.3776 25.6377 59.026C25.0249 59.4703 24.5654 59.9881 24.2318 60.583C23.6916 61.5465 22.4727 61.8896 21.5092 61.3494C20.5458 60.8092 20.2026 59.5902 20.7428 58.6268C21.373 57.5029 22.2311 56.5552 23.2896 55.7877C24.1839 55.1393 25.4344 55.3386 26.0828 56.2328Z" fill="white"/>
</svg>
