<svg width="96" height="96" viewBox="0 0 96 96" fill="none" xmlns="http://www.w3.org/2000/svg">
<path d="M37.3023 72.352C41.089 64.5243 41.3747 43.4855 40.9699 32.2324C40.9496 31.6681 41.3973 31.2 41.9619 31.1942L43.7136 31.176C44.2659 31.1702 44.7182 31.6254 44.7253 32.1777C45.026 55.7379 47.1595 67.5309 48.9604 72.0977C49.2824 72.9141 48.634 74.1272 47.7564 74.1363L38.3564 74.2339C37.4858 74.243 36.9231 73.1357 37.3023 72.352Z" fill="#FEE9C2"/>
<path fill-rule="evenodd" clip-rule="evenodd" d="M38.7121 53.4477C39.2009 45.8858 39.1719 37.882 38.9712 32.3043C38.9104 30.614 40.2542 29.2118 41.9412 29.1943L43.6928 29.1761C45.3821 29.1585 46.7044 30.5319 46.7251 32.1522C47.0257 55.7018 49.1664 67.1681 50.821 71.364C51.2614 72.4807 50.9907 73.6292 50.546 74.4097C50.1061 75.1819 49.1762 76.1216 47.7772 76.1362L38.3772 76.2338C37.0126 76.248 36.0575 75.3847 35.6015 74.5418C35.1501 73.7071 34.9843 72.5509 35.5019 71.481C36.3248 69.78 37.0151 67.2185 37.5581 64.0279C38.0955 60.8704 38.4676 57.229 38.7121 53.4477ZM40.9699 32.2324C41.3747 43.4855 41.089 64.5243 37.3023 72.3519C36.9231 73.1357 37.4858 74.243 38.3564 74.2339L47.7565 74.1363C48.634 74.1272 49.2824 72.9141 48.9604 72.0977C47.1596 67.5308 45.026 55.7379 44.7253 32.1777C44.7182 31.6254 44.2659 31.1702 43.7136 31.176L41.962 31.1941C41.3974 31.2 40.9497 31.6681 40.9699 32.2324Z" fill="#A7813A"/>
<path fill-rule="evenodd" clip-rule="evenodd" d="M37.2264 73.2456C37.3619 73.7818 37.7951 74.2397 38.3563 74.2339L47.7564 74.1363C48.6339 74.1272 49.2823 72.9141 48.9603 72.0977C47.1595 67.5309 45.0259 55.7379 44.7252 32.1777C44.7181 31.6254 44.2658 31.1702 43.7135 31.176L43.2012 31.1813C43.2013 31.1853 43.2014 31.1894 43.2015 31.1935C43.5022 54.7537 45.6357 66.5466 47.4366 71.1135C47.7586 71.9299 47.1102 73.1429 46.2326 73.1521L37.2264 73.2456Z" fill="#F0C981"/>
<path d="M37.2088 51.954C39.2406 50.732 39.9064 44.7657 39.9848 41.9027C40.5735 36.5838 45.6559 38.1561 45.7488 40.7803C45.8231 42.8796 46.1302 45.9016 46.2744 47.1502C46.4986 49.8556 48.3299 51.5927 49.3955 52.2436C49.5342 52.3283 49.6641 52.4334 49.7376 52.5784C50.2829 53.6547 48.8753 54.0219 48.0527 54.0696L42.8683 54.1234L38.0776 54.1732C35.5758 53.8592 36.329 52.6586 37.0703 52.0481C37.1137 52.0124 37.1607 51.983 37.2088 51.954Z" fill="#F0D196"/>
<path fill-rule="evenodd" clip-rule="evenodd" d="M37.9855 41.848C37.9871 41.7928 37.9909 41.7376 37.9969 41.6827C38.1785 40.042 38.737 38.6677 39.7079 37.6988C40.6983 36.7104 41.9501 36.3154 43.1356 36.3646C45.2598 36.4527 47.6551 38.0983 47.7476 40.7096C47.8189 42.7264 48.1183 45.684 48.2612 46.9207C48.2636 46.9421 48.2658 46.9635 48.2676 46.985C48.4219 48.8481 49.7125 50.0936 50.4381 50.5368C50.6937 50.693 51.199 51.0378 51.5216 51.6744L49.7376 52.5784C49.6641 52.4334 49.5342 52.3283 49.3955 52.2436C48.3299 51.5927 46.4986 49.8556 46.2744 47.1502C46.1302 45.9016 45.8231 42.8796 45.7488 40.7803C45.6559 38.1561 40.5735 36.5838 39.9848 41.9027C39.9064 44.7657 39.2406 50.732 37.2088 51.954C37.1607 51.983 37.1137 52.0124 37.0703 52.0481C36.329 52.6586 35.5758 53.8593 38.0776 54.1732L48.0527 54.0696C48.8753 54.0219 50.2829 53.6547 49.7376 52.5784L51.5216 51.6744C51.8431 52.3088 52.0012 53.1165 51.6987 53.9449C51.4173 54.7152 50.855 55.1736 50.4382 55.424C49.6472 55.8994 48.7125 56.0347 48.1686 56.0662C48.1369 56.0681 48.1052 56.0692 48.0735 56.0695L38.0984 56.1731C38.0082 56.174 37.9181 56.1689 37.8286 56.1576C37.077 56.0633 36.3305 55.8791 35.7109 55.497C35.0187 55.0702 34.4382 54.3509 34.3636 53.3742C34.2993 52.5322 34.6459 51.8633 34.8999 51.4829C35.1734 51.0733 35.5089 50.7431 35.7988 50.5043C35.9617 50.3702 36.1155 50.2777 36.1747 50.2421L36.178 50.2401C36.176 50.2413 36.1768 50.2406 36.1803 50.2374C36.2079 50.2117 36.4038 50.0298 36.665 49.4495C36.9344 48.8513 37.1745 48.0519 37.374 47.1236C37.7717 45.2725 37.9487 43.1929 37.9855 41.848Z" fill="#A7813A"/>
<path d="M42.4975 18.1879C30.0046 18.3177 19.8405 27.9701 18.8294 40.1774C18.7303 41.3742 19.7938 42.3002 20.9869 42.1636C24.2338 41.7917 30.3411 41.1805 34.7368 41.2698C41.0325 41.3976 44.461 42.9756 50.7567 43.1035C55.3828 43.1974 61.9044 42.5155 64.9927 42.1533C65.9965 42.0356 66.7467 41.1749 66.6628 40.1678C65.6276 27.7497 55.1562 18.0564 42.4975 18.1879Z" fill="#FD3D3D"/>
<path fill-rule="evenodd" clip-rule="evenodd" d="M16.8362 40.0123C17.9318 26.7855 28.9417 16.3286 42.4768 16.188C56.1913 16.0456 67.5343 26.5467 68.6559 40.0016C68.8353 42.154 67.2288 43.9047 65.2258 44.1397C62.1445 44.5011 55.4966 45.2002 50.7161 45.103C47.4145 45.036 44.8576 44.5874 42.4335 44.1622L42.4012 44.1565C39.9729 43.7305 37.6757 43.3298 34.6962 43.2693C30.4505 43.1831 24.4652 43.7783 21.2146 44.1506C18.9148 44.414 16.6212 42.6094 16.8362 40.0123ZM18.8294 40.1774C19.8405 27.97 30.0047 18.3176 42.4975 18.1879C55.1563 18.0564 65.6277 27.7497 66.6628 40.1678C66.7468 41.1749 65.9965 42.0355 64.9928 42.1533C61.9044 42.5155 55.3828 43.1974 50.7568 43.1035C47.6089 43.0395 45.1779 42.6131 42.7468 42.1866C40.3158 41.7601 37.8847 41.3337 34.7369 41.2697C30.3411 41.1804 24.2339 41.7917 20.987 42.1636C19.7939 42.3002 18.7303 41.3742 18.8294 40.1774Z" fill="#9A0707"/>
<path fill-rule="evenodd" clip-rule="evenodd" d="M18.9702 38.8953C22.2475 38.5745 26.4471 38.2556 29.7059 38.3218C32.8538 38.3858 35.2848 38.8122 37.7159 39.2387C40.1469 39.6651 42.578 40.0916 45.7258 40.1555C50.3519 40.2495 56.8735 39.5676 59.9618 39.2054C60.9656 39.0876 61.7158 38.227 61.6319 37.2199C61.0511 30.2529 57.5003 24.1436 52.2593 20.1458C60.1852 23.5717 65.9112 31.1515 66.6628 40.1678C66.7467 41.1749 65.9965 42.0355 64.9927 42.1533C61.9044 42.5155 55.3828 43.1974 50.7567 43.1035C47.6088 43.0395 45.1778 42.613 42.7467 42.1866C40.3157 41.7601 37.8847 41.3337 34.7368 41.2697C30.341 41.1804 24.2338 41.7917 20.9869 42.1636C19.7938 42.3002 18.7302 41.3742 18.8294 40.1774C18.865 39.7468 18.9121 39.3193 18.9702 38.8953Z" fill="#DE2F2F"/>
<path d="M36.0078 23.3787C37.203 24.9849 35.7474 28.091 32.7566 30.3165C29.7659 32.5421 26.3725 33.0442 25.1774 31.438C23.9822 29.8319 25.4378 26.7257 28.4285 24.5002C31.4193 22.2747 34.8126 21.7726 36.0078 23.3787Z" fill="#FD8585"/>
<path fill-rule="evenodd" clip-rule="evenodd" d="M29.9773 25.3108C30.3652 25.7039 30.3611 26.337 29.968 26.725C29.6792 27.01 29.2331 27.4836 28.8485 27.9609C28.656 28.1999 28.4909 28.425 28.3708 28.6178C28.2518 28.8085 28.2172 28.9046 28.2118 28.9195C28.2111 28.9214 28.2109 28.922 28.211 28.9214C28.1009 29.4626 27.5729 29.812 27.0317 29.7019C26.4905 29.5918 26.141 29.0639 26.2512 28.5227C26.3236 28.1665 26.509 27.8237 26.6736 27.5596C26.8516 27.2741 27.0702 26.9804 27.2911 26.7062C27.7334 26.1572 28.2332 25.6271 28.5631 25.3015C28.9562 24.9136 29.5893 24.9177 29.9773 25.3108Z" fill="white"/>
<path d="M35.3074 36.0252C35.3162 36.8783 34.5819 37.5775 33.6672 37.587C32.7526 37.5965 32.0039 36.9127 31.995 36.0596C31.9862 35.2066 32.7205 34.5073 33.6352 34.4978C34.5498 34.4883 35.2985 35.1721 35.3074 36.0252Z" fill="#FFA5A5"/>
<path d="M26.2812 33.5541C26.2901 34.4071 25.5558 35.1064 24.6411 35.1159C23.7265 35.1254 22.9778 34.4415 22.9689 33.5885C22.9601 32.7354 23.6944 32.0362 24.609 32.0267C25.5237 32.0172 26.2724 32.701 26.2812 33.5541Z" fill="#FFA5A5"/>
<path d="M28.3927 38.2539C28.4016 39.107 27.6672 39.8062 26.7526 39.8157C25.8379 39.8252 25.0892 39.1414 25.0804 38.2883C25.0715 37.4353 25.8058 36.736 26.7205 36.7265C27.6352 36.717 28.3838 37.4008 28.3927 38.2539Z" fill="#FFA5A5"/>
<path d="M40.9545 38.1234C40.9633 38.9765 40.229 39.6757 39.3143 39.6852C38.3997 39.6947 37.651 39.0109 37.6421 38.1578C37.6333 37.3048 38.3676 36.6055 39.2823 36.596C40.1969 36.5865 40.9456 37.2704 40.9545 38.1234Z" fill="#FFA5A5"/>
<path d="M38.8701 30.3339C38.879 31.1869 38.1447 31.8862 37.23 31.8957C36.3153 31.9052 35.5667 31.2213 35.5578 30.3683C35.5489 29.5152 36.2832 28.816 37.1979 28.8065C38.1126 28.797 38.8613 29.4808 38.8701 30.3339Z" fill="#FFA5A5"/>
<path d="M48.7123 38.8298C48.7211 39.6828 47.9868 40.3821 47.0722 40.3916C46.1575 40.4011 45.4088 39.7172 45.4 38.8642C45.3911 38.0111 46.1254 37.3119 47.0401 37.3024C47.9547 37.2929 48.7034 37.9767 48.7123 38.8298Z" fill="#FFA5A5"/>
<path d="M44.9635 32.952C44.9724 33.8051 44.238 34.5043 43.3234 34.5138C42.4087 34.5233 41.66 33.8395 41.6512 32.9864C41.6423 32.1334 42.3766 31.4341 43.2913 31.4246C44.206 31.4151 44.9546 32.099 44.9635 32.952Z" fill="#FFA5A5"/>
<path d="M53.9951 35.9478C54.004 36.8008 53.2697 37.5 52.355 37.5095C51.4403 37.519 50.6917 36.8352 50.6828 35.9822C50.6739 35.1291 51.4082 34.4299 52.3229 34.4204C53.2376 34.4109 53.9863 35.0947 53.9951 35.9478Z" fill="#FFA5A5"/>
<path d="M60.391 37.9216C60.3998 38.7746 59.6655 39.4739 58.7509 39.4834C57.8362 39.4929 57.0875 38.809 57.0787 37.956C57.0698 37.1029 57.8041 36.4037 58.7188 36.3942C59.6335 36.3847 60.3821 37.0685 60.391 37.9216Z" fill="#FFA5A5"/>
<path d="M60.7655 31.8552C60.7744 32.7083 60.0401 33.4075 59.1254 33.417C58.2107 33.4265 57.462 32.7427 57.4532 31.8896C57.4443 31.0366 58.1786 30.3373 59.0933 30.3278C60.008 30.3183 60.7566 31.0022 60.7655 31.8552Z" fill="#FFA5A5"/>
<path d="M51.4994 31.0187C51.5082 31.8718 50.7739 32.571 49.8593 32.5805C48.9446 32.59 48.1959 31.9062 48.1871 31.0531C48.1782 30.2001 48.9125 29.5008 49.8272 29.4913C50.7419 29.4818 51.4905 30.1657 51.4994 31.0187Z" fill="#FFA5A5"/>
<path d="M56.3336 27.0629C56.3425 27.916 55.6082 28.6152 54.6935 28.6247C53.7788 28.6342 53.0302 27.9504 53.0213 27.0973C53.0124 26.2443 53.7467 25.545 54.6614 25.5355C55.5761 25.526 56.3248 26.2099 56.3336 27.0629Z" fill="#FFA5A5"/>
<path d="M46.9408 27.7458C46.9497 28.5988 46.2153 29.2981 45.3007 29.3076C44.386 29.3171 43.6373 28.6332 43.6285 27.7802C43.6196 26.9271 44.3539 26.2279 45.2686 26.2184C46.1833 26.2089 46.9319 26.8927 46.9408 27.7458Z" fill="#FFA5A5"/>
<path d="M50.5505 23.2468C50.5594 24.0998 49.8251 24.7991 48.9104 24.8086C47.9957 24.8181 47.2471 24.1342 47.2382 23.2812C47.2294 22.4281 47.9637 21.7289 48.8783 21.7194C49.793 21.7099 50.5417 22.3937 50.5505 23.2468Z" fill="#FFA5A5"/>
<path d="M42.4487 22.5148C42.4576 23.3679 41.7233 24.0671 40.8086 24.0766C39.8939 24.0861 39.1453 23.4023 39.1364 22.5492C39.1275 21.6962 39.8618 20.9969 40.7765 20.9874C41.6912 20.9779 42.4399 21.6618 42.4487 22.5148Z" fill="#FFA5A5"/>
<path d="M36.165 25.3198C36.1739 26.1729 35.4396 26.8721 34.5249 26.8816C33.6102 26.8911 32.8616 26.2073 32.8527 25.3542C32.8439 24.5012 33.5782 23.8019 34.4928 23.7924C35.4075 23.7829 36.1562 24.4668 36.165 25.3198Z" fill="#FFA5A5"/>
<path d="M31.9448 31.2219C31.9537 32.0749 31.2194 32.7742 30.3047 32.7837C29.39 32.7932 28.6414 32.1093 28.6325 31.2563C28.6236 30.4032 29.3579 29.704 30.2726 29.6945C31.1873 29.685 31.936 30.3688 31.9448 31.2219Z" fill="#FFA5A5"/>
<path d="M55.2551 73.7277C58.9364 67.281 59.4514 52.3366 59.1724 43.9992C59.1533 43.4298 59.6077 42.9583 60.1773 42.9583H62.2177C62.77 42.9583 63.2175 43.416 63.2199 43.9683C63.2921 60.5118 65.1357 69.4609 66.9007 73.5024C67.285 74.3826 66.4952 75.977 65.5348 75.977H56.3382C55.3848 75.977 54.7823 74.5556 55.2551 73.7277Z" fill="#F2CD86"/>
<path fill-rule="evenodd" clip-rule="evenodd" d="M56.7088 59.375C57.2521 53.8983 57.3109 48.1688 57.1736 44.0661C57.1169 42.3711 58.4724 40.9583 60.1774 40.9583H62.2178C63.9027 40.9583 65.2129 42.3378 65.22 43.9595C65.2919 60.4369 67.1377 69.0476 68.7336 72.702C69.266 73.9211 68.9086 75.2148 68.4894 76.0061C68.0917 76.7568 67.128 77.977 65.5349 77.977H56.3383C54.7793 77.977 53.8336 76.8452 53.4444 75.9974C53.0492 75.1369 52.8732 73.8657 53.5184 72.7359C55.1299 69.9138 56.156 64.9462 56.7088 59.375ZM59.1725 43.9992C59.4515 52.3366 58.9365 67.281 55.2552 73.7277C54.7824 74.5556 55.3849 75.977 56.3383 75.977H65.5349C66.4953 75.977 67.2851 74.3826 66.9008 73.5024C65.1358 69.4609 63.2922 60.5118 63.22 43.9683C63.2176 43.416 62.7701 42.9583 62.2178 42.9583H60.1774C59.6078 42.9583 59.1534 43.4298 59.1725 43.9992Z" fill="#8E6C2C"/>
<path fill-rule="evenodd" clip-rule="evenodd" d="M59.1719 43.9593L60.4903 43.9811C61.0425 43.9902 61.4823 44.4553 61.4756 45.0076C61.2746 61.55 62.9701 70.5283 64.6681 74.5984C64.8308 74.9885 64.7639 75.5132 64.5561 75.977H65.5348C66.4953 75.977 67.2851 74.3826 66.9007 73.5024C65.1358 69.4609 63.2922 60.5118 63.22 43.9683C63.2176 43.416 62.7701 42.9583 62.2178 42.9583H60.1774C59.6211 42.9583 59.1747 43.408 59.1719 43.9593Z" fill="#D3A959"/>
<path d="M55.7208 57.6238C59.5802 55.3567 59.9774 45.0739 59.6937 40.2159H62.5314C62.5314 52.1585 64.8016 56.8141 66.2205 57.6238H55.7208Z" fill="#D3A959"/>
<path fill-rule="evenodd" clip-rule="evenodd" d="M58.2387 38.8436C58.6166 38.443 59.1429 38.2159 59.6936 38.2159H62.5313C63.6359 38.2159 64.5313 39.1114 64.5313 40.2159C64.5313 46.075 65.0897 50.0376 65.7746 52.5732C66.1172 53.8418 66.4799 54.7096 66.7907 55.265C67.0662 55.7573 67.2418 55.8995 67.2394 55.9025C67.2394 55.9026 67.239 55.9025 67.2384 55.9022C68.0082 56.3573 68.3835 57.2697 68.1535 58.1365C67.921 59.0133 67.1275 59.6238 66.2204 59.6238H55.7208C54.8183 59.6238 54.0277 59.0195 53.7909 58.1487C53.554 57.2779 53.9297 56.3564 54.7078 55.8993C55.1356 55.6479 55.6646 55.0389 56.168 53.8505C56.6562 52.6979 57.0259 51.2234 57.2853 49.5797C57.8034 46.2966 57.833 42.6609 57.697 40.3326C57.6649 39.7828 57.8609 39.2442 58.2387 38.8436ZM55.7208 57.6238H66.2204C65.7758 57.3701 65.2476 56.7387 64.7318 55.6238C63.6017 53.1808 62.5313 48.4162 62.5313 40.2159H59.6936C59.7283 40.8097 59.7528 41.4846 59.762 42.2159C59.8145 46.3594 59.3773 52.3165 57.527 55.6238C57.032 56.5086 56.4358 57.2038 55.7208 57.6238Z" fill="#8E6C2C"/>
<path d="M61.2477 33.9279C52.8664 33.9279 45.9668 40.0824 45.0887 47.9872C44.9798 48.9666 45.7085 49.8043 46.6875 49.9176C49.5952 50.2541 55.756 50.7776 61.2477 49.9999C66.4532 49.2627 72.2599 49.4023 75.3274 49.557C76.4987 49.616 77.5129 48.6827 77.3478 47.5216C76.2559 39.8421 69.4637 33.9279 61.2477 33.9279Z" fill="#F92222"/>
<path fill-rule="evenodd" clip-rule="evenodd" d="M43.1008 47.7664C44.0956 38.8122 51.8844 31.9279 61.2477 31.9279C70.4274 31.9279 78.0913 38.5432 79.3279 47.2401C79.7024 49.8746 77.4122 51.6646 75.2267 51.5544C72.194 51.4016 66.5405 51.2703 61.5281 51.9801C55.7738 52.7951 49.4047 52.2454 46.4575 51.9044C44.4859 51.6762 42.8595 49.9385 43.1008 47.7664ZM45.0886 47.9872C45.9668 40.0824 52.8664 33.9279 61.2477 33.9279C69.4637 33.9279 76.2558 39.8421 77.3478 47.5216C77.5129 48.6827 76.4987 49.616 75.3274 49.557C72.2599 49.4023 66.4532 49.2627 61.2477 49.9999C55.756 50.7776 49.5952 50.2541 46.6874 49.9176C45.7085 49.8043 44.9798 48.9666 45.0886 47.9872Z" fill="#9A0707"/>
<path d="M56.9238 37.7474C57.7774 38.8847 56.6998 41.0567 54.5169 42.5986C52.3341 44.1406 49.8726 44.4686 49.019 43.3313C48.1655 42.1941 49.2431 40.0221 51.4259 38.4801C53.6088 36.9382 56.0703 36.6101 56.9238 37.7474Z" fill="#FE5555"/>
<path d="M58.8356 45.3906C58.8356 46.0496 58.2451 46.5839 57.5167 46.5839C56.7883 46.5839 56.1979 46.0496 56.1979 45.3906C56.1979 44.7315 56.7883 44.1973 57.5167 44.1973C58.2451 44.1973 58.8356 44.7315 58.8356 45.3906Z" fill="#FF9595"/>
<path d="M51.6688 43.4092C51.6688 44.0683 51.0784 44.6025 50.35 44.6025C49.6216 44.6025 49.0311 44.0683 49.0311 43.4092C49.0311 42.7502 49.6216 42.2159 50.35 42.2159C51.0784 42.2159 51.6688 42.7502 51.6688 43.4092Z" fill="#FF9595"/>
<path d="M53.3112 47.0568C53.3112 47.7159 52.7207 48.2501 51.9923 48.2501C51.2639 48.2501 50.6735 47.7159 50.6735 47.0568C50.6735 46.3978 51.2639 45.8635 51.9923 45.8635C52.7207 45.8635 53.3112 46.3978 53.3112 47.0568Z" fill="#FF9595"/>
<path d="M63.3146 47.0568C63.3146 47.7159 62.7241 48.2501 61.9957 48.2501C61.2673 48.2501 60.6769 47.7159 60.6769 47.0568C60.6769 46.3978 61.2673 45.8635 61.9957 45.8635C62.7241 45.8635 63.3146 46.3978 63.3146 47.0568Z" fill="#FF9595"/>
<path d="M61.7194 41.0226C61.7194 41.6817 61.1289 42.216 60.4005 42.216C59.6721 42.216 59.0817 41.6817 59.0817 41.0226C59.0817 40.3636 59.6721 39.8293 60.4005 39.8293C61.1289 39.8293 61.7194 40.3636 61.7194 41.0226Z" fill="#FF9595"/>
<path d="M69.4857 46.6135C69.4857 47.2725 68.8953 47.8068 68.1669 47.8068C67.4385 47.8068 66.848 47.2725 66.848 46.6135C66.848 45.9544 67.4385 45.4202 68.1669 45.4202C68.8953 45.4202 69.4857 45.9544 69.4857 46.6135Z" fill="#FF9595"/>
<path d="M66.5494 43.0942C66.5494 43.7532 65.959 44.2875 65.2306 44.2875C64.5022 44.2875 63.9117 43.7532 63.9117 43.0942C63.9117 42.4351 64.5022 41.9009 65.2306 41.9009C65.959 41.9009 66.5494 42.4351 66.5494 43.0942Z" fill="#FF9595"/>
<path d="M74.7997 45.4808C74.7997 46.1398 74.2092 46.6741 73.4808 46.6741C72.7525 46.6741 72.162 46.1398 72.162 45.4808C72.162 44.8217 72.7525 44.2875 73.4808 44.2875C74.2092 44.2875 74.7997 44.8217 74.7997 45.4808Z" fill="#FF9595"/>
<path d="M71.7698 41.6531C71.7698 42.3121 71.1793 42.8464 70.4509 42.8464C69.7225 42.8464 69.1321 42.3121 69.1321 41.6531C69.1321 40.994 69.7225 40.4598 70.4509 40.4598C71.1793 40.4598 71.7698 40.994 71.7698 41.6531Z" fill="#FF9595"/>
<path d="M68.1669 39.0883C68.1669 39.7474 67.5764 40.2816 66.848 40.2816C66.1196 40.2816 65.5292 39.7474 65.5292 39.0883C65.5292 38.4293 66.1196 37.895 66.848 37.895C67.5764 37.895 68.1669 38.4293 68.1669 39.0883Z" fill="#FF9595"/>
<path d="M60.6904 37.1278C60.6904 37.7868 60.1 38.3211 59.3716 38.3211C58.6432 38.3211 58.0527 37.7868 58.0527 37.1278C58.0527 36.4687 58.6432 35.9344 59.3716 35.9344C60.1 35.9344 60.6904 36.4687 60.6904 37.1278Z" fill="#FF9595"/>
<path d="M56.1976 41.6531C56.1976 42.3121 55.6072 42.8464 54.8788 42.8464C54.1504 42.8464 53.5599 42.3121 53.5599 41.6531C53.5599 40.994 54.1504 40.4598 54.8788 40.4598C55.6072 40.4598 56.1976 40.994 56.1976 41.6531Z" fill="#FF9595"/>
<path d="M66.37 73.1863C62.9917 73.1863 60.0957 74.4271 58.8752 76.1916C58.2469 77.1 59.1525 78.0613 60.2571 78.0613H72.4828C73.5874 78.0613 74.4931 77.1 73.8647 76.1916C72.6443 74.4271 69.7483 73.1863 66.37 73.1863Z" fill="#865543"/>
<path fill-rule="evenodd" clip-rule="evenodd" d="M57.2304 75.0539C58.972 72.5359 62.6463 71.1863 66.37 71.1863C70.0937 71.1863 73.7681 72.5359 75.5096 75.0539C75.899 75.6168 76.11 76.287 76.0653 76.9935C76.0215 77.6842 75.7424 78.2748 75.3792 78.7241C74.6764 79.594 73.5775 80.0613 72.4829 80.0613H60.2572C59.1626 80.0613 58.0636 79.594 57.3608 78.7241C56.9976 78.2748 56.7185 77.6842 56.6748 76.9935C56.63 76.287 56.841 75.6168 57.2304 75.0539ZM58.8752 76.1916C60.0957 74.4271 62.9917 73.1863 66.37 73.1863C69.7483 73.1863 72.6443 74.4271 73.8648 76.1916C74.4931 77.1 73.5874 78.0613 72.4829 78.0613H60.2572C59.1526 78.0613 58.2469 77.1 58.8752 76.1916Z" fill="#5E3324"/>
<path d="M55.929 72.3113C53.2297 72.3113 50.9311 73.8935 50.0639 76.1072C49.661 77.1357 50.5901 78.0613 51.6946 78.0613H60.1634C61.268 78.0613 62.197 77.1357 61.7942 76.1072C60.927 73.8935 58.6283 72.3113 55.929 72.3113Z" fill="#946351"/>
<path fill-rule="evenodd" clip-rule="evenodd" d="M48.2016 75.3778C49.3878 72.3496 52.4595 70.3113 55.9289 70.3113C59.3984 70.3113 62.4701 72.3496 63.6563 75.3778C64.1619 76.6685 63.8021 77.9401 63.0388 78.7987C62.3176 79.61 61.2534 80.0613 60.1633 80.0613H51.6946C50.6045 80.0613 49.5403 79.61 48.8191 78.7987C48.0558 77.9401 47.696 76.6685 48.2016 75.3778ZM50.0638 76.1072C50.931 73.8935 53.2296 72.3113 55.9289 72.3113C58.6283 72.3113 60.9269 73.8935 61.7941 76.1072C62.197 77.1357 61.2679 78.0613 60.1633 78.0613H51.6946C50.59 78.0613 49.6609 77.1357 50.0638 76.1072Z" fill="#703D2A"/>
<path d="M32.7748 73.1863C29.6406 73.1863 26.9526 74.4204 25.812 76.1775C25.2106 77.1039 26.1233 78.0613 27.2279 78.0613H38.3217C39.4262 78.0613 40.339 77.1039 39.7376 76.1775C38.597 74.4204 35.909 73.1863 32.7748 73.1863Z" fill="#865543"/>
<path fill-rule="evenodd" clip-rule="evenodd" d="M24.1345 75.0885C25.773 72.5645 29.2404 71.1863 32.7748 71.1863C36.3092 71.1863 39.7766 72.5645 41.4151 75.0885C42.2382 76.3564 42.0009 77.7773 41.2162 78.7346C40.5103 79.5959 39.4158 80.0613 38.3217 80.0613H27.2279C26.1338 80.0613 25.0393 79.5959 24.3334 78.7346C23.5488 77.7773 23.3114 76.3564 24.1345 75.0885ZM25.812 76.1775C26.9526 74.4204 29.6406 73.1863 32.7748 73.1863C35.909 73.1863 38.597 74.4204 39.7376 76.1775C40.339 77.1039 39.4263 78.0613 38.3217 78.0613H27.2279C26.1234 78.0613 25.2106 77.1039 25.812 76.1775Z" fill="#5E3324"/>
<path d="M43.9338 69.8113C39.7328 69.8113 36.2083 72.4823 35.2475 76.0834C34.9628 77.1506 35.8843 78.0613 36.9888 78.0613H50.8788C51.9833 78.0613 52.9048 77.1506 52.6201 76.0834C51.6593 72.4823 48.1348 69.8113 43.9338 69.8113Z" fill="#946351"/>
<path fill-rule="evenodd" clip-rule="evenodd" d="M33.3151 75.5679C34.5289 71.018 38.9049 67.8113 43.9337 67.8113C48.9625 67.8113 53.3386 71.018 54.5524 75.5679C54.888 76.826 54.4919 78.0133 53.7409 78.8281C53.016 79.6145 51.9696 80.0613 50.8787 80.0613H36.9888C35.8979 80.0613 34.8515 79.6145 34.1266 78.8281C33.3755 78.0133 32.9794 76.826 33.3151 75.5679ZM35.2475 76.0834C36.2082 72.4823 39.7328 69.8113 43.9337 69.8113C48.1347 69.8113 51.6593 72.4823 52.62 76.0834C52.9047 77.1506 51.9833 78.0613 50.8787 78.0613H36.9888C35.8842 78.0613 34.9627 77.1506 35.2475 76.0834Z" fill="#703D2A"/>
<path d="M44.8999 71.9419C45.1672 72.8164 43.9535 73.9625 42.1891 74.5018C40.4247 75.041 38.7777 74.7693 38.5104 73.8948C38.2432 73.0203 39.4568 71.8742 41.2212 71.335C42.9856 70.7957 44.6326 71.0674 44.8999 71.9419Z" fill="#C68770"/>
</svg>
