<?xml version="1.0" encoding="utf-8"?>
<!-- Generator: Adobe Illustrator 22.1.0, SVG Export Plug-In . SVG Version: 6.00 Build 0)  -->
<svg version="1.1" id="Layer_1" xmlns="http://www.w3.org/2000/svg" xmlns:xlink="http://www.w3.org/1999/xlink" x="0px" y="0px"
	 viewBox="0 0 256 256" style="enable-background:new 0 0 256 256;" xml:space="preserve">
<style type="text/css">
	.st0{fill:#F5B31F;}
	.st1{fill:none;stroke:#464646;stroke-width:8;stroke-linecap:round;stroke-linejoin:round;stroke-miterlimit:10;}
	.st2{opacity:0.15;fill:#464646;}
	.st3{fill:#AC6535;}
	.st4{fill:#EB573B;}
	.st5{fill:#90C056;}
	.st6{opacity:0.35;fill:#FFFFFF;}
	.st7{opacity:0.2;fill:#FFFFFF;}
	.st8{fill:#F6D67A;}
	.st9{opacity:0.15;fill:#FFFFFF;}
	.st10{opacity:0.3;fill:#FFFFFF;}
	.st11{fill:#AC6535;stroke:#464646;stroke-width:8;stroke-linecap:round;stroke-linejoin:round;stroke-miterlimit:10;}
	.st12{fill:#EB573B;stroke:#464646;stroke-width:8;stroke-miterlimit:10;}
	.st13{opacity:0.15;}
	.st14{fill:#464646;}
	.st15{fill:#FFA755;}
	.st16{fill:#8FAE3C;}
	.st17{fill:#BE6BB2;}
	.st18{fill:#B7C536;}
	.st19{opacity:0.1;}
	.st20{fill:#9D5A96;}
	.st21{fill:#EA615D;}
	.st22{opacity:0.4;fill:#FFFFFF;}
	.st23{opacity:7.000000e-02;}
	.st24{fill:#F79932;}
	.st25{fill:#FFEC97;}
	.st26{fill:#FFD11D;}
	.st27{opacity:0.2;}
	.st28{fill:#FFFFFF;}
	.st29{fill:#F7F2D5;}
	.st30{fill:#F6AF72;}
	.st31{fill:#BA6C45;}
	.st32{opacity:0.5;fill:#FFFFFF;}
	.st33{fill:#E4C074;}
	.st34{fill:none;stroke:#656566;stroke-width:8;stroke-linecap:round;stroke-linejoin:round;stroke-miterlimit:10;}
	.st35{fill:#FFA755;stroke:#464646;stroke-width:8;stroke-linecap:round;stroke-linejoin:round;stroke-miterlimit:10;}
	.st36{fill:#FFD11D;stroke:#464646;stroke-width:8;stroke-linecap:round;stroke-linejoin:round;stroke-miterlimit:10;}
	.st37{fill:#FACD1F;}
	.st38{fill:#FFDF66;}
	.st39{fill:#FFEC97;stroke:#464646;stroke-width:8;stroke-linecap:round;stroke-linejoin:round;stroke-miterlimit:10;}
	.st40{fill:#FFDF66;stroke:#464646;stroke-width:8;stroke-linecap:round;stroke-linejoin:round;stroke-miterlimit:10;}
	.st41{opacity:0.2;fill:#464646;}
	.st42{fill:#FFFFFF;stroke:#464646;stroke-width:8;stroke-linecap:round;stroke-linejoin:round;stroke-miterlimit:10;}
	.st43{fill:#6D6E71;stroke:#464646;stroke-width:8;stroke-linecap:round;stroke-linejoin:round;stroke-miterlimit:10;}
	.st44{opacity:0.1;fill:#464646;}
	.st45{fill:#E77CAE;}
	.st46{fill:#FFE5C4;}
	.st47{fill:#F68455;stroke:#464646;stroke-width:8;stroke-linecap:round;stroke-linejoin:round;stroke-miterlimit:10;}
	.st48{opacity:0.7;}
	.st49{fill:#ADEDFF;}
	.st50{fill:#EC754B;}
	.st51{fill:#4AA5BA;}
	.st52{opacity:0.5;}
	.st53{opacity:0.8;}
	.st54{fill:#F68455;}
	.st55{fill:#92A5AC;}
	.st56{fill:#6D6E71;}
	.st57{fill:#D06E3C;}
	.st58{fill:#DA4F4B;}
	.st59{fill:#BDF3FF;}
	.st60{fill:#F18BB4;}
	.st61{fill:#F9D97A;}
	.st62{fill:none;}
	.st63{fill:#AF6535;}
	.st64{fill:#B93226;}
	.st65{fill:#FF6050;}
	.st66{fill:#D06E3C;stroke:#464646;stroke-miterlimit:10;}
	.st67{fill:#EA7CB1;}
	.st68{fill:none;stroke:#6D6E71;stroke-width:10;stroke-linecap:round;stroke-linejoin:round;stroke-miterlimit:10;}
	.st69{fill:#00B0E0;}
	.st70{fill:#EA7DAE;}
	.st71{opacity:0.1;fill:#FFFFFF;}
	.st72{fill:#BC7532;}
	.st73{fill:#876C6C;}
	.st74{fill:#F9F6CD;}
	.st75{fill:#FFE37B;}
	.st76{fill:#1DDCFF;}
	.st77{fill:#60ACF7;}
	.st78{fill:#C3755A;}
	.st79{fill:#96557A;}
	.st80{fill:#66625D;}
	.st81{fill:#D68032;}
	.st82{opacity:0.8;fill:#FFFFFF;}
	.st83{fill:#F2A355;}
	.st84{fill:#7E9E6A;}
	.st85{opacity:0.3;}
	.st86{fill:#965A85;}
	.st87{opacity:0.7;fill:#FFFFFF;}
	.st88{fill:#90CAD3;}
	.st89{fill:#94B57F;}
	.st90{fill:#B2E2E7;}
	.st91{fill:#FFDF8F;}
	.st92{fill:#FFFAEB;}
	.st93{fill:#F88916;}
	.st94{fill:#FFC86E;}
	.st95{fill:#AFA51D;}
	.st96{fill:#968A1C;}
	.st97{fill:#C3556D;}
</style>
<g>
	<g>
		<path class="st26" d="M241.2,156.4c1-26.7-8.7-53.8-29-74.2l-17.6,17.6c14.6,14.6,21.9,33.7,21.8,52.8c0,19.1-7.3,38.2-21.8,52.8
			c-14.6,14.6-33.7,21.9-52.7,21.9c-19.1,0-38.2-7.3-52.7-21.9l-17.6,17.6c15.3,15.3,34.2,24.5,54,27.8
			c-30.5,4.9-55.8-4.1-68.8-17.1c0,0-26.1,12-37.2,0.8c-11.1-11.1,0.9-37.2,0.9-37.2c-23.6-23.6-26.8-95,27.5-149.4
			C102.1-6.6,173.5-3.3,197,20.3c0,0,26.1-12,37.2-0.8c11.1,11.1-0.8,37.2-0.8,37.2C250.6,73.9,260.8,112.8,241.2,156.4z"/>
		<path class="st37" d="M31.3,164.7c-5.9-20.4-4.1-40.7,5.5-61.1"/>
	</g>
	<g>
		<path class="st19" d="M204.8,204.3c-61.4,61.5-125.7,51.1-149.3,27.5c3.9-0.2,8.3,2.9,9.7-0.8c1.3-3.7-9.5-5.5-9.6-11.5
			c-0.1-6.1,148-154.3,154.4-154.5s16.6,20.9,20.8,20.5s0.5-19.5,1.5-30.5C255.9,78.4,266.2,142.8,204.8,204.3z"/>
	</g>
	<g>
		<g>
			<path class="st38" d="M141.8,152.5l0,74.7c-19.1,0-38.2-7.3-52.7-21.9L141.8,152.5z"/>
			<path class="st38" d="M194.6,205.3c-14.6,14.6-33.7,21.9-52.7,21.9l0-74.7L194.6,205.3z"/>
			<path class="st38" d="M216.4,152.5c0,19.1-7.3,38.2-21.8,52.8l-52.7-52.8L216.4,152.5z"/>
			<path class="st38" d="M216.4,152.5l-74.6,0l52.7-52.8C209.1,114.3,216.4,133.4,216.4,152.5z"/>
		</g>
	</g>
	<path class="st25" d="M241.2,156.4c-0.9,24.2-10.6,48.1-29.1,66.6c-23.6,23.6-56.1,32.9-86.6,27.8c-19.8-3.3-38.8-12.5-54-27.8
		l17.6-17.6c14.6,14.6,33.6,21.9,52.7,21.9c19.1,0,38.2-7.3,52.7-21.9c14.6-14.6,21.9-33.7,21.8-52.8c0-19.1-7.3-38.2-21.8-52.8
		l17.6-17.6C232.5,102.6,242.2,129.6,241.2,156.4z"/>
	<g>
		<path class="st1" d="M241.2,156.4c1-26.7-8.7-53.8-29-74.2l-17.6,17.6c14.6,14.6,21.9,33.7,21.8,52.8c0,19.1-7.3,38.2-21.8,52.8
			c-14.6,14.6-33.7,21.9-52.7,21.9c-19.1,0-38.2-7.3-52.7-21.9l-17.6,17.6c15.3,15.3,34.2,24.5,54,27.8
			c-30.5,4.9-55.8-4.1-68.8-17.1c0,0-26.1,12-37.2,0.8c-11.1-11.1,0.9-37.2,0.9-37.2c-23.6-23.6-26.8-95,27.5-149.4
			C102.1-6.6,173.5-3.3,197,20.3c0,0,26.1-12,37.2-0.8c11.1,11.1-0.8,37.2-0.8,37.2C250.6,73.9,260.8,112.8,241.2,156.4z"/>
		<path class="st1" d="M31.3,164.7c-5.9-20.4-4.1-40.7,5.5-61.1"/>
	</g>
	<path class="st1" d="M241.2,156.4c-0.9,24.2-10.6,48.1-29.1,66.6c-23.6,23.6-56.1,32.9-86.6,27.8c-19.8-3.3-38.8-12.5-54-27.8
		l17.6-17.6c14.6,14.6,33.6,21.9,52.7,21.9c19.1,0,38.2-7.3,52.7-21.9c14.6-14.6,21.9-33.7,21.8-52.8c0-19.1-7.3-38.2-21.8-52.8
		l17.6-17.6C232.5,102.6,242.2,129.6,241.2,156.4z"/>
	<g>
		<path class="st1" d="M141.8,152.5l0,74.7c-19.1,0-38.2-7.3-52.7-21.9L141.8,152.5z"/>
		<path class="st1" d="M194.6,205.3c-14.6,14.6-33.7,21.9-52.7,21.9l0-74.7L194.6,205.3z"/>
		<path class="st1" d="M216.4,152.5c0,19.1-7.3,38.2-21.8,52.8l-52.7-52.8L216.4,152.5z"/>
		<path class="st1" d="M216.4,152.5l-74.6,0l52.7-52.8C209.1,114.3,216.4,133.4,216.4,152.5z"/>
	</g>
</g>
</svg>
