<?xml version="1.0" encoding="utf-8"?>
<!-- Generator: Adobe Illustrator 22.1.0, SVG Export Plug-In . SVG Version: 6.00 Build 0)  -->
<svg version="1.1" id="Layer_1" xmlns="http://www.w3.org/2000/svg" xmlns:xlink="http://www.w3.org/1999/xlink" x="0px" y="0px"
	 viewBox="0 0 256 256" style="enable-background:new 0 0 256 256;" xml:space="preserve">
<style type="text/css">
	.st0{fill:#F5B31F;}
	.st1{fill:none;stroke:#464646;stroke-width:8;stroke-linecap:round;stroke-linejoin:round;stroke-miterlimit:10;}
	.st2{opacity:0.15;fill:#464646;}
	.st3{fill:#AC6535;}
	.st4{fill:#EB573B;}
	.st5{fill:#90C056;}
	.st6{opacity:0.35;fill:#FFFFFF;}
	.st7{opacity:0.2;fill:#FFFFFF;}
	.st8{fill:#F6D67A;}
	.st9{opacity:0.15;fill:#FFFFFF;}
	.st10{opacity:0.3;fill:#FFFFFF;}
	.st11{fill:#AC6535;stroke:#464646;stroke-width:8;stroke-linecap:round;stroke-linejoin:round;stroke-miterlimit:10;}
	.st12{fill:#EB573B;stroke:#464646;stroke-width:8;stroke-miterlimit:10;}
	.st13{opacity:0.15;}
	.st14{fill:#464646;}
	.st15{fill:#FFA755;}
	.st16{fill:#8FAE3C;}
	.st17{fill:#BE6BB2;}
	.st18{fill:#B7C536;}
	.st19{opacity:0.1;}
	.st20{fill:#9D5A96;}
	.st21{fill:#EA615D;}
	.st22{opacity:0.4;fill:#FFFFFF;}
	.st23{opacity:7.000000e-02;}
	.st24{fill:#F79932;}
	.st25{fill:#FFEC97;}
	.st26{fill:#FFD11D;}
	.st27{opacity:0.2;}
	.st28{fill:#FFFFFF;}
	.st29{fill:#F7F2D5;}
	.st30{fill:#F6AF72;}
	.st31{fill:#BA6C45;}
	.st32{opacity:0.5;fill:#FFFFFF;}
	.st33{fill:#E4C074;}
	.st34{fill:none;stroke:#656566;stroke-width:8;stroke-linecap:round;stroke-linejoin:round;stroke-miterlimit:10;}
	.st35{fill:#FFA755;stroke:#464646;stroke-width:8;stroke-linecap:round;stroke-linejoin:round;stroke-miterlimit:10;}
	.st36{fill:#FFD11D;stroke:#464646;stroke-width:8;stroke-linecap:round;stroke-linejoin:round;stroke-miterlimit:10;}
	.st37{fill:#FACD1F;}
	.st38{fill:#FFDF66;}
	.st39{fill:#FFEC97;stroke:#464646;stroke-width:8;stroke-linecap:round;stroke-linejoin:round;stroke-miterlimit:10;}
	.st40{fill:#FFDF66;stroke:#464646;stroke-width:8;stroke-linecap:round;stroke-linejoin:round;stroke-miterlimit:10;}
	.st41{opacity:0.2;fill:#464646;}
	.st42{fill:#FFFFFF;stroke:#464646;stroke-width:8;stroke-linecap:round;stroke-linejoin:round;stroke-miterlimit:10;}
	.st43{fill:#6D6E71;stroke:#464646;stroke-width:8;stroke-linecap:round;stroke-linejoin:round;stroke-miterlimit:10;}
	.st44{opacity:0.1;fill:#464646;}
	.st45{fill:#E77CAE;}
	.st46{fill:#FFE5C4;}
	.st47{fill:#F68455;stroke:#464646;stroke-width:8;stroke-linecap:round;stroke-linejoin:round;stroke-miterlimit:10;}
	.st48{opacity:0.7;}
	.st49{fill:#ADEDFF;}
	.st50{fill:#EC754B;}
	.st51{fill:#4AA5BA;}
	.st52{opacity:0.5;}
	.st53{opacity:0.8;}
	.st54{fill:#F68455;}
	.st55{fill:#92A5AC;}
	.st56{fill:#6D6E71;}
	.st57{fill:#D06E3C;}
	.st58{fill:#DA4F4B;}
	.st59{fill:#BDF3FF;}
	.st60{fill:#F18BB4;}
	.st61{fill:#F9D97A;}
	.st62{fill:none;}
	.st63{fill:#AF6535;}
	.st64{fill:#B93226;}
	.st65{fill:#FF6050;}
	.st66{fill:#D06E3C;stroke:#464646;stroke-miterlimit:10;}
	.st67{fill:#EA7CB1;}
	.st68{fill:none;stroke:#6D6E71;stroke-width:10;stroke-linecap:round;stroke-linejoin:round;stroke-miterlimit:10;}
	.st69{fill:#00B0E0;}
	.st70{fill:#EA7DAE;}
	.st71{opacity:0.1;fill:#FFFFFF;}
	.st72{fill:#BC7532;}
	.st73{fill:#876C6C;}
	.st74{fill:#F9F6CD;}
	.st75{fill:#FFE37B;}
	.st76{fill:#1DDCFF;}
	.st77{fill:#60ACF7;}
	.st78{fill:#C3755A;}
	.st79{fill:#96557A;}
	.st80{fill:#66625D;}
	.st81{fill:#D68032;}
	.st82{opacity:0.8;fill:#FFFFFF;}
	.st83{fill:#F2A355;}
	.st84{fill:#7E9E6A;}
	.st85{opacity:0.3;}
	.st86{fill:#965A85;}
	.st87{opacity:0.7;fill:#FFFFFF;}
	.st88{fill:#90CAD3;}
	.st89{fill:#94B57F;}
	.st90{fill:#B2E2E7;}
	.st91{fill:#FFDF8F;}
	.st92{fill:#FFFAEB;}
	.st93{fill:#F88916;}
	.st94{fill:#FFC86E;}
	.st95{fill:#AFA51D;}
	.st96{fill:#968A1C;}
	.st97{fill:#C3556D;}
</style>
<g>
	<path class="st16" d="M53.4,43.1C64.5,58,75.6,60.9,87,50.8l-8.2,18.9l28.4-11.1l-0.3,9.2c16.6-7.1,16.5-18.6,11.8-33.6l0,0
		c2.9-19.9-6.1-30-27.1-30.2l6.8,7.4c-9.5-1.9-19.5-0.4-29.7,3.6c3.3,6.1,8.5,10.8,15.7,14C67.3,25.9,62.6,32.3,53.4,43.1z"/>
	<path class="st17" d="M170.8,139c-0.9,1.5-1.9,3-3.1,4.3c4.5,5.1,11.1,8.3,18.4,8.3c1.5,0,2.9-0.1,4.3-0.4
		c11.6-2,20.4-12.1,20.4-24.3c0-11.2-7.5-20.7-17.7-23.7c-2.2-0.6-4.5-1-6.9-1c-7.3,0-13.9,3.2-18.4,8.3c2.8,3.1,4.7,6.9,5.7,11.1
		c0.4,1.7,0.6,3.5,0.6,5.4C174,131.3,172.9,135.4,170.8,139z"/>
	<path class="st17" d="M153.2,163.6c0,2.5-0.4,5-1.1,7.3c9.8,1.1,17.9,8,20.8,17.2c11.8-1.8,20.9-12,20.9-24.4
		c0-4.5-1.2-8.8-3.4-12.5c-1.4,0.3-2.8,0.4-4.3,0.4c-7.3,0-13.9-3.2-18.4-8.3c-4.4,4.9-10.7,8.1-17.7,8.2
		C152,155.1,153.2,159.2,153.2,163.6z"/>
	<path class="st17" d="M103.9,163.6c0,2.6,0.4,5.1,1.1,7.4c0.8,2.4,1.9,4.7,3.3,6.7c4,5.7,10.2,9.6,17.5,10.4
		c0.9,0.1,1.8,0.2,2.7,0.2c1.3,0,2.6-0.1,3.9-0.3c6.8-1.1,12.7-5,16.4-10.4c1.4-2,2.5-4.3,3.2-6.7c0.7-2.3,1.1-4.7,1.1-7.3
		c0-4.4-1.1-8.5-3.2-12.1c-0.2,0-0.4,0-0.6,0c-0.6,0-1.1,0-1.6-0.1c-7.7-0.5-14.4-4.5-18.6-10.5c-4.3,6.2-11.4,10.3-19.5,10.5
		c-0.2,0-0.5,0-0.7,0c-0.6,0-1.2,0-1.8-0.1C105.1,155,103.9,159.2,103.9,163.6z"/>
	<path class="st17" d="M63.5,163.6c0,12.7,9.6,23.1,21.9,24.5c2.7-8.9,10.3-15.6,19.6-17.1c-0.7-2.3-1.1-4.8-1.1-7.4
		c0-4.4,1.2-8.6,3.2-12.2c-7.2-0.5-13.6-4.2-17.7-9.6c-4.5,5.9-11.6,9.7-19.6,9.7c-1,0-2-0.1-3-0.2C64.7,155,63.5,159.1,63.5,163.6z
		"/>
	<path class="st17" d="M129.2,209.5c4.4,6.4,11.8,10.6,20.2,10.6c0.9,0,1.8,0,2.7-0.1c12.3-1.4,21.9-11.8,21.9-24.5
		c0-2.6-0.4-5-1.1-7.4c-2.9-9.2-11-16.1-20.8-17.2c-0.7,2.4-1.8,4.7-3.2,6.7c-3.7,5.4-9.6,9.3-16.4,10.4c0.7,2.3,1.1,4.8,1.1,7.4
		c0,2.6-0.4,5.1-1.2,7.5C131.7,205.3,130.6,207.5,129.2,209.5z"/>
	<path class="st17" d="M84.3,195.4c0,12.3,9,22.5,20.8,24.4c1.3,0.2,2.6,0.3,3.9,0.3c8.4,0,15.8-4.2,20.2-10.6
		c1.4-2,2.5-4.2,3.3-6.6c0.8-2.4,1.2-4.9,1.2-7.5c0-2.6-0.4-5.1-1.1-7.4c-1.3,0.2-2.6,0.3-3.9,0.3c-0.9,0-1.8,0-2.7-0.2
		c-7.2-0.8-13.5-4.7-17.5-10.4c-1.4-2-2.6-4.3-3.3-6.7c-9.3,1.5-16.9,8.2-19.6,17.1C84.7,190.4,84.3,192.9,84.3,195.4z"/>
	<path class="st17" d="M103.9,227.3c0,13.6,11,24.7,24.6,24.7c13.6,0,24.6-11.1,24.6-24.7c0-2.6-0.4-5-1.1-7.3
		c-0.9,0.1-1.8,0.1-2.7,0.1c-8.4,0-15.8-4.2-20.2-10.6c-4.4,6.4-11.8,10.6-20.2,10.6c-1.3,0-2.6-0.1-3.9-0.3
		C104.3,222.1,103.9,224.7,103.9,227.3z"/>
	<path class="st17" d="M150.4,102.2c6.9,0.3,13.1,3.4,17.4,8.2c4.5-5.1,11.1-8.3,18.4-8.3c2.4,0,4.7,0.3,6.9,1
		c0.5-1.9,0.7-3.9,0.7-6c0-13.6-11-24.7-24.6-24.7c-7.2,0-13.7,3.1-18.2,8c1.4,3.1,2.2,6.6,2.2,10.2
		C153.2,94.9,152.2,98.8,150.4,102.2z"/>
	<path class="st17" d="M84.3,126.9c0,4.4,1.1,8.5,3.2,12.1c0.6,1,1.2,2,1.9,2.9c4.1,5.4,10.5,9.1,17.7,9.6c0.6,0.1,1.2,0.1,1.8,0.1
		c0.2,0,0.5,0,0.7,0c8.1-0.2,15.2-4.3,19.5-10.5c0.4-0.6,0.9-1.3,1.2-1.9c2-3.6,3.2-7.7,3.2-12.2c0-4.2-1-8.1-2.9-11.5
		c-0.5-0.9-1-1.7-1.6-2.6c-3.8-5.5-9.9-9.4-16.9-10.3c-1.1-0.1-2.2-0.2-3.3-0.2c-0.7,0-1.5,0-2.2,0.1c-7.1,0.6-13.3,4.2-17.4,9.6
		c-2.2,2.8-3.7,6.2-4.5,9.8C84.5,123.3,84.3,125.1,84.3,126.9z"/>
	<path class="st17" d="M63.5,97.2c0,1.9,0.2,3.8,0.7,5.7c1.8-0.4,3.7-0.7,5.6-0.7c8,0,15.1,3.8,19.6,9.7c4.1-5.3,10.3-9,17.4-9.6
		c-1.8-3.4-2.9-7.4-2.9-11.5c0-3.7,0.8-7.2,2.3-10.4c-4.5-4.8-10.9-7.8-18-7.8C74.6,72.5,63.5,83.6,63.5,97.2z"/>
	<path class="st17" d="M45.2,126.9c0,12.6,9.4,23,21.6,24.5c1,0.1,2,0.2,3,0.2c8,0,15.1-3.8,19.6-9.7c-0.7-0.9-1.3-1.9-1.9-2.9
		c-2-3.6-3.2-7.7-3.2-12.1c0-1.8,0.2-3.5,0.6-5.2c0.8-3.6,2.3-6.9,4.5-9.8c-4.5-5.9-11.6-9.7-19.6-9.7c-1.9,0-3.8,0.2-5.6,0.7
		C53.3,105.4,45.2,115.2,45.2,126.9z"/>
	<path class="st17" d="M130.4,139c-0.4,0.7-0.8,1.3-1.2,1.9c4.1,6,10.9,10,18.6,10.5c0.5,0,1.1,0.1,1.6,0.1c0.2,0,0.4,0,0.6,0
		c7.1-0.2,13.4-3.3,17.7-8.2c1.2-1.3,2.2-2.7,3.1-4.3c2-3.6,3.2-7.7,3.2-12.1c0-1.8-0.2-3.6-0.6-5.4c-0.9-4.2-2.9-8-5.7-11.1
		c-4.3-4.8-10.5-8-17.4-8.2c-0.3,0-0.7,0-1,0c-1.4,0-2.9,0.1-4.2,0.4c-6.6,1.1-12.3,4.9-16,10.2c0.6,0.8,1.1,1.7,1.6,2.6
		c1.8,3.4,2.9,7.4,2.9,11.5C133.6,131.3,132.4,135.4,130.4,139z"/>
	<path class="st17" d="M103.9,90.7c0,4.2,1,8.1,2.9,11.5c0.7-0.1,1.4-0.1,2.2-0.1c1.1,0,2.2,0.1,3.3,0.2c7,0.9,13.1,4.8,16.9,10.3
		c3.7-5.3,9.4-9.1,16-10.2c1.4-0.2,2.8-0.4,4.2-0.4c0.3,0,0.7,0,1,0c1.8-3.4,2.8-7.3,2.8-11.5c0-3.6-0.8-7.1-2.2-10.2
		c-3.7-8.3-11.9-14.1-21.5-14.5c-0.3,0-0.6,0-0.9,0c-9.9,0-18.4,5.9-22.4,14.3C104.7,83.5,103.9,87,103.9,90.7z"/>
	<path class="st1" d="M170.8,139c-0.9,1.5-1.9,3-3.1,4.3c4.5,5.1,11.1,8.3,18.4,8.3c1.5,0,2.9-0.1,4.3-0.4
		c11.6-2,20.4-12.1,20.4-24.3c0-11.2-7.5-20.7-17.7-23.7c-2.2-0.6-4.5-1-6.9-1c-7.3,0-13.9,3.2-18.4,8.3c2.8,3.1,4.7,6.9,5.7,11.1
		c0.4,1.7,0.6,3.5,0.6,5.4C174,131.3,172.9,135.4,170.8,139z"/>
	<path class="st1" d="M153.2,163.6c0,2.5-0.4,5-1.1,7.3c9.8,1.1,17.9,8,20.8,17.2c11.8-1.8,20.9-12,20.9-24.4
		c0-4.5-1.2-8.8-3.4-12.5c-1.4,0.3-2.8,0.4-4.3,0.4c-7.3,0-13.9-3.2-18.4-8.3c-4.4,4.9-10.7,8.1-17.7,8.2
		C152,155.1,153.2,159.2,153.2,163.6z"/>
	<path class="st1" d="M103.9,163.6c0,2.6,0.4,5.1,1.1,7.4c0.8,2.4,1.9,4.7,3.3,6.7c4,5.7,10.2,9.6,17.5,10.4
		c0.9,0.1,1.8,0.2,2.7,0.2c1.3,0,2.6-0.1,3.9-0.3c6.8-1.1,12.7-5,16.4-10.4c1.4-2,2.5-4.3,3.2-6.7c0.7-2.3,1.1-4.7,1.1-7.3
		c0-4.4-1.1-8.5-3.2-12.1c-0.2,0-0.4,0-0.6,0c-0.6,0-1.1,0-1.6-0.1c-7.7-0.5-14.4-4.5-18.6-10.5c-4.3,6.2-11.4,10.3-19.5,10.5
		c-0.2,0-0.5,0-0.7,0c-0.6,0-1.2,0-1.8-0.1C105.1,155,103.9,159.2,103.9,163.6z"/>
	<path class="st1" d="M63.5,163.6c0,12.7,9.6,23.1,21.9,24.5c2.7-8.9,10.3-15.6,19.6-17.1c-0.7-2.3-1.1-4.8-1.1-7.4
		c0-4.4,1.2-8.6,3.2-12.2c-7.2-0.5-13.6-4.2-17.7-9.6c-4.5,5.9-11.6,9.7-19.6,9.7c-1,0-2-0.1-3-0.2C64.7,155,63.5,159.1,63.5,163.6z
		"/>
	<path class="st1" d="M129.2,209.5c4.4,6.4,11.8,10.6,20.2,10.6c0.9,0,1.8,0,2.7-0.1c12.3-1.4,21.9-11.8,21.9-24.5
		c0-2.6-0.4-5-1.1-7.4c-2.9-9.2-11-16.1-20.8-17.2c-0.7,2.4-1.8,4.7-3.2,6.7c-3.7,5.4-9.6,9.3-16.4,10.4c0.7,2.3,1.1,4.8,1.1,7.4
		c0,2.6-0.4,5.1-1.2,7.5C131.7,205.3,130.6,207.5,129.2,209.5z"/>
	<path class="st1" d="M84.3,195.4c0,12.3,9,22.5,20.8,24.4c1.3,0.2,2.6,0.3,3.9,0.3c8.4,0,15.8-4.2,20.2-10.6c1.4-2,2.5-4.2,3.3-6.6
		c0.8-2.4,1.2-4.9,1.2-7.5c0-2.6-0.4-5.1-1.1-7.4c-1.3,0.2-2.6,0.3-3.9,0.3c-0.9,0-1.8,0-2.7-0.2c-7.2-0.8-13.5-4.7-17.5-10.4
		c-1.4-2-2.6-4.3-3.3-6.7c-9.3,1.5-16.9,8.2-19.6,17.1C84.7,190.4,84.3,192.9,84.3,195.4z"/>
	<path class="st1" d="M103.9,227.3c0,13.6,11,24.7,24.6,24.7c13.6,0,24.6-11.1,24.6-24.7c0-2.6-0.4-5-1.1-7.3
		c-0.9,0.1-1.8,0.1-2.7,0.1c-8.4,0-15.8-4.2-20.2-10.6c-4.4,6.4-11.8,10.6-20.2,10.6c-1.3,0-2.6-0.1-3.9-0.3
		C104.3,222.1,103.9,224.7,103.9,227.3z"/>
	<path class="st1" d="M150.4,102.2c6.9,0.3,13.1,3.4,17.4,8.2c4.5-5.1,11.1-8.3,18.4-8.3c2.4,0,4.7,0.3,6.9,1c0.5-1.9,0.7-3.9,0.7-6
		c0-13.6-11-24.7-24.6-24.7c-7.2,0-13.7,3.1-18.2,8c1.4,3.1,2.2,6.6,2.2,10.2C153.2,94.9,152.2,98.8,150.4,102.2z"/>
	<path class="st1" d="M84.3,126.9c0,4.4,1.1,8.5,3.2,12.1c0.6,1,1.2,2,1.9,2.9c4.1,5.4,10.5,9.1,17.7,9.6c0.6,0.1,1.2,0.1,1.8,0.1
		c0.2,0,0.5,0,0.7,0c8.1-0.2,15.2-4.3,19.5-10.5c0.4-0.6,0.9-1.3,1.2-1.9c2-3.6,3.2-7.7,3.2-12.2c0-4.2-1-8.1-2.9-11.5
		c-0.5-0.9-1-1.7-1.6-2.6c-3.8-5.5-9.9-9.4-16.9-10.3c-1.1-0.1-2.2-0.2-3.3-0.2c-0.7,0-1.5,0-2.2,0.1c-7.1,0.6-13.3,4.2-17.4,9.6
		c-2.2,2.8-3.7,6.2-4.5,9.8C84.5,123.3,84.3,125.1,84.3,126.9z"/>
	<path class="st1" d="M63.5,97.2c0,1.9,0.2,3.8,0.7,5.7c1.8-0.4,3.7-0.7,5.6-0.7c8,0,15.1,3.8,19.6,9.7c4.1-5.3,10.3-9,17.4-9.6
		c-1.8-3.4-2.9-7.4-2.9-11.5c0-3.7,0.8-7.2,2.3-10.4c-4.5-4.8-10.9-7.8-18-7.8C74.6,72.5,63.5,83.6,63.5,97.2z"/>
	<path class="st1" d="M45.2,126.9c0,12.6,9.4,23,21.6,24.5c1,0.1,2,0.2,3,0.2c8,0,15.1-3.8,19.6-9.7c-0.7-0.9-1.3-1.9-1.9-2.9
		c-2-3.6-3.2-7.7-3.2-12.1c0-1.8,0.2-3.5,0.6-5.2c0.8-3.6,2.3-6.9,4.5-9.8c-4.5-5.9-11.6-9.7-19.6-9.7c-1.9,0-3.8,0.2-5.6,0.7
		C53.3,105.4,45.2,115.2,45.2,126.9z"/>
	<path class="st1" d="M130.4,139c-0.4,0.7-0.8,1.3-1.2,1.9c4.1,6,10.9,10,18.6,10.5c0.5,0,1.1,0.1,1.6,0.1c0.2,0,0.4,0,0.6,0
		c7.1-0.2,13.4-3.3,17.7-8.2c1.2-1.3,2.2-2.7,3.1-4.3c2-3.6,3.2-7.7,3.2-12.1c0-1.8-0.2-3.6-0.6-5.4c-0.9-4.2-2.9-8-5.7-11.1
		c-4.3-4.8-10.5-8-17.4-8.2c-0.3,0-0.7,0-1,0c-1.4,0-2.9,0.1-4.2,0.4c-6.6,1.1-12.3,4.9-16,10.2c0.6,0.8,1.1,1.7,1.6,2.6
		c1.8,3.4,2.9,7.4,2.9,11.5C133.6,131.3,132.4,135.4,130.4,139z"/>
	<path class="st1" d="M103.9,90.7c0,4.2,1,8.1,2.9,11.5c0.7-0.1,1.4-0.1,2.2-0.1c1.1,0,2.2,0.1,3.3,0.2c7,0.9,13.1,4.8,16.9,10.3
		c3.7-5.3,9.4-9.1,16-10.2c1.4-0.2,2.8-0.4,4.2-0.4c0.3,0,0.7,0,1,0c1.8-3.4,2.8-7.3,2.8-11.5c0-3.6-0.8-7.1-2.2-10.2
		c-3.7-8.3-11.9-14.1-21.5-14.5c-0.3,0-0.6,0-0.9,0c-9.9,0-18.4,5.9-22.4,14.3C104.7,83.5,103.9,87,103.9,90.7z"/>
	<path class="st1" d="M129.5,66.1c0.2-23.5,10.7-36.4,30.5-52.3"/>
	<path class="st1" d="M53.4,43.1C64.5,58,75.6,60.9,87,50.8l-8.2,18.9l28.4-11.1l-0.3,9.2c16.6-7.1,16.5-18.6,11.8-33.6l0,0
		c2.9-19.9-6.1-30-27.1-30.2l6.8,7.4c-9.5-1.9-19.5-0.4-29.7,3.6c3.3,6.1,8.5,10.8,15.7,14C67.3,25.9,62.6,32.3,53.4,43.1z"/>
	<line class="st1" x1="118.6" y1="34.1" x2="143.9" y2="28.4"/>
</g>
</svg>
