<?xml version="1.0" encoding="utf-8"?>
<!-- Generator: Adobe Illustrator 22.1.0, SVG Export Plug-In . SVG Version: 6.00 Build 0)  -->
<svg version="1.1" id="Layer_1" xmlns="http://www.w3.org/2000/svg" xmlns:xlink="http://www.w3.org/1999/xlink" x="0px" y="0px"
	 viewBox="0 0 256 256" style="enable-background:new 0 0 256 256;" xml:space="preserve">
<style type="text/css">
	.st0{fill:#F5B31F;}
	.st1{fill:none;stroke:#464646;stroke-width:8;stroke-linecap:round;stroke-linejoin:round;stroke-miterlimit:10;}
	.st2{opacity:0.15;fill:#464646;}
	.st3{fill:#AC6535;}
	.st4{fill:#EB573B;}
	.st5{fill:#90C056;}
	.st6{opacity:0.35;fill:#FFFFFF;}
	.st7{opacity:0.2;fill:#FFFFFF;}
	.st8{fill:#F6D67A;}
	.st9{opacity:0.15;fill:#FFFFFF;}
	.st10{opacity:0.3;fill:#FFFFFF;}
	.st11{fill:#AC6535;stroke:#464646;stroke-width:8;stroke-linecap:round;stroke-linejoin:round;stroke-miterlimit:10;}
	.st12{fill:#EB573B;stroke:#464646;stroke-width:8;stroke-miterlimit:10;}
	.st13{opacity:0.15;}
	.st14{fill:#464646;}
	.st15{fill:#FFA755;}
	.st16{fill:#8FAE3C;}
	.st17{fill:#BE6BB2;}
	.st18{fill:#B7C536;}
	.st19{opacity:0.1;}
	.st20{fill:#9D5A96;}
	.st21{fill:#EA615D;}
	.st22{opacity:0.4;fill:#FFFFFF;}
	.st23{opacity:7.000000e-02;}
	.st24{fill:#F79932;}
	.st25{fill:#FFEC97;}
	.st26{fill:#FFD11D;}
	.st27{opacity:0.2;}
	.st28{fill:#FFFFFF;}
	.st29{fill:#F7F2D5;}
	.st30{fill:#F6AF72;}
	.st31{fill:#BA6C45;}
	.st32{opacity:0.5;fill:#FFFFFF;}
	.st33{fill:#E4C074;}
	.st34{fill:none;stroke:#656566;stroke-width:8;stroke-linecap:round;stroke-linejoin:round;stroke-miterlimit:10;}
	.st35{fill:#FFA755;stroke:#464646;stroke-width:8;stroke-linecap:round;stroke-linejoin:round;stroke-miterlimit:10;}
	.st36{fill:#FFD11D;stroke:#464646;stroke-width:8;stroke-linecap:round;stroke-linejoin:round;stroke-miterlimit:10;}
	.st37{fill:#FACD1F;}
	.st38{fill:#FFDF66;}
	.st39{fill:#FFEC97;stroke:#464646;stroke-width:8;stroke-linecap:round;stroke-linejoin:round;stroke-miterlimit:10;}
	.st40{fill:#FFDF66;stroke:#464646;stroke-width:8;stroke-linecap:round;stroke-linejoin:round;stroke-miterlimit:10;}
	.st41{opacity:0.2;fill:#464646;}
	.st42{fill:#FFFFFF;stroke:#464646;stroke-width:8;stroke-linecap:round;stroke-linejoin:round;stroke-miterlimit:10;}
	.st43{fill:#6D6E71;stroke:#464646;stroke-width:8;stroke-linecap:round;stroke-linejoin:round;stroke-miterlimit:10;}
	.st44{opacity:0.1;fill:#464646;}
	.st45{fill:#E77CAE;}
	.st46{fill:#FFE5C4;}
	.st47{fill:#F68455;stroke:#464646;stroke-width:8;stroke-linecap:round;stroke-linejoin:round;stroke-miterlimit:10;}
	.st48{opacity:0.7;}
	.st49{fill:#ADEDFF;}
	.st50{fill:#EC754B;}
	.st51{fill:#4AA5BA;}
	.st52{opacity:0.5;}
	.st53{opacity:0.8;}
	.st54{fill:#F68455;}
	.st55{fill:#92A5AC;}
	.st56{fill:#6D6E71;}
	.st57{fill:#D06E3C;}
	.st58{fill:#DA4F4B;}
	.st59{fill:#BDF3FF;}
	.st60{fill:#F18BB4;}
	.st61{fill:#F9D97A;}
	.st62{fill:none;}
	.st63{fill:#AF6535;}
	.st64{fill:#B93226;}
	.st65{fill:#FF6050;}
	.st66{fill:#D06E3C;stroke:#464646;stroke-miterlimit:10;}
	.st67{fill:#EA7CB1;}
	.st68{fill:none;stroke:#6D6E71;stroke-width:10;stroke-linecap:round;stroke-linejoin:round;stroke-miterlimit:10;}
	.st69{fill:#00B0E0;}
	.st70{fill:#EA7DAE;}
	.st71{opacity:0.1;fill:#FFFFFF;}
	.st72{fill:#BC7532;}
	.st73{fill:#876C6C;}
	.st74{fill:#F9F6CD;}
	.st75{fill:#FFE37B;}
	.st76{fill:#1DDCFF;}
	.st77{fill:#60ACF7;}
	.st78{fill:#C3755A;}
	.st79{fill:#96557A;}
	.st80{fill:#66625D;}
	.st81{fill:#D68032;}
	.st82{opacity:0.8;fill:#FFFFFF;}
	.st83{fill:#F2A355;}
	.st84{fill:#7E9E6A;}
	.st85{opacity:0.3;}
	.st86{fill:#965A85;}
	.st87{opacity:0.7;fill:#FFFFFF;}
	.st88{fill:#90CAD3;}
	.st89{fill:#94B57F;}
	.st90{fill:#B2E2E7;}
	.st91{fill:#FFDF8F;}
	.st92{fill:#FFFAEB;}
	.st93{fill:#F88916;}
	.st94{fill:#FFC86E;}
	.st95{fill:#AFA51D;}
	.st96{fill:#968A1C;}
	.st97{fill:#C3556D;}
</style>
<g>
	<ellipse class="st29" cx="128" cy="127.9" rx="39.5" ry="39.5"/>
	<path class="st16" d="M128,3.9C59.6,3.9,4.2,59.4,4.2,127.9c0,68.5,55.5,124,123.9,124s123.9-55.5,123.9-124S196.5,3.9,128,3.9z
		 M128,167.5c-21.8,0-39.5-17.7-39.5-39.5s17.7-39.5,39.5-39.5s39.5,17.7,39.5,39.5S149.9,167.5,128,167.5z"/>
	<path class="st7" d="M128,3.9C59.6,3.9,4.2,59.4,4.2,127.9c0,30,10.6,57.4,28.3,78.9c0,0-28.6-62-2.2-121.6S128,3.9,128,3.9z"/>
	<path class="st19" d="M42.7,217.9C65,239,95,251.9,128,251.9c68.4,0,123.9-55.5,123.9-124c0-31.4-11.6-60-30.8-81.8
		c0,0,41.9,62.5-23.9,142.6S42.7,217.9,42.7,217.9z"/>
	<path class="st1" d="M128,3.9C59.6,3.9,4.2,59.4,4.2,127.9c0,68.5,55.5,124,123.9,124s123.9-55.5,123.9-124S196.5,3.9,128,3.9z
		 M128,167.5c-21.8,0-39.5-17.7-39.5-39.5s17.7-39.5,39.5-39.5s39.5,17.7,39.5,39.5S149.9,167.5,128,167.5z"/>
	<ellipse class="st1" cx="128" cy="127.9" rx="39.5" ry="39.5"/>
	<g>
		<line class="st1" x1="117.9" y1="77.6" x2="115.8" y2="67.4"/>
		<line class="st1" x1="140.3" y1="188.4" x2="138.2" y2="178.2"/>
		<line class="st1" x1="77.8" y1="138.1" x2="67.6" y2="140.2"/>
		<line class="st1" x1="188.5" y1="115.7" x2="178.3" y2="117.8"/>
		<line class="st1" x1="99.7" y1="170.7" x2="94" y2="179.4"/>
		<line class="st1" x1="162.1" y1="76.5" x2="156.4" y2="85.2"/>
		<line class="st1" x1="170.8" y1="156.3" x2="179.4" y2="162.1"/>
		<line class="st1" x1="76.7" y1="93.8" x2="85.3" y2="99.6"/>
	</g>
	<g>
		<line class="st1" x1="95.4" y1="74.8" x2="88.7" y2="64"/>
		<line class="st1" x1="167.4" y1="191.9" x2="160.7" y2="181.1"/>
		<line class="st1" x1="74.9" y1="160.7" x2="64.2" y2="167.3"/>
		<line class="st1" x1="191.9" y1="88.6" x2="181.2" y2="95.2"/>
		<line class="st1" x1="113.6" y1="188.7" x2="110.7" y2="201"/>
		<line class="st1" x1="145.4" y1="54.9" x2="142.5" y2="67.2"/>
		<line class="st1" x1="188.7" y1="142.4" x2="201" y2="145.3"/>
		<line class="st1" x1="55.1" y1="110.6" x2="67.4" y2="113.5"/>
	</g>
</g>
</svg>
