<svg width="96" height="96" viewBox="0 0 96 96" fill="none" xmlns="http://www.w3.org/2000/svg">
<path d="M31.5057 68.009C32.1182 74.2916 37.1911 76.7323 40.6546 77.3711C41.5054 77.5281 42.3206 77.0003 42.5171 76.1577C43.7771 70.7561 40.7714 64.9568 38.4221 61.8143C37.9174 61.1391 37.0072 60.9085 36.2812 61.3368C33.5532 62.9461 32.0801 65.7645 31.5714 67.3539C31.5041 67.5642 31.4842 67.7892 31.5057 68.009Z" fill="#9C9F2A"/>
<path fill-rule="evenodd" clip-rule="evenodd" d="M40.2918 79.338C36.4338 78.6264 30.254 75.7814 29.5151 68.2031C29.4698 67.7383 29.5087 67.2376 29.6666 66.7443C30.2654 64.8734 31.9719 61.5569 35.2651 59.6143C36.9612 58.6137 38.9739 59.2122 40.024 60.6168C41.2939 62.3156 42.7414 64.7284 43.7093 67.474C44.6744 70.2116 45.2099 73.4181 44.4648 76.6121C44.0231 78.5059 42.1821 79.6867 40.2918 79.338ZM40.6546 77.3712C37.1911 76.7324 32.1182 74.2917 31.5057 68.0091C31.4842 67.7892 31.5041 67.5643 31.5714 67.3539C32.0801 65.7646 33.5532 62.9461 36.2812 61.3369C37.0072 60.9086 37.9174 61.1392 38.4221 61.8143C40.7713 64.9569 43.7771 70.7561 42.5171 76.1578C42.3206 77.0004 41.5054 77.5282 40.6546 77.3712Z" fill="#4F4F07"/>
<path d="M63.5149 68.009C62.9024 74.2916 57.8295 76.7323 54.366 77.3711C53.5152 77.5281 52.7 77.0003 52.5035 76.1577C51.2435 70.7561 54.2493 64.9568 56.5985 61.8143C57.1032 61.1391 58.0134 60.9085 58.7394 61.3368C61.4674 62.9461 62.9405 65.7645 63.4492 67.3539C63.5165 67.5642 63.5364 67.7892 63.5149 68.009Z" fill="#7A7C16"/>
<path fill-rule="evenodd" clip-rule="evenodd" d="M56.5985 61.8143L54.9967 60.6168C56.0467 59.2122 58.0594 58.6137 59.7556 59.6143C63.0487 61.5569 64.7552 64.8734 65.354 66.7443C65.5119 67.2376 65.5508 67.7383 65.5055 68.2031C64.7666 75.7814 58.5869 78.6264 54.7288 79.338C52.8386 79.6867 50.9975 78.5059 50.5558 76.6121C49.8108 73.4181 50.3463 70.2116 51.3113 67.474C52.2792 64.7284 53.7267 62.3156 54.9967 60.6168L56.5985 61.8143ZM54.366 77.3712C57.8295 76.7324 62.9024 74.2917 63.515 68.0091C63.5364 67.7892 63.5165 67.5643 63.4492 67.3539C62.9405 65.7646 61.4674 62.9461 58.7394 61.3369C58.0134 60.9086 57.1032 61.1392 56.5985 61.8143C54.2493 64.9569 51.2435 70.7561 52.5035 76.1578C52.7 77.0004 53.5152 77.5282 54.366 77.3712Z" fill="#4F4F07"/>
<path d="M29.7134 66.8042C26.0513 64.0672 21.2506 58.0775 24.0116 50.2949C24.0917 50.0693 24.2162 49.8605 24.3802 49.6861C26.0763 47.8836 29.9827 44.8334 33.8932 45.2296C34.7164 45.2252 35.3974 45.8257 35.5595 46.6328C36.5848 51.7384 36.9213 60.922 31.9812 66.5707C31.4008 67.2343 30.4195 67.332 29.7134 66.8042Z" fill="#9C9F2A"/>
<path fill-rule="evenodd" clip-rule="evenodd" d="M24.3803 49.6861L22.9237 48.3156C23.888 47.2908 25.4464 45.9415 27.33 44.8879C29.1737 43.8565 31.5151 43.0055 34.002 43.2308C35.8024 43.2781 37.193 44.6085 37.5205 46.239C38.0652 48.9515 38.4276 52.7348 37.9952 56.6194C37.5643 60.4903 36.322 64.6454 33.4868 67.8873C32.2098 69.3475 30.0489 69.5517 28.5161 68.4062C24.5662 65.454 18.9306 58.6354 22.1268 49.6262C22.2946 49.1532 22.5602 48.702 22.9237 48.3156L24.3803 49.6861ZM33.8933 45.2296C34.7165 45.2252 35.3975 45.8257 35.5596 46.6328C36.5849 51.7384 36.9214 60.922 31.9813 66.5707C31.4009 67.2343 30.4196 67.332 29.7134 66.8042C26.0514 64.0672 21.2507 58.0774 24.0117 50.2949C24.0918 50.0693 24.2163 49.8605 24.3803 49.6861C26.0764 47.8836 29.9828 44.8334 33.8933 45.2296Z" fill="#4F4F07"/>
<path d="M65.2655 66.8042C68.9275 64.0672 73.7283 58.0775 70.9672 50.2949C70.8872 50.0693 70.7626 49.8605 70.5986 49.6861C68.9025 47.8836 64.9961 44.8334 61.0856 45.2296C60.2624 45.2252 59.5814 45.8257 59.4193 46.6328C58.394 51.7384 58.0576 60.922 62.9976 66.5707C63.578 67.2343 64.5593 67.332 65.2655 66.8042Z" fill="#7A7C16"/>
<path fill-rule="evenodd" clip-rule="evenodd" d="M62.9381 66.6227L61.4921 67.8873C58.6569 64.6454 57.4147 60.4903 56.9837 56.6194C56.5513 52.7348 56.9137 48.9515 57.4585 46.239C57.7859 44.6085 59.1765 43.2781 60.9769 43.2308C63.4638 43.0055 65.8052 43.8565 67.6489 44.8879C69.5325 45.9415 71.0909 47.2908 72.0552 48.3156C72.4188 48.702 72.6843 49.1532 72.8521 49.6262C76.0484 58.6354 70.4127 65.454 66.4628 68.4062C64.9301 69.5517 62.7691 69.3475 61.4921 67.8873L62.9381 66.6227ZM61.0856 45.2296C64.9961 44.8334 68.9025 47.8836 70.5986 49.6861C70.7626 49.8605 70.8872 50.0693 70.9672 50.2949C73.7283 58.0774 68.9275 64.0672 65.2655 66.8042C64.5593 67.332 63.578 67.2343 62.9976 66.5707C58.0576 60.922 58.394 51.7384 59.4193 46.6328C59.5814 45.8257 60.2624 45.2252 61.0856 45.2296Z" fill="#4F4F07"/>
<path d="M71.1368 55.7113C70.9408 56.2041 70.3823 56.4446 69.8895 56.2486C69.3967 56.0525 69.1561 55.4941 69.3522 55.0012C69.5482 54.5084 70.1067 54.2678 70.5995 54.4639C71.0923 54.66 71.3329 55.2184 71.1368 55.7113Z" fill="#63650E"/>
<path d="M68.8305 56.9754C68.6859 57.3388 68.2742 57.5162 67.9108 57.3716C67.5474 57.2271 67.3701 56.8153 67.5146 56.4519C67.6592 56.0886 68.071 55.9112 68.4343 56.0557C68.7977 56.2003 68.9751 56.6121 68.8305 56.9754Z" fill="#63650E"/>
<path d="M69.4668 59.9092C69.2192 60.5314 68.5141 60.8352 67.8918 60.5876C67.2696 60.3401 66.9658 59.6349 67.2134 59.0127C67.461 58.3904 68.1661 58.0867 68.7883 58.3342C69.4106 58.5818 69.7143 59.2869 69.4668 59.9092Z" fill="#63650E"/>
<path d="M67.642 61.5281C67.5134 61.8514 67.147 62.0092 66.8236 61.8806C66.5003 61.752 66.3424 61.3855 66.4711 61.0622C66.5997 60.7389 66.9661 60.581 67.2895 60.7097C67.6128 60.8383 67.7706 61.2047 67.642 61.5281Z" fill="#63650E"/>
<path d="M46.7934 80.043C41.8126 77.6126 40.0828 69.4904 39.8779 65.5518C39.8439 64.897 40.1841 64.2832 40.7603 63.9702C45.5241 61.3827 50.5205 62.6388 53.1993 63.973C53.8092 64.2769 54.1558 64.9217 54.1277 65.6026C53.819 73.0941 50.4034 78.8105 47.9261 80.0723C47.5702 80.2536 47.1524 80.2181 46.7934 80.043Z" fill="#9C9F2A"/>
<path fill-rule="evenodd" clip-rule="evenodd" d="M46.7934 80.043L45.9164 81.8404C42.7422 80.2916 40.8209 77.0703 39.6766 74.0772C38.5097 71.0248 37.9921 67.7989 37.8807 65.6557C37.807 64.2393 38.5453 62.8973 39.8057 62.2127C45.3593 59.1963 51.0904 60.6883 54.0909 62.1828C55.4704 62.8698 56.1835 64.2899 56.126 65.6849C55.9603 69.706 54.9614 73.2721 53.6457 76.0338C52.3785 78.6935 50.6623 80.9231 48.8339 81.8544C47.7917 82.3852 46.6983 82.222 45.9164 81.8404L46.7934 80.043ZM39.878 65.5518C40.0828 69.4904 41.8126 77.6126 46.7934 80.043C47.1524 80.2181 47.5702 80.2535 47.9261 80.0722C50.4034 78.8104 53.819 73.0941 54.1277 65.6025C54.1558 64.9217 53.8092 64.2768 53.1993 63.973C50.5205 62.6388 45.5241 61.3827 40.7603 63.9702C40.1841 64.2831 39.8439 64.8969 39.878 65.5518Z" fill="#4F4F07"/>
<path d="M34.0266 62.2005C33.2339 68.2302 37.4286 71.5197 40.5377 72.8069C41.3262 73.1334 42.2202 72.7943 42.5929 72.0266C44.9314 67.209 43.4227 61.2103 41.9168 57.7716C41.5729 56.9864 40.7151 56.5597 39.9057 56.8419C37.0295 57.8447 35.0542 60.1933 34.2341 61.5858C34.1237 61.7733 34.055 61.9849 34.0266 62.2005Z" fill="#9C9F2A"/>
<path fill-rule="evenodd" clip-rule="evenodd" d="M39.7725 74.6549C36.2735 73.2062 31.0799 69.2697 32.0436 61.9399C32.1037 61.4826 32.2518 61.0103 32.5107 60.5709C33.4763 58.9314 35.7743 56.1643 39.2472 54.9534C41.1455 54.2916 43.0308 55.33 43.7487 56.9693C44.5662 58.8362 45.3857 61.3944 45.6848 64.1676C45.9833 66.9348 45.7766 70.0475 44.392 72.9C43.5565 74.6213 41.5376 75.3856 39.7725 74.6549ZM40.5376 72.807C37.4285 71.5197 33.2338 68.2303 34.0265 62.2006C34.0549 61.9849 34.1236 61.7733 34.234 61.5859C35.0541 60.1934 37.0294 57.8448 39.9056 56.8419C40.715 56.5597 41.5728 56.9864 41.9167 57.7716C43.4226 61.2103 44.9313 67.2091 42.5928 72.0266C42.2201 72.7944 41.3261 73.1334 40.5376 72.807Z" fill="#4F4F07"/>
<path d="M61.2419 62.1969C62.1953 68.3894 57.9491 71.6899 54.8028 72.9477C54.0253 73.2586 53.1515 72.9261 52.7695 72.1809C50.2373 67.2401 51.6336 61.1254 53.0949 57.6192C53.4322 56.8099 54.3123 56.3722 55.1373 56.669C58.1004 57.7352 60.1687 60.1702 61.029 61.5985C61.1389 61.7808 61.2095 61.9865 61.2419 62.1969Z" fill="#7A7C16"/>
<path fill-rule="evenodd" clip-rule="evenodd" d="M61.0289 61.5984L62.7421 60.5665C62.998 60.9913 63.1501 61.4481 63.2185 61.8925C63.7806 65.5438 62.804 68.4605 61.1516 70.6334C59.5408 72.7517 57.3575 74.0803 55.5452 74.8048C53.7988 75.503 51.8373 74.7472 50.9896 73.0931C48.0469 67.3515 49.7175 60.5238 51.2487 56.8498C51.9557 55.1532 53.8903 54.0948 55.8143 54.7871C59.3555 56.0612 61.7386 58.9005 62.7421 60.5665L61.0289 61.5984ZM54.8028 72.9477C57.949 71.6899 62.1952 68.3894 61.2418 62.1969C61.2094 61.9865 61.1388 61.7808 61.0289 61.5984C60.1686 60.1701 58.1003 57.7351 55.1372 56.669C54.3122 56.3722 53.4321 56.8099 53.0948 57.6192C51.6335 61.1254 50.2372 67.24 52.7694 72.1809C53.1514 72.9261 54.0252 73.2585 54.8028 72.9477Z" fill="#4F4F07"/>
<path d="M60.4106 66.0509C60.1554 66.5159 59.5716 66.6859 59.1066 66.4307C58.6417 66.1755 58.4716 65.5917 58.7269 65.1267C58.9821 64.6618 59.5659 64.4917 60.0308 64.747C60.4958 65.0022 60.6658 65.586 60.4106 66.0509Z" fill="#63650E"/>
<path d="M57.9663 67.0218C57.7781 67.3646 57.3476 67.4899 57.0048 67.3018C56.662 67.1136 56.5366 66.6831 56.7248 66.3403C56.913 65.9975 57.3434 65.8721 57.6862 66.0603C58.0291 66.2485 58.1544 66.6789 57.9663 67.0218Z" fill="#63650E"/>
<path d="M58.2367 70.0115C57.9145 70.5985 57.1774 70.8132 56.5903 70.491C56.0032 70.1688 55.7886 69.4316 56.1108 68.8445C56.433 68.2575 57.1702 68.0428 57.7572 68.365C58.3443 68.6873 58.559 69.4244 58.2367 70.0115Z" fill="#63650E"/>
<path d="M56.2266 71.3935C56.0592 71.6986 55.6762 71.8102 55.3711 71.6427C55.066 71.4753 54.9545 71.0922 55.1219 70.7872C55.2894 70.4821 55.6724 70.3706 55.9775 70.538C56.2825 70.7054 56.3941 71.0885 56.2266 71.3935Z" fill="#63650E"/>
<path d="M46.6031 66.7076C40.9423 62.04 39.2805 54.789 39.1109 50.7846C39.083 50.1238 39.4314 49.5074 40.012 49.1906C45.616 46.1332 51.5233 47.6489 54.5969 49.1922C55.2113 49.5007 55.5646 50.1499 55.5365 50.8368C55.2117 58.7691 51.4472 64.1906 48.8215 66.6576C48.2023 67.2394 47.2587 67.2482 46.6031 66.7076Z" fill="#AEB13D"/>
<path fill-rule="evenodd" clip-rule="evenodd" d="M39.0541 47.4349L39.0541 47.4349C45.4532 43.9438 52.1001 45.7006 55.4943 47.4048C56.8641 48.0926 57.5926 49.5076 57.5348 50.9186C57.1852 59.4561 53.1341 65.35 50.191 68.1152C48.8027 69.4196 46.7249 69.4002 45.3308 68.2507C39.0579 63.0785 37.2947 55.1674 37.1127 50.8692C37.0525 49.4469 37.8043 48.1168 39.0541 47.4349ZM39.111 50.7846C39.2805 54.789 40.9423 62.04 46.6031 66.7076C47.2587 67.2482 48.2023 67.2395 48.8215 66.6577C51.4472 64.1906 55.2117 58.7691 55.5365 50.8368C55.5646 50.1499 55.2113 49.5007 54.5969 49.1922C51.5233 47.649 45.616 46.1332 40.012 49.1906C39.4314 49.5074 39.083 50.1238 39.111 50.7846Z" fill="#4F4F07"/>
<path d="M45.6276 65.8415C45.9387 66.1387 46.2637 66.4278 46.6031 66.7076C47.2586 67.2482 48.2023 67.2394 48.8215 66.6576C51.4472 64.1906 55.2116 58.7691 55.5364 50.8368C55.5646 50.1499 55.2112 49.5007 54.5968 49.1922C52.4499 48.1142 48.9205 47.0497 45.0775 47.5477C47.2949 47.8223 49.2272 48.5045 50.5968 49.1922C51.2112 49.5007 51.5646 50.1499 51.5364 50.8368C51.2437 57.9864 48.1566 63.0963 45.6276 65.8415Z" fill="#919427"/>
<path d="M34.3838 43.5893C28.886 49.9242 31.4399 57.0396 34.0109 60.7336C34.5052 61.4437 35.445 61.663 36.2017 61.2435C42.7173 57.631 45.4729 49.1794 46.2281 44.1714C46.3538 43.3379 45.8911 42.5267 45.0877 42.2715C41.0049 40.9744 36.8466 42.2069 34.9012 43.1823C34.7038 43.2813 34.5286 43.4225 34.3838 43.5893Z" fill="#AEB13D"/>
<path fill-rule="evenodd" clip-rule="evenodd" d="M32.3694 61.8761C29.5758 57.8625 26.4888 49.635 32.8733 42.2784C33.1732 41.9329 33.5521 41.6215 34.0048 41.3945C36.2216 40.2829 40.9388 38.8548 45.6933 40.3654C47.5086 40.9421 48.466 42.7439 48.2057 44.4696C47.8032 47.1387 46.8728 50.7128 45.1633 54.1263C43.4581 57.5314 40.9018 60.9244 37.1715 62.9926C35.5157 63.9106 33.4485 63.4265 32.3694 61.8761L34.0109 60.7336C34.5052 61.4437 35.445 61.663 36.2017 61.2435C42.7173 57.631 45.4729 49.1794 46.2281 44.1714C46.3538 43.3379 45.8911 42.5267 45.0877 42.2715C41.0049 40.9744 36.8466 42.2069 34.9013 43.1823C34.7038 43.2813 34.5286 43.4225 34.3838 43.5893C28.886 49.9242 31.4399 57.0396 34.0109 60.7336L32.3694 61.8761Z" fill="#4F4F07"/>
<path d="M33.4526 59.8739C39.9234 56.2421 42.6637 47.8286 43.4165 42.8368C43.4683 42.4931 43.4201 42.1532 43.2892 41.8545C43.8855 41.9447 44.4874 42.0807 45.0876 42.2714C45.891 42.5267 46.3537 43.3379 46.228 44.1713C45.4728 49.1793 42.7172 57.6309 36.2016 61.2434C35.4449 61.6629 34.5051 61.4436 34.0108 60.7335C33.8236 60.4646 33.6365 60.1775 33.4526 59.8739Z" fill="#898C20"/>
<path d="M60.6917 44.1187C66.2045 50.4406 63.6675 57.5621 61.1052 61.2621C60.6126 61.9734 59.6733 62.1949 58.9156 61.7772C52.3915 58.1801 49.6159 49.735 48.8489 44.7289C48.7212 43.8957 49.182 43.0834 49.9847 42.8263C54.0645 41.5195 58.2257 42.7421 60.1733 43.713C60.371 43.8115 60.5466 43.9523 60.6917 44.1187Z" fill="#9C9F2A"/>
<path fill-rule="evenodd" clip-rule="evenodd" d="M48.8384 44.7305L46.872 45.0318C46.6077 43.3067 47.5608 41.5026 49.3747 40.9216M62.1992 42.8043C68.6011 50.1458 65.5335 58.3805 62.7494 62.4008C61.674 63.9537 59.608 64.4427 57.9501 63.5286C54.2148 61.4692 51.6505 58.0823 49.9372 54.6812C48.2197 51.2718 47.2808 47.6999 46.872 45.0318L48.8384 44.7305M49.3747 40.9216C54.1257 39.3998 58.8462 40.8167 61.0656 41.923C61.5189 42.149 61.8985 42.4595 62.1992 42.8043M61.1052 61.2621C63.6675 57.5621 66.2046 50.4406 60.6918 44.1187C60.5466 43.9523 60.3711 43.8115 60.1734 43.713C58.2258 42.7422 54.0645 41.5195 49.9848 42.8263C49.1821 43.0834 48.7213 43.8957 48.8489 44.7289C49.616 49.735 52.3915 58.1801 58.9157 61.7772C59.6734 62.1949 60.6126 61.9734 61.1052 61.2621Z" fill="#4F4F07"/>
<path d="M57.2954 60.7326C60.3063 57.1027 63.0715 51.0152 59.6117 44.3365C59.5067 44.1337 59.3638 43.9503 59.1873 43.8055C58.81 43.4962 58.3281 43.1525 57.7591 42.8112C58.7343 43.0793 59.5627 43.4085 60.1734 43.7129C60.3711 43.8115 60.5466 43.9522 60.6918 44.1187C66.2046 50.4406 63.6675 57.562 61.1052 61.2621C60.6126 61.9734 59.6734 62.1949 58.9157 61.7771C58.3476 61.4639 57.8078 61.1139 57.2954 60.7326Z" fill="#898C20"/>
<path d="M26.581 32.0416C18.5056 37.5938 19.9491 45.801 22.1197 50.1913C22.4826 50.9254 23.31 51.2903 24.1021 51.0825C32.7242 48.8206 38.0429 40.3937 40.1372 35.2343C40.4755 34.4009 40.1511 33.4499 39.351 33.0391C34.8536 30.7299 29.6222 31.1636 27.1457 31.7835C26.9444 31.8339 26.752 31.924 26.581 32.0416Z" fill="#AEB13D"/>
<path fill-rule="evenodd" clip-rule="evenodd" d="M18.5211 41.3246C18.9631 37.4642 20.9261 33.5024 25.4479 30.3935C25.7992 30.1519 26.2088 29.9564 26.66 29.8434C29.4041 29.1565 35.1802 28.6494 40.2645 31.2599C42.0374 32.1702 42.6962 34.2476 41.9903 35.9865C40.874 38.7366 38.9113 42.3351 36.0692 45.566C33.2268 48.7972 29.4189 51.7554 24.6096 53.017C22.923 53.4595 21.1214 52.6849 20.3268 51.0777C19.1203 48.6373 18.089 45.0987 18.5211 41.3246ZM22.1197 50.1913C19.9491 45.801 18.5056 37.5938 26.581 32.0416C26.752 31.924 26.9444 31.834 27.1457 31.7836C29.6222 31.1636 34.8536 30.7299 39.351 33.0391C40.1511 33.4499 40.4755 34.4009 40.1372 35.2343C38.0429 40.3937 32.7242 48.8206 24.1021 51.0825C23.31 51.2903 22.4826 50.9254 22.1197 50.1913Z" fill="#4F4F07"/>
<path d="M26.7796 43.2987C26.6895 45.5756 25.5347 47.3787 24.2004 47.3258C22.866 47.273 21.8574 45.3843 21.9476 43.1073C22.0378 40.8304 23.1925 39.0273 24.5269 39.0802C25.8612 39.133 26.8698 41.0217 26.7796 43.2987Z" fill="#BFC241"/>
<path d="M27.6286 57.4435C28.3099 59.0104 28.2296 60.5557 27.4493 60.895C26.6689 61.2343 25.484 60.2391 24.8027 58.6722C24.1214 57.1053 24.2017 55.56 24.982 55.2207C25.7623 54.8814 26.9472 55.8766 27.6286 57.4435Z" fill="#BFC241"/>
<path d="M35.8426 52.1978C35.9545 53.526 35.2857 54.6666 34.3487 54.7456C33.4117 54.8245 32.5614 53.8119 32.4495 52.4838C32.3376 51.1556 33.0064 50.015 33.9434 49.936C34.8804 49.857 35.7307 50.8697 35.8426 52.1978Z" fill="#BFC241"/>
<path d="M39.4563 67.4523C39.9956 68.4725 39.9625 69.5482 39.3825 69.8548C38.8024 70.1614 37.895 69.583 37.3557 68.5627C36.8163 67.5425 36.8494 66.4669 37.4294 66.1602C38.0095 65.8536 38.9169 66.4321 39.4563 67.4523Z" fill="#BFC241"/>
<path d="M73.3513 49.5973C75.4003 45.32 76.7267 37.4005 69.091 32.0303C67.2317 30.7226 58.875 31.6875 56.9581 32.9706C55.9916 33.6175 55.853 34.3187 56.1818 35.1435C58.1745 40.1422 63.208 48.2737 71.3563 50.4999C72.1553 50.7183 72.9935 50.3443 73.3513 49.5973Z" fill="#7A7C16"/>
<path fill-rule="evenodd" clip-rule="evenodd" d="M70.2414 30.3943L70.2415 30.3943C74.54 33.4175 76.4097 37.2593 76.8397 40.9949C77.2604 44.6491 76.2958 48.0799 75.155 50.4613C74.3716 52.0967 72.5424 52.8973 70.8291 52.4292C66.2539 51.1792 62.6387 48.2972 59.9445 45.1658C57.2495 42.0333 55.3869 38.5506 54.3239 35.8841C54.0547 35.2087 53.8773 34.3294 54.1784 33.3837C54.4761 32.4485 55.135 31.7841 55.8455 31.3085C56.6528 30.7682 57.8501 30.4046 58.95 30.15C60.1325 29.8763 61.5051 29.6636 62.8609 29.5375C64.2124 29.4118 65.6038 29.3669 66.8165 29.4497C67.4223 29.4911 68.023 29.5668 68.5713 29.6955C69.0916 29.8176 69.7084 30.0194 70.2414 30.3943ZM69.0909 32.0303C76.7266 37.4004 75.4002 45.32 73.3513 49.5973C72.9934 50.3443 72.1552 50.7182 71.3562 50.4999C63.2079 48.2737 58.1744 40.1422 56.1817 35.1435C55.8529 34.3187 55.9916 33.6175 56.958 32.9706C58.8749 31.6875 67.2316 30.7226 69.0909 32.0303Z" fill="#4F4F07"/>
<path d="M68.7087 49.53C71.6712 45.84 74.2519 39.6162 70.2498 32.9207C76.5815 38.2443 75.2898 45.5508 73.3514 49.5973C72.9935 50.3444 72.1553 50.7183 71.3563 50.5C70.4339 50.248 69.5514 49.9203 68.7087 49.53Z" fill="#6A6C0E"/>
<path d="M47.0196 51.3977C39.2925 46.8799 36.978 39.6246 36.6995 35.5524C36.6489 34.8137 37.0915 34.1406 37.775 33.8559C45.1816 30.7703 53.0113 32.3167 57.0167 33.855C57.738 34.132 58.1896 34.8454 58.1408 35.6164C57.6276 43.7259 52.275 49.1418 48.8696 51.3683C48.3103 51.7339 47.5964 51.735 47.0196 51.3977Z" fill="#9C9F2A"/>
<path fill-rule="evenodd" clip-rule="evenodd" d="M48.8696 51.3684L49.964 53.0423C48.7362 53.8451 47.2057 53.8234 46.0102 53.1244C37.5769 48.1936 35.0161 40.2493 34.7042 35.689C34.5916 34.0434 35.5795 32.604 37.0059 32.0097M37.0059 32.0097C45.0583 28.6551 53.456 30.3451 57.7338 31.9881C59.2819 32.5826 60.2402 34.1106 60.1369 35.7428C59.5704 44.693 53.6901 50.6062 49.964 53.0423L48.8696 51.3684C52.275 49.1419 57.6276 43.726 58.1408 35.6165C58.1896 34.8455 57.738 34.1321 57.0168 33.8551C53.0114 32.3167 45.1816 30.7703 37.775 33.8559C37.0915 34.1407 36.649 34.8138 36.6995 35.5525C36.978 39.6247 39.2925 46.8799 47.0196 51.3978C47.5964 51.735 48.3104 51.734 48.8696 51.3684" fill="#4F4F07"/>
<path d="M56.5136 38.3742C56.298 39.031 55.5908 39.3887 54.934 39.173C54.2772 38.9574 53.9196 38.2502 54.1352 37.5934C54.3508 36.9366 55.058 36.579 55.7148 36.7946C56.3716 37.0102 56.7292 37.7174 56.5136 38.3742Z" fill="#888B18"/>
<path d="M53.6144 40.2033C53.4554 40.6876 52.934 40.9513 52.4497 40.7923C51.9654 40.6333 51.7017 40.1118 51.8607 39.6276C52.0197 39.1433 52.5412 38.8796 53.0254 39.0386C53.5097 39.1976 53.7734 39.719 53.6144 40.2033Z" fill="#888B18"/>
<path d="M54.6768 43.9689C54.4046 44.7981 53.5116 45.2497 52.6823 44.9774C51.8531 44.7052 51.4015 43.8122 51.6738 42.9829C51.946 42.1537 52.839 41.7021 53.6683 41.9744C54.4975 42.2466 54.9491 43.1396 54.6768 43.9689Z" fill="#888B18"/>
<path d="M52.4328 46.2208C52.2913 46.6517 51.8273 46.8863 51.3963 46.7449C50.9654 46.6034 50.7308 46.1394 50.8722 45.7084C51.0137 45.2775 51.4777 45.0429 51.9087 45.1843C52.3396 45.3258 52.5742 45.7898 52.4328 46.2208Z" fill="#888B18"/>
<path d="M47.3622 40.4972C49.1297 43.7779 49.0651 47.2442 47.218 48.2393C45.3708 49.2344 42.4406 47.3816 40.6732 44.1008C38.9057 40.8201 38.9703 37.3538 40.8174 36.3587C42.6646 35.3636 45.5948 37.2164 47.3622 40.4972Z" fill="#BFC241"/>
<path d="M53.4859 15.7729C47.5494 19.5691 46.2672 27.7537 46.3682 31.3715L46.974 33.9965C48.2663 25.4753 56.9692 20.3162 56.9692 19.2056C56.9692 18.0951 54.2784 15.2662 53.4859 15.7729Z" fill="#72741B"/>
<path fill-rule="evenodd" clip-rule="evenodd" d="M44.3745 31.6268L44.3689 31.4273C44.3122 29.3951 44.6382 26.1977 45.7771 22.9731C46.916 19.7485 48.9378 16.3074 52.4085 14.088C53.1111 13.6387 53.8372 13.6814 54.2697 13.7712C54.7092 13.8624 55.0882 14.0468 55.3692 14.21C55.9411 14.5423 56.492 15.0153 56.9488 15.4786C57.4155 15.9519 57.8689 16.5015 58.2208 17.0513C58.3968 17.3263 58.5684 17.6339 58.7016 17.9577C58.8253 18.2585 58.9691 18.6994 58.9691 19.2057C58.9691 19.8596 58.6787 20.3456 58.5594 20.5333C58.4057 20.7754 58.2241 20.9896 58.0712 21.1574C57.7636 21.4951 57.3553 21.8779 56.9468 22.2555C56.8429 22.3516 56.7358 22.4502 56.626 22.5513C55.8304 23.284 54.8892 24.1508 53.9154 25.1898C51.6848 27.5697 49.5079 30.6263 48.9514 34.2964L45.0252 34.4462L44.3745 31.6268ZM47.638 31.3361C47.6708 31.2419 47.7045 31.1483 47.7389 31.0551C47.945 30.4983 48.1796 29.9594 48.4367 29.4389C50.3085 25.6491 53.3721 22.8285 55.2742 21.0773C56.286 20.1457 56.9691 19.5168 56.9691 19.2057C56.9691 18.0951 54.2784 15.2662 53.4859 15.773C48.6722 18.8511 46.9187 24.8147 46.4814 28.8892C46.3794 29.8396 46.3491 30.6872 46.3682 31.3715L46.974 33.9965C47.1145 33.0696 47.3428 32.1825 47.638 31.3361Z" fill="#4B4E0B"/>
<path d="M57.6759 29.7055C53.3144 31.4825 48.9596 32.3979 47.3274 32.6334C54.8389 31.9873 60.7553 33.2392 62.7745 33.9459C68.6732 36.6544 73.1409 35.4447 74.6375 34.5012C72.9413 33.8551 70.0942 32.0445 68.8827 31.22C65.3692 28.2719 59.9476 28.982 57.6759 29.7055Z" fill="#ABAF0D"/>
<path fill-rule="evenodd" clip-rule="evenodd" d="M45.3405 32.8621C45.4642 33.9371 46.4206 34.7188 47.4988 34.6261C54.6354 34.0122 60.2056 35.189 62.0322 35.8056C68.4291 38.7091 73.5809 37.5315 75.704 36.1931C76.3451 35.7889 76.7027 35.0571 76.6276 34.303C76.5525 33.5489 76.0576 32.902 75.3494 32.6322C73.9324 32.0924 71.3456 30.4712 70.0851 29.619C67.8919 27.8191 65.2142 27.1997 62.9102 27.0882C60.5733 26.9752 58.4118 27.3721 57.0689 27.7999C57.019 27.8158 56.9698 27.8336 56.9213 27.8534C52.7329 29.5597 48.5391 30.4378 47.0417 30.6539C45.9706 30.8085 45.2168 31.787 45.3405 32.8621ZM68.8826 31.22C69.614 31.7177 70.9415 32.5748 72.252 33.3182C73.1123 33.8062 73.9652 34.2451 74.6374 34.5012C74.0985 34.841 73.1743 35.2152 71.9367 35.4286C69.7375 35.8078 66.549 35.6791 62.7745 33.9459C61.5768 33.5267 59.0081 32.9157 55.5486 32.6228C53.1756 32.4218 50.3835 32.3705 47.3274 32.6334C48.6607 32.441 51.8107 31.7949 55.2971 30.5962C56.0787 30.3275 56.8772 30.0309 57.6759 29.7055C59.9475 28.982 65.3692 28.2719 68.8826 31.22Z" fill="#4F4F07"/>
<path d="M36.4234 29.7055C40.785 31.4825 45.1398 32.3979 46.772 32.6334C39.2604 31.9873 33.3441 33.2392 31.3249 33.9459C25.4262 36.6544 20.9585 35.4447 19.4619 34.5012C21.1581 33.8551 24.0052 32.0445 25.2167 31.22C28.7302 28.2719 34.1518 28.982 36.4234 29.7055Z" fill="#ABAF0D"/>
<path fill-rule="evenodd" clip-rule="evenodd" d="M48.7589 32.8621C48.6352 33.9371 47.6788 34.7188 46.6006 34.6261C39.464 34.0122 33.8937 35.189 32.0672 35.8056C25.6702 38.7091 20.5185 37.5315 18.3954 36.1931C17.7543 35.7889 17.3967 35.0571 17.4718 34.303C17.5469 33.5489 18.0418 32.902 18.75 32.6322C20.167 32.0924 22.7538 30.4712 24.0142 29.619C26.2074 27.8191 28.8852 27.1997 31.1892 27.0882C33.5261 26.9752 35.6876 27.3721 37.0304 27.7999C37.0803 27.8158 37.1296 27.8336 37.1781 27.8534C41.3665 29.5597 45.5603 30.4378 47.0577 30.6539C48.1288 30.8085 48.8826 31.787 48.7589 32.8621ZM25.2167 31.22C24.4853 31.7177 23.1579 32.5748 21.8474 33.3182C20.9871 33.8062 20.1341 34.2451 19.4619 34.5012C20.0009 34.841 20.9251 35.2152 22.1627 35.4286C24.3618 35.8078 27.5504 35.6791 31.3249 33.9459C32.5226 33.5267 35.0913 32.9157 38.5507 32.6228C40.9237 32.4218 43.7158 32.3705 46.772 32.6334C45.4387 32.441 42.2887 31.7949 38.8023 30.5962C38.0207 30.3275 37.2222 30.0309 36.4235 29.7055C34.1518 28.982 28.7302 28.2719 25.2167 31.22Z" fill="#4F4F07"/>
<path fill-rule="evenodd" clip-rule="evenodd" d="M40.9927 40.7635C41.503 40.5523 42.0879 40.7948 42.299 41.3052C42.7741 42.4532 43.5416 43.7287 44.3301 44.3901C44.7533 44.745 44.8086 45.3757 44.4537 45.7989C44.0988 46.222 43.4681 46.2774 43.0449 45.9225C41.896 44.9588 40.976 43.3385 40.451 42.0699C40.2398 41.5595 40.4823 40.9747 40.9927 40.7635Z" fill="white"/>
<path d="M62.3242 49.9658C62.3242 50.6734 61.7506 51.2471 61.043 51.2471C60.3354 51.2471 59.7617 50.6734 59.7617 49.9658C59.7617 49.2582 60.3354 48.6846 61.043 48.6846C61.7506 48.6846 62.3242 49.2582 62.3242 49.9658Z" fill="#727513"/>
<path d="M60.0886 52.6704C60.0886 53.1922 59.6657 53.6151 59.1439 53.6151C58.6222 53.6151 58.1992 53.1922 58.1992 52.6704C58.1992 52.1487 58.6222 51.7257 59.1439 51.7257C59.6657 51.7257 60.0886 52.1487 60.0886 52.6704Z" fill="#727513"/>
<path d="M62.3241 55.9935C62.3241 56.8869 61.5998 57.6112 60.7064 57.6112C59.8129 57.6112 59.0886 56.8869 59.0886 55.9935C59.0886 55.1 59.8129 54.3757 60.7064 54.3757C61.5998 54.3757 62.3241 55.1 62.3241 55.9935Z" fill="#727513"/>
<path d="M60.8605 58.9002C60.8605 59.3645 60.4841 59.7408 60.0198 59.7408C59.5556 59.7408 59.1792 59.3645 59.1792 58.9002C59.1792 58.4359 59.5556 58.0596 60.0198 58.0596C60.4841 58.0596 60.8605 58.4359 60.8605 58.9002Z" fill="#727513"/>
<path d="M57.0312 19.4579C56.3862 20.2007 54.9634 20.0215 53.8534 19.0576C52.7435 18.0937 52.3665 16.7102 53.0115 15.9674C53.6566 15.2246 55.0793 15.4038 56.1893 16.3677C57.2993 17.3316 57.6762 18.7151 57.0312 19.4579Z" fill="#9DA034"/>
</svg>
