<svg width="96" height="96" viewBox="0 0 96 96" fill="none" xmlns="http://www.w3.org/2000/svg">
<path d="M54.8313 79.7387C48.9772 82.8587 43.1773 81.0387 41.0091 79.7387C41.6596 72.8053 32.6074 56.6276 28 49.4053L34.5046 46.372C34.7935 52.8403 39.9432 62.2628 42.7037 65.4992C43.1288 65.9975 43.8509 65.8121 44.0006 65.1745C45.4867 58.8486 42.7077 45.0822 41.8222 41.172H55.1661C52.1061 50.8209 50.9689 61.0761 51.0456 66.1552C51.0598 67.0951 52.0905 67.2379 52.5204 66.402C55.8479 59.9323 63.6905 47.4458 66.6209 45.072L69.4666 50.7053C57.7584 56.9453 54.8313 72.6609 54.8313 79.7387Z" fill="#C2E684"/>
<path fill-rule="evenodd" clip-rule="evenodd" d="M39.9807 81.454C39.3204 81.0581 38.946 80.3184 39.0179 79.5519C39.1416 78.2329 38.8022 76.2382 37.993 73.6964C37.2011 71.2087 36.0268 68.3995 34.6692 65.5374C31.9552 59.8155 28.5839 54.0393 26.3139 50.481C26.004 49.9953 25.9187 49.3995 26.0797 48.8463C26.2408 48.2931 26.6326 47.8362 27.1547 47.5927L33.6593 44.5594C34.2643 44.2772 34.9703 44.3156 35.5412 44.6616C36.1122 45.0077 36.4728 45.6158 36.5026 46.2827C36.6294 49.1217 37.8565 52.8088 39.489 56.3005C40.4344 58.3223 41.4692 60.181 42.4104 61.6645C42.5065 59.0566 42.248 55.8056 41.8178 52.5276C41.2086 47.8865 40.3058 43.5311 39.8716 41.6137C39.7373 41.0207 39.8801 40.3988 40.2596 39.9237C40.6391 39.4486 41.2142 39.172 41.8222 39.172H55.1661C55.8039 39.172 56.4034 39.4761 56.78 39.9907C57.1567 40.5053 57.2653 41.1687 57.0726 41.7766C54.9259 48.5454 53.7506 55.6179 53.2835 60.8714C54.7243 58.3803 56.3941 55.6517 58.0418 53.1124C59.4275 50.9769 60.8125 48.9522 62.0471 47.2995C63.24 45.7025 64.4122 44.2873 65.3619 43.5179C65.8318 43.1373 66.4486 42.9897 67.0399 43.1164C67.6312 43.2431 68.1334 43.6305 68.406 44.1702L71.2518 49.8035C71.7421 50.7742 71.367 51.9588 70.4073 52.4703C65.1219 55.2872 61.7147 60.3017 59.6202 65.6385C57.5265 70.9733 56.8313 76.4202 56.8313 79.7387C56.8313 80.4775 56.424 81.1562 55.772 81.5036C49.1274 85.045 42.5639 83.0028 39.9807 81.454ZM53.0429 65.4058C52.9987 65.4886 52.9551 65.5706 52.9121 65.6519C52.8259 65.8146 52.7421 65.9744 52.6606 66.1309C52.6131 66.2223 52.5663 66.3127 52.5204 66.402C52.0905 67.2379 51.0598 67.0951 51.0456 66.1552C51.0431 65.9895 51.0419 65.8182 51.042 65.6416C51.0421 65.4848 51.0432 65.3238 51.0454 65.1588C51.0466 65.0722 51.048 64.9844 51.0498 64.8956C51.1471 59.9061 52.1702 51.4631 54.5611 43.172C54.7538 42.5037 54.9554 41.8364 55.1661 41.172H41.8222C41.938 41.6831 42.0861 42.3627 42.2528 43.172C43.2971 48.2421 45.0713 58.4055 44.1936 64.1638C44.1935 64.1644 44.1934 64.1649 44.1933 64.1654C44.1896 64.1898 44.1858 64.2141 44.182 64.2383C44.1305 64.5655 44.0703 64.8782 44.0006 65.1745C43.8509 65.8121 43.1288 65.9975 42.7037 65.4992C42.5089 65.2708 42.3022 65.0116 42.0861 64.7248C42.0775 64.7134 42.0689 64.7019 42.0603 64.6904C42.0602 64.6903 42.0604 64.6906 42.0603 64.6904C39.5319 61.32 35.7456 54.2139 34.7429 48.4676C34.6166 47.7442 34.5345 47.0422 34.5046 46.372L28 49.4053C28.3346 49.9299 28.6927 50.5016 29.0688 51.1137C33.8711 58.9287 41.6124 73.3089 41.0091 79.7387C43.1773 81.0387 48.9772 82.8587 54.8313 79.7387C54.8313 72.6609 57.7584 56.9453 69.4666 50.7053L66.6209 45.072C66.2158 45.4002 65.7168 45.9216 65.1489 46.5937C61.8105 50.5441 56.0891 59.6995 53.0429 65.4058Z" fill="#78A32D"/>
<path fill-rule="evenodd" clip-rule="evenodd" d="M41.0339 78.5853C43.8295 79.589 48.4063 80.1958 53.0166 77.7387C53.0166 70.6609 55.9437 54.9453 67.6519 48.7053L66.0711 45.576C66.2692 45.3769 66.4531 45.2079 66.6208 45.072L69.4665 50.7053C57.7583 56.9453 54.8313 72.6609 54.8313 79.7387C48.9772 82.8587 43.1773 81.0387 41.0091 79.7387C41.0429 79.3783 41.0505 78.993 41.0339 78.5853ZM33.0393 47.0553C34.2914 53.2107 38.4913 60.6882 40.889 63.4992C41.0385 63.6745 41.2248 63.7652 41.41 63.7814C38.5841 59.6575 34.7526 51.9258 34.5045 46.372L33.0393 47.0553ZM51.0896 63.6665C51.3347 58.1459 52.5451 49.4366 55.1661 41.172H52.7464C50.1405 50.2087 49.1594 59.4258 49.2309 64.1552C49.2451 65.0951 50.2757 65.2379 50.7057 64.402C50.8277 64.1647 50.9558 63.9192 51.0896 63.6665Z" fill="#A2CB5B"/>
<path d="M43.6142 70.993C44.1513 72.9007 43.9833 74.6403 43.2389 74.8784C42.4945 75.1165 41.4556 73.763 40.9185 71.8553C40.3814 69.9475 40.5495 68.208 41.2939 67.9699C42.0383 67.7317 43.0772 69.0852 43.6142 70.993Z" fill="#E1FBB5"/>
<path d="M28.1333 43.1387C28.1333 46.4892 25.4172 49.2054 22.0667 49.2054C18.7161 49.2054 16 46.4892 16 43.1387C16 39.7882 18.7161 37.072 22.0667 37.072C25.4172 37.072 28.1333 39.7882 28.1333 43.1387Z" fill="#2E9422"/>
<path d="M36.8 33.6054C36.8 38.3918 32.9198 42.272 28.1333 42.272C23.3469 42.272 19.4667 38.3918 19.4667 33.6054C19.4667 28.8189 23.3469 24.9387 28.1333 24.9387C32.9198 24.9387 36.8 28.8189 36.8 33.6054Z" fill="#2E9422"/>
<path d="M52.4 41.4054C52.4 46.1918 48.5198 50.072 43.7333 50.072C38.9469 50.072 35.0667 46.1918 35.0667 41.4054C35.0667 36.6189 38.9469 32.7387 43.7333 32.7387C48.5198 32.7387 52.4 36.6189 52.4 41.4054Z" fill="#2E9422"/>
<path d="M67.1333 39.672C67.1333 44.4585 63.2531 48.3387 58.4667 48.3387C53.6802 48.3387 49.8 44.4585 49.8 39.672C49.8 34.8856 53.6802 31.0054 58.4667 31.0054C63.2531 31.0054 67.1333 34.8856 67.1333 39.672Z" fill="#2E9422"/>
<path d="M81 42.7054C81 47.2525 77.3138 50.9387 72.7667 50.9387C68.2195 50.9387 64.5333 47.2525 64.5333 42.7054C64.5333 38.1582 68.2195 34.472 72.7667 34.472C77.3138 34.472 81 38.1582 81 42.7054Z" fill="#2E9422"/>
<path d="M74.0667 33.172C74.0667 38.6765 69.6044 43.1387 64.1 43.1387C58.5956 43.1387 54.1333 38.6765 54.1333 33.172C54.1333 27.6676 58.5956 23.2054 64.1 23.2054C69.6044 23.2054 74.0667 27.6676 74.0667 33.172Z" fill="#2E9422"/>
<path d="M63.6667 25.372C63.6667 31.3551 58.8164 36.2054 52.8333 36.2054C46.8502 36.2054 42 31.3551 42 25.372C42 19.3889 46.8502 14.5387 52.8333 14.5387C58.8164 14.5387 63.6667 19.3889 63.6667 25.372Z" fill="#2E9422"/>
<path d="M50.6667 27.972C50.6667 33.9551 45.8164 38.8054 39.8333 38.8054C33.8503 38.8054 29 33.9551 29 27.972C29 21.9889 33.8503 17.1387 39.8333 17.1387C45.8164 17.1387 50.6667 21.9889 50.6667 27.972Z" fill="#2E9422"/>
<path d="M39.4 39.672C39.4 44.4585 35.5198 48.3387 30.7333 48.3387C25.9469 48.3387 22.0667 44.4585 22.0667 39.672C22.0667 34.8856 25.9469 31.0054 30.7333 31.0054C35.5198 31.0054 39.4 34.8856 39.4 39.672Z" fill="#2E9422"/>
<path fill-rule="evenodd" clip-rule="evenodd" d="M18.514 38.2205C16.9909 39.3226 16 41.1149 16 43.1387C16 46.4892 18.7161 49.2054 22.0667 49.2054C23.0563 49.2054 23.9906 48.9684 24.8159 48.5481C25.4614 48.2194 26.0403 47.7785 26.5268 47.2512C27.1344 47.5892 27.787 47.8562 28.4733 48.0411C29.1938 48.2352 29.9515 48.3387 30.7333 48.3387C32.221 48.3387 33.6211 47.9639 34.8444 47.3035C35.4355 46.9844 35.9853 46.5987 36.4837 46.1563C36.8516 46.7166 37.2828 47.2316 37.7669 47.6913C39.3209 49.1668 41.4214 50.072 43.7333 50.072C46.4843 50.072 48.9359 48.7903 50.5235 46.7915C50.9599 46.2421 51.3309 45.6387 51.625 44.9927C52.0587 45.5495 52.5588 46.052 53.1134 46.4882C54.5872 47.6473 56.4462 48.3387 58.4667 48.3387C60.2946 48.3387 61.9904 47.7728 63.3883 46.8066C63.9757 46.4006 64.5106 45.9239 64.9806 45.3889C65.2147 46.0684 65.5353 46.7077 65.9293 47.2936C67.4075 49.4921 69.9182 50.9387 72.7667 50.9387C77.3138 50.9387 81 47.2525 81 42.7054C81 39.2726 78.8992 36.3305 75.913 35.0946C75.2995 34.8407 74.6486 34.6588 73.9709 34.5595C74.034 34.106 74.0667 33.6428 74.0667 33.172C74.0667 32.9636 74.0603 32.7567 74.0477 32.5514C73.756 27.8043 70.1413 23.9557 65.5008 23.303C65.0431 23.2387 64.5754 23.2054 64.1 23.2054C63.883 23.2054 63.6677 23.2123 63.4541 23.226C63.318 22.5485 63.1186 21.8939 62.8625 21.2686C61.2453 17.3201 57.3641 14.5387 52.8333 14.5387C50.3274 14.5387 48.0202 15.3895 46.1848 16.8181C45.6288 17.2509 45.1161 17.7367 44.6544 18.2679C44.0293 17.9568 43.37 17.7043 42.6836 17.5176C41.7754 17.2705 40.8198 17.1387 39.8333 17.1387C35.5917 17.1387 31.9194 19.5764 30.141 23.1273C29.8382 23.7319 29.5904 24.3687 29.4039 25.0312C28.9892 24.9703 28.565 24.9387 28.1333 24.9387C27.8701 24.9387 27.6095 24.9504 27.3522 24.9734C22.9317 25.3683 19.4667 29.0822 19.4667 33.6054C19.4667 34.2338 19.5335 34.8465 19.6606 35.437C19.8032 36.0998 20.0216 36.7344 20.3063 37.3314C19.656 37.5282 19.0518 37.8314 18.514 38.2205ZM17.8067 36.2873C15.5211 37.7115 14 40.2474 14 43.1387C14 47.5938 17.6116 51.2054 22.0667 51.2054C23.8672 51.2054 25.5299 50.6155 26.8722 49.6184C28.0695 50.0835 29.3716 50.3387 30.7333 50.3387C32.6994 50.3387 34.5412 49.8068 36.1227 48.879C38.0581 50.8497 40.753 52.072 43.7333 52.072C47.0648 52.072 50.0395 50.5448 51.9955 48.1523C53.7903 49.5239 56.0333 50.3387 58.4667 50.3387C60.6499 50.3387 62.68 49.6828 64.3705 48.5572C66.2201 51.206 69.291 52.9387 72.7667 52.9387C78.4184 52.9387 83 48.3571 83 42.7054C83 38.2079 80.0987 34.3881 76.0657 33.0154C75.9856 26.7757 71.13 21.6874 64.9862 21.2377C63.2655 16.1785 58.4745 12.5387 52.8333 12.5387C49.4996 12.5387 46.4628 13.8098 44.1811 15.8939C42.8234 15.4051 41.3595 15.1387 39.8333 15.1387C34.532 15.1387 29.9815 18.3531 28.0244 22.9392C22.1836 22.9977 17.4667 27.7507 17.4667 33.6054C17.4667 34.5317 17.5847 35.4304 17.8067 36.2873ZM50.6236 35.9798C50.5704 35.9688 50.5173 35.9574 50.4643 35.9456C50.5017 35.9915 50.5386 36.0379 50.575 36.0847C50.591 36.0496 50.6072 36.0146 50.6236 35.9798Z" fill="#1A5B22"/>
<path d="M44.8216 21.8131C46.0472 24.2468 44.0814 27.7101 40.4308 29.5486C36.7802 31.3871 32.8272 30.9045 31.6015 28.4708C30.3759 26.037 32.3417 22.5737 35.9923 20.7353C39.6429 18.8968 43.5959 19.3794 44.8216 21.8131Z" fill="#45BD36"/>
<path fill-rule="evenodd" clip-rule="evenodd" d="M38.2417 23.1951C38.758 24.1716 38.385 25.3817 37.4086 25.898C36.8392 26.1991 36.3941 26.578 36.0456 27.0345C35.3754 27.9126 34.1203 28.081 33.2423 27.4108C32.3643 26.7406 32.1958 25.4855 32.866 24.6075C33.5825 23.6689 34.4826 22.9204 35.5387 22.362C36.5152 21.8456 37.7253 22.2186 38.2417 23.1951Z" fill="white"/>
<path d="M26 32.5387C26 33.091 25.5523 33.5387 25 33.5387C24.4477 33.5387 24 33.091 24 32.5387C24 31.9864 24.4477 31.5387 25 31.5387C25.5523 31.5387 26 31.9864 26 32.5387Z" fill="#3DB52F"/>
<path d="M30 29.5387C30 30.091 29.5523 30.5387 29 30.5387C28.4477 30.5387 28 30.091 28 29.5387C28 28.9864 28.4477 28.5387 29 28.5387C29.5523 28.5387 30 28.9864 30 29.5387Z" fill="#3DB52F"/>
<path d="M32 35.5387C32 36.091 31.5523 36.5387 31 36.5387C30.4477 36.5387 30 36.091 30 35.5387C30 34.9864 30.4477 34.5387 31 34.5387C31.5523 34.5387 32 34.9864 32 35.5387Z" fill="#3DB52F"/>
<path d="M27 37.5387C27 38.091 26.5523 38.5387 26 38.5387C25.4477 38.5387 25 38.091 25 37.5387C25 36.9864 25.4477 36.5387 26 36.5387C26.5523 36.5387 27 36.9864 27 37.5387Z" fill="#3DB52F"/>
<path d="M23 42.5387C23 43.091 22.5523 43.5387 22 43.5387C21.4477 43.5387 21 43.091 21 42.5387C21 41.9864 21.4477 41.5387 22 41.5387C22.5523 41.5387 23 41.9864 23 42.5387Z" fill="#3DB52F"/>
<path d="M28 42.5387C28 43.091 27.5523 43.5387 27 43.5387C26.4477 43.5387 26 43.091 26 42.5387C26 41.9864 26.4477 41.5387 27 41.5387C27.5523 41.5387 28 41.9864 28 42.5387Z" fill="#3DB52F"/>
<path d="M33 40.5387C33 41.091 32.5523 41.5387 32 41.5387C31.4477 41.5387 31 41.091 31 40.5387C31 39.9864 31.4477 39.5387 32 39.5387C32.5523 39.5387 33 39.9864 33 40.5387Z" fill="#3DB52F"/>
<path d="M37 35.5387C37 36.091 36.5523 36.5387 36 36.5387C35.4477 36.5387 35 36.091 35 35.5387C35 34.9864 35.4477 34.5387 36 34.5387C36.5523 34.5387 37 34.9864 37 35.5387Z" fill="#3DB52F"/>
<path d="M44 32.5387C44 33.091 43.5523 33.5387 43 33.5387C42.4477 33.5387 42 33.091 42 32.5387C42 31.9864 42.4477 31.5387 43 31.5387C43.5523 31.5387 44 31.9864 44 32.5387Z" fill="#3DB52F"/>
<path d="M41 38.5387C41 39.091 40.5523 39.5387 40 39.5387C39.4477 39.5387 39 39.091 39 38.5387C39 37.9864 39.4477 37.5387 40 37.5387C40.5523 37.5387 41 37.9864 41 38.5387Z" fill="#3DB52F"/>
<path d="M37 42.5387C37 43.091 36.5523 43.5387 36 43.5387C35.4477 43.5387 35 43.091 35 42.5387C35 41.9864 35.4477 41.5387 36 41.5387C36.5523 41.5387 37 41.9864 37 42.5387Z" fill="#3DB52F"/>
<path d="M44 45.5387C44 46.091 43.5523 46.5387 43 46.5387C42.4477 46.5387 42 46.091 42 45.5387C42 44.9864 42.4477 44.5387 43 44.5387C43.5523 44.5387 44 44.9864 44 45.5387Z" fill="#3DB52F"/>
<path d="M48 41.5387C48 42.091 47.5523 42.5387 47 42.5387C46.4477 42.5387 46 42.091 46 41.5387C46 40.9864 46.4477 40.5387 47 40.5387C47.5523 40.5387 48 40.9864 48 41.5387Z" fill="#3DB52F"/>
<path d="M47 37.5387C47 38.091 46.5523 38.5387 46 38.5387C45.4477 38.5387 45 38.091 45 37.5387C45 36.9864 45.4477 36.5387 46 36.5387C46.5523 36.5387 47 36.9864 47 37.5387Z" fill="#3DB52F"/>
<path d="M54 40.5387C54 41.091 53.5523 41.5387 53 41.5387C52.4477 41.5387 52 41.091 52 40.5387C52 39.9864 52.4477 39.5387 53 39.5387C53.5523 39.5387 54 39.9864 54 40.5387Z" fill="#3DB52F"/>
<path d="M51 35.5387C51 36.091 50.5523 36.5387 50 36.5387C49.4477 36.5387 49 36.091 49 35.5387C49 34.9864 49.4477 34.5387 50 34.5387C50.5523 34.5387 51 34.9864 51 35.5387Z" fill="#3DB52F"/>
<path d="M49 29.5387C49 30.091 48.5523 30.5387 48 30.5387C47.4477 30.5387 47 30.091 47 29.5387C47 28.9864 47.4477 28.5387 48 28.5387C48.5523 28.5387 49 28.9864 49 29.5387Z" fill="#3DB52F"/>
<path d="M49 24.5387C49 25.091 48.5523 25.5387 48 25.5387C47.4477 25.5387 47 25.091 47 24.5387C47 23.9864 47.4477 23.5387 48 23.5387C48.5523 23.5387 49 23.9864 49 24.5387Z" fill="#3DB52F"/>
<path d="M51 17.5387C51 18.091 50.5523 18.5387 50 18.5387C49.4477 18.5387 49 18.091 49 17.5387C49 16.9864 49.4477 16.5387 50 16.5387C50.5523 16.5387 51 16.9864 51 17.5387Z" fill="#3DB52F"/>
<path d="M57 17.5387C57 18.091 56.5523 18.5387 56 18.5387C55.4477 18.5387 55 18.091 55 17.5387C55 16.9864 55.4477 16.5387 56 16.5387C56.5523 16.5387 57 16.9864 57 17.5387Z" fill="#3DB52F"/>
<path d="M54 21.5387C54 22.091 53.5523 22.5387 53 22.5387C52.4477 22.5387 52 22.091 52 21.5387C52 20.9864 52.4477 20.5387 53 20.5387C53.5523 20.5387 54 20.9864 54 21.5387Z" fill="#3DB52F"/>
<path d="M60 21.5387C60 22.091 59.5523 22.5387 59 22.5387C58.4477 22.5387 58 22.091 58 21.5387C58 20.9864 58.4477 20.5387 59 20.5387C59.5523 20.5387 60 20.9864 60 21.5387Z" fill="#3DB52F"/>
<path d="M55 26.5387C55 27.091 54.5523 27.5387 54 27.5387C53.4477 27.5387 53 27.091 53 26.5387C53 25.9864 53.4477 25.5387 54 25.5387C54.5523 25.5387 55 25.9864 55 26.5387Z" fill="#3DB52F"/>
<path d="M60 26.5387C60 27.091 59.5523 27.5387 59 27.5387C58.4477 27.5387 58 27.091 58 26.5387C58 25.9864 58.4477 25.5387 59 25.5387C59.5523 25.5387 60 25.9864 60 26.5387Z" fill="#3DB52F"/>
<path d="M60 33.5387C60 34.091 59.5523 34.5387 59 34.5387C58.4477 34.5387 58 34.091 58 33.5387C58 32.9864 58.4477 32.5387 59 32.5387C59.5523 32.5387 60 32.9864 60 33.5387Z" fill="#3DB52F"/>
<path d="M63 29.5387C63 30.091 62.5523 30.5387 62 30.5387C61.4477 30.5387 61 30.091 61 29.5387C61 28.9864 61.4477 28.5387 62 28.5387C62.5523 28.5387 63 28.9864 63 29.5387Z" fill="#3DB52F"/>
<path d="M67 26.5387C67 27.091 66.5523 27.5387 66 27.5387C65.4477 27.5387 65 27.091 65 26.5387C65 25.9864 65.4477 25.5387 66 25.5387C66.5523 25.5387 67 25.9864 67 26.5387Z" fill="#3DB52F"/>
<path d="M72 31.5387C72 32.091 71.5523 32.5387 71 32.5387C70.4477 32.5387 70 32.091 70 31.5387C70 30.9864 70.4477 30.5387 71 30.5387C71.5523 30.5387 72 30.9864 72 31.5387Z" fill="#3DB52F"/>
<path d="M67 32.5387C67 33.091 66.5523 33.5387 66 33.5387C65.4477 33.5387 65 33.091 65 32.5387C65 31.9864 65.4477 31.5387 66 31.5387C66.5523 31.5387 67 31.9864 67 32.5387Z" fill="#3DB52F"/>
<path d="M59 38.5387C59 39.091 58.5523 39.5387 58 39.5387C57.4477 39.5387 57 39.091 57 38.5387C57 37.9864 57.4477 37.5387 58 37.5387C58.5523 37.5387 59 37.9864 59 38.5387Z" fill="#3DB52F"/>
<path d="M64 43.5387C64 44.091 63.5523 44.5387 63 44.5387C62.4477 44.5387 62 44.091 62 43.5387C62 42.9864 62.4477 42.5387 63 42.5387C63.5523 42.5387 64 42.9864 64 43.5387Z" fill="#3DB52F"/>
<path d="M66 37.5387C66 38.091 65.5523 38.5387 65 38.5387C64.4477 38.5387 64 38.091 64 37.5387C64 36.9864 64.4477 36.5387 65 36.5387C65.5523 36.5387 66 36.9864 66 37.5387Z" fill="#3DB52F"/>
<path d="M72 35.5387C72 36.091 71.5523 36.5387 71 36.5387C70.4477 36.5387 70 36.091 70 35.5387C70 34.9864 70.4477 34.5387 71 34.5387C71.5523 34.5387 72 34.9864 72 35.5387Z" fill="#3DB52F"/>
<path d="M77 37.5387C77 38.091 76.5523 38.5387 76 38.5387C75.4477 38.5387 75 38.091 75 37.5387C75 36.9864 75.4477 36.5387 76 36.5387C76.5523 36.5387 77 36.9864 77 37.5387Z" fill="#3DB52F"/>
<path d="M79 43.5387C79 44.091 78.5523 44.5387 78 44.5387C77.4477 44.5387 77 44.091 77 43.5387C77 42.9864 77.4477 42.5387 78 42.5387C78.5523 42.5387 79 42.9864 79 43.5387Z" fill="#3DB52F"/>
<path d="M72 47.5387C72 48.091 71.5523 48.5387 71 48.5387C70.4477 48.5387 70 48.091 70 47.5387C70 46.9864 70.4477 46.5387 71 46.5387C71.5523 46.5387 72 46.9864 72 47.5387Z" fill="#3DB52F"/>
<path d="M74 41.5387C74 42.091 73.5523 42.5387 73 42.5387C72.4477 42.5387 72 42.091 72 41.5387C72 40.9864 72.4477 40.5387 73 40.5387C73.5523 40.5387 74 40.9864 74 41.5387Z" fill="#3DB52F"/>
<path d="M69 42.5387C69 43.091 68.5523 43.5387 68 43.5387C67.4477 43.5387 67 43.091 67 42.5387C67 41.9864 67.4477 41.5387 68 41.5387C68.5523 41.5387 69 41.9864 69 42.5387Z" fill="#3DB52F"/>
<path d="M58 43.5387C58 44.091 57.5523 44.5387 57 44.5387C56.4477 44.5387 56 44.091 56 43.5387C56 42.9864 56.4477 42.5387 57 42.5387C57.5523 42.5387 58 42.9864 58 43.5387Z" fill="#3DB52F"/>
<path d="M55 31.5387C55 32.091 54.5523 32.5387 54 32.5387C53.4477 32.5387 53 32.091 53 31.5387C53 30.9864 53.4477 30.5387 54 30.5387C54.5523 30.5387 55 30.9864 55 31.5387Z" fill="#3DB52F"/>
<path d="M65.9722 30.7142C65.3322 31.5829 64.109 31.7683 63.2403 31.1283C62.3715 30.4882 62.1861 29.2651 62.8262 28.3964C63.4662 27.5276 64.6894 27.3422 65.5581 27.9823C66.4269 28.6223 66.6123 29.8454 65.9722 30.7142Z" fill="#1E7614"/>
<path d="M69.0733 37.1573C68.4332 38.0261 67.2101 38.2115 66.3414 37.5714C65.4726 36.9314 65.2872 35.7082 65.9273 34.8395C66.5673 33.9707 67.7904 33.7853 68.6592 34.4254C69.5279 35.0654 69.7133 36.2886 69.0733 37.1573Z" fill="#1E7614"/>
<path d="M71.401 29.5481C70.9209 30.1997 70.0036 30.3387 69.352 29.8587C68.7005 29.3787 68.5614 28.4613 69.0415 27.8098C69.5215 27.1582 70.4388 27.0192 71.0904 27.4992C71.742 27.9792 71.881 28.8966 71.401 29.5481Z" fill="#1E7614"/>
<path d="M79.2289 44.4568C78.7488 45.1084 77.8315 45.2474 77.1799 44.7674C76.5284 44.2874 76.3893 43.37 76.8693 42.7185C77.3494 42.0669 78.2667 41.9278 78.9183 42.4079C79.5698 42.8879 79.7089 43.8053 79.2289 44.4568Z" fill="#1E7614"/>
<path d="M65.3052 42.4295C64.6652 43.2983 63.4421 43.4837 62.5733 42.8436C61.7046 42.2036 61.5192 40.9805 62.1592 40.1117C62.7993 39.243 64.0224 39.0576 64.8911 39.6976C65.7599 40.3377 65.9453 41.5608 65.3052 42.4295Z" fill="#1E7614"/>
<path d="M63.2691 35.8726C62.629 36.7414 61.4059 36.9268 60.5372 36.2867C59.6684 35.6467 59.483 34.4236 60.1231 33.5548C60.7631 32.6861 61.9862 32.5007 62.855 33.1407C63.7237 33.7808 63.9091 35.0039 63.2691 35.8726Z" fill="#1E7614"/>
<path d="M58.3052 45.4295C57.6652 46.2983 56.4421 46.4837 55.5733 45.8436C54.7046 45.2036 54.5192 43.9805 55.1592 43.1117C55.7993 42.243 57.0224 42.0576 57.8911 42.6976C58.7599 43.3377 58.9453 44.5608 58.3052 45.4295Z" fill="#1E7614"/>
<path d="M57.1014 37.9753C56.4613 38.8441 55.2382 39.0294 54.3694 38.3894C53.5007 37.7494 53.3153 36.5262 53.9553 35.6575C54.5954 34.7887 55.8185 34.6033 56.6873 35.2434C57.556 35.8834 57.7414 37.1066 57.1014 37.9753Z" fill="#1E7614"/>
<path d="M75.305 47.4295C74.6649 48.2983 73.4418 48.4837 72.5731 47.8436C71.7043 47.2036 71.5189 45.9805 72.159 45.1117C72.799 44.243 74.0221 44.0576 74.8909 44.6976C75.7596 45.3377 75.945 46.5608 75.305 47.4295Z" fill="#1E7614"/>
<path d="M51.2289 43.4568C50.7488 44.1084 49.8315 44.2474 49.1799 43.7674C48.5284 43.2874 48.3893 42.37 48.8693 41.7185C49.3494 41.0669 50.2667 40.9278 50.9183 41.4079C51.5698 41.8879 51.7089 42.8053 51.2289 43.4568Z" fill="#1E7614"/>
</svg>
