<svg width="96" height="96" viewBox="0 0 96 96" fill="none" xmlns="http://www.w3.org/2000/svg">
<path d="M59.6956 40.8478C59.6956 52.3617 50.3617 61.6956 38.8478 61.6956C27.3339 61.6956 18 52.3617 18 40.8478C18 29.3339 27.3339 20 38.8478 20C50.3617 20 59.6956 29.3339 59.6956 40.8478Z" fill="#F5733C"/>
<path fill-rule="evenodd" clip-rule="evenodd" d="M61.6956 40.8478C61.6956 53.4663 51.4663 63.6956 38.8478 63.6956C26.2293 63.6956 16 53.4663 16 40.8478C16 28.2293 26.2293 18 38.8478 18C51.4663 18 61.6956 28.2293 61.6956 40.8478ZM38.8478 61.6956C50.3617 61.6956 59.6956 52.3617 59.6956 40.8478C59.6956 29.3339 50.3617 20 38.8478 20C27.3339 20 18 29.3339 18 40.8478C18 52.3617 27.3339 61.6956 38.8478 61.6956Z" fill="#BE4E1F"/>
<path fill-rule="evenodd" clip-rule="evenodd" d="M38.8478 61.6956C50.3617 61.6956 59.6956 52.3618 59.6956 40.8478C59.6956 29.3339 50.3617 20.0001 38.8478 20.0001C38.0199 20.0001 37.2032 20.0483 36.4005 20.1422C44.2609 21.1914 50.3241 27.9228 50.3241 36.0702C50.3241 44.9455 43.1292 52.1404 34.2539 52.1404C25.889 52.1404 19.0168 45.7492 18.2541 37.5836C18.0868 38.6471 18 39.7373 18 40.8478C18 52.3618 27.3339 61.6956 38.8478 61.6956Z" fill="#EC652C"/>
<path d="M35.7681 27.5254C37.2173 30.0124 35.3678 33.7908 31.6371 35.9645C27.9065 38.1382 23.7075 37.8842 22.2583 35.3971C20.8092 32.91 22.6587 29.1317 26.3893 26.958C30.1199 24.7842 34.319 25.0383 35.7681 27.5254Z" fill="#FFA782"/>
<path fill-rule="evenodd" clip-rule="evenodd" d="M28.7182 29.5493C29.308 30.4832 29.0289 31.7185 28.095 32.3082C27.5066 32.6798 27.0566 33.1262 26.7172 33.6497C26.1164 34.5766 24.878 34.8409 23.9511 34.24C23.0242 33.6392 22.7599 32.4007 23.3608 31.4739C24.03 30.4416 24.9053 29.5916 25.9593 28.9261C26.8932 28.3363 28.1284 28.6154 28.7182 29.5493Z" fill="white"/>
<path d="M75.5769 53.8845C75.5769 64.9225 66.6288 73.8706 55.5908 73.8706C44.5528 73.8706 35.6048 64.9225 35.6048 53.8845C35.6048 42.8465 44.5528 33.8985 55.5908 33.8985C66.6288 33.8985 75.5769 42.8465 75.5769 53.8845Z" fill="#FFE9B0"/>
<path fill-rule="evenodd" clip-rule="evenodd" d="M77.5769 53.8845C77.5769 66.0271 67.7334 75.8706 55.5908 75.8706C43.4483 75.8706 33.6048 66.0271 33.6048 53.8845C33.6048 41.742 43.4483 31.8985 55.5908 31.8985C67.7334 31.8985 77.5769 41.742 77.5769 53.8845ZM55.5908 73.8706C66.6288 73.8706 75.5769 64.9225 75.5769 53.8845C75.5769 42.8465 66.6288 33.8985 55.5908 33.8985C44.5528 33.8985 35.6048 42.8465 35.6048 53.8845C35.6048 64.9225 44.5528 73.8706 55.5908 73.8706Z" fill="#C25938"/>
<path d="M69.7214 57.9065C69.2431 58.6017 68.2918 58.7774 67.5967 58.2991C66.9016 57.8208 66.7258 56.8695 67.2041 56.1744C67.6825 55.4793 68.6337 55.3035 69.3288 55.7819C70.024 56.2602 70.1997 57.2114 69.7214 57.9065Z" fill="#E4C77B"/>
<path d="M71.4392 61.8599C70.9609 62.555 70.0097 62.7307 69.3145 62.2524C68.6194 61.7741 68.4437 60.8228 68.922 60.1277C69.4003 59.4326 70.3516 59.2568 71.0467 59.7352C71.7418 60.2135 71.9176 61.1647 71.4392 61.8599Z" fill="#E4C77B"/>
<path d="M73.024 54.7923C72.6653 55.3137 71.9518 55.4455 71.4305 55.0867C70.9092 54.728 70.7774 54.0146 71.1361 53.4932C71.4948 52.9719 72.2083 52.8401 72.7296 53.1988C73.251 53.5576 73.3828 54.271 73.024 54.7923Z" fill="#E4C77B"/>
<path d="M72.9279 51.1251C72.692 51.4679 72.2228 51.5546 71.88 51.3187C71.5372 51.0828 71.4505 50.6137 71.6864 50.2709C71.9223 49.928 72.3915 49.8414 72.7343 50.0773C73.0771 50.3132 73.1638 50.7823 72.9279 51.1251Z" fill="#E4C77B"/>
<path d="M53.025 70.583C52.7891 70.9258 52.32 71.0125 51.9772 70.7766C51.6344 70.5407 51.5477 70.0716 51.7836 69.7287C52.0195 69.3859 52.4886 69.2993 52.8314 69.5352C53.1742 69.771 53.2609 70.2402 53.025 70.583Z" fill="#E4C77B"/>
<path d="M57.6578 65.9502C57.4219 66.293 56.9528 66.3797 56.61 66.1438C56.2672 65.9079 56.1805 65.4387 56.4164 65.0959C56.6523 64.7531 57.1214 64.6664 57.4642 64.9023C57.807 65.1382 57.8937 65.6074 57.6578 65.9502Z" fill="#E4C77B"/>
<path d="M68.7766 64.097C68.5407 64.4398 68.0716 64.5265 67.7288 64.2906C67.386 64.0547 67.2993 63.5856 67.5352 63.2428C67.7711 62.9 68.2402 62.8133 68.583 63.0492C68.9258 63.2851 69.0125 63.7542 68.7766 64.097Z" fill="#E4C77B"/>
<path d="M72.4829 57.6111C72.247 57.9539 71.7779 58.0406 71.4351 57.8047C71.0922 57.5688 71.0056 57.0996 71.2415 56.7568C71.4774 56.414 71.9465 56.3273 72.2893 56.5632C72.6321 56.7991 72.7188 57.2683 72.4829 57.6111Z" fill="#E4C77B"/>
<path d="M66.7905 66.8657C66.3121 67.5608 65.3609 67.7366 64.6658 67.2583C63.9706 66.7799 63.7949 65.8287 64.2732 65.1336C64.7515 64.4384 65.7028 64.2627 66.3979 64.741C67.093 65.2193 67.2688 66.1706 66.7905 66.8657Z" fill="#E4C77B"/>
<path d="M65.9992 61.9859C65.5208 62.681 64.5696 62.8568 63.8745 62.3784C63.1794 61.9001 63.0036 60.9489 63.4819 60.2537C63.9603 59.5586 64.9115 59.3829 65.6066 59.8612C66.3017 60.3395 66.4775 61.2908 65.9992 61.9859Z" fill="#E4C77B"/>
<path d="M61.9431 69.0634C61.4647 69.7585 60.5135 69.9343 59.8184 69.456C59.1232 68.9776 58.9475 68.0264 59.4258 67.3313C59.9041 66.6361 60.8554 66.4604 61.5505 66.9387C62.2456 67.417 62.4214 68.3683 61.9431 69.0634Z" fill="#E4C77B"/>
<path d="M61.271 63.5478C60.7927 64.2429 59.8414 64.4186 59.1463 63.9403C58.4512 63.462 58.2754 62.5107 58.7537 61.8156C59.2321 61.1205 60.1833 60.9448 60.8784 61.4231C61.5735 61.9014 61.7493 62.8527 61.271 63.5478Z" fill="#E4C77B"/>
<path d="M57.7167 69.8135C57.3579 70.3348 56.6445 70.4666 56.1231 70.1079C55.6018 69.7491 55.47 69.0357 55.8287 68.5143C56.1875 67.993 56.9009 67.8612 57.4223 68.2199C57.9436 68.5787 58.0754 69.2921 57.7167 69.8135Z" fill="#E4C77B"/>
<path fill-rule="evenodd" clip-rule="evenodd" d="M55.5908 73.8706C66.6288 73.8706 75.5769 64.9225 75.5769 53.8845C75.5769 42.8465 66.6288 33.8985 55.5908 33.8985C44.5528 33.8985 35.6048 42.8465 35.6048 53.8845C35.6048 64.9225 44.5528 73.8706 55.5908 73.8706ZM55.526 72.8143C66.0165 72.8143 74.5207 64.3101 74.5207 53.8197C74.5207 43.3292 66.0165 34.825 55.526 34.825C45.0356 34.825 36.5314 43.3292 36.5314 53.8197C36.5314 64.3101 45.0356 72.8143 55.526 72.8143Z" fill="#FFF9E9"/>
<path d="M59.6956 53.3564C59.6956 55.4033 58.0362 57.0627 55.9893 57.0627C53.9424 57.0627 52.283 55.4033 52.283 53.3564C52.283 51.3095 53.9424 49.6501 55.9893 49.6501C58.0362 49.6501 59.6956 51.3095 59.6956 53.3564Z" fill="#FFF9E9"/>
<path d="M46.176 41.0767C48.4759 43.932 54.4335 51.4987 53.637 52.2931C52.8432 53.0848 44.7003 47.7887 41.5816 45.7114C40.8588 45.2299 40.5175 44.3175 40.9519 43.5654C41.7483 42.1865 42.9879 41.1982 44.0347 40.5909C44.761 40.1695 45.6493 40.4227 46.176 41.0767Z" fill="#F1723D"/>
<path d="M64.4342 67.4284C62.2079 64.4658 56.6638 56.9064 57.453 56.1193C58.2449 55.3295 66.0502 60.7222 69.0686 62.8586C69.7781 63.3607 70.0904 64.2814 69.641 65.0254C68.8474 66.339 67.6671 67.3133 66.6575 67.9368C65.9052 68.4013 64.9654 68.1352 64.4342 67.4284Z" fill="#F1723D"/>
<path d="M41.6067 62.658C44.6474 60.4468 53.0021 54.4994 53.7585 55.3454C54.5126 56.1889 48.3278 64.4717 46.0016 67.5228C45.4875 68.1971 44.583 68.4892 43.8637 68.0401C42.4762 67.1737 41.5439 65.8405 41.002 64.7333C40.6401 63.9938 40.9409 63.1422 41.6067 62.658Z" fill="#F1723D"/>
<path d="M69.848 44.951C66.7433 47.0409 58.7221 52.3097 57.9767 51.4759C57.2287 50.6393 63.2022 42.983 65.5305 40.0654C66.0682 39.3915 66.9961 39.1287 67.7118 39.6093C68.9985 40.4733 69.9124 41.7194 70.478 42.7717C70.8936 43.5449 70.5762 44.4608 69.848 44.951Z" fill="#F1723D"/>
<path d="M39.5331 51.2757C43.2351 51.6888 53.1666 52.9026 53.1571 54.0334C53.1477 55.1608 43.251 57.1199 39.5129 57.8198C38.6716 57.9773 37.7977 57.5783 37.572 56.7526C37.1453 55.1912 37.345 53.5929 37.679 52.4155C37.9055 51.6173 38.7086 51.1836 39.5331 51.2757Z" fill="#F1723D"/>
<path d="M71.9527 57.2479C68.1192 56.7194 57.8333 55.1958 57.8428 54.0649C57.8523 52.9296 68.2465 51.2627 72.0527 50.6903C72.8808 50.5658 73.7208 50.9736 73.9408 51.7817C74.3619 53.329 74.1785 54.9157 73.859 56.0958C73.6353 56.9219 72.8004 57.3648 71.9527 57.2479Z" fill="#F1723D"/>
<path d="M57.4457 37.725C57.2537 41.2721 56.6545 50.4853 55.6084 50.5364C54.5655 50.5872 52.2391 41.5732 51.371 38.0541C51.1664 37.2248 51.5148 36.3327 52.3283 36.0724C53.6975 35.6342 55.12 35.7201 56.2026 35.9509C57.0127 36.1237 57.4905 36.8979 57.4457 37.725Z" fill="#F1723D"/>
<path d="M52.5105 69.6419C53.072 65.9866 54.5633 57.0627 55.7422 57.0627C56.9245 57.0627 58.7355 66.0388 59.4204 69.6739C59.5878 70.5626 59.1282 71.4659 58.2467 71.6678C56.6465 72.0342 55.0085 71.8898 53.7719 71.6206C52.8775 71.4258 52.3716 70.5467 52.5105 69.6419Z" fill="#F1723D"/>
</svg>
