<svg width="96" height="96" viewBox="0 0 96 96" fill="none" xmlns="http://www.w3.org/2000/svg">
<path d="M51 41.3229C51 49.4288 43.165 56 33.5 56C23.835 56 16 49.4288 16 41.3229C16 35.5605 20.6927 31.2974 26.3571 29.314C28.6608 28.5073 33.5 29.5097 33.5 29.5097C33.5 29.5097 38.5951 28.553 41 29.4424C46.5032 31.4778 51 35.682 51 41.3229Z" fill="#EE6412"/>
<path fill-rule="evenodd" clip-rule="evenodd" d="M33.5 29.5097C33.5 29.5097 28.6608 28.5073 26.3571 29.314C20.6927 31.2973 16 35.5605 16 41.3229C16 49.4288 23.835 56 33.5 56C43.165 56 51 49.4288 51 41.3229C51 35.682 46.5032 31.4778 41 29.4424C38.5951 28.553 33.5 29.5097 33.5 29.5097ZM33.5185 27.4768C33.6603 27.4535 33.8371 27.4256 34.0426 27.3954C34.5881 27.3151 35.3447 27.2175 36.1861 27.1491C37.0227 27.0811 37.9737 27.0394 38.9002 27.0796C39.8001 27.1186 40.8084 27.2392 41.6938 27.5666C47.567 29.7388 53 34.4757 53 41.3229C53 50.8486 43.9255 58 33.5 58C23.0745 58 14 50.8486 14 41.3229C14 34.3273 19.6642 29.5384 25.6962 27.4263C26.5589 27.1242 27.5332 27.0264 28.395 27.0049C29.2836 26.9826 30.1932 27.0394 30.9914 27.1192C31.7945 27.1995 32.5159 27.3063 33.0357 27.3927C33.2235 27.4239 33.3863 27.4527 33.5185 27.4768Z" fill="#A1420A"/>
<path d="M30.2067 33.4132C31.0229 35.2237 29.2828 37.7741 26.3201 39.1097C23.3574 40.4453 20.2941 40.0603 19.4779 38.2498C18.6617 36.4393 20.4017 33.8888 23.3644 32.5532C26.3271 31.2176 29.3905 31.6026 30.2067 33.4132Z" fill="#FF9E64"/>
<path fill-rule="evenodd" clip-rule="evenodd" d="M26.5 51C36.165 51 44 44.4288 44 36.3229C44 33.7989 43.0997 31.5625 41.6117 29.6793C46.8326 31.7936 51 35.8925 51 41.3229C51 49.4288 43.165 56 33.5 56C27.5006 56 22.2063 53.4681 19.0534 49.6088C21.313 50.5011 23.837 51 26.5 51Z" fill="#C04E0A"/>
<path d="M80 42.3229C80 50.4288 72.165 57 62.5 57C52.835 57 45 50.4288 45 42.3229C45 36.5605 49.6927 32.2974 55.3571 30.314C57.6608 29.5073 62.5 30.5097 62.5 30.5097C62.5 30.5097 67.5951 29.553 70 30.4424C75.5032 32.4778 80 36.682 80 42.3229Z" fill="#EE6412"/>
<path fill-rule="evenodd" clip-rule="evenodd" d="M62.5 30.5097C62.5 30.5097 57.6608 29.5073 55.3571 30.314C49.6927 32.2973 45 36.5605 45 42.3229C45 50.4288 52.835 57 62.5 57C72.165 57 80 50.4288 80 42.3229C80 36.682 75.5032 32.4778 70 30.4424C67.5951 29.553 62.5 30.5097 62.5 30.5097ZM62.5185 28.4768C62.6603 28.4535 62.8371 28.4256 63.0426 28.3954C63.5881 28.3151 64.3447 28.2175 65.1861 28.1491C66.0227 28.0811 66.9737 28.0394 67.9002 28.0796C68.8001 28.1186 69.8084 28.2392 70.6938 28.5666C76.567 30.7388 82 35.4757 82 42.3229C82 51.8486 72.9255 59 62.5 59C52.0745 59 43 51.8486 43 42.3229C43 35.3273 48.6642 30.5384 54.6962 28.4263C55.5589 28.1242 56.5332 28.0264 57.395 28.0049C58.2836 27.9826 59.1932 28.0394 59.9914 28.1192C60.7945 28.1995 61.5159 28.3063 62.0357 28.3927C62.2235 28.4239 62.3863 28.4527 62.5185 28.4768Z" fill="#A1420A"/>
<path d="M59.6403 32.6279C60.3394 34.1787 58.8489 36.3633 56.3113 37.5073C53.7736 38.6513 51.1497 38.3215 50.4506 36.7707C49.7515 35.2199 51.2419 33.0354 53.7796 31.8914C56.3172 30.7474 58.9412 31.0772 59.6403 32.6279Z" fill="#FF9E64"/>
<path fill-rule="evenodd" clip-rule="evenodd" d="M58.5 54C68.165 54 76 47.4288 76 39.3229C76 36.3399 74.7425 33.7587 72.7436 31.6875C76.9225 33.9731 80 37.6564 80 42.3229C80 50.4288 72.165 57 62.5 57C57.0517 57 52.185 54.9119 48.9754 51.6378C51.7164 53.132 54.9873 54 58.5 54Z" fill="#CF560E"/>
<path d="M70 55.6921C70 64.6987 61.2696 72 50.5 72C39.7304 72 31 64.6987 31 55.6921C31 49.2894 36.229 44.5526 42.5408 42.3488C45.1077 41.4526 50.5 42.5663 50.5 42.5663C50.5 42.5663 56.1774 41.5033 58.8571 42.4916C64.9893 44.7531 70 49.4245 70 55.6921Z" fill="#FF6B13"/>
<path fill-rule="evenodd" clip-rule="evenodd" d="M50.5 42.5663C50.5 42.5663 45.1077 41.4526 42.5408 42.3488C36.229 44.5526 31 49.2894 31 55.6921C31 64.6987 39.7304 72 50.5 72C61.2696 72 70 64.6987 70 55.6921C70 49.4245 64.9893 44.7531 58.8571 42.4916C56.1774 41.5033 50.5 42.5663 50.5 42.5663ZM50.5185 40.5333C50.6814 40.5064 50.8913 40.4731 51.1387 40.4368C51.743 40.3482 52.5809 40.2404 53.5121 40.1649C54.4385 40.0898 55.4878 40.0441 56.5073 40.0882C57.5001 40.1312 58.5957 40.2635 59.5492 40.6151C66.0486 43.0121 72 48.2148 72 55.6921C72 66.1232 62.0244 74 50.5 74C38.9756 74 29 66.1232 29 55.6921C29 48.0529 35.2051 42.7917 41.8815 40.4606C42.8095 40.1366 43.8671 40.029 44.8175 40.0053C45.7946 39.9809 46.7977 40.0432 47.6814 40.1313C48.5699 40.2199 49.3685 40.3378 49.9443 40.4332C50.1716 40.4708 50.3657 40.5052 50.5185 40.5333Z" fill="#A2420A"/>
<path fill-rule="evenodd" clip-rule="evenodd" d="M46.5 69C57.2695 69 66 61.6987 66 52.6921C66 49.2931 64.5263 46.3635 62.1993 44.0332C66.71 46.5828 70 50.6134 70 55.6921C70 64.6987 61.2695 72 50.5 72C44.5293 72 39.1854 69.7558 35.6084 66.2211C38.7184 67.9756 42.4662 69 46.5 69Z" fill="#E36012"/>
<path d="M60.8653 63.1115C60.7751 64.4267 59.6358 65.4198 58.3206 65.3296C57.0054 65.2394 56.0124 64.1001 56.1025 62.7849C56.1927 61.4697 57.332 60.4767 58.6472 60.5669C59.9624 60.657 60.9555 61.7963 60.8653 63.1115Z" fill="#B34A0C"/>
<path d="M66.0091 57.8814C65.949 58.7582 65.1895 59.4203 64.3127 59.3602C63.4359 59.3 62.7738 58.5405 62.8339 57.6637C62.8941 56.7869 63.6536 56.1249 64.5304 56.185C65.4072 56.2451 66.0692 57.0046 66.0091 57.8814Z" fill="#B34A0C"/>
<path d="M67.8688 54.0214C67.8388 54.4598 67.459 54.7909 67.0206 54.7608C66.5822 54.7307 66.2512 54.351 66.2813 53.9126C66.3113 53.4742 66.6911 53.1431 67.1295 53.1732C67.5679 53.2033 67.8989 53.583 67.8688 54.0214Z" fill="#B34A0C"/>
<path d="M65.0499 62.2717C65.0022 62.9676 64.3994 63.4931 63.7035 63.4454C63.0075 63.3977 62.4821 62.7948 62.5298 62.0989C62.5775 61.403 63.1804 60.8776 63.8763 60.9253C64.5722 60.973 65.0976 61.5758 65.0499 62.2717Z" fill="#B34A0C"/>
<path d="M55.5498 67.5886C55.4952 68.3852 54.8052 68.9866 54.0086 68.932C53.212 68.8774 52.6106 68.1874 52.6652 67.3908C52.7198 66.5942 53.4098 65.9928 54.2064 66.0474C55.003 66.102 55.6044 66.792 55.5498 67.5886Z" fill="#B34A0C"/>
<path d="M51.8201 48.2794C52.6718 51.1951 49.4943 54.6885 44.7232 56.0822C39.952 57.4758 35.3937 56.2419 34.5421 53.3261C33.6904 50.4104 36.8678 46.917 41.639 45.5234C46.4102 44.1297 50.9684 45.3636 51.8201 48.2794Z" fill="#FF9E64"/>
<path fill-rule="evenodd" clip-rule="evenodd" d="M43.3024 47.2558C43.7134 47.9751 43.4635 48.8914 42.7442 49.3024C41.5876 49.9633 40.8357 50.4507 40.2481 51.3321C39.7886 52.0214 38.8572 52.2076 38.168 51.7481C37.4787 51.2886 37.2924 50.3573 37.7519 49.668C38.7644 48.1493 40.0791 47.37 41.2558 46.6976C41.9751 46.2866 42.8914 46.5365 43.3024 47.2558Z" fill="white"/>
<path d="M50.0318 40.8955C49.2617 41.2341 47.0239 41.4413 44.2343 39.5606C45.4929 39.3706 48.4144 39.3716 50.0318 40.8955Z" fill="#0B7243"/>
<path fill-rule="evenodd" clip-rule="evenodd" d="M52.0028 41.2352C51.8888 41.8963 51.451 42.4563 50.8369 42.7263C49.3056 43.3997 46.3431 43.3944 43.1163 41.219C42.4328 40.7581 42.102 39.9251 42.2833 39.1209C42.4645 38.3167 43.1206 37.7061 43.9358 37.583C44.7453 37.4608 45.994 37.4081 47.3014 37.6084C48.5829 37.8047 50.1759 38.2834 51.4034 39.4398C51.8916 39.8999 52.1167 40.5741 52.0028 41.2352ZM50.0318 40.8955C49.2617 41.2342 47.0239 41.4413 44.2343 39.5606C45.4929 39.3706 48.4144 39.3716 50.0318 40.8955Z" fill="#01562E"/>
<path fill-rule="evenodd" clip-rule="evenodd" d="M53.2071 35.2929C53.5976 35.6834 53.5976 36.3166 53.2071 36.7071C52.5704 37.3438 52.1344 38.2511 51.86 39.1924C51.5874 40.1275 51.5 41.0081 51.5 41.5C51.5 42.0523 51.0523 42.5 50.5 42.5C49.9477 42.5 49.5 42.0523 49.5 41.5C49.5 40.8252 49.6126 39.7558 49.94 38.6326C50.2656 37.5156 50.8296 36.2562 51.7929 35.2929C52.1834 34.9024 52.8166 34.9024 53.2071 35.2929Z" fill="#1B411D"/>
<path d="M53 41.3118C53.9677 40.4804 57.1226 39.1917 62 40.6882C60.2581 41.5196 56.0194 42.8083 53 41.3118Z" fill="#189D60"/>
<path fill-rule="evenodd" clip-rule="evenodd" d="M51.0156 41.5607C50.9321 40.8951 51.1879 40.2319 51.6967 39.7947C53.2951 38.4215 57.2053 37.125 62.5867 38.7762C63.3748 39.018 63.9338 39.7186 63.9946 40.5407C64.0554 41.3629 63.6055 42.1381 62.8615 42.4931C61.826 42.9874 60.1377 43.5819 58.265 43.8524C56.4183 44.1192 54.1369 44.1075 52.1118 43.1037C51.5108 42.8058 51.0991 42.2264 51.0156 41.5607ZM53 41.3118C53.9678 40.4803 57.1226 39.1917 62 40.6882C60.2581 41.5196 56.0194 42.8083 53 41.3118Z" fill="#01562E"/>
<path fill-rule="evenodd" clip-rule="evenodd" d="M65.1049 23.2929C65.4955 23.6834 65.4955 24.3166 65.1049 24.7071C64.4682 25.3438 64.0322 26.2511 63.7579 27.1924C63.4853 28.1275 63.3978 29.0081 63.3978 29.5C63.3978 30.0523 62.9501 30.5 62.3978 30.5C61.8455 30.5 61.3978 30.0523 61.3978 29.5C61.3978 28.8252 61.5104 27.7558 61.8378 26.6326C62.1634 25.5156 62.7274 24.2562 63.6907 23.2929C64.0812 22.9024 64.7144 22.9024 65.1049 23.2929Z" fill="#1B411D"/>
<path fill-rule="evenodd" clip-rule="evenodd" d="M31.4453 24.1679C31.9048 23.8616 32.5257 23.9858 32.832 24.4453C33.3817 25.2697 33.691 25.9638 33.8494 26.6501C34.0002 27.3036 34.0001 27.9022 34 28.4587C34 28.4725 34 28.4862 34 28.5C34 29.0523 33.5523 29.5 33 29.5C32.4477 29.5 32 29.0523 32 28.5C32 27.9014 31.996 27.5135 31.9006 27.0998C31.809 26.7029 31.6183 26.2303 31.1679 25.5547C30.8616 25.0952 30.9858 24.4743 31.4453 24.1679Z" fill="#1B411D"/>
<path d="M62.207 29.4268C62.8182 28.6362 65.035 27.1497 69.0128 27.528C67.8077 28.4407 64.7594 30.0983 62.207 29.4268Z" fill="#189D60"/>
<path fill-rule="evenodd" clip-rule="evenodd" d="M60.3134 30.0705C60.0975 29.4353 60.2144 28.7342 60.6247 28.2035C61.7444 26.7551 64.6994 25.1088 69.2021 25.5369C70.0227 25.615 70.7115 26.1885 70.9367 26.9816C71.1619 27.7746 70.8775 28.6245 70.2203 29.1223C69.4725 29.6887 68.2329 30.4334 66.7941 30.9527C65.38 31.463 63.5307 31.843 61.6981 31.3609C61.0494 31.1902 60.5294 30.7057 60.3134 30.0705ZM62.207 29.4267C62.8182 28.6362 65.0349 27.1497 69.0128 27.5279C67.8077 28.4407 64.7594 30.0982 62.207 29.4267Z" fill="#01562E"/>
</svg>
