<svg width="96" height="96" viewBox="0 0 96 96" fill="none" xmlns="http://www.w3.org/2000/svg">
<path d="M47.3508 15.7475C47.3508 15.7475 50.0898 20.187 50.2958 23.7376C50.5441 28.017 47.5407 30.95 47.5407 30.95C47.5407 30.95 45.1232 27.8237 45.0667 23.301C45.0233 19.822 47.3508 15.7475 47.3508 15.7475Z" fill="#54A008"/>
<path fill-rule="evenodd" clip-rule="evenodd" d="M49.053 14.6974L47.3508 15.7475L45.6142 14.7555C45.9643 14.1427 46.6114 13.7597 47.3171 13.7478C48.0227 13.7359 48.6824 14.0967 49.053 14.6974ZM46.2976 17.9594C46.8376 16.646 47.3508 15.7475 47.3508 15.7475C47.3508 15.7475 47.8886 16.6191 48.5055 17.8988C49.2808 19.5072 50.1811 21.7602 50.2958 23.7376C50.4309 26.0658 49.6036 27.9954 48.821 29.2711C48.1651 30.3403 47.5407 30.95 47.5407 30.95C47.5407 30.95 47.0307 30.2905 46.4738 29.1391C45.8181 27.7837 45.0973 25.7465 45.0667 23.301C45.0437 21.4557 45.6877 19.4429 46.2976 17.9594ZM47.5407 30.95C45.9586 32.1735 45.9581 32.1729 45.9577 32.1724L45.9568 32.1712L45.9548 32.1686L45.9502 32.1626L45.9383 32.147C45.9293 32.135 45.918 32.1199 45.9045 32.1017C45.8777 32.0654 45.8424 32.0167 45.7998 31.956C45.7147 31.8348 45.6003 31.6655 45.4665 31.4515C45.1992 31.0242 44.8513 30.4139 44.5038 29.6482C43.8116 28.1234 43.0995 25.9353 43.0669 23.326C43.0403 21.1946 43.7251 19.016 44.3334 17.4823C44.6468 16.692 44.961 16.0214 45.1979 15.5462C45.3167 15.3079 45.4171 15.1168 45.4894 14.9822C45.5256 14.9149 45.5549 14.8616 45.5761 14.8235L45.6016 14.7777L45.6096 14.7636L45.6134 14.7569L45.6142 14.7555C45.6144 14.7551 45.6142 14.7555 47.3508 15.7475C49.053 14.6974 49.0528 14.6971 49.053 14.6974L49.0576 14.705L49.0662 14.719L49.0948 14.7662C49.1187 14.8059 49.1522 14.8619 49.1939 14.9331C49.2774 15.0753 49.3941 15.2781 49.5336 15.5312C49.8118 16.0359 50.1844 16.7472 50.5649 17.5793C51.3014 19.1898 52.1673 21.4641 52.2925 23.6218C52.4456 26.2618 51.5942 28.4498 50.7507 29.9358C50.3263 30.6836 49.8921 31.2752 49.5585 31.6859C49.391 31.8921 49.2471 32.0549 49.1398 32.1713C49.0861 32.2295 49.0414 32.2764 49.0072 32.3114C48.9902 32.3289 48.9758 32.3435 48.9642 32.3551L48.9489 32.3703L48.9429 32.3762L48.9404 32.3787L48.9392 32.3798C48.9386 32.3804 48.9381 32.3809 47.5407 30.95ZM45.9586 32.1735L47.5407 30.95L48.9381 32.3809C48.5299 32.7795 47.9709 32.9848 47.4018 32.9452C46.8327 32.9056 46.3076 32.6248 45.9586 32.1735Z" fill="#156319"/>
<path d="M34.5619 23.2338C34.5619 23.2338 39.4926 23.3291 42.3053 25.0362C45.6954 27.0937 46.2108 31.1119 46.2108 31.1119C46.2108 31.1119 42.4602 31.4465 38.9947 29.1028C36.329 27.3 34.5619 23.2338 34.5619 23.2338Z" fill="#85DE2B"/>
<path fill-rule="evenodd" clip-rule="evenodd" d="M34.6006 21.2342L34.562 23.2338L32.7277 24.031C32.4563 23.4064 32.5213 22.6868 32.9002 22.121C33.279 21.5552 33.9198 21.2211 34.6006 21.2342ZM35.6629 25.3044C34.9599 24.1495 34.562 23.2338 34.562 23.2338C34.562 23.2338 35.5484 23.2529 36.8906 23.4267C38.5491 23.6415 40.7507 24.0926 42.3053 25.0361C44.1291 26.143 45.1209 27.8173 45.6481 29.1282C46.1008 30.2541 46.2109 31.1119 46.2109 31.1119C46.2109 31.1119 45.3883 31.1853 44.1576 31.0226C42.7605 30.8379 40.8373 30.3489 38.9947 29.1028C37.594 28.1555 36.4414 26.5833 35.6629 25.3044ZM46.2109 31.1119C46.3886 33.104 46.3879 33.1041 46.3871 33.1041L46.3856 33.1043L46.3824 33.1045L46.3748 33.1052L46.3554 33.1067C46.3407 33.1079 46.3222 33.1092 46.3003 33.1107C46.2563 33.1136 46.198 33.117 46.1265 33.12C45.9835 33.1259 45.7869 33.1305 45.5448 33.1274C45.0617 33.1211 44.3911 33.084 43.6005 32.9633C42.0276 32.7231 39.9192 32.1424 37.8743 30.7595C36.1908 29.6209 34.9033 27.8673 34.082 26.5511C33.6563 25.869 33.3232 25.2507 33.0955 24.8009C32.9812 24.5752 32.8924 24.39 32.8307 24.2578C32.7998 24.1916 32.7757 24.1386 32.7585 24.1003L32.7378 24.0541L32.7314 24.0395L32.7292 24.0345L32.7277 24.031C32.7275 24.0306 32.7277 24.031 34.562 23.2338C34.6006 21.2342 34.6002 21.2342 34.6006 21.2342L34.6041 21.2343L34.6094 21.2344L34.6255 21.2348L34.6785 21.2362C34.723 21.2376 34.7853 21.2397 34.8639 21.243C35.0208 21.2497 35.2431 21.2611 35.5166 21.2803C36.0619 21.3187 36.8197 21.3888 37.675 21.5169C39.3204 21.7632 41.5838 22.2587 43.343 23.3264C45.5029 24.6373 46.7061 26.5471 47.3614 28.0432C47.6919 28.7979 47.8959 29.4754 48.0187 29.971C48.0803 30.2199 48.1223 30.4262 48.1498 30.5773C48.1636 30.653 48.1738 30.7152 48.181 30.7623C48.1846 30.7859 48.1875 30.8057 48.1898 30.8216L48.1926 30.8425L48.1937 30.8508L48.1942 30.8543L48.1944 30.8559C48.1945 30.8567 48.1946 30.8574 46.2109 31.1119ZM46.3886 33.104L46.2109 31.1119L48.1946 30.8574C48.2638 31.3969 48.1103 31.9412 47.7696 32.365C47.4289 32.7889 46.9302 33.0557 46.3886 33.104Z" fill="#156319"/>
<path d="M62.8752 21.8657C62.8752 21.8657 61.6065 28.2643 58.6871 30.7159C55.1684 33.6708 49.7111 31.433 49.7111 31.433C49.7111 31.433 50.1356 26.2706 54.0518 23.4244C57.0644 21.235 62.8752 21.8657 62.8752 21.8657Z" fill="#63B710"/>
<path fill-rule="evenodd" clip-rule="evenodd" d="M64.8371 22.2547L62.8753 21.8657L63.0911 19.8774C63.6487 19.9379 64.1552 20.2298 64.4872 20.6818C64.8192 21.1339 64.9462 21.7046 64.8371 22.2547ZM60.8467 21.7817C62.0437 21.7754 62.8753 21.8657 62.8753 21.8657C62.8753 21.8657 62.7146 22.6759 62.3761 23.8302C61.7633 25.9197 60.5676 29.1367 58.6871 30.7159C55.1684 33.6708 49.7111 31.433 49.7111 31.433C49.7111 31.433 50.1356 26.2706 54.0518 23.4244C55.9248 22.0632 58.8794 21.7921 60.8467 21.7817ZM49.7111 31.433C47.7178 31.2691 47.7179 31.2684 47.7179 31.2676L47.718 31.2661L47.7183 31.2626L47.7191 31.2542L47.7211 31.2316C47.7228 31.2141 47.725 31.1916 47.7278 31.1643C47.7336 31.1098 47.742 31.0362 47.754 30.9453C47.7778 30.7638 47.8157 30.5124 47.8741 30.2065C47.9906 29.5968 48.1914 28.7575 48.5322 27.8156C49.2059 25.9533 50.4799 23.5479 52.876 21.8065C54.8665 20.3599 57.5628 19.9487 59.4667 19.828C60.4683 19.7645 61.3614 19.7761 62.0044 19.8031C62.3272 19.8167 62.5904 19.8344 62.7766 19.849C62.8699 19.8564 62.9441 19.863 62.9971 19.868L63.0607 19.8742L63.0801 19.8762L63.0891 19.8772L63.0911 19.8774C63.0915 19.8774 63.0911 19.8774 62.8753 21.8657C64.8371 22.2547 64.8371 22.2543 64.8371 22.2547L64.8367 22.2564L64.8363 22.2587L64.835 22.265L64.831 22.2846L64.8173 22.3507C64.8055 22.4064 64.7886 22.485 64.7664 22.584C64.7219 22.7817 64.6561 23.0617 64.568 23.4032C64.3925 24.0838 64.1256 25.0209 63.759 26.0453C63.0638 27.9878 61.8726 30.6524 59.9732 32.2475C57.611 34.2313 54.7098 34.3864 52.67 34.1715C51.6224 34.0611 50.7118 33.8451 50.0639 33.6579C49.7378 33.5638 49.4726 33.4753 49.2833 33.4081C49.1885 33.3745 49.1124 33.346 49.0567 33.3246C49.0288 33.3139 49.006 33.305 48.9886 33.2981L48.9664 33.2892L48.9583 33.2859L48.955 33.2846L48.9536 33.284C48.9529 33.2837 48.9523 33.2835 49.7111 31.433ZM47.7178 31.2691L49.7111 31.433L48.9523 33.2835C48.1458 32.9527 47.6464 32.1378 47.7178 31.2691Z" fill="#156319"/>
<path fill-rule="evenodd" clip-rule="evenodd" d="M61.9709 21.8036C60.0757 21.8891 57.6634 22.2532 56.0518 23.4244C52.1356 26.2706 51.711 31.4331 51.711 31.4331C51.711 31.4331 53.1412 32.0195 55.0093 32.1956C52.2676 32.4814 49.711 31.4331 49.711 31.4331C49.711 31.4331 50.1356 26.2706 54.0518 23.4244C56.333 21.7666 60.2186 21.7257 61.9709 21.8036Z" fill="#85DE2B"/>
<path d="M72 49.4016C72 53.8199 68.4183 57.4016 64 57.4016C59.5817 57.4016 56 53.8199 56 49.4016C56 44.9833 59.5817 41.4016 64 41.4016C68.4183 41.4016 72 44.9833 72 49.4016Z" fill="#763EB7"/>
<path fill-rule="evenodd" clip-rule="evenodd" d="M74 49.4016C74 54.9245 69.5228 59.4016 64 59.4016C58.4772 59.4016 54 54.9245 54 49.4016C54 43.8788 58.4772 39.4016 64 39.4016C69.5228 39.4016 74 43.8788 74 49.4016ZM64 57.4016C68.4183 57.4016 72 53.8199 72 49.4016C72 44.9833 68.4183 41.4016 64 41.4016C59.5817 41.4016 56 44.9833 56 49.4016C56 53.8199 59.5817 57.4016 64 57.4016Z" fill="#592893"/>
<path fill-rule="evenodd" clip-rule="evenodd" d="M62 55.4016C66.4183 55.4016 70 51.8199 70 47.4016C70 45.7033 69.4708 44.1286 68.5683 42.8334C70.6426 44.2788 72 46.6817 72 49.4016C72 53.8199 68.4183 57.4016 64 57.4016C61.2801 57.4016 58.8772 56.0442 57.4318 53.9699C58.727 54.8724 60.3017 55.4016 62 55.4016Z" fill="#6B32AC"/>
<path d="M64.6482 54.7243C64.2805 55.2718 63.5386 55.4175 62.9912 55.0498C62.4438 54.6821 62.2981 53.9402 62.6658 53.3928C63.0335 52.8454 63.7753 52.6997 64.3227 53.0674C64.8702 53.4351 65.0159 54.1769 64.6482 54.7243Z" fill="#572591"/>
<path d="M70.6482 50.7243C70.2805 51.2718 69.5386 51.4175 68.9912 51.0498C68.4438 50.6821 68.2981 49.9402 68.6658 49.3928C69.0335 48.8454 69.7753 48.6997 70.3227 49.0674C70.8702 49.4351 71.0159 50.1769 70.6482 50.7243Z" fill="#572591"/>
<path d="M66.852 51.622C66.5948 52.0049 66.076 52.1068 65.6932 51.8496C65.3104 51.5925 65.2085 51.0737 65.4656 50.6909C65.7228 50.308 66.2416 50.2061 66.6244 50.4633C67.0072 50.7204 67.1091 51.2392 66.852 51.622Z" fill="#572591"/>
<path d="M68.8519 53.026C68.5948 53.4088 68.076 53.5107 67.6932 53.2536C67.3103 52.9964 67.2084 52.4776 67.4656 52.0948C67.7227 51.712 68.2415 51.6101 68.6243 51.8672C69.0072 52.1243 69.1091 52.6431 68.8519 53.026Z" fill="#572591"/>
<path d="M70.8519 47.026C70.5948 47.4088 70.076 47.5107 69.6932 47.2536C69.3103 46.9964 69.2084 46.4776 69.4656 46.0948C69.7227 45.712 70.2415 45.6101 70.6243 45.8672C71.0072 46.1243 71.1091 46.6431 70.8519 47.026Z" fill="#572591"/>
<path d="M39 50.4016C39 54.8199 35.4183 58.4016 31 58.4016C26.5817 58.4016 23 54.8199 23 50.4016C23 45.9833 26.5817 42.4016 31 42.4016C35.4183 42.4016 39 45.9833 39 50.4016Z" fill="#925ECF"/>
<path fill-rule="evenodd" clip-rule="evenodd" d="M41 50.4016C41 55.9245 36.5228 60.4016 31 60.4016C25.4772 60.4016 21 55.9245 21 50.4016C21 44.8788 25.4772 40.4016 31 40.4016C36.5228 40.4016 41 44.8788 41 50.4016ZM31 58.4016C35.4183 58.4016 39 54.8199 39 50.4016C39 45.9833 35.4183 42.4016 31 42.4016C26.5817 42.4016 23 45.9833 23 50.4016C23 54.8199 26.5817 58.4016 31 58.4016Z" fill="#592893"/>
<path fill-rule="evenodd" clip-rule="evenodd" d="M29 56.4016C33.4183 56.4016 37 52.8199 37 48.4016C37 46.7033 36.4708 45.1286 35.5683 43.8334C37.6426 45.2788 39 47.6817 39 50.4016C39 54.8199 35.4183 58.4016 31 58.4016C28.2801 58.4016 25.8772 57.0442 24.4318 54.9699C25.727 55.8724 27.3017 56.4016 29 56.4016Z" fill="#824BC2"/>
<path d="M48 38.4016C48 42.8199 44.4183 46.4016 40 46.4016C35.5817 46.4016 32 42.8199 32 38.4016C32 33.9833 35.5817 30.4016 40 30.4016C44.4183 30.4016 48 33.9833 48 38.4016Z" fill="#925ECF"/>
<path fill-rule="evenodd" clip-rule="evenodd" d="M50 38.4016C50 43.9245 45.5228 48.4016 40 48.4016C34.4772 48.4016 30 43.9245 30 38.4016C30 32.8788 34.4772 28.4016 40 28.4016C45.5228 28.4016 50 32.8788 50 38.4016ZM40 46.4016C44.4183 46.4016 48 42.8199 48 38.4016C48 33.9833 44.4183 30.4016 40 30.4016C35.5817 30.4016 32 33.9833 32 38.4016C32 42.8199 35.5817 46.4016 40 46.4016Z" fill="#592893"/>
<path fill-rule="evenodd" clip-rule="evenodd" d="M38 44.4016C42.4183 44.4016 46 40.8199 46 36.4016C46 34.7033 45.4708 33.1286 44.5683 31.8334C46.6426 33.2788 48 35.6817 48 38.4016C48 42.8199 44.4183 46.4016 40 46.4016C37.2801 46.4016 34.8772 45.0442 33.4318 42.9699C34.727 43.8724 36.3017 44.4016 38 44.4016Z" fill="#824BC2"/>
<path d="M64 38.4016C64 42.8199 60.4183 46.4016 56 46.4016C51.5817 46.4016 48 42.8199 48 38.4016C48 33.9833 51.5817 30.4016 56 30.4016C60.4183 30.4016 64 33.9833 64 38.4016Z" fill="#925ECF"/>
<path fill-rule="evenodd" clip-rule="evenodd" d="M66 38.4016C66 43.9245 61.5228 48.4016 56 48.4016C50.4772 48.4016 46 43.9245 46 38.4016C46 32.8788 50.4772 28.4016 56 28.4016C61.5228 28.4016 66 32.8788 66 38.4016ZM56 46.4016C60.4183 46.4016 64 42.8199 64 38.4016C64 33.9833 60.4183 30.4016 56 30.4016C51.5817 30.4016 48 33.9833 48 38.4016C48 42.8199 51.5817 46.4016 56 46.4016Z" fill="#592893"/>
<path fill-rule="evenodd" clip-rule="evenodd" d="M54 44.4016C58.4183 44.4016 62 40.8199 62 36.4016C62 34.7033 61.4708 33.1286 60.5683 31.8334C62.6426 33.2788 64 35.6817 64 38.4016C64 42.8199 60.4183 46.4016 56 46.4016C53.2801 46.4016 50.8772 45.0442 49.4318 42.9699C50.727 43.8724 52.3017 44.4016 54 44.4016Z" fill="#824BC2"/>
<path d="M56.6482 44.7243C56.2805 45.2718 55.5386 45.4175 54.9912 45.0498C54.4438 44.6821 54.2981 43.9402 54.6658 43.3928C55.0335 42.8454 55.7753 42.6997 56.3227 43.0674C56.8702 43.4351 57.0159 44.1769 56.6482 44.7243Z" fill="#6B32AC"/>
<path d="M62.6482 40.7243C62.2805 41.2718 61.5386 41.4175 60.9912 41.0498C60.4438 40.6821 60.2981 39.9402 60.6658 39.3928C61.0335 38.8454 61.7753 38.6997 62.3227 39.0674C62.8702 39.4351 63.0159 40.1769 62.6482 40.7243Z" fill="#6B32AC"/>
<path d="M58.852 41.622C58.5948 42.0049 58.076 42.1068 57.6932 41.8496C57.3104 41.5925 57.2085 41.0737 57.4656 40.6909C57.7228 40.308 58.2416 40.2061 58.6244 40.4633C59.0072 40.7204 59.1091 41.2392 58.852 41.622Z" fill="#6B32AC"/>
<path d="M60.8519 43.026C60.5948 43.4088 60.076 43.5107 59.6932 43.2536C59.3103 42.9964 59.2084 42.4776 59.4656 42.0948C59.7227 41.712 60.2415 41.6101 60.6243 41.8672C61.0072 42.1243 61.1091 42.6431 60.8519 43.026Z" fill="#6B32AC"/>
<path d="M62.8519 37.026C62.5948 37.4088 62.076 37.5107 61.6932 37.2536C61.3103 36.9964 61.2084 36.4776 61.4656 36.0948C61.7227 35.712 62.2415 35.6101 62.6243 35.8672C63.0072 36.1243 63.1091 36.6431 62.8519 37.026Z" fill="#6B32AC"/>
<path d="M56 73.4016C56 77.8199 52.4183 81.4016 48 81.4016C43.5817 81.4016 40 77.8199 40 73.4016C40 68.9833 43.5817 65.4016 48 65.4016C52.4183 65.4016 56 68.9833 56 73.4016Z" fill="#763EB7"/>
<path fill-rule="evenodd" clip-rule="evenodd" d="M58 73.4016C58 78.9245 53.5228 83.4016 48 83.4016C42.4772 83.4016 38 78.9245 38 73.4016C38 67.8788 42.4772 63.4016 48 63.4016C53.5228 63.4016 58 67.8788 58 73.4016ZM48 81.4016C52.4183 81.4016 56 77.8199 56 73.4016C56 68.9833 52.4183 65.4016 48 65.4016C43.5817 65.4016 40 68.9833 40 73.4016C40 77.8199 43.5817 81.4016 48 81.4016Z" fill="#592893"/>
<path fill-rule="evenodd" clip-rule="evenodd" d="M45 79.4018C49.4183 79.4018 53 75.8201 53 71.4018C53 69.277 52.1716 67.3456 50.8201 65.9131C53.8469 67.0535 56 69.9762 56 73.4018C56 77.8201 52.4183 81.4018 48 81.4018C45.7066 81.4018 43.6386 80.4368 42.1799 78.8906C43.0569 79.2211 44.0073 79.4018 45 79.4018Z" fill="#6B32AC"/>
<path d="M66 64.4016C66 68.8199 62.4183 72.4016 58 72.4016C53.5817 72.4016 50 68.8199 50 64.4016C50 59.9833 53.5817 56.4016 58 56.4016C62.4183 56.4016 66 59.9833 66 64.4016Z" fill="#925ECF"/>
<path fill-rule="evenodd" clip-rule="evenodd" d="M68 64.4016C68 69.9245 63.5228 74.4016 58 74.4016C52.4772 74.4016 48 69.9245 48 64.4016C48 58.8788 52.4772 54.4016 58 54.4016C63.5228 54.4016 68 58.8788 68 64.4016ZM58 72.4016C62.4183 72.4016 66 68.8199 66 64.4016C66 59.9833 62.4183 56.4016 58 56.4016C53.5817 56.4016 50 59.9833 50 64.4016C50 68.8199 53.5817 72.4016 58 72.4016Z" fill="#592893"/>
<path fill-rule="evenodd" clip-rule="evenodd" d="M56 70.4016C60.4183 70.4016 64 66.8199 64 62.4016C64 60.7033 63.4708 59.1286 62.5683 57.8334C64.6426 59.2788 66 61.6817 66 64.4016C66 68.8199 62.4183 72.4016 58 72.4016C55.2801 72.4016 52.8772 71.0442 51.4318 68.9699C52.727 69.8724 54.3017 70.4016 56 70.4016Z" fill="#824BC2"/>
<path d="M47 64.4016C47 68.8199 43.4183 72.4016 39 72.4016C34.5817 72.4016 31 68.8199 31 64.4016C31 59.9833 34.5817 56.4016 39 56.4016C43.4183 56.4016 47 59.9833 47 64.4016Z" fill="#925ECF"/>
<path fill-rule="evenodd" clip-rule="evenodd" d="M49 64.4016C49 69.9245 44.5228 74.4016 39 74.4016C33.4772 74.4016 29 69.9245 29 64.4016C29 58.8788 33.4772 54.4016 39 54.4016C44.5228 54.4016 49 58.8788 49 64.4016ZM39 72.4016C43.4183 72.4016 47 68.8199 47 64.4016C47 59.9833 43.4183 56.4016 39 56.4016C34.5817 56.4016 31 59.9833 31 64.4016C31 68.8199 34.5817 72.4016 39 72.4016Z" fill="#592893"/>
<path fill-rule="evenodd" clip-rule="evenodd" d="M37 70.4016C41.4183 70.4016 45 66.8199 45 62.4016C45 60.7033 44.4708 59.1286 43.5683 57.8334C45.6426 59.2788 47 61.6817 47 64.4016C47 68.8199 43.4183 72.4016 39 72.4016C36.2801 72.4016 33.8772 71.0442 32.4318 68.9699C33.727 69.8724 35.3017 70.4016 37 70.4016Z" fill="#824BC2"/>
<path d="M39.6482 70.7243C39.2805 71.2718 38.5386 71.4175 37.9912 71.0498C37.4438 70.6821 37.2981 69.9402 37.6658 69.3928C38.0335 68.8454 38.7753 68.6997 39.3227 69.0674C39.8702 69.4351 40.0159 70.1769 39.6482 70.7243Z" fill="#6B32AC"/>
<path d="M45.6482 66.7243C45.2805 67.2718 44.5386 67.4175 43.9912 67.0498C43.4438 66.6821 43.2981 65.9402 43.6658 65.3928C44.0335 64.8454 44.7753 64.6997 45.3227 65.0674C45.8702 65.4351 46.0159 66.1769 45.6482 66.7243Z" fill="#6B32AC"/>
<path d="M41.852 67.622C41.5948 68.0049 41.076 68.1068 40.6932 67.8496C40.3104 67.5925 40.2085 67.0737 40.4656 66.6909C40.7228 66.308 41.2416 66.2061 41.6244 66.4633C42.0072 66.7204 42.1091 67.2392 41.852 67.622Z" fill="#6B32AC"/>
<path d="M43.8519 69.026C43.5948 69.4088 43.076 69.5107 42.6932 69.2536C42.3103 68.9964 42.2084 68.4776 42.4656 68.0948C42.7227 67.712 43.2415 67.6101 43.6243 67.8672C44.0072 68.1243 44.1091 68.6431 43.8519 69.026Z" fill="#6B32AC"/>
<path d="M45.8519 63.026C45.5948 63.4088 45.076 63.5107 44.6932 63.2536C44.3103 62.9964 44.2084 62.4776 44.4656 62.0948C44.7227 61.712 45.2415 61.6101 45.6243 61.8672C46.0072 62.1243 46.1091 62.6431 45.8519 63.026Z" fill="#6B32AC"/>
<path d="M56 53.4016C56 57.8199 52.4183 61.4016 48 61.4016C43.5817 61.4016 40 57.8199 40 53.4016C40 48.9833 43.5817 45.4016 48 45.4016C52.4183 45.4016 56 48.9833 56 53.4016Z" fill="#925ECF"/>
<path fill-rule="evenodd" clip-rule="evenodd" d="M58 53.4016C58 58.9245 53.5228 63.4016 48 63.4016C42.4772 63.4016 38 58.9245 38 53.4016C38 47.8788 42.4772 43.4016 48 43.4016C53.5228 43.4016 58 47.8788 58 53.4016ZM48 61.4016C52.4183 61.4016 56 57.8199 56 53.4016C56 48.9833 52.4183 45.4016 48 45.4016C43.5817 45.4016 40 48.9833 40 53.4016C40 57.8199 43.5817 61.4016 48 61.4016Z" fill="#592893"/>
<path fill-rule="evenodd" clip-rule="evenodd" d="M46 59.4016C50.4183 59.4016 54 55.8199 54 51.4016C54 49.7033 53.4708 48.1286 52.5683 46.8334C54.6426 48.2788 56 50.6817 56 53.4016C56 57.8199 52.4183 61.4016 48 61.4016C45.2801 61.4016 42.8772 60.0442 41.4318 57.9699C42.727 58.8724 44.3017 59.4016 46 59.4016Z" fill="#824BC2"/>
<path d="M48 50.4016C48 52.0585 46.6569 53.4016 45 53.4016C43.3431 53.4016 42 52.0585 42 50.4016C42 48.7448 43.3431 47.4016 45 47.4016C46.6569 47.4016 48 48.7448 48 50.4016Z" fill="#D1AAFF"/>
<path fill-rule="evenodd" clip-rule="evenodd" d="M44.8424 49.8412C45.3496 49.6566 45.6204 49.1005 45.4487 48.5854C45.274 48.0615 44.7077 47.7783 44.1838 47.953C43.8838 48.0529 43.644 48.2285 43.4779 48.3725C43.3036 48.5236 43.1543 48.6893 43.0385 48.8309C42.9208 48.9747 42.8246 49.1096 42.758 49.208C42.7243 49.2577 42.6973 49.2995 42.6778 49.3302C42.6681 49.3455 42.6602 49.3582 42.6543 49.3678L42.6469 49.3799L42.6443 49.3841L42.6433 49.3858L42.6427 49.3868C42.6426 49.387 42.6425 49.3871 43.5 49.9016L42.6427 49.3868C42.3585 49.8604 42.5119 50.475 42.9855 50.7591C43.459 51.0432 44.0731 50.8898 44.3573 50.4164L44.3564 50.4179C44.3564 50.4179 44.3564 50.4179 44.3564 50.4179M44.3564 50.4179C44.3565 50.4178 44.3566 50.4176 44.3573 50.4164L44.3671 50.4008C44.3769 50.3853 44.3928 50.3607 44.4138 50.3297C44.4566 50.2666 44.5166 50.1827 44.5864 50.0974C44.6581 50.0098 44.7277 49.9359 44.7877 49.8839C44.8159 49.8594 44.8342 49.8466 44.8424 49.8412" fill="white"/>
<path d="M56 34.9016C56 36.2823 54.8807 37.4016 53.5 37.4016C52.1193 37.4016 51 36.2823 51 34.9016C51 33.5209 52.1193 32.4016 53.5 32.4016C54.8807 32.4016 56 33.5209 56 34.9016Z" fill="#D1AAFF"/>
<path d="M40 34.9016C40 36.2823 38.8807 37.4016 37.5 37.4016C36.1193 37.4016 35 36.2823 35 34.9016C35 33.5209 36.1193 32.4016 37.5 32.4016C38.8807 32.4016 40 33.5209 40 34.9016Z" fill="#D1AAFF"/>
<path d="M30 47.9016C30 49.2823 28.8807 50.4016 27.5 50.4016C26.1193 50.4016 25 49.2823 25 47.9016C25 46.5209 26.1193 45.4016 27.5 45.4016C28.8807 45.4016 30 46.5209 30 47.9016Z" fill="#D1AAFF"/>
<path d="M38 61.9016C38 63.2823 36.8807 64.4016 35.5 64.4016C34.1193 64.4016 33 63.2823 33 61.9016C33 60.5209 34.1193 59.4016 35.5 59.4016C36.8807 59.4016 38 60.5209 38 61.9016Z" fill="#D1AAFF"/>
<path d="M47.6482 59.7243C47.2805 60.2718 46.5386 60.4175 45.9912 60.0498C45.4438 59.6821 45.2981 58.9402 45.6658 58.3928C46.0335 57.8454 46.7753 57.6997 47.3227 58.0674C47.8702 58.4351 48.0159 59.1769 47.6482 59.7243Z" fill="#6B32AC"/>
<path d="M53.6482 55.7243C53.2805 56.2718 52.5386 56.4175 51.9912 56.0498C51.4438 55.6821 51.2981 54.9402 51.6658 54.3928C52.0335 53.8454 52.7753 53.6997 53.3227 54.0674C53.8702 54.4351 54.0159 55.1769 53.6482 55.7243Z" fill="#6B32AC"/>
<path d="M49.852 56.622C49.5948 57.0049 49.076 57.1068 48.6932 56.8496C48.3104 56.5925 48.2085 56.0737 48.4656 55.6909C48.7228 55.308 49.2416 55.2061 49.6244 55.4633C50.0072 55.7204 50.1091 56.2392 49.852 56.622Z" fill="#6B32AC"/>
<path d="M51.8519 58.026C51.5948 58.4088 51.076 58.5107 50.6932 58.2536C50.3103 57.9964 50.2084 57.4776 50.4656 57.0948C50.7227 56.712 51.2415 56.6101 51.6243 56.8672C52.0072 57.1243 52.1091 57.6431 51.8519 58.026Z" fill="#6B32AC"/>
<path d="M53.8519 52.026C53.5948 52.4088 53.076 52.5107 52.6932 52.2536C52.3103 51.9964 52.2084 51.4776 52.4656 51.0948C52.7227 50.712 53.2415 50.6101 53.6243 50.8672C54.0072 51.1243 54.1091 51.6431 53.8519 52.026Z" fill="#6B32AC"/>
<path d="M58.6482 70.7243C58.2805 71.2718 57.5386 71.4175 56.9912 71.0498C56.4438 70.6821 56.2981 69.9402 56.6658 69.3928C57.0335 68.8454 57.7753 68.6997 58.3227 69.0674C58.8702 69.4351 59.0159 70.1769 58.6482 70.7243Z" fill="#6B32AC"/>
<path d="M64.6482 66.7243C64.2805 67.2718 63.5386 67.4175 62.9912 67.0498C62.4438 66.6821 62.2981 65.9402 62.6658 65.3928C63.0335 64.8454 63.7753 64.6997 64.3227 65.0674C64.8702 65.4351 65.0159 66.1769 64.6482 66.7243Z" fill="#6B32AC"/>
<path d="M60.852 67.622C60.5948 68.0049 60.076 68.1068 59.6932 67.8496C59.3104 67.5925 59.2085 67.0737 59.4656 66.6909C59.7228 66.308 60.2416 66.2061 60.6244 66.4633C61.0072 66.7204 61.1091 67.2392 60.852 67.622Z" fill="#6B32AC"/>
<path d="M62.8519 69.026C62.5948 69.4088 62.076 69.5107 61.6932 69.2536C61.3103 68.9964 61.2084 68.4776 61.4656 68.0948C61.7227 67.712 62.2415 67.6101 62.6243 67.8672C63.0072 68.1243 63.1091 68.6431 62.8519 69.026Z" fill="#6B32AC"/>
<path d="M64.8519 63.026C64.5948 63.4088 64.076 63.5107 63.6932 63.2536C63.3103 62.9964 63.2084 62.4776 63.4656 62.0948C63.7227 61.712 64.2415 61.6101 64.6243 61.8672C65.0072 62.1243 65.1091 62.6431 64.8519 63.026Z" fill="#6B32AC"/>
</svg>
