<svg width="96" height="96" viewBox="0 0 96 96" fill="none" xmlns="http://www.w3.org/2000/svg">
<path d="M51.9227 45.7885C40.7658 57.6614 30.1145 78.654 19.0576 68.2639C8.00066 57.8737 28.7116 46.3341 39.8685 34.4612C51.0255 22.5883 59.7801 18.7215 63.1088 21.8494C66.4374 24.9774 63.0797 33.9157 51.9227 45.7885Z" fill="#4CAA1F"/>
<path fill-rule="evenodd" clip-rule="evenodd" d="M27.7805 72.7436C24.3074 73.6253 20.8838 72.7245 17.688 69.7214C14.4912 66.7174 13.3964 63.368 14.1167 59.8656C14.7911 56.5863 17.0049 53.4649 19.6579 50.5679C22.3427 47.6359 25.722 44.6803 29.0398 41.784L29.158 41.6808C32.4751 38.7852 35.7347 35.9397 38.4111 33.0916C44.0716 27.0679 49.2289 22.9562 53.5085 20.752C55.6444 19.6519 57.6683 18.9713 59.4947 18.8362C61.3489 18.6992 63.1298 19.1248 64.4783 20.392C65.828 21.6602 66.3606 23.4108 66.3339 25.2686C66.3077 27.0972 65.7474 29.1547 64.7769 31.3487C62.832 35.7451 59.0388 41.1364 53.3802 47.1581C50.8281 49.874 48.2929 53.0914 45.7063 56.3739C45.5398 56.5853 45.3731 56.7969 45.2061 57.0086C42.4778 60.4688 39.6834 63.9756 36.866 66.7899C34.0804 69.5724 31.0469 71.9144 27.7805 72.7436ZM44.1514 55.1157C46.7219 51.8533 49.3084 48.5706 51.9227 45.7885C63.0796 33.9157 66.4374 24.9774 63.1087 21.8494C59.7801 18.7215 51.0255 22.5884 39.8685 34.4612C37.1238 37.3821 33.8007 40.2829 30.5147 43.1513C20.4439 51.9424 10.7208 60.4299 19.0575 68.2639C27.5236 76.2195 35.7519 65.7763 44.1514 55.1157Z" fill="#2B710A"/>
<path fill-rule="evenodd" clip-rule="evenodd" d="M42.4824 46.892C44.7948 43.9042 47.1217 40.8977 49.4979 38.369C56.2841 31.1473 59.7866 25.0175 60.3637 20.8148C61.4943 20.8526 62.4183 21.2005 63.1088 21.8494C66.4375 24.9773 63.0797 33.9156 51.9228 45.7885C49.3085 48.5705 46.722 51.8533 44.1515 55.1157C35.752 65.7762 27.5237 76.2194 19.0576 68.2638C15.0711 64.5177 15.2142 60.6222 17.5502 56.6155C17.9714 57.1641 18.4719 57.7135 19.0576 58.2639C27.5237 66.2194 34.926 56.6552 42.4824 46.892Z" fill="#419C15"/>
<path d="M51.5001 26.5C52.9059 28.7892 44.6965 39.5 36 46.4999C30.6293 50.8228 21 58.5 20.6394 55.2014C19.5099 53.8914 30.6633 44.3097 35.5001 40.5001C46 32.2298 49.4059 24.7892 51.5001 26.5Z" fill="#5FCF2A"/>
<path fill-rule="evenodd" clip-rule="evenodd" d="M31.207 46.7928C31.5975 47.1834 31.5975 47.8165 31.207 48.207C29.6952 49.7188 28.4354 50.6964 26.9004 51.8875C26.3517 52.3132 25.7678 52.7663 25.1247 53.2808C24.6934 53.6258 24.0641 53.5559 23.7191 53.1246C23.3741 52.6934 23.444 52.0641 23.8753 51.7191C24.5726 51.1613 25.1847 50.6862 25.7458 50.2508C27.2427 49.0891 28.376 48.2096 29.7928 46.7928C30.1833 46.4023 30.8165 46.4023 31.207 46.7928Z" fill="#A0EA29"/>
<path d="M65.1038 57.4403C52.1321 67.2981 40.2965 86.7744 29.1964 72.1682C18.0964 57.5619 40.031 51.3745 53.0027 41.5167C65.9744 31.6588 72.8295 32.0725 76.1711 36.4697C79.5128 40.8669 78.0755 47.5824 65.1038 57.4403Z" fill="#58C923"/>
<path fill-rule="evenodd" clip-rule="evenodd" d="M37.6141 79.4146C33.9508 79.3201 30.6188 77.3453 27.6041 73.3783C24.5894 69.4114 23.579 65.6722 24.4691 62.1174C25.3271 58.6909 27.8488 55.8957 30.8182 53.5042C33.8097 51.0949 37.5516 48.8678 41.2307 46.6898C41.3202 46.6368 41.4097 46.5838 41.4991 46.5309C45.1423 44.3745 48.7351 42.2479 51.7926 39.9243C58.3739 34.9229 63.6507 32.3257 67.8932 31.671C70.0463 31.3387 71.9823 31.4996 73.68 32.149C75.3845 32.801 76.7307 33.9006 77.7635 35.2596C78.7964 36.6187 79.4952 38.2102 79.6669 40.027C79.8379 41.8367 79.4745 43.745 78.5777 45.7305C76.8108 49.6427 72.8953 54.0312 66.314 59.0327C63.2565 61.3562 60.2455 64.2482 57.1921 67.1808L56.9671 67.3969C53.8834 70.3583 50.7355 73.3672 47.6131 75.6041C44.5137 77.8246 41.1453 79.5056 37.6141 79.4146ZM55.8457 65.7009C58.8685 62.7974 61.9527 59.8351 65.1039 57.4403C78.0756 47.5825 79.5128 40.867 76.1712 36.4698C72.8295 32.0726 65.9744 31.6589 53.0027 41.5167C49.8515 43.9115 46.1714 46.0896 42.5644 48.2244C31.3235 54.8776 20.793 61.1102 29.1965 72.1682C37.6 83.2262 46.4251 74.7495 55.8457 65.7009Z" fill="#2B710A"/>
<path fill-rule="evenodd" clip-rule="evenodd" d="M53.8457 61.7009C56.8686 58.7974 59.9527 55.8351 63.1039 53.4403C73.1373 45.8155 76.2699 40.0706 75.6279 35.8243C75.8185 36.0284 75.9995 36.2438 76.1712 36.4698C79.5128 40.867 78.0756 47.5825 65.1039 57.4403C61.9527 59.8351 58.8686 62.7974 55.8457 65.7009C46.4252 74.7495 37.6 83.2262 29.1965 72.1682C27.8786 70.434 27.0264 68.8186 26.5696 67.3015C26.7656 67.5871 26.9744 67.876 27.1965 68.1682C35.6 79.2262 44.4252 70.7495 53.8457 61.7009Z" fill="#4CAA1F"/>
<path d="M62.0942 42.2108C63.5 44.5 45 57.5 45 57.5C45 57.5 29.769 66.5115 28.6394 65.2015C27.5098 63.8914 34.4574 56.9511 40 54.2702C54.5942 47.2108 60 40.5 62.0942 42.2108Z" fill="#79E645"/>
<path d="M45.7777 48.9584C45.7777 49.6718 45.1994 50.2501 44.486 50.2501C43.7726 50.2501 43.1943 49.6718 43.1943 48.9584C43.1943 48.245 43.7726 47.6667 44.486 47.6667C45.1994 47.6667 45.7777 48.245 45.7777 48.9584Z" fill="#47A21D"/>
<path d="M54.389 45.514C54.389 46.2273 53.8107 46.8056 53.0973 46.8056C52.384 46.8056 51.8057 46.2273 51.8057 45.514C51.8057 44.8006 52.384 44.2223 53.0973 44.2223C53.8107 44.2223 54.389 44.8006 54.389 45.514Z" fill="#47A21D"/>
<path d="M59.5555 40.3472C59.5555 41.0606 58.9772 41.6389 58.2638 41.6389C57.5505 41.6389 56.9722 41.0606 56.9722 40.3472C56.9722 39.6338 57.5505 39.0555 58.2638 39.0555C58.9772 39.0555 59.5555 39.6338 59.5555 40.3472Z" fill="#47A21D"/>
<path d="M38.0277 55.8472C38.0277 56.5606 37.4494 57.1389 36.736 57.1389C36.0226 57.1389 35.4443 56.5606 35.4443 55.8472C35.4443 55.1338 36.0226 54.5555 36.736 54.5555C37.4494 54.5555 38.0277 55.1338 38.0277 55.8472Z" fill="#47A21D"/>
<path d="M50.0833 45.9445C50.0833 46.4201 49.6978 46.8056 49.2222 46.8056C48.7466 46.8056 48.3611 46.4201 48.3611 45.9445C48.3611 45.4689 48.7466 45.0834 49.2222 45.0834C49.6978 45.0834 50.0833 45.4689 50.0833 45.9445Z" fill="#47A21D"/>
<path d="M48.3611 50.25C48.3611 50.7256 47.9756 51.1111 47.5 51.1111C47.0244 51.1111 46.6389 50.7256 46.6389 50.25C46.6389 49.7744 47.0244 49.3889 47.5 49.3889C47.9756 49.3889 48.3611 49.7744 48.3611 50.25Z" fill="#47A21D"/>
<path d="M56.1111 41.6389C56.1111 42.1145 55.7256 42.5001 55.25 42.5001C54.7744 42.5001 54.3889 42.1145 54.3889 41.6389C54.3889 41.1634 54.7744 40.7778 55.25 40.7778C55.7256 40.7778 56.1111 41.1634 56.1111 41.6389Z" fill="#47A21D"/>
<path d="M63.0001 38.1945C63.0001 38.6701 62.6145 39.0556 62.1389 39.0556C61.6634 39.0556 61.2778 38.6701 61.2778 38.1945C61.2778 37.7189 61.6634 37.3334 62.1389 37.3334C62.6145 37.3334 63.0001 37.7189 63.0001 38.1945Z" fill="#47A21D"/>
<path d="M33.7222 57.1389C33.7222 57.6145 33.3367 58.0001 32.8611 58.0001C32.3855 58.0001 32 57.6145 32 57.1389C32 56.6634 32.3855 56.2778 32.8611 56.2778C33.3367 56.2778 33.7222 56.6634 33.7222 57.1389Z" fill="#47A21D"/>
<path d="M39.7501 52.8334C39.7501 53.309 39.3645 53.6945 38.8889 53.6945C38.4134 53.6945 38.0278 53.309 38.0278 52.8334C38.0278 52.3578 38.4134 51.9723 38.8889 51.9723C39.3645 51.9723 39.7501 52.3578 39.7501 52.8334Z" fill="#47A21D"/>
<path d="M44.0555 51.9722C44.0555 52.9234 43.2845 53.6944 42.3333 53.6944C41.3821 53.6944 40.6111 52.9234 40.6111 51.9722C40.6111 51.0211 41.3821 50.25 42.3333 50.25C43.2845 50.25 44.0555 51.0211 44.0555 51.9722Z" fill="#47A21D"/>
<path d="M51 63.5C51 64.3284 50.3284 65 49.5 65C48.6716 65 48 64.3284 48 63.5C48 62.6716 48.6716 62 49.5 62C50.3284 62 51 62.6716 51 63.5Z" fill="#79E745"/>
<path d="M45 73.5C45 74.3284 44.3284 75 43.5 75C42.6716 75 42 74.3284 42 73.5C42 72.6716 42.6716 72 43.5 72C44.3284 72 45 72.6716 45 73.5Z" fill="#79E745"/>
<path d="M61 58.5C61 59.3284 60.3284 60 59.5 60C58.6716 60 58 59.3284 58 58.5C58 57.6716 58.6716 57 59.5 57C60.3284 57 61 57.6716 61 58.5Z" fill="#79E745"/>
<path d="M72 49.5C72 50.3284 71.3284 51 70.5 51C69.6716 51 69 50.3284 69 49.5C69 48.6716 69.6716 48 70.5 48C71.3284 48 72 48.6716 72 49.5Z" fill="#79E745"/>
<path d="M54 65C54 65.5523 53.5523 66 53 66C52.4477 66 52 65.5523 52 65C52 64.4477 52.4477 64 53 64C53.5523 64 54 64.4477 54 65Z" fill="#79E745"/>
<path d="M64 56C64 56.5523 63.5523 57 63 57C62.4477 57 62 56.5523 62 56C62 55.4477 62.4477 55 63 55C63.5523 55 64 55.4477 64 56Z" fill="#79E745"/>
<path d="M58 61C58 62.1046 57.1046 63 56 63C54.8954 63 54 62.1046 54 61C54 59.8954 54.8954 59 56 59C57.1046 59 58 59.8954 58 61Z" fill="#79E745"/>
<path d="M67 53C67 54.1046 66.1046 55 65 55C63.8954 55 63 54.1046 63 53C63 51.8954 63.8954 51 65 51C66.1046 51 67 51.8954 67 53Z" fill="#79E745"/>
<path d="M49 69C49 70.1046 48.1046 71 47 71C45.8954 71 45 70.1046 45 69C45 67.8954 45.8954 67 47 67C48.1046 67 49 67.8954 49 69Z" fill="#79E745"/>
<path fill-rule="evenodd" clip-rule="evenodd" d="M46.3601 53.0002C46.6897 53.4434 46.5977 54.0698 46.1546 54.3995C44.9082 55.3267 42.6929 56.593 40.5368 57.8256C40.3737 57.9188 40.211 58.0118 40.049 58.1044C37.6713 59.465 35.4876 60.7358 34.5053 61.5606C34.0823 61.9158 33.4515 61.8608 33.0964 61.4378C32.7413 61.0148 32.7963 60.3841 33.2192 60.0289C34.3745 59.059 36.7596 57.6824 39.0557 56.3685C39.1981 56.2871 39.3402 56.2058 39.4819 56.1248C41.7007 54.856 43.8167 53.6459 44.9609 52.7948C45.404 52.4651 46.0304 52.5571 46.3601 53.0002Z" fill="white"/>
</svg>
