<svg width="96" height="96" viewBox="0 0 96 96" fill="none" xmlns="http://www.w3.org/2000/svg">
<path d="M50.1008 25.9008C50.0385 25.3891 49.6063 25 49.0908 25H46.9272C46.4042 25 45.9678 25.4012 45.9117 25.9212C45.7191 27.7038 45.1806 31.696 44 34.5C42.928 37.046 39.8207 40.2746 36.0187 42.5333C28.5 47 24 51.9612 24 59C24 69.4934 34.7452 78 48 78C61.2548 78 72 69.4934 72 59C72 51.9082 66.5629 46.8037 59.8187 42.4597C56 40 53.0638 37.156 52 34.5C50.9072 31.7715 50.3194 27.6939 50.1008 25.9008Z" fill="#E289B0"/>
<path fill-rule="evenodd" clip-rule="evenodd" d="M46.9272 23H49.0908C50.6351 23 51.9036 24.1613 52.0861 25.6589C52.3065 27.4667 52.873 31.3006 53.8566 33.7564C54.6832 35.8203 57.1804 38.3813 60.9017 40.7783C67.6715 45.1388 74 50.7668 74 59C74 71.0083 61.8986 80 48 80C34.1014 80 22 71.0083 22 59C22 50.8816 27.2832 45.3965 34.9972 40.8138C38.5923 38.6781 41.311 35.7325 42.1567 33.7239C43.2118 31.2182 43.7304 27.4916 43.9232 25.7064C44.0863 24.1965 45.3572 23 46.9272 23ZM49.0908 25C49.6063 25 50.0385 25.3891 50.1008 25.9008C50.3194 27.6939 50.9072 31.7715 52 34.5C53.0638 37.156 56 40 59.8187 42.4597C66.5629 46.8037 72 51.9082 72 59C72 69.4934 61.2548 78 48 78C34.7452 78 24 69.4934 24 59C24 51.9612 28.5 47 36.0187 42.5333C39.8207 40.2746 42.928 37.046 44 34.5C45.1806 31.696 45.7191 27.7038 45.9117 25.9212C45.9678 25.4012 46.4042 25 46.9272 25H49.0908Z" fill="#9D225D"/>
<path d="M41.1779 46.6172C43.4944 48.9867 42.2852 53.9258 38.477 57.649C34.6688 61.3722 29.7037 62.4697 27.3871 60.1003C25.0706 57.7309 26.2798 52.7918 30.088 49.0685C33.8962 45.3453 38.8613 44.2478 41.1779 46.6172Z" fill="#FFA7CF"/>
<path fill-rule="evenodd" clip-rule="evenodd" d="M46.7373 25.0179C46.3019 25.1013 45.9609 25.4656 45.9117 25.9212C45.846 26.5285 45.7403 27.3923 45.5827 28.3781C46.0609 27.1596 46.4512 25.9671 46.7373 25.0179ZM30.3843 71.9042C33.3835 73.7126 36.8938 75.0283 40.7358 75.6547C53.8179 77.7876 65.7919 71.1209 67.4804 60.7642C68.6216 53.7649 64.0767 47.8519 58.1194 42.4793C55.4282 40.0522 53.3307 37.474 52.2765 35.1125C53.5181 37.5888 56.2921 40.1881 59.8187 42.4597C66.5629 46.8036 72 51.9082 72 59C72 69.4934 61.2548 78 48 78C41.0379 78 34.7682 75.6531 30.3843 71.9042Z" fill="#C7638F"/>
<path d="M50 58C50 67.9411 49.5523 76 49 76C48.4477 76 48 67.9411 48 58C48 48.0589 48.4477 40 49 40C49.5523 40 50 48.0589 50 58Z" fill="#C54C82"/>
<path d="M66 57.5C66 66.0604 57.5793 73 57.0288 73C56.4783 73 64.0064 66.0604 64.0064 57.5C64.0064 48.9396 56.4783 42 57.0288 42C57.5793 42 66 48.9396 66 57.5Z" fill="#C54C82"/>
<path d="M30 57.5C30 66.0604 38.4207 73 38.9712 73C39.5217 73 31.9936 66.0604 31.9936 57.5C31.9936 48.9396 39.5217 42 38.9712 42C38.4207 42 30 48.9396 30 57.5Z" fill="#C54C82"/>
<path d="M58 58.5C58 68.165 53.2574 76 53.0128 76C52.7681 76 55.1139 68.165 55.1139 58.5C55.1139 48.835 52.7681 41 53.0128 41C53.2574 41 58 48.835 58 58.5Z" fill="#C54C82"/>
<path d="M39 58.5C39 68.165 43.7426 76 43.9872 76C44.2319 76 41.8861 68.165 41.8861 58.5C41.8861 48.835 44.2319 41 43.9872 41C43.7426 41 39 48.835 39 58.5Z" fill="#C54C82"/>
<path d="M65.7796 61.0085C65.3821 61.7757 64.4379 62.0754 63.6707 61.678C62.9035 61.2805 62.6037 60.3363 63.0012 59.5691C63.3987 58.8018 64.3429 58.5021 65.1101 58.8996C65.8774 59.2971 66.1771 60.2413 65.7796 61.0085Z" fill="#A3446E"/>
<path d="M69.0389 65.7163C68.6414 66.4835 67.6972 66.7833 66.93 66.3858C66.1628 65.9883 65.863 65.0441 66.2605 64.2769C66.658 63.5097 67.6022 63.2099 68.3694 63.6074C69.1366 64.0049 69.4364 64.9491 69.0389 65.7163Z" fill="#A3446E"/>
<path d="M70.0525 60.1975C69.7544 60.7729 69.0463 60.9977 68.4709 60.6996C67.8954 60.4015 67.6706 59.6934 67.9688 59.1179C68.2669 58.5425 68.975 58.3177 69.5504 58.6158C70.1259 58.9139 70.3507 59.6221 70.0525 60.1975Z" fill="#A3446E"/>
<path d="M65.7747 70.3375C65.3772 71.1047 64.4331 71.4045 63.6658 71.007C62.8986 70.6095 62.5989 69.6653 62.9964 68.8981C63.3938 68.1309 64.338 67.8311 65.1052 68.2286C65.8725 68.6261 66.1722 69.5703 65.7747 70.3375Z" fill="#A3446E"/>
<path d="M63.4964 65.552C63.0989 66.3192 62.1547 66.619 61.3875 66.2215C60.6203 65.824 60.3205 64.8798 60.718 64.1126C61.1155 63.3453 62.0597 63.0456 62.8269 63.4431C63.5942 63.8406 63.8939 64.7848 63.4964 65.552Z" fill="#A3446E"/>
<path d="M60.3792 73.5496C59.9817 74.3168 59.0375 74.6166 58.2703 74.2191C57.5031 73.8216 57.2034 72.8774 57.6008 72.1102C57.9983 71.343 58.9425 71.0432 59.7097 71.4407C60.477 71.8382 60.7767 72.7824 60.3792 73.5496Z" fill="#A3446E"/>
<path d="M59.0067 68.778C58.6092 69.5452 57.665 69.845 56.8978 69.4475C56.1305 69.05 55.8308 68.1058 56.2283 67.3386C56.6258 66.5714 57.57 66.2716 58.3372 66.6691C59.1044 67.0666 59.4041 68.0108 59.0067 68.778Z" fill="#A3446E"/>
<path d="M54.472 75.3303C54.1739 75.9057 53.4657 76.1305 52.8903 75.8324C52.3149 75.5342 52.0901 74.8261 52.3882 74.2507C52.6863 73.6753 53.3944 73.4505 53.9699 73.7486C54.5453 74.0467 54.7701 74.7548 54.472 75.3303Z" fill="#A3446E"/>
<path fill-rule="evenodd" clip-rule="evenodd" d="M33.6676 51.0765C34.4675 51.8383 34.4984 53.1042 33.7366 53.9041C33.1554 54.5143 32.7547 55.1766 32.5081 55.8998C32.1516 56.9452 31.0151 57.5038 29.9697 57.1473C28.9242 56.7908 28.3657 55.6543 28.7221 54.6089C29.1644 53.3118 29.8791 52.1544 30.84 51.1454C31.6018 50.3456 32.8678 50.3147 33.6676 51.0765Z" fill="white"/>
</svg>
