<svg width="96" height="96" viewBox="0 0 96 96" fill="none" xmlns="http://www.w3.org/2000/svg">
<path d="M16.595 36.003C14.4952 50.1802 23.1308 58.4051 35.1627 58.1155C47.1947 57.8259 60.3072 60.2256 63.6947 47.3259C66.5908 36.297 61.2992 31.7323 46.759 26.1351C32.2188 20.538 18.6948 21.8258 16.595 36.003Z" fill="#CA8E34"/>
<path fill-rule="evenodd" clip-rule="evenodd" d="M19.0904 53.8195C22.9562 58.1306 28.7321 60.2708 35.2109 60.1149C36.9981 60.0718 38.747 60.0885 40.522 60.1054C41.7396 60.117 42.9693 60.1287 44.2321 60.1214C47.2367 60.1039 50.267 59.9738 53.0654 59.41C55.8756 58.8439 58.5562 57.8208 60.7872 55.9433C63.0398 54.0477 64.6926 51.4001 65.6291 47.8338C67.1823 41.9189 66.6268 37.2654 63.2796 33.3868C60.1365 29.7449 54.7269 27.0592 47.4775 24.2686C40.034 21.4033 32.5562 20.1738 26.5171 21.7159C23.4588 22.4968 20.745 23.9975 18.6503 26.369C16.5581 28.7377 15.1872 31.8573 14.6166 35.71C13.4988 43.2566 15.2125 49.4948 19.0904 53.8195ZM35.1627 58.1154C23.1308 58.405 14.4952 50.1802 16.595 36.003C18.6948 21.8258 32.2188 20.538 46.759 26.1351C61.2992 31.7322 66.5908 36.2969 63.6947 47.3258C60.8146 58.2935 50.9045 58.2015 40.6055 58.1059C38.7912 58.089 36.9649 58.0721 35.1627 58.1154Z" fill="#855D22"/>
<path d="M36.1948 26.8258C37.477 29.3719 34.5139 32.0847 30.6948 34.008C26.8757 35.9313 22.4457 36.5541 21.1634 34.008C19.8812 31.4619 21.9378 27.8388 25.7569 25.9155C29.576 23.9922 34.9126 24.2797 36.1948 26.8258Z" fill="#DB9F45"/>
<path fill-rule="evenodd" clip-rule="evenodd" d="M16.4994 36.7042C17.7934 40.0909 20.0689 43.093 23.7214 44.3129C33.2702 47.5021 52.835 42.7781 49.9227 30.8856C49.5302 29.2824 48.8773 27.8733 48.0292 26.6309C61.6062 32.0088 66.5051 36.6242 63.6948 47.3258C60.8148 58.2935 50.9046 58.2015 40.6057 58.1059C38.7914 58.089 36.965 58.0721 35.1629 58.1154C23.3307 58.4002 14.783 50.451 16.4994 36.7042Z" fill="#AA7A32"/>
<path d="M79.6863 52.6551C77.2409 40.0395 64.2013 32.0085 49.5766 42.7619C34.9519 53.5153 22.4779 49.214 23.6033 62.1354C24.5926 73.4952 40.5441 75.8826 53.8781 75.8826C67.2121 75.8826 81.626 63.8917 79.6863 52.6551Z" fill="#DD9B38"/>
<path fill-rule="evenodd" clip-rule="evenodd" d="M81.6536 52.2946L81.6497 52.2745C80.3195 45.412 76.0706 39.634 69.9659 37.0981C63.796 34.5352 56.146 35.449 48.3918 41.1506C42.8932 45.1937 37.8161 46.9727 33.4432 48.5049C32.2232 48.9324 31.058 49.3407 29.9537 49.7736C27.4983 50.7362 25.1474 51.905 23.5561 53.9356C21.9011 56.0474 21.3024 58.7678 21.6108 62.3089C22.206 69.1428 27.3601 73.0308 33.4524 75.1572C39.5512 77.2859 47.1416 77.8826 53.8781 77.8826C61.103 77.8826 68.4941 74.6571 73.8274 69.9873C79.119 65.3539 82.7945 58.9033 81.6571 52.3149L81.6536 52.2946ZM79.6863 52.6551C81.626 63.8917 67.2121 75.8826 53.8781 75.8826C40.5441 75.8826 24.5927 73.4952 23.6033 62.1354C22.9216 54.3077 27.2306 52.8005 33.9852 50.4379C38.3806 48.9005 43.8115 47.0009 49.5766 42.7619C64.2013 32.0085 77.2409 40.0395 79.6863 52.6551Z" fill="#976923"/>
<path fill-rule="evenodd" clip-rule="evenodd" d="M66.9977 38.2177C71.591 40.4992 74.8657 45.1141 75.9445 50.6793C77.7655 61.2284 64.2336 72.4856 51.7154 72.4856C39.8355 72.4856 25.7425 70.467 23.5424 61.146C23.5534 61.4642 23.5736 61.7938 23.6034 62.1355C24.5928 73.4953 40.5442 75.8827 53.8782 75.8827C67.2122 75.8827 81.6261 63.8918 79.6864 52.6552C78.3031 45.5191 73.53 39.8499 66.9977 38.2177Z" fill="#CA8E34"/>
<path d="M52.2723 51.0373C51.5643 51.6711 50.4766 51.6111 49.8427 50.9032C49.2089 50.1952 49.2689 49.1075 49.9768 48.4736C50.6848 47.8398 51.7725 47.8998 52.4064 48.6078C53.0402 49.3157 52.9802 50.4034 52.2723 51.0373Z" fill="#996518"/>
<path d="M35.2723 67.0373C34.5643 67.6711 33.4766 67.6111 32.8427 66.9032C32.2089 66.1952 32.2689 65.1075 32.9768 64.4736C33.6848 63.8398 34.7725 63.8998 35.4064 64.6078C36.0402 65.3157 35.9802 66.4034 35.2723 67.0373Z" fill="#996518"/>
<path d="M44.2723 61.0373C43.5643 61.6711 42.4766 61.6111 41.8427 60.9032C41.2089 60.1952 41.2689 59.1075 41.9768 58.4736C42.6848 57.8398 43.7725 57.8998 44.4064 58.6078C45.0402 59.3157 44.9802 60.4034 44.2723 61.0373Z" fill="#996518"/>
<path d="M52.2723 67.0373C51.5643 67.6711 50.4766 67.6111 49.8427 66.9032C49.2089 66.1952 49.2689 65.1075 49.9768 64.4736C50.6848 63.8398 51.7725 63.8998 52.4064 64.6078C53.0402 65.3157 52.9802 66.4034 52.2723 67.0373Z" fill="#996518"/>
<path d="M65.2723 54.0373C64.5643 54.6711 63.4766 54.6111 62.8427 53.9032C62.2089 53.1952 62.2689 52.1075 62.9768 51.4736C63.6848 50.8398 64.7725 50.8998 65.4064 51.6078C66.0402 52.3157 65.9802 53.4034 65.2723 54.0373Z" fill="#996518"/>
<path d="M65.2723 44.0373C64.5643 44.6711 63.4766 44.6111 62.8427 43.9032C62.2089 43.1952 62.2689 42.1075 62.9768 41.4736C63.6848 40.8398 64.7725 40.8998 65.4064 41.6078C66.0402 42.3157 65.9802 43.4034 65.2723 44.0373Z" fill="#996518"/>
<path d="M77.2723 55.0373C76.5643 55.6711 75.4766 55.6111 74.8427 54.9032C74.2089 54.1952 74.2689 53.1075 74.9768 52.4736C75.6848 51.8398 76.7725 51.8998 77.4064 52.6078C78.0402 53.3157 77.9802 54.4034 77.2723 55.0373Z" fill="#996518"/>
<path d="M58.2723 59.0373C57.5643 59.6711 56.4766 59.6111 55.8427 58.9032C55.2089 58.1952 55.2689 57.1075 55.9768 56.4736C56.6848 55.8398 57.7725 55.8998 58.4064 56.6078C59.0402 57.3157 58.9802 58.4034 58.2723 59.0373Z" fill="#996518"/>
<path d="M71.5774 62.7115C70.8695 63.3453 69.7818 63.2853 69.1479 62.5774C68.514 61.8694 68.5741 60.7817 69.282 60.1478C69.99 59.514 71.0777 59.574 71.7115 60.2819C72.3454 60.9899 72.2854 62.0776 71.5774 62.7115Z" fill="#996518"/>
<path d="M60.5774 70.7115C59.8695 71.3453 58.7818 71.2853 58.1479 70.5774C57.514 69.8694 57.5741 68.7817 58.282 68.1478C58.99 67.514 60.0777 67.574 60.7115 68.2819C61.3454 68.9899 61.2854 70.0776 60.5774 70.7115Z" fill="#996518"/>
<path d="M70.5774 70.7115C69.8695 71.3453 68.7818 71.2853 68.1479 70.5774C67.514 69.8694 67.5741 68.7817 68.282 68.1478C68.99 67.514 70.0777 67.574 70.7115 68.2819C71.3454 68.9899 71.2854 70.0776 70.5774 70.7115Z" fill="#996518"/>
<path d="M53.5774 76.7115C52.8695 77.3453 51.7818 77.2853 51.1479 76.5774C50.514 75.8694 50.5741 74.7817 51.282 74.1478C51.99 73.514 53.0777 73.574 53.7115 74.2819C54.3454 74.9899 54.2854 76.0776 53.5774 76.7115Z" fill="#996518"/>
<path d="M42.2723 76.0373C41.5643 76.6711 40.4766 76.6111 39.8427 75.9032C39.2089 75.1952 39.2689 74.1075 39.9768 73.4736C40.6848 72.8398 41.7725 72.8998 42.4064 73.6078C43.0402 74.3157 42.9802 75.4034 42.2723 76.0373Z" fill="#996518"/>
<path d="M26.2723 58.0373C25.5643 58.6711 24.4766 58.6111 23.8427 57.9032C23.2089 57.1952 23.2689 56.1075 23.9768 55.4736C24.6848 54.8398 25.7725 54.8998 26.4064 55.6078C27.0402 56.3157 26.9802 57.4034 26.2723 58.0373Z" fill="#996518"/>
<path d="M42.2723 50.0373C41.5643 50.6711 40.4766 50.6111 39.8427 49.9032C39.2089 49.1952 39.2689 48.1075 39.9768 47.4736C40.6848 46.8398 41.7725 46.8998 42.4064 47.6078C43.0402 48.3157 42.9802 49.4034 42.2723 50.0373Z" fill="#996518"/>
<path d="M77.272 46.0373C76.5641 46.6711 75.4763 46.6111 74.8425 45.9032C74.2086 45.1952 74.2687 44.1075 74.9766 43.4736C75.6845 42.8398 76.7723 42.8998 77.4061 43.6078C78.04 44.3157 77.9799 45.4034 77.272 46.0373Z" fill="#996518"/>
<path d="M40.9936 54.0431C42.2758 56.5891 40.2193 60.2123 36.4002 62.1356C32.5811 64.0589 28.4457 63.5541 27.1634 61.008C25.8812 58.4619 27.9378 54.8388 31.7569 52.9155C35.576 50.9922 39.7114 51.497 40.9936 54.0431Z" fill="#EEB257"/>
<path fill-rule="evenodd" clip-rule="evenodd" d="M34.0286 55.5322C34.5449 56.5086 34.1719 57.7188 33.1954 58.2351C32.5885 58.556 32.1124 58.9609 31.7393 59.4497C31.0691 60.3277 29.814 60.4961 28.936 59.8259C28.058 59.1557 27.8896 57.9006 28.5598 57.0226C29.3008 56.0519 30.232 55.2773 31.3256 54.6991C32.3021 54.1827 33.5122 54.5557 34.0286 55.5322Z" fill="white"/>
</svg>
