<svg width="96" height="96" viewBox="0 0 96 96" fill="none" xmlns="http://www.w3.org/2000/svg">
<path d="M54.1376 52.7225C62.083 42.9055 68.0687 30.8427 70.0683 26.0384C72.5455 21.5801 74.1036 25.1483 74.8473 27.2411C77.6238 35.0544 75.2894 50.0166 67.4132 62.4328C59.3249 75.1833 38.8715 85.2553 33.5081 84.631C32.9583 84.567 32.605 84.0801 32.5424 83.5301C31.537 74.6945 44.5178 64.6082 54.1376 52.7225Z" fill="#528A1C"/>
<path fill-rule="evenodd" clip-rule="evenodd" d="M68.2653 25.1656L68.3201 25.067C68.9941 23.8539 69.7965 22.8086 70.8423 22.2718C71.4123 21.9793 72.0537 21.8399 72.7211 21.9234C73.3711 22.0047 73.9042 22.2792 74.3108 22.5853C75.0723 23.1586 75.582 23.9875 75.9115 24.6242C76.2637 25.3048 76.5363 26.0211 76.7319 26.5714C78.2869 30.9474 78.3447 37.0418 77.0881 43.4932C75.822 49.9937 73.1809 57.0742 69.102 63.5042C64.8177 70.2581 57.38 76.159 50.4598 80.2672C46.9779 82.3343 43.5604 83.9873 40.637 85.0902C39.1762 85.6414 37.8114 86.0656 36.6048 86.3323C35.4312 86.5917 34.2719 86.7334 33.2769 86.6176C31.5143 86.4125 30.6859 84.9051 30.5552 83.7562C30.243 81.0126 31.0334 78.3166 32.3627 75.7426C33.6909 73.1706 35.6325 70.5758 37.8283 67.9788C39.7469 65.7096 41.9211 63.3685 44.1292 60.9909C44.4513 60.6441 44.7741 60.2965 45.0969 59.9483C47.6498 57.1945 50.2242 54.3786 52.583 51.4643C60.3729 41.8395 66.2703 29.9586 68.2219 25.2698L68.2653 25.1656ZM70.0683 26.0384C68.0687 30.8427 62.083 42.9055 54.1376 52.7225C51.4267 56.0719 48.449 59.2784 45.5925 62.3543C38.3125 70.1935 31.8203 77.1844 32.5424 83.5301C32.605 84.0801 32.9583 84.567 33.5081 84.631C38.8715 85.2553 59.3249 75.1832 67.4132 62.4328C75.2894 50.0166 77.6238 35.0544 74.8473 27.2411C74.1036 25.1483 72.5455 21.5801 70.0683 26.0384Z" fill="#3A670E"/>
<path d="M40.2452 37.373C50.3846 32.3163 59.7601 24.6969 63.1804 21.5193C66.8618 18.8019 66.8057 22.2945 66.6339 24.2797C65.9926 31.691 58.5187 43.036 47.4683 50.2402C36.1903 57.5929 15.9266 58.2405 11.6082 55.7885C11.1269 55.5151 11.0021 54.9242 11.1795 54.3998C13.726 46.8724 28.0148 43.4724 40.2452 37.373Z" fill="#96D136"/>
<path fill-rule="evenodd" clip-rule="evenodd" d="M61.9018 19.9772L61.9926 19.9101C63.0036 19.1639 64.0886 18.579 65.2044 18.5271C65.8152 18.4988 66.4325 18.6317 66.9852 18.9722C67.5231 19.3036 67.8787 19.7564 68.1094 20.1812C68.5402 20.9739 68.6495 21.8779 68.682 22.5292C68.7169 23.2299 68.6719 23.9271 68.6265 24.4521C68.2629 28.6539 66.0199 33.6856 62.5821 38.4999C59.1153 43.3548 54.3058 48.17 48.5606 51.9156C42.5477 55.8357 34.3081 57.8886 27.1478 58.679C23.5426 59.077 20.1357 59.1635 17.3213 58.986C14.6199 58.8156 12.1331 58.3864 10.6207 57.5276C9.0462 56.6336 8.9071 54.8758 9.28494 53.7589C10.0921 51.373 11.7827 49.4526 13.8457 47.8442C15.9078 46.2365 18.4707 44.841 21.2284 43.5416C23.6268 42.4116 26.2558 41.3168 28.9203 40.2073C29.3234 40.0394 29.7274 39.8712 30.1314 39.7025C33.2288 38.4091 36.3605 37.0753 39.3526 35.5832C49.2708 30.6368 58.4905 23.1464 61.8191 20.054L61.9018 19.9772ZM63.1804 21.5192C59.7601 24.6968 50.3846 32.3162 40.2451 37.3729C36.7857 39.0982 33.1616 40.6075 29.6851 42.0553C20.8709 45.726 13.0057 49.0016 11.1795 54.3998C11.0021 54.9242 11.1268 55.5151 11.6082 55.7884C15.9266 58.2405 36.1903 57.5929 47.4683 50.2402C58.5186 43.036 65.9926 31.691 66.6339 24.2796C66.8057 22.2945 66.8618 18.8018 63.1804 21.5192Z" fill="#61980A"/>
<path d="M48.8362 43.6615C48.8362 45.7843 47.1153 47.5052 44.9924 47.5052C42.8696 47.5052 41.1487 45.7843 41.1487 43.6615C41.1487 41.5386 42.8696 39.8177 44.9924 39.8177C47.1153 39.8177 48.8362 41.5386 48.8362 43.6615Z" fill="#99DA32"/>
<path d="M56.2737 38.2552C56.2737 40.1882 54.7067 41.7552 52.7737 41.7552C50.8407 41.7552 49.2737 40.1882 49.2737 38.2552C49.2737 36.3223 50.8407 34.7552 52.7737 34.7552C54.7067 34.7552 56.2737 36.3223 56.2737 38.2552Z" fill="#99DA32"/>
<path d="M39.9924 48.0677C39.9924 50.0007 38.4254 51.5677 36.4924 51.5677C34.5594 51.5677 32.9924 50.0007 32.9924 48.0677C32.9924 46.1348 34.5594 44.5677 36.4924 44.5677C38.4254 44.5677 39.9924 46.1348 39.9924 48.0677Z" fill="#99DA32"/>
<path d="M31.6174 50.6615C31.6174 52.094 30.4562 53.2552 29.0237 53.2552C27.5912 53.2552 26.4299 52.094 26.4299 50.6615C26.4299 49.229 27.5912 48.0677 29.0237 48.0677C30.4562 48.0677 31.6174 49.229 31.6174 50.6615Z" fill="#99DA32"/>
<path d="M61.3987 32.7767C61.3987 34.192 60.2514 35.3392 58.8362 35.3392C57.421 35.3392 56.2737 34.192 56.2737 32.7767C56.2737 31.3615 57.421 30.2142 58.8362 30.2142C60.2514 30.2142 61.3987 31.3615 61.3987 32.7767Z" fill="#99DA32"/>
<path d="M64.6487 27.0276C64.6487 27.9645 63.8892 28.724 62.9523 28.724C62.0154 28.724 61.2559 27.9645 61.2559 27.0276C61.2559 26.0907 62.0154 25.3312 62.9523 25.3312C63.8892 25.3312 64.6487 26.0907 64.6487 27.0276Z" fill="#99DA32"/>
<path d="M24.5862 52.3579C24.5862 53.2948 23.8267 54.0543 22.8898 54.0543C21.9529 54.0543 21.1934 53.2948 21.1934 52.3579C21.1934 51.421 21.9529 50.6615 22.8898 50.6615C23.8267 50.6615 24.5862 51.421 24.5862 52.3579Z" fill="#99DA32"/>
<path fill-rule="evenodd" clip-rule="evenodd" d="M65.3809 20.5235C62.071 23.8708 53.069 31.8518 43.1986 37.3254C39.8179 39.2002 36.2632 40.8664 32.8533 42.4647C24.2079 46.5171 16.4933 50.1332 14.9047 55.6061C14.7851 56.0182 14.8486 56.4623 15.1128 56.7586C13.5593 56.5386 12.3492 56.2091 11.6083 55.7885C11.1269 55.5152 11.0022 54.9242 11.1796 54.3999C13.0058 49.0016 20.871 45.7261 29.6852 42.0553C33.1617 40.6075 36.7858 39.0982 40.2452 37.373C50.3847 32.3163 59.7602 24.6969 63.1805 21.5193C64.1521 20.8021 64.8633 20.5175 65.3809 20.5235Z" fill="#B8F458"/>
<path d="M48.4608 47.8982C58.3342 40.0229 66.7776 29.5324 69.7651 25.2716C73.1444 21.4515 73.8974 25.2716 74.1728 27.4754C75.2013 35.7033 69.699 49.8116 59.3333 60.2399C48.6886 70.949 26.5459 76.3792 21.4429 74.6144C20.9197 74.4335 20.6796 73.8819 20.7369 73.3313C21.6582 64.4866 36.5068 57.4329 48.4608 47.8982Z" fill="#6FAE31"/>
<path fill-rule="evenodd" clip-rule="evenodd" d="M68.1923 24.0309L68.2671 23.9464C69.1866 22.907 70.1953 22.059 71.3322 21.7601C71.9519 21.5972 72.6082 21.5993 73.2419 21.8245C73.8592 22.0439 74.3207 22.4268 74.6518 22.8133C75.2719 23.5372 75.5911 24.4564 75.7757 25.1491C75.9731 25.8896 76.085 26.6478 76.1574 27.2274C76.7335 31.8355 75.4773 37.7993 72.8606 43.8287C70.2241 49.9039 66.1199 56.2493 60.7518 61.6498C55.1134 67.3224 46.5793 71.4829 38.9366 74.0042C35.0912 75.2727 31.3979 76.1508 28.3056 76.5983C26.7604 76.8218 25.3362 76.9421 24.1005 76.9427C22.8985 76.9432 21.7359 76.832 20.7893 76.5046C19.1122 75.9246 18.628 74.2742 18.7478 73.1241C19.0338 70.3776 20.3864 67.9152 22.2388 65.6879C24.0899 63.4623 26.5448 61.3466 29.2484 59.2835C31.6107 57.4808 34.2381 55.663 36.9065 53.8168C37.2957 53.5475 37.6858 53.2776 38.076 53.007C41.1621 50.8677 44.2827 48.6725 47.2137 46.3346C56.8939 38.6135 65.2119 28.2817 68.1275 24.1234L68.1923 24.0309ZM69.7651 25.2715C66.7776 29.5324 58.3343 40.0229 48.4609 47.8981C45.0922 50.585 41.4937 53.0749 38.0418 55.4633C29.2442 61.5506 21.3987 66.979 20.737 73.3313C20.6796 73.8819 20.9198 74.4335 21.4429 74.6144C26.5459 76.3792 48.6887 70.949 59.3334 60.2399C69.6991 49.8115 75.2014 35.7033 74.1729 27.4754C73.8974 25.2715 73.1444 21.4515 69.7651 25.2715Z" fill="#3B6D0A"/>
<path fill-rule="evenodd" clip-rule="evenodd" d="M69.7652 25.2716C66.7777 29.5324 58.3344 40.0229 48.4609 47.8982C45.0923 50.5851 41.4938 53.0749 38.0418 55.4634C29.2442 61.5506 21.3987 66.979 20.7371 73.3313C20.6797 73.8819 20.9199 74.4335 21.443 74.6144C21.5101 74.6376 21.5801 74.6596 21.6529 74.6803C23.5225 68.9311 30.7769 63.6973 38.8064 57.9044C42.3388 55.3559 46.0212 52.6992 49.4611 49.8427C59.5434 41.4706 68.0885 30.4145 71.1008 25.933C71.9664 24.9148 72.6681 24.4055 73.239 24.2496C72.6029 23.3677 71.5506 23.2533 69.7652 25.2716Z" fill="#59991B"/>
<path d="M66.595 24.7515C68.9204 21.224 72.0957 20.7405 73.7123 21.0028C73.8747 21.0291 74.0234 21.1076 74.1441 21.2194C77.1457 23.9998 77.0969 27.81 76.5415 30.0312C76.4117 30.5505 75.8458 30.8066 75.4252 30.4756C74.2243 29.5304 73.2981 27.6137 72.7669 26.1431C72.5637 25.5807 71.9371 25.2718 71.3624 25.437C69.9914 25.8311 68.5178 26.0046 67.3652 26.0651C66.6447 26.1028 66.1979 25.3539 66.595 24.7515Z" fill="#BDCF61"/>
<path fill-rule="evenodd" clip-rule="evenodd" d="M82.9135 17.9527C78.354 17.7406 75.0276 20.9867 73.9549 22.6404C73.6544 23.1037 73.0351 23.2357 72.5718 22.9352C72.1084 22.6346 71.9765 22.0154 72.277 21.552C73.5552 19.5815 77.4575 15.6968 83.0065 15.9549C83.5581 15.9805 83.9846 16.4486 83.9589 17.0003C83.9333 17.5519 83.4652 17.9784 82.9135 17.9527Z" fill="#BDCF61"/>
<path d="M57.8363 55.2714C57.8363 58.4036 55.2971 60.9427 52.165 60.9427C49.0328 60.9427 46.4937 58.4036 46.4937 55.2714C46.4937 52.1392 49.0328 49.6001 52.165 49.6001C55.2971 49.6001 57.8363 52.1392 57.8363 55.2714Z" fill="#B2EA4E"/>
<path d="M65.7112 45.6302C65.7112 48.012 63.7804 49.9427 61.3987 49.9427C59.017 49.9427 57.0862 48.012 57.0862 45.6302C57.0862 43.2485 59.017 41.3177 61.3987 41.3177C63.7804 41.3177 65.7112 43.2485 65.7112 45.6302Z" fill="#B2EA4E"/>
<path d="M45.6487 62.4427C45.6487 64.8245 43.7179 66.7552 41.3362 66.7552C38.9545 66.7552 37.0237 64.8245 37.0237 62.4427C37.0237 60.061 38.9545 58.1302 41.3362 58.1302C43.7179 58.1302 45.6487 60.061 45.6487 62.4427Z" fill="#B2EA4E"/>
<path d="M69.9612 36.9115C69.9612 38.6546 68.5481 40.0677 66.8049 40.0677C65.0618 40.0677 63.6487 38.6546 63.6487 36.9115C63.6487 35.1684 65.0618 33.7552 66.8049 33.7552C68.5481 33.7552 69.9612 35.1684 69.9612 36.9115Z" fill="#B2EA4E"/>
<path d="M36.1487 66.7552C36.1487 68.4984 34.7356 69.9115 32.9924 69.9115C31.2493 69.9115 29.8362 68.4984 29.8362 66.7552C29.8362 65.0121 31.2493 63.599 32.9924 63.599C34.7356 63.599 36.1487 65.0121 36.1487 66.7552Z" fill="#B2EA4E"/>
<path d="M28.2737 70.974C28.2737 72.1303 27.3363 73.0677 26.1799 73.0677C25.0236 73.0677 24.0862 72.1303 24.0862 70.974C24.0862 69.8177 25.0236 68.8802 26.1799 68.8802C27.3363 68.8802 28.2737 69.8177 28.2737 70.974Z" fill="#B2EA4E"/>
<path d="M73.116 29.5785C73.116 30.8152 72.1134 31.8177 70.8767 31.8177C69.64 31.8177 68.6375 30.8152 68.6375 29.5785C68.6375 28.3418 69.64 27.3392 70.8767 27.3392C72.1134 27.3392 73.116 28.3418 73.116 29.5785Z" fill="#B2EA4E"/>
<path d="M52.5097 54.2942C52.5097 55.4678 51.5584 56.4192 50.3848 56.4192C49.2112 56.4192 48.2598 55.4678 48.2598 54.2942C48.2598 53.1206 49.2112 52.1692 50.3848 52.1692C51.5584 52.1692 52.5097 53.1206 52.5097 54.2942Z" fill="#EAFFBE"/>
<path d="M62.7737 44.9192C62.7737 46.0928 61.8223 47.0442 60.6487 47.0442C59.4751 47.0442 58.5237 46.0928 58.5237 44.9192C58.5237 43.7456 59.4751 42.7942 60.6487 42.7942C61.8223 42.7942 62.7737 43.7456 62.7737 44.9192Z" fill="#EAFFBE"/>
<path d="M42.8987 61.8567C42.8987 63.0303 41.9473 63.9817 40.7737 63.9817C39.6001 63.9817 38.6487 63.0303 38.6487 61.8567C38.6487 60.6831 39.6001 59.7317 40.7737 59.7317C41.9473 59.7317 42.8987 60.6831 42.8987 61.8567Z" fill="#EAFFBE"/>
<path d="M33.6174 66.0052C33.6174 66.7646 33.0018 67.3802 32.2424 67.3802C31.483 67.3802 30.8674 66.7646 30.8674 66.0052C30.8674 65.2459 31.483 64.6302 32.2424 64.6302C33.0018 64.6302 33.6174 65.2459 33.6174 66.0052Z" fill="#EAFFBE"/>
<path d="M26.1799 70.2865C26.1799 70.6662 25.8721 70.974 25.4924 70.974C25.1127 70.974 24.8049 70.6662 24.8049 70.2865C24.8049 69.9068 25.1127 69.599 25.4924 69.599C25.8721 69.599 26.1799 69.9068 26.1799 70.2865Z" fill="#EAFFBE"/>
<path d="M67.3049 36.099C67.3049 36.8239 66.7173 37.4115 65.9924 37.4115C65.2676 37.4115 64.6799 36.8239 64.6799 36.099C64.6799 35.3741 65.2676 34.7865 65.9924 34.7865C66.7173 34.7865 67.3049 35.3741 67.3049 36.099Z" fill="#EAFFBE"/>
<path d="M71.1487 28.9115C71.1487 29.3947 70.7569 29.7865 70.2737 29.7865C69.7904 29.7865 69.3987 29.3947 69.3987 28.9115C69.3987 28.4282 69.7904 28.0365 70.2737 28.0365C70.7569 28.0365 71.1487 28.4282 71.1487 28.9115Z" fill="#EAFFBE"/>
</svg>
